G04 This is an RS-274x file exported by *
G04 gerbv version 2.6A *
G04 More information is available about gerbv at *
G04 http://gerbv.geda-project.org/ *
G04 --End of header info--*
%MOIN*%
%FSLAX34Y34*%
%IPPOS*%
G04 --Define apertures--*
%ADD10C,0.0039*%
G04 --Start main section--*
G54D10*
G36*
G01X0076404Y-051892D02*
G01X0076605Y-051976D01*
G01X0076605Y-051976D01*
G01X0076786Y-052096D01*
G01X0076939Y-052250D01*
G01X0077060Y-052430D01*
G01X0077060Y-052430D01*
G01X0077143Y-052631D01*
G01X0077185Y-052844D01*
G01X0077185Y-053061D01*
G01X0077143Y-053274D01*
G01X0077065Y-053462D01*
G01X0077060Y-053475D01*
G01X0076939Y-053656D01*
G01X0076786Y-053809D01*
G01X0076605Y-053930D01*
G01X0076605Y-053930D01*
G01X0076605Y-053930D01*
G01X0076404Y-054013D01*
G01X0076191Y-054056D01*
G01X0075974Y-054056D01*
G01X0075761Y-054013D01*
G01X0075560Y-053930D01*
G01X0075560Y-053930D01*
G01X0075560Y-053930D01*
G01X0075380Y-053809D01*
G01X0075226Y-053656D01*
G01X0075105Y-053475D01*
G01X0075100Y-053462D01*
G01X0075022Y-053274D01*
G01X0074980Y-053061D01*
G01X0074980Y-052844D01*
G01X0075022Y-052631D01*
G01X0075105Y-052430D01*
G01X0075105Y-052430D01*
G01X0075226Y-052250D01*
G01X0075380Y-052096D01*
G01X0075560Y-051976D01*
G01X0075560Y-051976D01*
G01X0075761Y-051892D01*
G01X0075974Y-051850D01*
G01X0076191Y-051850D01*
G01X0076404Y-051892D01*
G01X0076404Y-051892D01*
G37*
G36*
G01X0096877Y-051892D02*
G01X0097077Y-051976D01*
G01X0097077Y-051976D01*
G01X0097258Y-052096D01*
G01X0097412Y-052250D01*
G01X0097532Y-052430D01*
G01X0097532Y-052430D01*
G01X0097615Y-052631D01*
G01X0097658Y-052844D01*
G01X0097658Y-053061D01*
G01X0097615Y-053274D01*
G01X0097538Y-053462D01*
G01X0097532Y-053475D01*
G01X0097412Y-053656D01*
G01X0097258Y-053809D01*
G01X0097077Y-053930D01*
G01X0097077Y-053930D01*
G01X0097077Y-053930D01*
G01X0096877Y-054013D01*
G01X0096664Y-054056D01*
G01X0096447Y-054056D01*
G01X0096233Y-054013D01*
G01X0096033Y-053930D01*
G01X0096033Y-053930D01*
G01X0096033Y-053930D01*
G01X0095852Y-053809D01*
G01X0095699Y-053656D01*
G01X0095578Y-053475D01*
G01X0095573Y-053462D01*
G01X0095495Y-053274D01*
G01X0095452Y-053061D01*
G01X0095452Y-052844D01*
G01X0095495Y-052631D01*
G01X0095578Y-052430D01*
G01X0095578Y-052430D01*
G01X0095699Y-052250D01*
G01X0095852Y-052096D01*
G01X0096033Y-051976D01*
G01X0096033Y-051976D01*
G01X0096233Y-051892D01*
G01X0096447Y-051850D01*
G01X0096664Y-051850D01*
G01X0096877Y-051892D01*
G01X0096877Y-051892D01*
G37*
G36*
G01X0081925Y-052993D02*
G01X0081950Y-052995D01*
G01X0081986Y-053006D01*
G01X0081998Y-053010D01*
G01X0082043Y-053034D01*
G01X0082082Y-053066D01*
G01X0082114Y-053105D01*
G01X0082138Y-053149D01*
G01X0082138Y-053149D01*
G01X0082152Y-053198D01*
G01X0082157Y-053248D01*
G01X0082152Y-053298D01*
G01X0082141Y-053334D01*
G01X0082138Y-053347D01*
G01X0082114Y-053391D01*
G01X0082082Y-053430D01*
G01X0082043Y-053462D01*
G01X0081998Y-053486D01*
G01X0081986Y-053490D01*
G01X0081950Y-053501D01*
G01X0081925Y-053503D01*
G01X0081912Y-053504D01*
G01X0081670Y-053504D01*
G01X0081658Y-053503D01*
G01X0081633Y-053501D01*
G01X0081597Y-053490D01*
G01X0081585Y-053486D01*
G01X0081540Y-053462D01*
G01X0081501Y-053430D01*
G01X0081469Y-053391D01*
G01X0081445Y-053347D01*
G01X0081441Y-053334D01*
G01X0081430Y-053298D01*
G01X0081426Y-053248D01*
G01X0081430Y-053198D01*
G01X0081445Y-053149D01*
G01X0081445Y-053149D01*
G01X0081469Y-053105D01*
G01X0081501Y-053066D01*
G01X0081540Y-053034D01*
G01X0081585Y-053010D01*
G01X0081597Y-053006D01*
G01X0081633Y-052995D01*
G01X0081658Y-052993D01*
G01X0081670Y-052992D01*
G01X0081912Y-052992D01*
G01X0081925Y-052993D01*
G01X0081925Y-052993D01*
G37*
G36*
G01X0081925Y-052206D02*
G01X0081950Y-052208D01*
G01X0081986Y-052219D01*
G01X0081998Y-052223D01*
G01X0082043Y-052246D01*
G01X0082082Y-052279D01*
G01X0082114Y-052318D01*
G01X0082138Y-052362D01*
G01X0082138Y-052362D01*
G01X0082152Y-052410D01*
G01X0082157Y-052461D01*
G01X0082152Y-052511D01*
G01X0082141Y-052547D01*
G01X0082138Y-052559D01*
G01X0082114Y-052604D01*
G01X0082082Y-052643D01*
G01X0082043Y-052675D01*
G01X0081998Y-052699D01*
G01X0081986Y-052702D01*
G01X0081950Y-052713D01*
G01X0081925Y-052716D01*
G01X0081912Y-052717D01*
G01X0081670Y-052717D01*
G01X0081658Y-052716D01*
G01X0081633Y-052713D01*
G01X0081597Y-052702D01*
G01X0081585Y-052699D01*
G01X0081540Y-052675D01*
G01X0081501Y-052643D01*
G01X0081469Y-052604D01*
G01X0081445Y-052559D01*
G01X0081441Y-052547D01*
G01X0081430Y-052511D01*
G01X0081426Y-052461D01*
G01X0081430Y-052410D01*
G01X0081445Y-052362D01*
G01X0081445Y-052362D01*
G01X0081469Y-052318D01*
G01X0081501Y-052279D01*
G01X0081540Y-052246D01*
G01X0081585Y-052223D01*
G01X0081597Y-052219D01*
G01X0081633Y-052208D01*
G01X0081658Y-052206D01*
G01X0081670Y-052204D01*
G01X0081912Y-052204D01*
G01X0081925Y-052206D01*
G01X0081925Y-052206D01*
G37*
G36*
G01X0081925Y-051418D02*
G01X0081950Y-051421D01*
G01X0081986Y-051431D01*
G01X0081998Y-051435D01*
G01X0082043Y-051459D01*
G01X0082082Y-051491D01*
G01X0082114Y-051530D01*
G01X0082138Y-051575D01*
G01X0082138Y-051575D01*
G01X0082152Y-051623D01*
G01X0082157Y-051673D01*
G01X0082152Y-051723D01*
G01X0082141Y-051759D01*
G01X0082138Y-051772D01*
G01X0082114Y-051816D01*
G01X0082082Y-051855D01*
G01X0082043Y-051887D01*
G01X0081998Y-051911D01*
G01X0081986Y-051915D01*
G01X0081950Y-051926D01*
G01X0081925Y-051928D01*
G01X0081912Y-051930D01*
G01X0081670Y-051930D01*
G01X0081658Y-051928D01*
G01X0081633Y-051926D01*
G01X0081597Y-051915D01*
G01X0081585Y-051911D01*
G01X0081540Y-051887D01*
G01X0081501Y-051855D01*
G01X0081469Y-051816D01*
G01X0081445Y-051772D01*
G01X0081441Y-051759D01*
G01X0081430Y-051723D01*
G01X0081426Y-051673D01*
G01X0081430Y-051623D01*
G01X0081445Y-051575D01*
G01X0081445Y-051575D01*
G01X0081469Y-051530D01*
G01X0081501Y-051491D01*
G01X0081540Y-051459D01*
G01X0081585Y-051435D01*
G01X0081597Y-051431D01*
G01X0081633Y-051421D01*
G01X0081658Y-051418D01*
G01X0081670Y-051417D01*
G01X0081912Y-051417D01*
G01X0081925Y-051418D01*
G01X0081925Y-051418D01*
G37*
G36*
G01X0082093Y-050631D02*
G01X0082108Y-050636D01*
G01X0082121Y-050643D01*
G01X0082133Y-050653D01*
G01X0082143Y-050664D01*
G01X0082150Y-050678D01*
G01X0082154Y-050692D01*
G01X0082156Y-050710D01*
G01X0082156Y-051062D01*
G01X0082154Y-051079D01*
G01X0082150Y-051094D01*
G01X0082143Y-051107D01*
G01X0082133Y-051119D01*
G01X0082121Y-051129D01*
G01X0082108Y-051136D01*
G01X0082093Y-051140D01*
G01X0082075Y-051142D01*
G01X0081507Y-051142D01*
G01X0081490Y-051140D01*
G01X0081475Y-051136D01*
G01X0081462Y-051129D01*
G01X0081450Y-051119D01*
G01X0081440Y-051107D01*
G01X0081433Y-051094D01*
G01X0081429Y-051079D01*
G01X0081427Y-051062D01*
G01X0081427Y-050710D01*
G01X0081429Y-050692D01*
G01X0081433Y-050678D01*
G01X0081440Y-050664D01*
G01X0081450Y-050653D01*
G01X0081462Y-050643D01*
G01X0081475Y-050636D01*
G01X0081490Y-050631D01*
G01X0081507Y-050630D01*
G01X0082075Y-050630D01*
G01X0082093Y-050631D01*
G01X0082093Y-050631D01*
G37*
G36*
G01X0100892Y-049745D02*
G01X0100907Y-049750D01*
G01X0100920Y-049757D01*
G01X0100932Y-049767D01*
G01X0100942Y-049779D01*
G01X0100949Y-049792D01*
G01X0100953Y-049807D01*
G01X0100955Y-049824D01*
G01X0100955Y-050176D01*
G01X0100953Y-050193D01*
G01X0100949Y-050208D01*
G01X0100942Y-050221D01*
G01X0100932Y-050233D01*
G01X0100920Y-050243D01*
G01X0100907Y-050250D01*
G01X0100892Y-050255D01*
G01X0100875Y-050256D01*
G01X0100306Y-050256D01*
G01X0100289Y-050255D01*
G01X0100274Y-050250D01*
G01X0100261Y-050243D01*
G01X0100249Y-050233D01*
G01X0100239Y-050221D01*
G01X0100232Y-050208D01*
G01X0100228Y-050193D01*
G01X0100226Y-050176D01*
G01X0100226Y-049824D01*
G01X0100228Y-049807D01*
G01X0100232Y-049792D01*
G01X0100239Y-049779D01*
G01X0100249Y-049767D01*
G01X0100261Y-049757D01*
G01X0100274Y-049750D01*
G01X0100289Y-049745D01*
G01X0100306Y-049744D01*
G01X0100875Y-049744D01*
G01X0100892Y-049745D01*
G01X0100892Y-049745D01*
G37*
G36*
G01X0100724Y-048958D02*
G01X0100749Y-048960D01*
G01X0100774Y-048968D01*
G01X0100797Y-048975D01*
G01X0100842Y-048998D01*
G01X0100881Y-049030D01*
G01X0100913Y-049070D01*
G01X0100937Y-049114D01*
G01X0100937Y-049114D01*
G01X0100951Y-049162D01*
G01X0100956Y-049213D01*
G01X0100951Y-049263D01*
G01X0100942Y-049295D01*
G01X0100937Y-049311D01*
G01X0100913Y-049356D01*
G01X0100881Y-049395D01*
G01X0100842Y-049427D01*
G01X0100797Y-049451D01*
G01X0100785Y-049454D01*
G01X0100749Y-049465D01*
G01X0100724Y-049468D01*
G01X0100711Y-049469D01*
G01X0100470Y-049469D01*
G01X0100457Y-049468D01*
G01X0100432Y-049465D01*
G01X0100396Y-049454D01*
G01X0100384Y-049451D01*
G01X0100339Y-049427D01*
G01X0100300Y-049395D01*
G01X0100268Y-049356D01*
G01X0100244Y-049311D01*
G01X0100240Y-049295D01*
G01X0100230Y-049263D01*
G01X0100225Y-049213D01*
G01X0100230Y-049162D01*
G01X0100244Y-049114D01*
G01X0100244Y-049114D01*
G01X0100268Y-049070D01*
G01X0100300Y-049030D01*
G01X0100339Y-048998D01*
G01X0100384Y-048975D01*
G01X0100407Y-048968D01*
G01X0100432Y-048960D01*
G01X0100457Y-048958D01*
G01X0100470Y-048956D01*
G01X0100711Y-048956D01*
G01X0100724Y-048958D01*
G01X0100724Y-048958D01*
G37*
G36*
G01X0085082Y-048400D02*
G01X0085123Y-048413D01*
G01X0085133Y-048419D01*
G01X0085160Y-048433D01*
G01X0085194Y-048460D01*
G01X0085221Y-048493D01*
G01X0085235Y-048520D01*
G01X0085241Y-048531D01*
G01X0085242Y-048536D01*
G01X0085246Y-048545D01*
G01X0085251Y-048553D01*
G01X0085258Y-048560D01*
G01X0085266Y-048565D01*
G01X0085275Y-048569D01*
G01X0085285Y-048570D01*
G01X0085294Y-048570D01*
G01X0085304Y-048569D01*
G01X0085313Y-048565D01*
G01X0085321Y-048560D01*
G01X0085327Y-048553D01*
G01X0085333Y-048545D01*
G01X0085336Y-048536D01*
G01X0085338Y-048531D01*
G01X0085344Y-048520D01*
G01X0085358Y-048493D01*
G01X0085385Y-048460D01*
G01X0085418Y-048433D01*
G01X0085445Y-048419D01*
G01X0085456Y-048413D01*
G01X0085497Y-048400D01*
G01X0085529Y-048397D01*
G01X0085550Y-048397D01*
G01X0085582Y-048400D01*
G01X0085623Y-048413D01*
G01X0085633Y-048419D01*
G01X0085660Y-048433D01*
G01X0085694Y-048460D01*
G01X0085721Y-048493D01*
G01X0085735Y-048520D01*
G01X0085741Y-048531D01*
G01X0085742Y-048536D01*
G01X0085746Y-048545D01*
G01X0085751Y-048553D01*
G01X0085758Y-048560D01*
G01X0085766Y-048565D01*
G01X0085775Y-048569D01*
G01X0085785Y-048570D01*
G01X0085794Y-048570D01*
G01X0085804Y-048569D01*
G01X0085813Y-048565D01*
G01X0085821Y-048560D01*
G01X0085827Y-048553D01*
G01X0085833Y-048545D01*
G01X0085836Y-048536D01*
G01X0085838Y-048531D01*
G01X0085844Y-048520D01*
G01X0085858Y-048493D01*
G01X0085885Y-048460D01*
G01X0085918Y-048433D01*
G01X0085945Y-048419D01*
G01X0085956Y-048413D01*
G01X0085997Y-048400D01*
G01X0086029Y-048397D01*
G01X0086050Y-048397D01*
G01X0086082Y-048400D01*
G01X0086123Y-048413D01*
G01X0086133Y-048419D01*
G01X0086160Y-048433D01*
G01X0086194Y-048460D01*
G01X0086221Y-048493D01*
G01X0086235Y-048520D01*
G01X0086241Y-048531D01*
G01X0086242Y-048536D01*
G01X0086246Y-048545D01*
G01X0086251Y-048553D01*
G01X0086258Y-048560D01*
G01X0086266Y-048565D01*
G01X0086275Y-048569D01*
G01X0086285Y-048570D01*
G01X0086294Y-048570D01*
G01X0086304Y-048569D01*
G01X0086313Y-048565D01*
G01X0086321Y-048560D01*
G01X0086327Y-048553D01*
G01X0086333Y-048545D01*
G01X0086336Y-048536D01*
G01X0086338Y-048531D01*
G01X0086344Y-048520D01*
G01X0086358Y-048493D01*
G01X0086385Y-048460D01*
G01X0086418Y-048433D01*
G01X0086445Y-048419D01*
G01X0086456Y-048413D01*
G01X0086497Y-048400D01*
G01X0086529Y-048397D01*
G01X0086550Y-048397D01*
G01X0086582Y-048400D01*
G01X0086623Y-048413D01*
G01X0086633Y-048419D01*
G01X0086660Y-048433D01*
G01X0086694Y-048460D01*
G01X0086721Y-048493D01*
G01X0086735Y-048520D01*
G01X0086741Y-048531D01*
G01X0086742Y-048536D01*
G01X0086746Y-048545D01*
G01X0086751Y-048553D01*
G01X0086758Y-048560D01*
G01X0086766Y-048565D01*
G01X0086775Y-048569D01*
G01X0086785Y-048570D01*
G01X0086794Y-048570D01*
G01X0086804Y-048569D01*
G01X0086813Y-048565D01*
G01X0086821Y-048560D01*
G01X0086827Y-048553D01*
G01X0086833Y-048545D01*
G01X0086836Y-048536D01*
G01X0086838Y-048531D01*
G01X0086844Y-048520D01*
G01X0086858Y-048493D01*
G01X0086885Y-048460D01*
G01X0086918Y-048433D01*
G01X0086945Y-048419D01*
G01X0086956Y-048413D01*
G01X0086997Y-048400D01*
G01X0087029Y-048397D01*
G01X0087050Y-048397D01*
G01X0087082Y-048400D01*
G01X0087123Y-048413D01*
G01X0087133Y-048419D01*
G01X0087160Y-048433D01*
G01X0087194Y-048460D01*
G01X0087221Y-048493D01*
G01X0087235Y-048520D01*
G01X0087241Y-048531D01*
G01X0087253Y-048572D01*
G01X0087257Y-048614D01*
G01X0087253Y-048657D01*
G01X0087241Y-048698D01*
G01X0087241Y-048698D01*
G01X0087221Y-048735D01*
G01X0087194Y-048768D01*
G01X0087160Y-048795D01*
G01X0087139Y-048807D01*
G01X0087123Y-048816D01*
G01X0087118Y-048817D01*
G01X0087109Y-048821D01*
G01X0087101Y-048826D01*
G01X0087094Y-048833D01*
G01X0087089Y-048841D01*
G01X0087085Y-048850D01*
G01X0087083Y-048859D01*
G01X0087083Y-048869D01*
G01X0087085Y-048878D01*
G01X0087089Y-048887D01*
G01X0087094Y-048895D01*
G01X0087101Y-048902D01*
G01X0087109Y-048908D01*
G01X0087118Y-048911D01*
G01X0087123Y-048913D01*
G01X0087131Y-048917D01*
G01X0087160Y-048933D01*
G01X0087194Y-048960D01*
G01X0087221Y-048993D01*
G01X0087233Y-049016D01*
G01X0087241Y-049031D01*
G01X0087253Y-049072D01*
G01X0087257Y-049114D01*
G01X0087253Y-049157D01*
G01X0087241Y-049198D01*
G01X0087241Y-049198D01*
G01X0087221Y-049235D01*
G01X0087194Y-049268D01*
G01X0087160Y-049295D01*
G01X0087133Y-049310D01*
G01X0087123Y-049316D01*
G01X0087082Y-049328D01*
G01X0087050Y-049331D01*
G01X0087029Y-049331D01*
G01X0086997Y-049328D01*
G01X0086956Y-049316D01*
G01X0086945Y-049310D01*
G01X0086918Y-049295D01*
G01X0086885Y-049268D01*
G01X0086858Y-049235D01*
G01X0086838Y-049198D01*
G01X0086838Y-049198D01*
G01X0086836Y-049193D01*
G01X0086833Y-049184D01*
G01X0086827Y-049176D01*
G01X0086821Y-049169D01*
G01X0086813Y-049163D01*
G01X0086804Y-049160D01*
G01X0086794Y-049158D01*
G01X0086785Y-049158D01*
G01X0086775Y-049160D01*
G01X0086766Y-049163D01*
G01X0086758Y-049169D01*
G01X0086751Y-049176D01*
G01X0086746Y-049184D01*
G01X0086742Y-049193D01*
G01X0086741Y-049198D01*
G01X0086741Y-049198D01*
G01X0086721Y-049235D01*
G01X0086694Y-049268D01*
G01X0086660Y-049295D01*
G01X0086633Y-049310D01*
G01X0086623Y-049316D01*
G01X0086582Y-049328D01*
G01X0086550Y-049331D01*
G01X0086529Y-049331D01*
G01X0086497Y-049328D01*
G01X0086456Y-049316D01*
G01X0086445Y-049310D01*
G01X0086418Y-049295D01*
G01X0086385Y-049268D01*
G01X0086358Y-049235D01*
G01X0086338Y-049198D01*
G01X0086338Y-049198D01*
G01X0086336Y-049193D01*
G01X0086333Y-049184D01*
G01X0086327Y-049176D01*
G01X0086321Y-049169D01*
G01X0086313Y-049163D01*
G01X0086304Y-049160D01*
G01X0086294Y-049158D01*
G01X0086285Y-049158D01*
G01X0086275Y-049160D01*
G01X0086266Y-049163D01*
G01X0086258Y-049169D01*
G01X0086251Y-049176D01*
G01X0086246Y-049184D01*
G01X0086242Y-049193D01*
G01X0086241Y-049198D01*
G01X0086241Y-049198D01*
G01X0086221Y-049235D01*
G01X0086194Y-049268D01*
G01X0086160Y-049295D01*
G01X0086133Y-049310D01*
G01X0086123Y-049316D01*
G01X0086082Y-049328D01*
G01X0086050Y-049331D01*
G01X0086029Y-049331D01*
G01X0085997Y-049328D01*
G01X0085956Y-049316D01*
G01X0085945Y-049310D01*
G01X0085918Y-049295D01*
G01X0085885Y-049268D01*
G01X0085858Y-049235D01*
G01X0085838Y-049198D01*
G01X0085838Y-049198D01*
G01X0085836Y-049193D01*
G01X0085833Y-049184D01*
G01X0085827Y-049176D01*
G01X0085821Y-049169D01*
G01X0085813Y-049163D01*
G01X0085804Y-049160D01*
G01X0085794Y-049158D01*
G01X0085785Y-049158D01*
G01X0085775Y-049160D01*
G01X0085766Y-049163D01*
G01X0085758Y-049169D01*
G01X0085751Y-049176D01*
G01X0085746Y-049184D01*
G01X0085742Y-049193D01*
G01X0085741Y-049198D01*
G01X0085741Y-049198D01*
G01X0085721Y-049235D01*
G01X0085694Y-049268D01*
G01X0085660Y-049295D01*
G01X0085633Y-049310D01*
G01X0085623Y-049316D01*
G01X0085582Y-049328D01*
G01X0085550Y-049331D01*
G01X0085529Y-049331D01*
G01X0085497Y-049328D01*
G01X0085456Y-049316D01*
G01X0085445Y-049310D01*
G01X0085418Y-049295D01*
G01X0085385Y-049268D01*
G01X0085358Y-049235D01*
G01X0085358Y-049235D01*
G01X0085349Y-049218D01*
G01X0085344Y-049210D01*
G01X0085337Y-049203D01*
G01X0085329Y-049198D01*
G01X0085320Y-049194D01*
G01X0085310Y-049192D01*
G01X0085301Y-049192D01*
G01X0085291Y-049194D01*
G01X0085282Y-049198D01*
G01X0085274Y-049203D01*
G01X0085267Y-049210D01*
G01X0085262Y-049218D01*
G01X0085258Y-049227D01*
G01X0085257Y-049236D01*
G01X0085256Y-049241D01*
G01X0085256Y-049331D01*
G01X0084822Y-049331D01*
G01X0084822Y-048897D01*
G01X0084912Y-048897D01*
G01X0084922Y-048896D01*
G01X0084931Y-048893D01*
G01X0084940Y-048889D01*
G01X0084947Y-048883D01*
G01X0084953Y-048875D01*
G01X0084958Y-048867D01*
G01X0084961Y-048858D01*
G01X0084962Y-048848D01*
G01X0084961Y-048843D01*
G01X0085117Y-048843D01*
G01X0085117Y-048853D01*
G01X0085119Y-048862D01*
G01X0085123Y-048871D01*
G01X0085128Y-048879D01*
G01X0085135Y-048886D01*
G01X0085143Y-048891D01*
G01X0085152Y-048895D01*
G01X0085162Y-048897D01*
G01X0085166Y-048897D01*
G01X0085256Y-048897D01*
G01X0085256Y-048987D01*
G01X0085257Y-048997D01*
G01X0085260Y-049006D01*
G01X0085265Y-049014D01*
G01X0085271Y-049022D01*
G01X0085278Y-049028D01*
G01X0085287Y-049033D01*
G01X0085296Y-049035D01*
G01X0085306Y-049036D01*
G01X0085315Y-049035D01*
G01X0085324Y-049033D01*
G01X0085333Y-049028D01*
G01X0085340Y-049022D01*
G01X0085346Y-049014D01*
G01X0085349Y-049010D01*
G01X0085358Y-048993D01*
G01X0085385Y-048960D01*
G01X0085390Y-048956D01*
G01X0085418Y-048933D01*
G01X0085447Y-048917D01*
G01X0085456Y-048913D01*
G01X0085461Y-048911D01*
G01X0085470Y-048908D01*
G01X0085478Y-048902D01*
G01X0085485Y-048895D01*
G01X0085490Y-048887D01*
G01X0085494Y-048878D01*
G01X0085496Y-048869D01*
G01X0085496Y-048859D01*
G01X0085496Y-048859D01*
G01X0085583Y-048859D01*
G01X0085583Y-048869D01*
G01X0085585Y-048878D01*
G01X0085589Y-048887D01*
G01X0085594Y-048895D01*
G01X0085601Y-048902D01*
G01X0085609Y-048908D01*
G01X0085618Y-048911D01*
G01X0085623Y-048913D01*
G01X0085631Y-048917D01*
G01X0085660Y-048933D01*
G01X0085694Y-048960D01*
G01X0085721Y-048993D01*
G01X0085733Y-049016D01*
G01X0085741Y-049031D01*
G01X0085742Y-049036D01*
G01X0085746Y-049045D01*
G01X0085751Y-049053D01*
G01X0085758Y-049060D01*
G01X0085766Y-049065D01*
G01X0085775Y-049069D01*
G01X0085785Y-049070D01*
G01X0085794Y-049070D01*
G01X0085804Y-049069D01*
G01X0085813Y-049065D01*
G01X0085821Y-049060D01*
G01X0085827Y-049053D01*
G01X0085833Y-049045D01*
G01X0085836Y-049036D01*
G01X0085838Y-049031D01*
G01X0085846Y-049016D01*
G01X0085858Y-048993D01*
G01X0085885Y-048960D01*
G01X0085918Y-048933D01*
G01X0085947Y-048917D01*
G01X0085956Y-048913D01*
G01X0085961Y-048911D01*
G01X0085970Y-048908D01*
G01X0085978Y-048902D01*
G01X0085985Y-048895D01*
G01X0085990Y-048887D01*
G01X0085994Y-048878D01*
G01X0085996Y-048869D01*
G01X0085996Y-048859D01*
G01X0085996Y-048859D01*
G01X0086083Y-048859D01*
G01X0086083Y-048869D01*
G01X0086085Y-048878D01*
G01X0086089Y-048887D01*
G01X0086094Y-048895D01*
G01X0086101Y-048902D01*
G01X0086109Y-048908D01*
G01X0086118Y-048911D01*
G01X0086123Y-048913D01*
G01X0086131Y-048917D01*
G01X0086160Y-048933D01*
G01X0086194Y-048960D01*
G01X0086221Y-048993D01*
G01X0086233Y-049016D01*
G01X0086241Y-049031D01*
G01X0086242Y-049036D01*
G01X0086246Y-049045D01*
G01X0086251Y-049053D01*
G01X0086258Y-049060D01*
G01X0086266Y-049065D01*
G01X0086275Y-049069D01*
G01X0086285Y-049070D01*
G01X0086294Y-049070D01*
G01X0086304Y-049069D01*
G01X0086313Y-049065D01*
G01X0086321Y-049060D01*
G01X0086327Y-049053D01*
G01X0086333Y-049045D01*
G01X0086336Y-049036D01*
G01X0086338Y-049031D01*
G01X0086346Y-049016D01*
G01X0086358Y-048993D01*
G01X0086385Y-048960D01*
G01X0086418Y-048933D01*
G01X0086447Y-048917D01*
G01X0086456Y-048913D01*
G01X0086461Y-048911D01*
G01X0086470Y-048908D01*
G01X0086478Y-048902D01*
G01X0086485Y-048895D01*
G01X0086490Y-048887D01*
G01X0086494Y-048878D01*
G01X0086496Y-048869D01*
G01X0086496Y-048859D01*
G01X0086496Y-048859D01*
G01X0086583Y-048859D01*
G01X0086583Y-048869D01*
G01X0086585Y-048878D01*
G01X0086589Y-048887D01*
G01X0086594Y-048895D01*
G01X0086601Y-048902D01*
G01X0086609Y-048908D01*
G01X0086618Y-048911D01*
G01X0086623Y-048913D01*
G01X0086631Y-048917D01*
G01X0086660Y-048933D01*
G01X0086694Y-048960D01*
G01X0086721Y-048993D01*
G01X0086733Y-049016D01*
G01X0086741Y-049031D01*
G01X0086742Y-049036D01*
G01X0086746Y-049045D01*
G01X0086751Y-049053D01*
G01X0086758Y-049060D01*
G01X0086766Y-049065D01*
G01X0086775Y-049069D01*
G01X0086785Y-049070D01*
G01X0086794Y-049070D01*
G01X0086804Y-049069D01*
G01X0086813Y-049065D01*
G01X0086821Y-049060D01*
G01X0086827Y-049053D01*
G01X0086833Y-049045D01*
G01X0086836Y-049036D01*
G01X0086838Y-049031D01*
G01X0086846Y-049016D01*
G01X0086858Y-048993D01*
G01X0086885Y-048960D01*
G01X0086918Y-048933D01*
G01X0086947Y-048917D01*
G01X0086956Y-048913D01*
G01X0086961Y-048911D01*
G01X0086970Y-048908D01*
G01X0086978Y-048902D01*
G01X0086985Y-048895D01*
G01X0086990Y-048887D01*
G01X0086994Y-048878D01*
G01X0086996Y-048869D01*
G01X0086996Y-048859D01*
G01X0086994Y-048850D01*
G01X0086990Y-048841D01*
G01X0086985Y-048833D01*
G01X0086978Y-048826D01*
G01X0086970Y-048821D01*
G01X0086961Y-048817D01*
G01X0086956Y-048816D01*
G01X0086940Y-048807D01*
G01X0086918Y-048795D01*
G01X0086885Y-048768D01*
G01X0086858Y-048735D01*
G01X0086838Y-048698D01*
G01X0086838Y-048698D01*
G01X0086836Y-048693D01*
G01X0086833Y-048684D01*
G01X0086827Y-048676D01*
G01X0086821Y-048669D01*
G01X0086813Y-048663D01*
G01X0086804Y-048660D01*
G01X0086794Y-048658D01*
G01X0086785Y-048658D01*
G01X0086775Y-048660D01*
G01X0086766Y-048663D01*
G01X0086758Y-048669D01*
G01X0086751Y-048676D01*
G01X0086746Y-048684D01*
G01X0086742Y-048693D01*
G01X0086741Y-048698D01*
G01X0086741Y-048698D01*
G01X0086721Y-048735D01*
G01X0086694Y-048768D01*
G01X0086660Y-048795D01*
G01X0086639Y-048807D01*
G01X0086623Y-048816D01*
G01X0086618Y-048817D01*
G01X0086609Y-048821D01*
G01X0086601Y-048826D01*
G01X0086594Y-048833D01*
G01X0086589Y-048841D01*
G01X0086585Y-048850D01*
G01X0086583Y-048859D01*
G01X0086496Y-048859D01*
G01X0086494Y-048850D01*
G01X0086490Y-048841D01*
G01X0086485Y-048833D01*
G01X0086478Y-048826D01*
G01X0086470Y-048821D01*
G01X0086461Y-048817D01*
G01X0086456Y-048816D01*
G01X0086440Y-048807D01*
G01X0086418Y-048795D01*
G01X0086385Y-048768D01*
G01X0086358Y-048735D01*
G01X0086338Y-048698D01*
G01X0086338Y-048698D01*
G01X0086336Y-048693D01*
G01X0086333Y-048684D01*
G01X0086327Y-048676D01*
G01X0086321Y-048669D01*
G01X0086313Y-048663D01*
G01X0086304Y-048660D01*
G01X0086294Y-048658D01*
G01X0086285Y-048658D01*
G01X0086275Y-048660D01*
G01X0086266Y-048663D01*
G01X0086258Y-048669D01*
G01X0086251Y-048676D01*
G01X0086246Y-048684D01*
G01X0086242Y-048693D01*
G01X0086241Y-048698D01*
G01X0086241Y-048698D01*
G01X0086221Y-048735D01*
G01X0086194Y-048768D01*
G01X0086160Y-048795D01*
G01X0086139Y-048807D01*
G01X0086123Y-048816D01*
G01X0086118Y-048817D01*
G01X0086109Y-048821D01*
G01X0086101Y-048826D01*
G01X0086094Y-048833D01*
G01X0086089Y-048841D01*
G01X0086085Y-048850D01*
G01X0086083Y-048859D01*
G01X0085996Y-048859D01*
G01X0085994Y-048850D01*
G01X0085990Y-048841D01*
G01X0085985Y-048833D01*
G01X0085978Y-048826D01*
G01X0085970Y-048821D01*
G01X0085961Y-048817D01*
G01X0085956Y-048816D01*
G01X0085940Y-048807D01*
G01X0085918Y-048795D01*
G01X0085885Y-048768D01*
G01X0085858Y-048735D01*
G01X0085838Y-048698D01*
G01X0085838Y-048698D01*
G01X0085836Y-048693D01*
G01X0085833Y-048684D01*
G01X0085827Y-048676D01*
G01X0085821Y-048669D01*
G01X0085813Y-048663D01*
G01X0085804Y-048660D01*
G01X0085794Y-048658D01*
G01X0085785Y-048658D01*
G01X0085775Y-048660D01*
G01X0085766Y-048663D01*
G01X0085758Y-048669D01*
G01X0085751Y-048676D01*
G01X0085746Y-048684D01*
G01X0085742Y-048693D01*
G01X0085741Y-048698D01*
G01X0085741Y-048698D01*
G01X0085721Y-048735D01*
G01X0085694Y-048768D01*
G01X0085660Y-048795D01*
G01X0085639Y-048807D01*
G01X0085623Y-048816D01*
G01X0085618Y-048817D01*
G01X0085609Y-048821D01*
G01X0085601Y-048826D01*
G01X0085594Y-048833D01*
G01X0085589Y-048841D01*
G01X0085585Y-048850D01*
G01X0085583Y-048859D01*
G01X0085496Y-048859D01*
G01X0085494Y-048850D01*
G01X0085490Y-048841D01*
G01X0085485Y-048833D01*
G01X0085478Y-048826D01*
G01X0085470Y-048821D01*
G01X0085461Y-048817D01*
G01X0085456Y-048816D01*
G01X0085440Y-048807D01*
G01X0085418Y-048795D01*
G01X0085385Y-048768D01*
G01X0085358Y-048735D01*
G01X0085338Y-048698D01*
G01X0085338Y-048698D01*
G01X0085336Y-048693D01*
G01X0085333Y-048684D01*
G01X0085327Y-048676D01*
G01X0085321Y-048669D01*
G01X0085313Y-048663D01*
G01X0085304Y-048660D01*
G01X0085294Y-048658D01*
G01X0085285Y-048658D01*
G01X0085275Y-048660D01*
G01X0085266Y-048663D01*
G01X0085258Y-048669D01*
G01X0085251Y-048676D01*
G01X0085246Y-048684D01*
G01X0085242Y-048693D01*
G01X0085241Y-048698D01*
G01X0085241Y-048698D01*
G01X0085221Y-048735D01*
G01X0085194Y-048768D01*
G01X0085160Y-048795D01*
G01X0085143Y-048805D01*
G01X0085135Y-048810D01*
G01X0085128Y-048817D01*
G01X0085123Y-048825D01*
G01X0085119Y-048834D01*
G01X0085117Y-048843D01*
G01X0084961Y-048843D01*
G01X0084961Y-048838D01*
G01X0084958Y-048829D01*
G01X0084953Y-048821D01*
G01X0084947Y-048813D01*
G01X0084940Y-048807D01*
G01X0084936Y-048805D01*
G01X0084918Y-048795D01*
G01X0084885Y-048768D01*
G01X0084858Y-048735D01*
G01X0084838Y-048698D01*
G01X0084838Y-048698D01*
G01X0084826Y-048657D01*
G01X0084821Y-048614D01*
G01X0084826Y-048572D01*
G01X0084838Y-048531D01*
G01X0084844Y-048520D01*
G01X0084858Y-048493D01*
G01X0084885Y-048460D01*
G01X0084918Y-048433D01*
G01X0084945Y-048419D01*
G01X0084956Y-048413D01*
G01X0084997Y-048400D01*
G01X0085029Y-048397D01*
G01X0085050Y-048397D01*
G01X0085082Y-048400D01*
G01X0085082Y-048400D01*
G37*
G36*
G01X0081925Y-048662D02*
G01X0081950Y-048665D01*
G01X0081986Y-048676D01*
G01X0081998Y-048679D01*
G01X0082043Y-048703D01*
G01X0082082Y-048735D01*
G01X0082114Y-048774D01*
G01X0082138Y-048819D01*
G01X0082140Y-048826D01*
G01X0082152Y-048867D01*
G01X0082157Y-048917D01*
G01X0082152Y-048968D01*
G01X0082143Y-048997D01*
G01X0082138Y-049016D01*
G01X0082114Y-049060D01*
G01X0082082Y-049099D01*
G01X0082043Y-049131D01*
G01X0081998Y-049155D01*
G01X0081993Y-049157D01*
G01X0081950Y-049170D01*
G01X0081925Y-049172D01*
G01X0081912Y-049174D01*
G01X0081670Y-049174D01*
G01X0081658Y-049172D01*
G01X0081633Y-049170D01*
G01X0081589Y-049157D01*
G01X0081585Y-049155D01*
G01X0081540Y-049131D01*
G01X0081501Y-049099D01*
G01X0081469Y-049060D01*
G01X0081445Y-049016D01*
G01X0081439Y-048997D01*
G01X0081430Y-048968D01*
G01X0081426Y-048917D01*
G01X0081430Y-048867D01*
G01X0081443Y-048826D01*
G01X0081445Y-048819D01*
G01X0081469Y-048774D01*
G01X0081501Y-048735D01*
G01X0081540Y-048703D01*
G01X0081585Y-048679D01*
G01X0081597Y-048676D01*
G01X0081633Y-048665D01*
G01X0081658Y-048662D01*
G01X0081670Y-048661D01*
G01X0081912Y-048661D01*
G01X0081925Y-048662D01*
G01X0081925Y-048662D01*
G37*
G36*
G01X0100724Y-048170D02*
G01X0100749Y-048173D01*
G01X0100774Y-048180D01*
G01X0100797Y-048187D01*
G01X0100842Y-048211D01*
G01X0100881Y-048243D01*
G01X0100913Y-048282D01*
G01X0100937Y-048327D01*
G01X0100937Y-048327D01*
G01X0100951Y-048375D01*
G01X0100956Y-048425D01*
G01X0100951Y-048475D01*
G01X0100946Y-048493D01*
G01X0100937Y-048524D01*
G01X0100913Y-048568D01*
G01X0100881Y-048607D01*
G01X0100842Y-048639D01*
G01X0100797Y-048663D01*
G01X0100796Y-048663D01*
G01X0100749Y-048678D01*
G01X0100733Y-048679D01*
G01X0100711Y-048681D01*
G01X0100470Y-048681D01*
G01X0100448Y-048679D01*
G01X0100432Y-048678D01*
G01X0100385Y-048663D01*
G01X0100384Y-048663D01*
G01X0100339Y-048639D01*
G01X0100300Y-048607D01*
G01X0100268Y-048568D01*
G01X0100244Y-048524D01*
G01X0100235Y-048493D01*
G01X0100230Y-048475D01*
G01X0100225Y-048425D01*
G01X0100230Y-048375D01*
G01X0100244Y-048327D01*
G01X0100244Y-048327D01*
G01X0100268Y-048282D01*
G01X0100300Y-048243D01*
G01X0100339Y-048211D01*
G01X0100384Y-048187D01*
G01X0100407Y-048180D01*
G01X0100432Y-048173D01*
G01X0100457Y-048170D01*
G01X0100470Y-048169D01*
G01X0100711Y-048169D01*
G01X0100724Y-048170D01*
G01X0100724Y-048170D01*
G37*
G36*
G01X0081925Y-047875D02*
G01X0081950Y-047877D01*
G01X0081986Y-047888D01*
G01X0081998Y-047892D01*
G01X0082043Y-047916D01*
G01X0082082Y-047948D01*
G01X0082114Y-047987D01*
G01X0082138Y-048031D01*
G01X0082138Y-048031D01*
G01X0082152Y-048080D01*
G01X0082157Y-048130D01*
G01X0082152Y-048180D01*
G01X0082150Y-048187D01*
G01X0082138Y-048228D01*
G01X0082114Y-048273D01*
G01X0082082Y-048312D01*
G01X0082043Y-048344D01*
G01X0081998Y-048368D01*
G01X0081986Y-048372D01*
G01X0081950Y-048383D01*
G01X0081925Y-048385D01*
G01X0081912Y-048386D01*
G01X0081670Y-048386D01*
G01X0081658Y-048385D01*
G01X0081633Y-048383D01*
G01X0081597Y-048372D01*
G01X0081585Y-048368D01*
G01X0081540Y-048344D01*
G01X0081501Y-048312D01*
G01X0081469Y-048273D01*
G01X0081445Y-048228D01*
G01X0081433Y-048187D01*
G01X0081430Y-048180D01*
G01X0081426Y-048130D01*
G01X0081430Y-048080D01*
G01X0081445Y-048031D01*
G01X0081445Y-048031D01*
G01X0081469Y-047987D01*
G01X0081501Y-047948D01*
G01X0081540Y-047916D01*
G01X0081585Y-047892D01*
G01X0081597Y-047888D01*
G01X0081633Y-047877D01*
G01X0081658Y-047875D01*
G01X0081670Y-047874D01*
G01X0081912Y-047874D01*
G01X0081925Y-047875D01*
G01X0081925Y-047875D01*
G37*
G36*
G01X0100724Y-047383D02*
G01X0100749Y-047385D01*
G01X0100774Y-047393D01*
G01X0100797Y-047400D01*
G01X0100842Y-047424D01*
G01X0100881Y-047456D01*
G01X0100913Y-047495D01*
G01X0100937Y-047539D01*
G01X0100937Y-047539D01*
G01X0100951Y-047588D01*
G01X0100956Y-047638D01*
G01X0100951Y-047688D01*
G01X0100941Y-047724D01*
G01X0100937Y-047736D01*
G01X0100913Y-047781D01*
G01X0100881Y-047820D01*
G01X0100842Y-047852D01*
G01X0100797Y-047876D01*
G01X0100792Y-047877D01*
G01X0100749Y-047890D01*
G01X0100733Y-047892D01*
G01X0100711Y-047894D01*
G01X0100470Y-047894D01*
G01X0100448Y-047892D01*
G01X0100432Y-047890D01*
G01X0100389Y-047877D01*
G01X0100384Y-047876D01*
G01X0100339Y-047852D01*
G01X0100300Y-047820D01*
G01X0100268Y-047781D01*
G01X0100244Y-047736D01*
G01X0100241Y-047724D01*
G01X0100230Y-047688D01*
G01X0100225Y-047638D01*
G01X0100230Y-047588D01*
G01X0100244Y-047539D01*
G01X0100244Y-047539D01*
G01X0100268Y-047495D01*
G01X0100300Y-047456D01*
G01X0100339Y-047424D01*
G01X0100384Y-047400D01*
G01X0100407Y-047393D01*
G01X0100432Y-047385D01*
G01X0100457Y-047383D01*
G01X0100470Y-047381D01*
G01X0100711Y-047381D01*
G01X0100724Y-047383D01*
G01X0100724Y-047383D01*
G37*
G36*
G01X0081925Y-047087D02*
G01X0081950Y-047090D01*
G01X0081986Y-047101D01*
G01X0081998Y-047105D01*
G01X0082043Y-047128D01*
G01X0082082Y-047160D01*
G01X0082114Y-047199D01*
G01X0082138Y-047244D01*
G01X0082138Y-047244D01*
G01X0082152Y-047292D01*
G01X0082157Y-047343D01*
G01X0082152Y-047393D01*
G01X0082150Y-047400D01*
G01X0082138Y-047441D01*
G01X0082114Y-047486D01*
G01X0082082Y-047525D01*
G01X0082043Y-047557D01*
G01X0081998Y-047580D01*
G01X0081986Y-047584D01*
G01X0081950Y-047595D01*
G01X0081925Y-047598D01*
G01X0081912Y-047599D01*
G01X0081670Y-047599D01*
G01X0081658Y-047598D01*
G01X0081633Y-047595D01*
G01X0081597Y-047584D01*
G01X0081585Y-047580D01*
G01X0081540Y-047557D01*
G01X0081501Y-047525D01*
G01X0081469Y-047486D01*
G01X0081445Y-047441D01*
G01X0081433Y-047400D01*
G01X0081430Y-047393D01*
G01X0081426Y-047343D01*
G01X0081430Y-047292D01*
G01X0081445Y-047244D01*
G01X0081445Y-047244D01*
G01X0081469Y-047199D01*
G01X0081501Y-047160D01*
G01X0081540Y-047128D01*
G01X0081585Y-047105D01*
G01X0081597Y-047101D01*
G01X0081633Y-047090D01*
G01X0081658Y-047087D01*
G01X0081670Y-047086D01*
G01X0081912Y-047086D01*
G01X0081925Y-047087D01*
G01X0081925Y-047087D01*
G37*
G36*
G01X0100724Y-046595D02*
G01X0100749Y-046598D01*
G01X0100785Y-046609D01*
G01X0100797Y-046612D01*
G01X0100842Y-046636D01*
G01X0100881Y-046668D01*
G01X0100913Y-046707D01*
G01X0100937Y-046752D01*
G01X0100937Y-046752D01*
G01X0100951Y-046800D01*
G01X0100956Y-046850D01*
G01X0100951Y-046901D01*
G01X0100944Y-046925D01*
G01X0100937Y-046949D01*
G01X0100913Y-046993D01*
G01X0100881Y-047033D01*
G01X0100842Y-047065D01*
G01X0100797Y-047088D01*
G01X0100792Y-047090D01*
G01X0100749Y-047103D01*
G01X0100733Y-047105D01*
G01X0100711Y-047107D01*
G01X0100470Y-047107D01*
G01X0100448Y-047105D01*
G01X0100432Y-047103D01*
G01X0100389Y-047090D01*
G01X0100384Y-047088D01*
G01X0100339Y-047065D01*
G01X0100300Y-047033D01*
G01X0100268Y-046993D01*
G01X0100244Y-046949D01*
G01X0100237Y-046925D01*
G01X0100230Y-046901D01*
G01X0100225Y-046850D01*
G01X0100230Y-046800D01*
G01X0100244Y-046752D01*
G01X0100244Y-046752D01*
G01X0100268Y-046707D01*
G01X0100300Y-046668D01*
G01X0100339Y-046636D01*
G01X0100384Y-046612D01*
G01X0100396Y-046609D01*
G01X0100432Y-046598D01*
G01X0100457Y-046595D01*
G01X0100470Y-046594D01*
G01X0100711Y-046594D01*
G01X0100724Y-046595D01*
G01X0100724Y-046595D01*
G37*
G36*
G01X0073587Y-046524D02*
G01X0073626Y-046540D01*
G01X0073626Y-046540D01*
G01X0073662Y-046564D01*
G01X0073692Y-046594D01*
G01X0073695Y-046598D01*
G01X0073716Y-046630D01*
G01X0073732Y-046669D01*
G01X0073741Y-046711D01*
G01X0073741Y-046754D01*
G01X0073732Y-046796D01*
G01X0073716Y-046835D01*
G01X0073716Y-046835D01*
G01X0073692Y-046871D01*
G01X0073662Y-046901D01*
G01X0073644Y-046913D01*
G01X0073626Y-046925D01*
G01X0073587Y-046941D01*
G01X0073545Y-046949D01*
G01X0073502Y-046949D01*
G01X0073460Y-046941D01*
G01X0073421Y-046925D01*
G01X0073403Y-046913D01*
G01X0073385Y-046901D01*
G01X0073355Y-046871D01*
G01X0073331Y-046835D01*
G01X0073331Y-046835D01*
G01X0073315Y-046796D01*
G01X0073307Y-046754D01*
G01X0073307Y-046711D01*
G01X0073315Y-046669D01*
G01X0073331Y-046630D01*
G01X0073353Y-046598D01*
G01X0073355Y-046594D01*
G01X0073385Y-046564D01*
G01X0073421Y-046540D01*
G01X0073421Y-046540D01*
G01X0073460Y-046524D01*
G01X0073502Y-046515D01*
G01X0073545Y-046515D01*
G01X0073587Y-046524D01*
G01X0073587Y-046524D01*
G37*
G36*
G01X0082093Y-046301D02*
G01X0082108Y-046305D01*
G01X0082121Y-046312D01*
G01X0082133Y-046322D01*
G01X0082143Y-046334D01*
G01X0082150Y-046347D01*
G01X0082154Y-046362D01*
G01X0082156Y-046379D01*
G01X0082156Y-046731D01*
G01X0082154Y-046749D01*
G01X0082150Y-046763D01*
G01X0082143Y-046777D01*
G01X0082133Y-046788D01*
G01X0082121Y-046798D01*
G01X0082108Y-046805D01*
G01X0082093Y-046810D01*
G01X0082075Y-046811D01*
G01X0081507Y-046811D01*
G01X0081490Y-046810D01*
G01X0081475Y-046805D01*
G01X0081462Y-046798D01*
G01X0081450Y-046788D01*
G01X0081440Y-046777D01*
G01X0081433Y-046763D01*
G01X0081429Y-046749D01*
G01X0081427Y-046731D01*
G01X0081427Y-046379D01*
G01X0081429Y-046362D01*
G01X0081433Y-046347D01*
G01X0081440Y-046334D01*
G01X0081450Y-046322D01*
G01X0081462Y-046312D01*
G01X0081475Y-046305D01*
G01X0081490Y-046301D01*
G01X0081507Y-046299D01*
G01X0082075Y-046299D01*
G01X0082093Y-046301D01*
G01X0082093Y-046301D01*
G37*
G36*
G01X0089096Y-045562D02*
G01X0089110Y-045566D01*
G01X0089122Y-045573D01*
G01X0089133Y-045582D01*
G01X0089142Y-045593D01*
G01X0089148Y-045605D01*
G01X0089152Y-045618D01*
G01X0089154Y-045635D01*
G01X0089154Y-045901D01*
G01X0089152Y-045917D01*
G01X0089148Y-045931D01*
G01X0089142Y-045943D01*
G01X0089133Y-045954D01*
G01X0089122Y-045963D01*
G01X0089110Y-045969D01*
G01X0089096Y-045973D01*
G01X0089080Y-045975D01*
G01X0088843Y-045975D01*
G01X0088827Y-045973D01*
G01X0088814Y-045969D01*
G01X0088801Y-045963D01*
G01X0088790Y-045954D01*
G01X0088782Y-045943D01*
G01X0088775Y-045931D01*
G01X0088771Y-045917D01*
G01X0088769Y-045901D01*
G01X0088769Y-045635D01*
G01X0088771Y-045618D01*
G01X0088775Y-045605D01*
G01X0088782Y-045593D01*
G01X0088790Y-045582D01*
G01X0088801Y-045573D01*
G01X0088814Y-045566D01*
G01X0088827Y-045562D01*
G01X0088843Y-045561D01*
G01X0089080Y-045561D01*
G01X0089096Y-045562D01*
G01X0089096Y-045562D01*
G37*
G36*
G01X0089716Y-045562D02*
G01X0089730Y-045566D01*
G01X0089742Y-045573D01*
G01X0089753Y-045582D01*
G01X0089762Y-045593D01*
G01X0089768Y-045605D01*
G01X0089772Y-045618D01*
G01X0089774Y-045635D01*
G01X0089774Y-045901D01*
G01X0089772Y-045917D01*
G01X0089768Y-045931D01*
G01X0089762Y-045943D01*
G01X0089753Y-045954D01*
G01X0089742Y-045963D01*
G01X0089730Y-045969D01*
G01X0089716Y-045973D01*
G01X0089700Y-045975D01*
G01X0089463Y-045975D01*
G01X0089447Y-045973D01*
G01X0089434Y-045969D01*
G01X0089421Y-045963D01*
G01X0089410Y-045954D01*
G01X0089402Y-045943D01*
G01X0089395Y-045931D01*
G01X0089391Y-045917D01*
G01X0089389Y-045901D01*
G01X0089389Y-045635D01*
G01X0089391Y-045618D01*
G01X0089395Y-045605D01*
G01X0089402Y-045593D01*
G01X0089410Y-045582D01*
G01X0089421Y-045573D01*
G01X0089434Y-045566D01*
G01X0089447Y-045562D01*
G01X0089463Y-045561D01*
G01X0089700Y-045561D01*
G01X0089716Y-045562D01*
G01X0089716Y-045562D01*
G37*
G36*
G01X0091309Y-045965D02*
G01X0090836Y-045965D01*
G01X0090836Y-045413D01*
G01X0091309Y-045413D01*
G01X0091309Y-045965D01*
G01X0091309Y-045965D01*
G37*
G36*
G01X0090660Y-045965D02*
G01X0090187Y-045965D01*
G01X0090187Y-045413D01*
G01X0090660Y-045413D01*
G01X0090660Y-045965D01*
G01X0090660Y-045965D01*
G37*
G36*
G01X0089716Y-044873D02*
G01X0089730Y-044877D01*
G01X0089742Y-044884D01*
G01X0089753Y-044893D01*
G01X0089762Y-044904D01*
G01X0089768Y-044916D01*
G01X0089772Y-044929D01*
G01X0089774Y-044946D01*
G01X0089774Y-045212D01*
G01X0089772Y-045228D01*
G01X0089768Y-045242D01*
G01X0089762Y-045254D01*
G01X0089753Y-045265D01*
G01X0089742Y-045274D01*
G01X0089730Y-045280D01*
G01X0089716Y-045284D01*
G01X0089700Y-045286D01*
G01X0089463Y-045286D01*
G01X0089447Y-045284D01*
G01X0089434Y-045280D01*
G01X0089421Y-045274D01*
G01X0089410Y-045265D01*
G01X0089402Y-045254D01*
G01X0089395Y-045242D01*
G01X0089391Y-045228D01*
G01X0089389Y-045212D01*
G01X0089389Y-044946D01*
G01X0089391Y-044929D01*
G01X0089395Y-044916D01*
G01X0089402Y-044904D01*
G01X0089410Y-044893D01*
G01X0089421Y-044884D01*
G01X0089434Y-044877D01*
G01X0089447Y-044873D01*
G01X0089463Y-044872D01*
G01X0089700Y-044872D01*
G01X0089716Y-044873D01*
G01X0089716Y-044873D01*
G37*
G36*
G01X0089096Y-044873D02*
G01X0089110Y-044877D01*
G01X0089122Y-044884D01*
G01X0089133Y-044893D01*
G01X0089142Y-044904D01*
G01X0089148Y-044916D01*
G01X0089152Y-044929D01*
G01X0089154Y-044946D01*
G01X0089154Y-045212D01*
G01X0089152Y-045228D01*
G01X0089148Y-045242D01*
G01X0089142Y-045254D01*
G01X0089133Y-045265D01*
G01X0089122Y-045274D01*
G01X0089110Y-045280D01*
G01X0089096Y-045284D01*
G01X0089080Y-045286D01*
G01X0088843Y-045286D01*
G01X0088827Y-045284D01*
G01X0088814Y-045280D01*
G01X0088801Y-045274D01*
G01X0088790Y-045265D01*
G01X0088782Y-045254D01*
G01X0088775Y-045242D01*
G01X0088771Y-045228D01*
G01X0088769Y-045212D01*
G01X0088769Y-044946D01*
G01X0088771Y-044929D01*
G01X0088775Y-044916D01*
G01X0088782Y-044904D01*
G01X0088790Y-044893D01*
G01X0088801Y-044884D01*
G01X0088814Y-044877D01*
G01X0088827Y-044873D01*
G01X0088843Y-044872D01*
G01X0089080Y-044872D01*
G01X0089096Y-044873D01*
G01X0089096Y-044873D01*
G37*
G36*
G01X0073587Y-044791D02*
G01X0073626Y-044808D01*
G01X0073626Y-044808D01*
G01X0073662Y-044831D01*
G01X0073692Y-044862D01*
G01X0073700Y-044874D01*
G01X0073716Y-044897D01*
G01X0073732Y-044937D01*
G01X0073741Y-044979D01*
G01X0073741Y-045021D01*
G01X0073732Y-045063D01*
G01X0073716Y-045103D01*
G01X0073716Y-045103D01*
G01X0073692Y-045138D01*
G01X0073662Y-045168D01*
G01X0073644Y-045180D01*
G01X0073626Y-045192D01*
G01X0073587Y-045209D01*
G01X0073545Y-045217D01*
G01X0073502Y-045217D01*
G01X0073460Y-045209D01*
G01X0073421Y-045192D01*
G01X0073403Y-045180D01*
G01X0073385Y-045168D01*
G01X0073355Y-045138D01*
G01X0073331Y-045103D01*
G01X0073331Y-045103D01*
G01X0073315Y-045063D01*
G01X0073307Y-045021D01*
G01X0073307Y-044979D01*
G01X0073315Y-044937D01*
G01X0073331Y-044897D01*
G01X0073347Y-044874D01*
G01X0073355Y-044862D01*
G01X0073385Y-044831D01*
G01X0073421Y-044808D01*
G01X0073421Y-044808D01*
G01X0073460Y-044791D01*
G01X0073502Y-044783D01*
G01X0073545Y-044783D01*
G01X0073587Y-044791D01*
G01X0073587Y-044791D01*
G37*
G36*
G01X0091309Y-045138D02*
G01X0090836Y-045138D01*
G01X0090836Y-044586D01*
G01X0091309Y-044586D01*
G01X0091309Y-045138D01*
G01X0091309Y-045138D01*
G37*
G36*
G01X0090660Y-045138D02*
G01X0090187Y-045138D01*
G01X0090187Y-044586D01*
G01X0090660Y-044586D01*
G01X0090660Y-045138D01*
G01X0090660Y-045138D01*
G37*
G36*
G01X0100892Y-044529D02*
G01X0100907Y-044533D01*
G01X0100920Y-044541D01*
G01X0100932Y-044550D01*
G01X0100942Y-044562D01*
G01X0100949Y-044575D01*
G01X0100953Y-044590D01*
G01X0100955Y-044608D01*
G01X0100955Y-044959D01*
G01X0100953Y-044977D01*
G01X0100949Y-044991D01*
G01X0100942Y-045005D01*
G01X0100932Y-045017D01*
G01X0100920Y-045026D01*
G01X0100907Y-045034D01*
G01X0100892Y-045038D01*
G01X0100875Y-045040D01*
G01X0100306Y-045040D01*
G01X0100289Y-045038D01*
G01X0100274Y-045034D01*
G01X0100261Y-045026D01*
G01X0100249Y-045017D01*
G01X0100239Y-045005D01*
G01X0100232Y-044991D01*
G01X0100228Y-044977D01*
G01X0100226Y-044959D01*
G01X0100226Y-044608D01*
G01X0100228Y-044590D01*
G01X0100232Y-044575D01*
G01X0100239Y-044562D01*
G01X0100249Y-044550D01*
G01X0100261Y-044541D01*
G01X0100274Y-044533D01*
G01X0100289Y-044529D01*
G01X0100306Y-044527D01*
G01X0100875Y-044527D01*
G01X0100892Y-044529D01*
G01X0100892Y-044529D01*
G37*
G36*
G01X0076823Y-044509D02*
G01X0076836Y-044513D01*
G01X0076848Y-044520D01*
G01X0076859Y-044529D01*
G01X0076868Y-044539D01*
G01X0076875Y-044552D01*
G01X0076879Y-044565D01*
G01X0076880Y-044581D01*
G01X0076880Y-044818D01*
G01X0076879Y-044834D01*
G01X0076875Y-044848D01*
G01X0076868Y-044860D01*
G01X0076859Y-044871D01*
G01X0076848Y-044880D01*
G01X0076836Y-044886D01*
G01X0076823Y-044891D01*
G01X0076806Y-044892D01*
G01X0076540Y-044892D01*
G01X0076524Y-044891D01*
G01X0076510Y-044886D01*
G01X0076498Y-044880D01*
G01X0076487Y-044871D01*
G01X0076478Y-044860D01*
G01X0076472Y-044848D01*
G01X0076468Y-044834D01*
G01X0076466Y-044818D01*
G01X0076466Y-044581D01*
G01X0076468Y-044565D01*
G01X0076472Y-044552D01*
G01X0076478Y-044539D01*
G01X0076487Y-044529D01*
G01X0076498Y-044520D01*
G01X0076510Y-044513D01*
G01X0076524Y-044509D01*
G01X0076540Y-044507D01*
G01X0076806Y-044507D01*
G01X0076823Y-044509D01*
G01X0076823Y-044509D01*
G37*
G36*
G01X0076232Y-044509D02*
G01X0076245Y-044513D01*
G01X0076258Y-044520D01*
G01X0076269Y-044529D01*
G01X0076278Y-044539D01*
G01X0076284Y-044552D01*
G01X0076288Y-044565D01*
G01X0076290Y-044581D01*
G01X0076290Y-044818D01*
G01X0076288Y-044834D01*
G01X0076284Y-044848D01*
G01X0076278Y-044860D01*
G01X0076269Y-044871D01*
G01X0076258Y-044880D01*
G01X0076245Y-044886D01*
G01X0076232Y-044891D01*
G01X0076216Y-044892D01*
G01X0075950Y-044892D01*
G01X0075933Y-044891D01*
G01X0075920Y-044886D01*
G01X0075908Y-044880D01*
G01X0075897Y-044871D01*
G01X0075888Y-044860D01*
G01X0075881Y-044848D01*
G01X0075877Y-044834D01*
G01X0075876Y-044818D01*
G01X0075876Y-044581D01*
G01X0075877Y-044565D01*
G01X0075881Y-044552D01*
G01X0075888Y-044539D01*
G01X0075897Y-044529D01*
G01X0075908Y-044520D01*
G01X0075920Y-044513D01*
G01X0075933Y-044509D01*
G01X0075950Y-044507D01*
G01X0076216Y-044507D01*
G01X0076232Y-044509D01*
G01X0076232Y-044509D01*
G37*
G36*
G01X0089751Y-043791D02*
G01X0089766Y-043795D01*
G01X0089779Y-043802D01*
G01X0089791Y-043812D01*
G01X0089800Y-043823D01*
G01X0089807Y-043837D01*
G01X0089812Y-043851D01*
G01X0089813Y-043868D01*
G01X0089813Y-044242D01*
G01X0089812Y-044259D01*
G01X0089807Y-044274D01*
G01X0089800Y-044287D01*
G01X0089791Y-044299D01*
G01X0089779Y-044308D01*
G01X0089766Y-044315D01*
G01X0089751Y-044320D01*
G01X0089734Y-044321D01*
G01X0088809Y-044321D01*
G01X0088792Y-044320D01*
G01X0088778Y-044315D01*
G01X0088764Y-044308D01*
G01X0088753Y-044299D01*
G01X0088743Y-044287D01*
G01X0088736Y-044274D01*
G01X0088732Y-044259D01*
G01X0088730Y-044242D01*
G01X0088730Y-043868D01*
G01X0088732Y-043851D01*
G01X0088736Y-043837D01*
G01X0088743Y-043823D01*
G01X0088753Y-043812D01*
G01X0088764Y-043802D01*
G01X0088778Y-043795D01*
G01X0088792Y-043791D01*
G01X0088809Y-043789D01*
G01X0089734Y-043789D01*
G01X0089751Y-043791D01*
G01X0089751Y-043791D01*
G37*
G36*
G01X0076823Y-043889D02*
G01X0076836Y-043893D01*
G01X0076848Y-043900D01*
G01X0076859Y-043909D01*
G01X0076868Y-043919D01*
G01X0076875Y-043932D01*
G01X0076879Y-043945D01*
G01X0076880Y-043961D01*
G01X0076880Y-044198D01*
G01X0076879Y-044214D01*
G01X0076875Y-044228D01*
G01X0076868Y-044240D01*
G01X0076859Y-044251D01*
G01X0076848Y-044260D01*
G01X0076836Y-044266D01*
G01X0076823Y-044270D01*
G01X0076806Y-044272D01*
G01X0076540Y-044272D01*
G01X0076524Y-044270D01*
G01X0076510Y-044266D01*
G01X0076498Y-044260D01*
G01X0076487Y-044251D01*
G01X0076478Y-044240D01*
G01X0076472Y-044228D01*
G01X0076468Y-044214D01*
G01X0076466Y-044198D01*
G01X0076466Y-043961D01*
G01X0076468Y-043945D01*
G01X0076472Y-043932D01*
G01X0076478Y-043919D01*
G01X0076487Y-043909D01*
G01X0076498Y-043900D01*
G01X0076510Y-043893D01*
G01X0076524Y-043889D01*
G01X0076540Y-043887D01*
G01X0076806Y-043887D01*
G01X0076823Y-043889D01*
G01X0076823Y-043889D01*
G37*
G36*
G01X0076232Y-043889D02*
G01X0076245Y-043893D01*
G01X0076258Y-043900D01*
G01X0076269Y-043909D01*
G01X0076278Y-043919D01*
G01X0076284Y-043932D01*
G01X0076288Y-043945D01*
G01X0076290Y-043961D01*
G01X0076290Y-044198D01*
G01X0076288Y-044214D01*
G01X0076284Y-044228D01*
G01X0076278Y-044240D01*
G01X0076269Y-044251D01*
G01X0076258Y-044260D01*
G01X0076245Y-044266D01*
G01X0076232Y-044270D01*
G01X0076216Y-044272D01*
G01X0075950Y-044272D01*
G01X0075933Y-044270D01*
G01X0075920Y-044266D01*
G01X0075908Y-044260D01*
G01X0075897Y-044251D01*
G01X0075888Y-044240D01*
G01X0075881Y-044228D01*
G01X0075877Y-044214D01*
G01X0075876Y-044198D01*
G01X0075876Y-043961D01*
G01X0075877Y-043945D01*
G01X0075881Y-043932D01*
G01X0075888Y-043919D01*
G01X0075897Y-043909D01*
G01X0075908Y-043900D01*
G01X0075920Y-043893D01*
G01X0075933Y-043889D01*
G01X0075950Y-043887D01*
G01X0076216Y-043887D01*
G01X0076232Y-043889D01*
G01X0076232Y-043889D01*
G37*
G36*
G01X0100724Y-043741D02*
G01X0100749Y-043743D01*
G01X0100777Y-043752D01*
G01X0100797Y-043758D01*
G01X0100842Y-043782D01*
G01X0100881Y-043814D01*
G01X0100913Y-043853D01*
G01X0100937Y-043898D01*
G01X0100937Y-043898D01*
G01X0100951Y-043946D01*
G01X0100956Y-043996D01*
G01X0100951Y-044046D01*
G01X0100943Y-044073D01*
G01X0100937Y-044095D01*
G01X0100913Y-044139D01*
G01X0100881Y-044178D01*
G01X0100842Y-044210D01*
G01X0100797Y-044234D01*
G01X0100792Y-044236D01*
G01X0100749Y-044249D01*
G01X0100724Y-044251D01*
G01X0100711Y-044252D01*
G01X0100470Y-044252D01*
G01X0100457Y-044251D01*
G01X0100432Y-044249D01*
G01X0100389Y-044236D01*
G01X0100384Y-044234D01*
G01X0100339Y-044210D01*
G01X0100300Y-044178D01*
G01X0100268Y-044139D01*
G01X0100244Y-044095D01*
G01X0100238Y-044073D01*
G01X0100230Y-044046D01*
G01X0100225Y-043996D01*
G01X0100230Y-043946D01*
G01X0100244Y-043898D01*
G01X0100244Y-043898D01*
G01X0100268Y-043853D01*
G01X0100300Y-043814D01*
G01X0100339Y-043782D01*
G01X0100384Y-043758D01*
G01X0100405Y-043752D01*
G01X0100432Y-043743D01*
G01X0100457Y-043741D01*
G01X0100470Y-043740D01*
G01X0100711Y-043740D01*
G01X0100724Y-043741D01*
G01X0100724Y-043741D01*
G37*
G36*
G01X0092901Y-043692D02*
G01X0092915Y-043697D01*
G01X0092929Y-043704D01*
G01X0092940Y-043713D01*
G01X0092950Y-043725D01*
G01X0092957Y-043738D01*
G01X0092961Y-043753D01*
G01X0092963Y-043770D01*
G01X0092963Y-044143D01*
G01X0092961Y-044161D01*
G01X0092957Y-044175D01*
G01X0092950Y-044189D01*
G01X0092940Y-044200D01*
G01X0092929Y-044210D01*
G01X0092915Y-044217D01*
G01X0092901Y-044221D01*
G01X0092884Y-044223D01*
G01X0091959Y-044223D01*
G01X0091941Y-044221D01*
G01X0091927Y-044217D01*
G01X0091914Y-044210D01*
G01X0091902Y-044200D01*
G01X0091893Y-044189D01*
G01X0091886Y-044175D01*
G01X0091881Y-044161D01*
G01X0091880Y-044143D01*
G01X0091880Y-043770D01*
G01X0091881Y-043753D01*
G01X0091886Y-043738D01*
G01X0091893Y-043725D01*
G01X0091902Y-043713D01*
G01X0091914Y-043704D01*
G01X0091927Y-043697D01*
G01X0091941Y-043692D01*
G01X0091959Y-043691D01*
G01X0092884Y-043691D01*
G01X0092901Y-043692D01*
G01X0092901Y-043692D01*
G37*
G36*
G01X0090602Y-043820D02*
G01X0090616Y-043824D01*
G01X0090628Y-043831D01*
G01X0090639Y-043840D01*
G01X0090648Y-043850D01*
G01X0090654Y-043863D01*
G01X0090658Y-043876D01*
G01X0090660Y-043892D01*
G01X0090660Y-044129D01*
G01X0090658Y-044146D01*
G01X0090654Y-044159D01*
G01X0090648Y-044171D01*
G01X0090639Y-044182D01*
G01X0090628Y-044191D01*
G01X0090616Y-044197D01*
G01X0090602Y-044202D01*
G01X0090586Y-044203D01*
G01X0090320Y-044203D01*
G01X0090303Y-044202D01*
G01X0090290Y-044197D01*
G01X0090278Y-044191D01*
G01X0090267Y-044182D01*
G01X0090258Y-044171D01*
G01X0090251Y-044159D01*
G01X0090247Y-044146D01*
G01X0090246Y-044129D01*
G01X0090246Y-043892D01*
G01X0090247Y-043876D01*
G01X0090251Y-043863D01*
G01X0090258Y-043850D01*
G01X0090267Y-043840D01*
G01X0090278Y-043831D01*
G01X0090290Y-043824D01*
G01X0090303Y-043820D01*
G01X0090320Y-043819D01*
G01X0090586Y-043819D01*
G01X0090602Y-043820D01*
G01X0090602Y-043820D01*
G37*
G36*
G01X0097659Y-043692D02*
G01X0097673Y-043696D01*
G01X0097685Y-043703D01*
G01X0097696Y-043712D01*
G01X0097705Y-043722D01*
G01X0097711Y-043735D01*
G01X0097715Y-043748D01*
G01X0097717Y-043765D01*
G01X0097717Y-044031D01*
G01X0097715Y-044047D01*
G01X0097711Y-044060D01*
G01X0097705Y-044073D01*
G01X0097696Y-044084D01*
G01X0097685Y-044092D01*
G01X0097673Y-044099D01*
G01X0097659Y-044103D01*
G01X0097643Y-044105D01*
G01X0097406Y-044105D01*
G01X0097390Y-044103D01*
G01X0097377Y-044099D01*
G01X0097364Y-044092D01*
G01X0097353Y-044084D01*
G01X0097345Y-044073D01*
G01X0097338Y-044060D01*
G01X0097334Y-044047D01*
G01X0097332Y-044031D01*
G01X0097332Y-043765D01*
G01X0097334Y-043748D01*
G01X0097338Y-043735D01*
G01X0097345Y-043722D01*
G01X0097353Y-043712D01*
G01X0097364Y-043703D01*
G01X0097377Y-043696D01*
G01X0097390Y-043692D01*
G01X0097406Y-043691D01*
G01X0097643Y-043691D01*
G01X0097659Y-043692D01*
G01X0097659Y-043692D01*
G37*
G36*
G01X0098279Y-043692D02*
G01X0098293Y-043696D01*
G01X0098305Y-043703D01*
G01X0098316Y-043712D01*
G01X0098325Y-043722D01*
G01X0098331Y-043735D01*
G01X0098335Y-043748D01*
G01X0098337Y-043765D01*
G01X0098337Y-044031D01*
G01X0098335Y-044047D01*
G01X0098331Y-044060D01*
G01X0098325Y-044073D01*
G01X0098316Y-044084D01*
G01X0098305Y-044092D01*
G01X0098293Y-044099D01*
G01X0098279Y-044103D01*
G01X0098263Y-044105D01*
G01X0098026Y-044105D01*
G01X0098010Y-044103D01*
G01X0097997Y-044099D01*
G01X0097984Y-044092D01*
G01X0097973Y-044084D01*
G01X0097965Y-044073D01*
G01X0097958Y-044060D01*
G01X0097954Y-044047D01*
G01X0097952Y-044031D01*
G01X0097952Y-043765D01*
G01X0097954Y-043748D01*
G01X0097958Y-043735D01*
G01X0097965Y-043722D01*
G01X0097973Y-043712D01*
G01X0097984Y-043703D01*
G01X0097997Y-043696D01*
G01X0098010Y-043692D01*
G01X0098026Y-043691D01*
G01X0098263Y-043691D01*
G01X0098279Y-043692D01*
G01X0098279Y-043692D01*
G37*
G36*
G01X0096803Y-043397D02*
G01X0096816Y-043401D01*
G01X0096829Y-043408D01*
G01X0096840Y-043416D01*
G01X0096848Y-043427D01*
G01X0096855Y-043440D01*
G01X0096859Y-043453D01*
G01X0096861Y-043469D01*
G01X0096861Y-043735D01*
G01X0096859Y-043752D01*
G01X0096855Y-043765D01*
G01X0096848Y-043778D01*
G01X0096840Y-043788D01*
G01X0096829Y-043797D01*
G01X0096816Y-043804D01*
G01X0096803Y-043808D01*
G01X0096787Y-043809D01*
G01X0096550Y-043809D01*
G01X0096534Y-043808D01*
G01X0096520Y-043804D01*
G01X0096508Y-043797D01*
G01X0096497Y-043788D01*
G01X0096488Y-043778D01*
G01X0096482Y-043765D01*
G01X0096478Y-043752D01*
G01X0096476Y-043735D01*
G01X0096476Y-043469D01*
G01X0096478Y-043453D01*
G01X0096482Y-043440D01*
G01X0096488Y-043427D01*
G01X0096497Y-043416D01*
G01X0096508Y-043408D01*
G01X0096520Y-043401D01*
G01X0096534Y-043397D01*
G01X0096550Y-043395D01*
G01X0096787Y-043395D01*
G01X0096803Y-043397D01*
G01X0096803Y-043397D01*
G37*
G36*
G01X0096183Y-043397D02*
G01X0096196Y-043401D01*
G01X0096209Y-043408D01*
G01X0096219Y-043416D01*
G01X0096228Y-043427D01*
G01X0096235Y-043440D01*
G01X0096239Y-043453D01*
G01X0096241Y-043469D01*
G01X0096241Y-043735D01*
G01X0096239Y-043752D01*
G01X0096235Y-043765D01*
G01X0096228Y-043778D01*
G01X0096219Y-043788D01*
G01X0096209Y-043797D01*
G01X0096196Y-043804D01*
G01X0096183Y-043808D01*
G01X0096167Y-043809D01*
G01X0095930Y-043809D01*
G01X0095914Y-043808D01*
G01X0095900Y-043804D01*
G01X0095888Y-043797D01*
G01X0095877Y-043788D01*
G01X0095868Y-043778D01*
G01X0095862Y-043765D01*
G01X0095858Y-043752D01*
G01X0095856Y-043735D01*
G01X0095856Y-043469D01*
G01X0095858Y-043453D01*
G01X0095862Y-043440D01*
G01X0095868Y-043427D01*
G01X0095877Y-043416D01*
G01X0095888Y-043408D01*
G01X0095900Y-043401D01*
G01X0095914Y-043397D01*
G01X0095930Y-043395D01*
G01X0096167Y-043395D01*
G01X0096183Y-043397D01*
G01X0096183Y-043397D01*
G37*
G36*
G01X0090602Y-043200D02*
G01X0090616Y-043204D01*
G01X0090628Y-043211D01*
G01X0090639Y-043220D01*
G01X0090648Y-043230D01*
G01X0090654Y-043243D01*
G01X0090658Y-043256D01*
G01X0090660Y-043272D01*
G01X0090660Y-043509D01*
G01X0090658Y-043525D01*
G01X0090654Y-043539D01*
G01X0090648Y-043551D01*
G01X0090639Y-043562D01*
G01X0090628Y-043571D01*
G01X0090616Y-043577D01*
G01X0090602Y-043581D01*
G01X0090586Y-043583D01*
G01X0090320Y-043583D01*
G01X0090303Y-043581D01*
G01X0090290Y-043577D01*
G01X0090278Y-043571D01*
G01X0090267Y-043562D01*
G01X0090258Y-043551D01*
G01X0090251Y-043539D01*
G01X0090247Y-043525D01*
G01X0090246Y-043509D01*
G01X0090246Y-043272D01*
G01X0090247Y-043256D01*
G01X0090251Y-043243D01*
G01X0090258Y-043230D01*
G01X0090267Y-043220D01*
G01X0090278Y-043211D01*
G01X0090290Y-043204D01*
G01X0090303Y-043200D01*
G01X0090320Y-043198D01*
G01X0090586Y-043198D01*
G01X0090602Y-043200D01*
G01X0090602Y-043200D01*
G37*
G36*
G01X0098279Y-043102D02*
G01X0098293Y-043106D01*
G01X0098305Y-043112D01*
G01X0098316Y-043121D01*
G01X0098325Y-043132D01*
G01X0098331Y-043144D01*
G01X0098335Y-043158D01*
G01X0098337Y-043174D01*
G01X0098337Y-043440D01*
G01X0098335Y-043457D01*
G01X0098331Y-043470D01*
G01X0098325Y-043482D01*
G01X0098316Y-043493D01*
G01X0098305Y-043502D01*
G01X0098293Y-043509D01*
G01X0098279Y-043513D01*
G01X0098263Y-043514D01*
G01X0098026Y-043514D01*
G01X0098010Y-043513D01*
G01X0097997Y-043509D01*
G01X0097984Y-043502D01*
G01X0097973Y-043493D01*
G01X0097965Y-043482D01*
G01X0097958Y-043470D01*
G01X0097954Y-043457D01*
G01X0097952Y-043440D01*
G01X0097952Y-043174D01*
G01X0097954Y-043158D01*
G01X0097958Y-043144D01*
G01X0097965Y-043132D01*
G01X0097973Y-043121D01*
G01X0097984Y-043112D01*
G01X0097997Y-043106D01*
G01X0098010Y-043102D01*
G01X0098026Y-043100D01*
G01X0098263Y-043100D01*
G01X0098279Y-043102D01*
G01X0098279Y-043102D01*
G37*
G36*
G01X0097659Y-043102D02*
G01X0097673Y-043106D01*
G01X0097685Y-043112D01*
G01X0097696Y-043121D01*
G01X0097705Y-043132D01*
G01X0097711Y-043144D01*
G01X0097715Y-043158D01*
G01X0097717Y-043174D01*
G01X0097717Y-043440D01*
G01X0097715Y-043457D01*
G01X0097711Y-043470D01*
G01X0097705Y-043482D01*
G01X0097696Y-043493D01*
G01X0097685Y-043502D01*
G01X0097673Y-043509D01*
G01X0097659Y-043513D01*
G01X0097643Y-043514D01*
G01X0097406Y-043514D01*
G01X0097390Y-043513D01*
G01X0097377Y-043509D01*
G01X0097364Y-043502D01*
G01X0097353Y-043493D01*
G01X0097345Y-043482D01*
G01X0097338Y-043470D01*
G01X0097334Y-043457D01*
G01X0097332Y-043440D01*
G01X0097332Y-043174D01*
G01X0097334Y-043158D01*
G01X0097338Y-043144D01*
G01X0097345Y-043132D01*
G01X0097353Y-043121D01*
G01X0097364Y-043112D01*
G01X0097377Y-043106D01*
G01X0097390Y-043102D01*
G01X0097406Y-043100D01*
G01X0097643Y-043100D01*
G01X0097659Y-043102D01*
G01X0097659Y-043102D01*
G37*
G36*
G01X0100740Y-042934D02*
G01X0100753Y-042938D01*
G01X0100766Y-042945D01*
G01X0100777Y-042954D01*
G01X0100785Y-042965D01*
G01X0100792Y-042977D01*
G01X0100796Y-042990D01*
G01X0100798Y-043007D01*
G01X0100798Y-043243D01*
G01X0100796Y-043260D01*
G01X0100792Y-043273D01*
G01X0100785Y-043285D01*
G01X0100777Y-043296D01*
G01X0100766Y-043305D01*
G01X0100753Y-043312D01*
G01X0100740Y-043316D01*
G01X0100724Y-043317D01*
G01X0100457Y-043317D01*
G01X0100441Y-043316D01*
G01X0100428Y-043312D01*
G01X0100415Y-043305D01*
G01X0100405Y-043296D01*
G01X0100396Y-043285D01*
G01X0100389Y-043273D01*
G01X0100385Y-043260D01*
G01X0100383Y-043243D01*
G01X0100383Y-043007D01*
G01X0100385Y-042990D01*
G01X0100389Y-042977D01*
G01X0100396Y-042965D01*
G01X0100405Y-042954D01*
G01X0100415Y-042945D01*
G01X0100428Y-042938D01*
G01X0100441Y-042934D01*
G01X0100457Y-042933D01*
G01X0100724Y-042933D01*
G01X0100740Y-042934D01*
G01X0100740Y-042934D01*
G37*
G36*
G01X0089751Y-042688D02*
G01X0089766Y-042693D01*
G01X0089779Y-042700D01*
G01X0089791Y-042709D01*
G01X0089800Y-042721D01*
G01X0089807Y-042734D01*
G01X0089812Y-042749D01*
G01X0089813Y-042766D01*
G01X0089813Y-043140D01*
G01X0089812Y-043157D01*
G01X0089807Y-043171D01*
G01X0089800Y-043185D01*
G01X0089791Y-043196D01*
G01X0089779Y-043206D01*
G01X0089766Y-043213D01*
G01X0089751Y-043217D01*
G01X0089734Y-043219D01*
G01X0088809Y-043219D01*
G01X0088792Y-043217D01*
G01X0088778Y-043213D01*
G01X0088764Y-043206D01*
G01X0088753Y-043196D01*
G01X0088743Y-043185D01*
G01X0088736Y-043171D01*
G01X0088732Y-043157D01*
G01X0088730Y-043140D01*
G01X0088730Y-042766D01*
G01X0088732Y-042749D01*
G01X0088736Y-042734D01*
G01X0088743Y-042721D01*
G01X0088753Y-042709D01*
G01X0088764Y-042700D01*
G01X0088778Y-042693D01*
G01X0088792Y-042688D01*
G01X0088809Y-042687D01*
G01X0089734Y-042687D01*
G01X0089751Y-042688D01*
G01X0089751Y-042688D01*
G37*
G36*
G01X0092901Y-042590D02*
G01X0092915Y-042594D01*
G01X0092929Y-042601D01*
G01X0092940Y-042611D01*
G01X0092950Y-042623D01*
G01X0092957Y-042636D01*
G01X0092961Y-042650D01*
G01X0092963Y-042668D01*
G01X0092963Y-043041D01*
G01X0092961Y-043059D01*
G01X0092957Y-043073D01*
G01X0092950Y-043086D01*
G01X0092940Y-043098D01*
G01X0092929Y-043107D01*
G01X0092915Y-043114D01*
G01X0092901Y-043119D01*
G01X0092884Y-043120D01*
G01X0091959Y-043120D01*
G01X0091941Y-043119D01*
G01X0091927Y-043114D01*
G01X0091914Y-043107D01*
G01X0091902Y-043098D01*
G01X0091893Y-043086D01*
G01X0091886Y-043073D01*
G01X0091881Y-043059D01*
G01X0091880Y-043041D01*
G01X0091880Y-042668D01*
G01X0091881Y-042650D01*
G01X0091886Y-042636D01*
G01X0091893Y-042623D01*
G01X0091902Y-042611D01*
G01X0091914Y-042601D01*
G01X0091927Y-042594D01*
G01X0091941Y-042590D01*
G01X0091959Y-042588D01*
G01X0092884Y-042588D01*
G01X0092901Y-042590D01*
G01X0092901Y-042590D01*
G37*
G36*
G01X0087094Y-042314D02*
G01X0087108Y-042319D01*
G01X0087122Y-042326D01*
G01X0087133Y-042335D01*
G01X0087143Y-042347D01*
G01X0087150Y-042360D01*
G01X0087154Y-042375D01*
G01X0087156Y-042392D01*
G01X0087156Y-042766D01*
G01X0087154Y-042783D01*
G01X0087150Y-042797D01*
G01X0087143Y-042811D01*
G01X0087133Y-042822D01*
G01X0087122Y-042832D01*
G01X0087108Y-042839D01*
G01X0087094Y-042843D01*
G01X0087077Y-042845D01*
G01X0086152Y-042845D01*
G01X0086134Y-042843D01*
G01X0086120Y-042839D01*
G01X0086107Y-042832D01*
G01X0086095Y-042822D01*
G01X0086086Y-042811D01*
G01X0086079Y-042797D01*
G01X0086074Y-042783D01*
G01X0086072Y-042766D01*
G01X0086072Y-042392D01*
G01X0086074Y-042375D01*
G01X0086079Y-042360D01*
G01X0086086Y-042347D01*
G01X0086095Y-042335D01*
G01X0086107Y-042326D01*
G01X0086120Y-042319D01*
G01X0086134Y-042314D01*
G01X0086152Y-042313D01*
G01X0087077Y-042313D01*
G01X0087094Y-042314D01*
G01X0087094Y-042314D01*
G37*
G36*
G01X0100740Y-042314D02*
G01X0100753Y-042318D01*
G01X0100766Y-042325D01*
G01X0100777Y-042334D01*
G01X0100785Y-042345D01*
G01X0100792Y-042357D01*
G01X0100796Y-042370D01*
G01X0100798Y-042387D01*
G01X0100798Y-042623D01*
G01X0100796Y-042640D01*
G01X0100792Y-042653D01*
G01X0100785Y-042665D01*
G01X0100777Y-042676D01*
G01X0100766Y-042685D01*
G01X0100753Y-042692D01*
G01X0100740Y-042696D01*
G01X0100724Y-042697D01*
G01X0100457Y-042697D01*
G01X0100441Y-042696D01*
G01X0100428Y-042692D01*
G01X0100415Y-042685D01*
G01X0100405Y-042676D01*
G01X0100396Y-042665D01*
G01X0100389Y-042653D01*
G01X0100385Y-042640D01*
G01X0100383Y-042623D01*
G01X0100383Y-042387D01*
G01X0100385Y-042370D01*
G01X0100389Y-042357D01*
G01X0100396Y-042345D01*
G01X0100405Y-042334D01*
G01X0100415Y-042325D01*
G01X0100428Y-042318D01*
G01X0100441Y-042314D01*
G01X0100457Y-042313D01*
G01X0100724Y-042313D01*
G01X0100740Y-042314D01*
G01X0100740Y-042314D01*
G37*
G36*
G01X0074536Y-041870D02*
G01X0074568Y-041873D01*
G01X0074604Y-041884D01*
G01X0074616Y-041888D01*
G01X0074661Y-041912D01*
G01X0074700Y-041944D01*
G01X0074732Y-041983D01*
G01X0074756Y-042027D01*
G01X0074756Y-042027D01*
G01X0074770Y-042076D01*
G01X0074775Y-042126D01*
G01X0074770Y-042176D01*
G01X0074768Y-042185D01*
G01X0074756Y-042225D01*
G01X0074732Y-042269D01*
G01X0074700Y-042308D01*
G01X0074661Y-042340D01*
G01X0074616Y-042364D01*
G01X0074604Y-042368D01*
G01X0074568Y-042379D01*
G01X0074543Y-042381D01*
G01X0074530Y-042382D01*
G01X0074289Y-042382D01*
G01X0074276Y-042381D01*
G01X0074251Y-042379D01*
G01X0074215Y-042368D01*
G01X0074203Y-042364D01*
G01X0074158Y-042340D01*
G01X0074119Y-042308D01*
G01X0074087Y-042269D01*
G01X0074063Y-042225D01*
G01X0074051Y-042185D01*
G01X0074049Y-042176D01*
G01X0074044Y-042126D01*
G01X0074049Y-042076D01*
G01X0074063Y-042027D01*
G01X0074063Y-042027D01*
G01X0074087Y-041983D01*
G01X0074119Y-041944D01*
G01X0074158Y-041912D01*
G01X0074203Y-041888D01*
G01X0074215Y-041884D01*
G01X0074251Y-041873D01*
G01X0074283Y-041870D01*
G01X0074289Y-041870D01*
G01X0074530Y-041870D01*
G01X0074536Y-041870D01*
G01X0074536Y-041870D01*
G37*
G36*
G01X0089126Y-041950D02*
G01X0089139Y-041954D01*
G01X0089152Y-041961D01*
G01X0089162Y-041970D01*
G01X0089171Y-041980D01*
G01X0089178Y-041993D01*
G01X0089182Y-042006D01*
G01X0089183Y-042022D01*
G01X0089183Y-042259D01*
G01X0089182Y-042275D01*
G01X0089178Y-042289D01*
G01X0089171Y-042301D01*
G01X0089162Y-042312D01*
G01X0089152Y-042321D01*
G01X0089139Y-042327D01*
G01X0089126Y-042331D01*
G01X0089109Y-042333D01*
G01X0088843Y-042333D01*
G01X0088827Y-042331D01*
G01X0088814Y-042327D01*
G01X0088801Y-042321D01*
G01X0088790Y-042312D01*
G01X0088782Y-042301D01*
G01X0088775Y-042289D01*
G01X0088771Y-042275D01*
G01X0088769Y-042259D01*
G01X0088769Y-042022D01*
G01X0088771Y-042006D01*
G01X0088775Y-041993D01*
G01X0088782Y-041980D01*
G01X0088790Y-041970D01*
G01X0088801Y-041961D01*
G01X0088814Y-041954D01*
G01X0088827Y-041950D01*
G01X0088843Y-041948D01*
G01X0089109Y-041948D01*
G01X0089126Y-041950D01*
G01X0089126Y-041950D01*
G37*
G36*
G01X0088437Y-041935D02*
G01X0088450Y-041939D01*
G01X0088463Y-041946D01*
G01X0088473Y-041955D01*
G01X0088482Y-041966D01*
G01X0088489Y-041978D01*
G01X0088493Y-041991D01*
G01X0088494Y-042008D01*
G01X0088494Y-042244D01*
G01X0088493Y-042261D01*
G01X0088489Y-042274D01*
G01X0088482Y-042286D01*
G01X0088473Y-042297D01*
G01X0088463Y-042306D01*
G01X0088450Y-042313D01*
G01X0088437Y-042317D01*
G01X0088421Y-042318D01*
G01X0088154Y-042318D01*
G01X0088138Y-042317D01*
G01X0088125Y-042313D01*
G01X0088112Y-042306D01*
G01X0088101Y-042297D01*
G01X0088093Y-042286D01*
G01X0088086Y-042274D01*
G01X0088082Y-042261D01*
G01X0088080Y-042244D01*
G01X0088080Y-042008D01*
G01X0088082Y-041991D01*
G01X0088086Y-041978D01*
G01X0088093Y-041966D01*
G01X0088101Y-041955D01*
G01X0088112Y-041946D01*
G01X0088125Y-041939D01*
G01X0088138Y-041935D01*
G01X0088154Y-041934D01*
G01X0088421Y-041934D01*
G01X0088437Y-041935D01*
G01X0088437Y-041935D01*
G37*
G36*
G01X0087094Y-041212D02*
G01X0087108Y-041216D01*
G01X0087122Y-041223D01*
G01X0087133Y-041233D01*
G01X0087143Y-041245D01*
G01X0087150Y-041258D01*
G01X0087154Y-041272D01*
G01X0087156Y-041290D01*
G01X0087156Y-041663D01*
G01X0087154Y-041681D01*
G01X0087150Y-041695D01*
G01X0087143Y-041708D01*
G01X0087133Y-041720D01*
G01X0087122Y-041729D01*
G01X0087108Y-041736D01*
G01X0087094Y-041741D01*
G01X0087077Y-041743D01*
G01X0086152Y-041743D01*
G01X0086134Y-041741D01*
G01X0086120Y-041736D01*
G01X0086107Y-041729D01*
G01X0086095Y-041720D01*
G01X0086086Y-041708D01*
G01X0086079Y-041695D01*
G01X0086074Y-041681D01*
G01X0086072Y-041663D01*
G01X0086072Y-041290D01*
G01X0086074Y-041272D01*
G01X0086079Y-041258D01*
G01X0086086Y-041245D01*
G01X0086095Y-041233D01*
G01X0086107Y-041223D01*
G01X0086120Y-041216D01*
G01X0086134Y-041212D01*
G01X0086152Y-041210D01*
G01X0087077Y-041210D01*
G01X0087094Y-041212D01*
G01X0087094Y-041212D01*
G37*
G36*
G01X0089126Y-041330D02*
G01X0089139Y-041334D01*
G01X0089152Y-041341D01*
G01X0089162Y-041349D01*
G01X0089171Y-041360D01*
G01X0089178Y-041373D01*
G01X0089182Y-041386D01*
G01X0089183Y-041402D01*
G01X0089183Y-041639D01*
G01X0089182Y-041655D01*
G01X0089178Y-041669D01*
G01X0089171Y-041681D01*
G01X0089162Y-041692D01*
G01X0089152Y-041701D01*
G01X0089139Y-041707D01*
G01X0089126Y-041711D01*
G01X0089109Y-041713D01*
G01X0088843Y-041713D01*
G01X0088827Y-041711D01*
G01X0088814Y-041707D01*
G01X0088801Y-041701D01*
G01X0088790Y-041692D01*
G01X0088782Y-041681D01*
G01X0088775Y-041669D01*
G01X0088771Y-041655D01*
G01X0088769Y-041639D01*
G01X0088769Y-041402D01*
G01X0088771Y-041386D01*
G01X0088775Y-041373D01*
G01X0088782Y-041360D01*
G01X0088790Y-041349D01*
G01X0088801Y-041341D01*
G01X0088814Y-041334D01*
G01X0088827Y-041330D01*
G01X0088843Y-041328D01*
G01X0089109Y-041328D01*
G01X0089126Y-041330D01*
G01X0089126Y-041330D01*
G37*
G36*
G01X0088437Y-041315D02*
G01X0088450Y-041319D01*
G01X0088463Y-041326D01*
G01X0088473Y-041335D01*
G01X0088482Y-041346D01*
G01X0088489Y-041358D01*
G01X0088493Y-041371D01*
G01X0088494Y-041388D01*
G01X0088494Y-041624D01*
G01X0088493Y-041641D01*
G01X0088489Y-041654D01*
G01X0088482Y-041666D01*
G01X0088473Y-041677D01*
G01X0088463Y-041686D01*
G01X0088450Y-041693D01*
G01X0088437Y-041697D01*
G01X0088421Y-041698D01*
G01X0088154Y-041698D01*
G01X0088138Y-041697D01*
G01X0088125Y-041693D01*
G01X0088112Y-041686D01*
G01X0088101Y-041677D01*
G01X0088093Y-041666D01*
G01X0088086Y-041654D01*
G01X0088082Y-041641D01*
G01X0088080Y-041624D01*
G01X0088080Y-041388D01*
G01X0088082Y-041371D01*
G01X0088086Y-041358D01*
G01X0088093Y-041346D01*
G01X0088101Y-041335D01*
G01X0088112Y-041326D01*
G01X0088125Y-041319D01*
G01X0088138Y-041315D01*
G01X0088154Y-041314D01*
G01X0088421Y-041314D01*
G01X0088437Y-041315D01*
G01X0088437Y-041315D01*
G37*
G36*
G01X0074543Y-041084D02*
G01X0074568Y-041086D01*
G01X0074604Y-041097D01*
G01X0074616Y-041101D01*
G01X0074661Y-041124D01*
G01X0074700Y-041156D01*
G01X0074732Y-041196D01*
G01X0074756Y-041240D01*
G01X0074756Y-041240D01*
G01X0074770Y-041288D01*
G01X0074775Y-041339D01*
G01X0074770Y-041389D01*
G01X0074764Y-041411D01*
G01X0074756Y-041437D01*
G01X0074732Y-041482D01*
G01X0074700Y-041521D01*
G01X0074661Y-041553D01*
G01X0074616Y-041577D01*
G01X0074604Y-041580D01*
G01X0074568Y-041591D01*
G01X0074543Y-041594D01*
G01X0074530Y-041595D01*
G01X0074289Y-041595D01*
G01X0074276Y-041594D01*
G01X0074251Y-041591D01*
G01X0074215Y-041580D01*
G01X0074203Y-041577D01*
G01X0074158Y-041553D01*
G01X0074119Y-041521D01*
G01X0074087Y-041482D01*
G01X0074063Y-041437D01*
G01X0074055Y-041411D01*
G01X0074049Y-041389D01*
G01X0074044Y-041339D01*
G01X0074049Y-041288D01*
G01X0074063Y-041240D01*
G01X0074063Y-041240D01*
G01X0074087Y-041196D01*
G01X0074119Y-041156D01*
G01X0074158Y-041124D01*
G01X0074203Y-041101D01*
G01X0074215Y-041097D01*
G01X0074251Y-041086D01*
G01X0074276Y-041084D01*
G01X0074289Y-041082D01*
G01X0074530Y-041082D01*
G01X0074543Y-041084D01*
G01X0074543Y-041084D01*
G37*
G36*
G01X0074543Y-040296D02*
G01X0074568Y-040299D01*
G01X0074604Y-040309D01*
G01X0074616Y-040313D01*
G01X0074661Y-040337D01*
G01X0074700Y-040369D01*
G01X0074732Y-040408D01*
G01X0074756Y-040453D01*
G01X0074756Y-040453D01*
G01X0074770Y-040501D01*
G01X0074775Y-040551D01*
G01X0074770Y-040601D01*
G01X0074759Y-040637D01*
G01X0074756Y-040650D01*
G01X0074732Y-040694D01*
G01X0074700Y-040733D01*
G01X0074661Y-040765D01*
G01X0074616Y-040789D01*
G01X0074604Y-040793D01*
G01X0074568Y-040804D01*
G01X0074543Y-040806D01*
G01X0074530Y-040807D01*
G01X0074289Y-040807D01*
G01X0074276Y-040806D01*
G01X0074251Y-040804D01*
G01X0074215Y-040793D01*
G01X0074203Y-040789D01*
G01X0074158Y-040765D01*
G01X0074119Y-040733D01*
G01X0074087Y-040694D01*
G01X0074063Y-040650D01*
G01X0074059Y-040637D01*
G01X0074049Y-040601D01*
G01X0074044Y-040551D01*
G01X0074049Y-040501D01*
G01X0074063Y-040453D01*
G01X0074063Y-040453D01*
G01X0074087Y-040408D01*
G01X0074119Y-040369D01*
G01X0074158Y-040337D01*
G01X0074203Y-040313D01*
G01X0074215Y-040309D01*
G01X0074251Y-040299D01*
G01X0074276Y-040296D01*
G01X0074289Y-040295D01*
G01X0074530Y-040295D01*
G01X0074543Y-040296D01*
G01X0074543Y-040296D01*
G37*
G36*
G01X0074711Y-039509D02*
G01X0074726Y-039514D01*
G01X0074739Y-039521D01*
G01X0074751Y-039531D01*
G01X0074761Y-039542D01*
G01X0074768Y-039556D01*
G01X0074772Y-039570D01*
G01X0074774Y-039588D01*
G01X0074774Y-039940D01*
G01X0074772Y-039957D01*
G01X0074768Y-039972D01*
G01X0074761Y-039985D01*
G01X0074751Y-039997D01*
G01X0074739Y-040007D01*
G01X0074726Y-040014D01*
G01X0074711Y-040018D01*
G01X0074694Y-040020D01*
G01X0074125Y-040020D01*
G01X0074108Y-040018D01*
G01X0074093Y-040014D01*
G01X0074080Y-040007D01*
G01X0074068Y-039997D01*
G01X0074058Y-039985D01*
G01X0074051Y-039972D01*
G01X0074047Y-039957D01*
G01X0074045Y-039940D01*
G01X0074045Y-039588D01*
G01X0074047Y-039570D01*
G01X0074051Y-039556D01*
G01X0074058Y-039542D01*
G01X0074068Y-039531D01*
G01X0074080Y-039521D01*
G01X0074093Y-039514D01*
G01X0074108Y-039509D01*
G01X0074125Y-039507D01*
G01X0074694Y-039507D01*
G01X0074711Y-039509D01*
G01X0074711Y-039509D01*
G37*
G36*
G01X0074543Y-037540D02*
G01X0074568Y-037543D01*
G01X0074596Y-037551D01*
G01X0074616Y-037557D01*
G01X0074661Y-037581D01*
G01X0074700Y-037613D01*
G01X0074732Y-037652D01*
G01X0074756Y-037697D01*
G01X0074756Y-037697D01*
G01X0074770Y-037745D01*
G01X0074775Y-037795D01*
G01X0074770Y-037846D01*
G01X0074762Y-037872D01*
G01X0074756Y-037894D01*
G01X0074732Y-037938D01*
G01X0074700Y-037977D01*
G01X0074661Y-038009D01*
G01X0074616Y-038033D01*
G01X0074604Y-038037D01*
G01X0074568Y-038048D01*
G01X0074543Y-038050D01*
G01X0074530Y-038052D01*
G01X0074289Y-038052D01*
G01X0074276Y-038050D01*
G01X0074251Y-038048D01*
G01X0074215Y-038037D01*
G01X0074203Y-038033D01*
G01X0074158Y-038009D01*
G01X0074119Y-037977D01*
G01X0074087Y-037938D01*
G01X0074063Y-037894D01*
G01X0074057Y-037872D01*
G01X0074049Y-037846D01*
G01X0074044Y-037795D01*
G01X0074049Y-037745D01*
G01X0074063Y-037697D01*
G01X0074063Y-037697D01*
G01X0074087Y-037652D01*
G01X0074119Y-037613D01*
G01X0074158Y-037581D01*
G01X0074203Y-037557D01*
G01X0074223Y-037551D01*
G01X0074251Y-037543D01*
G01X0074276Y-037540D01*
G01X0074289Y-037539D01*
G01X0074530Y-037539D01*
G01X0074543Y-037540D01*
G01X0074543Y-037540D01*
G37*
G36*
G01X0100543Y-037521D02*
G01X0100557Y-037525D01*
G01X0100569Y-037532D01*
G01X0100580Y-037540D01*
G01X0100589Y-037551D01*
G01X0100595Y-037564D01*
G01X0100599Y-037577D01*
G01X0100601Y-037593D01*
G01X0100601Y-037830D01*
G01X0100599Y-037846D01*
G01X0100595Y-037860D01*
G01X0100589Y-037872D01*
G01X0100580Y-037883D01*
G01X0100569Y-037892D01*
G01X0100557Y-037898D01*
G01X0100543Y-037902D01*
G01X0100527Y-037904D01*
G01X0100261Y-037904D01*
G01X0100244Y-037902D01*
G01X0100231Y-037898D01*
G01X0100219Y-037892D01*
G01X0100208Y-037883D01*
G01X0100199Y-037872D01*
G01X0100192Y-037860D01*
G01X0100188Y-037846D01*
G01X0100187Y-037830D01*
G01X0100187Y-037593D01*
G01X0100188Y-037577D01*
G01X0100192Y-037564D01*
G01X0100199Y-037551D01*
G01X0100208Y-037540D01*
G01X0100219Y-037532D01*
G01X0100231Y-037525D01*
G01X0100244Y-037521D01*
G01X0100261Y-037519D01*
G01X0100527Y-037519D01*
G01X0100543Y-037521D01*
G01X0100543Y-037521D01*
G37*
G36*
G01X0082039Y-037521D02*
G01X0082053Y-037525D01*
G01X0082065Y-037532D01*
G01X0082076Y-037540D01*
G01X0082085Y-037551D01*
G01X0082091Y-037564D01*
G01X0082095Y-037577D01*
G01X0082097Y-037593D01*
G01X0082097Y-037830D01*
G01X0082095Y-037846D01*
G01X0082091Y-037860D01*
G01X0082085Y-037872D01*
G01X0082076Y-037883D01*
G01X0082065Y-037892D01*
G01X0082053Y-037898D01*
G01X0082039Y-037902D01*
G01X0082023Y-037904D01*
G01X0081757Y-037904D01*
G01X0081740Y-037902D01*
G01X0081727Y-037898D01*
G01X0081715Y-037892D01*
G01X0081704Y-037883D01*
G01X0081695Y-037872D01*
G01X0081688Y-037860D01*
G01X0081684Y-037846D01*
G01X0081683Y-037830D01*
G01X0081683Y-037593D01*
G01X0081684Y-037577D01*
G01X0081688Y-037564D01*
G01X0081695Y-037551D01*
G01X0081704Y-037540D01*
G01X0081715Y-037532D01*
G01X0081727Y-037525D01*
G01X0081740Y-037521D01*
G01X0081757Y-037519D01*
G01X0082023Y-037519D01*
G01X0082039Y-037521D01*
G01X0082039Y-037521D01*
G37*
G36*
G01X0099657Y-037521D02*
G01X0099671Y-037525D01*
G01X0099683Y-037532D01*
G01X0099694Y-037540D01*
G01X0099703Y-037551D01*
G01X0099709Y-037564D01*
G01X0099713Y-037577D01*
G01X0099715Y-037593D01*
G01X0099715Y-037830D01*
G01X0099713Y-037846D01*
G01X0099709Y-037860D01*
G01X0099703Y-037872D01*
G01X0099694Y-037883D01*
G01X0099683Y-037892D01*
G01X0099671Y-037898D01*
G01X0099657Y-037902D01*
G01X0099641Y-037904D01*
G01X0099375Y-037904D01*
G01X0099358Y-037902D01*
G01X0099345Y-037898D01*
G01X0099333Y-037892D01*
G01X0099322Y-037883D01*
G01X0099313Y-037872D01*
G01X0099306Y-037860D01*
G01X0099302Y-037846D01*
G01X0099301Y-037830D01*
G01X0099301Y-037593D01*
G01X0099302Y-037577D01*
G01X0099306Y-037564D01*
G01X0099313Y-037551D01*
G01X0099322Y-037540D01*
G01X0099333Y-037532D01*
G01X0099345Y-037525D01*
G01X0099358Y-037521D01*
G01X0099375Y-037519D01*
G01X0099641Y-037519D01*
G01X0099657Y-037521D01*
G01X0099657Y-037521D01*
G37*
G36*
G01X0098771Y-037521D02*
G01X0098785Y-037525D01*
G01X0098797Y-037532D01*
G01X0098808Y-037540D01*
G01X0098817Y-037551D01*
G01X0098823Y-037564D01*
G01X0098828Y-037577D01*
G01X0098829Y-037593D01*
G01X0098829Y-037830D01*
G01X0098828Y-037846D01*
G01X0098823Y-037860D01*
G01X0098817Y-037872D01*
G01X0098808Y-037883D01*
G01X0098797Y-037892D01*
G01X0098785Y-037898D01*
G01X0098771Y-037902D01*
G01X0098755Y-037904D01*
G01X0098489Y-037904D01*
G01X0098473Y-037902D01*
G01X0098459Y-037898D01*
G01X0098447Y-037892D01*
G01X0098436Y-037883D01*
G01X0098427Y-037872D01*
G01X0098421Y-037860D01*
G01X0098417Y-037846D01*
G01X0098415Y-037830D01*
G01X0098415Y-037593D01*
G01X0098417Y-037577D01*
G01X0098421Y-037564D01*
G01X0098427Y-037551D01*
G01X0098436Y-037540D01*
G01X0098447Y-037532D01*
G01X0098459Y-037525D01*
G01X0098473Y-037521D01*
G01X0098489Y-037519D01*
G01X0098755Y-037519D01*
G01X0098771Y-037521D01*
G01X0098771Y-037521D01*
G37*
G36*
G01X0098771Y-036901D02*
G01X0098785Y-036905D01*
G01X0098797Y-036911D01*
G01X0098808Y-036920D01*
G01X0098817Y-036931D01*
G01X0098823Y-036943D01*
G01X0098828Y-036957D01*
G01X0098829Y-036973D01*
G01X0098829Y-037210D01*
G01X0098828Y-037226D01*
G01X0098823Y-037240D01*
G01X0098817Y-037252D01*
G01X0098808Y-037263D01*
G01X0098797Y-037272D01*
G01X0098785Y-037278D01*
G01X0098771Y-037282D01*
G01X0098755Y-037284D01*
G01X0098489Y-037284D01*
G01X0098473Y-037282D01*
G01X0098459Y-037278D01*
G01X0098447Y-037272D01*
G01X0098436Y-037263D01*
G01X0098427Y-037252D01*
G01X0098421Y-037240D01*
G01X0098417Y-037226D01*
G01X0098415Y-037210D01*
G01X0098415Y-036973D01*
G01X0098417Y-036957D01*
G01X0098421Y-036943D01*
G01X0098427Y-036931D01*
G01X0098436Y-036920D01*
G01X0098447Y-036911D01*
G01X0098459Y-036905D01*
G01X0098473Y-036901D01*
G01X0098489Y-036899D01*
G01X0098755Y-036899D01*
G01X0098771Y-036901D01*
G01X0098771Y-036901D01*
G37*
G36*
G01X0099657Y-036901D02*
G01X0099671Y-036905D01*
G01X0099683Y-036911D01*
G01X0099694Y-036920D01*
G01X0099703Y-036931D01*
G01X0099709Y-036943D01*
G01X0099713Y-036957D01*
G01X0099715Y-036973D01*
G01X0099715Y-037210D01*
G01X0099713Y-037226D01*
G01X0099709Y-037240D01*
G01X0099703Y-037252D01*
G01X0099694Y-037263D01*
G01X0099683Y-037272D01*
G01X0099671Y-037278D01*
G01X0099657Y-037282D01*
G01X0099641Y-037284D01*
G01X0099375Y-037284D01*
G01X0099358Y-037282D01*
G01X0099345Y-037278D01*
G01X0099333Y-037272D01*
G01X0099322Y-037263D01*
G01X0099313Y-037252D01*
G01X0099306Y-037240D01*
G01X0099302Y-037226D01*
G01X0099301Y-037210D01*
G01X0099301Y-036973D01*
G01X0099302Y-036957D01*
G01X0099306Y-036943D01*
G01X0099313Y-036931D01*
G01X0099322Y-036920D01*
G01X0099333Y-036911D01*
G01X0099345Y-036905D01*
G01X0099358Y-036901D01*
G01X0099375Y-036899D01*
G01X0099641Y-036899D01*
G01X0099657Y-036901D01*
G01X0099657Y-036901D01*
G37*
G36*
G01X0100543Y-036901D02*
G01X0100557Y-036905D01*
G01X0100569Y-036911D01*
G01X0100580Y-036920D01*
G01X0100589Y-036931D01*
G01X0100595Y-036943D01*
G01X0100599Y-036957D01*
G01X0100601Y-036973D01*
G01X0100601Y-037210D01*
G01X0100599Y-037226D01*
G01X0100595Y-037240D01*
G01X0100589Y-037252D01*
G01X0100580Y-037263D01*
G01X0100569Y-037272D01*
G01X0100557Y-037278D01*
G01X0100543Y-037282D01*
G01X0100527Y-037284D01*
G01X0100261Y-037284D01*
G01X0100244Y-037282D01*
G01X0100231Y-037278D01*
G01X0100219Y-037272D01*
G01X0100208Y-037263D01*
G01X0100199Y-037252D01*
G01X0100192Y-037240D01*
G01X0100188Y-037226D01*
G01X0100187Y-037210D01*
G01X0100187Y-036973D01*
G01X0100188Y-036957D01*
G01X0100192Y-036943D01*
G01X0100199Y-036931D01*
G01X0100208Y-036920D01*
G01X0100219Y-036911D01*
G01X0100231Y-036905D01*
G01X0100244Y-036901D01*
G01X0100261Y-036899D01*
G01X0100527Y-036899D01*
G01X0100543Y-036901D01*
G01X0100543Y-036901D01*
G37*
G36*
G01X0082039Y-036901D02*
G01X0082053Y-036905D01*
G01X0082065Y-036911D01*
G01X0082076Y-036920D01*
G01X0082085Y-036931D01*
G01X0082091Y-036943D01*
G01X0082095Y-036957D01*
G01X0082097Y-036973D01*
G01X0082097Y-037210D01*
G01X0082095Y-037226D01*
G01X0082091Y-037240D01*
G01X0082085Y-037252D01*
G01X0082076Y-037263D01*
G01X0082065Y-037272D01*
G01X0082053Y-037278D01*
G01X0082039Y-037282D01*
G01X0082023Y-037284D01*
G01X0081757Y-037284D01*
G01X0081740Y-037282D01*
G01X0081727Y-037278D01*
G01X0081715Y-037272D01*
G01X0081704Y-037263D01*
G01X0081695Y-037252D01*
G01X0081688Y-037240D01*
G01X0081684Y-037226D01*
G01X0081683Y-037210D01*
G01X0081683Y-036973D01*
G01X0081684Y-036957D01*
G01X0081688Y-036943D01*
G01X0081695Y-036931D01*
G01X0081704Y-036920D01*
G01X0081715Y-036911D01*
G01X0081727Y-036905D01*
G01X0081740Y-036901D01*
G01X0081757Y-036899D01*
G01X0082023Y-036899D01*
G01X0082039Y-036901D01*
G01X0082039Y-036901D01*
G37*
G36*
G01X0074711Y-036753D02*
G01X0074726Y-036758D01*
G01X0074739Y-036765D01*
G01X0074751Y-036775D01*
G01X0074761Y-036786D01*
G01X0074768Y-036800D01*
G01X0074772Y-036814D01*
G01X0074774Y-036832D01*
G01X0074774Y-037184D01*
G01X0074772Y-037201D01*
G01X0074768Y-037216D01*
G01X0074761Y-037229D01*
G01X0074751Y-037241D01*
G01X0074739Y-037251D01*
G01X0074726Y-037258D01*
G01X0074711Y-037262D01*
G01X0074694Y-037264D01*
G01X0074125Y-037264D01*
G01X0074108Y-037262D01*
G01X0074093Y-037258D01*
G01X0074080Y-037251D01*
G01X0074068Y-037241D01*
G01X0074058Y-037229D01*
G01X0074051Y-037216D01*
G01X0074047Y-037201D01*
G01X0074045Y-037184D01*
G01X0074045Y-036832D01*
G01X0074047Y-036814D01*
G01X0074051Y-036800D01*
G01X0074058Y-036786D01*
G01X0074068Y-036775D01*
G01X0074080Y-036765D01*
G01X0074093Y-036758D01*
G01X0074108Y-036753D01*
G01X0074125Y-036752D01*
G01X0074694Y-036752D01*
G01X0074711Y-036753D01*
G01X0074711Y-036753D01*
G37*
G36*
G01X0090897Y-036832D02*
G01X0090911Y-036836D01*
G01X0090923Y-036843D01*
G01X0090934Y-036851D01*
G01X0090943Y-036862D01*
G01X0090949Y-036875D01*
G01X0090954Y-036888D01*
G01X0090955Y-036904D01*
G01X0090955Y-037141D01*
G01X0090954Y-037157D01*
G01X0090949Y-037171D01*
G01X0090943Y-037183D01*
G01X0090934Y-037194D01*
G01X0090923Y-037203D01*
G01X0090911Y-037209D01*
G01X0090897Y-037213D01*
G01X0090881Y-037215D01*
G01X0090615Y-037215D01*
G01X0090599Y-037213D01*
G01X0090585Y-037209D01*
G01X0090573Y-037203D01*
G01X0090562Y-037194D01*
G01X0090553Y-037183D01*
G01X0090547Y-037171D01*
G01X0090543Y-037157D01*
G01X0090541Y-037141D01*
G01X0090541Y-036904D01*
G01X0090543Y-036888D01*
G01X0090547Y-036875D01*
G01X0090553Y-036862D01*
G01X0090562Y-036851D01*
G01X0090573Y-036843D01*
G01X0090585Y-036836D01*
G01X0090599Y-036832D01*
G01X0090615Y-036830D01*
G01X0090881Y-036830D01*
G01X0090897Y-036832D01*
G01X0090897Y-036832D01*
G37*
G36*
G01X0090897Y-036212D02*
G01X0090911Y-036216D01*
G01X0090923Y-036222D01*
G01X0090934Y-036231D01*
G01X0090943Y-036242D01*
G01X0090949Y-036255D01*
G01X0090954Y-036268D01*
G01X0090955Y-036284D01*
G01X0090955Y-036521D01*
G01X0090954Y-036537D01*
G01X0090949Y-036551D01*
G01X0090943Y-036563D01*
G01X0090934Y-036574D01*
G01X0090923Y-036583D01*
G01X0090911Y-036589D01*
G01X0090897Y-036593D01*
G01X0090881Y-036595D01*
G01X0090615Y-036595D01*
G01X0090599Y-036593D01*
G01X0090585Y-036589D01*
G01X0090573Y-036583D01*
G01X0090562Y-036574D01*
G01X0090553Y-036563D01*
G01X0090547Y-036551D01*
G01X0090543Y-036537D01*
G01X0090541Y-036521D01*
G01X0090541Y-036284D01*
G01X0090543Y-036268D01*
G01X0090547Y-036255D01*
G01X0090553Y-036242D01*
G01X0090562Y-036231D01*
G01X0090573Y-036222D01*
G01X0090585Y-036216D01*
G01X0090599Y-036212D01*
G01X0090615Y-036210D01*
G01X0090881Y-036210D01*
G01X0090897Y-036212D01*
G01X0090897Y-036212D01*
G37*
G36*
G01X0081744Y-036045D02*
G01X0081757Y-036049D01*
G01X0081770Y-036055D01*
G01X0081780Y-036064D01*
G01X0081789Y-036075D01*
G01X0081796Y-036087D01*
G01X0081800Y-036101D01*
G01X0081802Y-036117D01*
G01X0081802Y-036354D01*
G01X0081800Y-036370D01*
G01X0081796Y-036383D01*
G01X0081789Y-036396D01*
G01X0081780Y-036406D01*
G01X0081770Y-036415D01*
G01X0081757Y-036422D01*
G01X0081744Y-036426D01*
G01X0081728Y-036428D01*
G01X0081461Y-036428D01*
G01X0081445Y-036426D01*
G01X0081432Y-036422D01*
G01X0081419Y-036415D01*
G01X0081409Y-036406D01*
G01X0081400Y-036396D01*
G01X0081393Y-036383D01*
G01X0081389Y-036370D01*
G01X0081387Y-036354D01*
G01X0081387Y-036117D01*
G01X0081389Y-036101D01*
G01X0081393Y-036087D01*
G01X0081400Y-036075D01*
G01X0081409Y-036064D01*
G01X0081419Y-036055D01*
G01X0081432Y-036049D01*
G01X0081445Y-036045D01*
G01X0081461Y-036043D01*
G01X0081728Y-036043D01*
G01X0081744Y-036045D01*
G01X0081744Y-036045D01*
G37*
G36*
G01X0082334Y-036045D02*
G01X0082348Y-036049D01*
G01X0082360Y-036055D01*
G01X0082371Y-036064D01*
G01X0082380Y-036075D01*
G01X0082386Y-036087D01*
G01X0082391Y-036101D01*
G01X0082392Y-036117D01*
G01X0082392Y-036354D01*
G01X0082391Y-036370D01*
G01X0082386Y-036383D01*
G01X0082380Y-036396D01*
G01X0082371Y-036406D01*
G01X0082360Y-036415D01*
G01X0082348Y-036422D01*
G01X0082334Y-036426D01*
G01X0082318Y-036428D01*
G01X0082052Y-036428D01*
G01X0082036Y-036426D01*
G01X0082022Y-036422D01*
G01X0082010Y-036415D01*
G01X0081999Y-036406D01*
G01X0081990Y-036396D01*
G01X0081984Y-036383D01*
G01X0081980Y-036370D01*
G01X0081978Y-036354D01*
G01X0081978Y-036117D01*
G01X0081980Y-036101D01*
G01X0081984Y-036087D01*
G01X0081990Y-036075D01*
G01X0081999Y-036064D01*
G01X0082010Y-036055D01*
G01X0082022Y-036049D01*
G01X0082036Y-036045D01*
G01X0082052Y-036043D01*
G01X0082318Y-036043D01*
G01X0082334Y-036045D01*
G01X0082334Y-036045D01*
G37*
G36*
G01X0091291Y-035454D02*
G01X0091305Y-035458D01*
G01X0091317Y-035465D01*
G01X0091328Y-035473D01*
G01X0091337Y-035484D01*
G01X0091343Y-035497D01*
G01X0091347Y-035510D01*
G01X0091349Y-035526D01*
G01X0091349Y-035763D01*
G01X0091347Y-035779D01*
G01X0091343Y-035793D01*
G01X0091337Y-035805D01*
G01X0091328Y-035816D01*
G01X0091317Y-035825D01*
G01X0091305Y-035831D01*
G01X0091291Y-035835D01*
G01X0091275Y-035837D01*
G01X0091009Y-035837D01*
G01X0090992Y-035835D01*
G01X0090979Y-035831D01*
G01X0090967Y-035825D01*
G01X0090956Y-035816D01*
G01X0090947Y-035805D01*
G01X0090940Y-035793D01*
G01X0090936Y-035779D01*
G01X0090935Y-035763D01*
G01X0090935Y-035526D01*
G01X0090936Y-035510D01*
G01X0090940Y-035497D01*
G01X0090947Y-035484D01*
G01X0090956Y-035473D01*
G01X0090967Y-035465D01*
G01X0090979Y-035458D01*
G01X0090992Y-035454D01*
G01X0091009Y-035452D01*
G01X0091275Y-035452D01*
G01X0091291Y-035454D01*
G01X0091291Y-035454D01*
G37*
G36*
G01X0090701Y-035454D02*
G01X0090714Y-035458D01*
G01X0090726Y-035465D01*
G01X0090737Y-035473D01*
G01X0090746Y-035484D01*
G01X0090753Y-035497D01*
G01X0090757Y-035510D01*
G01X0090758Y-035526D01*
G01X0090758Y-035763D01*
G01X0090757Y-035779D01*
G01X0090753Y-035793D01*
G01X0090746Y-035805D01*
G01X0090737Y-035816D01*
G01X0090726Y-035825D01*
G01X0090714Y-035831D01*
G01X0090701Y-035835D01*
G01X0090684Y-035837D01*
G01X0090418Y-035837D01*
G01X0090402Y-035835D01*
G01X0090388Y-035831D01*
G01X0090376Y-035825D01*
G01X0090365Y-035816D01*
G01X0090356Y-035805D01*
G01X0090350Y-035793D01*
G01X0090346Y-035779D01*
G01X0090344Y-035763D01*
G01X0090344Y-035526D01*
G01X0090346Y-035510D01*
G01X0090350Y-035497D01*
G01X0090356Y-035484D01*
G01X0090365Y-035473D01*
G01X0090376Y-035465D01*
G01X0090388Y-035458D01*
G01X0090402Y-035454D01*
G01X0090418Y-035452D01*
G01X0090684Y-035452D01*
G01X0090701Y-035454D01*
G01X0090701Y-035454D01*
G37*
G36*
G01X0082334Y-035424D02*
G01X0082348Y-035429D01*
G01X0082360Y-035435D01*
G01X0082371Y-035444D01*
G01X0082380Y-035455D01*
G01X0082386Y-035467D01*
G01X0082391Y-035480D01*
G01X0082392Y-035497D01*
G01X0082392Y-035734D01*
G01X0082391Y-035750D01*
G01X0082386Y-035763D01*
G01X0082380Y-035776D01*
G01X0082371Y-035786D01*
G01X0082360Y-035795D01*
G01X0082348Y-035802D01*
G01X0082334Y-035806D01*
G01X0082318Y-035807D01*
G01X0082052Y-035807D01*
G01X0082036Y-035806D01*
G01X0082022Y-035802D01*
G01X0082010Y-035795D01*
G01X0081999Y-035786D01*
G01X0081990Y-035776D01*
G01X0081984Y-035763D01*
G01X0081980Y-035750D01*
G01X0081978Y-035734D01*
G01X0081978Y-035497D01*
G01X0081980Y-035480D01*
G01X0081984Y-035467D01*
G01X0081990Y-035455D01*
G01X0081999Y-035444D01*
G01X0082010Y-035435D01*
G01X0082022Y-035429D01*
G01X0082036Y-035424D01*
G01X0082052Y-035423D01*
G01X0082318Y-035423D01*
G01X0082334Y-035424D01*
G01X0082334Y-035424D01*
G37*
G36*
G01X0081744Y-035424D02*
G01X0081757Y-035429D01*
G01X0081770Y-035435D01*
G01X0081780Y-035444D01*
G01X0081789Y-035455D01*
G01X0081796Y-035467D01*
G01X0081800Y-035480D01*
G01X0081802Y-035497D01*
G01X0081802Y-035734D01*
G01X0081800Y-035750D01*
G01X0081796Y-035763D01*
G01X0081789Y-035776D01*
G01X0081780Y-035786D01*
G01X0081770Y-035795D01*
G01X0081757Y-035802D01*
G01X0081744Y-035806D01*
G01X0081728Y-035807D01*
G01X0081461Y-035807D01*
G01X0081445Y-035806D01*
G01X0081432Y-035802D01*
G01X0081419Y-035795D01*
G01X0081409Y-035786D01*
G01X0081400Y-035776D01*
G01X0081393Y-035763D01*
G01X0081389Y-035750D01*
G01X0081387Y-035734D01*
G01X0081387Y-035497D01*
G01X0081389Y-035480D01*
G01X0081393Y-035467D01*
G01X0081400Y-035455D01*
G01X0081409Y-035444D01*
G01X0081419Y-035435D01*
G01X0081432Y-035429D01*
G01X0081445Y-035424D01*
G01X0081461Y-035423D01*
G01X0081728Y-035423D01*
G01X0081744Y-035424D01*
G01X0081744Y-035424D01*
G37*
G36*
G01X0097953Y-035493D02*
G01X0097519Y-035493D01*
G01X0097519Y-034212D01*
G01X0097953Y-034212D01*
G01X0097953Y-035493D01*
G01X0097953Y-035493D01*
G37*
G36*
G01X0098953Y-035493D02*
G01X0098519Y-035493D01*
G01X0098519Y-034212D01*
G01X0098953Y-034212D01*
G01X0098953Y-035493D01*
G01X0098953Y-035493D01*
G37*
G36*
G01X0099953Y-035493D02*
G01X0099519Y-035493D01*
G01X0099519Y-034212D01*
G01X0099953Y-034212D01*
G01X0099953Y-035493D01*
G01X0099953Y-035493D01*
G37*
G36*
G01X0095953Y-035493D02*
G01X0095519Y-035493D01*
G01X0095519Y-034212D01*
G01X0095953Y-034212D01*
G01X0095953Y-035493D01*
G01X0095953Y-035493D01*
G37*
G36*
G01X0096953Y-035493D02*
G01X0096519Y-035493D01*
G01X0096519Y-034212D01*
G01X0096953Y-034212D01*
G01X0096953Y-035493D01*
G01X0096953Y-035493D01*
G37*
G36*
G01X0091291Y-034834D02*
G01X0091305Y-034838D01*
G01X0091317Y-034845D01*
G01X0091328Y-034853D01*
G01X0091337Y-034864D01*
G01X0091343Y-034877D01*
G01X0091347Y-034890D01*
G01X0091349Y-034906D01*
G01X0091349Y-035143D01*
G01X0091347Y-035159D01*
G01X0091343Y-035173D01*
G01X0091337Y-035185D01*
G01X0091328Y-035196D01*
G01X0091317Y-035205D01*
G01X0091305Y-035211D01*
G01X0091291Y-035215D01*
G01X0091275Y-035217D01*
G01X0091009Y-035217D01*
G01X0090992Y-035215D01*
G01X0090979Y-035211D01*
G01X0090967Y-035205D01*
G01X0090956Y-035196D01*
G01X0090947Y-035185D01*
G01X0090940Y-035173D01*
G01X0090936Y-035159D01*
G01X0090935Y-035143D01*
G01X0090935Y-034906D01*
G01X0090936Y-034890D01*
G01X0090940Y-034877D01*
G01X0090947Y-034864D01*
G01X0090956Y-034853D01*
G01X0090967Y-034845D01*
G01X0090979Y-034838D01*
G01X0090992Y-034834D01*
G01X0091009Y-034832D01*
G01X0091275Y-034832D01*
G01X0091291Y-034834D01*
G01X0091291Y-034834D01*
G37*
G36*
G01X0090701Y-034834D02*
G01X0090714Y-034838D01*
G01X0090726Y-034845D01*
G01X0090737Y-034853D01*
G01X0090746Y-034864D01*
G01X0090753Y-034877D01*
G01X0090757Y-034890D01*
G01X0090758Y-034906D01*
G01X0090758Y-035143D01*
G01X0090757Y-035159D01*
G01X0090753Y-035173D01*
G01X0090746Y-035185D01*
G01X0090737Y-035196D01*
G01X0090726Y-035205D01*
G01X0090714Y-035211D01*
G01X0090701Y-035215D01*
G01X0090684Y-035217D01*
G01X0090418Y-035217D01*
G01X0090402Y-035215D01*
G01X0090388Y-035211D01*
G01X0090376Y-035205D01*
G01X0090365Y-035196D01*
G01X0090356Y-035185D01*
G01X0090350Y-035173D01*
G01X0090346Y-035159D01*
G01X0090344Y-035143D01*
G01X0090344Y-034906D01*
G01X0090346Y-034890D01*
G01X0090350Y-034877D01*
G01X0090356Y-034864D01*
G01X0090365Y-034853D01*
G01X0090376Y-034845D01*
G01X0090388Y-034838D01*
G01X0090402Y-034834D01*
G01X0090418Y-034832D01*
G01X0090684Y-034832D01*
G01X0090701Y-034834D01*
G01X0090701Y-034834D01*
G37*
G36*
G01X0073279Y-033289D02*
G01X0073293Y-033293D01*
G01X0073305Y-033299D01*
G01X0073316Y-033308D01*
G01X0073325Y-033319D01*
G01X0073331Y-033331D01*
G01X0073335Y-033345D01*
G01X0073337Y-033361D01*
G01X0073337Y-033598D01*
G01X0073335Y-033614D01*
G01X0073331Y-033627D01*
G01X0073325Y-033640D01*
G01X0073316Y-033651D01*
G01X0073305Y-033659D01*
G01X0073293Y-033666D01*
G01X0073279Y-033670D01*
G01X0073263Y-033672D01*
G01X0072997Y-033672D01*
G01X0072980Y-033670D01*
G01X0072967Y-033666D01*
G01X0072955Y-033659D01*
G01X0072944Y-033651D01*
G01X0072935Y-033640D01*
G01X0072929Y-033627D01*
G01X0072924Y-033614D01*
G01X0072923Y-033598D01*
G01X0072923Y-033361D01*
G01X0072924Y-033345D01*
G01X0072929Y-033331D01*
G01X0072935Y-033319D01*
G01X0072944Y-033308D01*
G01X0072955Y-033299D01*
G01X0072967Y-033293D01*
G01X0072980Y-033289D01*
G01X0072997Y-033287D01*
G01X0073263Y-033287D01*
G01X0073279Y-033289D01*
G01X0073279Y-033289D01*
G37*
G36*
G01X0072098Y-033289D02*
G01X0072112Y-033293D01*
G01X0072124Y-033299D01*
G01X0072135Y-033308D01*
G01X0072144Y-033319D01*
G01X0072150Y-033331D01*
G01X0072154Y-033345D01*
G01X0072156Y-033361D01*
G01X0072156Y-033598D01*
G01X0072154Y-033614D01*
G01X0072150Y-033627D01*
G01X0072144Y-033640D01*
G01X0072135Y-033651D01*
G01X0072124Y-033659D01*
G01X0072112Y-033666D01*
G01X0072098Y-033670D01*
G01X0072082Y-033672D01*
G01X0071816Y-033672D01*
G01X0071799Y-033670D01*
G01X0071786Y-033666D01*
G01X0071774Y-033659D01*
G01X0071763Y-033651D01*
G01X0071754Y-033640D01*
G01X0071747Y-033627D01*
G01X0071743Y-033614D01*
G01X0071742Y-033598D01*
G01X0071742Y-033361D01*
G01X0071743Y-033345D01*
G01X0071747Y-033331D01*
G01X0071754Y-033319D01*
G01X0071763Y-033308D01*
G01X0071774Y-033299D01*
G01X0071786Y-033293D01*
G01X0071799Y-033289D01*
G01X0071816Y-033287D01*
G01X0072082Y-033287D01*
G01X0072098Y-033289D01*
G01X0072098Y-033289D01*
G37*
G36*
G01X0096953Y-033504D02*
G01X0096519Y-033504D01*
G01X0096519Y-032224D01*
G01X0096953Y-032224D01*
G01X0096953Y-033504D01*
G01X0096953Y-033504D01*
G37*
G36*
G01X0097953Y-033504D02*
G01X0097519Y-033504D01*
G01X0097519Y-032224D01*
G01X0097953Y-032224D01*
G01X0097953Y-033504D01*
G01X0097953Y-033504D01*
G37*
G36*
G01X0099953Y-033504D02*
G01X0099519Y-033504D01*
G01X0099519Y-032224D01*
G01X0099953Y-032224D01*
G01X0099953Y-033504D01*
G01X0099953Y-033504D01*
G37*
G36*
G01X0098953Y-033504D02*
G01X0098519Y-033504D01*
G01X0098519Y-032224D01*
G01X0098953Y-032224D01*
G01X0098953Y-033504D01*
G01X0098953Y-033504D01*
G37*
G36*
G01X0095953Y-033504D02*
G01X0095519Y-033504D01*
G01X0095519Y-032224D01*
G01X0095953Y-032224D01*
G01X0095953Y-033504D01*
G01X0095953Y-033504D01*
G37*
G36*
G01X0072098Y-032669D02*
G01X0072112Y-032673D01*
G01X0072124Y-032679D01*
G01X0072135Y-032688D01*
G01X0072144Y-032699D01*
G01X0072150Y-032711D01*
G01X0072154Y-032725D01*
G01X0072156Y-032741D01*
G01X0072156Y-032978D01*
G01X0072154Y-032994D01*
G01X0072150Y-033007D01*
G01X0072144Y-033020D01*
G01X0072135Y-033030D01*
G01X0072124Y-033039D01*
G01X0072112Y-033046D01*
G01X0072098Y-033050D01*
G01X0072082Y-033052D01*
G01X0071816Y-033052D01*
G01X0071799Y-033050D01*
G01X0071786Y-033046D01*
G01X0071774Y-033039D01*
G01X0071763Y-033030D01*
G01X0071754Y-033020D01*
G01X0071747Y-033007D01*
G01X0071743Y-032994D01*
G01X0071742Y-032978D01*
G01X0071742Y-032741D01*
G01X0071743Y-032725D01*
G01X0071747Y-032711D01*
G01X0071754Y-032699D01*
G01X0071763Y-032688D01*
G01X0071774Y-032679D01*
G01X0071786Y-032673D01*
G01X0071799Y-032669D01*
G01X0071816Y-032667D01*
G01X0072082Y-032667D01*
G01X0072098Y-032669D01*
G01X0072098Y-032669D01*
G37*
G36*
G01X0073279Y-032669D02*
G01X0073293Y-032673D01*
G01X0073305Y-032679D01*
G01X0073316Y-032688D01*
G01X0073325Y-032699D01*
G01X0073331Y-032711D01*
G01X0073335Y-032725D01*
G01X0073337Y-032741D01*
G01X0073337Y-032978D01*
G01X0073335Y-032994D01*
G01X0073331Y-033007D01*
G01X0073325Y-033020D01*
G01X0073316Y-033030D01*
G01X0073305Y-033039D01*
G01X0073293Y-033046D01*
G01X0073279Y-033050D01*
G01X0073263Y-033052D01*
G01X0072997Y-033052D01*
G01X0072980Y-033050D01*
G01X0072967Y-033046D01*
G01X0072955Y-033039D01*
G01X0072944Y-033030D01*
G01X0072935Y-033020D01*
G01X0072929Y-033007D01*
G01X0072924Y-032994D01*
G01X0072923Y-032978D01*
G01X0072923Y-032741D01*
G01X0072924Y-032725D01*
G01X0072929Y-032711D01*
G01X0072935Y-032699D01*
G01X0072944Y-032688D01*
G01X0072955Y-032679D01*
G01X0072967Y-032673D01*
G01X0072980Y-032669D01*
G01X0072997Y-032667D01*
G01X0073263Y-032667D01*
G01X0073279Y-032669D01*
G01X0073279Y-032669D01*
G37*
G36*
G01X0082835Y-031969D02*
G01X0082126Y-031969D01*
G01X0082126Y-031417D01*
G01X0082835Y-031417D01*
G01X0082835Y-031969D01*
G01X0082835Y-031969D01*
G37*
G36*
G01X0076134Y-031851D02*
G01X0075700Y-031851D01*
G01X0075700Y-030570D01*
G01X0076134Y-030570D01*
G01X0076134Y-031851D01*
G01X0076134Y-031851D01*
G37*
G36*
G01X0072134Y-031851D02*
G01X0071700Y-031851D01*
G01X0071700Y-030570D01*
G01X0072134Y-030570D01*
G01X0072134Y-031851D01*
G01X0072134Y-031851D01*
G37*
G36*
G01X0074134Y-031851D02*
G01X0073700Y-031851D01*
G01X0073700Y-030570D01*
G01X0074134Y-030570D01*
G01X0074134Y-031851D01*
G01X0074134Y-031851D01*
G37*
G36*
G01X0073134Y-031851D02*
G01X0072700Y-031851D01*
G01X0072700Y-030570D01*
G01X0073134Y-030570D01*
G01X0073134Y-031851D01*
G01X0073134Y-031851D01*
G37*
G36*
G01X0075134Y-031851D02*
G01X0074700Y-031851D01*
G01X0074700Y-030570D01*
G01X0075134Y-030570D01*
G01X0075134Y-031851D01*
G01X0075134Y-031851D01*
G37*
G36*
G01X0082835Y-030591D02*
G01X0082126Y-030591D01*
G01X0082126Y-030039D01*
G01X0082835Y-030039D01*
G01X0082835Y-030591D01*
G01X0082835Y-030591D01*
G37*
G36*
G01X0078972Y-029371D02*
G01X0078997Y-029373D01*
G01X0079033Y-029384D01*
G01X0079045Y-029388D01*
G01X0079090Y-029412D01*
G01X0079129Y-029444D01*
G01X0079161Y-029483D01*
G01X0079185Y-029527D01*
G01X0079185Y-029527D01*
G01X0079199Y-029576D01*
G01X0079204Y-029626D01*
G01X0079199Y-029676D01*
G01X0079189Y-029712D01*
G01X0079185Y-029725D01*
G01X0079161Y-029769D01*
G01X0079129Y-029808D01*
G01X0079090Y-029840D01*
G01X0079045Y-029864D01*
G01X0079033Y-029868D01*
G01X0078997Y-029879D01*
G01X0078972Y-029881D01*
G01X0078959Y-029882D01*
G01X0078718Y-029882D01*
G01X0078705Y-029881D01*
G01X0078680Y-029879D01*
G01X0078644Y-029868D01*
G01X0078632Y-029864D01*
G01X0078587Y-029840D01*
G01X0078548Y-029808D01*
G01X0078516Y-029769D01*
G01X0078492Y-029725D01*
G01X0078489Y-029712D01*
G01X0078478Y-029676D01*
G01X0078473Y-029626D01*
G01X0078478Y-029576D01*
G01X0078492Y-029527D01*
G01X0078492Y-029527D01*
G01X0078516Y-029483D01*
G01X0078548Y-029444D01*
G01X0078587Y-029412D01*
G01X0078632Y-029388D01*
G01X0078644Y-029384D01*
G01X0078680Y-029373D01*
G01X0078705Y-029371D01*
G01X0078718Y-029370D01*
G01X0078959Y-029370D01*
G01X0078972Y-029371D01*
G01X0078972Y-029371D01*
G37*
G36*
G01X0075134Y-029863D02*
G01X0074700Y-029863D01*
G01X0074700Y-028582D01*
G01X0075134Y-028582D01*
G01X0075134Y-029863D01*
G01X0075134Y-029863D01*
G37*
G36*
G01X0072134Y-029863D02*
G01X0071700Y-029863D01*
G01X0071700Y-028582D01*
G01X0072134Y-028582D01*
G01X0072134Y-029863D01*
G01X0072134Y-029863D01*
G37*
G36*
G01X0074134Y-029863D02*
G01X0073700Y-029863D01*
G01X0073700Y-028582D01*
G01X0074134Y-028582D01*
G01X0074134Y-029863D01*
G01X0074134Y-029863D01*
G37*
G36*
G01X0076134Y-029863D02*
G01X0075700Y-029863D01*
G01X0075700Y-028582D01*
G01X0076134Y-028582D01*
G01X0076134Y-029863D01*
G01X0076134Y-029863D01*
G37*
G36*
G01X0073134Y-029863D02*
G01X0072700Y-029863D01*
G01X0072700Y-028582D01*
G01X0073134Y-028582D01*
G01X0073134Y-029863D01*
G01X0073134Y-029863D01*
G37*
G36*
G01X0082728Y-029253D02*
G01X0082742Y-029257D01*
G01X0082754Y-029264D01*
G01X0082765Y-029273D01*
G01X0082774Y-029284D01*
G01X0082780Y-029296D01*
G01X0082784Y-029309D01*
G01X0082786Y-029326D01*
G01X0082786Y-029562D01*
G01X0082784Y-029579D01*
G01X0082780Y-029592D01*
G01X0082774Y-029604D01*
G01X0082765Y-029615D01*
G01X0082754Y-029624D01*
G01X0082742Y-029631D01*
G01X0082728Y-029635D01*
G01X0082712Y-029636D01*
G01X0082446Y-029636D01*
G01X0082429Y-029635D01*
G01X0082416Y-029631D01*
G01X0082404Y-029624D01*
G01X0082393Y-029615D01*
G01X0082384Y-029604D01*
G01X0082377Y-029592D01*
G01X0082373Y-029579D01*
G01X0082372Y-029562D01*
G01X0082372Y-029326D01*
G01X0082373Y-029309D01*
G01X0082377Y-029296D01*
G01X0082384Y-029284D01*
G01X0082393Y-029273D01*
G01X0082404Y-029264D01*
G01X0082416Y-029257D01*
G01X0082429Y-029253D01*
G01X0082446Y-029252D01*
G01X0082712Y-029252D01*
G01X0082728Y-029253D01*
G01X0082728Y-029253D01*
G37*
G36*
G01X0081547Y-029155D02*
G01X0081560Y-029159D01*
G01X0081573Y-029165D01*
G01X0081584Y-029174D01*
G01X0081592Y-029185D01*
G01X0081599Y-029197D01*
G01X0081603Y-029211D01*
G01X0081605Y-029227D01*
G01X0081605Y-029464D01*
G01X0081603Y-029480D01*
G01X0081599Y-029494D01*
G01X0081592Y-029506D01*
G01X0081584Y-029517D01*
G01X0081573Y-029526D01*
G01X0081560Y-029532D01*
G01X0081547Y-029536D01*
G01X0081531Y-029538D01*
G01X0081265Y-029538D01*
G01X0081248Y-029536D01*
G01X0081235Y-029532D01*
G01X0081222Y-029526D01*
G01X0081212Y-029517D01*
G01X0081203Y-029506D01*
G01X0081196Y-029494D01*
G01X0081192Y-029480D01*
G01X0081191Y-029464D01*
G01X0081191Y-029227D01*
G01X0081192Y-029211D01*
G01X0081196Y-029197D01*
G01X0081203Y-029185D01*
G01X0081212Y-029174D01*
G01X0081222Y-029165D01*
G01X0081235Y-029159D01*
G01X0081248Y-029155D01*
G01X0081265Y-029153D01*
G01X0081531Y-029153D01*
G01X0081547Y-029155D01*
G01X0081547Y-029155D01*
G37*
G36*
G01X0080843Y-028830D02*
G01X0080857Y-028834D01*
G01X0080869Y-028841D01*
G01X0080880Y-028849D01*
G01X0080889Y-028860D01*
G01X0080895Y-028873D01*
G01X0080899Y-028886D01*
G01X0080901Y-028902D01*
G01X0080901Y-029169D01*
G01X0080899Y-029185D01*
G01X0080895Y-029198D01*
G01X0080889Y-029211D01*
G01X0080880Y-029221D01*
G01X0080869Y-029230D01*
G01X0080857Y-029237D01*
G01X0080843Y-029241D01*
G01X0080827Y-029243D01*
G01X0080590Y-029243D01*
G01X0080574Y-029241D01*
G01X0080561Y-029237D01*
G01X0080548Y-029230D01*
G01X0080537Y-029221D01*
G01X0080529Y-029211D01*
G01X0080522Y-029198D01*
G01X0080518Y-029185D01*
G01X0080516Y-029169D01*
G01X0080516Y-028902D01*
G01X0080518Y-028886D01*
G01X0080522Y-028873D01*
G01X0080529Y-028860D01*
G01X0080537Y-028849D01*
G01X0080548Y-028841D01*
G01X0080561Y-028834D01*
G01X0080574Y-028830D01*
G01X0080590Y-028828D01*
G01X0080827Y-028828D01*
G01X0080843Y-028830D01*
G01X0080843Y-028830D01*
G37*
G36*
G01X0080223Y-028830D02*
G01X0080237Y-028834D01*
G01X0080249Y-028841D01*
G01X0080260Y-028849D01*
G01X0080269Y-028860D01*
G01X0080275Y-028873D01*
G01X0080279Y-028886D01*
G01X0080281Y-028902D01*
G01X0080281Y-029169D01*
G01X0080279Y-029185D01*
G01X0080275Y-029198D01*
G01X0080269Y-029211D01*
G01X0080260Y-029221D01*
G01X0080249Y-029230D01*
G01X0080237Y-029237D01*
G01X0080223Y-029241D01*
G01X0080207Y-029243D01*
G01X0079970Y-029243D01*
G01X0079954Y-029241D01*
G01X0079941Y-029237D01*
G01X0079928Y-029230D01*
G01X0079917Y-029221D01*
G01X0079909Y-029211D01*
G01X0079902Y-029198D01*
G01X0079898Y-029185D01*
G01X0079896Y-029169D01*
G01X0079896Y-028902D01*
G01X0079898Y-028886D01*
G01X0079902Y-028873D01*
G01X0079909Y-028860D01*
G01X0079917Y-028849D01*
G01X0079928Y-028841D01*
G01X0079941Y-028834D01*
G01X0079954Y-028830D01*
G01X0079970Y-028828D01*
G01X0080207Y-028828D01*
G01X0080223Y-028830D01*
G01X0080223Y-028830D01*
G37*
G36*
G01X0078972Y-028584D02*
G01X0078997Y-028586D01*
G01X0079033Y-028597D01*
G01X0079045Y-028601D01*
G01X0079090Y-028624D01*
G01X0079129Y-028656D01*
G01X0079161Y-028696D01*
G01X0079185Y-028740D01*
G01X0079185Y-028740D01*
G01X0079199Y-028788D01*
G01X0079204Y-028839D01*
G01X0079199Y-028889D01*
G01X0079192Y-028912D01*
G01X0079185Y-028937D01*
G01X0079161Y-028982D01*
G01X0079129Y-029021D01*
G01X0079090Y-029053D01*
G01X0079045Y-029077D01*
G01X0079033Y-029080D01*
G01X0078997Y-029091D01*
G01X0078972Y-029094D01*
G01X0078959Y-029095D01*
G01X0078718Y-029095D01*
G01X0078705Y-029094D01*
G01X0078680Y-029091D01*
G01X0078644Y-029080D01*
G01X0078632Y-029077D01*
G01X0078587Y-029053D01*
G01X0078548Y-029021D01*
G01X0078516Y-028982D01*
G01X0078492Y-028937D01*
G01X0078485Y-028912D01*
G01X0078478Y-028889D01*
G01X0078473Y-028839D01*
G01X0078478Y-028788D01*
G01X0078492Y-028740D01*
G01X0078492Y-028740D01*
G01X0078516Y-028696D01*
G01X0078548Y-028656D01*
G01X0078587Y-028624D01*
G01X0078632Y-028601D01*
G01X0078644Y-028597D01*
G01X0078680Y-028586D01*
G01X0078705Y-028584D01*
G01X0078718Y-028582D01*
G01X0078959Y-028582D01*
G01X0078972Y-028584D01*
G01X0078972Y-028584D01*
G37*
G36*
G01X0082728Y-028633D02*
G01X0082742Y-028637D01*
G01X0082754Y-028644D01*
G01X0082765Y-028653D01*
G01X0082774Y-028663D01*
G01X0082780Y-028676D01*
G01X0082784Y-028689D01*
G01X0082786Y-028705D01*
G01X0082786Y-028942D01*
G01X0082784Y-028959D01*
G01X0082780Y-028972D01*
G01X0082774Y-028984D01*
G01X0082765Y-028995D01*
G01X0082754Y-029004D01*
G01X0082742Y-029010D01*
G01X0082728Y-029015D01*
G01X0082712Y-029016D01*
G01X0082446Y-029016D01*
G01X0082429Y-029015D01*
G01X0082416Y-029010D01*
G01X0082404Y-029004D01*
G01X0082393Y-028995D01*
G01X0082384Y-028984D01*
G01X0082377Y-028972D01*
G01X0082373Y-028959D01*
G01X0082372Y-028942D01*
G01X0082372Y-028705D01*
G01X0082373Y-028689D01*
G01X0082377Y-028676D01*
G01X0082384Y-028663D01*
G01X0082393Y-028653D01*
G01X0082404Y-028644D01*
G01X0082416Y-028637D01*
G01X0082429Y-028633D01*
G01X0082446Y-028631D01*
G01X0082712Y-028631D01*
G01X0082728Y-028633D01*
G01X0082728Y-028633D01*
G37*
G36*
G01X0081547Y-028535D02*
G01X0081560Y-028539D01*
G01X0081573Y-028545D01*
G01X0081584Y-028554D01*
G01X0081592Y-028565D01*
G01X0081599Y-028577D01*
G01X0081603Y-028591D01*
G01X0081605Y-028607D01*
G01X0081605Y-028844D01*
G01X0081603Y-028860D01*
G01X0081599Y-028873D01*
G01X0081592Y-028886D01*
G01X0081584Y-028897D01*
G01X0081573Y-028905D01*
G01X0081560Y-028912D01*
G01X0081547Y-028916D01*
G01X0081531Y-028918D01*
G01X0081265Y-028918D01*
G01X0081248Y-028916D01*
G01X0081235Y-028912D01*
G01X0081222Y-028905D01*
G01X0081212Y-028897D01*
G01X0081203Y-028886D01*
G01X0081196Y-028873D01*
G01X0081192Y-028860D01*
G01X0081191Y-028844D01*
G01X0081191Y-028607D01*
G01X0081192Y-028591D01*
G01X0081196Y-028577D01*
G01X0081203Y-028565D01*
G01X0081212Y-028554D01*
G01X0081222Y-028545D01*
G01X0081235Y-028539D01*
G01X0081248Y-028535D01*
G01X0081265Y-028533D01*
G01X0081531Y-028533D01*
G01X0081547Y-028535D01*
G01X0081547Y-028535D01*
G37*
G36*
G01X0079140Y-027797D02*
G01X0079155Y-027801D01*
G01X0079168Y-027808D01*
G01X0079180Y-027818D01*
G01X0079190Y-027830D01*
G01X0079197Y-027843D01*
G01X0079201Y-027858D01*
G01X0079203Y-027875D01*
G01X0079203Y-028227D01*
G01X0079201Y-028245D01*
G01X0079197Y-028259D01*
G01X0079190Y-028273D01*
G01X0079180Y-028284D01*
G01X0079168Y-028294D01*
G01X0079155Y-028301D01*
G01X0079140Y-028306D01*
G01X0079123Y-028307D01*
G01X0078555Y-028307D01*
G01X0078537Y-028306D01*
G01X0078522Y-028301D01*
G01X0078509Y-028294D01*
G01X0078497Y-028284D01*
G01X0078487Y-028273D01*
G01X0078480Y-028259D01*
G01X0078476Y-028245D01*
G01X0078474Y-028227D01*
G01X0078474Y-027875D01*
G01X0078476Y-027858D01*
G01X0078480Y-027843D01*
G01X0078487Y-027830D01*
G01X0078497Y-027818D01*
G01X0078509Y-027808D01*
G01X0078522Y-027801D01*
G01X0078537Y-027797D01*
G01X0078555Y-027795D01*
G01X0079123Y-027795D01*
G01X0079140Y-027797D01*
G01X0079140Y-027797D01*
G37*
G36*
G01X0082728Y-027777D02*
G01X0082742Y-027781D01*
G01X0082754Y-027787D01*
G01X0082765Y-027796D01*
G01X0082774Y-027807D01*
G01X0082780Y-027819D01*
G01X0082784Y-027833D01*
G01X0082786Y-027849D01*
G01X0082786Y-028086D01*
G01X0082784Y-028102D01*
G01X0082780Y-028116D01*
G01X0082774Y-028128D01*
G01X0082765Y-028139D01*
G01X0082754Y-028148D01*
G01X0082742Y-028154D01*
G01X0082728Y-028158D01*
G01X0082712Y-028160D01*
G01X0082446Y-028160D01*
G01X0082429Y-028158D01*
G01X0082416Y-028154D01*
G01X0082404Y-028148D01*
G01X0082393Y-028139D01*
G01X0082384Y-028128D01*
G01X0082377Y-028116D01*
G01X0082373Y-028102D01*
G01X0082372Y-028086D01*
G01X0082372Y-027849D01*
G01X0082373Y-027833D01*
G01X0082377Y-027819D01*
G01X0082384Y-027807D01*
G01X0082393Y-027796D01*
G01X0082404Y-027787D01*
G01X0082416Y-027781D01*
G01X0082429Y-027777D01*
G01X0082446Y-027775D01*
G01X0082712Y-027775D01*
G01X0082728Y-027777D01*
G01X0082728Y-027777D01*
G37*
G36*
G01X0072984Y-027383D02*
G01X0072997Y-027387D01*
G01X0073010Y-027394D01*
G01X0073021Y-027403D01*
G01X0073029Y-027413D01*
G01X0073036Y-027426D01*
G01X0073040Y-027439D01*
G01X0073042Y-027455D01*
G01X0073042Y-027692D01*
G01X0073040Y-027709D01*
G01X0073036Y-027722D01*
G01X0073029Y-027734D01*
G01X0073021Y-027745D01*
G01X0073010Y-027754D01*
G01X0072997Y-027760D01*
G01X0072984Y-027765D01*
G01X0072968Y-027766D01*
G01X0072702Y-027766D01*
G01X0072685Y-027765D01*
G01X0072672Y-027760D01*
G01X0072659Y-027754D01*
G01X0072649Y-027745D01*
G01X0072640Y-027734D01*
G01X0072633Y-027722D01*
G01X0072629Y-027709D01*
G01X0072628Y-027692D01*
G01X0072628Y-027455D01*
G01X0072629Y-027439D01*
G01X0072633Y-027426D01*
G01X0072640Y-027413D01*
G01X0072649Y-027403D01*
G01X0072659Y-027394D01*
G01X0072672Y-027387D01*
G01X0072685Y-027383D01*
G01X0072702Y-027381D01*
G01X0072968Y-027381D01*
G01X0072984Y-027383D01*
G01X0072984Y-027383D01*
G37*
G36*
G01X0075248Y-027383D02*
G01X0075261Y-027387D01*
G01X0075274Y-027394D01*
G01X0075284Y-027403D01*
G01X0075293Y-027413D01*
G01X0075300Y-027426D01*
G01X0075304Y-027439D01*
G01X0075306Y-027455D01*
G01X0075306Y-027692D01*
G01X0075304Y-027709D01*
G01X0075300Y-027722D01*
G01X0075293Y-027734D01*
G01X0075284Y-027745D01*
G01X0075274Y-027754D01*
G01X0075261Y-027760D01*
G01X0075248Y-027765D01*
G01X0075232Y-027766D01*
G01X0074965Y-027766D01*
G01X0074949Y-027765D01*
G01X0074936Y-027760D01*
G01X0074923Y-027754D01*
G01X0074912Y-027745D01*
G01X0074904Y-027734D01*
G01X0074897Y-027722D01*
G01X0074893Y-027709D01*
G01X0074891Y-027692D01*
G01X0074891Y-027455D01*
G01X0074893Y-027439D01*
G01X0074897Y-027426D01*
G01X0074904Y-027413D01*
G01X0074912Y-027403D01*
G01X0074923Y-027394D01*
G01X0074936Y-027387D01*
G01X0074949Y-027383D01*
G01X0074965Y-027381D01*
G01X0075232Y-027381D01*
G01X0075248Y-027383D01*
G01X0075248Y-027383D01*
G37*
G36*
G01X0074067Y-027383D02*
G01X0074080Y-027387D01*
G01X0074092Y-027394D01*
G01X0074103Y-027403D01*
G01X0074112Y-027413D01*
G01X0074119Y-027426D01*
G01X0074123Y-027439D01*
G01X0074124Y-027455D01*
G01X0074124Y-027692D01*
G01X0074123Y-027709D01*
G01X0074119Y-027722D01*
G01X0074112Y-027734D01*
G01X0074103Y-027745D01*
G01X0074092Y-027754D01*
G01X0074080Y-027760D01*
G01X0074067Y-027765D01*
G01X0074050Y-027766D01*
G01X0073784Y-027766D01*
G01X0073768Y-027765D01*
G01X0073755Y-027760D01*
G01X0073742Y-027754D01*
G01X0073731Y-027745D01*
G01X0073722Y-027734D01*
G01X0073716Y-027722D01*
G01X0073712Y-027709D01*
G01X0073710Y-027692D01*
G01X0073710Y-027455D01*
G01X0073712Y-027439D01*
G01X0073716Y-027426D01*
G01X0073722Y-027413D01*
G01X0073731Y-027403D01*
G01X0073742Y-027394D01*
G01X0073755Y-027387D01*
G01X0073768Y-027383D01*
G01X0073784Y-027381D01*
G01X0074050Y-027381D01*
G01X0074067Y-027383D01*
G01X0074067Y-027383D01*
G37*
G36*
G01X0071705Y-027383D02*
G01X0071718Y-027387D01*
G01X0071730Y-027394D01*
G01X0071741Y-027403D01*
G01X0071750Y-027413D01*
G01X0071757Y-027426D01*
G01X0071761Y-027439D01*
G01X0071762Y-027455D01*
G01X0071762Y-027692D01*
G01X0071761Y-027709D01*
G01X0071757Y-027722D01*
G01X0071750Y-027734D01*
G01X0071741Y-027745D01*
G01X0071730Y-027754D01*
G01X0071718Y-027760D01*
G01X0071705Y-027765D01*
G01X0071688Y-027766D01*
G01X0071422Y-027766D01*
G01X0071406Y-027765D01*
G01X0071392Y-027760D01*
G01X0071380Y-027754D01*
G01X0071369Y-027745D01*
G01X0071360Y-027734D01*
G01X0071354Y-027722D01*
G01X0071350Y-027709D01*
G01X0071348Y-027692D01*
G01X0071348Y-027455D01*
G01X0071350Y-027439D01*
G01X0071354Y-027426D01*
G01X0071360Y-027413D01*
G01X0071369Y-027403D01*
G01X0071380Y-027394D01*
G01X0071392Y-027387D01*
G01X0071406Y-027383D01*
G01X0071422Y-027381D01*
G01X0071688Y-027381D01*
G01X0071705Y-027383D01*
G01X0071705Y-027383D01*
G37*
G36*
G01X0082728Y-027157D02*
G01X0082742Y-027161D01*
G01X0082754Y-027167D01*
G01X0082765Y-027176D01*
G01X0082774Y-027187D01*
G01X0082780Y-027199D01*
G01X0082784Y-027213D01*
G01X0082786Y-027229D01*
G01X0082786Y-027466D01*
G01X0082784Y-027482D01*
G01X0082780Y-027495D01*
G01X0082774Y-027508D01*
G01X0082765Y-027519D01*
G01X0082754Y-027528D01*
G01X0082742Y-027534D01*
G01X0082728Y-027538D01*
G01X0082712Y-027540D01*
G01X0082446Y-027540D01*
G01X0082429Y-027538D01*
G01X0082416Y-027534D01*
G01X0082404Y-027528D01*
G01X0082393Y-027519D01*
G01X0082384Y-027508D01*
G01X0082377Y-027495D01*
G01X0082373Y-027482D01*
G01X0082372Y-027466D01*
G01X0082372Y-027229D01*
G01X0082373Y-027213D01*
G01X0082377Y-027199D01*
G01X0082384Y-027187D01*
G01X0082393Y-027176D01*
G01X0082404Y-027167D01*
G01X0082416Y-027161D01*
G01X0082429Y-027157D01*
G01X0082446Y-027155D01*
G01X0082712Y-027155D01*
G01X0082728Y-027157D01*
G01X0082728Y-027157D01*
G37*
G36*
G01X0072984Y-026763D02*
G01X0072997Y-026767D01*
G01X0073010Y-026774D01*
G01X0073021Y-026783D01*
G01X0073029Y-026793D01*
G01X0073036Y-026806D01*
G01X0073040Y-026819D01*
G01X0073042Y-026835D01*
G01X0073042Y-027072D01*
G01X0073040Y-027088D01*
G01X0073036Y-027102D01*
G01X0073029Y-027114D01*
G01X0073021Y-027125D01*
G01X0073010Y-027134D01*
G01X0072997Y-027140D01*
G01X0072984Y-027144D01*
G01X0072968Y-027146D01*
G01X0072702Y-027146D01*
G01X0072685Y-027144D01*
G01X0072672Y-027140D01*
G01X0072659Y-027134D01*
G01X0072649Y-027125D01*
G01X0072640Y-027114D01*
G01X0072633Y-027102D01*
G01X0072629Y-027088D01*
G01X0072628Y-027072D01*
G01X0072628Y-026835D01*
G01X0072629Y-026819D01*
G01X0072633Y-026806D01*
G01X0072640Y-026793D01*
G01X0072649Y-026783D01*
G01X0072659Y-026774D01*
G01X0072672Y-026767D01*
G01X0072685Y-026763D01*
G01X0072702Y-026761D01*
G01X0072968Y-026761D01*
G01X0072984Y-026763D01*
G01X0072984Y-026763D01*
G37*
G36*
G01X0075248Y-026763D02*
G01X0075261Y-026767D01*
G01X0075274Y-026774D01*
G01X0075284Y-026783D01*
G01X0075293Y-026793D01*
G01X0075300Y-026806D01*
G01X0075304Y-026819D01*
G01X0075306Y-026835D01*
G01X0075306Y-027072D01*
G01X0075304Y-027088D01*
G01X0075300Y-027102D01*
G01X0075293Y-027114D01*
G01X0075284Y-027125D01*
G01X0075274Y-027134D01*
G01X0075261Y-027140D01*
G01X0075248Y-027144D01*
G01X0075232Y-027146D01*
G01X0074965Y-027146D01*
G01X0074949Y-027144D01*
G01X0074936Y-027140D01*
G01X0074923Y-027134D01*
G01X0074912Y-027125D01*
G01X0074904Y-027114D01*
G01X0074897Y-027102D01*
G01X0074893Y-027088D01*
G01X0074891Y-027072D01*
G01X0074891Y-026835D01*
G01X0074893Y-026819D01*
G01X0074897Y-026806D01*
G01X0074904Y-026793D01*
G01X0074912Y-026783D01*
G01X0074923Y-026774D01*
G01X0074936Y-026767D01*
G01X0074949Y-026763D01*
G01X0074965Y-026761D01*
G01X0075232Y-026761D01*
G01X0075248Y-026763D01*
G01X0075248Y-026763D01*
G37*
G36*
G01X0074067Y-026763D02*
G01X0074080Y-026767D01*
G01X0074092Y-026774D01*
G01X0074103Y-026783D01*
G01X0074112Y-026793D01*
G01X0074119Y-026806D01*
G01X0074123Y-026819D01*
G01X0074124Y-026835D01*
G01X0074124Y-027072D01*
G01X0074123Y-027088D01*
G01X0074119Y-027102D01*
G01X0074112Y-027114D01*
G01X0074103Y-027125D01*
G01X0074092Y-027134D01*
G01X0074080Y-027140D01*
G01X0074067Y-027144D01*
G01X0074050Y-027146D01*
G01X0073784Y-027146D01*
G01X0073768Y-027144D01*
G01X0073755Y-027140D01*
G01X0073742Y-027134D01*
G01X0073731Y-027125D01*
G01X0073722Y-027114D01*
G01X0073716Y-027102D01*
G01X0073712Y-027088D01*
G01X0073710Y-027072D01*
G01X0073710Y-026835D01*
G01X0073712Y-026819D01*
G01X0073716Y-026806D01*
G01X0073722Y-026793D01*
G01X0073731Y-026783D01*
G01X0073742Y-026774D01*
G01X0073755Y-026767D01*
G01X0073768Y-026763D01*
G01X0073784Y-026761D01*
G01X0074050Y-026761D01*
G01X0074067Y-026763D01*
G01X0074067Y-026763D01*
G37*
G36*
G01X0071705Y-026763D02*
G01X0071718Y-026767D01*
G01X0071730Y-026774D01*
G01X0071741Y-026783D01*
G01X0071750Y-026793D01*
G01X0071757Y-026806D01*
G01X0071761Y-026819D01*
G01X0071762Y-026835D01*
G01X0071762Y-027072D01*
G01X0071761Y-027088D01*
G01X0071757Y-027102D01*
G01X0071750Y-027114D01*
G01X0071741Y-027125D01*
G01X0071730Y-027134D01*
G01X0071718Y-027140D01*
G01X0071705Y-027144D01*
G01X0071688Y-027146D01*
G01X0071422Y-027146D01*
G01X0071406Y-027144D01*
G01X0071392Y-027140D01*
G01X0071380Y-027134D01*
G01X0071369Y-027125D01*
G01X0071360Y-027114D01*
G01X0071354Y-027102D01*
G01X0071350Y-027088D01*
G01X0071348Y-027072D01*
G01X0071348Y-026835D01*
G01X0071350Y-026819D01*
G01X0071354Y-026806D01*
G01X0071360Y-026793D01*
G01X0071369Y-026783D01*
G01X0071380Y-026774D01*
G01X0071392Y-026767D01*
G01X0071406Y-026763D01*
G01X0071422Y-026761D01*
G01X0071688Y-026761D01*
G01X0071705Y-026763D01*
G01X0071705Y-026763D01*
G37*
G36*
G01X0080829Y-026566D02*
G01X0080842Y-026570D01*
G01X0080854Y-026577D01*
G01X0080865Y-026586D01*
G01X0080874Y-026596D01*
G01X0080881Y-026609D01*
G01X0080885Y-026622D01*
G01X0080886Y-026639D01*
G01X0080886Y-026905D01*
G01X0080885Y-026921D01*
G01X0080881Y-026934D01*
G01X0080874Y-026947D01*
G01X0080865Y-026958D01*
G01X0080854Y-026966D01*
G01X0080842Y-026973D01*
G01X0080829Y-026977D01*
G01X0080812Y-026979D01*
G01X0080576Y-026979D01*
G01X0080559Y-026977D01*
G01X0080546Y-026973D01*
G01X0080534Y-026966D01*
G01X0080523Y-026958D01*
G01X0080514Y-026947D01*
G01X0080507Y-026934D01*
G01X0080503Y-026921D01*
G01X0080502Y-026905D01*
G01X0080502Y-026639D01*
G01X0080503Y-026622D01*
G01X0080507Y-026609D01*
G01X0080514Y-026596D01*
G01X0080523Y-026586D01*
G01X0080534Y-026577D01*
G01X0080546Y-026570D01*
G01X0080559Y-026566D01*
G01X0080576Y-026565D01*
G01X0080812Y-026565D01*
G01X0080829Y-026566D01*
G01X0080829Y-026566D01*
G37*
G36*
G01X0081449Y-026566D02*
G01X0081462Y-026570D01*
G01X0081474Y-026577D01*
G01X0081485Y-026586D01*
G01X0081494Y-026596D01*
G01X0081501Y-026609D01*
G01X0081505Y-026622D01*
G01X0081506Y-026639D01*
G01X0081506Y-026905D01*
G01X0081505Y-026921D01*
G01X0081501Y-026934D01*
G01X0081494Y-026947D01*
G01X0081485Y-026958D01*
G01X0081474Y-026966D01*
G01X0081462Y-026973D01*
G01X0081449Y-026977D01*
G01X0081432Y-026979D01*
G01X0081196Y-026979D01*
G01X0081179Y-026977D01*
G01X0081166Y-026973D01*
G01X0081154Y-026966D01*
G01X0081143Y-026958D01*
G01X0081134Y-026947D01*
G01X0081127Y-026934D01*
G01X0081123Y-026921D01*
G01X0081122Y-026905D01*
G01X0081122Y-026639D01*
G01X0081123Y-026622D01*
G01X0081127Y-026609D01*
G01X0081134Y-026596D01*
G01X0081143Y-026586D01*
G01X0081154Y-026577D01*
G01X0081166Y-026570D01*
G01X0081179Y-026566D01*
G01X0081196Y-026565D01*
G01X0081432Y-026565D01*
G01X0081449Y-026566D01*
G01X0081449Y-026566D01*
G37*
G36*
G01X0079549Y-026566D02*
G01X0079562Y-026570D01*
G01X0079575Y-026577D01*
G01X0079586Y-026586D01*
G01X0079594Y-026596D01*
G01X0079601Y-026609D01*
G01X0079605Y-026622D01*
G01X0079607Y-026639D01*
G01X0079607Y-026905D01*
G01X0079605Y-026921D01*
G01X0079601Y-026934D01*
G01X0079594Y-026947D01*
G01X0079586Y-026958D01*
G01X0079575Y-026966D01*
G01X0079562Y-026973D01*
G01X0079549Y-026977D01*
G01X0079533Y-026979D01*
G01X0079296Y-026979D01*
G01X0079280Y-026977D01*
G01X0079266Y-026973D01*
G01X0079254Y-026966D01*
G01X0079243Y-026958D01*
G01X0079234Y-026947D01*
G01X0079228Y-026934D01*
G01X0079224Y-026921D01*
G01X0079222Y-026905D01*
G01X0079222Y-026639D01*
G01X0079224Y-026622D01*
G01X0079228Y-026609D01*
G01X0079234Y-026596D01*
G01X0079243Y-026586D01*
G01X0079254Y-026577D01*
G01X0079266Y-026570D01*
G01X0079280Y-026566D01*
G01X0079296Y-026565D01*
G01X0079533Y-026565D01*
G01X0079549Y-026566D01*
G01X0079549Y-026566D01*
G37*
G36*
G01X0080169Y-026566D02*
G01X0080183Y-026570D01*
G01X0080195Y-026577D01*
G01X0080206Y-026586D01*
G01X0080215Y-026596D01*
G01X0080221Y-026609D01*
G01X0080225Y-026622D01*
G01X0080227Y-026639D01*
G01X0080227Y-026905D01*
G01X0080225Y-026921D01*
G01X0080221Y-026934D01*
G01X0080215Y-026947D01*
G01X0080206Y-026958D01*
G01X0080195Y-026966D01*
G01X0080183Y-026973D01*
G01X0080169Y-026977D01*
G01X0080153Y-026979D01*
G01X0079916Y-026979D01*
G01X0079900Y-026977D01*
G01X0079886Y-026973D01*
G01X0079874Y-026966D01*
G01X0079863Y-026958D01*
G01X0079854Y-026947D01*
G01X0079848Y-026934D01*
G01X0079844Y-026921D01*
G01X0079842Y-026905D01*
G01X0079842Y-026639D01*
G01X0079844Y-026622D01*
G01X0079848Y-026609D01*
G01X0079854Y-026596D01*
G01X0079863Y-026586D01*
G01X0079874Y-026577D01*
G01X0079886Y-026570D01*
G01X0079900Y-026566D01*
G01X0079916Y-026565D01*
G01X0080153Y-026565D01*
G01X0080169Y-026566D01*
G01X0080169Y-026566D01*
G37*
G36*
G01X0088045Y-023449D02*
G01X0088169Y-023474D01*
G01X0088402Y-023570D01*
G01X0088611Y-023711D01*
G01X0088789Y-023889D01*
G01X0088930Y-024098D01*
G01X0089026Y-024331D01*
G01X0089026Y-024331D01*
G01X0089075Y-024579D01*
G01X0089075Y-024831D01*
G01X0089051Y-024954D01*
G01X0089026Y-025078D01*
G01X0088930Y-025311D01*
G01X0088789Y-025521D01*
G01X0088611Y-025699D01*
G01X0088402Y-025839D01*
G01X0088169Y-025935D01*
G01X0088045Y-025960D01*
G01X0087921Y-025985D01*
G01X0087669Y-025985D01*
G01X0087546Y-025960D01*
G01X0087422Y-025935D01*
G01X0087189Y-025839D01*
G01X0086979Y-025699D01*
G01X0086801Y-025521D01*
G01X0086661Y-025311D01*
G01X0086565Y-025078D01*
G01X0086540Y-024954D01*
G01X0086515Y-024831D01*
G01X0086515Y-024579D01*
G01X0086565Y-024331D01*
G01X0086565Y-024331D01*
G01X0086661Y-024098D01*
G01X0086801Y-023889D01*
G01X0086979Y-023711D01*
G01X0087189Y-023570D01*
G01X0087422Y-023474D01*
G01X0087546Y-023449D01*
G01X0087669Y-023425D01*
G01X0087921Y-023425D01*
G01X0088045Y-023449D01*
G01X0088045Y-023449D01*
G37*
M02*
