M48
INCH,TZ
T10C0.008
T11C0.016
T12C0.020
T13C0.026
T14C0.029
T15C0.126
T16C0.158
T17C0.039
%
T10
X071555Y-26870
X071555Y-33858
X071949Y-27559
X072047Y-27264
X072362Y-34154
X073622Y-26752
X075591Y-44094
X076772Y-40748
X076772Y-41083
X077165Y-31201
X080610Y-36713
X081299Y-36516
X081398Y-37795
X082185Y-35236
X082382Y-36516
X082776Y-36713
X084646Y-39272
X085925Y-44882
X086614Y-40157
X087008Y-43701
X087106Y-45571
X087205Y-44882
X087219Y-43595
X087697Y-49705
X087894Y-39862
X087894Y-49902
X088484Y-39862
X089075Y-42520
X089075Y-43602
X089272Y-41831
X089272Y-42421
X089370Y-35728
X090354Y-35925
X090354Y-37106
X090846Y-34843
X090846Y-43406
X090935Y-45197
X091142Y-36319
X091142Y-41634
X091339Y-35925
X091339Y-51476
X091437Y-51969
X091535Y-34449
X092520Y-43307
X092618Y-41535
X092618Y-42126
X092618Y-45669
X093110Y-43406
X095669Y-43602
X096260Y-35335
X096457Y-44291
X096850Y-42815
X096890Y-44480
X097047Y-49606
X097146Y-42421
X097244Y-34547
X097441Y-36713
X097835Y-49606
X098130Y-49606
X098327Y-36713
X098425Y-43602
X098425Y-49606
X098524Y-42126
X098622Y-34035
X098720Y-49606
X099114Y-37795
X099508Y-35531
X099902Y-37008
X100394Y-36693
X100591Y-42126
T11
X071752Y-44094
X071752Y-47638
X071752Y-49311
X073031Y-34350
X075098Y-44094
X075295Y-47638
X075886Y-28248
X076575Y-37008
X077264Y-44685
X079429Y-26181
X079724Y-29035
X080807Y-30020
X082085Y-28936
X082087Y-29331
X082185Y-28051
X082185Y-28445
X082292Y-27025
X082579Y-28445
X083071Y-28789
X083366Y-28445
X083563Y-45472
X083563Y-46260
X084055Y-32776
X084646Y-50787
X084843Y-41240
X085504Y-52263
X085531Y-51870
X085712Y-40988
X085827Y-42717
X088484Y-45768
X088780Y-47933
X089075Y-31496
X089075Y-40354
X089272Y-32087
X089469Y-47933
X089665Y-46161
X089764Y-40354
X089862Y-41535
X089961Y-51772
X090059Y-52362
X090059Y-53150
X090256Y-27953
X090256Y-47343
X090945Y-27953
X091240Y-50000
X092307Y-47502
X092323Y-53445
X092618Y-24862
X092618Y-28012
X093307Y-26535
X093996Y-53445
X094587Y-29035
X095669Y-28110
X095669Y-29110
X096654Y-48976
X096669Y-28110
X096669Y-29110
X097402Y-48661
X097669Y-28110
X097669Y-29110
X097835Y-26846
X098669Y-28110
X098669Y-29110
X098835Y-25846
X098835Y-26846
X099669Y-28110
X099669Y-29110
X099835Y-25846
X099835Y-26846
T12
X086850Y-24705
X087127Y-24037
X087127Y-25373
X087795Y-23760
X087795Y-25650
X088463Y-24037
X088463Y-25373
X088740Y-24705
T13
X085039Y-48614
X085039Y-49114
X085539Y-48614
X085539Y-49114
X086039Y-48614
X086039Y-49114
X086539Y-48614
X086539Y-49114
X087039Y-48614
X087039Y-49114
T14
X100591Y-46850
X100591Y-47638
X100591Y-48425
X100591Y-49213
X100591Y-50000
X081791Y-50886
X081791Y-51673
X081791Y-52461
X081791Y-53248
X078839Y-28051
X078839Y-28839
X078839Y-29626
X081791Y-46555
X081791Y-47343
X081791Y-48130
X081791Y-48917
X100591Y-43996
X100591Y-44783
X074409Y-37008
X074409Y-37795
X074409Y-39764
X074409Y-40551
X074409Y-41339
X074409Y-42126
T15
X087795Y-24705
X096555Y-52953
X076083Y-52953
T16
T17
X073524Y-45000
X073524Y-46732
M30

