  0
SECTION
  2
HEADER
  9
$ANGBASE
  50
0.0
  9
$ANGDIR
  70
1
  9
$MEASUREMENT
  70
1
  0
ENDSEC
  0
SECTION
  2
TABLES
  0
TABLE
  2
LTYPE
  70
4
  0
LTYPE
  5
40F
  2
CONTINUOUS
  70
0
  3
Solid line
  72
65
  73
0
  40
0.0
  0
LTYPE
  5
410
  2
DASHDOT
 70
0
  3
Dash Dot ____ _ ____ _
 72
65
 73
4
 40
2.0
 49
1.25
 49
-0.25
 49
0.25
 49
-0.25
  0
LTYPE
  5
411
  2
DASHED
 70
0
  3
Dashed __ __ __ __ __
 72
65
 73
2
 40
0.75
 49
0.5
 49
-0.25
  0
LTYPE
  5
43B
  2
DOTTED
 70
0
  3
Dotted .  .  .  .
 72
65
 73
2
 40
0.2
 49
0.0
 49
-0.2
  0
ENDTAB
  0
TABLE
  2
STYLE
  70
4
  0
STYLE
  2
KICAD
  70
0
  40
0
  41
1
  42
1
  50
0
  71
0
  3
isocp.shx
  0
STYLE
  2
KICADB
  70
0
  40
0
  41
1
  42
1
  50
0
  71
0
  3
isocp.shx
  0
STYLE
  2
KICADI
  70
0
  40
0
  41
1
  42
1
  50
15
  71
0
  3
isocp.shx
  0
STYLE
  2
KICADBI
  70
0
  40
0
  41
1
  42
1
  50
15
  71
0
  3
isocp.shx
  0
ENDTAB
  0
TABLE
  2
LAYER
  70
1
  0
LAYER
  2
BLACK
  70
0
  62
7
  6
CONTINUOUS
  0
ENDTAB
  0
ENDSEC
  0
SECTION
  2
ENTITIES
0
LINE
8
BLACK
6
CONTINUOUS
10
141.025
20
-181.002
11
141.025
21
-181.002
0
LINE
8
BLACK
6
CONTINUOUS
10
141.025
20
-181.002
11
141.006
21
-181.197
0
LINE
8
BLACK
6
CONTINUOUS
10
141.006
20
-181.197
11
141.006
21
-181.197
0
LINE
8
BLACK
6
CONTINUOUS
10
141.006
20
-181.197
11
141.005
21
-181.199
0
LINE
8
BLACK
6
CONTINUOUS
10
141.005
20
-181.199
11
141.005
21
-181.201
0
LINE
8
BLACK
6
CONTINUOUS
10
141.005
20
-181.201
11
140.948
21
-181.388
0
LINE
8
BLACK
6
CONTINUOUS
10
140.948
20
-181.388
11
140.948
21
-181.389
0
LINE
8
BLACK
6
CONTINUOUS
10
140.948
20
-181.389
11
140.947
21
-181.391
0
LINE
8
BLACK
6
CONTINUOUS
10
140.947
20
-181.391
11
140.947
21
-181.393
0
LINE
8
BLACK
6
CONTINUOUS
10
140.947
20
-181.393
11
140.855
21
-181.565
0
LINE
8
BLACK
6
CONTINUOUS
10
140.855
20
-181.565
11
140.855
21
-181.565
0
LINE
8
BLACK
6
CONTINUOUS
10
140.855
20
-181.565
11
140.854
21
-181.567
0
LINE
8
BLACK
6
CONTINUOUS
10
140.854
20
-181.567
11
140.852
21
-181.569
0
LINE
8
BLACK
6
CONTINUOUS
10
140.852
20
-181.569
11
140.729
21
-181.72
0
LINE
8
BLACK
6
CONTINUOUS
10
140.729
20
-181.72
11
140.729
21
-181.721
0
LINE
8
BLACK
6
CONTINUOUS
10
140.729
20
-181.721
11
140.727
21
-181.722
0
LINE
8
BLACK
6
CONTINUOUS
10
140.727
20
-181.722
11
140.726
21
-181.724
0
LINE
8
BLACK
6
CONTINUOUS
10
140.726
20
-181.724
11
140.575
21
-181.848
0
LINE
8
BLACK
6
CONTINUOUS
10
140.575
20
-181.848
11
140.575
21
-181.849
0
LINE
8
BLACK
6
CONTINUOUS
10
140.575
20
-181.849
11
140.573
21
-181.85
0
LINE
8
BLACK
6
CONTINUOUS
10
140.573
20
-181.85
11
140.571
21
-181.851
0
LINE
8
BLACK
6
CONTINUOUS
10
140.571
20
-181.851
11
140.399
21
-181.944
0
LINE
8
BLACK
6
CONTINUOUS
10
140.399
20
-181.944
11
140.399
21
-181.944
0
LINE
8
BLACK
6
CONTINUOUS
10
140.399
20
-181.944
11
140.397
21
-181.945
0
LINE
8
BLACK
6
CONTINUOUS
10
140.397
20
-181.945
11
140.395
21
-181.946
0
LINE
8
BLACK
6
CONTINUOUS
10
140.395
20
-181.946
11
140.208
21
-182.003
0
LINE
8
BLACK
6
CONTINUOUS
10
140.208
20
-182.003
11
140.208
21
-182.004
0
LINE
8
BLACK
6
CONTINUOUS
10
140.208
20
-182.004
11
140.206
21
-182.004
0
LINE
8
BLACK
6
CONTINUOUS
10
140.206
20
-182.004
11
140.204
21
-182.004
0
LINE
8
BLACK
6
CONTINUOUS
10
140.204
20
-182.004
11
140.01
21
-182.025
0
LINE
8
BLACK
6
CONTINUOUS
10
140.01
20
-182.025
11
140.009
21
-182.025
0
LINE
8
BLACK
6
CONTINUOUS
10
140.009
20
-182.025
11
140.008
21
-182.025
0
LINE
8
BLACK
6
CONTINUOUS
10
140.008
20
-182.025
11
140.007
21
-182.025
0
LINE
8
BLACK
6
CONTINUOUS
10
140.007
20
-182.025
11
140.001
21
-182.025
0
LINE
8
BLACK
6
CONTINUOUS
10
140.001
20
-182.025
11
140.001
21
-182.025
0
LINE
8
BLACK
6
CONTINUOUS
10
140.001
20
-182.025
11
57.9988
21
-182.025
0
LINE
8
BLACK
6
CONTINUOUS
10
57.9988
20
-182.025
11
57.9976
21
-182.025
0
LINE
8
BLACK
6
CONTINUOUS
10
57.9976
20
-182.025
11
57.9976
21
-182.025
0
LINE
8
BLACK
6
CONTINUOUS
10
57.9976
20
-182.025
11
57.8033
21
-182.006
0
LINE
8
BLACK
6
CONTINUOUS
10
57.8033
20
-182.006
11
57.803
21
-182.006
0
LINE
8
BLACK
6
CONTINUOUS
10
57.803
20
-182.006
11
57.8007
21
-182.005
0
LINE
8
BLACK
6
CONTINUOUS
10
57.8007
20
-182.005
11
57.7985
21
-182.005
0
LINE
8
BLACK
6
CONTINUOUS
10
57.7985
20
-182.005
11
57.6117
21
-181.948
0
LINE
8
BLACK
6
CONTINUOUS
10
57.6117
20
-181.948
11
57.6114
21
-181.948
0
LINE
8
BLACK
6
CONTINUOUS
10
57.6114
20
-181.948
11
57.6093
21
-181.947
0
LINE
8
BLACK
6
CONTINUOUS
10
57.6093
20
-181.947
11
57.6072
21
-181.947
0
LINE
8
BLACK
6
CONTINUOUS
10
57.6072
20
-181.947
11
57.4349
21
-181.855
0
LINE
8
BLACK
6
CONTINUOUS
10
57.4349
20
-181.855
11
57.4346
21
-181.855
0
LINE
8
BLACK
6
CONTINUOUS
10
57.4346
20
-181.855
11
57.4327
21
-181.854
0
LINE
8
BLACK
6
CONTINUOUS
10
57.4327
20
-181.854
11
57.4308
21
-181.852
0
LINE
8
BLACK
6
CONTINUOUS
10
57.4308
20
-181.852
11
57.2796
21
-181.729
0
LINE
8
BLACK
6
CONTINUOUS
10
57.2796
20
-181.729
11
57.2793
21
-181.729
0
LINE
8
BLACK
6
CONTINUOUS
10
57.2793
20
-181.729
11
57.2777
21
-181.727
0
LINE
8
BLACK
6
CONTINUOUS
10
57.2777
20
-181.727
11
57.2761
21
-181.726
0
LINE
8
BLACK
6
CONTINUOUS
10
57.2761
20
-181.726
11
57.1517
21
-181.575
0
LINE
8
BLACK
6
CONTINUOUS
10
57.1517
20
-181.575
11
57.1515
21
-181.575
0
LINE
8
BLACK
6
CONTINUOUS
10
57.1515
20
-181.575
11
57.1502
21
-181.573
0
LINE
8
BLACK
6
CONTINUOUS
10
57.1502
20
-181.573
11
57.149
21
-181.571
0
LINE
8
BLACK
6
CONTINUOUS
10
57.149
20
-181.571
11
57.0561
21
-181.399
0
LINE
8
BLACK
6
CONTINUOUS
10
57.0561
20
-181.399
11
57.056
21
-181.399
0
LINE
8
BLACK
6
CONTINUOUS
10
57.056
20
-181.399
11
57.0551
21
-181.397
0
LINE
8
BLACK
6
CONTINUOUS
10
57.0551
20
-181.397
11
57.0543
21
-181.395
0
LINE
8
BLACK
6
CONTINUOUS
10
57.0543
20
-181.395
11
56.9965
21
-181.208
0
LINE
8
BLACK
6
CONTINUOUS
10
56.9965
20
-181.208
11
56.9964
21
-181.208
0
LINE
8
BLACK
6
CONTINUOUS
10
56.9964
20
-181.208
11
56.996
21
-181.206
0
LINE
8
BLACK
6
CONTINUOUS
10
56.996
20
-181.206
11
56.9956
21
-181.204
0
LINE
8
BLACK
6
CONTINUOUS
10
56.9956
20
-181.204
11
56.9752
21
-181.01
0
LINE
8
BLACK
6
CONTINUOUS
10
56.9752
20
-181.01
11
56.9751
21
-181.009
0
LINE
8
BLACK
6
CONTINUOUS
10
56.9751
20
-181.009
11
56.9751
21
-181.008
0
LINE
8
BLACK
6
CONTINUOUS
10
56.9751
20
-181.008
11
56.975
21
-181.007
0
LINE
8
BLACK
6
CONTINUOUS
10
56.975
20
-181.007
11
56.975
21
-181.001
0
LINE
8
BLACK
6
CONTINUOUS
10
56.975
20
-181.001
11
56.975
21
-181.001
0
LINE
8
BLACK
6
CONTINUOUS
10
56.975
20
-181.001
11
56.975
21
-103.999
0
LINE
8
BLACK
6
CONTINUOUS
10
56.975
20
-103.999
11
56.9751
21
-103.998
0
LINE
8
BLACK
6
CONTINUOUS
10
56.9751
20
-103.998
11
56.9751
21
-103.998
0
LINE
8
BLACK
6
CONTINUOUS
10
56.9751
20
-103.998
11
56.9942
21
-103.803
0
LINE
8
BLACK
6
CONTINUOUS
10
56.9942
20
-103.803
11
56.9942
21
-103.803
0
LINE
8
BLACK
6
CONTINUOUS
10
56.9942
20
-103.803
11
56.9947
21
-103.801
0
LINE
8
BLACK
6
CONTINUOUS
10
56.9947
20
-103.801
11
56.9951
21
-103.799
0
LINE
8
BLACK
6
CONTINUOUS
10
56.9951
20
-103.799
11
57.0515
21
-103.612
0
LINE
8
BLACK
6
CONTINUOUS
10
57.0515
20
-103.612
11
57.0516
21
-103.611
0
LINE
8
BLACK
6
CONTINUOUS
10
57.0516
20
-103.611
11
57.0525
21
-103.609
0
LINE
8
BLACK
6
CONTINUOUS
10
57.0525
20
-103.609
11
57.0534
21
-103.607
0
LINE
8
BLACK
6
CONTINUOUS
10
57.0534
20
-103.607
11
57.145
21
-103.435
0
LINE
8
BLACK
6
CONTINUOUS
10
57.145
20
-103.435
11
57.1452
21
-103.435
0
LINE
8
BLACK
6
CONTINUOUS
10
57.1452
20
-103.435
11
57.1464
21
-103.433
0
LINE
8
BLACK
6
CONTINUOUS
10
57.1464
20
-103.433
11
57.1477
21
-103.431
0
LINE
8
BLACK
6
CONTINUOUS
10
57.1477
20
-103.431
11
57.2711
21
-103.28
0
LINE
8
BLACK
6
CONTINUOUS
10
57.2711
20
-103.28
11
57.2713
21
-103.279
0
LINE
8
BLACK
6
CONTINUOUS
10
57.2713
20
-103.279
11
57.2729
21
-103.278
0
LINE
8
BLACK
6
CONTINUOUS
10
57.2729
20
-103.278
11
57.2745
21
-103.276
0
LINE
8
BLACK
6
CONTINUOUS
10
57.2745
20
-103.276
11
57.4249
21
-103.152
0
LINE
8
BLACK
6
CONTINUOUS
10
57.4249
20
-103.152
11
57.4251
21
-103.151
0
LINE
8
BLACK
6
CONTINUOUS
10
57.4251
20
-103.151
11
57.4271
21
-103.15
0
LINE
8
BLACK
6
CONTINUOUS
10
57.4271
20
-103.15
11
57.4289
21
-103.149
0
LINE
8
BLACK
6
CONTINUOUS
10
57.4289
20
-103.149
11
57.6006
21
-103.056
0
LINE
8
BLACK
6
CONTINUOUS
10
57.6006
20
-103.056
11
57.6009
21
-103.056
0
LINE
8
BLACK
6
CONTINUOUS
10
57.6009
20
-103.056
11
57.603
21
-103.055
0
LINE
8
BLACK
6
CONTINUOUS
10
57.603
20
-103.055
11
57.6051
21
-103.054
0
LINE
8
BLACK
6
CONTINUOUS
10
57.6051
20
-103.054
11
57.7915
21
-102.997
0
LINE
8
BLACK
6
CONTINUOUS
10
57.7915
20
-102.997
11
57.7919
21
-102.996
0
LINE
8
BLACK
6
CONTINUOUS
10
57.7919
20
-102.996
11
57.7941
21
-102.996
0
LINE
8
BLACK
6
CONTINUOUS
10
57.7941
20
-102.996
11
57.7963
21
-102.996
0
LINE
8
BLACK
6
CONTINUOUS
10
57.7963
20
-102.996
11
57.9904
21
-102.975
0
LINE
8
BLACK
6
CONTINUOUS
10
57.9904
20
-102.975
11
57.9908
21
-102.975
0
LINE
8
BLACK
6
CONTINUOUS
10
57.9908
20
-102.975
11
57.9919
21
-102.975
0
LINE
8
BLACK
6
CONTINUOUS
10
57.9919
20
-102.975
11
57.9929
21
-102.975
0
LINE
8
BLACK
6
CONTINUOUS
10
57.9929
20
-102.975
11
57.9987
21
-102.975
0
LINE
8
BLACK
6
CONTINUOUS
10
57.9987
20
-102.975
11
57.9988
21
-102.975
0
LINE
8
BLACK
6
CONTINUOUS
10
57.9988
20
-102.975
11
140.001
21
-102.975
0
LINE
8
BLACK
6
CONTINUOUS
10
140.001
20
-102.975
11
140.002
21
-102.975
0
LINE
8
BLACK
6
CONTINUOUS
10
140.002
20
-102.975
11
140.002
21
-102.975
0
LINE
8
BLACK
6
CONTINUOUS
10
140.002
20
-102.975
11
140.197
21
-102.994
0
LINE
8
BLACK
6
CONTINUOUS
10
140.197
20
-102.994
11
140.197
21
-102.994
0
LINE
8
BLACK
6
CONTINUOUS
10
140.197
20
-102.994
11
140.199
21
-102.995
0
LINE
8
BLACK
6
CONTINUOUS
10
140.199
20
-102.995
11
140.201
21
-102.995
0
LINE
8
BLACK
6
CONTINUOUS
10
140.201
20
-102.995
11
140.388
21
-103.052
0
LINE
8
BLACK
6
CONTINUOUS
10
140.388
20
-103.052
11
140.389
21
-103.052
0
LINE
8
BLACK
6
CONTINUOUS
10
140.389
20
-103.052
11
140.391
21
-103.053
0
LINE
8
BLACK
6
CONTINUOUS
10
140.391
20
-103.053
11
140.393
21
-103.053
0
LINE
8
BLACK
6
CONTINUOUS
10
140.393
20
-103.053
11
140.565
21
-103.145
0
LINE
8
BLACK
6
CONTINUOUS
10
140.565
20
-103.145
11
140.565
21
-103.145
0
LINE
8
BLACK
6
CONTINUOUS
10
140.565
20
-103.145
11
140.567
21
-103.146
0
LINE
8
BLACK
6
CONTINUOUS
10
140.567
20
-103.146
11
140.569
21
-103.148
0
LINE
8
BLACK
6
CONTINUOUS
10
140.569
20
-103.148
11
140.72
21
-103.271
0
LINE
8
BLACK
6
CONTINUOUS
10
140.72
20
-103.271
11
140.721
21
-103.271
0
LINE
8
BLACK
6
CONTINUOUS
10
140.721
20
-103.271
11
140.722
21
-103.273
0
LINE
8
BLACK
6
CONTINUOUS
10
140.722
20
-103.273
11
140.724
21
-103.274
0
LINE
8
BLACK
6
CONTINUOUS
10
140.724
20
-103.274
11
140.848
21
-103.425
0
LINE
8
BLACK
6
CONTINUOUS
10
140.848
20
-103.425
11
140.849
21
-103.425
0
LINE
8
BLACK
6
CONTINUOUS
10
140.849
20
-103.425
11
140.85
21
-103.427
0
LINE
8
BLACK
6
CONTINUOUS
10
140.85
20
-103.427
11
140.851
21
-103.429
0
LINE
8
BLACK
6
CONTINUOUS
10
140.851
20
-103.429
11
140.944
21
-103.601
0
LINE
8
BLACK
6
CONTINUOUS
10
140.944
20
-103.601
11
140.944
21
-103.601
0
LINE
8
BLACK
6
CONTINUOUS
10
140.944
20
-103.601
11
140.945
21
-103.603
0
LINE
8
BLACK
6
CONTINUOUS
10
140.945
20
-103.603
11
140.946
21
-103.605
0
LINE
8
BLACK
6
CONTINUOUS
10
140.946
20
-103.605
11
141.003
21
-103.792
0
LINE
8
BLACK
6
CONTINUOUS
10
141.003
20
-103.792
11
141.004
21
-103.792
0
LINE
8
BLACK
6
CONTINUOUS
10
141.004
20
-103.792
11
141.004
21
-103.794
0
LINE
8
BLACK
6
CONTINUOUS
10
141.004
20
-103.794
11
141.004
21
-103.796
0
LINE
8
BLACK
6
CONTINUOUS
10
141.004
20
-103.796
11
141.025
21
-103.99
0
LINE
8
BLACK
6
CONTINUOUS
10
141.025
20
-103.99
11
141.025
21
-103.991
0
LINE
8
BLACK
6
CONTINUOUS
10
141.025
20
-103.991
11
141.025
21
-103.992
0
LINE
8
BLACK
6
CONTINUOUS
10
141.025
20
-103.992
11
141.025
21
-103.993
0
LINE
8
BLACK
6
CONTINUOUS
10
141.025
20
-103.993
11
141.025
21
-103.999
0
LINE
8
BLACK
6
CONTINUOUS
10
141.025
20
-103.999
11
141.025
21
-103.999
0
LINE
8
BLACK
6
CONTINUOUS
10
141.025
20
-103.999
11
141.025
21
-181.001
0
LINE
8
BLACK
6
CONTINUOUS
10
141.025
20
-181.001
11
141.025
21
-181.002
0
LINE
8
BLACK
6
CONTINUOUS
10
58.0001
20
-103.025
11
57.9944
21
-103.025
0
LINE
8
BLACK
6
CONTINUOUS
10
57.9944
20
-103.025
11
57.804
21
-103.045
0
LINE
8
BLACK
6
CONTINUOUS
10
57.804
20
-103.045
11
57.6222
21
-103.101
0
LINE
8
BLACK
6
CONTINUOUS
10
57.6222
20
-103.101
11
57.4549
21
-103.192
0
LINE
8
BLACK
6
CONTINUOUS
10
57.4549
20
-103.192
11
57.3083
21
-103.313
0
LINE
8
BLACK
6
CONTINUOUS
10
57.3083
20
-103.313
11
57.188
21
-103.461
0
LINE
8
BLACK
6
CONTINUOUS
10
57.188
20
-103.461
11
57.0987
21
-103.629
0
LINE
8
BLACK
6
CONTINUOUS
10
57.0987
20
-103.629
11
57.0437
21
-103.811
0
LINE
8
BLACK
6
CONTINUOUS
10
57.0437
20
-103.811
11
57.025
21
-104.001
0
LINE
8
BLACK
6
CONTINUOUS
10
57.025
20
-104.001
11
57.025
21
-181
0
LINE
8
BLACK
6
CONTINUOUS
10
57.025
20
-181
11
57.025
21
-181.006
0
LINE
8
BLACK
6
CONTINUOUS
10
57.025
20
-181.006
11
57.045
21
-181.196
0
LINE
8
BLACK
6
CONTINUOUS
10
57.045
20
-181.196
11
57.1013
21
-181.378
0
LINE
8
BLACK
6
CONTINUOUS
10
57.1013
20
-181.378
11
57.1918
21
-181.545
0
LINE
8
BLACK
6
CONTINUOUS
10
57.1918
20
-181.545
11
57.3131
21
-181.692
0
LINE
8
BLACK
6
CONTINUOUS
10
57.3131
20
-181.692
11
57.4605
21
-181.812
0
LINE
8
BLACK
6
CONTINUOUS
10
57.4605
20
-181.812
11
57.6285
21
-181.901
0
LINE
8
BLACK
6
CONTINUOUS
10
57.6285
20
-181.901
11
57.8106
21
-181.956
0
LINE
8
BLACK
6
CONTINUOUS
10
57.8106
20
-181.956
11
58.0012
21
-181.975
0
LINE
8
BLACK
6
CONTINUOUS
10
58.0012
20
-181.975
11
140
21
-181.975
0
LINE
8
BLACK
6
CONTINUOUS
10
140
20
-181.975
11
140.006
21
-181.975
0
LINE
8
BLACK
6
CONTINUOUS
10
140.006
20
-181.975
11
140.196
21
-181.955
0
LINE
8
BLACK
6
CONTINUOUS
10
140.196
20
-181.955
11
140.378
21
-181.899
0
LINE
8
BLACK
6
CONTINUOUS
10
140.378
20
-181.899
11
140.545
21
-181.808
0
LINE
8
BLACK
6
CONTINUOUS
10
140.545
20
-181.808
11
140.692
21
-181.687
0
LINE
8
BLACK
6
CONTINUOUS
10
140.692
20
-181.687
11
140.812
21
-181.539
0
LINE
8
BLACK
6
CONTINUOUS
10
140.812
20
-181.539
11
140.901
21
-181.371
0
LINE
8
BLACK
6
CONTINUOUS
10
140.901
20
-181.371
11
140.956
21
-181.189
0
LINE
8
BLACK
6
CONTINUOUS
10
140.956
20
-181.189
11
140.975
21
-180.999
0
LINE
8
BLACK
6
CONTINUOUS
10
140.975
20
-180.999
11
140.975
21
-166.999
0
LINE
8
BLACK
6
CONTINUOUS
10
140.975
20
-166.999
11
140.975
21
-166.999
0
LINE
8
BLACK
6
CONTINUOUS
10
140.975
20
-166.999
11
140.975
21
-152.001
0
LINE
8
BLACK
6
CONTINUOUS
10
140.975
20
-152.001
11
140.975
21
-152.001
0
LINE
8
BLACK
6
CONTINUOUS
10
140.975
20
-152.001
11
140.975
21
-110.001
0
LINE
8
BLACK
6
CONTINUOUS
10
140.975
20
-110.001
11
140.975
21
-110.001
0
LINE
8
BLACK
6
CONTINUOUS
10
140.975
20
-110.001
11
140.975
21
-104
0
LINE
8
BLACK
6
CONTINUOUS
10
140.975
20
-104
11
140.975
21
-104
0
LINE
8
BLACK
6
CONTINUOUS
10
140.975
20
-104
11
140.975
21
-103.994
0
LINE
8
BLACK
6
CONTINUOUS
10
140.975
20
-103.994
11
140.955
21
-103.804
0
LINE
8
BLACK
6
CONTINUOUS
10
140.955
20
-103.804
11
140.899
21
-103.622
0
LINE
8
BLACK
6
CONTINUOUS
10
140.899
20
-103.622
11
140.808
21
-103.455
0
LINE
8
BLACK
6
CONTINUOUS
10
140.808
20
-103.455
11
140.687
21
-103.308
0
LINE
8
BLACK
6
CONTINUOUS
10
140.687
20
-103.308
11
140.539
21
-103.188
0
LINE
8
BLACK
6
CONTINUOUS
10
140.539
20
-103.188
11
140.371
21
-103.099
0
LINE
8
BLACK
6
CONTINUOUS
10
140.371
20
-103.099
11
140.189
21
-103.044
0
LINE
8
BLACK
6
CONTINUOUS
10
140.189
20
-103.044
11
139.999
21
-103.025
0
LINE
8
BLACK
6
CONTINUOUS
10
139.999
20
-103.025
11
58.0001
21
-103.025
  0
ENDSEC
  0
EOF
