M48
; DRILL file {KiCad (5.1.4)-1} date 20.11.2019 08:20:40
; FORMAT={-:-/ absolute / inch / decimal}
; #@! TF.CreationDate,2019-11-20T08:20:40+01:00
; #@! TF.GenerationSoftware,Kicad,Pcbnew,(5.1.4)-1
FMAT,2
INCH
T1C0.0157
T2C0.0197
T3C0.1260
T4C0.1575
%
G90
G05
T1
X2.2736Y-5.0098
X2.2736Y-5.0453
X2.2736Y-5.0807
X2.2736Y-5.1161
X2.2736Y-5.1516
X2.2736Y-5.187
X2.2736Y-5.2224
X2.2736Y-5.3839
X2.2736Y-5.4193
X2.2736Y-5.4547
X2.2736Y-5.4902
X2.2736Y-5.5256
X2.2736Y-5.561
X2.2736Y-5.5965
X2.3091Y-5.0098
X2.3091Y-5.0453
X2.3091Y-5.0807
X2.3091Y-5.1161
X2.3091Y-5.1516
X2.3091Y-5.187
X2.3091Y-5.2224
X2.3091Y-5.3839
X2.3091Y-5.4193
X2.3091Y-5.4547
X2.3091Y-5.4902
X2.3091Y-5.5256
X2.3091Y-5.561
X2.3091Y-5.5965
X2.3425Y-4.7441
X2.3445Y-5.0098
X2.3445Y-5.0453
X2.3445Y-5.0807
X2.3445Y-5.1161
X2.3445Y-5.1516
X2.3445Y-5.187
X2.3445Y-5.2224
X2.3445Y-5.3839
X2.3445Y-5.4193
X2.3445Y-5.4547
X2.3445Y-5.4902
X2.3445Y-5.5256
X2.3445Y-5.561
X2.3445Y-5.5965
X2.3799Y-5.0098
X2.3799Y-5.0453
X2.3799Y-5.0807
X2.3799Y-5.1161
X2.3799Y-5.1516
X2.3799Y-5.187
X2.3799Y-5.2224
X2.3799Y-5.3839
X2.3799Y-5.4193
X2.3799Y-5.4547
X2.3799Y-5.4902
X2.3799Y-5.5256
X2.3799Y-5.561
X2.3799Y-5.5965
X2.3917Y-4.8524
X2.4154Y-5.0098
X2.4154Y-5.0453
X2.4154Y-5.0807
X2.4154Y-5.1161
X2.4154Y-5.1516
X2.4154Y-5.187
X2.4154Y-5.2224
X2.4154Y-5.3839
X2.4154Y-5.4193
X2.4154Y-5.4547
X2.4154Y-5.4902
X2.4154Y-5.5256
X2.4154Y-5.561
X2.4154Y-5.5965
X2.4409Y-4.7441
X2.4508Y-5.0098
X2.4508Y-5.0453
X2.4508Y-5.0807
X2.4508Y-5.1161
X2.4508Y-5.1516
X2.4508Y-5.187
X2.4508Y-5.2224
X2.4508Y-5.3839
X2.4508Y-5.4193
X2.4508Y-5.4547
X2.4508Y-5.4902
X2.4508Y-5.5256
X2.4508Y-5.561
X2.4508Y-5.5965
X2.4862Y-5.0098
X2.4862Y-5.0453
X2.4862Y-5.0807
X2.4862Y-5.1161
X2.4862Y-5.1516
X2.4862Y-5.187
X2.4862Y-5.2224
X2.4862Y-5.3839
X2.4862Y-5.4193
X2.4862Y-5.4547
X2.4862Y-5.4902
X2.4862Y-5.5256
X2.4862Y-5.561
X2.4862Y-5.5965
X2.4902Y-4.8524
X2.5Y-6.1319
X2.5Y-6.6437
X2.5197Y-6.2795
X2.5217Y-5.0098
X2.5217Y-5.0453
X2.5217Y-5.0807
X2.5217Y-5.1161
X2.5217Y-5.1516
X2.5217Y-5.187
X2.5217Y-5.2224
X2.5217Y-5.3839
X2.5217Y-5.4193
X2.5217Y-5.4547
X2.5217Y-5.4902
X2.5217Y-5.5256
X2.5217Y-5.561
X2.5217Y-5.5965
X2.5364Y-5.7549
X2.5571Y-5.0098
X2.5571Y-5.0453
X2.5571Y-5.0807
X2.5571Y-5.1161
X2.5571Y-5.1516
X2.5571Y-5.187
X2.5571Y-5.2224
X2.5571Y-5.3839
X2.5571Y-5.4193
X2.5571Y-5.4547
X2.5571Y-5.4902
X2.5571Y-5.5256
X2.5571Y-5.561
X2.5571Y-5.5965
X2.5787Y-4.498
X2.5817Y-6.0561
X2.5925Y-5.0098
X2.5925Y-5.0453
X2.5925Y-5.0807
X2.5925Y-5.1161
X2.5925Y-5.1516
X2.5925Y-5.187
X2.5925Y-5.2224
X2.5925Y-5.3839
X2.5925Y-5.4193
X2.5925Y-5.4547
X2.5925Y-5.4902
X2.5925Y-5.5256
X2.5925Y-5.561
X2.5925Y-5.5965
X2.628Y-5.0098
X2.628Y-5.0453
X2.628Y-5.0807
X2.628Y-5.1161
X2.628Y-5.1516
X2.628Y-5.187
X2.628Y-5.2224
X2.628Y-5.3839
X2.628Y-5.4193
X2.628Y-5.4547
X2.628Y-5.4902
X2.628Y-5.5256
X2.628Y-5.561
X2.628Y-5.5965
X2.628Y-6.063
X2.6634Y-5.0098
X2.6634Y-5.0453
X2.6634Y-5.0807
X2.6634Y-5.1161
X2.6634Y-5.1516
X2.6634Y-5.187
X2.6634Y-5.2224
X2.6634Y-5.3839
X2.6634Y-5.4193
X2.6634Y-5.4547
X2.6634Y-5.4902
X2.6634Y-5.5256
X2.6634Y-5.561
X2.6634Y-5.5965
X2.6969Y-6.1319
X2.6969Y-6.6437
X2.6988Y-5.0098
X2.6988Y-5.0453
X2.6988Y-5.0807
X2.6988Y-5.1161
X2.6988Y-5.1516
X2.6988Y-5.187
X2.6988Y-5.2224
X2.6988Y-5.3839
X2.6988Y-5.4193
X2.6988Y-5.4547
X2.6988Y-5.4902
X2.6988Y-5.5256
X2.6988Y-5.561
X2.6988Y-5.5965
X2.7756Y-4.498
X2.7953Y-4.6555
X2.8069Y-4.8984
X2.8543Y-4.9016
X2.8642Y-4.5177
X2.9035Y-4.4685
X2.9035Y-6.5256
X2.937Y-6.5594
X3.0102Y-4.4114
X3.0102Y-4.4469
X3.0102Y-4.4823
X3.0102Y-4.5177
X3.0102Y-4.5531
X3.0102Y-4.5886
X3.0102Y-4.624
X3.0102Y-4.6594
X3.0102Y-4.6949
X3.0102Y-4.7303
X3.011Y-4.0854
X3.011Y-4.1209
X3.011Y-4.1563
X3.011Y-4.1917
X3.011Y-4.2272
X3.011Y-4.9319
X3.011Y-4.9673
X3.011Y-5.0028
X3.011Y-5.0382
X3.011Y-5.0736
X3.011Y-5.1091
X3.011Y-5.1445
X3.011Y-5.1799
X3.011Y-5.2154
X3.011Y-5.2508
X3.011Y-5.4437
X3.011Y-5.4791
X3.011Y-5.5146
X3.011Y-5.55
X3.011Y-5.5854
X3.011Y-5.6209
X3.011Y-5.6563
X3.011Y-5.6917
X3.011Y-5.7272
X3.011Y-5.7626
X3.011Y-5.9654
X3.011Y-6.0008
X3.011Y-6.0362
X3.011Y-6.0717
X3.011Y-6.1071
X3.011Y-6.1425
X3.011Y-6.178
X3.011Y-6.2134
X3.011Y-6.2488
X3.011Y-6.2843
X3.011Y-6.487
X3.011Y-6.5224
X3.011Y-6.5579
X3.011Y-6.5933
X3.011Y-6.6287
X3.011Y-6.6642
X3.011Y-6.6996
X3.011Y-6.735
X3.011Y-6.7705
X3.011Y-6.8059
X3.011Y-6.989
X3.011Y-7.0244
X3.011Y-7.0598
X3.011Y-7.0953
X3.011Y-7.1307
X3.0457Y-4.4114
X3.0457Y-4.4469
X3.0457Y-4.4823
X3.0457Y-4.5177
X3.0457Y-4.5531
X3.0457Y-4.5886
X3.0457Y-4.624
X3.0457Y-4.6594
X3.0457Y-4.6949
X3.0457Y-4.7303
X3.0465Y-4.0854
X3.0465Y-4.1209
X3.0465Y-4.1563
X3.0465Y-4.1917
X3.0465Y-4.2272
X3.0465Y-4.9319
X3.0465Y-4.9673
X3.0465Y-5.0028
X3.0465Y-5.0382
X3.0465Y-5.0736
X3.0465Y-5.1091
X3.0465Y-5.1445
X3.0465Y-5.1799
X3.0465Y-5.2154
X3.0465Y-5.2508
X3.0465Y-5.4437
X3.0465Y-5.4791
X3.0465Y-5.5146
X3.0465Y-5.55
X3.0465Y-5.5854
X3.0465Y-5.6209
X3.0465Y-5.6563
X3.0465Y-5.6917
X3.0465Y-5.7272
X3.0465Y-5.7626
X3.0465Y-5.9654
X3.0465Y-6.0008
X3.0465Y-6.0362
X3.0465Y-6.0717
X3.0465Y-6.1071
X3.0465Y-6.1425
X3.0465Y-6.178
X3.0465Y-6.2134
X3.0465Y-6.2488
X3.0465Y-6.2843
X3.0465Y-6.487
X3.0465Y-6.5224
X3.0465Y-6.5579
X3.0465Y-6.5933
X3.0465Y-6.6287
X3.0465Y-6.6642
X3.0465Y-6.6996
X3.0465Y-6.735
X3.0465Y-6.7705
X3.0465Y-6.8059
X3.0465Y-6.989
X3.0465Y-7.0244
X3.0465Y-7.0598
X3.0465Y-7.0953
X3.0465Y-7.1307
X3.0811Y-4.4114
X3.0811Y-4.4469
X3.0811Y-4.4823
X3.0811Y-4.5177
X3.0811Y-4.5531
X3.0811Y-4.5886
X3.0811Y-4.624
X3.0811Y-4.6594
X3.0811Y-4.6949
X3.0811Y-4.7303
X3.0819Y-4.0854
X3.0819Y-4.1209
X3.0819Y-4.1563
X3.0819Y-4.1917
X3.0819Y-4.2272
X3.0819Y-4.9319
X3.0819Y-4.9673
X3.0819Y-5.0028
X3.0819Y-5.0382
X3.0819Y-5.0736
X3.0819Y-5.1091
X3.0819Y-5.1445
X3.0819Y-5.1799
X3.0819Y-5.2154
X3.0819Y-5.2508
X3.0819Y-5.4437
X3.0819Y-5.4791
X3.0819Y-5.5146
X3.0819Y-5.55
X3.0819Y-5.5854
X3.0819Y-5.6209
X3.0819Y-5.6563
X3.0819Y-5.6917
X3.0819Y-5.7272
X3.0819Y-5.7626
X3.0819Y-5.9654
X3.0819Y-6.0008
X3.0819Y-6.0362
X3.0819Y-6.0717
X3.0819Y-6.1071
X3.0819Y-6.1425
X3.0819Y-6.178
X3.0819Y-6.2134
X3.0819Y-6.2488
X3.0819Y-6.2843
X3.0819Y-6.487
X3.0819Y-6.5224
X3.0819Y-6.5579
X3.0819Y-6.5933
X3.0819Y-6.6287
X3.0819Y-6.6642
X3.0819Y-6.6996
X3.0819Y-6.735
X3.0819Y-6.7705
X3.0819Y-6.8059
X3.0819Y-6.989
X3.0819Y-7.0244
X3.0819Y-7.0598
X3.0819Y-7.0953
X3.0819Y-7.1307
X3.2228Y-4.4114
X3.2228Y-4.4469
X3.2228Y-4.4823
X3.2228Y-4.5177
X3.2228Y-4.5531
X3.2228Y-4.5886
X3.2228Y-4.624
X3.2228Y-4.6594
X3.2228Y-4.6949
X3.2228Y-4.7303
X3.2236Y-4.0854
X3.2236Y-4.1209
X3.2236Y-4.1563
X3.2236Y-4.1917
X3.2236Y-4.2272
X3.2236Y-4.9319
X3.2236Y-4.9673
X3.2236Y-5.0028
X3.2236Y-5.0382
X3.2236Y-5.0736
X3.2236Y-5.1091
X3.2236Y-5.1445
X3.2236Y-5.1799
X3.2236Y-5.2154
X3.2236Y-5.2508
X3.2236Y-5.4437
X3.2236Y-5.4791
X3.2236Y-5.5146
X3.2236Y-5.55
X3.2236Y-5.5854
X3.2236Y-5.6209
X3.2236Y-5.6563
X3.2236Y-5.6917
X3.2236Y-5.7272
X3.2236Y-5.7626
X3.2236Y-5.9654
X3.2236Y-6.0008
X3.2236Y-6.0362
X3.2236Y-6.0717
X3.2236Y-6.1071
X3.2236Y-6.1425
X3.2236Y-6.178
X3.2236Y-6.2134
X3.2236Y-6.2488
X3.2236Y-6.2843
X3.2236Y-6.487
X3.2236Y-6.5224
X3.2236Y-6.5579
X3.2236Y-6.5933
X3.2236Y-6.6287
X3.2236Y-6.6642
X3.2236Y-6.6996
X3.2236Y-6.735
X3.2236Y-6.7705
X3.2236Y-6.8059
X3.2236Y-6.989
X3.2236Y-7.0244
X3.2236Y-7.0598
X3.2236Y-7.0953
X3.2236Y-7.1307
X3.2579Y-5.8366
X3.2579Y-5.876
X3.2583Y-4.4114
X3.2583Y-4.4469
X3.2583Y-4.4823
X3.2583Y-4.5177
X3.2583Y-4.5531
X3.2583Y-4.5886
X3.2583Y-4.624
X3.2583Y-4.6594
X3.2583Y-4.6949
X3.2583Y-4.7303
X3.2591Y-4.0854
X3.2591Y-4.1209
X3.2591Y-4.1563
X3.2591Y-4.1917
X3.2591Y-4.2272
X3.2591Y-4.9319
X3.2591Y-4.9673
X3.2591Y-5.0028
X3.2591Y-5.0382
X3.2591Y-5.0736
X3.2591Y-5.1091
X3.2591Y-5.1445
X3.2591Y-5.1799
X3.2591Y-5.2154
X3.2591Y-5.2508
X3.2591Y-5.4437
X3.2591Y-5.4791
X3.2591Y-5.5146
X3.2591Y-5.55
X3.2591Y-5.5854
X3.2591Y-5.6209
X3.2591Y-5.6563
X3.2591Y-5.6917
X3.2591Y-5.7272
X3.2591Y-5.7626
X3.2591Y-5.9654
X3.2591Y-6.0008
X3.2591Y-6.0362
X3.2591Y-6.0717
X3.2591Y-6.1071
X3.2591Y-6.1425
X3.2591Y-6.178
X3.2591Y-6.2134
X3.2591Y-6.2488
X3.2591Y-6.2843
X3.2591Y-6.487
X3.2591Y-6.5224
X3.2591Y-6.5579
X3.2591Y-6.5933
X3.2591Y-6.6287
X3.2591Y-6.6642
X3.2591Y-6.6996
X3.2591Y-6.735
X3.2591Y-6.7705
X3.2591Y-6.8059
X3.2591Y-6.989
X3.2591Y-7.0244
X3.2591Y-7.0598
X3.2591Y-7.0953
X3.2591Y-7.1307
X3.2937Y-4.4114
X3.2937Y-4.4469
X3.2937Y-4.4823
X3.2937Y-4.5177
X3.2937Y-4.5531
X3.2937Y-4.5886
X3.2937Y-4.624
X3.2937Y-4.6594
X3.2937Y-4.6949
X3.2937Y-4.7303
X3.2945Y-4.0854
X3.2945Y-4.1209
X3.2945Y-4.1563
X3.2945Y-4.1917
X3.2945Y-4.2272
X3.2945Y-4.9319
X3.2945Y-4.9673
X3.2945Y-5.0028
X3.2945Y-5.0382
X3.2945Y-5.0736
X3.2945Y-5.1091
X3.2945Y-5.1445
X3.2945Y-5.1799
X3.2945Y-5.2154
X3.2945Y-5.2508
X3.2945Y-5.4437
X3.2945Y-5.4791
X3.2945Y-5.5146
X3.2945Y-5.55
X3.2945Y-5.5854
X3.2945Y-5.6209
X3.2945Y-5.6563
X3.2945Y-5.6917
X3.2945Y-5.7272
X3.2945Y-5.7626
X3.2945Y-5.9654
X3.2945Y-6.0008
X3.2945Y-6.0362
X3.2945Y-6.0717
X3.2945Y-6.1071
X3.2945Y-6.1425
X3.2945Y-6.178
X3.2945Y-6.2134
X3.2945Y-6.2488
X3.2945Y-6.2843
X3.2945Y-6.487
X3.2945Y-6.5224
X3.2945Y-6.5579
X3.2945Y-6.5933
X3.2945Y-6.6287
X3.2945Y-6.6642
X3.2945Y-6.6996
X3.2945Y-6.735
X3.2945Y-6.7705
X3.2945Y-6.8059
X3.2945Y-6.989
X3.2945Y-7.0244
X3.2945Y-7.0598
X3.2945Y-7.0953
X3.2945Y-7.1307
X3.3673Y-4.7705
X3.376Y-4.7047
X3.3858Y-4.3307
X3.4055Y-6.6732
X3.4055Y-6.7323
X3.4296Y-6.291
X3.4312Y-6.1614
X3.435Y-4.3504
X3.5236Y-6.1516
X3.5236Y-6.187
X3.5236Y-6.2224
X3.5236Y-6.2579
X3.5433Y-4.0846
X3.5433Y-4.1201
X3.5433Y-4.1555
X3.5433Y-4.1909
X3.5433Y-4.2264
X3.5433Y-4.2618
X3.5591Y-6.1516
X3.5591Y-6.187
X3.5591Y-6.2224
X3.5591Y-6.2579
X3.5787Y-4.0846
X3.5787Y-4.1201
X3.5787Y-4.1555
X3.5787Y-4.1909
X3.5787Y-4.2264
X3.5787Y-4.2618
X3.5945Y-6.1516
X3.5945Y-6.187
X3.5945Y-6.2224
X3.5945Y-6.2579
X3.6142Y-4.0846
X3.6142Y-4.1201
X3.6142Y-4.1555
X3.6142Y-4.1909
X3.6142Y-4.2264
X3.6142Y-4.2618
X3.6299Y-6.1516
X3.6299Y-6.187
X3.6299Y-6.2224
X3.6299Y-6.2579
X3.6496Y-4.0846
X3.6496Y-4.1201
X3.6496Y-4.1555
X3.6496Y-4.1909
X3.6496Y-4.2264
X3.6496Y-4.2618
X3.6654Y-6.187
X3.6654Y-6.2224
X3.6654Y-6.2579
X3.685Y-4.0846
X3.685Y-4.1201
X3.685Y-4.1555
X3.685Y-4.1909
X3.685Y-4.2264
X3.685Y-4.2618
X3.7303Y-6.0827
X3.7992Y-6.2697
X3.8091Y-5.6693
X3.8091Y-5.7185
X3.878Y-5.1772
X3.878Y-5.2362
X4.0748Y-4.685
X4.0748Y-4.7441
X4.0945Y-6.6831
X4.0945Y-6.7224
X4.124Y-4.2913
X4.1407Y-6.2744
X4.1437Y-4.1634
X4.1437Y-6.1516
X4.2224Y-6.1516
X4.2224Y-6.187
X4.2323Y-4.0846
X4.2323Y-4.1201
X4.2323Y-4.1555
X4.2323Y-4.1909
X4.2323Y-4.2264
X4.2323Y-4.2618
X4.2579Y-6.1516
X4.2579Y-6.187
X4.2579Y-6.2224
X4.2579Y-6.2579
X4.2677Y-4.0846
X4.2677Y-4.1201
X4.2677Y-4.1555
X4.2677Y-4.1909
X4.2677Y-4.2264
X4.2677Y-4.2618
X4.2933Y-6.1516
X4.2933Y-6.187
X4.2933Y-6.2224
X4.2933Y-6.2579
X4.3031Y-4.0846
X4.3031Y-4.1201
X4.3031Y-4.1555
X4.3031Y-4.1909
X4.3031Y-4.2264
X4.3031Y-4.2618
X4.3287Y-6.1516
X4.3287Y-6.187
X4.3287Y-6.2224
X4.3287Y-6.2579
X4.3386Y-4.0846
X4.3386Y-4.1201
X4.3386Y-4.1555
X4.3386Y-4.1909
X4.3386Y-4.2264
X4.3386Y-4.2618
X4.3642Y-6.2224
X4.3642Y-6.2579
X4.374Y-4.0846
X4.374Y-4.1201
X4.374Y-4.1555
X4.374Y-4.1909
X4.374Y-4.2264
X4.374Y-4.2618
X4.498Y-5.6693
X4.498Y-5.7283
X4.498Y-6.2402
X4.5082Y-6.1808
X4.5571Y-4.3898
X4.5571Y-4.4252
X4.5571Y-4.4606
X4.5571Y-4.4961
X4.5571Y-4.5315
X4.5571Y-4.5669
X4.5571Y-4.6024
X4.5571Y-4.6378
X4.5571Y-4.6732
X4.5571Y-4.7087
X4.5571Y-4.7441
X4.5571Y-4.7795
X4.5571Y-4.815
X4.5571Y-5.5906
X4.5571Y-5.626
X4.5571Y-5.6614
X4.5571Y-5.6969
X4.5571Y-5.7323
X4.5571Y-5.7677
X4.5571Y-5.8031
X4.5571Y-5.8386
X4.5571Y-5.874
X4.5571Y-5.9094
X4.5571Y-5.9449
X4.5571Y-5.9803
X4.5571Y-6.0157
X4.5669Y-6.3878
X4.5669Y-6.4232
X4.5669Y-6.4587
X4.5669Y-6.4941
X4.5669Y-6.5295
X4.5669Y-6.565
X4.5669Y-6.6004
X4.5669Y-6.6358
X4.5669Y-6.6713
X4.5669Y-6.7067
X4.5669Y-6.7421
X4.5669Y-6.7776
X4.5669Y-6.813
X4.5768Y-6.2106
X4.5866Y-6.3091
X4.5925Y-4.3898
X4.5925Y-4.4252
X4.5925Y-4.4606
X4.5925Y-4.4961
X4.5925Y-4.5315
X4.5925Y-4.5669
X4.5925Y-4.6024
X4.5925Y-4.6378
X4.5925Y-4.6732
X4.5925Y-4.7087
X4.5925Y-4.7441
X4.5925Y-4.7795
X4.5925Y-4.815
X4.5925Y-5.5906
X4.5925Y-5.626
X4.5925Y-5.6614
X4.5925Y-5.6969
X4.5925Y-5.7323
X4.5925Y-5.7677
X4.5925Y-5.8031
X4.5925Y-5.8386
X4.5925Y-5.874
X4.5925Y-5.9094
X4.5925Y-5.9449
X4.5925Y-5.9803
X4.5925Y-6.0157
X4.5965Y-4.2224
X4.5965Y-4.3209
X4.5965Y-5.4528
X4.5965Y-5.5217
X4.6024Y-6.3878
X4.6024Y-6.4232
X4.6024Y-6.4587
X4.6024Y-6.4941
X4.6024Y-6.5295
X4.6024Y-6.565
X4.6024Y-6.6004
X4.6024Y-6.6358
X4.6024Y-6.6713
X4.6024Y-6.7067
X4.6024Y-6.7421
X4.6024Y-6.7776
X4.6024Y-6.813
X4.626Y-5.3642
X4.628Y-4.3898
X4.628Y-4.4252
X4.628Y-4.4606
X4.628Y-4.4961
X4.628Y-4.5315
X4.628Y-4.5669
X4.628Y-4.6024
X4.628Y-4.6378
X4.628Y-4.6732
X4.628Y-4.7087
X4.628Y-4.7441
X4.628Y-4.7795
X4.628Y-4.815
X4.628Y-5.5906
X4.628Y-5.626
X4.628Y-5.6614
X4.628Y-5.6969
X4.628Y-5.7323
X4.628Y-5.7677
X4.628Y-5.8031
X4.628Y-5.8386
X4.628Y-5.874
X4.628Y-5.9094
X4.628Y-5.9449
X4.628Y-5.9803
X4.628Y-6.0157
X4.6378Y-6.3878
X4.6378Y-6.4232
X4.6378Y-6.4587
X4.6378Y-6.4941
X4.6378Y-6.5295
X4.6378Y-6.565
X4.6378Y-6.6004
X4.6378Y-6.6358
X4.6378Y-6.6713
X4.6378Y-6.7067
X4.6378Y-6.7421
X4.6378Y-6.7776
X4.6378Y-6.813
X4.6634Y-4.3898
X4.6634Y-4.4252
X4.6634Y-4.4606
X4.6634Y-4.4961
X4.6634Y-4.5315
X4.6634Y-4.5669
X4.6634Y-4.6024
X4.6634Y-4.6378
X4.6634Y-4.6732
X4.6634Y-4.7087
X4.6634Y-4.7441
X4.6634Y-4.7795
X4.6634Y-4.815
X4.6634Y-5.5906
X4.6634Y-5.626
X4.6634Y-5.6614
X4.6634Y-5.6969
X4.6634Y-5.7323
X4.6634Y-5.7677
X4.6634Y-5.8031
X4.6634Y-5.8386
X4.6634Y-5.874
X4.6634Y-5.9094
X4.6634Y-5.9449
X4.6634Y-5.9803
X4.6634Y-6.0157
X4.6732Y-6.3878
X4.6732Y-6.4232
X4.6732Y-6.4587
X4.6732Y-6.4941
X4.6732Y-6.5295
X4.6732Y-6.565
X4.6732Y-6.6004
X4.6732Y-6.6358
X4.6732Y-6.6713
X4.6732Y-6.7067
X4.6732Y-6.7421
X4.6732Y-6.7776
X4.6732Y-6.813
X4.7441Y-5.3051
X4.7638Y-4.3406
X4.7736Y-5.5413
X4.7835Y-6.3091
X4.8524Y-4.8524
X4.8917Y-4.8819
X4.9213Y-5.1181
X4.9705Y-5.2165
X5.0098Y-4.3996
X5.0098Y-4.435
X5.0098Y-4.4705
X5.0098Y-4.5059
X5.0098Y-4.5413
X5.0098Y-4.5768
X5.0098Y-4.6122
X5.0098Y-4.6476
X5.0098Y-4.6831
X5.0098Y-4.7185
X5.0098Y-4.7539
X5.0098Y-4.7894
X5.0098Y-4.8248
X5.0098Y-5.5906
X5.0098Y-5.626
X5.0098Y-5.6614
X5.0098Y-5.6969
X5.0098Y-5.7323
X5.0098Y-5.7677
X5.0098Y-5.8031
X5.0098Y-5.8386
X5.0098Y-5.874
X5.0098Y-5.9094
X5.0098Y-5.9449
X5.0098Y-5.9803
X5.0098Y-6.0157
X5.0197Y-6.3878
X5.0197Y-6.4232
X5.0197Y-6.4587
X5.0197Y-6.4941
X5.0197Y-6.5295
X5.0197Y-6.565
X5.0197Y-6.6004
X5.0197Y-6.6358
X5.0197Y-6.6713
X5.0197Y-6.7067
X5.0197Y-6.7421
X5.0197Y-6.7776
X5.0197Y-6.813
X5.0453Y-4.3996
X5.0453Y-4.435
X5.0453Y-4.4705
X5.0453Y-4.5059
X5.0453Y-4.5413
X5.0453Y-4.5768
X5.0453Y-4.6122
X5.0453Y-4.6476
X5.0453Y-4.6831
X5.0453Y-4.7185
X5.0453Y-4.7539
X5.0453Y-4.7894
X5.0453Y-4.8248
X5.0453Y-5.5906
X5.0453Y-5.626
X5.0453Y-5.6614
X5.0453Y-5.6969
X5.0453Y-5.7323
X5.0453Y-5.7677
X5.0453Y-5.8031
X5.0453Y-5.8386
X5.0453Y-5.874
X5.0453Y-5.9094
X5.0453Y-5.9449
X5.0453Y-5.9803
X5.0453Y-6.0157
X5.0551Y-6.3878
X5.0551Y-6.4232
X5.0551Y-6.4587
X5.0551Y-6.4941
X5.0551Y-6.5295
X5.0551Y-6.565
X5.0551Y-6.6004
X5.0551Y-6.6358
X5.0551Y-6.6713
X5.0551Y-6.7067
X5.0551Y-6.7421
X5.0551Y-6.7776
X5.0551Y-6.813
X5.0807Y-4.3996
X5.0807Y-4.435
X5.0807Y-4.4705
X5.0807Y-4.5059
X5.0807Y-4.5413
X5.0807Y-4.5768
X5.0807Y-4.6122
X5.0807Y-4.6476
X5.0807Y-4.6831
X5.0807Y-4.7185
X5.0807Y-4.7539
X5.0807Y-4.7894
X5.0807Y-4.8248
X5.0807Y-5.5906
X5.0807Y-5.626
X5.0807Y-5.6614
X5.0807Y-5.6969
X5.0807Y-5.7323
X5.0807Y-5.7677
X5.0807Y-5.8031
X5.0807Y-5.8386
X5.0807Y-5.874
X5.0807Y-5.9094
X5.0807Y-5.9449
X5.0807Y-5.9803
X5.0807Y-6.0157
X5.0906Y-6.3878
X5.0906Y-6.4232
X5.0906Y-6.4587
X5.0906Y-6.4941
X5.0906Y-6.5295
X5.0906Y-6.565
X5.0906Y-6.6004
X5.0906Y-6.6358
X5.0906Y-6.6713
X5.0906Y-6.7067
X5.0906Y-6.7421
X5.0906Y-6.7776
X5.0906Y-6.813
X5.1161Y-4.3996
X5.1161Y-4.435
X5.1161Y-4.4705
X5.1161Y-4.5059
X5.1161Y-4.5413
X5.1161Y-4.5768
X5.1161Y-4.6122
X5.1161Y-4.6476
X5.1161Y-4.6831
X5.1161Y-4.7185
X5.1161Y-4.7539
X5.1161Y-4.7894
X5.1161Y-4.8248
X5.1161Y-5.5906
X5.1161Y-5.626
X5.1161Y-5.6614
X5.1161Y-5.6969
X5.1161Y-5.7323
X5.1161Y-5.7677
X5.1161Y-5.8031
X5.1161Y-5.8386
X5.1161Y-5.874
X5.1161Y-5.9094
X5.1161Y-5.9449
X5.1161Y-5.9803
X5.1161Y-6.0157
X5.1181Y-5.128
X5.126Y-6.3878
X5.126Y-6.4232
X5.126Y-6.4587
X5.126Y-6.4941
X5.126Y-6.5295
X5.126Y-6.565
X5.126Y-6.6004
X5.126Y-6.6358
X5.126Y-6.6713
X5.126Y-6.7067
X5.126Y-6.7421
X5.126Y-6.7776
X5.126Y-6.813
X5.1516Y-4.3996
X5.1516Y-4.435
X5.1516Y-4.4705
X5.1516Y-4.5059
X5.1516Y-4.5413
X5.1516Y-4.5768
X5.1516Y-4.6122
X5.1516Y-4.6476
X5.1516Y-4.6831
X5.1516Y-4.7185
X5.1516Y-4.7539
X5.1516Y-4.7894
X5.1516Y-4.8248
X5.1516Y-5.5906
X5.1516Y-5.626
X5.1516Y-5.6614
X5.1516Y-5.6969
X5.1516Y-5.7323
X5.1516Y-5.7677
X5.1516Y-5.8031
X5.1516Y-5.8386
X5.1516Y-5.874
X5.1516Y-5.9094
X5.1516Y-5.9449
X5.1516Y-5.9803
X5.1516Y-6.0157
X5.1614Y-6.3878
X5.1614Y-6.4232
X5.1614Y-6.4587
X5.1614Y-6.4941
X5.1614Y-6.5295
X5.1614Y-6.565
X5.1614Y-6.6004
X5.1614Y-6.6358
X5.1614Y-6.6713
X5.1614Y-6.7067
X5.1614Y-6.7421
X5.1614Y-6.7776
X5.1614Y-6.813
X5.187Y-4.3996
X5.187Y-4.435
X5.187Y-4.4705
X5.187Y-4.5059
X5.187Y-4.5413
X5.187Y-4.5768
X5.187Y-4.6122
X5.187Y-4.6476
X5.187Y-4.6831
X5.187Y-4.7185
X5.187Y-4.7539
X5.187Y-4.7894
X5.187Y-4.8248
X5.187Y-5.5906
X5.187Y-5.626
X5.187Y-5.6614
X5.187Y-5.6969
X5.187Y-5.7323
X5.187Y-5.7677
X5.187Y-5.8031
X5.187Y-5.8386
X5.187Y-5.874
X5.187Y-5.9094
X5.187Y-5.9449
X5.187Y-5.9803
X5.187Y-6.0157
X5.1969Y-6.3878
X5.1969Y-6.4232
X5.1969Y-6.4587
X5.1969Y-6.4941
X5.1969Y-6.5295
X5.1969Y-6.565
X5.1969Y-6.6004
X5.1969Y-6.6358
X5.1969Y-6.6713
X5.1969Y-6.7067
X5.1969Y-6.7421
X5.1969Y-6.7776
X5.1969Y-6.813
X5.2224Y-4.3996
X5.2224Y-4.435
X5.2224Y-4.4705
X5.2224Y-4.5059
X5.2224Y-4.5413
X5.2224Y-4.5768
X5.2224Y-4.6122
X5.2224Y-4.6476
X5.2224Y-4.6831
X5.2224Y-4.7185
X5.2224Y-4.7539
X5.2224Y-4.7894
X5.2224Y-4.8248
X5.2224Y-5.5906
X5.2224Y-5.626
X5.2224Y-5.6614
X5.2224Y-5.6969
X5.2224Y-5.7323
X5.2224Y-5.7677
X5.2224Y-5.8031
X5.2224Y-5.8386
X5.2224Y-5.874
X5.2224Y-5.9094
X5.2224Y-5.9449
X5.2224Y-5.9803
X5.2224Y-6.0157
X5.2323Y-6.3878
X5.2323Y-6.4232
X5.2323Y-6.4587
X5.2323Y-6.4941
X5.2323Y-6.5295
X5.2323Y-6.565
X5.2323Y-6.6004
X5.2323Y-6.6358
X5.2323Y-6.6713
X5.2323Y-6.7067
X5.2323Y-6.7421
X5.2323Y-6.7776
X5.2323Y-6.813
X5.2579Y-4.3996
X5.2579Y-4.435
X5.2579Y-4.4705
X5.2579Y-4.5059
X5.2579Y-4.5413
X5.2579Y-4.5768
X5.2579Y-4.6122
X5.2579Y-4.6476
X5.2579Y-4.6831
X5.2579Y-4.7185
X5.2579Y-4.7539
X5.2579Y-4.7894
X5.2579Y-4.8248
X5.2579Y-5.5906
X5.2579Y-5.626
X5.2579Y-5.6614
X5.2579Y-5.6969
X5.2579Y-5.7323
X5.2579Y-5.7677
X5.2579Y-5.8031
X5.2579Y-5.8386
X5.2579Y-5.874
X5.2579Y-5.9094
X5.2579Y-5.9449
X5.2579Y-5.9803
X5.2579Y-6.0157
X5.2677Y-6.3878
X5.2677Y-6.4232
X5.2677Y-6.4587
X5.2677Y-6.4941
X5.2677Y-6.5295
X5.2677Y-6.565
X5.2677Y-6.6004
X5.2677Y-6.6358
X5.2677Y-6.6713
X5.2677Y-6.7067
X5.2677Y-6.7421
X5.2677Y-6.7776
X5.2677Y-6.813
X5.2933Y-4.3996
X5.2933Y-4.435
X5.2933Y-4.4705
X5.2933Y-4.5059
X5.2933Y-4.5413
X5.2933Y-4.5768
X5.2933Y-4.6122
X5.2933Y-4.6476
X5.2933Y-4.6831
X5.2933Y-4.7185
X5.2933Y-4.7539
X5.2933Y-4.7894
X5.2933Y-4.8248
X5.2933Y-5.5906
X5.2933Y-5.626
X5.2933Y-5.6614
X5.2933Y-5.6969
X5.2933Y-5.7323
X5.2933Y-5.7677
X5.2933Y-5.8031
X5.2933Y-5.8386
X5.2933Y-5.874
X5.2933Y-5.9094
X5.2933Y-5.9449
X5.2933Y-5.9803
X5.2933Y-6.0157
X5.3031Y-6.3878
X5.3031Y-6.4232
X5.3031Y-6.4587
X5.3031Y-6.4941
X5.3031Y-6.5295
X5.3031Y-6.565
X5.3031Y-6.6004
X5.3031Y-6.6358
X5.3031Y-6.6713
X5.3031Y-6.7067
X5.3031Y-6.7421
X5.3031Y-6.7776
X5.3031Y-6.813
X5.3287Y-4.3996
X5.3287Y-4.435
X5.3287Y-4.4705
X5.3287Y-4.5059
X5.3287Y-4.5413
X5.3287Y-4.5768
X5.3287Y-4.6122
X5.3287Y-4.6476
X5.3287Y-4.6831
X5.3287Y-4.7185
X5.3287Y-4.7539
X5.3287Y-4.7894
X5.3287Y-4.8248
X5.3287Y-5.5906
X5.3287Y-5.626
X5.3287Y-5.6614
X5.3287Y-5.6969
X5.3287Y-5.7323
X5.3287Y-5.7677
X5.3287Y-5.8031
X5.3287Y-5.8386
X5.3287Y-5.874
X5.3287Y-5.9094
X5.3287Y-5.9449
X5.3287Y-5.9803
X5.3287Y-6.0157
X5.3386Y-6.3878
X5.3386Y-6.4232
X5.3386Y-6.4587
X5.3386Y-6.4941
X5.3386Y-6.5295
X5.3386Y-6.565
X5.3386Y-6.6004
X5.3386Y-6.6358
X5.3386Y-6.6713
X5.3386Y-6.7067
X5.3386Y-6.7421
X5.3386Y-6.7776
X5.3386Y-6.813
X5.3642Y-4.3996
X5.3642Y-4.435
X5.3642Y-4.4705
X5.3642Y-4.5059
X5.3642Y-4.5413
X5.3642Y-4.5768
X5.3642Y-4.6122
X5.3642Y-4.6476
X5.3642Y-4.6831
X5.3642Y-4.7185
X5.3642Y-4.7539
X5.3642Y-4.7894
X5.3642Y-4.8248
X5.3642Y-5.5906
X5.3642Y-5.626
X5.3642Y-5.6614
X5.3642Y-5.6969
X5.3642Y-5.7323
X5.3642Y-5.7677
X5.3642Y-5.8031
X5.3642Y-5.8386
X5.3642Y-5.874
X5.3642Y-5.9094
X5.3642Y-5.9449
X5.3642Y-5.9803
X5.3642Y-6.0157
X5.374Y-6.3878
X5.374Y-6.4232
X5.374Y-6.4587
X5.374Y-6.4941
X5.374Y-6.5295
X5.374Y-6.565
X5.374Y-6.6004
X5.374Y-6.6358
X5.374Y-6.6713
X5.374Y-6.7067
X5.374Y-6.7421
X5.374Y-6.7776
X5.374Y-6.813
X5.3996Y-4.3996
X5.3996Y-4.435
X5.3996Y-4.4705
X5.3996Y-4.5059
X5.3996Y-4.5413
X5.3996Y-4.5768
X5.3996Y-4.6122
X5.3996Y-4.6476
X5.3996Y-4.6831
X5.3996Y-4.7185
X5.3996Y-4.7539
X5.3996Y-4.7894
X5.3996Y-4.8248
X5.3996Y-5.5906
X5.3996Y-5.626
X5.3996Y-5.6614
X5.3996Y-5.6969
X5.3996Y-5.7323
X5.3996Y-5.7677
X5.3996Y-5.8031
X5.3996Y-5.8386
X5.3996Y-5.874
X5.3996Y-5.9094
X5.3996Y-5.9449
X5.3996Y-5.9803
X5.3996Y-6.0157
X5.4094Y-6.3878
X5.4094Y-6.4232
X5.4094Y-6.4587
X5.4094Y-6.4941
X5.4094Y-6.5295
X5.4094Y-6.565
X5.4094Y-6.6004
X5.4094Y-6.6358
X5.4094Y-6.6713
X5.4094Y-6.7067
X5.4094Y-6.7421
X5.4094Y-6.7776
X5.4094Y-6.813
X5.435Y-4.3996
X5.435Y-4.435
X5.435Y-4.4705
X5.435Y-4.5059
X5.435Y-4.5413
X5.435Y-4.5768
X5.435Y-4.6122
X5.435Y-4.6476
X5.435Y-4.6831
X5.435Y-4.7185
X5.435Y-4.7539
X5.435Y-4.7894
X5.435Y-4.8248
X5.435Y-5.5906
X5.435Y-5.626
X5.435Y-5.6614
X5.435Y-5.6969
X5.435Y-5.7323
X5.435Y-5.7677
X5.435Y-5.8031
X5.435Y-5.8386
X5.435Y-5.874
X5.435Y-5.9094
X5.435Y-5.9449
X5.435Y-5.9803
X5.435Y-6.0157
X5.4449Y-6.3878
X5.4449Y-6.4232
X5.4449Y-6.4587
X5.4449Y-6.4941
X5.4449Y-6.5295
X5.4449Y-6.565
X5.4449Y-6.6004
X5.4449Y-6.6358
X5.4449Y-6.6713
X5.4449Y-6.7067
X5.4449Y-6.7421
X5.4449Y-6.7776
X5.4449Y-6.813
X5.4705Y-4.3996
X5.4705Y-4.435
X5.4705Y-4.4705
X5.4705Y-4.5059
X5.4705Y-4.5413
X5.4705Y-4.5768
X5.4705Y-4.6122
X5.4705Y-4.6476
X5.4705Y-4.6831
X5.4705Y-4.7185
X5.4705Y-4.7539
X5.4705Y-4.7894
X5.4705Y-4.8248
X5.4705Y-5.5906
X5.4705Y-5.626
X5.4705Y-5.6614
X5.4705Y-5.6969
X5.4705Y-5.7323
X5.4705Y-5.7677
X5.4705Y-5.8031
X5.4705Y-5.8386
X5.4705Y-5.874
X5.4705Y-5.9094
X5.4705Y-5.9449
X5.4705Y-5.9803
X5.4705Y-6.0157
X5.4803Y-6.3878
X5.4803Y-6.4232
X5.4803Y-6.4587
X5.4803Y-6.4941
X5.4803Y-6.5295
X5.4803Y-6.565
X5.4803Y-6.6004
X5.4803Y-6.6358
X5.4803Y-6.6713
X5.4803Y-6.7067
X5.4803Y-6.7421
X5.4803Y-6.7776
X5.4803Y-6.813
X5.5059Y-4.3996
X5.5059Y-4.435
X5.5059Y-4.4705
X5.5059Y-4.5059
X5.5059Y-4.5413
X5.5059Y-4.5768
X5.5059Y-4.6122
X5.5059Y-4.6476
X5.5059Y-4.6831
X5.5059Y-4.7185
X5.5059Y-4.7539
X5.5059Y-4.7894
X5.5059Y-4.8248
X5.5059Y-5.5906
X5.5059Y-5.626
X5.5059Y-5.6614
X5.5059Y-5.6969
X5.5059Y-5.7323
X5.5059Y-5.7677
X5.5059Y-5.8031
X5.5059Y-5.8386
X5.5059Y-5.874
X5.5059Y-5.9094
X5.5059Y-5.9449
X5.5059Y-5.9803
X5.5059Y-6.0157
X5.5157Y-6.3878
X5.5157Y-6.4232
X5.5157Y-6.4587
X5.5157Y-6.4941
X5.5157Y-6.5295
X5.5157Y-6.565
X5.5157Y-6.6004
X5.5157Y-6.6358
X5.5157Y-6.6713
X5.5157Y-6.7067
X5.5157Y-6.7421
X5.5157Y-6.7776
X5.5157Y-6.813
X4.1437Y-4.897
X4.1437Y-4.9329
X4.1437Y-4.9683
X4.1437Y-5.0037
X4.1437Y-5.0388
X4.1437Y-5.0742
X4.1437Y-5.11
X4.1795Y-4.897
X4.1795Y-4.9329
X4.1795Y-4.9683
X4.1795Y-5.0037
X4.1795Y-5.0388
X4.1795Y-5.0742
X4.1831Y-5.11
X4.215Y-5.0781
X4.215Y-5.11
X4.25Y-5.0781
X4.25Y-5.11
X4.2913Y-5.0781
X4.2913Y-5.11
X4.3331Y-5.0781
X4.3331Y-5.11
X4.3681Y-5.0781
X4.3681Y-5.11
X4.4039Y-4.897
X4.4039Y-4.9329
X4.4039Y-4.9683
X4.4039Y-5.0037
X4.4039Y-5.0388
X4.4039Y-5.0742
X4.4039Y-5.11
X4.439Y-4.897
X4.439Y-4.9329
X4.439Y-4.9683
X4.439Y-5.0037
X4.439Y-5.0388
X4.439Y-5.0742
X4.439Y-5.11
X3.4563Y-5.8191
X3.4563Y-5.8549
X3.4563Y-5.8904
X3.4563Y-5.9254
X3.4563Y-5.9608
X3.4563Y-5.9963
X3.4563Y-6.0321
X3.4913Y-5.8191
X3.4913Y-5.8549
X3.4913Y-5.8904
X3.4913Y-5.9254
X3.4913Y-5.9608
X3.4913Y-5.9963
X3.4913Y-6.0321
X3.5272Y-5.8191
X3.5272Y-5.851
X3.5622Y-5.8191
X3.5622Y-5.851
X3.6039Y-5.8191
X3.6039Y-5.851
X3.6453Y-5.8191
X3.6453Y-5.851
X3.6803Y-5.8191
X3.6803Y-5.851
X3.7122Y-5.8191
X3.7157Y-5.8549
X3.7157Y-5.8904
X3.7157Y-5.9254
X3.7157Y-5.9608
X3.7157Y-5.9963
X3.7157Y-6.0321
X3.7516Y-5.8191
X3.7516Y-5.8549
X3.7516Y-5.8904
X3.7516Y-5.9254
X3.7516Y-5.9608
X3.7516Y-5.9963
X3.7516Y-6.0321
X3.4547Y-6.3892
X3.4547Y-6.425
X3.4547Y-6.4604
X3.4547Y-6.4959
X3.4547Y-6.5309
X3.4547Y-6.5663
X3.4547Y-6.6022
X3.4906Y-6.3892
X3.4906Y-6.425
X3.4906Y-6.4604
X3.4906Y-6.4959
X3.4906Y-6.5309
X3.4906Y-6.5663
X3.4941Y-6.6022
X3.526Y-6.5703
X3.526Y-6.6022
X3.561Y-6.5703
X3.561Y-6.6022
X3.6024Y-6.5703
X3.6024Y-6.6022
X3.6441Y-6.5703
X3.6441Y-6.6022
X3.6791Y-6.5703
X3.6791Y-6.6022
X3.715Y-6.3892
X3.715Y-6.425
X3.715Y-6.4604
X3.715Y-6.4959
X3.715Y-6.5309
X3.715Y-6.5663
X3.715Y-6.6022
X3.75Y-6.3892
X3.75Y-6.425
X3.75Y-6.4604
X3.75Y-6.4959
X3.75Y-6.5309
X3.75Y-6.5663
X3.75Y-6.6022
X3.4563Y-5.3071
X3.4563Y-5.3429
X3.4563Y-5.3783
X3.4563Y-5.4134
X3.4563Y-5.4488
X3.4563Y-5.4843
X3.4563Y-5.5201
X3.4913Y-5.3071
X3.4913Y-5.3429
X3.4913Y-5.3783
X3.4913Y-5.4134
X3.4913Y-5.4488
X3.4913Y-5.4843
X3.4913Y-5.5201
X3.5272Y-5.3071
X3.5272Y-5.339
X3.5622Y-5.3071
X3.5622Y-5.339
X3.6039Y-5.3071
X3.6039Y-5.339
X3.6453Y-5.3071
X3.6453Y-5.339
X3.6803Y-5.3071
X3.6803Y-5.339
X3.7122Y-5.3071
X3.7157Y-5.3429
X3.7157Y-5.3783
X3.7157Y-5.4134
X3.7157Y-5.4488
X3.7157Y-5.4843
X3.7157Y-5.5201
X3.7516Y-5.3071
X3.7516Y-5.3429
X3.7516Y-5.3783
X3.7516Y-5.4134
X3.7516Y-5.4488
X3.7516Y-5.4843
X3.7516Y-5.5201
X4.1437Y-6.3892
X4.1437Y-6.425
X4.1437Y-6.4604
X4.1437Y-6.4959
X4.1437Y-6.5309
X4.1437Y-6.5663
X4.1437Y-6.6022
X4.1795Y-6.3892
X4.1795Y-6.425
X4.1795Y-6.4604
X4.1795Y-6.4959
X4.1795Y-6.5309
X4.1795Y-6.5663
X4.1831Y-6.6022
X4.215Y-6.5703
X4.215Y-6.6022
X4.25Y-6.5703
X4.25Y-6.6022
X4.2913Y-6.5703
X4.2913Y-6.6022
X4.3331Y-6.5703
X4.3331Y-6.6022
X4.3681Y-6.5703
X4.3681Y-6.6022
X4.4039Y-6.3892
X4.4039Y-6.425
X4.4039Y-6.4604
X4.4039Y-6.4959
X4.4039Y-6.5309
X4.4039Y-6.5663
X4.4039Y-6.6022
X4.439Y-6.3892
X4.439Y-6.425
X4.439Y-6.4604
X4.439Y-6.4959
X4.439Y-6.5309
X4.439Y-6.5663
X4.439Y-6.6022
X3.4547Y-4.401
X3.4547Y-4.4368
X3.4547Y-4.4722
X3.4547Y-4.5077
X3.4547Y-4.5427
X3.4547Y-4.5781
X3.4547Y-4.614
X3.4906Y-4.401
X3.4906Y-4.4368
X3.4906Y-4.4722
X3.4906Y-4.5077
X3.4906Y-4.5427
X3.4906Y-4.5781
X3.4941Y-4.614
X3.526Y-4.5821
X3.526Y-4.614
X3.561Y-4.5821
X3.561Y-4.614
X3.6024Y-4.5821
X3.6024Y-4.614
X3.6441Y-4.5821
X3.6441Y-4.614
X3.6791Y-4.5821
X3.6791Y-4.614
X3.715Y-4.401
X3.715Y-4.4368
X3.715Y-4.4722
X3.715Y-4.5077
X3.715Y-4.5427
X3.715Y-4.5781
X3.715Y-4.614
X3.75Y-4.401
X3.75Y-4.4368
X3.75Y-4.4722
X3.75Y-4.5077
X3.75Y-4.5427
X3.75Y-4.5781
X3.75Y-4.614
X3.4547Y-4.897
X3.4547Y-4.9329
X3.4547Y-4.9683
X3.4547Y-5.0037
X3.4547Y-5.0388
X3.4547Y-5.0742
X3.4547Y-5.11
X3.4906Y-4.897
X3.4906Y-4.9329
X3.4906Y-4.9683
X3.4906Y-5.0037
X3.4906Y-5.0388
X3.4906Y-5.0742
X3.4941Y-5.11
X3.526Y-5.0781
X3.526Y-5.11
X3.561Y-5.0781
X3.561Y-5.11
X3.6024Y-5.0781
X3.6024Y-5.11
X3.6441Y-5.0781
X3.6441Y-5.11
X3.6791Y-5.0781
X3.6791Y-5.11
X3.715Y-4.897
X3.715Y-4.9329
X3.715Y-4.9683
X3.715Y-5.0037
X3.715Y-5.0388
X3.715Y-5.0742
X3.715Y-5.11
X3.75Y-4.897
X3.75Y-4.9329
X3.75Y-4.9683
X3.75Y-5.0037
X3.75Y-5.0388
X3.75Y-5.0742
X3.75Y-5.11
X4.1437Y-6.8813
X4.1437Y-6.9171
X4.1437Y-6.9526
X4.1437Y-6.988
X4.1437Y-7.023
X4.1437Y-7.0585
X4.1437Y-7.0943
X4.1795Y-6.8813
X4.1795Y-6.9171
X4.1795Y-6.9526
X4.1795Y-6.988
X4.1795Y-7.023
X4.1795Y-7.0585
X4.1831Y-7.0943
X4.215Y-7.0624
X4.215Y-7.0943
X4.25Y-7.0624
X4.25Y-7.0943
X4.2913Y-7.0624
X4.2913Y-7.0943
X4.3331Y-7.0624
X4.3331Y-7.0943
X4.3681Y-7.0624
X4.3681Y-7.0943
X4.4039Y-6.8813
X4.4039Y-6.9171
X4.4039Y-6.9526
X4.4039Y-6.988
X4.4039Y-7.023
X4.4039Y-7.0585
X4.4039Y-7.0943
X4.439Y-6.8813
X4.439Y-6.9171
X4.439Y-6.9526
X4.439Y-6.988
X4.439Y-7.023
X4.439Y-7.0585
X4.439Y-7.0943
X4.1453Y-5.8157
X4.1453Y-5.8516
X4.1453Y-5.887
X4.1453Y-5.922
X4.1453Y-5.9575
X4.1453Y-5.9929
X4.1453Y-6.0287
X4.1803Y-5.8157
X4.1803Y-5.8516
X4.1803Y-5.887
X4.1803Y-5.922
X4.1803Y-5.9575
X4.1803Y-5.9929
X4.1803Y-6.0287
X4.2161Y-5.8157
X4.2161Y-5.8476
X4.2512Y-5.8157
X4.2512Y-5.8476
X4.2929Y-5.8157
X4.2929Y-5.8476
X4.3343Y-5.8157
X4.3343Y-5.8476
X4.3693Y-5.8157
X4.3693Y-5.8476
X4.4012Y-5.8157
X4.4047Y-5.8516
X4.4047Y-5.887
X4.4047Y-5.922
X4.4047Y-5.9575
X4.4047Y-5.9929
X4.4047Y-6.0287
X4.4406Y-5.8157
X4.4406Y-5.8516
X4.4406Y-5.887
X4.4406Y-5.922
X4.4406Y-5.9575
X4.4406Y-5.9929
X4.4406Y-6.0287
X4.1437Y-4.401
X4.1437Y-4.4368
X4.1437Y-4.4722
X4.1437Y-4.5077
X4.1437Y-4.5427
X4.1437Y-4.5781
X4.1437Y-4.614
X4.1795Y-4.401
X4.1795Y-4.4368
X4.1795Y-4.4722
X4.1795Y-4.5077
X4.1795Y-4.5427
X4.1795Y-4.5781
X4.1831Y-4.614
X4.215Y-4.5821
X4.215Y-4.614
X4.25Y-4.5821
X4.25Y-4.614
X4.2913Y-4.5821
X4.2913Y-4.614
X4.3331Y-4.5821
X4.3331Y-4.614
X4.3681Y-4.5821
X4.3681Y-4.614
X4.4039Y-4.401
X4.4039Y-4.4368
X4.4039Y-4.4722
X4.4039Y-4.5077
X4.4039Y-4.5427
X4.4039Y-4.5781
X4.4039Y-4.614
X4.439Y-4.401
X4.439Y-4.4368
X4.439Y-4.4722
X4.439Y-4.5077
X4.439Y-4.5427
X4.439Y-4.5781
X4.439Y-4.614
X3.4547Y-6.8813
X3.4547Y-6.9171
X3.4547Y-6.9526
X3.4547Y-6.988
X3.4547Y-7.023
X3.4547Y-7.0585
X3.4547Y-7.0943
X3.4906Y-6.8813
X3.4906Y-6.9171
X3.4906Y-6.9526
X3.4906Y-6.988
X3.4906Y-7.023
X3.4906Y-7.0585
X3.4941Y-7.0943
X3.526Y-7.0624
X3.526Y-7.0943
X3.561Y-7.0624
X3.561Y-7.0943
X3.6024Y-7.0624
X3.6024Y-7.0943
X3.6441Y-7.0624
X3.6441Y-7.0943
X3.6791Y-7.0624
X3.6791Y-7.0943
X3.715Y-6.8813
X3.715Y-6.9171
X3.715Y-6.9526
X3.715Y-6.988
X3.715Y-7.023
X3.715Y-7.0585
X3.715Y-7.0943
X3.75Y-6.8813
X3.75Y-6.9171
X3.75Y-6.9526
X3.75Y-6.988
X3.75Y-7.023
X3.75Y-7.0585
X3.75Y-7.0943
X4.1453Y-5.3096
X4.1453Y-5.3455
X4.1453Y-5.3809
X4.1453Y-5.4159
X4.1453Y-5.4514
X4.1453Y-5.4868
X4.1453Y-5.5226
X4.1803Y-5.3096
X4.1803Y-5.3455
X4.1803Y-5.3809
X4.1803Y-5.4159
X4.1803Y-5.4514
X4.1803Y-5.4868
X4.1803Y-5.5226
X4.2161Y-5.3096
X4.2161Y-5.3415
X4.2512Y-5.3096
X4.2512Y-5.3415
X4.2929Y-5.3096
X4.2929Y-5.3415
X4.3343Y-5.3096
X4.3343Y-5.3415
X4.3693Y-5.3096
X4.3693Y-5.3415
X4.4012Y-5.3096
X4.4047Y-5.3455
X4.4047Y-5.3809
X4.4047Y-5.4159
X4.4047Y-5.4514
X4.4047Y-5.4868
X4.4047Y-5.5226
X4.4406Y-5.3096
X4.4406Y-5.3455
X4.4406Y-5.3809
X4.4406Y-5.4159
X4.4406Y-5.4514
X4.4406Y-5.4868
X4.4406Y-5.5226
T2
X3.8524Y-6.2008
X3.88Y-6.134
X3.88Y-6.2676
X3.9469Y-6.1063
X3.9469Y-6.2953
X4.0137Y-6.134
X4.0137Y-6.2676
X4.0413Y-6.2008
X3.8327Y-4.2028
X3.8604Y-4.1359
X3.8604Y-4.2696
X3.9272Y-4.1083
X3.9272Y-4.2972
X3.994Y-4.1359
X3.994Y-4.2696
X4.0217Y-4.2028
T3
X3.9469Y-6.2008
X2.7559Y-7.0276
X3.9272Y-4.2028
X4.8031Y-7.0276
T4
X2.374Y-4.1929
X2.374Y-7.0276
X5.4055Y-4.1929
X5.4055Y-7.0276
T0
M30
