G04 #@! TF.GenerationSoftware,KiCad,Pcbnew,(5.1.4)-1*
G04 #@! TF.CreationDate,2019-11-20T08:20:37+01:00*
G04 #@! TF.ProjectId,hardware_4850,68617264-7761-4726-955f-343835302e6b,rev?*
G04 #@! TF.SameCoordinates,Original*
G04 #@! TF.FileFunction,Copper,L2,Inr*
G04 #@! TF.FilePolarity,Positive*
%FSLAX46Y46*%
G04 Gerber Fmt 4.6, Leading zero omitted, Abs format (unit mm)*
G04 Created by KiCad (PCBNEW (5.1.4)-1) date 2019-11-20 08:20:37*
%MOMM*%
%LPD*%
G04 APERTURE LIST*
%ADD10C,5.500000*%
%ADD11C,0.800000*%
%ADD12C,6.400000*%
%ADD13R,1.000000X1.000000*%
%ADD14R,1.400000X1.000000*%
%ADD15C,0.500000*%
%ADD16C,0.250000*%
G04 APERTURE END LIST*
D10*
X122000000Y-178500000D03*
X70000000Y-178500000D03*
X60300000Y-178500000D03*
X137300000Y-178500000D03*
X137300000Y-106500000D03*
X60300000Y-106500000D03*
D11*
X101947056Y-155802944D03*
X100250000Y-155100000D03*
X98552944Y-155802944D03*
X97850000Y-157500000D03*
X98552944Y-159197056D03*
X100250000Y-159900000D03*
X101947056Y-159197056D03*
X102650000Y-157500000D03*
D12*
X100250000Y-157500000D03*
D11*
X101447056Y-105052944D03*
X99750000Y-104350000D03*
X98052944Y-105052944D03*
X97350000Y-106750000D03*
X98052944Y-108447056D03*
X99750000Y-109150000D03*
X101447056Y-108447056D03*
X102150000Y-106750000D03*
D12*
X99750000Y-106750000D03*
D13*
X111860000Y-165885000D03*
X111860000Y-162285000D03*
X107060000Y-166885000D03*
X106160000Y-166785000D03*
X106160000Y-165885000D03*
X106160000Y-164995000D03*
X106160000Y-164095000D03*
X106160000Y-163195000D03*
X106160000Y-162285000D03*
X111860000Y-166785000D03*
X111860000Y-163195000D03*
X111860000Y-164095000D03*
X111860000Y-164995000D03*
X110950000Y-166885000D03*
D14*
X109000000Y-166885000D03*
D13*
X110060000Y-166885000D03*
X107950000Y-166885000D03*
X105250000Y-166785000D03*
X105250000Y-163195000D03*
X105250000Y-164995000D03*
X105250000Y-164095000D03*
X105250000Y-162285000D03*
X105250000Y-165885000D03*
X105250000Y-167695000D03*
X112750000Y-164095000D03*
X112750000Y-162285000D03*
X112750000Y-163195000D03*
X112750000Y-165885000D03*
X112750000Y-164995000D03*
X112750000Y-166785000D03*
X112750000Y-167695000D03*
X106250000Y-167695000D03*
X110950000Y-167695000D03*
X107060000Y-167695000D03*
X110060000Y-167695000D03*
X111860000Y-167695000D03*
D14*
X109000000Y-167695000D03*
D13*
X107950000Y-167695000D03*
X111860000Y-178385000D03*
X111860000Y-174785000D03*
X107060000Y-179385000D03*
X106160000Y-179285000D03*
X106160000Y-178385000D03*
X106160000Y-177495000D03*
X106160000Y-176595000D03*
X106160000Y-175695000D03*
X106160000Y-174785000D03*
X111860000Y-179285000D03*
X111860000Y-175695000D03*
X111860000Y-176595000D03*
X111860000Y-177495000D03*
X110950000Y-179385000D03*
D14*
X109000000Y-179385000D03*
D13*
X110060000Y-179385000D03*
X107950000Y-179385000D03*
X105250000Y-179285000D03*
X105250000Y-175695000D03*
X105250000Y-177495000D03*
X105250000Y-176595000D03*
X105250000Y-174785000D03*
X105250000Y-178385000D03*
X105250000Y-180195000D03*
X112750000Y-176595000D03*
X112750000Y-174785000D03*
X112750000Y-175695000D03*
X112750000Y-178385000D03*
X112750000Y-177495000D03*
X112750000Y-179285000D03*
X112750000Y-180195000D03*
X106250000Y-180195000D03*
X110950000Y-180195000D03*
X107060000Y-180195000D03*
X110060000Y-180195000D03*
X111860000Y-180195000D03*
D14*
X109000000Y-180195000D03*
D13*
X107950000Y-180195000D03*
X94360000Y-165885000D03*
X94360000Y-162285000D03*
X89560000Y-166885000D03*
X88660000Y-166785000D03*
X88660000Y-165885000D03*
X88660000Y-164995000D03*
X88660000Y-164095000D03*
X88660000Y-163195000D03*
X88660000Y-162285000D03*
X94360000Y-166785000D03*
X94360000Y-163195000D03*
X94360000Y-164095000D03*
X94360000Y-164995000D03*
X93450000Y-166885000D03*
D14*
X91500000Y-166885000D03*
D13*
X92560000Y-166885000D03*
X90450000Y-166885000D03*
X87750000Y-166785000D03*
X87750000Y-163195000D03*
X87750000Y-164995000D03*
X87750000Y-164095000D03*
X87750000Y-162285000D03*
X87750000Y-165885000D03*
X87750000Y-167695000D03*
X95250000Y-164095000D03*
X95250000Y-162285000D03*
X95250000Y-163195000D03*
X95250000Y-165885000D03*
X95250000Y-164995000D03*
X95250000Y-166785000D03*
X95250000Y-167695000D03*
X88750000Y-167695000D03*
X93450000Y-167695000D03*
X89560000Y-167695000D03*
X92560000Y-167695000D03*
X94360000Y-167695000D03*
D14*
X91500000Y-167695000D03*
D13*
X90450000Y-167695000D03*
X94360000Y-178385000D03*
X94360000Y-174785000D03*
X89560000Y-179385000D03*
X88660000Y-179285000D03*
X88660000Y-178385000D03*
X88660000Y-177495000D03*
X88660000Y-176595000D03*
X88660000Y-175695000D03*
X88660000Y-174785000D03*
X94360000Y-179285000D03*
X94360000Y-175695000D03*
X94360000Y-176595000D03*
X94360000Y-177495000D03*
X93450000Y-179385000D03*
D14*
X91500000Y-179385000D03*
D13*
X92560000Y-179385000D03*
X90450000Y-179385000D03*
X87750000Y-179285000D03*
X87750000Y-175695000D03*
X87750000Y-177495000D03*
X87750000Y-176595000D03*
X87750000Y-174785000D03*
X87750000Y-178385000D03*
X87750000Y-180195000D03*
X95250000Y-176595000D03*
X95250000Y-174785000D03*
X95250000Y-175695000D03*
X95250000Y-178385000D03*
X95250000Y-177495000D03*
X95250000Y-179285000D03*
X95250000Y-180195000D03*
X88750000Y-180195000D03*
X93450000Y-180195000D03*
X89560000Y-180195000D03*
X92560000Y-180195000D03*
X94360000Y-180195000D03*
D14*
X91500000Y-180195000D03*
D13*
X90450000Y-180195000D03*
X106180000Y-149530000D03*
X106180000Y-153130000D03*
X110980000Y-148530000D03*
X111880000Y-148630000D03*
X111880000Y-149530000D03*
X111880000Y-150420000D03*
X111880000Y-151320000D03*
X111880000Y-152220000D03*
X111880000Y-153130000D03*
X106180000Y-148630000D03*
X106180000Y-152220000D03*
X106180000Y-151320000D03*
X106180000Y-150420000D03*
X107090000Y-148530000D03*
D14*
X109040000Y-148530000D03*
D13*
X107980000Y-148530000D03*
X110090000Y-148530000D03*
X112790000Y-148630000D03*
X112790000Y-152220000D03*
X112790000Y-150420000D03*
X112790000Y-151320000D03*
X112790000Y-153130000D03*
X112790000Y-149530000D03*
X112790000Y-147720000D03*
X105290000Y-151320000D03*
X105290000Y-153130000D03*
X105290000Y-152220000D03*
X105290000Y-149530000D03*
X105290000Y-150420000D03*
X105290000Y-148630000D03*
X105290000Y-147720000D03*
X111790000Y-147720000D03*
X107090000Y-147720000D03*
X110980000Y-147720000D03*
X107980000Y-147720000D03*
X106180000Y-147720000D03*
D14*
X109040000Y-147720000D03*
D13*
X110090000Y-147720000D03*
X106180000Y-136675000D03*
X106180000Y-140275000D03*
X110980000Y-135675000D03*
X111880000Y-135775000D03*
X111880000Y-136675000D03*
X111880000Y-137565000D03*
X111880000Y-138465000D03*
X111880000Y-139365000D03*
X111880000Y-140275000D03*
X106180000Y-135775000D03*
X106180000Y-139365000D03*
X106180000Y-138465000D03*
X106180000Y-137565000D03*
X107090000Y-135675000D03*
D14*
X109040000Y-135675000D03*
D13*
X107980000Y-135675000D03*
X110090000Y-135675000D03*
X112790000Y-135775000D03*
X112790000Y-139365000D03*
X112790000Y-137565000D03*
X112790000Y-138465000D03*
X112790000Y-140275000D03*
X112790000Y-136675000D03*
X112790000Y-134865000D03*
X105290000Y-138465000D03*
X105290000Y-140275000D03*
X105290000Y-139365000D03*
X105290000Y-136675000D03*
X105290000Y-137565000D03*
X105290000Y-135775000D03*
X105290000Y-134865000D03*
X111790000Y-134865000D03*
X107090000Y-134865000D03*
X110980000Y-134865000D03*
X107980000Y-134865000D03*
X106180000Y-134865000D03*
D14*
X109040000Y-134865000D03*
D13*
X110090000Y-134865000D03*
X88680000Y-149615000D03*
X88680000Y-153215000D03*
X93480000Y-148615000D03*
X94380000Y-148715000D03*
X94380000Y-149615000D03*
X94380000Y-150505000D03*
X94380000Y-151405000D03*
X94380000Y-152305000D03*
X94380000Y-153215000D03*
X88680000Y-148715000D03*
X88680000Y-152305000D03*
X88680000Y-151405000D03*
X88680000Y-150505000D03*
X89590000Y-148615000D03*
D14*
X91540000Y-148615000D03*
D13*
X90480000Y-148615000D03*
X92590000Y-148615000D03*
X95290000Y-148715000D03*
X95290000Y-152305000D03*
X95290000Y-150505000D03*
X95290000Y-151405000D03*
X95290000Y-153215000D03*
X95290000Y-149615000D03*
X95290000Y-147805000D03*
X87790000Y-151405000D03*
X87790000Y-153215000D03*
X87790000Y-152305000D03*
X87790000Y-149615000D03*
X87790000Y-150505000D03*
X87790000Y-148715000D03*
X87790000Y-147805000D03*
X94290000Y-147805000D03*
X89590000Y-147805000D03*
X93480000Y-147805000D03*
X90480000Y-147805000D03*
X88680000Y-147805000D03*
D14*
X91540000Y-147805000D03*
D13*
X92590000Y-147805000D03*
X88680000Y-136610000D03*
X88680000Y-140210000D03*
X93480000Y-135610000D03*
X94380000Y-135710000D03*
X94380000Y-136610000D03*
X94380000Y-137500000D03*
X94380000Y-138400000D03*
X94380000Y-139300000D03*
X94380000Y-140210000D03*
X88680000Y-135710000D03*
X88680000Y-139300000D03*
X88680000Y-138400000D03*
X88680000Y-137500000D03*
X89590000Y-135610000D03*
D14*
X91540000Y-135610000D03*
D13*
X90480000Y-135610000D03*
X92590000Y-135610000D03*
X95290000Y-135710000D03*
X95290000Y-139300000D03*
X95290000Y-137500000D03*
X95290000Y-138400000D03*
X95290000Y-140210000D03*
X95290000Y-136610000D03*
X95290000Y-134800000D03*
X87790000Y-138400000D03*
X87790000Y-140210000D03*
X87790000Y-139300000D03*
X87790000Y-136610000D03*
X87790000Y-137500000D03*
X87790000Y-135710000D03*
X87790000Y-134800000D03*
X94290000Y-134800000D03*
X89590000Y-134800000D03*
X93480000Y-134800000D03*
X90480000Y-134800000D03*
X88680000Y-134800000D03*
D14*
X91540000Y-134800000D03*
D13*
X92590000Y-134800000D03*
X111860000Y-115385000D03*
X111860000Y-111785000D03*
X107060000Y-116385000D03*
X106160000Y-116285000D03*
X106160000Y-115385000D03*
X106160000Y-114495000D03*
X106160000Y-113595000D03*
X106160000Y-112695000D03*
X106160000Y-111785000D03*
X111860000Y-116285000D03*
X111860000Y-112695000D03*
X111860000Y-113595000D03*
X111860000Y-114495000D03*
X110950000Y-116385000D03*
D14*
X109000000Y-116385000D03*
D13*
X110060000Y-116385000D03*
X107950000Y-116385000D03*
X105250000Y-116285000D03*
X105250000Y-112695000D03*
X105250000Y-114495000D03*
X105250000Y-113595000D03*
X105250000Y-111785000D03*
X105250000Y-115385000D03*
X105250000Y-117195000D03*
X112750000Y-113595000D03*
X112750000Y-111785000D03*
X112750000Y-112695000D03*
X112750000Y-115385000D03*
X112750000Y-114495000D03*
X112750000Y-116285000D03*
X112750000Y-117195000D03*
X106250000Y-117195000D03*
X110950000Y-117195000D03*
X107060000Y-117195000D03*
X110060000Y-117195000D03*
X111860000Y-117195000D03*
D14*
X109000000Y-117195000D03*
D13*
X107950000Y-117195000D03*
X111860000Y-127985000D03*
X111860000Y-124385000D03*
X107060000Y-128985000D03*
X106160000Y-128885000D03*
X106160000Y-127985000D03*
X106160000Y-127095000D03*
X106160000Y-126195000D03*
X106160000Y-125295000D03*
X106160000Y-124385000D03*
X111860000Y-128885000D03*
X111860000Y-125295000D03*
X111860000Y-126195000D03*
X111860000Y-127095000D03*
X110950000Y-128985000D03*
D14*
X109000000Y-128985000D03*
D13*
X110060000Y-128985000D03*
X107950000Y-128985000D03*
X105250000Y-128885000D03*
X105250000Y-125295000D03*
X105250000Y-127095000D03*
X105250000Y-126195000D03*
X105250000Y-124385000D03*
X105250000Y-127985000D03*
X105250000Y-129795000D03*
X112750000Y-126195000D03*
X112750000Y-124385000D03*
X112750000Y-125295000D03*
X112750000Y-127985000D03*
X112750000Y-127095000D03*
X112750000Y-128885000D03*
X112750000Y-129795000D03*
X106250000Y-129795000D03*
X110950000Y-129795000D03*
X107060000Y-129795000D03*
X110060000Y-129795000D03*
X111860000Y-129795000D03*
D14*
X109000000Y-129795000D03*
D13*
X107950000Y-129795000D03*
X94360000Y-115385000D03*
X94360000Y-111785000D03*
X89560000Y-116385000D03*
X88660000Y-116285000D03*
X88660000Y-115385000D03*
X88660000Y-114495000D03*
X88660000Y-113595000D03*
X88660000Y-112695000D03*
X88660000Y-111785000D03*
X94360000Y-116285000D03*
X94360000Y-112695000D03*
X94360000Y-113595000D03*
X94360000Y-114495000D03*
X93450000Y-116385000D03*
D14*
X91500000Y-116385000D03*
D13*
X92560000Y-116385000D03*
X90450000Y-116385000D03*
X87750000Y-116285000D03*
X87750000Y-112695000D03*
X87750000Y-114495000D03*
X87750000Y-113595000D03*
X87750000Y-111785000D03*
X87750000Y-115385000D03*
X87750000Y-117195000D03*
X95250000Y-113595000D03*
X95250000Y-111785000D03*
X95250000Y-112695000D03*
X95250000Y-115385000D03*
X95250000Y-114495000D03*
X95250000Y-116285000D03*
X95250000Y-117195000D03*
X88750000Y-117195000D03*
X93450000Y-117195000D03*
X89560000Y-117195000D03*
X92560000Y-117195000D03*
X94360000Y-117195000D03*
D14*
X91500000Y-117195000D03*
D13*
X90450000Y-117195000D03*
X94360000Y-127985000D03*
X94360000Y-124385000D03*
X89560000Y-128985000D03*
X88660000Y-128885000D03*
X88660000Y-127985000D03*
X88660000Y-127095000D03*
X88660000Y-126195000D03*
X88660000Y-125295000D03*
X88660000Y-124385000D03*
X94360000Y-128885000D03*
X94360000Y-125295000D03*
X94360000Y-126195000D03*
X94360000Y-127095000D03*
X93450000Y-128985000D03*
D14*
X91500000Y-128985000D03*
D13*
X92560000Y-128985000D03*
X90450000Y-128985000D03*
X87750000Y-128885000D03*
X87750000Y-125295000D03*
X87750000Y-127095000D03*
X87750000Y-126195000D03*
X87750000Y-124385000D03*
X87750000Y-127985000D03*
X87750000Y-129795000D03*
X95250000Y-126195000D03*
X95250000Y-124385000D03*
X95250000Y-125295000D03*
X95250000Y-127985000D03*
X95250000Y-127095000D03*
X95250000Y-128885000D03*
X95250000Y-129795000D03*
X88750000Y-129795000D03*
X93450000Y-129795000D03*
X89560000Y-129795000D03*
X92560000Y-129795000D03*
X94360000Y-129795000D03*
D14*
X91500000Y-129795000D03*
D13*
X90450000Y-129795000D03*
D11*
X76480000Y-138270000D03*
X81880000Y-141870000D03*
X76480000Y-142770000D03*
X77380000Y-142770000D03*
X82780000Y-140970000D03*
X77380000Y-140070000D03*
X78280000Y-140070000D03*
X82780000Y-140070000D03*
X76480000Y-140970000D03*
X83680000Y-140970000D03*
X82780000Y-141870000D03*
X76480000Y-140070000D03*
X78280000Y-141870000D03*
X77380000Y-139170000D03*
X81880000Y-142770000D03*
X82780000Y-142770000D03*
X77380000Y-143670000D03*
X83680000Y-141870000D03*
X76480000Y-141870000D03*
X83680000Y-139170000D03*
X78280000Y-142770000D03*
X78280000Y-140970000D03*
X76480000Y-139170000D03*
X82780000Y-139170000D03*
X81880000Y-140070000D03*
X78280000Y-143670000D03*
X77380000Y-138270000D03*
X76480000Y-143670000D03*
X81880000Y-143670000D03*
X82780000Y-143670000D03*
X83680000Y-142770000D03*
X83680000Y-143670000D03*
X81880000Y-138270000D03*
X78280000Y-139170000D03*
X83680000Y-138270000D03*
X83680000Y-140070000D03*
X78280000Y-138270000D03*
X82780000Y-138270000D03*
X81880000Y-139170000D03*
X77380000Y-140970000D03*
X81880000Y-140970000D03*
X77380000Y-141870000D03*
X81880000Y-145470000D03*
X76480000Y-146370000D03*
X77380000Y-146370000D03*
X81880000Y-146370000D03*
X83680000Y-146370000D03*
X83680000Y-144570000D03*
X83680000Y-145470000D03*
X81880000Y-144570000D03*
X82780000Y-145470000D03*
X78280000Y-144570000D03*
X78280000Y-146370000D03*
X82780000Y-144570000D03*
X76480000Y-145470000D03*
X82780000Y-146370000D03*
X76480000Y-144570000D03*
X77380000Y-144570000D03*
X78280000Y-145470000D03*
X77380000Y-145470000D03*
X76480000Y-164770000D03*
X81880000Y-168370000D03*
X76480000Y-169270000D03*
X77380000Y-169270000D03*
X82780000Y-167470000D03*
X77380000Y-166570000D03*
X78280000Y-166570000D03*
X82780000Y-166570000D03*
X76480000Y-167470000D03*
X83680000Y-167470000D03*
X82780000Y-168370000D03*
X76480000Y-166570000D03*
X78280000Y-168370000D03*
X77380000Y-165670000D03*
X81880000Y-169270000D03*
X82780000Y-169270000D03*
X77380000Y-170170000D03*
X83680000Y-168370000D03*
X76480000Y-168370000D03*
X83680000Y-165670000D03*
X78280000Y-169270000D03*
X78280000Y-167470000D03*
X76480000Y-165670000D03*
X82780000Y-165670000D03*
X81880000Y-166570000D03*
X78280000Y-170170000D03*
X77380000Y-164770000D03*
X76480000Y-170170000D03*
X81880000Y-170170000D03*
X82780000Y-170170000D03*
X83680000Y-169270000D03*
X83680000Y-170170000D03*
X81880000Y-164770000D03*
X78280000Y-165670000D03*
X83680000Y-164770000D03*
X83680000Y-166570000D03*
X78280000Y-164770000D03*
X82780000Y-164770000D03*
X81880000Y-165670000D03*
X77380000Y-167470000D03*
X81880000Y-167470000D03*
X77380000Y-168370000D03*
X81880000Y-171970000D03*
X76480000Y-172870000D03*
X77380000Y-172870000D03*
X81880000Y-172870000D03*
X83680000Y-172870000D03*
X83680000Y-171070000D03*
X83680000Y-171970000D03*
X81880000Y-171070000D03*
X82780000Y-171970000D03*
X78280000Y-171070000D03*
X78280000Y-172870000D03*
X82780000Y-171070000D03*
X76480000Y-171970000D03*
X82780000Y-172870000D03*
X76480000Y-171070000D03*
X77380000Y-171070000D03*
X78280000Y-171970000D03*
X77380000Y-171970000D03*
X76460000Y-112050000D03*
X77360000Y-112050000D03*
X78260000Y-112050000D03*
X81860000Y-112050000D03*
X82760000Y-112050000D03*
X83660000Y-112050000D03*
X76460000Y-112950000D03*
X77360000Y-112950000D03*
X78260000Y-112950000D03*
X81860000Y-112950000D03*
X82760000Y-112950000D03*
X83660000Y-112950000D03*
X76460000Y-113850000D03*
X77360000Y-113850000D03*
X78260000Y-113850000D03*
X81860000Y-113850000D03*
X82760000Y-113850000D03*
X83660000Y-113850000D03*
X76460000Y-114750000D03*
X77360000Y-114750000D03*
X78260000Y-114750000D03*
X81860000Y-114750000D03*
X82760000Y-114750000D03*
X83660000Y-114750000D03*
X76460000Y-115650000D03*
X77360000Y-115650000D03*
X78260000Y-115650000D03*
X81860000Y-115650000D03*
X82760000Y-115650000D03*
X83660000Y-115650000D03*
X76460000Y-116550000D03*
X77360000Y-116550000D03*
X78260000Y-116550000D03*
X81860000Y-116550000D03*
X82760000Y-116550000D03*
X83660000Y-116550000D03*
X76460000Y-117450000D03*
X77360000Y-117450000D03*
X78260000Y-117450000D03*
X81860000Y-117450000D03*
X82760000Y-117450000D03*
X83660000Y-117450000D03*
X76460000Y-118350000D03*
X77360000Y-118350000D03*
X78260000Y-118350000D03*
X81860000Y-118350000D03*
X82760000Y-118350000D03*
X83660000Y-118350000D03*
X76460000Y-119250000D03*
X77360000Y-119250000D03*
X78260000Y-119250000D03*
X81860000Y-119250000D03*
X82760000Y-119250000D03*
X83660000Y-119250000D03*
X76460000Y-120150000D03*
X77360000Y-120150000D03*
X78260000Y-120150000D03*
X81860000Y-120150000D03*
X82760000Y-120150000D03*
X83660000Y-120150000D03*
X65850000Y-140350000D03*
X59550000Y-141250000D03*
X64950000Y-141250000D03*
X58650000Y-141250000D03*
X68550000Y-141250000D03*
X57750000Y-142150000D03*
X62250000Y-141250000D03*
X62250000Y-142150000D03*
X63150000Y-142150000D03*
X66750000Y-142150000D03*
X60450000Y-141250000D03*
X64050000Y-141250000D03*
X67650000Y-141250000D03*
X65850000Y-141250000D03*
X61350000Y-140350000D03*
X62250000Y-140350000D03*
X63150000Y-141250000D03*
X64050000Y-142150000D03*
X65850000Y-142150000D03*
X64950000Y-142150000D03*
X67650000Y-140350000D03*
X68550000Y-142150000D03*
X63150000Y-140350000D03*
X66750000Y-141250000D03*
X60450000Y-142150000D03*
X57750000Y-141250000D03*
X64050000Y-140350000D03*
X61350000Y-141250000D03*
X64950000Y-140350000D03*
X58650000Y-142150000D03*
X61350000Y-142150000D03*
X68550000Y-140350000D03*
X67650000Y-142150000D03*
X59550000Y-142150000D03*
X66750000Y-140350000D03*
X68550000Y-138550000D03*
X64050000Y-136750000D03*
X58650000Y-139450000D03*
X59550000Y-139450000D03*
X60450000Y-139450000D03*
X66750000Y-137650000D03*
X57750000Y-138550000D03*
X61350000Y-139450000D03*
X62250000Y-139450000D03*
X63150000Y-139450000D03*
X64050000Y-139450000D03*
X64950000Y-139450000D03*
X63150000Y-138550000D03*
X64950000Y-136750000D03*
X65850000Y-137650000D03*
X61350000Y-136750000D03*
X64050000Y-137650000D03*
X57750000Y-137650000D03*
X65850000Y-138550000D03*
X59550000Y-136750000D03*
X64950000Y-137650000D03*
X60450000Y-136750000D03*
X62250000Y-137650000D03*
X67650000Y-137650000D03*
X68550000Y-137650000D03*
X67650000Y-138550000D03*
X64050000Y-138550000D03*
X59550000Y-138550000D03*
X57750000Y-139450000D03*
X57750000Y-136750000D03*
X63150000Y-136750000D03*
X60450000Y-137650000D03*
X60450000Y-138550000D03*
X65850000Y-136750000D03*
X58650000Y-138550000D03*
X62250000Y-136750000D03*
X63150000Y-137650000D03*
X59550000Y-137650000D03*
X58650000Y-137650000D03*
X62250000Y-138550000D03*
X64950000Y-138550000D03*
X66750000Y-138550000D03*
X61350000Y-138550000D03*
X67650000Y-136750000D03*
X58650000Y-136750000D03*
X68550000Y-136750000D03*
X61350000Y-137650000D03*
X66750000Y-136750000D03*
X68550000Y-139450000D03*
X60450000Y-140350000D03*
X66750000Y-139450000D03*
X67650000Y-139450000D03*
X58650000Y-140350000D03*
X59550000Y-140350000D03*
X57750000Y-140350000D03*
X65850000Y-139450000D03*
X90000000Y-103750000D03*
X90900000Y-103750000D03*
X91800000Y-103750000D03*
X92700000Y-103750000D03*
X93600000Y-103750000D03*
X90000000Y-104650000D03*
X90900000Y-104650000D03*
X91800000Y-104650000D03*
X92700000Y-104650000D03*
X93600000Y-104650000D03*
X90000000Y-105550000D03*
X90900000Y-105550000D03*
X91800000Y-105550000D03*
X92700000Y-105550000D03*
X93600000Y-105550000D03*
X90000000Y-106450000D03*
X90900000Y-106450000D03*
X91800000Y-106450000D03*
X92700000Y-106450000D03*
X93600000Y-106450000D03*
X90000000Y-107350000D03*
X90900000Y-107350000D03*
X91800000Y-107350000D03*
X92700000Y-107350000D03*
X93600000Y-107350000D03*
X90000000Y-108250000D03*
X90900000Y-108250000D03*
X91800000Y-108250000D03*
X92700000Y-108250000D03*
X93600000Y-108250000D03*
X111100000Y-103750000D03*
X110200000Y-104650000D03*
X109300000Y-104650000D03*
X111100000Y-104650000D03*
X109300000Y-103750000D03*
X108400000Y-104650000D03*
X107500000Y-105550000D03*
X110200000Y-103750000D03*
X109300000Y-105550000D03*
X108400000Y-103750000D03*
X110200000Y-105550000D03*
X111100000Y-105550000D03*
X107500000Y-104650000D03*
X108400000Y-106450000D03*
X107500000Y-106450000D03*
X110200000Y-106450000D03*
X109300000Y-106450000D03*
X108400000Y-105550000D03*
X111100000Y-107350000D03*
X107500000Y-108250000D03*
X108400000Y-108250000D03*
X109300000Y-108250000D03*
X110200000Y-108250000D03*
X107500000Y-107350000D03*
X108400000Y-107350000D03*
X111100000Y-106450000D03*
X110200000Y-107350000D03*
X111100000Y-108250000D03*
X109300000Y-107350000D03*
X107500000Y-103750000D03*
X107250000Y-157150000D03*
X109950000Y-157150000D03*
X109950000Y-158050000D03*
X109050000Y-158050000D03*
X109050000Y-158950000D03*
X108150000Y-158050000D03*
X109950000Y-156250000D03*
X110850000Y-158050000D03*
X109050000Y-157150000D03*
X107250000Y-156250000D03*
X108150000Y-157150000D03*
X109050000Y-156250000D03*
X110850000Y-158950000D03*
X108150000Y-158950000D03*
X108150000Y-156250000D03*
X109950000Y-158950000D03*
X89500000Y-157150000D03*
X92200000Y-157150000D03*
X90400000Y-158050000D03*
X91300000Y-158950000D03*
X93100000Y-158050000D03*
X89500000Y-158950000D03*
X91300000Y-158050000D03*
X91300000Y-157150000D03*
X92200000Y-158050000D03*
X89500000Y-156250000D03*
X92200000Y-156250000D03*
X90400000Y-156250000D03*
X89500000Y-158050000D03*
X93100000Y-157150000D03*
X92200000Y-158950000D03*
X91300000Y-156250000D03*
X90400000Y-157150000D03*
X93100000Y-158950000D03*
X90400000Y-158950000D03*
X71000000Y-118250000D03*
X64000000Y-159500000D03*
X64425000Y-146175000D03*
X103500000Y-119000000D03*
X73750000Y-113500000D03*
X85750000Y-119500000D03*
X76480000Y-125270000D03*
X81880000Y-128870000D03*
X76480000Y-129770000D03*
X77380000Y-129770000D03*
X82780000Y-127970000D03*
X77380000Y-127070000D03*
X78280000Y-127070000D03*
X82780000Y-127070000D03*
X76480000Y-127970000D03*
X83680000Y-127970000D03*
X82780000Y-128870000D03*
X76480000Y-127070000D03*
X78280000Y-128870000D03*
X77380000Y-126170000D03*
X81880000Y-129770000D03*
X82780000Y-129770000D03*
X77380000Y-130670000D03*
X83680000Y-128870000D03*
X76480000Y-128870000D03*
X83680000Y-126170000D03*
X78280000Y-129770000D03*
X78280000Y-127970000D03*
X76480000Y-126170000D03*
X82780000Y-126170000D03*
X81880000Y-127070000D03*
X78280000Y-130670000D03*
X77380000Y-125270000D03*
X76480000Y-130670000D03*
X81880000Y-130670000D03*
X82780000Y-130670000D03*
X83680000Y-129770000D03*
X83680000Y-130670000D03*
X81880000Y-125270000D03*
X78280000Y-126170000D03*
X83680000Y-125270000D03*
X83680000Y-127070000D03*
X78280000Y-125270000D03*
X82780000Y-125270000D03*
X81880000Y-126170000D03*
X77380000Y-127970000D03*
X81880000Y-127970000D03*
X77380000Y-128870000D03*
X81880000Y-132470000D03*
X76480000Y-133370000D03*
X77380000Y-133370000D03*
X81880000Y-133370000D03*
X83680000Y-133370000D03*
X83680000Y-131570000D03*
X83680000Y-132470000D03*
X81880000Y-131570000D03*
X82780000Y-132470000D03*
X78280000Y-131570000D03*
X78280000Y-133370000D03*
X82780000Y-131570000D03*
X76480000Y-132470000D03*
X82780000Y-133370000D03*
X76480000Y-131570000D03*
X77380000Y-131570000D03*
X78280000Y-132470000D03*
X77380000Y-132470000D03*
X76480000Y-159620000D03*
X77380000Y-159620000D03*
X81880000Y-159620000D03*
X83680000Y-157820000D03*
X81880000Y-151520000D03*
X77380000Y-154220000D03*
X83680000Y-158720000D03*
X76480000Y-156920000D03*
X81880000Y-156920000D03*
X83680000Y-159620000D03*
X83680000Y-156920000D03*
X83680000Y-153320000D03*
X81880000Y-157820000D03*
X78280000Y-152420000D03*
X82780000Y-151520000D03*
X78280000Y-156920000D03*
X77380000Y-151520000D03*
X82780000Y-156920000D03*
X83680000Y-156020000D03*
X83680000Y-151520000D03*
X77380000Y-155120000D03*
X81880000Y-158720000D03*
X81880000Y-152420000D03*
X81880000Y-154220000D03*
X78280000Y-151520000D03*
X82780000Y-159620000D03*
X76480000Y-157820000D03*
X77380000Y-157820000D03*
X82780000Y-158720000D03*
X76480000Y-158720000D03*
X78280000Y-158720000D03*
X77380000Y-158720000D03*
X78280000Y-159620000D03*
X78280000Y-157820000D03*
X82780000Y-157820000D03*
X76480000Y-155120000D03*
X77380000Y-156020000D03*
X82780000Y-156020000D03*
X78280000Y-155120000D03*
X82780000Y-155120000D03*
X77380000Y-152420000D03*
X82780000Y-154220000D03*
X76480000Y-153320000D03*
X78280000Y-156020000D03*
X76480000Y-152420000D03*
X83680000Y-155120000D03*
X82780000Y-153320000D03*
X78280000Y-154220000D03*
X76480000Y-151520000D03*
X76480000Y-156020000D03*
X83680000Y-154220000D03*
X81880000Y-155120000D03*
X77380000Y-153320000D03*
X78280000Y-153320000D03*
X76480000Y-154220000D03*
X81880000Y-156020000D03*
X77380000Y-156920000D03*
X83680000Y-152420000D03*
X82780000Y-152420000D03*
X81880000Y-153320000D03*
X83680000Y-179320000D03*
X81880000Y-177520000D03*
X76480000Y-104670000D03*
X81880000Y-104670000D03*
X83680000Y-107370000D03*
X83680000Y-104670000D03*
X76480000Y-107370000D03*
X77380000Y-180220000D03*
X83680000Y-106470000D03*
X77380000Y-107370000D03*
X81880000Y-107370000D03*
X83680000Y-105570000D03*
X78280000Y-177520000D03*
X76480000Y-106470000D03*
X82780000Y-107370000D03*
X77380000Y-106470000D03*
X78280000Y-103770000D03*
X82780000Y-177520000D03*
X78280000Y-180220000D03*
X77380000Y-103770000D03*
X76480000Y-103770000D03*
X83680000Y-180220000D03*
X76480000Y-180220000D03*
X83680000Y-178420000D03*
X82780000Y-106470000D03*
X81880000Y-180220000D03*
X78280000Y-107370000D03*
X81880000Y-178420000D03*
X83680000Y-181120000D03*
X78280000Y-104670000D03*
X77380000Y-181120000D03*
X83680000Y-103770000D03*
X83680000Y-177520000D03*
X82780000Y-105570000D03*
X82780000Y-181120000D03*
X82780000Y-179320000D03*
X77380000Y-178420000D03*
X76480000Y-181120000D03*
X81880000Y-106470000D03*
X76480000Y-177520000D03*
X77380000Y-177520000D03*
X81880000Y-105570000D03*
X78280000Y-106470000D03*
X78280000Y-181120000D03*
X78280000Y-178420000D03*
X76480000Y-179320000D03*
X77380000Y-179320000D03*
X81880000Y-103770000D03*
X78280000Y-105570000D03*
X76480000Y-105570000D03*
X82780000Y-104670000D03*
X77380000Y-105570000D03*
X82780000Y-180220000D03*
X76480000Y-178420000D03*
X78280000Y-179320000D03*
X77380000Y-104670000D03*
X82780000Y-178420000D03*
X81880000Y-179320000D03*
X81880000Y-181120000D03*
X82780000Y-103770000D03*
X57750000Y-127250000D03*
X58650000Y-127250000D03*
X59550000Y-127250000D03*
X60450000Y-127250000D03*
X61350000Y-127250000D03*
X62250000Y-127250000D03*
X63150000Y-127250000D03*
X64050000Y-127250000D03*
X64950000Y-127250000D03*
X65850000Y-127250000D03*
X66750000Y-127250000D03*
X67650000Y-127250000D03*
X68550000Y-127250000D03*
X57750000Y-128150000D03*
X58650000Y-128150000D03*
X59550000Y-128150000D03*
X60450000Y-128150000D03*
X61350000Y-128150000D03*
X62250000Y-128150000D03*
X63150000Y-128150000D03*
X64050000Y-128150000D03*
X64950000Y-128150000D03*
X65850000Y-128150000D03*
X66750000Y-128150000D03*
X67650000Y-128150000D03*
X68550000Y-128150000D03*
X57750000Y-129050000D03*
X58650000Y-129050000D03*
X59550000Y-129050000D03*
X60450000Y-129050000D03*
X61350000Y-129050000D03*
X62250000Y-129050000D03*
X63150000Y-129050000D03*
X64050000Y-129050000D03*
X64950000Y-129050000D03*
X65850000Y-129050000D03*
X66750000Y-129050000D03*
X67650000Y-129050000D03*
X68550000Y-129050000D03*
X57750000Y-129950000D03*
X58650000Y-129950000D03*
X59550000Y-129950000D03*
X60450000Y-129950000D03*
X61350000Y-129950000D03*
X62250000Y-129950000D03*
X63150000Y-129950000D03*
X64050000Y-129950000D03*
X64950000Y-129950000D03*
X65850000Y-129950000D03*
X66750000Y-129950000D03*
X67650000Y-129950000D03*
X68550000Y-129950000D03*
X57750000Y-130850000D03*
X58650000Y-130850000D03*
X59550000Y-130850000D03*
X60450000Y-130850000D03*
X61350000Y-130850000D03*
X62250000Y-130850000D03*
X63150000Y-130850000D03*
X64050000Y-130850000D03*
X64950000Y-130850000D03*
X65850000Y-130850000D03*
X66750000Y-130850000D03*
X67650000Y-130850000D03*
X68550000Y-130850000D03*
X57750000Y-131750000D03*
X58650000Y-131750000D03*
X59550000Y-131750000D03*
X60450000Y-131750000D03*
X61350000Y-131750000D03*
X62250000Y-131750000D03*
X63150000Y-131750000D03*
X64050000Y-131750000D03*
X64950000Y-131750000D03*
X65850000Y-131750000D03*
X66750000Y-131750000D03*
X67650000Y-131750000D03*
X68550000Y-131750000D03*
X57750000Y-132650000D03*
X58650000Y-132650000D03*
X59550000Y-132650000D03*
X60450000Y-132650000D03*
X61350000Y-132650000D03*
X62250000Y-132650000D03*
X63150000Y-132650000D03*
X64050000Y-132650000D03*
X64950000Y-132650000D03*
X65850000Y-132650000D03*
X66750000Y-132650000D03*
X67650000Y-132650000D03*
X68550000Y-132650000D03*
X116750000Y-109750000D03*
X124250000Y-124000000D03*
X116750000Y-140250000D03*
X116500000Y-160250000D03*
X116750000Y-107250000D03*
X123250000Y-123250000D03*
X116750000Y-138500000D03*
X116250000Y-157750000D03*
X114250000Y-145500000D03*
X96750000Y-145250000D03*
X82750000Y-149250000D03*
X104000000Y-169750000D03*
X86500000Y-169500000D03*
X74600010Y-166609075D03*
X59500000Y-120500000D03*
X72500000Y-124500000D03*
X65575001Y-153825001D03*
X60750000Y-123250000D03*
X62000000Y-120500000D03*
X71295518Y-124420170D03*
X66750000Y-154000000D03*
X63250000Y-123250000D03*
X98500000Y-131500000D03*
X130000000Y-130250000D03*
X98500000Y-133000000D03*
X126250000Y-132500000D03*
X121000000Y-110250000D03*
X125000000Y-130000000D03*
X117500000Y-136250000D03*
X121250000Y-140750000D03*
X120500000Y-134750000D03*
X121500000Y-160250000D03*
X127250000Y-111750000D03*
X128150000Y-111750000D03*
X129050000Y-111750000D03*
X129950000Y-111750000D03*
X130850000Y-111750000D03*
X131750000Y-111750000D03*
X132650000Y-111750000D03*
X133550000Y-111750000D03*
X134450000Y-111750000D03*
X135350000Y-111750000D03*
X136250000Y-111750000D03*
X137150000Y-111750000D03*
X138050000Y-111750000D03*
X138950000Y-111750000D03*
X139850000Y-111750000D03*
X127250000Y-112650000D03*
X128150000Y-112650000D03*
X129050000Y-112650000D03*
X129950000Y-112650000D03*
X130850000Y-112650000D03*
X131750000Y-112650000D03*
X132650000Y-112650000D03*
X133550000Y-112650000D03*
X134450000Y-112650000D03*
X135350000Y-112650000D03*
X136250000Y-112650000D03*
X137150000Y-112650000D03*
X138050000Y-112650000D03*
X138950000Y-112650000D03*
X139850000Y-112650000D03*
X127250000Y-113550000D03*
X128150000Y-113550000D03*
X129050000Y-113550000D03*
X129950000Y-113550000D03*
X130850000Y-113550000D03*
X131750000Y-113550000D03*
X132650000Y-113550000D03*
X133550000Y-113550000D03*
X134450000Y-113550000D03*
X135350000Y-113550000D03*
X136250000Y-113550000D03*
X137150000Y-113550000D03*
X138050000Y-113550000D03*
X138950000Y-113550000D03*
X139850000Y-113550000D03*
X127250000Y-114450000D03*
X128150000Y-114450000D03*
X129050000Y-114450000D03*
X129950000Y-114450000D03*
X130850000Y-114450000D03*
X131750000Y-114450000D03*
X132650000Y-114450000D03*
X133550000Y-114450000D03*
X134450000Y-114450000D03*
X135350000Y-114450000D03*
X136250000Y-114450000D03*
X137150000Y-114450000D03*
X138050000Y-114450000D03*
X138950000Y-114450000D03*
X139850000Y-114450000D03*
X127250000Y-115350000D03*
X128150000Y-115350000D03*
X129050000Y-115350000D03*
X129950000Y-115350000D03*
X130850000Y-115350000D03*
X131750000Y-115350000D03*
X132650000Y-115350000D03*
X133550000Y-115350000D03*
X134450000Y-115350000D03*
X135350000Y-115350000D03*
X136250000Y-115350000D03*
X137150000Y-115350000D03*
X138050000Y-115350000D03*
X138950000Y-115350000D03*
X139850000Y-115350000D03*
X127250000Y-116250000D03*
X128150000Y-116250000D03*
X129050000Y-116250000D03*
X129950000Y-116250000D03*
X130850000Y-116250000D03*
X131750000Y-116250000D03*
X132650000Y-116250000D03*
X133550000Y-116250000D03*
X134450000Y-116250000D03*
X135350000Y-116250000D03*
X136250000Y-116250000D03*
X137150000Y-116250000D03*
X138050000Y-116250000D03*
X138950000Y-116250000D03*
X139850000Y-116250000D03*
X127250000Y-117150000D03*
X128150000Y-117150000D03*
X129050000Y-117150000D03*
X129950000Y-117150000D03*
X130850000Y-117150000D03*
X131750000Y-117150000D03*
X132650000Y-117150000D03*
X133550000Y-117150000D03*
X134450000Y-117150000D03*
X135350000Y-117150000D03*
X136250000Y-117150000D03*
X137150000Y-117150000D03*
X138050000Y-117150000D03*
X138950000Y-117150000D03*
X139850000Y-117150000D03*
X127250000Y-118050000D03*
X128150000Y-118050000D03*
X129050000Y-118050000D03*
X129950000Y-118050000D03*
X130850000Y-118050000D03*
X131750000Y-118050000D03*
X132650000Y-118050000D03*
X133550000Y-118050000D03*
X134450000Y-118050000D03*
X135350000Y-118050000D03*
X136250000Y-118050000D03*
X137150000Y-118050000D03*
X138050000Y-118050000D03*
X138950000Y-118050000D03*
X139850000Y-118050000D03*
X127250000Y-118950000D03*
X128150000Y-118950000D03*
X129050000Y-118950000D03*
X129950000Y-118950000D03*
X130850000Y-118950000D03*
X131750000Y-118950000D03*
X132650000Y-118950000D03*
X133550000Y-118950000D03*
X134450000Y-118950000D03*
X135350000Y-118950000D03*
X136250000Y-118950000D03*
X137150000Y-118950000D03*
X138050000Y-118950000D03*
X138950000Y-118950000D03*
X139850000Y-118950000D03*
X127250000Y-119850000D03*
X128150000Y-119850000D03*
X129050000Y-119850000D03*
X129950000Y-119850000D03*
X130850000Y-119850000D03*
X131750000Y-119850000D03*
X132650000Y-119850000D03*
X133550000Y-119850000D03*
X134450000Y-119850000D03*
X135350000Y-119850000D03*
X136250000Y-119850000D03*
X137150000Y-119850000D03*
X138050000Y-119850000D03*
X138950000Y-119850000D03*
X139850000Y-119850000D03*
X127250000Y-120750000D03*
X128150000Y-120750000D03*
X129050000Y-120750000D03*
X129950000Y-120750000D03*
X130850000Y-120750000D03*
X131750000Y-120750000D03*
X132650000Y-120750000D03*
X133550000Y-120750000D03*
X134450000Y-120750000D03*
X135350000Y-120750000D03*
X136250000Y-120750000D03*
X137150000Y-120750000D03*
X138050000Y-120750000D03*
X138950000Y-120750000D03*
X139850000Y-120750000D03*
X127250000Y-121650000D03*
X128150000Y-121650000D03*
X129050000Y-121650000D03*
X129950000Y-121650000D03*
X130850000Y-121650000D03*
X131750000Y-121650000D03*
X132650000Y-121650000D03*
X133550000Y-121650000D03*
X134450000Y-121650000D03*
X135350000Y-121650000D03*
X136250000Y-121650000D03*
X137150000Y-121650000D03*
X138050000Y-121650000D03*
X138950000Y-121650000D03*
X139850000Y-121650000D03*
X127250000Y-122550000D03*
X128150000Y-122550000D03*
X129050000Y-122550000D03*
X129950000Y-122550000D03*
X130850000Y-122550000D03*
X131750000Y-122550000D03*
X132650000Y-122550000D03*
X133550000Y-122550000D03*
X134450000Y-122550000D03*
X135350000Y-122550000D03*
X136250000Y-122550000D03*
X137150000Y-122550000D03*
X138050000Y-122550000D03*
X138950000Y-122550000D03*
X139850000Y-122550000D03*
X138050000Y-142900000D03*
X133550000Y-142900000D03*
X137150000Y-142900000D03*
X131750000Y-142900000D03*
X136250000Y-142900000D03*
X132650000Y-142900000D03*
X127250000Y-143800000D03*
X138950000Y-142900000D03*
X139850000Y-142900000D03*
X128150000Y-143800000D03*
X135350000Y-142900000D03*
X134450000Y-142900000D03*
X127250000Y-142000000D03*
X133550000Y-142000000D03*
X127250000Y-142900000D03*
X137150000Y-142000000D03*
X135350000Y-142000000D03*
X138050000Y-142000000D03*
X128150000Y-142900000D03*
X129050000Y-142900000D03*
X139850000Y-142000000D03*
X129950000Y-142900000D03*
X130850000Y-142900000D03*
X138950000Y-142000000D03*
X134450000Y-142000000D03*
X136250000Y-142000000D03*
X139850000Y-143800000D03*
X129950000Y-144700000D03*
X128150000Y-144700000D03*
X131750000Y-144700000D03*
X135350000Y-144700000D03*
X127250000Y-144700000D03*
X129050000Y-144700000D03*
X130850000Y-144700000D03*
X132650000Y-144700000D03*
X133550000Y-144700000D03*
X134450000Y-144700000D03*
X136250000Y-144700000D03*
X136250000Y-151000000D03*
X133550000Y-151900000D03*
X134450000Y-151900000D03*
X127250000Y-152800000D03*
X135350000Y-152800000D03*
X130850000Y-151900000D03*
X133550000Y-152800000D03*
X139850000Y-151000000D03*
X139850000Y-152800000D03*
X139850000Y-151900000D03*
X138050000Y-151900000D03*
X129950000Y-151900000D03*
X132650000Y-151000000D03*
X135350000Y-151000000D03*
X128150000Y-152800000D03*
X133550000Y-151000000D03*
X129950000Y-152800000D03*
X131750000Y-152800000D03*
X134450000Y-152800000D03*
X137150000Y-151900000D03*
X132650000Y-151900000D03*
X132650000Y-152800000D03*
X130850000Y-152800000D03*
X138950000Y-151000000D03*
X135350000Y-151900000D03*
X136250000Y-152800000D03*
X137150000Y-152800000D03*
X134450000Y-151000000D03*
X128150000Y-151900000D03*
X138050000Y-152800000D03*
X138950000Y-152800000D03*
X129050000Y-151900000D03*
X138950000Y-151900000D03*
X136250000Y-151900000D03*
X137150000Y-151000000D03*
X129050000Y-152800000D03*
X127250000Y-151900000D03*
X131750000Y-151900000D03*
X138050000Y-151000000D03*
X129050000Y-142000000D03*
X128150000Y-142000000D03*
X132650000Y-142000000D03*
X131750000Y-142000000D03*
X129950000Y-142000000D03*
X130850000Y-142000000D03*
X132650000Y-143800000D03*
X130850000Y-143800000D03*
X135350000Y-143800000D03*
X129050000Y-143800000D03*
X133550000Y-143800000D03*
X136250000Y-143800000D03*
X137150000Y-143800000D03*
X138050000Y-143800000D03*
X138950000Y-143800000D03*
X134450000Y-143800000D03*
X129950000Y-143800000D03*
X131750000Y-143800000D03*
X131750000Y-150100000D03*
X138950000Y-148300000D03*
X134450000Y-150100000D03*
X132650000Y-150100000D03*
X127250000Y-150100000D03*
X138050000Y-148300000D03*
X134450000Y-148300000D03*
X139850000Y-148300000D03*
X128150000Y-148300000D03*
X131750000Y-148300000D03*
X127250000Y-149200000D03*
X132650000Y-149200000D03*
X129950000Y-149200000D03*
X139850000Y-149200000D03*
X128150000Y-150100000D03*
X129050000Y-148300000D03*
X132650000Y-148300000D03*
X137150000Y-148300000D03*
X130850000Y-149200000D03*
X136250000Y-149200000D03*
X135350000Y-150100000D03*
X137150000Y-149200000D03*
X138050000Y-149200000D03*
X129950000Y-148300000D03*
X133550000Y-148300000D03*
X129050000Y-149200000D03*
X135350000Y-149200000D03*
X138950000Y-149200000D03*
X129950000Y-150100000D03*
X129050000Y-150100000D03*
X133550000Y-150100000D03*
X136250000Y-150100000D03*
X137150000Y-150100000D03*
X138050000Y-150100000D03*
X138950000Y-150100000D03*
X139850000Y-150100000D03*
X127250000Y-151000000D03*
X128150000Y-151000000D03*
X129050000Y-151000000D03*
X129950000Y-151000000D03*
X130850000Y-151000000D03*
X131750000Y-151000000D03*
X136250000Y-148300000D03*
X131750000Y-149200000D03*
X130850000Y-150100000D03*
X128150000Y-149200000D03*
X135350000Y-148300000D03*
X134450000Y-149200000D03*
X130850000Y-148300000D03*
X133550000Y-149200000D03*
X127250000Y-147400000D03*
X136250000Y-145600000D03*
X130850000Y-146500000D03*
X130850000Y-147400000D03*
X133550000Y-145600000D03*
X138050000Y-146500000D03*
X136250000Y-147400000D03*
X139850000Y-147400000D03*
X132650000Y-145600000D03*
X138050000Y-144700000D03*
X132650000Y-147400000D03*
X131750000Y-145600000D03*
X129950000Y-145600000D03*
X129050000Y-146500000D03*
X137150000Y-146500000D03*
X131750000Y-147400000D03*
X134450000Y-147400000D03*
X135350000Y-147400000D03*
X127250000Y-148300000D03*
X139850000Y-144700000D03*
X127250000Y-146500000D03*
X128150000Y-146500000D03*
X139850000Y-145600000D03*
X138950000Y-144700000D03*
X134450000Y-146500000D03*
X137150000Y-145600000D03*
X129050000Y-145600000D03*
X131750000Y-146500000D03*
X137150000Y-144700000D03*
X135350000Y-145600000D03*
X134450000Y-145600000D03*
X129950000Y-146500000D03*
X135350000Y-146500000D03*
X136250000Y-146500000D03*
X139850000Y-146500000D03*
X138050000Y-145600000D03*
X132650000Y-146500000D03*
X138950000Y-146500000D03*
X129050000Y-147400000D03*
X129950000Y-147400000D03*
X133550000Y-147400000D03*
X127250000Y-145600000D03*
X128150000Y-147400000D03*
X137150000Y-147400000D03*
X138050000Y-147400000D03*
X128150000Y-145600000D03*
X138950000Y-147400000D03*
X138950000Y-145600000D03*
X130850000Y-145600000D03*
X133550000Y-146500000D03*
X127500000Y-162250000D03*
X128400000Y-162250000D03*
X129300000Y-162250000D03*
X130200000Y-162250000D03*
X131100000Y-162250000D03*
X132000000Y-162250000D03*
X132900000Y-162250000D03*
X133800000Y-162250000D03*
X134700000Y-162250000D03*
X135600000Y-162250000D03*
X136500000Y-162250000D03*
X137400000Y-162250000D03*
X138300000Y-162250000D03*
X139200000Y-162250000D03*
X140100000Y-162250000D03*
X127500000Y-163150000D03*
X128400000Y-163150000D03*
X129300000Y-163150000D03*
X130200000Y-163150000D03*
X131100000Y-163150000D03*
X132000000Y-163150000D03*
X132900000Y-163150000D03*
X133800000Y-163150000D03*
X134700000Y-163150000D03*
X135600000Y-163150000D03*
X136500000Y-163150000D03*
X137400000Y-163150000D03*
X138300000Y-163150000D03*
X139200000Y-163150000D03*
X140100000Y-163150000D03*
X127500000Y-164050000D03*
X128400000Y-164050000D03*
X129300000Y-164050000D03*
X130200000Y-164050000D03*
X131100000Y-164050000D03*
X132000000Y-164050000D03*
X132900000Y-164050000D03*
X133800000Y-164050000D03*
X134700000Y-164050000D03*
X135600000Y-164050000D03*
X136500000Y-164050000D03*
X137400000Y-164050000D03*
X138300000Y-164050000D03*
X139200000Y-164050000D03*
X140100000Y-164050000D03*
X127500000Y-164950000D03*
X128400000Y-164950000D03*
X129300000Y-164950000D03*
X130200000Y-164950000D03*
X131100000Y-164950000D03*
X132000000Y-164950000D03*
X132900000Y-164950000D03*
X133800000Y-164950000D03*
X134700000Y-164950000D03*
X135600000Y-164950000D03*
X136500000Y-164950000D03*
X137400000Y-164950000D03*
X138300000Y-164950000D03*
X139200000Y-164950000D03*
X140100000Y-164950000D03*
X127500000Y-165850000D03*
X128400000Y-165850000D03*
X129300000Y-165850000D03*
X130200000Y-165850000D03*
X131100000Y-165850000D03*
X132000000Y-165850000D03*
X132900000Y-165850000D03*
X133800000Y-165850000D03*
X134700000Y-165850000D03*
X135600000Y-165850000D03*
X136500000Y-165850000D03*
X137400000Y-165850000D03*
X138300000Y-165850000D03*
X139200000Y-165850000D03*
X140100000Y-165850000D03*
X127500000Y-166750000D03*
X128400000Y-166750000D03*
X129300000Y-166750000D03*
X130200000Y-166750000D03*
X131100000Y-166750000D03*
X132000000Y-166750000D03*
X132900000Y-166750000D03*
X133800000Y-166750000D03*
X134700000Y-166750000D03*
X135600000Y-166750000D03*
X136500000Y-166750000D03*
X137400000Y-166750000D03*
X138300000Y-166750000D03*
X139200000Y-166750000D03*
X140100000Y-166750000D03*
X127500000Y-167650000D03*
X128400000Y-167650000D03*
X129300000Y-167650000D03*
X130200000Y-167650000D03*
X131100000Y-167650000D03*
X132000000Y-167650000D03*
X132900000Y-167650000D03*
X133800000Y-167650000D03*
X134700000Y-167650000D03*
X135600000Y-167650000D03*
X136500000Y-167650000D03*
X137400000Y-167650000D03*
X138300000Y-167650000D03*
X139200000Y-167650000D03*
X140100000Y-167650000D03*
X127500000Y-168550000D03*
X128400000Y-168550000D03*
X129300000Y-168550000D03*
X130200000Y-168550000D03*
X131100000Y-168550000D03*
X132000000Y-168550000D03*
X132900000Y-168550000D03*
X133800000Y-168550000D03*
X134700000Y-168550000D03*
X135600000Y-168550000D03*
X136500000Y-168550000D03*
X137400000Y-168550000D03*
X138300000Y-168550000D03*
X139200000Y-168550000D03*
X140100000Y-168550000D03*
X127500000Y-169450000D03*
X128400000Y-169450000D03*
X129300000Y-169450000D03*
X130200000Y-169450000D03*
X131100000Y-169450000D03*
X132000000Y-169450000D03*
X132900000Y-169450000D03*
X133800000Y-169450000D03*
X134700000Y-169450000D03*
X135600000Y-169450000D03*
X136500000Y-169450000D03*
X137400000Y-169450000D03*
X138300000Y-169450000D03*
X139200000Y-169450000D03*
X140100000Y-169450000D03*
X127500000Y-170350000D03*
X128400000Y-170350000D03*
X129300000Y-170350000D03*
X130200000Y-170350000D03*
X131100000Y-170350000D03*
X132000000Y-170350000D03*
X132900000Y-170350000D03*
X133800000Y-170350000D03*
X134700000Y-170350000D03*
X135600000Y-170350000D03*
X136500000Y-170350000D03*
X137400000Y-170350000D03*
X138300000Y-170350000D03*
X139200000Y-170350000D03*
X140100000Y-170350000D03*
X127500000Y-171250000D03*
X128400000Y-171250000D03*
X129300000Y-171250000D03*
X130200000Y-171250000D03*
X131100000Y-171250000D03*
X132000000Y-171250000D03*
X132900000Y-171250000D03*
X133800000Y-171250000D03*
X134700000Y-171250000D03*
X135600000Y-171250000D03*
X136500000Y-171250000D03*
X137400000Y-171250000D03*
X138300000Y-171250000D03*
X139200000Y-171250000D03*
X140100000Y-171250000D03*
X127500000Y-172150000D03*
X128400000Y-172150000D03*
X129300000Y-172150000D03*
X130200000Y-172150000D03*
X131100000Y-172150000D03*
X132000000Y-172150000D03*
X132900000Y-172150000D03*
X133800000Y-172150000D03*
X134700000Y-172150000D03*
X135600000Y-172150000D03*
X136500000Y-172150000D03*
X137400000Y-172150000D03*
X138300000Y-172150000D03*
X139200000Y-172150000D03*
X140100000Y-172150000D03*
X127500000Y-173050000D03*
X128400000Y-173050000D03*
X129300000Y-173050000D03*
X130200000Y-173050000D03*
X131100000Y-173050000D03*
X132000000Y-173050000D03*
X132900000Y-173050000D03*
X133800000Y-173050000D03*
X134700000Y-173050000D03*
X135600000Y-173050000D03*
X136500000Y-173050000D03*
X137400000Y-173050000D03*
X138300000Y-173050000D03*
X139200000Y-173050000D03*
X140100000Y-173050000D03*
X115750000Y-111500000D03*
X116650000Y-111500000D03*
X117550000Y-111500000D03*
X118450000Y-111500000D03*
X115750000Y-112400000D03*
X116650000Y-112400000D03*
X117550000Y-112400000D03*
X118450000Y-112400000D03*
X115750000Y-113300000D03*
X116650000Y-113300000D03*
X117550000Y-113300000D03*
X118450000Y-113300000D03*
X115750000Y-114200000D03*
X116650000Y-114200000D03*
X117550000Y-114200000D03*
X118450000Y-114200000D03*
X115750000Y-115100000D03*
X116650000Y-115100000D03*
X117550000Y-115100000D03*
X118450000Y-115100000D03*
X115750000Y-116000000D03*
X116650000Y-116000000D03*
X117550000Y-116000000D03*
X118450000Y-116000000D03*
X115750000Y-116900000D03*
X116650000Y-116900000D03*
X117550000Y-116900000D03*
X118450000Y-116900000D03*
X115750000Y-117800000D03*
X116650000Y-117800000D03*
X117550000Y-117800000D03*
X118450000Y-117800000D03*
X115750000Y-118700000D03*
X116650000Y-118700000D03*
X117550000Y-118700000D03*
X118450000Y-118700000D03*
X115750000Y-119600000D03*
X116650000Y-119600000D03*
X117550000Y-119600000D03*
X118450000Y-119600000D03*
X115750000Y-120500000D03*
X116650000Y-120500000D03*
X117550000Y-120500000D03*
X118450000Y-120500000D03*
X115750000Y-121400000D03*
X116650000Y-121400000D03*
X117550000Y-121400000D03*
X118450000Y-121400000D03*
X115750000Y-122300000D03*
X116650000Y-122300000D03*
X117550000Y-122300000D03*
X118450000Y-122300000D03*
X117550000Y-152800000D03*
X118450000Y-152800000D03*
X117550000Y-143800000D03*
X118450000Y-144700000D03*
X116650000Y-142900000D03*
X118450000Y-145600000D03*
X118450000Y-142900000D03*
X116650000Y-144700000D03*
X117550000Y-146500000D03*
X118450000Y-146500000D03*
X115750000Y-145600000D03*
X115750000Y-147400000D03*
X116650000Y-147400000D03*
X116650000Y-148300000D03*
X115750000Y-148300000D03*
X115750000Y-149200000D03*
X117550000Y-148300000D03*
X116650000Y-149200000D03*
X115750000Y-142900000D03*
X115750000Y-144700000D03*
X117550000Y-144700000D03*
X115750000Y-150100000D03*
X116650000Y-143800000D03*
X118450000Y-143800000D03*
X116650000Y-145600000D03*
X115750000Y-146500000D03*
X116650000Y-146500000D03*
X116650000Y-150100000D03*
X118450000Y-147400000D03*
X118450000Y-150100000D03*
X115750000Y-151000000D03*
X118450000Y-142000000D03*
X117550000Y-145600000D03*
X118450000Y-149200000D03*
X117550000Y-150100000D03*
X117550000Y-149200000D03*
X118450000Y-148300000D03*
X115750000Y-142000000D03*
X117550000Y-147400000D03*
X117550000Y-142000000D03*
X115750000Y-143800000D03*
X116650000Y-142000000D03*
X117550000Y-142900000D03*
X117550000Y-151000000D03*
X118450000Y-151000000D03*
X115750000Y-151900000D03*
X116650000Y-151900000D03*
X116650000Y-151000000D03*
X117550000Y-151900000D03*
X115750000Y-152800000D03*
X118450000Y-151900000D03*
X116650000Y-152800000D03*
X116000000Y-167650000D03*
X116000000Y-171250000D03*
X118700000Y-173050000D03*
X118700000Y-169450000D03*
X117800000Y-167650000D03*
X117800000Y-171250000D03*
X116000000Y-172150000D03*
X116000000Y-165850000D03*
X116900000Y-169450000D03*
X117800000Y-164950000D03*
X118700000Y-172150000D03*
X116000000Y-164050000D03*
X116900000Y-165850000D03*
X117800000Y-164050000D03*
X116900000Y-172150000D03*
X117800000Y-166750000D03*
X116900000Y-167650000D03*
X116000000Y-164950000D03*
X116900000Y-166750000D03*
X116900000Y-171250000D03*
X117800000Y-168550000D03*
X116900000Y-164950000D03*
X118700000Y-166750000D03*
X116900000Y-168550000D03*
X118700000Y-165850000D03*
X116000000Y-163150000D03*
X118700000Y-164050000D03*
X116900000Y-163150000D03*
X116900000Y-170350000D03*
X118700000Y-167650000D03*
X118700000Y-162250000D03*
X117800000Y-169450000D03*
X118700000Y-168550000D03*
X117800000Y-163150000D03*
X117800000Y-172150000D03*
X117800000Y-162250000D03*
X116000000Y-169450000D03*
X118700000Y-170350000D03*
X116900000Y-164050000D03*
X117800000Y-173050000D03*
X116000000Y-173050000D03*
X116900000Y-173050000D03*
X116000000Y-170350000D03*
X118700000Y-164950000D03*
X118700000Y-171250000D03*
X116900000Y-162250000D03*
X117800000Y-170350000D03*
X116000000Y-166750000D03*
X117800000Y-165850000D03*
X116000000Y-162250000D03*
X116000000Y-168550000D03*
X118700000Y-163150000D03*
X70500000Y-114250000D03*
X104750000Y-109000000D03*
X87249990Y-110500000D03*
X114508891Y-156991109D03*
X68500000Y-155750000D03*
X94750000Y-154499986D03*
X68500000Y-168750000D03*
X87112011Y-159790479D03*
X105174733Y-159369352D03*
X65500000Y-114250000D03*
X105250000Y-105750000D03*
X86000000Y-110000000D03*
X114250000Y-158500000D03*
X63500000Y-155750000D03*
X96500000Y-159250000D03*
X87152986Y-156498970D03*
X63500000Y-168750000D03*
X105250000Y-156250000D03*
X103500000Y-120500000D03*
X72750000Y-114750000D03*
X85530594Y-121171502D03*
X114249992Y-144000000D03*
X96750000Y-144000000D03*
X82750000Y-148250000D03*
X104000000Y-170750000D03*
X86500000Y-171000000D03*
X73750000Y-165750000D03*
D15*
X64000000Y-159500000D02*
X61250000Y-156750000D01*
X61250000Y-156750000D02*
X61250000Y-149500000D01*
X64425000Y-146325000D02*
X64425000Y-146175000D01*
X61250000Y-149500000D02*
X64425000Y-146325000D01*
X73750000Y-113500000D02*
X75250000Y-115000000D01*
X83750000Y-121500000D02*
X85350001Y-119899999D01*
X75250000Y-120510036D02*
X76239964Y-121500000D01*
X75250000Y-115000000D02*
X75250000Y-120510036D01*
X76239964Y-121500000D02*
X83750000Y-121500000D01*
X85350001Y-119899999D02*
X85750000Y-119500000D01*
X86700011Y-118549989D02*
X86149999Y-119100001D01*
X103500000Y-119000000D02*
X103049989Y-118549989D01*
X86149999Y-119100001D02*
X85750000Y-119500000D01*
X103049989Y-118549989D02*
X86700011Y-118549989D01*
D16*
X115750000Y-108750000D02*
X115750000Y-106750000D01*
X124250000Y-110500000D02*
X124250000Y-123434315D01*
X124250000Y-123434315D02*
X124250000Y-124000000D01*
X120000000Y-106250000D02*
X124250000Y-110500000D01*
X116250000Y-106250000D02*
X120000000Y-106250000D01*
X115750000Y-106750000D02*
X116250000Y-106250000D01*
X116750000Y-109750000D02*
X115750000Y-108750000D01*
X115901998Y-157024998D02*
X115524998Y-157401998D01*
X115524998Y-157401998D02*
X115524998Y-159274998D01*
X121549989Y-155200011D02*
X119725002Y-157024998D01*
X121549989Y-143936400D02*
X121549989Y-155200011D01*
X117863589Y-140250000D02*
X121549989Y-143936400D01*
X115524998Y-159274998D02*
X116100001Y-159850001D01*
X116100001Y-159850001D02*
X116500000Y-160250000D01*
X119725002Y-157024998D02*
X115901998Y-157024998D01*
X116750000Y-140250000D02*
X117863589Y-140250000D01*
X120250000Y-107250000D02*
X116750000Y-107250000D01*
X123750000Y-110750000D02*
X120250000Y-107250000D01*
X123250000Y-123250000D02*
X123750000Y-122750000D01*
X123750000Y-122750000D02*
X123750000Y-110750000D01*
X122000000Y-155386411D02*
X119636411Y-157750000D01*
X116815685Y-157750000D02*
X116250000Y-157750000D01*
X119636411Y-157750000D02*
X116815685Y-157750000D01*
X116750000Y-138500000D02*
X122000000Y-143750000D01*
X122000000Y-143750000D02*
X122000000Y-155386411D01*
D15*
X113500000Y-144750000D02*
X114250000Y-145500000D01*
X96750000Y-145250000D02*
X97250000Y-144750000D01*
X97250000Y-144750000D02*
X113500000Y-144750000D01*
X83315685Y-149250000D02*
X82750000Y-149250000D01*
X83500000Y-149250000D02*
X83315685Y-149250000D01*
X88000000Y-144750000D02*
X83500000Y-149250000D01*
X96750000Y-145250000D02*
X96250000Y-144750000D01*
X96250000Y-144750000D02*
X88000000Y-144750000D01*
X104000000Y-169750000D02*
X86750000Y-169750000D01*
X86750000Y-169750000D02*
X86500000Y-169500000D01*
X74600010Y-167174760D02*
X74600010Y-166609075D01*
X74600010Y-172610046D02*
X74600010Y-167174760D01*
X76289953Y-174299989D02*
X74600010Y-172610046D01*
X85250000Y-173500000D02*
X84450011Y-174299989D01*
X85250000Y-170184315D02*
X85250000Y-173500000D01*
X86500000Y-169500000D02*
X85934315Y-169500000D01*
X85934315Y-169500000D02*
X85250000Y-170184315D01*
X84450011Y-174299989D02*
X76289953Y-174299989D01*
D16*
X72100001Y-124899999D02*
X72500000Y-124500000D01*
X71774998Y-125225002D02*
X72100001Y-124899999D01*
X70975002Y-125225002D02*
X71774998Y-125225002D01*
X67000000Y-121250000D02*
X70975002Y-125225002D01*
X59500000Y-120500000D02*
X60250000Y-121250000D01*
X60250000Y-121250000D02*
X67000000Y-121250000D01*
X71500000Y-127750000D02*
X67750000Y-124000000D01*
X67750000Y-124000000D02*
X61500000Y-124000000D01*
X61500000Y-124000000D02*
X61149999Y-123649999D01*
X71500000Y-147113590D02*
X71500000Y-127750000D01*
X65575001Y-153825001D02*
X65575001Y-153038589D01*
X61149999Y-123649999D02*
X60750000Y-123250000D01*
X65575001Y-153038589D02*
X71500000Y-147113590D01*
X71225328Y-124349980D02*
X71295518Y-124420170D01*
X67375348Y-120500000D02*
X71225328Y-124349980D01*
X62000000Y-120500000D02*
X67375348Y-120500000D01*
X63815685Y-123250000D02*
X63250000Y-123250000D01*
X67636410Y-123250000D02*
X63815685Y-123250000D01*
X66750000Y-154000000D02*
X66750000Y-152500000D01*
X72000000Y-147250000D02*
X72000000Y-127613590D01*
X72000000Y-127613590D02*
X67636410Y-123250000D01*
X66750000Y-152500000D02*
X72000000Y-147250000D01*
X98500000Y-131500000D02*
X128750000Y-131500000D01*
X128750000Y-131500000D02*
X130000000Y-130250000D01*
X125750000Y-132000000D02*
X126250000Y-132500000D01*
X98500000Y-133000000D02*
X99500000Y-132000000D01*
X99500000Y-132000000D02*
X125750000Y-132000000D01*
X125000000Y-128500000D02*
X125000000Y-130000000D01*
X121750000Y-125250000D02*
X125000000Y-128500000D01*
X121000000Y-110250000D02*
X121750000Y-111000000D01*
X121750000Y-111000000D02*
X121750000Y-125250000D01*
X121250000Y-140184315D02*
X121250000Y-140750000D01*
X121250000Y-140000000D02*
X121250000Y-140184315D01*
X117500000Y-136250000D02*
X121250000Y-140000000D01*
X121899999Y-159850001D02*
X121500000Y-160250000D01*
X122500000Y-159250000D02*
X121899999Y-159850001D01*
X120500000Y-134750000D02*
X122500000Y-136750000D01*
X122500000Y-136750000D02*
X122500000Y-159250000D01*
D15*
X86899989Y-110850001D02*
X87249990Y-110500000D01*
X70500000Y-114250000D02*
X73899999Y-110850001D01*
X73899999Y-110850001D02*
X86899989Y-110850001D01*
X87815675Y-110500000D02*
X87249990Y-110500000D01*
X88065675Y-110250000D02*
X87815675Y-110500000D01*
X97750000Y-111500000D02*
X96500000Y-110250000D01*
X102250000Y-111500000D02*
X97750000Y-111500000D01*
X96500000Y-110250000D02*
X88065675Y-110250000D01*
X104750000Y-109000000D02*
X102250000Y-111500000D01*
X96255031Y-154499986D02*
X95315685Y-154499986D01*
X98005017Y-152750000D02*
X96255031Y-154499986D01*
X102250000Y-152750000D02*
X98005017Y-152750000D01*
X103699987Y-154199987D02*
X102250000Y-152750000D01*
X111717769Y-154199987D02*
X103699987Y-154199987D01*
X114508891Y-156991109D02*
X111717769Y-154199987D01*
X95315685Y-154499986D02*
X94750000Y-154499986D01*
X94184315Y-154499986D02*
X94750000Y-154499986D01*
X85750014Y-154499986D02*
X94184315Y-154499986D01*
X68500000Y-159500000D02*
X69750000Y-160750000D01*
X68500000Y-155750000D02*
X68500000Y-159500000D01*
X69750000Y-160750000D02*
X84000000Y-160750000D01*
X84000000Y-160750000D02*
X84530001Y-160219999D01*
X84530001Y-160219999D02*
X84530001Y-155719999D01*
X84530001Y-155719999D02*
X85750014Y-154499986D01*
X87112011Y-160356164D02*
X87112011Y-159790479D01*
X102250000Y-162250000D02*
X98500000Y-162250000D01*
X87755847Y-161000000D02*
X87112011Y-160356164D01*
X97250000Y-161000000D02*
X87755847Y-161000000D01*
X105174733Y-159369352D02*
X105130648Y-159369352D01*
X98500000Y-162250000D02*
X97250000Y-161000000D01*
X105130648Y-159369352D02*
X102250000Y-162250000D01*
X87112011Y-161127954D02*
X87112011Y-160356164D01*
X84739965Y-163500000D02*
X87112011Y-161127954D01*
X69750000Y-163500000D02*
X84739965Y-163500000D01*
X68500000Y-168750000D02*
X68500000Y-164750000D01*
X68500000Y-164750000D02*
X69750000Y-163500000D01*
X65500000Y-114250000D02*
X69750000Y-110000000D01*
X69750000Y-110000000D02*
X85434315Y-110000000D01*
X85434315Y-110000000D02*
X86000000Y-110000000D01*
X98039953Y-110799989D02*
X96789954Y-109549989D01*
X86399999Y-109600001D02*
X86000000Y-110000000D01*
X96789954Y-109549989D02*
X86450011Y-109549989D01*
X105250000Y-105750000D02*
X105250000Y-107260036D01*
X86450011Y-109549989D02*
X86399999Y-109600001D01*
X105250000Y-107260036D02*
X101710047Y-110799989D01*
X101710047Y-110799989D02*
X98039953Y-110799989D01*
X94250000Y-155250000D02*
X94500000Y-155500000D01*
X69250000Y-161500000D02*
X84250000Y-161500000D01*
X63500000Y-155750000D02*
X69250000Y-161500000D01*
X84250000Y-161500000D02*
X85250000Y-160500000D01*
X85250000Y-160500000D02*
X85250000Y-156000000D01*
X85250000Y-156000000D02*
X86000000Y-155250000D01*
X86000000Y-155250000D02*
X94250000Y-155250000D01*
X96250000Y-155500000D02*
X94500000Y-155500000D01*
X96500000Y-159250000D02*
X96500000Y-155750000D01*
X96500000Y-155750000D02*
X96250000Y-155500000D01*
X110649998Y-154899998D02*
X114250000Y-158500000D01*
X103410033Y-154899998D02*
X110649998Y-154899998D01*
X101960047Y-153450011D02*
X103410033Y-154899998D01*
X98365666Y-153450011D02*
X101960047Y-153450011D01*
X94500000Y-155500000D02*
X96315677Y-155500000D01*
X96315677Y-155500000D02*
X98365666Y-153450011D01*
X86262009Y-160987991D02*
X84500000Y-162750000D01*
X63899999Y-168350001D02*
X63500000Y-168750000D01*
X86262009Y-157389947D02*
X86262009Y-160987991D01*
X69500000Y-162750000D02*
X63899999Y-168350001D01*
X84500000Y-162750000D02*
X69500000Y-162750000D01*
X87152986Y-156498970D02*
X86262009Y-157389947D01*
X104249996Y-157250004D02*
X104850001Y-156649999D01*
X98789953Y-161549989D02*
X101960047Y-161549989D01*
X87949988Y-159647955D02*
X88602022Y-160299989D01*
X104249996Y-159260040D02*
X104249996Y-157250004D01*
X104850001Y-156649999D02*
X105250000Y-156250000D01*
X101960047Y-161549989D02*
X104249996Y-159260040D01*
X88602022Y-160299989D02*
X97539954Y-160299989D01*
X87949988Y-157295972D02*
X87949988Y-159647955D01*
X87152986Y-156498970D02*
X87949988Y-157295972D01*
X97539954Y-160299989D02*
X98789953Y-161549989D01*
X84452096Y-122250000D02*
X85530594Y-121171502D01*
X76000000Y-122250000D02*
X84452096Y-122250000D01*
X74500000Y-120750000D02*
X76000000Y-122250000D01*
X74500000Y-115250000D02*
X74500000Y-120750000D01*
X72750000Y-114750000D02*
X74000000Y-114750000D01*
X74000000Y-114750000D02*
X74500000Y-115250000D01*
X85930593Y-120771503D02*
X85530594Y-121171502D01*
X87452096Y-119250000D02*
X85930593Y-120771503D01*
X103500000Y-120500000D02*
X102250000Y-119250000D01*
X102250000Y-119250000D02*
X87452096Y-119250000D01*
X96750000Y-144000000D02*
X114249992Y-144000000D01*
X83500000Y-148250000D02*
X82750000Y-148250000D01*
X96750000Y-144000000D02*
X87750000Y-144000000D01*
X87750000Y-144000000D02*
X83500000Y-148250000D01*
X86500000Y-171000000D02*
X86000000Y-171500000D01*
X86000000Y-173739965D02*
X84739965Y-175000000D01*
X84739965Y-175000000D02*
X75999999Y-175000000D01*
X73750000Y-166315685D02*
X73750000Y-165750000D01*
X75999999Y-175000000D02*
X73750000Y-172750000D01*
X86000000Y-171500000D02*
X86000000Y-173739965D01*
X73750000Y-172750000D02*
X73750000Y-166315685D01*
X86750000Y-170750000D02*
X86500000Y-171000000D01*
X104000000Y-170750000D02*
X86750000Y-170750000D01*
M02*
