G04 #@! TF.GenerationSoftware,KiCad,Pcbnew,(5.1.4)-1*
G04 #@! TF.CreationDate,2019-11-20T08:20:37+01:00*
G04 #@! TF.ProjectId,hardware_4850,68617264-7761-4726-955f-343835302e6b,rev?*
G04 #@! TF.SameCoordinates,Original*
G04 #@! TF.FileFunction,Soldermask,Bot*
G04 #@! TF.FilePolarity,Negative*
%FSLAX46Y46*%
G04 Gerber Fmt 4.6, Leading zero omitted, Abs format (unit mm)*
G04 Created by KiCad (PCBNEW (5.1.4)-1) date 2019-11-20 08:20:37*
%MOMM*%
%LPD*%
G04 APERTURE LIST*
%ADD10C,0.100000*%
G04 APERTURE END LIST*
D10*
G36*
X122817021Y-175806640D02*
G01*
X123326769Y-176017785D01*
X123326771Y-176017786D01*
X123785534Y-176324321D01*
X124175679Y-176714466D01*
X124482214Y-177173229D01*
X124482215Y-177173231D01*
X124693360Y-177682979D01*
X124801000Y-178224124D01*
X124801000Y-178775876D01*
X124693360Y-179317021D01*
X124482215Y-179826769D01*
X124482214Y-179826771D01*
X124175679Y-180285534D01*
X123785534Y-180675679D01*
X123326771Y-180982214D01*
X123326770Y-180982215D01*
X123326769Y-180982215D01*
X122817021Y-181193360D01*
X122275876Y-181301000D01*
X121724124Y-181301000D01*
X121182979Y-181193360D01*
X120673231Y-180982215D01*
X120673230Y-180982215D01*
X120673229Y-180982214D01*
X120214466Y-180675679D01*
X119824321Y-180285534D01*
X119517786Y-179826771D01*
X119517785Y-179826769D01*
X119306640Y-179317021D01*
X119199000Y-178775876D01*
X119199000Y-178224124D01*
X119306640Y-177682979D01*
X119517785Y-177173231D01*
X119517786Y-177173229D01*
X119824321Y-176714466D01*
X120214466Y-176324321D01*
X120673229Y-176017786D01*
X120673231Y-176017785D01*
X121182979Y-175806640D01*
X121724124Y-175699000D01*
X122275876Y-175699000D01*
X122817021Y-175806640D01*
X122817021Y-175806640D01*
G37*
G36*
X70817021Y-175806640D02*
G01*
X71326769Y-176017785D01*
X71326771Y-176017786D01*
X71785534Y-176324321D01*
X72175679Y-176714466D01*
X72482214Y-177173229D01*
X72482215Y-177173231D01*
X72693360Y-177682979D01*
X72801000Y-178224124D01*
X72801000Y-178775876D01*
X72693360Y-179317021D01*
X72482215Y-179826769D01*
X72482214Y-179826771D01*
X72175679Y-180285534D01*
X71785534Y-180675679D01*
X71326771Y-180982214D01*
X71326770Y-180982215D01*
X71326769Y-180982215D01*
X70817021Y-181193360D01*
X70275876Y-181301000D01*
X69724124Y-181301000D01*
X69182979Y-181193360D01*
X68673231Y-180982215D01*
X68673230Y-180982215D01*
X68673229Y-180982214D01*
X68214466Y-180675679D01*
X67824321Y-180285534D01*
X67517786Y-179826771D01*
X67517785Y-179826769D01*
X67306640Y-179317021D01*
X67199000Y-178775876D01*
X67199000Y-178224124D01*
X67306640Y-177682979D01*
X67517785Y-177173231D01*
X67517786Y-177173229D01*
X67824321Y-176714466D01*
X68214466Y-176324321D01*
X68673229Y-176017786D01*
X68673231Y-176017785D01*
X69182979Y-175806640D01*
X69724124Y-175699000D01*
X70275876Y-175699000D01*
X70817021Y-175806640D01*
X70817021Y-175806640D01*
G37*
G36*
X61117021Y-175806640D02*
G01*
X61626769Y-176017785D01*
X61626771Y-176017786D01*
X62085534Y-176324321D01*
X62475679Y-176714466D01*
X62782214Y-177173229D01*
X62782215Y-177173231D01*
X62993360Y-177682979D01*
X63101000Y-178224124D01*
X63101000Y-178775876D01*
X62993360Y-179317021D01*
X62782215Y-179826769D01*
X62782214Y-179826771D01*
X62475679Y-180285534D01*
X62085534Y-180675679D01*
X61626771Y-180982214D01*
X61626770Y-180982215D01*
X61626769Y-180982215D01*
X61117021Y-181193360D01*
X60575876Y-181301000D01*
X60024124Y-181301000D01*
X59482979Y-181193360D01*
X58973231Y-180982215D01*
X58973230Y-180982215D01*
X58973229Y-180982214D01*
X58514466Y-180675679D01*
X58124321Y-180285534D01*
X57817786Y-179826771D01*
X57817785Y-179826769D01*
X57606640Y-179317021D01*
X57499000Y-178775876D01*
X57499000Y-178224124D01*
X57606640Y-177682979D01*
X57817785Y-177173231D01*
X57817786Y-177173229D01*
X58124321Y-176714466D01*
X58514466Y-176324321D01*
X58973229Y-176017786D01*
X58973231Y-176017785D01*
X59482979Y-175806640D01*
X60024124Y-175699000D01*
X60575876Y-175699000D01*
X61117021Y-175806640D01*
X61117021Y-175806640D01*
G37*
G36*
X138117021Y-175806640D02*
G01*
X138626769Y-176017785D01*
X138626771Y-176017786D01*
X139085534Y-176324321D01*
X139475679Y-176714466D01*
X139782214Y-177173229D01*
X139782215Y-177173231D01*
X139993360Y-177682979D01*
X140101000Y-178224124D01*
X140101000Y-178775876D01*
X139993360Y-179317021D01*
X139782215Y-179826769D01*
X139782214Y-179826771D01*
X139475679Y-180285534D01*
X139085534Y-180675679D01*
X138626771Y-180982214D01*
X138626770Y-180982215D01*
X138626769Y-180982215D01*
X138117021Y-181193360D01*
X137575876Y-181301000D01*
X137024124Y-181301000D01*
X136482979Y-181193360D01*
X135973231Y-180982215D01*
X135973230Y-180982215D01*
X135973229Y-180982214D01*
X135514466Y-180675679D01*
X135124321Y-180285534D01*
X134817786Y-179826771D01*
X134817785Y-179826769D01*
X134606640Y-179317021D01*
X134499000Y-178775876D01*
X134499000Y-178224124D01*
X134606640Y-177682979D01*
X134817785Y-177173231D01*
X134817786Y-177173229D01*
X135124321Y-176714466D01*
X135514466Y-176324321D01*
X135973229Y-176017786D01*
X135973231Y-176017785D01*
X136482979Y-175806640D01*
X137024124Y-175699000D01*
X137575876Y-175699000D01*
X138117021Y-175806640D01*
X138117021Y-175806640D01*
G37*
G36*
X113500000Y-181000000D02*
G01*
X87250000Y-181000000D01*
X87250000Y-174250000D01*
X113500000Y-174250000D01*
X113500000Y-181000000D01*
X113500000Y-181000000D01*
G37*
G36*
X119000000Y-173250000D02*
G01*
X115750000Y-173250000D01*
X115750000Y-168374999D01*
X115747598Y-168350613D01*
X115740485Y-168327164D01*
X115728934Y-168305553D01*
X115713389Y-168286611D01*
X115694447Y-168271066D01*
X115672836Y-168259515D01*
X115649387Y-168252402D01*
X115625001Y-168250000D01*
X87250000Y-168250000D01*
X87250000Y-161750000D01*
X119000000Y-161750000D01*
X119000000Y-173250000D01*
X119000000Y-173250000D01*
G37*
G36*
X100884239Y-154311467D02*
G01*
X101198282Y-154373934D01*
X101789926Y-154619001D01*
X102322392Y-154974784D01*
X102775216Y-155427608D01*
X103130999Y-155960074D01*
X103376066Y-156551718D01*
X103376066Y-156551719D01*
X103501000Y-157179803D01*
X103501000Y-157820197D01*
X103438533Y-158134239D01*
X103376066Y-158448282D01*
X103130999Y-159039926D01*
X102775216Y-159572392D01*
X102322392Y-160025216D01*
X101789926Y-160380999D01*
X101198282Y-160626066D01*
X100884239Y-160688533D01*
X100570197Y-160751000D01*
X99929803Y-160751000D01*
X99615761Y-160688533D01*
X99301718Y-160626066D01*
X98710074Y-160380999D01*
X98177608Y-160025216D01*
X97724784Y-159572392D01*
X97369001Y-159039926D01*
X97123934Y-158448282D01*
X97061467Y-158134239D01*
X96999000Y-157820197D01*
X96999000Y-157179803D01*
X97123934Y-156551719D01*
X97123934Y-156551718D01*
X97369001Y-155960074D01*
X97724784Y-155427608D01*
X98177608Y-154974784D01*
X98710074Y-154619001D01*
X99301718Y-154373934D01*
X99615761Y-154311467D01*
X99929803Y-154249000D01*
X100570197Y-154249000D01*
X100884239Y-154311467D01*
X100884239Y-154311467D01*
G37*
G36*
X118750000Y-153750000D02*
G01*
X87250000Y-153750000D01*
X87250000Y-147250000D01*
X115375001Y-147250000D01*
X115399387Y-147247598D01*
X115422836Y-147240485D01*
X115444447Y-147228934D01*
X115463389Y-147213389D01*
X115478934Y-147194447D01*
X115490485Y-147172836D01*
X115497598Y-147149387D01*
X115500000Y-147125001D01*
X115500000Y-141750000D01*
X118750000Y-141750000D01*
X118750000Y-153750000D01*
X118750000Y-153750000D01*
G37*
G36*
X113500000Y-141000000D02*
G01*
X87250000Y-141000000D01*
X87250000Y-134250000D01*
X113500000Y-134250000D01*
X113500000Y-141000000D01*
X113500000Y-141000000D01*
G37*
G36*
X113500000Y-130500000D02*
G01*
X87250000Y-130500000D01*
X87250000Y-123750000D01*
X113500000Y-123750000D01*
X113500000Y-130500000D01*
X113500000Y-130500000D01*
G37*
G36*
X118750000Y-122500000D02*
G01*
X115500000Y-122500000D01*
X115500000Y-117874999D01*
X115497598Y-117850613D01*
X115490485Y-117827164D01*
X115478934Y-117805553D01*
X115463389Y-117786611D01*
X115444447Y-117771066D01*
X115422836Y-117759515D01*
X115399387Y-117752402D01*
X115375001Y-117750000D01*
X87250000Y-117750000D01*
X87250000Y-111250000D01*
X118750000Y-111250000D01*
X118750000Y-122500000D01*
X118750000Y-122500000D01*
G37*
G36*
X100384239Y-103561467D02*
G01*
X100698282Y-103623934D01*
X101289926Y-103869001D01*
X101579523Y-104062504D01*
X101822391Y-104224783D01*
X102275217Y-104677609D01*
X102323367Y-104749671D01*
X102630999Y-105210074D01*
X102876066Y-105801718D01*
X102876066Y-105801719D01*
X103001000Y-106429803D01*
X103001000Y-107070197D01*
X102951903Y-107317022D01*
X102876066Y-107698282D01*
X102630999Y-108289926D01*
X102275216Y-108822392D01*
X101822392Y-109275216D01*
X101289926Y-109630999D01*
X100698282Y-109876066D01*
X100384239Y-109938533D01*
X100070197Y-110001000D01*
X99429803Y-110001000D01*
X99115761Y-109938533D01*
X98801718Y-109876066D01*
X98210074Y-109630999D01*
X97677608Y-109275216D01*
X97224784Y-108822392D01*
X96869001Y-108289926D01*
X96623934Y-107698282D01*
X96548097Y-107317022D01*
X96499000Y-107070197D01*
X96499000Y-106429803D01*
X96623934Y-105801719D01*
X96623934Y-105801718D01*
X96869001Y-105210074D01*
X97176633Y-104749671D01*
X97224783Y-104677609D01*
X97677609Y-104224783D01*
X97920477Y-104062504D01*
X98210074Y-103869001D01*
X98801718Y-103623934D01*
X99115761Y-103561467D01*
X99429803Y-103499000D01*
X100070197Y-103499000D01*
X100384239Y-103561467D01*
X100384239Y-103561467D01*
G37*
G36*
X138117021Y-103806640D02*
G01*
X138583074Y-103999686D01*
X138626771Y-104017786D01*
X139085534Y-104324321D01*
X139475679Y-104714466D01*
X139782214Y-105173229D01*
X139782215Y-105173231D01*
X139993360Y-105682979D01*
X140101000Y-106224124D01*
X140101000Y-106775876D01*
X139993360Y-107317021D01*
X139835436Y-107698282D01*
X139782214Y-107826771D01*
X139475679Y-108285534D01*
X139085534Y-108675679D01*
X138626771Y-108982214D01*
X138626770Y-108982215D01*
X138626769Y-108982215D01*
X138117021Y-109193360D01*
X137575876Y-109301000D01*
X137024124Y-109301000D01*
X136482979Y-109193360D01*
X135973231Y-108982215D01*
X135973230Y-108982215D01*
X135973229Y-108982214D01*
X135514466Y-108675679D01*
X135124321Y-108285534D01*
X134817786Y-107826771D01*
X134764564Y-107698282D01*
X134606640Y-107317021D01*
X134499000Y-106775876D01*
X134499000Y-106224124D01*
X134606640Y-105682979D01*
X134817785Y-105173231D01*
X134817786Y-105173229D01*
X135124321Y-104714466D01*
X135514466Y-104324321D01*
X135973229Y-104017786D01*
X136016926Y-103999686D01*
X136482979Y-103806640D01*
X137024124Y-103699000D01*
X137575876Y-103699000D01*
X138117021Y-103806640D01*
X138117021Y-103806640D01*
G37*
G36*
X61117021Y-103806640D02*
G01*
X61583074Y-103999686D01*
X61626771Y-104017786D01*
X62085534Y-104324321D01*
X62475679Y-104714466D01*
X62782214Y-105173229D01*
X62782215Y-105173231D01*
X62993360Y-105682979D01*
X63101000Y-106224124D01*
X63101000Y-106775876D01*
X62993360Y-107317021D01*
X62835436Y-107698282D01*
X62782214Y-107826771D01*
X62475679Y-108285534D01*
X62085534Y-108675679D01*
X61626771Y-108982214D01*
X61626770Y-108982215D01*
X61626769Y-108982215D01*
X61117021Y-109193360D01*
X60575876Y-109301000D01*
X60024124Y-109301000D01*
X59482979Y-109193360D01*
X58973231Y-108982215D01*
X58973230Y-108982215D01*
X58973229Y-108982214D01*
X58514466Y-108675679D01*
X58124321Y-108285534D01*
X57817786Y-107826771D01*
X57764564Y-107698282D01*
X57606640Y-107317021D01*
X57499000Y-106775876D01*
X57499000Y-106224124D01*
X57606640Y-105682979D01*
X57817785Y-105173231D01*
X57817786Y-105173229D01*
X58124321Y-104714466D01*
X58514466Y-104324321D01*
X58973229Y-104017786D01*
X59016926Y-103999686D01*
X59482979Y-103806640D01*
X60024124Y-103699000D01*
X60575876Y-103699000D01*
X61117021Y-103806640D01*
X61117021Y-103806640D01*
G37*
M02*
