G04 #@! TF.GenerationSoftware,KiCad,Pcbnew,(5.1.4)-1*
G04 #@! TF.CreationDate,2019-11-19T11:57:25+01:00*
G04 #@! TF.ProjectId,hardware_4850,68617264-7761-4726-955f-343835302e6b,rev?*
G04 #@! TF.SameCoordinates,Original*
G04 #@! TF.FileFunction,Soldermask,Bot*
G04 #@! TF.FilePolarity,Negative*
%FSLAX46Y46*%
G04 Gerber Fmt 4.6, Leading zero omitted, Abs format (unit mm)*
G04 Created by KiCad (PCBNEW (5.1.4)-1) date 2019-11-19 11:57:25*
%MOMM*%
%LPD*%
G04 APERTURE LIST*
%ADD10C,0.100000*%
G04 APERTURE END LIST*
D10*
G36*
X70817021Y-175806640D02*
G01*
X71326769Y-176017785D01*
X71326771Y-176017786D01*
X71785534Y-176324321D01*
X72175679Y-176714466D01*
X72482214Y-177173229D01*
X72482215Y-177173231D01*
X72693360Y-177682979D01*
X72801000Y-178224124D01*
X72801000Y-178775876D01*
X72693360Y-179317021D01*
X72482215Y-179826769D01*
X72482214Y-179826771D01*
X72175679Y-180285534D01*
X71785534Y-180675679D01*
X71326771Y-180982214D01*
X71326770Y-180982215D01*
X71326769Y-180982215D01*
X70817021Y-181193360D01*
X70275876Y-181301000D01*
X69724124Y-181301000D01*
X69182979Y-181193360D01*
X68673231Y-180982215D01*
X68673230Y-180982215D01*
X68673229Y-180982214D01*
X68214466Y-180675679D01*
X67824321Y-180285534D01*
X67517786Y-179826771D01*
X67517785Y-179826769D01*
X67306640Y-179317021D01*
X67199000Y-178775876D01*
X67199000Y-178224124D01*
X67306640Y-177682979D01*
X67517785Y-177173231D01*
X67517786Y-177173229D01*
X67824321Y-176714466D01*
X68214466Y-176324321D01*
X68673229Y-176017786D01*
X68673231Y-176017785D01*
X69182979Y-175806640D01*
X69724124Y-175699000D01*
X70275876Y-175699000D01*
X70817021Y-175806640D01*
X70817021Y-175806640D01*
G37*
G36*
X122817021Y-175806640D02*
G01*
X123326769Y-176017785D01*
X123326771Y-176017786D01*
X123785534Y-176324321D01*
X124175679Y-176714466D01*
X124482214Y-177173229D01*
X124482215Y-177173231D01*
X124693360Y-177682979D01*
X124801000Y-178224124D01*
X124801000Y-178775876D01*
X124693360Y-179317021D01*
X124482215Y-179826769D01*
X124482214Y-179826771D01*
X124175679Y-180285534D01*
X123785534Y-180675679D01*
X123326771Y-180982214D01*
X123326770Y-180982215D01*
X123326769Y-180982215D01*
X122817021Y-181193360D01*
X122275876Y-181301000D01*
X121724124Y-181301000D01*
X121182979Y-181193360D01*
X120673231Y-180982215D01*
X120673230Y-180982215D01*
X120673229Y-180982214D01*
X120214466Y-180675679D01*
X119824321Y-180285534D01*
X119517786Y-179826771D01*
X119517785Y-179826769D01*
X119306640Y-179317021D01*
X119199000Y-178775876D01*
X119199000Y-178224124D01*
X119306640Y-177682979D01*
X119517785Y-177173231D01*
X119517786Y-177173229D01*
X119824321Y-176714466D01*
X120214466Y-176324321D01*
X120673229Y-176017786D01*
X120673231Y-176017785D01*
X121182979Y-175806640D01*
X121724124Y-175699000D01*
X122275876Y-175699000D01*
X122817021Y-175806640D01*
X122817021Y-175806640D01*
G37*
G36*
X138117021Y-175806640D02*
G01*
X138626769Y-176017785D01*
X138626771Y-176017786D01*
X139085534Y-176324321D01*
X139475679Y-176714466D01*
X139782214Y-177173229D01*
X139782215Y-177173231D01*
X139993360Y-177682979D01*
X140101000Y-178224124D01*
X140101000Y-178775876D01*
X139993360Y-179317021D01*
X139782215Y-179826769D01*
X139782214Y-179826771D01*
X139475679Y-180285534D01*
X139085534Y-180675679D01*
X138626771Y-180982214D01*
X138626770Y-180982215D01*
X138626769Y-180982215D01*
X138117021Y-181193360D01*
X137575876Y-181301000D01*
X137024124Y-181301000D01*
X136482979Y-181193360D01*
X135973231Y-180982215D01*
X135973230Y-180982215D01*
X135973229Y-180982214D01*
X135514466Y-180675679D01*
X135124321Y-180285534D01*
X134817786Y-179826771D01*
X134817785Y-179826769D01*
X134606640Y-179317021D01*
X134499000Y-178775876D01*
X134499000Y-178224124D01*
X134606640Y-177682979D01*
X134817785Y-177173231D01*
X134817786Y-177173229D01*
X135124321Y-176714466D01*
X135514466Y-176324321D01*
X135973229Y-176017786D01*
X135973231Y-176017785D01*
X136482979Y-175806640D01*
X137024124Y-175699000D01*
X137575876Y-175699000D01*
X138117021Y-175806640D01*
X138117021Y-175806640D01*
G37*
G36*
X61117021Y-175806640D02*
G01*
X61626769Y-176017785D01*
X61626771Y-176017786D01*
X62085534Y-176324321D01*
X62475679Y-176714466D01*
X62782214Y-177173229D01*
X62782215Y-177173231D01*
X62993360Y-177682979D01*
X63101000Y-178224124D01*
X63101000Y-178775876D01*
X62993360Y-179317021D01*
X62782215Y-179826769D01*
X62782214Y-179826771D01*
X62475679Y-180285534D01*
X62085534Y-180675679D01*
X61626771Y-180982214D01*
X61626770Y-180982215D01*
X61626769Y-180982215D01*
X61117021Y-181193360D01*
X60575876Y-181301000D01*
X60024124Y-181301000D01*
X59482979Y-181193360D01*
X58973231Y-180982215D01*
X58973230Y-180982215D01*
X58973229Y-180982214D01*
X58514466Y-180675679D01*
X58124321Y-180285534D01*
X57817786Y-179826771D01*
X57817785Y-179826769D01*
X57606640Y-179317021D01*
X57499000Y-178775876D01*
X57499000Y-178224124D01*
X57606640Y-177682979D01*
X57817785Y-177173231D01*
X57817786Y-177173229D01*
X58124321Y-176714466D01*
X58514466Y-176324321D01*
X58973229Y-176017786D01*
X58973231Y-176017785D01*
X59482979Y-175806640D01*
X60024124Y-175699000D01*
X60575876Y-175699000D01*
X61117021Y-175806640D01*
X61117021Y-175806640D01*
G37*
G36*
X113500000Y-181000000D02*
G01*
X87250000Y-181000000D01*
X87250000Y-174250000D01*
X113500000Y-174250000D01*
X113500000Y-181000000D01*
X113500000Y-181000000D01*
G37*
G36*
X119000000Y-173250000D02*
G01*
X115750000Y-173250000D01*
X115750000Y-168374999D01*
X115747598Y-168350613D01*
X115740485Y-168327164D01*
X115728934Y-168305553D01*
X115713389Y-168286611D01*
X115694447Y-168271066D01*
X115672836Y-168259515D01*
X115649387Y-168252402D01*
X115625001Y-168250000D01*
X87250000Y-168250000D01*
X87250000Y-161750000D01*
X119000000Y-161750000D01*
X119000000Y-173250000D01*
X119000000Y-173250000D01*
G37*
G36*
X100884239Y-154311467D02*
G01*
X101198282Y-154373934D01*
X101789926Y-154619001D01*
X102322392Y-154974784D01*
X102775216Y-155427608D01*
X103130999Y-155960074D01*
X103376066Y-156551718D01*
X103376066Y-156551719D01*
X103501000Y-157179803D01*
X103501000Y-157820197D01*
X103438533Y-158134239D01*
X103376066Y-158448282D01*
X103130999Y-159039926D01*
X102775216Y-159572392D01*
X102322392Y-160025216D01*
X101789926Y-160380999D01*
X101198282Y-160626066D01*
X100884239Y-160688533D01*
X100570197Y-160751000D01*
X99929803Y-160751000D01*
X99615761Y-160688533D01*
X99301718Y-160626066D01*
X98710074Y-160380999D01*
X98177608Y-160025216D01*
X97724784Y-159572392D01*
X97369001Y-159039926D01*
X97123934Y-158448282D01*
X97061467Y-158134239D01*
X96999000Y-157820197D01*
X96999000Y-157179803D01*
X97123934Y-156551719D01*
X97123934Y-156551718D01*
X97369001Y-155960074D01*
X97724784Y-155427608D01*
X98177608Y-154974784D01*
X98710074Y-154619001D01*
X99301718Y-154373934D01*
X99615761Y-154311467D01*
X99929803Y-154249000D01*
X100570197Y-154249000D01*
X100884239Y-154311467D01*
X100884239Y-154311467D01*
G37*
G36*
X118750000Y-153750000D02*
G01*
X87250000Y-153750000D01*
X87250000Y-147250000D01*
X115375001Y-147250000D01*
X115399387Y-147247598D01*
X115422836Y-147240485D01*
X115444447Y-147228934D01*
X115463389Y-147213389D01*
X115478934Y-147194447D01*
X115490485Y-147172836D01*
X115497598Y-147149387D01*
X115500000Y-147125001D01*
X115500000Y-141750000D01*
X118750000Y-141750000D01*
X118750000Y-153750000D01*
X118750000Y-153750000D01*
G37*
G36*
X113500000Y-141000000D02*
G01*
X87250000Y-141000000D01*
X87250000Y-134250000D01*
X113500000Y-134250000D01*
X113500000Y-141000000D01*
X113500000Y-141000000D01*
G37*
G36*
X194067021Y-131806640D02*
G01*
X194576769Y-132017785D01*
X194576771Y-132017786D01*
X195035534Y-132324321D01*
X195425679Y-132714466D01*
X195732214Y-133173229D01*
X195732215Y-133173231D01*
X195943360Y-133682979D01*
X196051000Y-134224124D01*
X196051000Y-134775876D01*
X195943360Y-135317021D01*
X195745828Y-135793905D01*
X195732214Y-135826771D01*
X195425679Y-136285534D01*
X195035534Y-136675679D01*
X194576771Y-136982214D01*
X194576770Y-136982215D01*
X194576769Y-136982215D01*
X194067021Y-137193360D01*
X193525876Y-137301000D01*
X192974124Y-137301000D01*
X192432979Y-137193360D01*
X191923231Y-136982215D01*
X191923230Y-136982215D01*
X191923229Y-136982214D01*
X191464466Y-136675679D01*
X191074321Y-136285534D01*
X190767786Y-135826771D01*
X190754172Y-135793905D01*
X190556640Y-135317021D01*
X190449000Y-134775876D01*
X190449000Y-134224124D01*
X190556640Y-133682979D01*
X190767785Y-133173231D01*
X190767786Y-133173229D01*
X191074321Y-132714466D01*
X191464466Y-132324321D01*
X191923229Y-132017786D01*
X191923231Y-132017785D01*
X192432979Y-131806640D01*
X192974124Y-131699000D01*
X193525876Y-131699000D01*
X194067021Y-131806640D01*
X194067021Y-131806640D01*
G37*
G36*
X246067021Y-131806640D02*
G01*
X246576769Y-132017785D01*
X246576771Y-132017786D01*
X247035534Y-132324321D01*
X247425679Y-132714466D01*
X247732214Y-133173229D01*
X247732215Y-133173231D01*
X247943360Y-133682979D01*
X248051000Y-134224124D01*
X248051000Y-134775876D01*
X247943360Y-135317021D01*
X247745828Y-135793905D01*
X247732214Y-135826771D01*
X247425679Y-136285534D01*
X247035534Y-136675679D01*
X246576771Y-136982214D01*
X246576770Y-136982215D01*
X246576769Y-136982215D01*
X246067021Y-137193360D01*
X245525876Y-137301000D01*
X244974124Y-137301000D01*
X244432979Y-137193360D01*
X243923231Y-136982215D01*
X243923230Y-136982215D01*
X243923229Y-136982214D01*
X243464466Y-136675679D01*
X243074321Y-136285534D01*
X242767786Y-135826771D01*
X242754172Y-135793905D01*
X242556640Y-135317021D01*
X242449000Y-134775876D01*
X242449000Y-134224124D01*
X242556640Y-133682979D01*
X242767785Y-133173231D01*
X242767786Y-133173229D01*
X243074321Y-132714466D01*
X243464466Y-132324321D01*
X243923229Y-132017786D01*
X243923231Y-132017785D01*
X244432979Y-131806640D01*
X244974124Y-131699000D01*
X245525876Y-131699000D01*
X246067021Y-131806640D01*
X246067021Y-131806640D01*
G37*
G36*
X208088855Y-134602140D02*
G01*
X208152618Y-134608420D01*
X208243404Y-134635960D01*
X208275336Y-134645646D01*
X208388425Y-134706094D01*
X208487554Y-134787446D01*
X208568906Y-134886575D01*
X208629354Y-134999664D01*
X208629355Y-134999668D01*
X208666580Y-135122382D01*
X208679149Y-135250000D01*
X208666580Y-135377618D01*
X208639040Y-135468404D01*
X208629354Y-135500336D01*
X208568906Y-135613425D01*
X208487554Y-135712554D01*
X208388425Y-135793906D01*
X208275336Y-135854354D01*
X208243404Y-135864040D01*
X208152618Y-135891580D01*
X208088855Y-135897860D01*
X208056974Y-135901000D01*
X207443026Y-135901000D01*
X207411145Y-135897860D01*
X207347382Y-135891580D01*
X207256596Y-135864040D01*
X207224664Y-135854354D01*
X207111575Y-135793906D01*
X207012446Y-135712554D01*
X206931094Y-135613425D01*
X206870646Y-135500336D01*
X206860960Y-135468404D01*
X206833420Y-135377618D01*
X206820851Y-135250000D01*
X206833420Y-135122382D01*
X206870645Y-134999668D01*
X206870646Y-134999664D01*
X206931094Y-134886575D01*
X207012446Y-134787446D01*
X207111575Y-134706094D01*
X207224664Y-134645646D01*
X207256596Y-134635960D01*
X207347382Y-134608420D01*
X207411145Y-134602140D01*
X207443026Y-134599000D01*
X208056974Y-134599000D01*
X208088855Y-134602140D01*
X208088855Y-134602140D01*
G37*
G36*
X208088855Y-132602140D02*
G01*
X208152618Y-132608420D01*
X208243404Y-132635960D01*
X208275336Y-132645646D01*
X208388425Y-132706094D01*
X208487554Y-132787446D01*
X208568906Y-132886575D01*
X208629354Y-132999664D01*
X208629355Y-132999668D01*
X208666580Y-133122382D01*
X208679149Y-133250000D01*
X208666580Y-133377618D01*
X208639040Y-133468404D01*
X208629354Y-133500336D01*
X208568906Y-133613425D01*
X208487554Y-133712554D01*
X208388425Y-133793906D01*
X208275336Y-133854354D01*
X208243404Y-133864040D01*
X208152618Y-133891580D01*
X208088855Y-133897860D01*
X208056974Y-133901000D01*
X207443026Y-133901000D01*
X207411145Y-133897860D01*
X207347382Y-133891580D01*
X207256596Y-133864040D01*
X207224664Y-133854354D01*
X207111575Y-133793906D01*
X207012446Y-133712554D01*
X206931094Y-133613425D01*
X206870646Y-133500336D01*
X206860960Y-133468404D01*
X206833420Y-133377618D01*
X206820851Y-133250000D01*
X206833420Y-133122382D01*
X206870645Y-132999668D01*
X206870646Y-132999664D01*
X206931094Y-132886575D01*
X207012446Y-132787446D01*
X207111575Y-132706094D01*
X207224664Y-132645646D01*
X207256596Y-132635960D01*
X207347382Y-132608420D01*
X207411145Y-132602140D01*
X207443026Y-132599000D01*
X208056974Y-132599000D01*
X208088855Y-132602140D01*
X208088855Y-132602140D01*
G37*
G36*
X208088855Y-130602140D02*
G01*
X208152618Y-130608420D01*
X208243404Y-130635960D01*
X208275336Y-130645646D01*
X208388425Y-130706094D01*
X208487554Y-130787446D01*
X208568906Y-130886575D01*
X208629354Y-130999664D01*
X208629355Y-130999668D01*
X208666580Y-131122382D01*
X208679149Y-131250000D01*
X208666580Y-131377618D01*
X208639040Y-131468404D01*
X208629354Y-131500336D01*
X208568906Y-131613425D01*
X208487554Y-131712554D01*
X208388425Y-131793906D01*
X208275336Y-131854354D01*
X208243404Y-131864040D01*
X208152618Y-131891580D01*
X208088855Y-131897860D01*
X208056974Y-131901000D01*
X207443026Y-131901000D01*
X207411145Y-131897860D01*
X207347382Y-131891580D01*
X207256596Y-131864040D01*
X207224664Y-131854354D01*
X207111575Y-131793906D01*
X207012446Y-131712554D01*
X206931094Y-131613425D01*
X206870646Y-131500336D01*
X206860960Y-131468404D01*
X206833420Y-131377618D01*
X206820851Y-131250000D01*
X206833420Y-131122382D01*
X206870645Y-130999668D01*
X206870646Y-130999664D01*
X206931094Y-130886575D01*
X207012446Y-130787446D01*
X207111575Y-130706094D01*
X207224664Y-130645646D01*
X207256596Y-130635960D01*
X207347382Y-130608420D01*
X207411145Y-130602140D01*
X207443026Y-130599000D01*
X208056974Y-130599000D01*
X208088855Y-130602140D01*
X208088855Y-130602140D01*
G37*
G36*
X113500000Y-130500000D02*
G01*
X87250000Y-130500000D01*
X87250000Y-123750000D01*
X113500000Y-123750000D01*
X113500000Y-130500000D01*
X113500000Y-130500000D01*
G37*
G36*
X208516242Y-128603404D02*
G01*
X208553337Y-128614657D01*
X208587515Y-128632925D01*
X208617481Y-128657519D01*
X208642075Y-128687485D01*
X208660343Y-128721663D01*
X208671596Y-128758758D01*
X208676000Y-128803474D01*
X208676000Y-129696526D01*
X208671596Y-129741242D01*
X208660343Y-129778337D01*
X208642075Y-129812515D01*
X208617481Y-129842481D01*
X208587515Y-129867075D01*
X208553337Y-129885343D01*
X208516242Y-129896596D01*
X208471526Y-129901000D01*
X207028474Y-129901000D01*
X206983758Y-129896596D01*
X206946663Y-129885343D01*
X206912485Y-129867075D01*
X206882519Y-129842481D01*
X206857925Y-129812515D01*
X206839657Y-129778337D01*
X206828404Y-129741242D01*
X206824000Y-129696526D01*
X206824000Y-128803474D01*
X206828404Y-128758758D01*
X206839657Y-128721663D01*
X206857925Y-128687485D01*
X206882519Y-128657519D01*
X206912485Y-128632925D01*
X206946663Y-128614657D01*
X206983758Y-128603404D01*
X207028474Y-128599000D01*
X208471526Y-128599000D01*
X208516242Y-128603404D01*
X208516242Y-128603404D01*
G37*
G36*
X256266242Y-126353404D02*
G01*
X256303337Y-126364657D01*
X256337515Y-126382925D01*
X256367481Y-126407519D01*
X256392075Y-126437485D01*
X256410343Y-126471663D01*
X256421596Y-126508758D01*
X256426000Y-126553474D01*
X256426000Y-127446526D01*
X256421596Y-127491242D01*
X256410343Y-127528337D01*
X256392075Y-127562515D01*
X256367481Y-127592481D01*
X256337515Y-127617075D01*
X256303337Y-127635343D01*
X256266242Y-127646596D01*
X256221526Y-127651000D01*
X254778474Y-127651000D01*
X254733758Y-127646596D01*
X254696663Y-127635343D01*
X254662485Y-127617075D01*
X254632519Y-127592481D01*
X254607925Y-127562515D01*
X254589657Y-127528337D01*
X254578404Y-127491242D01*
X254574000Y-127446526D01*
X254574000Y-126553474D01*
X254578404Y-126508758D01*
X254589657Y-126471663D01*
X254607925Y-126437485D01*
X254632519Y-126407519D01*
X254662485Y-126382925D01*
X254696663Y-126364657D01*
X254733758Y-126353404D01*
X254778474Y-126349000D01*
X256221526Y-126349000D01*
X256266242Y-126353404D01*
X256266242Y-126353404D01*
G37*
G36*
X255838855Y-124352140D02*
G01*
X255902618Y-124358420D01*
X255965905Y-124377618D01*
X256025336Y-124395646D01*
X256138425Y-124456094D01*
X256237554Y-124537446D01*
X256318906Y-124636575D01*
X256379354Y-124749664D01*
X256379355Y-124749668D01*
X256416580Y-124872382D01*
X256429149Y-125000000D01*
X256416580Y-125127618D01*
X256391482Y-125210356D01*
X256379354Y-125250336D01*
X256318906Y-125363425D01*
X256237554Y-125462554D01*
X256138425Y-125543906D01*
X256025336Y-125604354D01*
X255993404Y-125614040D01*
X255902618Y-125641580D01*
X255838855Y-125647860D01*
X255806974Y-125651000D01*
X255193026Y-125651000D01*
X255161145Y-125647860D01*
X255097382Y-125641580D01*
X255006596Y-125614040D01*
X254974664Y-125604354D01*
X254861575Y-125543906D01*
X254762446Y-125462554D01*
X254681094Y-125363425D01*
X254620646Y-125250336D01*
X254608518Y-125210356D01*
X254583420Y-125127618D01*
X254570851Y-125000000D01*
X254583420Y-124872382D01*
X254620645Y-124749668D01*
X254620646Y-124749664D01*
X254681094Y-124636575D01*
X254762446Y-124537446D01*
X254861575Y-124456094D01*
X254974664Y-124395646D01*
X255034095Y-124377618D01*
X255097382Y-124358420D01*
X255161145Y-124352140D01*
X255193026Y-124349000D01*
X255806974Y-124349000D01*
X255838855Y-124352140D01*
X255838855Y-124352140D01*
G37*
G36*
X216108015Y-122936973D02*
G01*
X216211879Y-122968479D01*
X216239055Y-122983005D01*
X216307600Y-123019643D01*
X216391501Y-123088499D01*
X216460357Y-123172400D01*
X216496995Y-123240945D01*
X216511521Y-123268121D01*
X216515388Y-123280869D01*
X216524760Y-123303496D01*
X216538374Y-123323870D01*
X216555701Y-123341197D01*
X216576075Y-123354811D01*
X216598714Y-123364188D01*
X216622747Y-123368969D01*
X216647251Y-123368969D01*
X216671285Y-123364189D01*
X216693924Y-123354812D01*
X216714298Y-123341198D01*
X216731625Y-123323871D01*
X216745239Y-123303497D01*
X216754612Y-123280869D01*
X216758479Y-123268121D01*
X216773005Y-123240945D01*
X216809643Y-123172400D01*
X216878499Y-123088499D01*
X216962400Y-123019643D01*
X217030945Y-122983005D01*
X217058121Y-122968479D01*
X217161985Y-122936973D01*
X217242933Y-122929000D01*
X217297067Y-122929000D01*
X217378015Y-122936973D01*
X217481879Y-122968479D01*
X217509055Y-122983005D01*
X217577600Y-123019643D01*
X217661501Y-123088499D01*
X217730357Y-123172400D01*
X217766995Y-123240945D01*
X217781521Y-123268121D01*
X217785388Y-123280869D01*
X217794760Y-123303496D01*
X217808374Y-123323870D01*
X217825701Y-123341197D01*
X217846075Y-123354811D01*
X217868714Y-123364188D01*
X217892747Y-123368969D01*
X217917251Y-123368969D01*
X217941285Y-123364189D01*
X217963924Y-123354812D01*
X217984298Y-123341198D01*
X218001625Y-123323871D01*
X218015239Y-123303497D01*
X218024612Y-123280869D01*
X218028479Y-123268121D01*
X218043005Y-123240945D01*
X218079643Y-123172400D01*
X218148499Y-123088499D01*
X218232400Y-123019643D01*
X218300945Y-122983005D01*
X218328121Y-122968479D01*
X218431985Y-122936973D01*
X218512933Y-122929000D01*
X218567067Y-122929000D01*
X218648015Y-122936973D01*
X218751879Y-122968479D01*
X218779055Y-122983005D01*
X218847600Y-123019643D01*
X218931501Y-123088499D01*
X219000357Y-123172400D01*
X219036995Y-123240945D01*
X219051521Y-123268121D01*
X219055388Y-123280869D01*
X219064760Y-123303496D01*
X219078374Y-123323870D01*
X219095701Y-123341197D01*
X219116075Y-123354811D01*
X219138714Y-123364188D01*
X219162747Y-123368969D01*
X219187251Y-123368969D01*
X219211285Y-123364189D01*
X219233924Y-123354812D01*
X219254298Y-123341198D01*
X219271625Y-123323871D01*
X219285239Y-123303497D01*
X219294612Y-123280869D01*
X219298479Y-123268121D01*
X219313005Y-123240945D01*
X219349643Y-123172400D01*
X219418499Y-123088499D01*
X219502400Y-123019643D01*
X219570945Y-122983005D01*
X219598121Y-122968479D01*
X219701985Y-122936973D01*
X219782933Y-122929000D01*
X219837067Y-122929000D01*
X219918015Y-122936973D01*
X220021879Y-122968479D01*
X220049055Y-122983005D01*
X220117600Y-123019643D01*
X220201501Y-123088499D01*
X220270357Y-123172400D01*
X220306995Y-123240945D01*
X220321521Y-123268121D01*
X220325388Y-123280869D01*
X220334760Y-123303496D01*
X220348374Y-123323870D01*
X220365701Y-123341197D01*
X220386075Y-123354811D01*
X220408714Y-123364188D01*
X220432747Y-123368969D01*
X220457251Y-123368969D01*
X220481285Y-123364189D01*
X220503924Y-123354812D01*
X220524298Y-123341198D01*
X220541625Y-123323871D01*
X220555239Y-123303497D01*
X220564612Y-123280869D01*
X220568479Y-123268121D01*
X220583005Y-123240945D01*
X220619643Y-123172400D01*
X220688499Y-123088499D01*
X220772400Y-123019643D01*
X220840945Y-122983005D01*
X220868121Y-122968479D01*
X220971985Y-122936973D01*
X221052933Y-122929000D01*
X221107067Y-122929000D01*
X221188015Y-122936973D01*
X221291879Y-122968479D01*
X221319055Y-122983005D01*
X221387600Y-123019643D01*
X221471501Y-123088499D01*
X221540357Y-123172400D01*
X221576995Y-123240945D01*
X221591521Y-123268121D01*
X221623027Y-123371985D01*
X221633666Y-123480000D01*
X221623027Y-123588015D01*
X221591521Y-123691879D01*
X221591519Y-123691882D01*
X221540357Y-123787600D01*
X221471501Y-123871501D01*
X221387600Y-123940357D01*
X221332014Y-123970068D01*
X221291879Y-123991521D01*
X221279131Y-123995388D01*
X221256504Y-124004760D01*
X221236130Y-124018374D01*
X221218803Y-124035701D01*
X221205189Y-124056075D01*
X221195812Y-124078714D01*
X221191031Y-124102747D01*
X221191031Y-124127251D01*
X221195811Y-124151285D01*
X221205188Y-124173924D01*
X221218802Y-124194298D01*
X221236129Y-124211625D01*
X221256503Y-124225239D01*
X221279131Y-124234612D01*
X221291879Y-124238479D01*
X221313433Y-124250000D01*
X221387600Y-124289643D01*
X221471501Y-124358499D01*
X221540357Y-124442400D01*
X221571322Y-124500332D01*
X221591521Y-124538121D01*
X221623027Y-124641985D01*
X221633666Y-124750000D01*
X221623027Y-124858015D01*
X221591521Y-124961879D01*
X221591191Y-124962496D01*
X221540357Y-125057600D01*
X221471501Y-125141501D01*
X221387600Y-125210357D01*
X221319055Y-125246995D01*
X221291879Y-125261521D01*
X221188015Y-125293027D01*
X221107067Y-125301000D01*
X221052933Y-125301000D01*
X220971985Y-125293027D01*
X220868121Y-125261521D01*
X220840945Y-125246995D01*
X220772400Y-125210357D01*
X220688499Y-125141501D01*
X220619643Y-125057600D01*
X220568809Y-124962496D01*
X220568479Y-124961879D01*
X220564612Y-124949131D01*
X220555240Y-124926504D01*
X220541626Y-124906130D01*
X220524299Y-124888803D01*
X220503925Y-124875189D01*
X220481286Y-124865812D01*
X220457253Y-124861031D01*
X220432749Y-124861031D01*
X220408715Y-124865811D01*
X220386076Y-124875188D01*
X220365702Y-124888802D01*
X220348375Y-124906129D01*
X220334761Y-124926503D01*
X220325388Y-124949131D01*
X220321521Y-124961879D01*
X220321191Y-124962496D01*
X220270357Y-125057600D01*
X220201501Y-125141501D01*
X220117600Y-125210357D01*
X220049055Y-125246995D01*
X220021879Y-125261521D01*
X219918015Y-125293027D01*
X219837067Y-125301000D01*
X219782933Y-125301000D01*
X219701985Y-125293027D01*
X219598121Y-125261521D01*
X219570945Y-125246995D01*
X219502400Y-125210357D01*
X219418499Y-125141501D01*
X219349643Y-125057600D01*
X219298809Y-124962496D01*
X219298479Y-124961879D01*
X219294612Y-124949131D01*
X219285240Y-124926504D01*
X219271626Y-124906130D01*
X219254299Y-124888803D01*
X219233925Y-124875189D01*
X219211286Y-124865812D01*
X219187253Y-124861031D01*
X219162749Y-124861031D01*
X219138715Y-124865811D01*
X219116076Y-124875188D01*
X219095702Y-124888802D01*
X219078375Y-124906129D01*
X219064761Y-124926503D01*
X219055388Y-124949131D01*
X219051521Y-124961879D01*
X219051191Y-124962496D01*
X219000357Y-125057600D01*
X218931501Y-125141501D01*
X218847600Y-125210357D01*
X218779055Y-125246995D01*
X218751879Y-125261521D01*
X218648015Y-125293027D01*
X218567067Y-125301000D01*
X218512933Y-125301000D01*
X218431985Y-125293027D01*
X218328121Y-125261521D01*
X218300945Y-125246995D01*
X218232400Y-125210357D01*
X218148499Y-125141501D01*
X218079643Y-125057600D01*
X218028809Y-124962496D01*
X218028479Y-124961879D01*
X218024612Y-124949131D01*
X218015240Y-124926504D01*
X218001626Y-124906130D01*
X217984299Y-124888803D01*
X217963925Y-124875189D01*
X217941286Y-124865812D01*
X217917253Y-124861031D01*
X217892749Y-124861031D01*
X217868715Y-124865811D01*
X217846076Y-124875188D01*
X217825702Y-124888802D01*
X217808375Y-124906129D01*
X217794761Y-124926503D01*
X217785388Y-124949131D01*
X217781521Y-124961879D01*
X217781191Y-124962496D01*
X217730357Y-125057600D01*
X217661501Y-125141501D01*
X217577600Y-125210357D01*
X217509055Y-125246995D01*
X217481879Y-125261521D01*
X217378015Y-125293027D01*
X217297067Y-125301000D01*
X217242933Y-125301000D01*
X217161985Y-125293027D01*
X217058121Y-125261521D01*
X217030945Y-125246995D01*
X216962400Y-125210357D01*
X216878499Y-125141501D01*
X216809645Y-125057601D01*
X216809644Y-125057600D01*
X216786236Y-125013807D01*
X216772625Y-124993437D01*
X216755298Y-124976110D01*
X216734924Y-124962496D01*
X216712285Y-124953119D01*
X216688252Y-124948338D01*
X216663748Y-124948338D01*
X216639714Y-124953118D01*
X216617076Y-124962495D01*
X216596701Y-124976109D01*
X216579374Y-124993436D01*
X216565760Y-125013810D01*
X216556383Y-125036449D01*
X216551602Y-125060482D01*
X216551000Y-125072735D01*
X216551000Y-125301000D01*
X215449000Y-125301000D01*
X215449000Y-124199000D01*
X215677265Y-124199000D01*
X215701651Y-124196598D01*
X215725100Y-124189485D01*
X215746711Y-124177934D01*
X215765653Y-124162389D01*
X215781198Y-124143447D01*
X215792749Y-124121836D01*
X215799862Y-124098387D01*
X215802264Y-124074001D01*
X215801058Y-124061748D01*
X216198338Y-124061748D01*
X216198338Y-124086252D01*
X216203118Y-124110286D01*
X216212495Y-124132924D01*
X216226109Y-124153299D01*
X216243436Y-124170626D01*
X216263810Y-124184240D01*
X216286449Y-124193617D01*
X216310482Y-124198398D01*
X216322735Y-124199000D01*
X216551000Y-124199000D01*
X216551000Y-124427265D01*
X216553402Y-124451651D01*
X216560515Y-124475100D01*
X216572066Y-124496711D01*
X216587611Y-124515653D01*
X216606553Y-124531198D01*
X216628164Y-124542749D01*
X216651613Y-124549862D01*
X216675999Y-124552264D01*
X216700385Y-124549862D01*
X216723834Y-124542749D01*
X216745445Y-124531198D01*
X216764387Y-124515653D01*
X216779932Y-124496711D01*
X216786233Y-124486198D01*
X216809644Y-124442400D01*
X216878499Y-124358499D01*
X216890074Y-124349000D01*
X216962400Y-124289643D01*
X217036567Y-124250000D01*
X217058121Y-124238479D01*
X217070869Y-124234612D01*
X217093496Y-124225240D01*
X217113870Y-124211626D01*
X217131197Y-124194299D01*
X217144811Y-124173925D01*
X217154188Y-124151286D01*
X217158969Y-124127253D01*
X217158969Y-124102749D01*
X217158969Y-124102747D01*
X217381031Y-124102747D01*
X217381031Y-124127251D01*
X217385811Y-124151285D01*
X217395188Y-124173924D01*
X217408802Y-124194298D01*
X217426129Y-124211625D01*
X217446503Y-124225239D01*
X217469131Y-124234612D01*
X217481879Y-124238479D01*
X217503433Y-124250000D01*
X217577600Y-124289643D01*
X217661501Y-124358499D01*
X217730357Y-124442400D01*
X217761322Y-124500332D01*
X217781521Y-124538121D01*
X217785388Y-124550869D01*
X217794760Y-124573496D01*
X217808374Y-124593870D01*
X217825701Y-124611197D01*
X217846075Y-124624811D01*
X217868714Y-124634188D01*
X217892747Y-124638969D01*
X217917251Y-124638969D01*
X217941285Y-124634189D01*
X217963924Y-124624812D01*
X217984298Y-124611198D01*
X218001625Y-124593871D01*
X218015239Y-124573497D01*
X218024612Y-124550869D01*
X218028479Y-124538121D01*
X218048678Y-124500332D01*
X218079643Y-124442400D01*
X218148499Y-124358499D01*
X218232400Y-124289643D01*
X218306567Y-124250000D01*
X218328121Y-124238479D01*
X218340869Y-124234612D01*
X218363496Y-124225240D01*
X218383870Y-124211626D01*
X218401197Y-124194299D01*
X218414811Y-124173925D01*
X218424188Y-124151286D01*
X218428969Y-124127253D01*
X218428969Y-124102749D01*
X218428969Y-124102747D01*
X218651031Y-124102747D01*
X218651031Y-124127251D01*
X218655811Y-124151285D01*
X218665188Y-124173924D01*
X218678802Y-124194298D01*
X218696129Y-124211625D01*
X218716503Y-124225239D01*
X218739131Y-124234612D01*
X218751879Y-124238479D01*
X218773433Y-124250000D01*
X218847600Y-124289643D01*
X218931501Y-124358499D01*
X219000357Y-124442400D01*
X219031322Y-124500332D01*
X219051521Y-124538121D01*
X219055388Y-124550869D01*
X219064760Y-124573496D01*
X219078374Y-124593870D01*
X219095701Y-124611197D01*
X219116075Y-124624811D01*
X219138714Y-124634188D01*
X219162747Y-124638969D01*
X219187251Y-124638969D01*
X219211285Y-124634189D01*
X219233924Y-124624812D01*
X219254298Y-124611198D01*
X219271625Y-124593871D01*
X219285239Y-124573497D01*
X219294612Y-124550869D01*
X219298479Y-124538121D01*
X219318678Y-124500332D01*
X219349643Y-124442400D01*
X219418499Y-124358499D01*
X219502400Y-124289643D01*
X219576567Y-124250000D01*
X219598121Y-124238479D01*
X219610869Y-124234612D01*
X219633496Y-124225240D01*
X219653870Y-124211626D01*
X219671197Y-124194299D01*
X219684811Y-124173925D01*
X219694188Y-124151286D01*
X219698969Y-124127253D01*
X219698969Y-124102749D01*
X219698969Y-124102747D01*
X219921031Y-124102747D01*
X219921031Y-124127251D01*
X219925811Y-124151285D01*
X219935188Y-124173924D01*
X219948802Y-124194298D01*
X219966129Y-124211625D01*
X219986503Y-124225239D01*
X220009131Y-124234612D01*
X220021879Y-124238479D01*
X220043433Y-124250000D01*
X220117600Y-124289643D01*
X220201501Y-124358499D01*
X220270357Y-124442400D01*
X220301322Y-124500332D01*
X220321521Y-124538121D01*
X220325388Y-124550869D01*
X220334760Y-124573496D01*
X220348374Y-124593870D01*
X220365701Y-124611197D01*
X220386075Y-124624811D01*
X220408714Y-124634188D01*
X220432747Y-124638969D01*
X220457251Y-124638969D01*
X220481285Y-124634189D01*
X220503924Y-124624812D01*
X220524298Y-124611198D01*
X220541625Y-124593871D01*
X220555239Y-124573497D01*
X220564612Y-124550869D01*
X220568479Y-124538121D01*
X220588678Y-124500332D01*
X220619643Y-124442400D01*
X220688499Y-124358499D01*
X220772400Y-124289643D01*
X220846567Y-124250000D01*
X220868121Y-124238479D01*
X220880869Y-124234612D01*
X220903496Y-124225240D01*
X220923870Y-124211626D01*
X220941197Y-124194299D01*
X220954811Y-124173925D01*
X220964188Y-124151286D01*
X220968969Y-124127253D01*
X220968969Y-124102749D01*
X220964189Y-124078715D01*
X220954812Y-124056076D01*
X220941198Y-124035702D01*
X220923871Y-124018375D01*
X220903497Y-124004761D01*
X220880869Y-123995388D01*
X220868121Y-123991521D01*
X220827986Y-123970068D01*
X220772400Y-123940357D01*
X220688499Y-123871501D01*
X220619643Y-123787600D01*
X220568481Y-123691882D01*
X220568479Y-123691879D01*
X220564612Y-123679131D01*
X220555240Y-123656504D01*
X220541626Y-123636130D01*
X220524299Y-123618803D01*
X220503925Y-123605189D01*
X220481286Y-123595812D01*
X220457253Y-123591031D01*
X220432749Y-123591031D01*
X220408715Y-123595811D01*
X220386076Y-123605188D01*
X220365702Y-123618802D01*
X220348375Y-123636129D01*
X220334761Y-123656503D01*
X220325388Y-123679131D01*
X220321521Y-123691879D01*
X220321519Y-123691882D01*
X220270357Y-123787600D01*
X220201501Y-123871501D01*
X220117600Y-123940357D01*
X220062014Y-123970068D01*
X220021879Y-123991521D01*
X220009131Y-123995388D01*
X219986504Y-124004760D01*
X219966130Y-124018374D01*
X219948803Y-124035701D01*
X219935189Y-124056075D01*
X219925812Y-124078714D01*
X219921031Y-124102747D01*
X219698969Y-124102747D01*
X219694189Y-124078715D01*
X219684812Y-124056076D01*
X219671198Y-124035702D01*
X219653871Y-124018375D01*
X219633497Y-124004761D01*
X219610869Y-123995388D01*
X219598121Y-123991521D01*
X219557986Y-123970068D01*
X219502400Y-123940357D01*
X219418499Y-123871501D01*
X219349643Y-123787600D01*
X219298481Y-123691882D01*
X219298479Y-123691879D01*
X219294612Y-123679131D01*
X219285240Y-123656504D01*
X219271626Y-123636130D01*
X219254299Y-123618803D01*
X219233925Y-123605189D01*
X219211286Y-123595812D01*
X219187253Y-123591031D01*
X219162749Y-123591031D01*
X219138715Y-123595811D01*
X219116076Y-123605188D01*
X219095702Y-123618802D01*
X219078375Y-123636129D01*
X219064761Y-123656503D01*
X219055388Y-123679131D01*
X219051521Y-123691879D01*
X219051519Y-123691882D01*
X219000357Y-123787600D01*
X218931501Y-123871501D01*
X218847600Y-123940357D01*
X218792014Y-123970068D01*
X218751879Y-123991521D01*
X218739131Y-123995388D01*
X218716504Y-124004760D01*
X218696130Y-124018374D01*
X218678803Y-124035701D01*
X218665189Y-124056075D01*
X218655812Y-124078714D01*
X218651031Y-124102747D01*
X218428969Y-124102747D01*
X218424189Y-124078715D01*
X218414812Y-124056076D01*
X218401198Y-124035702D01*
X218383871Y-124018375D01*
X218363497Y-124004761D01*
X218340869Y-123995388D01*
X218328121Y-123991521D01*
X218287986Y-123970068D01*
X218232400Y-123940357D01*
X218148499Y-123871501D01*
X218079643Y-123787600D01*
X218028481Y-123691882D01*
X218028479Y-123691879D01*
X218024612Y-123679131D01*
X218015240Y-123656504D01*
X218001626Y-123636130D01*
X217984299Y-123618803D01*
X217963925Y-123605189D01*
X217941286Y-123595812D01*
X217917253Y-123591031D01*
X217892749Y-123591031D01*
X217868715Y-123595811D01*
X217846076Y-123605188D01*
X217825702Y-123618802D01*
X217808375Y-123636129D01*
X217794761Y-123656503D01*
X217785388Y-123679131D01*
X217781521Y-123691879D01*
X217781519Y-123691882D01*
X217730357Y-123787600D01*
X217661501Y-123871501D01*
X217577600Y-123940357D01*
X217522014Y-123970068D01*
X217481879Y-123991521D01*
X217469131Y-123995388D01*
X217446504Y-124004760D01*
X217426130Y-124018374D01*
X217408803Y-124035701D01*
X217395189Y-124056075D01*
X217385812Y-124078714D01*
X217381031Y-124102747D01*
X217158969Y-124102747D01*
X217154189Y-124078715D01*
X217144812Y-124056076D01*
X217131198Y-124035702D01*
X217113871Y-124018375D01*
X217093497Y-124004761D01*
X217070869Y-123995388D01*
X217058121Y-123991521D01*
X217017986Y-123970068D01*
X216962400Y-123940357D01*
X216878499Y-123871501D01*
X216809643Y-123787600D01*
X216758481Y-123691882D01*
X216758479Y-123691879D01*
X216754612Y-123679131D01*
X216745240Y-123656504D01*
X216731626Y-123636130D01*
X216714299Y-123618803D01*
X216693925Y-123605189D01*
X216671286Y-123595812D01*
X216647253Y-123591031D01*
X216622749Y-123591031D01*
X216598715Y-123595811D01*
X216576076Y-123605188D01*
X216555702Y-123618802D01*
X216538375Y-123636129D01*
X216524761Y-123656503D01*
X216515388Y-123679131D01*
X216511521Y-123691879D01*
X216511519Y-123691882D01*
X216460357Y-123787600D01*
X216391501Y-123871501D01*
X216307600Y-123940356D01*
X216263807Y-123963764D01*
X216243437Y-123977375D01*
X216226110Y-123994702D01*
X216212496Y-124015076D01*
X216203119Y-124037715D01*
X216198338Y-124061748D01*
X215801058Y-124061748D01*
X215799862Y-124049615D01*
X215792749Y-124026166D01*
X215781198Y-124004555D01*
X215765653Y-123985613D01*
X215746711Y-123970068D01*
X215736198Y-123963767D01*
X215692400Y-123940356D01*
X215608499Y-123871501D01*
X215539643Y-123787600D01*
X215488481Y-123691882D01*
X215488479Y-123691879D01*
X215456973Y-123588015D01*
X215446334Y-123480000D01*
X215456973Y-123371985D01*
X215488479Y-123268121D01*
X215503005Y-123240945D01*
X215539643Y-123172400D01*
X215608499Y-123088499D01*
X215692400Y-123019643D01*
X215760945Y-122983005D01*
X215788121Y-122968479D01*
X215891985Y-122936973D01*
X215972933Y-122929000D01*
X216027067Y-122929000D01*
X216108015Y-122936973D01*
X216108015Y-122936973D01*
G37*
G36*
X208088855Y-123602140D02*
G01*
X208152618Y-123608420D01*
X208243404Y-123635960D01*
X208275336Y-123645646D01*
X208388425Y-123706094D01*
X208487554Y-123787446D01*
X208568906Y-123886575D01*
X208629354Y-123999664D01*
X208635030Y-124018375D01*
X208666580Y-124122382D01*
X208679149Y-124250000D01*
X208666580Y-124377618D01*
X208644122Y-124451651D01*
X208629354Y-124500336D01*
X208568906Y-124613425D01*
X208487554Y-124712554D01*
X208388425Y-124793906D01*
X208275336Y-124854354D01*
X208263267Y-124858015D01*
X208152618Y-124891580D01*
X208088855Y-124897860D01*
X208056974Y-124901000D01*
X207443026Y-124901000D01*
X207411145Y-124897860D01*
X207347382Y-124891580D01*
X207236733Y-124858015D01*
X207224664Y-124854354D01*
X207111575Y-124793906D01*
X207012446Y-124712554D01*
X206931094Y-124613425D01*
X206870646Y-124500336D01*
X206855878Y-124451651D01*
X206833420Y-124377618D01*
X206820851Y-124250000D01*
X206833420Y-124122382D01*
X206864970Y-124018375D01*
X206870646Y-123999664D01*
X206931094Y-123886575D01*
X207012446Y-123787446D01*
X207111575Y-123706094D01*
X207224664Y-123645646D01*
X207256596Y-123635960D01*
X207347382Y-123608420D01*
X207411145Y-123602140D01*
X207443026Y-123599000D01*
X208056974Y-123599000D01*
X208088855Y-123602140D01*
X208088855Y-123602140D01*
G37*
G36*
X255838855Y-122352140D02*
G01*
X255902618Y-122358420D01*
X255965905Y-122377618D01*
X256025336Y-122395646D01*
X256138425Y-122456094D01*
X256237554Y-122537446D01*
X256318906Y-122636575D01*
X256379354Y-122749664D01*
X256379355Y-122749668D01*
X256416580Y-122872382D01*
X256429149Y-123000000D01*
X256416580Y-123127618D01*
X256402995Y-123172400D01*
X256379354Y-123250336D01*
X256318906Y-123363425D01*
X256237554Y-123462554D01*
X256138425Y-123543906D01*
X256025336Y-123604354D01*
X256022583Y-123605189D01*
X255902618Y-123641580D01*
X255861344Y-123645645D01*
X255806974Y-123651000D01*
X255193026Y-123651000D01*
X255138656Y-123645645D01*
X255097382Y-123641580D01*
X254977417Y-123605189D01*
X254974664Y-123604354D01*
X254861575Y-123543906D01*
X254762446Y-123462554D01*
X254681094Y-123363425D01*
X254620646Y-123250336D01*
X254597005Y-123172400D01*
X254583420Y-123127618D01*
X254570851Y-123000000D01*
X254583420Y-122872382D01*
X254620645Y-122749668D01*
X254620646Y-122749664D01*
X254681094Y-122636575D01*
X254762446Y-122537446D01*
X254861575Y-122456094D01*
X254974664Y-122395646D01*
X255034095Y-122377618D01*
X255097382Y-122358420D01*
X255161145Y-122352140D01*
X255193026Y-122349000D01*
X255806974Y-122349000D01*
X255838855Y-122352140D01*
X255838855Y-122352140D01*
G37*
G36*
X208088855Y-121602140D02*
G01*
X208152618Y-121608420D01*
X208243404Y-121635960D01*
X208275336Y-121645646D01*
X208388425Y-121706094D01*
X208487554Y-121787446D01*
X208568906Y-121886575D01*
X208629354Y-121999664D01*
X208629355Y-121999668D01*
X208666580Y-122122382D01*
X208679149Y-122250000D01*
X208666580Y-122377618D01*
X208661111Y-122395646D01*
X208629354Y-122500336D01*
X208568906Y-122613425D01*
X208487554Y-122712554D01*
X208388425Y-122793906D01*
X208275336Y-122854354D01*
X208243404Y-122864040D01*
X208152618Y-122891580D01*
X208088855Y-122897860D01*
X208056974Y-122901000D01*
X207443026Y-122901000D01*
X207411145Y-122897860D01*
X207347382Y-122891580D01*
X207256596Y-122864040D01*
X207224664Y-122854354D01*
X207111575Y-122793906D01*
X207012446Y-122712554D01*
X206931094Y-122613425D01*
X206870646Y-122500336D01*
X206838889Y-122395646D01*
X206833420Y-122377618D01*
X206820851Y-122250000D01*
X206833420Y-122122382D01*
X206870645Y-121999668D01*
X206870646Y-121999664D01*
X206931094Y-121886575D01*
X207012446Y-121787446D01*
X207111575Y-121706094D01*
X207224664Y-121645646D01*
X207256596Y-121635960D01*
X207347382Y-121608420D01*
X207411145Y-121602140D01*
X207443026Y-121599000D01*
X208056974Y-121599000D01*
X208088855Y-121602140D01*
X208088855Y-121602140D01*
G37*
G36*
X118750000Y-122500000D02*
G01*
X115500000Y-122500000D01*
X115500000Y-117874999D01*
X115497598Y-117850613D01*
X115490485Y-117827164D01*
X115478934Y-117805553D01*
X115463389Y-117786611D01*
X115444447Y-117771066D01*
X115422836Y-117759515D01*
X115399387Y-117752402D01*
X115375001Y-117750000D01*
X87250000Y-117750000D01*
X87250000Y-111250000D01*
X118750000Y-111250000D01*
X118750000Y-122500000D01*
X118750000Y-122500000D01*
G37*
G36*
X255838855Y-120352140D02*
G01*
X255902618Y-120358420D01*
X255965905Y-120377618D01*
X256025336Y-120395646D01*
X256138425Y-120456094D01*
X256237554Y-120537446D01*
X256318906Y-120636575D01*
X256379354Y-120749664D01*
X256379355Y-120749668D01*
X256416580Y-120872382D01*
X256429149Y-121000000D01*
X256416580Y-121127618D01*
X256389040Y-121218404D01*
X256379354Y-121250336D01*
X256318906Y-121363425D01*
X256237554Y-121462554D01*
X256138425Y-121543906D01*
X256025336Y-121604354D01*
X256011932Y-121608420D01*
X255902618Y-121641580D01*
X255861344Y-121645645D01*
X255806974Y-121651000D01*
X255193026Y-121651000D01*
X255138656Y-121645645D01*
X255097382Y-121641580D01*
X254988068Y-121608420D01*
X254974664Y-121604354D01*
X254861575Y-121543906D01*
X254762446Y-121462554D01*
X254681094Y-121363425D01*
X254620646Y-121250336D01*
X254610960Y-121218404D01*
X254583420Y-121127618D01*
X254570851Y-121000000D01*
X254583420Y-120872382D01*
X254620645Y-120749668D01*
X254620646Y-120749664D01*
X254681094Y-120636575D01*
X254762446Y-120537446D01*
X254861575Y-120456094D01*
X254974664Y-120395646D01*
X255034095Y-120377618D01*
X255097382Y-120358420D01*
X255161145Y-120352140D01*
X255193026Y-120349000D01*
X255806974Y-120349000D01*
X255838855Y-120352140D01*
X255838855Y-120352140D01*
G37*
G36*
X208088855Y-119602140D02*
G01*
X208152618Y-119608420D01*
X208243404Y-119635960D01*
X208275336Y-119645646D01*
X208388425Y-119706094D01*
X208487554Y-119787446D01*
X208568906Y-119886575D01*
X208629354Y-119999664D01*
X208629355Y-119999668D01*
X208666580Y-120122382D01*
X208679149Y-120250000D01*
X208666580Y-120377618D01*
X208661111Y-120395646D01*
X208629354Y-120500336D01*
X208568906Y-120613425D01*
X208487554Y-120712554D01*
X208388425Y-120793906D01*
X208275336Y-120854354D01*
X208243404Y-120864040D01*
X208152618Y-120891580D01*
X208088855Y-120897860D01*
X208056974Y-120901000D01*
X207443026Y-120901000D01*
X207411145Y-120897860D01*
X207347382Y-120891580D01*
X207256596Y-120864040D01*
X207224664Y-120854354D01*
X207111575Y-120793906D01*
X207012446Y-120712554D01*
X206931094Y-120613425D01*
X206870646Y-120500336D01*
X206838889Y-120395646D01*
X206833420Y-120377618D01*
X206820851Y-120250000D01*
X206833420Y-120122382D01*
X206870645Y-119999668D01*
X206870646Y-119999664D01*
X206931094Y-119886575D01*
X207012446Y-119787446D01*
X207111575Y-119706094D01*
X207224664Y-119645646D01*
X207256596Y-119635960D01*
X207347382Y-119608420D01*
X207411145Y-119602140D01*
X207443026Y-119599000D01*
X208056974Y-119599000D01*
X208088855Y-119602140D01*
X208088855Y-119602140D01*
G37*
G36*
X255838855Y-118352140D02*
G01*
X255902618Y-118358420D01*
X255993404Y-118385960D01*
X256025336Y-118395646D01*
X256138425Y-118456094D01*
X256237554Y-118537446D01*
X256318906Y-118636575D01*
X256379354Y-118749664D01*
X256379355Y-118749668D01*
X256416580Y-118872382D01*
X256429149Y-119000000D01*
X256416580Y-119127618D01*
X256398175Y-119188290D01*
X256379354Y-119250336D01*
X256318906Y-119363425D01*
X256237554Y-119462554D01*
X256138425Y-119543906D01*
X256025336Y-119604354D01*
X256011932Y-119608420D01*
X255902618Y-119641580D01*
X255861344Y-119645645D01*
X255806974Y-119651000D01*
X255193026Y-119651000D01*
X255138656Y-119645645D01*
X255097382Y-119641580D01*
X254988068Y-119608420D01*
X254974664Y-119604354D01*
X254861575Y-119543906D01*
X254762446Y-119462554D01*
X254681094Y-119363425D01*
X254620646Y-119250336D01*
X254601825Y-119188290D01*
X254583420Y-119127618D01*
X254570851Y-119000000D01*
X254583420Y-118872382D01*
X254620645Y-118749668D01*
X254620646Y-118749664D01*
X254681094Y-118636575D01*
X254762446Y-118537446D01*
X254861575Y-118456094D01*
X254974664Y-118395646D01*
X255006596Y-118385960D01*
X255097382Y-118358420D01*
X255161145Y-118352140D01*
X255193026Y-118349000D01*
X255806974Y-118349000D01*
X255838855Y-118352140D01*
X255838855Y-118352140D01*
G37*
G36*
X186910721Y-118170174D02*
G01*
X187010995Y-118211709D01*
X187010996Y-118211710D01*
X187101242Y-118272010D01*
X187177990Y-118348758D01*
X187184446Y-118358420D01*
X187238291Y-118439005D01*
X187279826Y-118539279D01*
X187301000Y-118645730D01*
X187301000Y-118754270D01*
X187279826Y-118860721D01*
X187238291Y-118960995D01*
X187238290Y-118960996D01*
X187177990Y-119051242D01*
X187101242Y-119127990D01*
X187055812Y-119158345D01*
X187010995Y-119188291D01*
X186910721Y-119229826D01*
X186804270Y-119251000D01*
X186695730Y-119251000D01*
X186589279Y-119229826D01*
X186489005Y-119188291D01*
X186444188Y-119158345D01*
X186398758Y-119127990D01*
X186322010Y-119051242D01*
X186261710Y-118960996D01*
X186261709Y-118960995D01*
X186220174Y-118860721D01*
X186199000Y-118754270D01*
X186199000Y-118645730D01*
X186220174Y-118539279D01*
X186261709Y-118439005D01*
X186315554Y-118358420D01*
X186322010Y-118348758D01*
X186398758Y-118272010D01*
X186489004Y-118211710D01*
X186489005Y-118211709D01*
X186589279Y-118170174D01*
X186695730Y-118149000D01*
X186804270Y-118149000D01*
X186910721Y-118170174D01*
X186910721Y-118170174D01*
G37*
G36*
X208516242Y-117603404D02*
G01*
X208553337Y-117614657D01*
X208587515Y-117632925D01*
X208617481Y-117657519D01*
X208642075Y-117687485D01*
X208660343Y-117721663D01*
X208671596Y-117758758D01*
X208676000Y-117803474D01*
X208676000Y-118696526D01*
X208671596Y-118741242D01*
X208660343Y-118778337D01*
X208642075Y-118812515D01*
X208617481Y-118842481D01*
X208587515Y-118867075D01*
X208553337Y-118885343D01*
X208516242Y-118896596D01*
X208471526Y-118901000D01*
X207028474Y-118901000D01*
X206983758Y-118896596D01*
X206946663Y-118885343D01*
X206912485Y-118867075D01*
X206882519Y-118842481D01*
X206857925Y-118812515D01*
X206839657Y-118778337D01*
X206828404Y-118741242D01*
X206824000Y-118696526D01*
X206824000Y-117803474D01*
X206828404Y-117758758D01*
X206839657Y-117721663D01*
X206857925Y-117687485D01*
X206882519Y-117657519D01*
X206912485Y-117632925D01*
X206946663Y-117614657D01*
X206983758Y-117603404D01*
X207028474Y-117599000D01*
X208471526Y-117599000D01*
X208516242Y-117603404D01*
X208516242Y-117603404D01*
G37*
G36*
X226304591Y-115728085D02*
G01*
X226338569Y-115738393D01*
X226369890Y-115755134D01*
X226397339Y-115777661D01*
X226419866Y-115805110D01*
X226436607Y-115836431D01*
X226446915Y-115870409D01*
X226451000Y-115911890D01*
X226451000Y-116588110D01*
X226446915Y-116629591D01*
X226436607Y-116663569D01*
X226419866Y-116694890D01*
X226397339Y-116722339D01*
X226369890Y-116744866D01*
X226338569Y-116761607D01*
X226304591Y-116771915D01*
X226263110Y-116776000D01*
X225661890Y-116776000D01*
X225620409Y-116771915D01*
X225586431Y-116761607D01*
X225555110Y-116744866D01*
X225527661Y-116722339D01*
X225505134Y-116694890D01*
X225488393Y-116663569D01*
X225478085Y-116629591D01*
X225474000Y-116588110D01*
X225474000Y-115911890D01*
X225478085Y-115870409D01*
X225488393Y-115836431D01*
X225505134Y-115805110D01*
X225527661Y-115777661D01*
X225555110Y-115755134D01*
X225586431Y-115738393D01*
X225620409Y-115728085D01*
X225661890Y-115724000D01*
X226263110Y-115724000D01*
X226304591Y-115728085D01*
X226304591Y-115728085D01*
G37*
G36*
X227879591Y-115728085D02*
G01*
X227913569Y-115738393D01*
X227944890Y-115755134D01*
X227972339Y-115777661D01*
X227994866Y-115805110D01*
X228011607Y-115836431D01*
X228021915Y-115870409D01*
X228026000Y-115911890D01*
X228026000Y-116588110D01*
X228021915Y-116629591D01*
X228011607Y-116663569D01*
X227994866Y-116694890D01*
X227972339Y-116722339D01*
X227944890Y-116744866D01*
X227913569Y-116761607D01*
X227879591Y-116771915D01*
X227838110Y-116776000D01*
X227236890Y-116776000D01*
X227195409Y-116771915D01*
X227161431Y-116761607D01*
X227130110Y-116744866D01*
X227102661Y-116722339D01*
X227080134Y-116694890D01*
X227063393Y-116663569D01*
X227053085Y-116629591D01*
X227049000Y-116588110D01*
X227049000Y-115911890D01*
X227053085Y-115870409D01*
X227063393Y-115836431D01*
X227080134Y-115805110D01*
X227102661Y-115777661D01*
X227130110Y-115755134D01*
X227161431Y-115738393D01*
X227195409Y-115728085D01*
X227236890Y-115724000D01*
X227838110Y-115724000D01*
X227879591Y-115728085D01*
X227879591Y-115728085D01*
G37*
G36*
X231926000Y-116751000D02*
G01*
X230724000Y-116751000D01*
X230724000Y-115349000D01*
X231926000Y-115349000D01*
X231926000Y-116751000D01*
X231926000Y-116751000D01*
G37*
G36*
X230276000Y-116751000D02*
G01*
X229074000Y-116751000D01*
X229074000Y-115349000D01*
X230276000Y-115349000D01*
X230276000Y-116751000D01*
X230276000Y-116751000D01*
G37*
G36*
X227879591Y-113978085D02*
G01*
X227913569Y-113988393D01*
X227944890Y-114005134D01*
X227972339Y-114027661D01*
X227994866Y-114055110D01*
X228011607Y-114086431D01*
X228021915Y-114120409D01*
X228026000Y-114161890D01*
X228026000Y-114838110D01*
X228021915Y-114879591D01*
X228011607Y-114913569D01*
X227994866Y-114944890D01*
X227972339Y-114972339D01*
X227944890Y-114994866D01*
X227913569Y-115011607D01*
X227879591Y-115021915D01*
X227838110Y-115026000D01*
X227236890Y-115026000D01*
X227195409Y-115021915D01*
X227161431Y-115011607D01*
X227130110Y-114994866D01*
X227102661Y-114972339D01*
X227080134Y-114944890D01*
X227063393Y-114913569D01*
X227053085Y-114879591D01*
X227049000Y-114838110D01*
X227049000Y-114161890D01*
X227053085Y-114120409D01*
X227063393Y-114086431D01*
X227080134Y-114055110D01*
X227102661Y-114027661D01*
X227130110Y-114005134D01*
X227161431Y-113988393D01*
X227195409Y-113978085D01*
X227236890Y-113974000D01*
X227838110Y-113974000D01*
X227879591Y-113978085D01*
X227879591Y-113978085D01*
G37*
G36*
X226304591Y-113978085D02*
G01*
X226338569Y-113988393D01*
X226369890Y-114005134D01*
X226397339Y-114027661D01*
X226419866Y-114055110D01*
X226436607Y-114086431D01*
X226446915Y-114120409D01*
X226451000Y-114161890D01*
X226451000Y-114838110D01*
X226446915Y-114879591D01*
X226436607Y-114913569D01*
X226419866Y-114944890D01*
X226397339Y-114972339D01*
X226369890Y-114994866D01*
X226338569Y-115011607D01*
X226304591Y-115021915D01*
X226263110Y-115026000D01*
X225661890Y-115026000D01*
X225620409Y-115021915D01*
X225586431Y-115011607D01*
X225555110Y-114994866D01*
X225527661Y-114972339D01*
X225505134Y-114944890D01*
X225488393Y-114913569D01*
X225478085Y-114879591D01*
X225474000Y-114838110D01*
X225474000Y-114161890D01*
X225478085Y-114120409D01*
X225488393Y-114086431D01*
X225505134Y-114055110D01*
X225527661Y-114027661D01*
X225555110Y-114005134D01*
X225586431Y-113988393D01*
X225620409Y-113978085D01*
X225661890Y-113974000D01*
X226263110Y-113974000D01*
X226304591Y-113978085D01*
X226304591Y-113978085D01*
G37*
G36*
X186910721Y-113770174D02*
G01*
X187010995Y-113811709D01*
X187010996Y-113811710D01*
X187101242Y-113872010D01*
X187177990Y-113948758D01*
X187197992Y-113978693D01*
X187238291Y-114039005D01*
X187279826Y-114139279D01*
X187301000Y-114245730D01*
X187301000Y-114354270D01*
X187279826Y-114460721D01*
X187238291Y-114560995D01*
X187238290Y-114560996D01*
X187177990Y-114651242D01*
X187101242Y-114727990D01*
X187055812Y-114758345D01*
X187010995Y-114788291D01*
X186910721Y-114829826D01*
X186804270Y-114851000D01*
X186695730Y-114851000D01*
X186589279Y-114829826D01*
X186489005Y-114788291D01*
X186444188Y-114758345D01*
X186398758Y-114727990D01*
X186322010Y-114651242D01*
X186261710Y-114560996D01*
X186261709Y-114560995D01*
X186220174Y-114460721D01*
X186199000Y-114354270D01*
X186199000Y-114245730D01*
X186220174Y-114139279D01*
X186261709Y-114039005D01*
X186302008Y-113978693D01*
X186322010Y-113948758D01*
X186398758Y-113872010D01*
X186489004Y-113811710D01*
X186489005Y-113811709D01*
X186589279Y-113770174D01*
X186695730Y-113749000D01*
X186804270Y-113749000D01*
X186910721Y-113770174D01*
X186910721Y-113770174D01*
G37*
G36*
X231926000Y-114651000D02*
G01*
X230724000Y-114651000D01*
X230724000Y-113249000D01*
X231926000Y-113249000D01*
X231926000Y-114651000D01*
X231926000Y-114651000D01*
G37*
G36*
X230276000Y-114651000D02*
G01*
X229074000Y-114651000D01*
X229074000Y-113249000D01*
X230276000Y-113249000D01*
X230276000Y-114651000D01*
X230276000Y-114651000D01*
G37*
G36*
X256266242Y-113103404D02*
G01*
X256303337Y-113114657D01*
X256337515Y-113132925D01*
X256367481Y-113157519D01*
X256392075Y-113187485D01*
X256410343Y-113221663D01*
X256421596Y-113258758D01*
X256426000Y-113303474D01*
X256426000Y-114196526D01*
X256421596Y-114241242D01*
X256410343Y-114278337D01*
X256392075Y-114312515D01*
X256367481Y-114342481D01*
X256337515Y-114367075D01*
X256303337Y-114385343D01*
X256266242Y-114396596D01*
X256221526Y-114401000D01*
X254778474Y-114401000D01*
X254733758Y-114396596D01*
X254696663Y-114385343D01*
X254662485Y-114367075D01*
X254632519Y-114342481D01*
X254607925Y-114312515D01*
X254589657Y-114278337D01*
X254578404Y-114241242D01*
X254574000Y-114196526D01*
X254574000Y-113303474D01*
X254578404Y-113258758D01*
X254589657Y-113221663D01*
X254607925Y-113187485D01*
X254632519Y-113157519D01*
X254662485Y-113132925D01*
X254696663Y-113114657D01*
X254733758Y-113103404D01*
X254778474Y-113099000D01*
X256221526Y-113099000D01*
X256266242Y-113103404D01*
X256266242Y-113103404D01*
G37*
G36*
X195129591Y-113053085D02*
G01*
X195163569Y-113063393D01*
X195194890Y-113080134D01*
X195222339Y-113102661D01*
X195244866Y-113130110D01*
X195261607Y-113161431D01*
X195271915Y-113195409D01*
X195276000Y-113236890D01*
X195276000Y-113838110D01*
X195271915Y-113879591D01*
X195261607Y-113913569D01*
X195244866Y-113944890D01*
X195222339Y-113972339D01*
X195194890Y-113994866D01*
X195163569Y-114011607D01*
X195129591Y-114021915D01*
X195088110Y-114026000D01*
X194411890Y-114026000D01*
X194370409Y-114021915D01*
X194336431Y-114011607D01*
X194305110Y-113994866D01*
X194277661Y-113972339D01*
X194255134Y-113944890D01*
X194238393Y-113913569D01*
X194228085Y-113879591D01*
X194224000Y-113838110D01*
X194224000Y-113236890D01*
X194228085Y-113195409D01*
X194238393Y-113161431D01*
X194255134Y-113130110D01*
X194277661Y-113102661D01*
X194305110Y-113080134D01*
X194336431Y-113063393D01*
X194370409Y-113053085D01*
X194411890Y-113049000D01*
X195088110Y-113049000D01*
X195129591Y-113053085D01*
X195129591Y-113053085D01*
G37*
G36*
X193629591Y-113053085D02*
G01*
X193663569Y-113063393D01*
X193694890Y-113080134D01*
X193722339Y-113102661D01*
X193744866Y-113130110D01*
X193761607Y-113161431D01*
X193771915Y-113195409D01*
X193776000Y-113236890D01*
X193776000Y-113838110D01*
X193771915Y-113879591D01*
X193761607Y-113913569D01*
X193744866Y-113944890D01*
X193722339Y-113972339D01*
X193694890Y-113994866D01*
X193663569Y-114011607D01*
X193629591Y-114021915D01*
X193588110Y-114026000D01*
X192911890Y-114026000D01*
X192870409Y-114021915D01*
X192836431Y-114011607D01*
X192805110Y-113994866D01*
X192777661Y-113972339D01*
X192755134Y-113944890D01*
X192738393Y-113913569D01*
X192728085Y-113879591D01*
X192724000Y-113838110D01*
X192724000Y-113236890D01*
X192728085Y-113195409D01*
X192738393Y-113161431D01*
X192755134Y-113130110D01*
X192777661Y-113102661D01*
X192805110Y-113080134D01*
X192836431Y-113063393D01*
X192870409Y-113053085D01*
X192911890Y-113049000D01*
X193588110Y-113049000D01*
X193629591Y-113053085D01*
X193629591Y-113053085D01*
G37*
G36*
X227968604Y-111228347D02*
G01*
X228005144Y-111239432D01*
X228038821Y-111257433D01*
X228068341Y-111281659D01*
X228092567Y-111311179D01*
X228110568Y-111344856D01*
X228121653Y-111381396D01*
X228126000Y-111425538D01*
X228126000Y-112374462D01*
X228121653Y-112418604D01*
X228110568Y-112455144D01*
X228092567Y-112488821D01*
X228068341Y-112518341D01*
X228038821Y-112542567D01*
X228005144Y-112560568D01*
X227968604Y-112571653D01*
X227924462Y-112576000D01*
X225575538Y-112576000D01*
X225531396Y-112571653D01*
X225494856Y-112560568D01*
X225461179Y-112542567D01*
X225431659Y-112518341D01*
X225407433Y-112488821D01*
X225389432Y-112455144D01*
X225378347Y-112418604D01*
X225374000Y-112374462D01*
X225374000Y-111425538D01*
X225378347Y-111381396D01*
X225389432Y-111344856D01*
X225407433Y-111311179D01*
X225431659Y-111281659D01*
X225461179Y-111257433D01*
X225494856Y-111239432D01*
X225531396Y-111228347D01*
X225575538Y-111224000D01*
X227924462Y-111224000D01*
X227968604Y-111228347D01*
X227968604Y-111228347D01*
G37*
G36*
X195129591Y-111478085D02*
G01*
X195163569Y-111488393D01*
X195194890Y-111505134D01*
X195222339Y-111527661D01*
X195244866Y-111555110D01*
X195261607Y-111586431D01*
X195271915Y-111620409D01*
X195276000Y-111661890D01*
X195276000Y-112263110D01*
X195271915Y-112304591D01*
X195261607Y-112338569D01*
X195244866Y-112369890D01*
X195222339Y-112397339D01*
X195194890Y-112419866D01*
X195163569Y-112436607D01*
X195129591Y-112446915D01*
X195088110Y-112451000D01*
X194411890Y-112451000D01*
X194370409Y-112446915D01*
X194336431Y-112436607D01*
X194305110Y-112419866D01*
X194277661Y-112397339D01*
X194255134Y-112369890D01*
X194238393Y-112338569D01*
X194228085Y-112304591D01*
X194224000Y-112263110D01*
X194224000Y-111661890D01*
X194228085Y-111620409D01*
X194238393Y-111586431D01*
X194255134Y-111555110D01*
X194277661Y-111527661D01*
X194305110Y-111505134D01*
X194336431Y-111488393D01*
X194370409Y-111478085D01*
X194411890Y-111474000D01*
X195088110Y-111474000D01*
X195129591Y-111478085D01*
X195129591Y-111478085D01*
G37*
G36*
X193629591Y-111478085D02*
G01*
X193663569Y-111488393D01*
X193694890Y-111505134D01*
X193722339Y-111527661D01*
X193744866Y-111555110D01*
X193761607Y-111586431D01*
X193771915Y-111620409D01*
X193776000Y-111661890D01*
X193776000Y-112263110D01*
X193771915Y-112304591D01*
X193761607Y-112338569D01*
X193744866Y-112369890D01*
X193722339Y-112397339D01*
X193694890Y-112419866D01*
X193663569Y-112436607D01*
X193629591Y-112446915D01*
X193588110Y-112451000D01*
X192911890Y-112451000D01*
X192870409Y-112446915D01*
X192836431Y-112436607D01*
X192805110Y-112419866D01*
X192777661Y-112397339D01*
X192755134Y-112369890D01*
X192738393Y-112338569D01*
X192728085Y-112304591D01*
X192724000Y-112263110D01*
X192724000Y-111661890D01*
X192728085Y-111620409D01*
X192738393Y-111586431D01*
X192755134Y-111555110D01*
X192777661Y-111527661D01*
X192805110Y-111505134D01*
X192836431Y-111488393D01*
X192870409Y-111478085D01*
X192911890Y-111474000D01*
X193588110Y-111474000D01*
X193629591Y-111478085D01*
X193629591Y-111478085D01*
G37*
G36*
X255838855Y-111102140D02*
G01*
X255902618Y-111108420D01*
X255972409Y-111129591D01*
X256025336Y-111145646D01*
X256138425Y-111206094D01*
X256237554Y-111287446D01*
X256318906Y-111386575D01*
X256379354Y-111499664D01*
X256379355Y-111499668D01*
X256416580Y-111622382D01*
X256429149Y-111750000D01*
X256416580Y-111877618D01*
X256396173Y-111944890D01*
X256379354Y-112000336D01*
X256318906Y-112113425D01*
X256237554Y-112212554D01*
X256138425Y-112293906D01*
X256025336Y-112354354D01*
X256012156Y-112358352D01*
X255902618Y-112391580D01*
X255838855Y-112397860D01*
X255806974Y-112401000D01*
X255193026Y-112401000D01*
X255161145Y-112397860D01*
X255097382Y-112391580D01*
X254987844Y-112358352D01*
X254974664Y-112354354D01*
X254861575Y-112293906D01*
X254762446Y-112212554D01*
X254681094Y-112113425D01*
X254620646Y-112000336D01*
X254603827Y-111944890D01*
X254583420Y-111877618D01*
X254570851Y-111750000D01*
X254583420Y-111622382D01*
X254620645Y-111499668D01*
X254620646Y-111499664D01*
X254681094Y-111386575D01*
X254762446Y-111287446D01*
X254861575Y-111206094D01*
X254974664Y-111145646D01*
X255027591Y-111129591D01*
X255097382Y-111108420D01*
X255161145Y-111102140D01*
X255193026Y-111099000D01*
X255806974Y-111099000D01*
X255838855Y-111102140D01*
X255838855Y-111102140D01*
G37*
G36*
X235968604Y-110978347D02*
G01*
X236005144Y-110989432D01*
X236038821Y-111007433D01*
X236068341Y-111031659D01*
X236092567Y-111061179D01*
X236110568Y-111094856D01*
X236121653Y-111131396D01*
X236126000Y-111175538D01*
X236126000Y-112124462D01*
X236121653Y-112168604D01*
X236110568Y-112205144D01*
X236092567Y-112238821D01*
X236068341Y-112268341D01*
X236038821Y-112292567D01*
X236005144Y-112310568D01*
X235968604Y-112321653D01*
X235924462Y-112326000D01*
X233575538Y-112326000D01*
X233531396Y-112321653D01*
X233494856Y-112310568D01*
X233461179Y-112292567D01*
X233431659Y-112268341D01*
X233407433Y-112238821D01*
X233389432Y-112205144D01*
X233378347Y-112168604D01*
X233374000Y-112124462D01*
X233374000Y-111175538D01*
X233378347Y-111131396D01*
X233389432Y-111094856D01*
X233407433Y-111061179D01*
X233431659Y-111031659D01*
X233461179Y-111007433D01*
X233494856Y-110989432D01*
X233531396Y-110978347D01*
X233575538Y-110974000D01*
X235924462Y-110974000D01*
X235968604Y-110978347D01*
X235968604Y-110978347D01*
G37*
G36*
X230129591Y-111303085D02*
G01*
X230163569Y-111313393D01*
X230194890Y-111330134D01*
X230222339Y-111352661D01*
X230244866Y-111380110D01*
X230261607Y-111411431D01*
X230271915Y-111445409D01*
X230276000Y-111486890D01*
X230276000Y-112088110D01*
X230271915Y-112129591D01*
X230261607Y-112163569D01*
X230244866Y-112194890D01*
X230222339Y-112222339D01*
X230194890Y-112244866D01*
X230163569Y-112261607D01*
X230129591Y-112271915D01*
X230088110Y-112276000D01*
X229411890Y-112276000D01*
X229370409Y-112271915D01*
X229336431Y-112261607D01*
X229305110Y-112244866D01*
X229277661Y-112222339D01*
X229255134Y-112194890D01*
X229238393Y-112163569D01*
X229228085Y-112129591D01*
X229224000Y-112088110D01*
X229224000Y-111486890D01*
X229228085Y-111445409D01*
X229238393Y-111411431D01*
X229255134Y-111380110D01*
X229277661Y-111352661D01*
X229305110Y-111330134D01*
X229336431Y-111313393D01*
X229370409Y-111303085D01*
X229411890Y-111299000D01*
X230088110Y-111299000D01*
X230129591Y-111303085D01*
X230129591Y-111303085D01*
G37*
G36*
X248054591Y-110978085D02*
G01*
X248088569Y-110988393D01*
X248119890Y-111005134D01*
X248147339Y-111027661D01*
X248169866Y-111055110D01*
X248186607Y-111086431D01*
X248196915Y-111120409D01*
X248201000Y-111161890D01*
X248201000Y-111838110D01*
X248196915Y-111879591D01*
X248186607Y-111913569D01*
X248169866Y-111944890D01*
X248147339Y-111972339D01*
X248119890Y-111994866D01*
X248088569Y-112011607D01*
X248054591Y-112021915D01*
X248013110Y-112026000D01*
X247411890Y-112026000D01*
X247370409Y-112021915D01*
X247336431Y-112011607D01*
X247305110Y-111994866D01*
X247277661Y-111972339D01*
X247255134Y-111944890D01*
X247238393Y-111913569D01*
X247228085Y-111879591D01*
X247224000Y-111838110D01*
X247224000Y-111161890D01*
X247228085Y-111120409D01*
X247238393Y-111086431D01*
X247255134Y-111055110D01*
X247277661Y-111027661D01*
X247305110Y-111005134D01*
X247336431Y-110988393D01*
X247370409Y-110978085D01*
X247411890Y-110974000D01*
X248013110Y-110974000D01*
X248054591Y-110978085D01*
X248054591Y-110978085D01*
G37*
G36*
X249629591Y-110978085D02*
G01*
X249663569Y-110988393D01*
X249694890Y-111005134D01*
X249722339Y-111027661D01*
X249744866Y-111055110D01*
X249761607Y-111086431D01*
X249771915Y-111120409D01*
X249776000Y-111161890D01*
X249776000Y-111838110D01*
X249771915Y-111879591D01*
X249761607Y-111913569D01*
X249744866Y-111944890D01*
X249722339Y-111972339D01*
X249694890Y-111994866D01*
X249663569Y-112011607D01*
X249629591Y-112021915D01*
X249588110Y-112026000D01*
X248986890Y-112026000D01*
X248945409Y-112021915D01*
X248911431Y-112011607D01*
X248880110Y-111994866D01*
X248852661Y-111972339D01*
X248830134Y-111944890D01*
X248813393Y-111913569D01*
X248803085Y-111879591D01*
X248799000Y-111838110D01*
X248799000Y-111161890D01*
X248803085Y-111120409D01*
X248813393Y-111086431D01*
X248830134Y-111055110D01*
X248852661Y-111027661D01*
X248880110Y-111005134D01*
X248911431Y-110988393D01*
X248945409Y-110978085D01*
X248986890Y-110974000D01*
X249588110Y-110974000D01*
X249629591Y-110978085D01*
X249629591Y-110978085D01*
G37*
G36*
X245879591Y-110228085D02*
G01*
X245913569Y-110238393D01*
X245944890Y-110255134D01*
X245972339Y-110277661D01*
X245994866Y-110305110D01*
X246011607Y-110336431D01*
X246021915Y-110370409D01*
X246026000Y-110411890D01*
X246026000Y-111088110D01*
X246021915Y-111129591D01*
X246011607Y-111163569D01*
X245994866Y-111194890D01*
X245972339Y-111222339D01*
X245944890Y-111244866D01*
X245913569Y-111261607D01*
X245879591Y-111271915D01*
X245838110Y-111276000D01*
X245236890Y-111276000D01*
X245195409Y-111271915D01*
X245161431Y-111261607D01*
X245130110Y-111244866D01*
X245102661Y-111222339D01*
X245080134Y-111194890D01*
X245063393Y-111163569D01*
X245053085Y-111129591D01*
X245049000Y-111088110D01*
X245049000Y-110411890D01*
X245053085Y-110370409D01*
X245063393Y-110336431D01*
X245080134Y-110305110D01*
X245102661Y-110277661D01*
X245130110Y-110255134D01*
X245161431Y-110238393D01*
X245195409Y-110228085D01*
X245236890Y-110224000D01*
X245838110Y-110224000D01*
X245879591Y-110228085D01*
X245879591Y-110228085D01*
G37*
G36*
X244304591Y-110228085D02*
G01*
X244338569Y-110238393D01*
X244369890Y-110255134D01*
X244397339Y-110277661D01*
X244419866Y-110305110D01*
X244436607Y-110336431D01*
X244446915Y-110370409D01*
X244451000Y-110411890D01*
X244451000Y-111088110D01*
X244446915Y-111129591D01*
X244436607Y-111163569D01*
X244419866Y-111194890D01*
X244397339Y-111222339D01*
X244369890Y-111244866D01*
X244338569Y-111261607D01*
X244304591Y-111271915D01*
X244263110Y-111276000D01*
X243661890Y-111276000D01*
X243620409Y-111271915D01*
X243586431Y-111261607D01*
X243555110Y-111244866D01*
X243527661Y-111222339D01*
X243505134Y-111194890D01*
X243488393Y-111163569D01*
X243478085Y-111129591D01*
X243474000Y-111088110D01*
X243474000Y-110411890D01*
X243478085Y-110370409D01*
X243488393Y-110336431D01*
X243505134Y-110305110D01*
X243527661Y-110277661D01*
X243555110Y-110255134D01*
X243586431Y-110238393D01*
X243620409Y-110228085D01*
X243661890Y-110224000D01*
X244263110Y-110224000D01*
X244304591Y-110228085D01*
X244304591Y-110228085D01*
G37*
G36*
X230129591Y-109728085D02*
G01*
X230163569Y-109738393D01*
X230194890Y-109755134D01*
X230222339Y-109777661D01*
X230244866Y-109805110D01*
X230261607Y-109836431D01*
X230271915Y-109870409D01*
X230276000Y-109911890D01*
X230276000Y-110513110D01*
X230271915Y-110554591D01*
X230261607Y-110588569D01*
X230244866Y-110619890D01*
X230222339Y-110647339D01*
X230194890Y-110669866D01*
X230163569Y-110686607D01*
X230129591Y-110696915D01*
X230088110Y-110701000D01*
X229411890Y-110701000D01*
X229370409Y-110696915D01*
X229336431Y-110686607D01*
X229305110Y-110669866D01*
X229277661Y-110647339D01*
X229255134Y-110619890D01*
X229238393Y-110588569D01*
X229228085Y-110554591D01*
X229224000Y-110513110D01*
X229224000Y-109911890D01*
X229228085Y-109870409D01*
X229238393Y-109836431D01*
X229255134Y-109805110D01*
X229277661Y-109777661D01*
X229305110Y-109755134D01*
X229336431Y-109738393D01*
X229370409Y-109728085D01*
X229411890Y-109724000D01*
X230088110Y-109724000D01*
X230129591Y-109728085D01*
X230129591Y-109728085D01*
G37*
G36*
X249629591Y-109478085D02*
G01*
X249663569Y-109488393D01*
X249694890Y-109505134D01*
X249722339Y-109527661D01*
X249744866Y-109555110D01*
X249761607Y-109586431D01*
X249771915Y-109620409D01*
X249776000Y-109661890D01*
X249776000Y-110338110D01*
X249771915Y-110379591D01*
X249761607Y-110413569D01*
X249744866Y-110444890D01*
X249722339Y-110472339D01*
X249694890Y-110494866D01*
X249663569Y-110511607D01*
X249629591Y-110521915D01*
X249588110Y-110526000D01*
X248986890Y-110526000D01*
X248945409Y-110521915D01*
X248911431Y-110511607D01*
X248880110Y-110494866D01*
X248852661Y-110472339D01*
X248830134Y-110444890D01*
X248813393Y-110413569D01*
X248803085Y-110379591D01*
X248799000Y-110338110D01*
X248799000Y-109661890D01*
X248803085Y-109620409D01*
X248813393Y-109586431D01*
X248830134Y-109555110D01*
X248852661Y-109527661D01*
X248880110Y-109505134D01*
X248911431Y-109488393D01*
X248945409Y-109478085D01*
X248986890Y-109474000D01*
X249588110Y-109474000D01*
X249629591Y-109478085D01*
X249629591Y-109478085D01*
G37*
G36*
X248054591Y-109478085D02*
G01*
X248088569Y-109488393D01*
X248119890Y-109505134D01*
X248147339Y-109527661D01*
X248169866Y-109555110D01*
X248186607Y-109586431D01*
X248196915Y-109620409D01*
X248201000Y-109661890D01*
X248201000Y-110338110D01*
X248196915Y-110379591D01*
X248186607Y-110413569D01*
X248169866Y-110444890D01*
X248147339Y-110472339D01*
X248119890Y-110494866D01*
X248088569Y-110511607D01*
X248054591Y-110521915D01*
X248013110Y-110526000D01*
X247411890Y-110526000D01*
X247370409Y-110521915D01*
X247336431Y-110511607D01*
X247305110Y-110494866D01*
X247277661Y-110472339D01*
X247255134Y-110444890D01*
X247238393Y-110413569D01*
X247228085Y-110379591D01*
X247224000Y-110338110D01*
X247224000Y-109661890D01*
X247228085Y-109620409D01*
X247238393Y-109586431D01*
X247255134Y-109555110D01*
X247277661Y-109527661D01*
X247305110Y-109505134D01*
X247336431Y-109488393D01*
X247370409Y-109478085D01*
X247411890Y-109474000D01*
X248013110Y-109474000D01*
X248054591Y-109478085D01*
X248054591Y-109478085D01*
G37*
G36*
X255879591Y-109053085D02*
G01*
X255913569Y-109063393D01*
X255944890Y-109080134D01*
X255972339Y-109102661D01*
X255994866Y-109130110D01*
X256011607Y-109161431D01*
X256021915Y-109195409D01*
X256026000Y-109236890D01*
X256026000Y-109838110D01*
X256021915Y-109879591D01*
X256011607Y-109913569D01*
X255994866Y-109944890D01*
X255972339Y-109972339D01*
X255944890Y-109994866D01*
X255913569Y-110011607D01*
X255879591Y-110021915D01*
X255838110Y-110026000D01*
X255161890Y-110026000D01*
X255120409Y-110021915D01*
X255086431Y-110011607D01*
X255055110Y-109994866D01*
X255027661Y-109972339D01*
X255005134Y-109944890D01*
X254988393Y-109913569D01*
X254978085Y-109879591D01*
X254974000Y-109838110D01*
X254974000Y-109236890D01*
X254978085Y-109195409D01*
X254988393Y-109161431D01*
X255005134Y-109130110D01*
X255027661Y-109102661D01*
X255055110Y-109080134D01*
X255086431Y-109063393D01*
X255120409Y-109053085D01*
X255161890Y-109049000D01*
X255838110Y-109049000D01*
X255879591Y-109053085D01*
X255879591Y-109053085D01*
G37*
G36*
X100295949Y-103543905D02*
G01*
X100698282Y-103623934D01*
X101289926Y-103869001D01*
X101579523Y-104062504D01*
X101822391Y-104224783D01*
X102275217Y-104677609D01*
X102333909Y-104765448D01*
X102630999Y-105210074D01*
X102876066Y-105801718D01*
X102904925Y-105946802D01*
X103001000Y-106429803D01*
X103001000Y-107070197D01*
X102951903Y-107317022D01*
X102876066Y-107698282D01*
X102630999Y-108289926D01*
X102418233Y-108608352D01*
X102275217Y-108822391D01*
X101822391Y-109275217D01*
X101783804Y-109301000D01*
X101289926Y-109630999D01*
X100698282Y-109876066D01*
X100474399Y-109920599D01*
X100070197Y-110001000D01*
X99429803Y-110001000D01*
X99025601Y-109920599D01*
X98801718Y-109876066D01*
X98210074Y-109630999D01*
X97716196Y-109301000D01*
X97677609Y-109275217D01*
X97224783Y-108822391D01*
X97081767Y-108608352D01*
X96869001Y-108289926D01*
X96623934Y-107698282D01*
X96548097Y-107317022D01*
X96499000Y-107070197D01*
X96499000Y-106429803D01*
X96595075Y-105946802D01*
X96623934Y-105801718D01*
X96869001Y-105210074D01*
X97166091Y-104765448D01*
X97224783Y-104677609D01*
X97677609Y-104224783D01*
X97920477Y-104062504D01*
X98210074Y-103869001D01*
X98801718Y-103623934D01*
X99204051Y-103543905D01*
X99429803Y-103499000D01*
X100070197Y-103499000D01*
X100295949Y-103543905D01*
X100295949Y-103543905D01*
G37*
G36*
X227968604Y-108428347D02*
G01*
X228005144Y-108439432D01*
X228038821Y-108457433D01*
X228068341Y-108481659D01*
X228092567Y-108511179D01*
X228110568Y-108544856D01*
X228121653Y-108581396D01*
X228126000Y-108625538D01*
X228126000Y-109574462D01*
X228121653Y-109618604D01*
X228110568Y-109655144D01*
X228092567Y-109688821D01*
X228068341Y-109718341D01*
X228038821Y-109742567D01*
X228005144Y-109760568D01*
X227968604Y-109771653D01*
X227924462Y-109776000D01*
X225575538Y-109776000D01*
X225531396Y-109771653D01*
X225494856Y-109760568D01*
X225461179Y-109742567D01*
X225431659Y-109718341D01*
X225407433Y-109688821D01*
X225389432Y-109655144D01*
X225378347Y-109618604D01*
X225374000Y-109574462D01*
X225374000Y-108625538D01*
X225378347Y-108581396D01*
X225389432Y-108544856D01*
X225407433Y-108511179D01*
X225431659Y-108481659D01*
X225461179Y-108457433D01*
X225494856Y-108439432D01*
X225531396Y-108428347D01*
X225575538Y-108424000D01*
X227924462Y-108424000D01*
X227968604Y-108428347D01*
X227968604Y-108428347D01*
G37*
G36*
X235968604Y-108178347D02*
G01*
X236005144Y-108189432D01*
X236038821Y-108207433D01*
X236068341Y-108231659D01*
X236092567Y-108261179D01*
X236110568Y-108294856D01*
X236121653Y-108331396D01*
X236126000Y-108375538D01*
X236126000Y-109324462D01*
X236121653Y-109368604D01*
X236110568Y-109405144D01*
X236092567Y-109438821D01*
X236068341Y-109468341D01*
X236038821Y-109492567D01*
X236005144Y-109510568D01*
X235968604Y-109521653D01*
X235924462Y-109526000D01*
X233575538Y-109526000D01*
X233531396Y-109521653D01*
X233494856Y-109510568D01*
X233461179Y-109492567D01*
X233431659Y-109468341D01*
X233407433Y-109438821D01*
X233389432Y-109405144D01*
X233378347Y-109368604D01*
X233374000Y-109324462D01*
X233374000Y-108375538D01*
X233378347Y-108331396D01*
X233389432Y-108294856D01*
X233407433Y-108261179D01*
X233431659Y-108231659D01*
X233461179Y-108207433D01*
X233494856Y-108189432D01*
X233531396Y-108178347D01*
X233575538Y-108174000D01*
X235924462Y-108174000D01*
X235968604Y-108178347D01*
X235968604Y-108178347D01*
G37*
G36*
X61117021Y-103806640D02*
G01*
X61583074Y-103999686D01*
X61626771Y-104017786D01*
X62085534Y-104324321D01*
X62475679Y-104714466D01*
X62782214Y-105173229D01*
X62782215Y-105173231D01*
X62993360Y-105682979D01*
X63101000Y-106224124D01*
X63101000Y-106775876D01*
X62993360Y-107317021D01*
X62835436Y-107698282D01*
X62782214Y-107826771D01*
X62475679Y-108285534D01*
X62085534Y-108675679D01*
X61626771Y-108982214D01*
X61626770Y-108982215D01*
X61626769Y-108982215D01*
X61117021Y-109193360D01*
X60575876Y-109301000D01*
X60024124Y-109301000D01*
X59482979Y-109193360D01*
X58973231Y-108982215D01*
X58973230Y-108982215D01*
X58973229Y-108982214D01*
X58514466Y-108675679D01*
X58124321Y-108285534D01*
X57817786Y-107826771D01*
X57764564Y-107698282D01*
X57606640Y-107317021D01*
X57499000Y-106775876D01*
X57499000Y-106224124D01*
X57606640Y-105682979D01*
X57817785Y-105173231D01*
X57817786Y-105173229D01*
X58124321Y-104714466D01*
X58514466Y-104324321D01*
X58973229Y-104017786D01*
X59016926Y-103999686D01*
X59482979Y-103806640D01*
X60024124Y-103699000D01*
X60575876Y-103699000D01*
X61117021Y-103806640D01*
X61117021Y-103806640D01*
G37*
G36*
X138117021Y-103806640D02*
G01*
X138583074Y-103999686D01*
X138626771Y-104017786D01*
X139085534Y-104324321D01*
X139475679Y-104714466D01*
X139782214Y-105173229D01*
X139782215Y-105173231D01*
X139993360Y-105682979D01*
X140101000Y-106224124D01*
X140101000Y-106775876D01*
X139993360Y-107317021D01*
X139835436Y-107698282D01*
X139782214Y-107826771D01*
X139475679Y-108285534D01*
X139085534Y-108675679D01*
X138626771Y-108982214D01*
X138626770Y-108982215D01*
X138626769Y-108982215D01*
X138117021Y-109193360D01*
X137575876Y-109301000D01*
X137024124Y-109301000D01*
X136482979Y-109193360D01*
X135973231Y-108982215D01*
X135973230Y-108982215D01*
X135973229Y-108982214D01*
X135514466Y-108675679D01*
X135124321Y-108285534D01*
X134817786Y-107826771D01*
X134764564Y-107698282D01*
X134606640Y-107317021D01*
X134499000Y-106775876D01*
X134499000Y-106224124D01*
X134606640Y-105682979D01*
X134817785Y-105173231D01*
X134817786Y-105173229D01*
X135124321Y-104714466D01*
X135514466Y-104324321D01*
X135973229Y-104017786D01*
X136016926Y-103999686D01*
X136482979Y-103806640D01*
X137024124Y-103699000D01*
X137575876Y-103699000D01*
X138117021Y-103806640D01*
X138117021Y-103806640D01*
G37*
G36*
X221218604Y-107478347D02*
G01*
X221255144Y-107489432D01*
X221288821Y-107507433D01*
X221318341Y-107531659D01*
X221342567Y-107561179D01*
X221360568Y-107594856D01*
X221371653Y-107631396D01*
X221376000Y-107675538D01*
X221376000Y-108624462D01*
X221371653Y-108668604D01*
X221360568Y-108705144D01*
X221342567Y-108738821D01*
X221318341Y-108768341D01*
X221288821Y-108792567D01*
X221255144Y-108810568D01*
X221218604Y-108821653D01*
X221174462Y-108826000D01*
X218825538Y-108826000D01*
X218781396Y-108821653D01*
X218744856Y-108810568D01*
X218711179Y-108792567D01*
X218681659Y-108768341D01*
X218657433Y-108738821D01*
X218639432Y-108705144D01*
X218628347Y-108668604D01*
X218624000Y-108624462D01*
X218624000Y-107675538D01*
X218628347Y-107631396D01*
X218639432Y-107594856D01*
X218657433Y-107561179D01*
X218681659Y-107531659D01*
X218711179Y-107507433D01*
X218744856Y-107489432D01*
X218781396Y-107478347D01*
X218825538Y-107474000D01*
X221174462Y-107474000D01*
X221218604Y-107478347D01*
X221218604Y-107478347D01*
G37*
G36*
X255879591Y-107478085D02*
G01*
X255913569Y-107488393D01*
X255944890Y-107505134D01*
X255972339Y-107527661D01*
X255994866Y-107555110D01*
X256011607Y-107586431D01*
X256021915Y-107620409D01*
X256026000Y-107661890D01*
X256026000Y-108263110D01*
X256021915Y-108304591D01*
X256011607Y-108338569D01*
X255994866Y-108369890D01*
X255972339Y-108397339D01*
X255944890Y-108419866D01*
X255913569Y-108436607D01*
X255879591Y-108446915D01*
X255838110Y-108451000D01*
X255161890Y-108451000D01*
X255120409Y-108446915D01*
X255086431Y-108436607D01*
X255055110Y-108419866D01*
X255027661Y-108397339D01*
X255005134Y-108369890D01*
X254988393Y-108338569D01*
X254978085Y-108304591D01*
X254974000Y-108263110D01*
X254974000Y-107661890D01*
X254978085Y-107620409D01*
X254988393Y-107586431D01*
X255005134Y-107555110D01*
X255027661Y-107527661D01*
X255055110Y-107505134D01*
X255086431Y-107488393D01*
X255120409Y-107478085D01*
X255161890Y-107474000D01*
X255838110Y-107474000D01*
X255879591Y-107478085D01*
X255879591Y-107478085D01*
G37*
G36*
X189320467Y-106350329D02*
G01*
X189402618Y-106358420D01*
X189493404Y-106385960D01*
X189525336Y-106395646D01*
X189638425Y-106456094D01*
X189737554Y-106537446D01*
X189818906Y-106636575D01*
X189879354Y-106749664D01*
X189879355Y-106749668D01*
X189916580Y-106872382D01*
X189929149Y-107000000D01*
X189916580Y-107127618D01*
X189909890Y-107149671D01*
X189879354Y-107250336D01*
X189818906Y-107363425D01*
X189737554Y-107462554D01*
X189638425Y-107543906D01*
X189525336Y-107604354D01*
X189493404Y-107614040D01*
X189402618Y-107641580D01*
X189338855Y-107647860D01*
X189306974Y-107651000D01*
X188693026Y-107651000D01*
X188661145Y-107647860D01*
X188597382Y-107641580D01*
X188506596Y-107614040D01*
X188474664Y-107604354D01*
X188361575Y-107543906D01*
X188262446Y-107462554D01*
X188181094Y-107363425D01*
X188120646Y-107250336D01*
X188090110Y-107149671D01*
X188083420Y-107127618D01*
X188070851Y-107000000D01*
X188083420Y-106872382D01*
X188120645Y-106749668D01*
X188120646Y-106749664D01*
X188181094Y-106636575D01*
X188262446Y-106537446D01*
X188361575Y-106456094D01*
X188474664Y-106395646D01*
X188506596Y-106385960D01*
X188597382Y-106358420D01*
X188679533Y-106350329D01*
X188693026Y-106349000D01*
X189306974Y-106349000D01*
X189320467Y-106350329D01*
X189320467Y-106350329D01*
G37*
G36*
X226379591Y-106553085D02*
G01*
X226413569Y-106563393D01*
X226444890Y-106580134D01*
X226472339Y-106602661D01*
X226494866Y-106630110D01*
X226511607Y-106661431D01*
X226521915Y-106695409D01*
X226526000Y-106736890D01*
X226526000Y-107338110D01*
X226521915Y-107379591D01*
X226511607Y-107413569D01*
X226494866Y-107444890D01*
X226472339Y-107472339D01*
X226444890Y-107494866D01*
X226413569Y-107511607D01*
X226379591Y-107521915D01*
X226338110Y-107526000D01*
X225661890Y-107526000D01*
X225620409Y-107521915D01*
X225586431Y-107511607D01*
X225555110Y-107494866D01*
X225527661Y-107472339D01*
X225505134Y-107444890D01*
X225488393Y-107413569D01*
X225478085Y-107379591D01*
X225474000Y-107338110D01*
X225474000Y-106736890D01*
X225478085Y-106695409D01*
X225488393Y-106661431D01*
X225505134Y-106630110D01*
X225527661Y-106602661D01*
X225555110Y-106580134D01*
X225586431Y-106563393D01*
X225620409Y-106553085D01*
X225661890Y-106549000D01*
X226338110Y-106549000D01*
X226379591Y-106553085D01*
X226379591Y-106553085D01*
G37*
G36*
X224629591Y-106515585D02*
G01*
X224663569Y-106525893D01*
X224694890Y-106542634D01*
X224722339Y-106565161D01*
X224744866Y-106592610D01*
X224761607Y-106623931D01*
X224771915Y-106657909D01*
X224776000Y-106699390D01*
X224776000Y-107300610D01*
X224771915Y-107342091D01*
X224761607Y-107376069D01*
X224744866Y-107407390D01*
X224722339Y-107434839D01*
X224694890Y-107457366D01*
X224663569Y-107474107D01*
X224629591Y-107484415D01*
X224588110Y-107488500D01*
X223911890Y-107488500D01*
X223870409Y-107484415D01*
X223836431Y-107474107D01*
X223805110Y-107457366D01*
X223777661Y-107434839D01*
X223755134Y-107407390D01*
X223738393Y-107376069D01*
X223728085Y-107342091D01*
X223724000Y-107300610D01*
X223724000Y-106699390D01*
X223728085Y-106657909D01*
X223738393Y-106623931D01*
X223755134Y-106592610D01*
X223777661Y-106565161D01*
X223805110Y-106542634D01*
X223836431Y-106525893D01*
X223870409Y-106515585D01*
X223911890Y-106511500D01*
X224588110Y-106511500D01*
X224629591Y-106515585D01*
X224629591Y-106515585D01*
G37*
G36*
X221218604Y-104678347D02*
G01*
X221255144Y-104689432D01*
X221288821Y-104707433D01*
X221318341Y-104731659D01*
X221342567Y-104761179D01*
X221360568Y-104794856D01*
X221371653Y-104831396D01*
X221376000Y-104875538D01*
X221376000Y-105824462D01*
X221371653Y-105868604D01*
X221360568Y-105905144D01*
X221342567Y-105938821D01*
X221318341Y-105968341D01*
X221288821Y-105992567D01*
X221255144Y-106010568D01*
X221218604Y-106021653D01*
X221174462Y-106026000D01*
X218825538Y-106026000D01*
X218781396Y-106021653D01*
X218744856Y-106010568D01*
X218711179Y-105992567D01*
X218681659Y-105968341D01*
X218657433Y-105938821D01*
X218639432Y-105905144D01*
X218628347Y-105868604D01*
X218624000Y-105824462D01*
X218624000Y-104875538D01*
X218628347Y-104831396D01*
X218639432Y-104794856D01*
X218657433Y-104761179D01*
X218681659Y-104731659D01*
X218711179Y-104707433D01*
X218744856Y-104689432D01*
X218781396Y-104678347D01*
X218825538Y-104674000D01*
X221174462Y-104674000D01*
X221218604Y-104678347D01*
X221218604Y-104678347D01*
G37*
G36*
X226379591Y-104978085D02*
G01*
X226413569Y-104988393D01*
X226444890Y-105005134D01*
X226472339Y-105027661D01*
X226494866Y-105055110D01*
X226511607Y-105086431D01*
X226521915Y-105120409D01*
X226526000Y-105161890D01*
X226526000Y-105763110D01*
X226521915Y-105804591D01*
X226511607Y-105838569D01*
X226494866Y-105869890D01*
X226472339Y-105897339D01*
X226444890Y-105919866D01*
X226413569Y-105936607D01*
X226379591Y-105946915D01*
X226338110Y-105951000D01*
X225661890Y-105951000D01*
X225620409Y-105946915D01*
X225586431Y-105936607D01*
X225555110Y-105919866D01*
X225527661Y-105897339D01*
X225505134Y-105869890D01*
X225488393Y-105838569D01*
X225478085Y-105804591D01*
X225474000Y-105763110D01*
X225474000Y-105161890D01*
X225478085Y-105120409D01*
X225488393Y-105086431D01*
X225505134Y-105055110D01*
X225527661Y-105027661D01*
X225555110Y-105005134D01*
X225586431Y-104988393D01*
X225620409Y-104978085D01*
X225661890Y-104974000D01*
X226338110Y-104974000D01*
X226379591Y-104978085D01*
X226379591Y-104978085D01*
G37*
G36*
X224629591Y-104940585D02*
G01*
X224663569Y-104950893D01*
X224694890Y-104967634D01*
X224722339Y-104990161D01*
X224744866Y-105017610D01*
X224761607Y-105048931D01*
X224771915Y-105082909D01*
X224776000Y-105124390D01*
X224776000Y-105725610D01*
X224771915Y-105767091D01*
X224761607Y-105801069D01*
X224744866Y-105832390D01*
X224722339Y-105859839D01*
X224694890Y-105882366D01*
X224663569Y-105899107D01*
X224629591Y-105909415D01*
X224588110Y-105913500D01*
X223911890Y-105913500D01*
X223870409Y-105909415D01*
X223836431Y-105899107D01*
X223805110Y-105882366D01*
X223777661Y-105859839D01*
X223755134Y-105832390D01*
X223738393Y-105801069D01*
X223728085Y-105767091D01*
X223724000Y-105725610D01*
X223724000Y-105124390D01*
X223728085Y-105082909D01*
X223738393Y-105048931D01*
X223755134Y-105017610D01*
X223777661Y-104990161D01*
X223805110Y-104967634D01*
X223836431Y-104950893D01*
X223870409Y-104940585D01*
X223911890Y-104936500D01*
X224588110Y-104936500D01*
X224629591Y-104940585D01*
X224629591Y-104940585D01*
G37*
G36*
X189338855Y-104352140D02*
G01*
X189402618Y-104358420D01*
X189493404Y-104385960D01*
X189525336Y-104395646D01*
X189638425Y-104456094D01*
X189737554Y-104537446D01*
X189818906Y-104636575D01*
X189879354Y-104749664D01*
X189879355Y-104749668D01*
X189916580Y-104872382D01*
X189929149Y-105000000D01*
X189916580Y-105127618D01*
X189899326Y-105184496D01*
X189879354Y-105250336D01*
X189818906Y-105363425D01*
X189737554Y-105462554D01*
X189638425Y-105543906D01*
X189525336Y-105604354D01*
X189493404Y-105614040D01*
X189402618Y-105641580D01*
X189338855Y-105647860D01*
X189306974Y-105651000D01*
X188693026Y-105651000D01*
X188661145Y-105647860D01*
X188597382Y-105641580D01*
X188506596Y-105614040D01*
X188474664Y-105604354D01*
X188361575Y-105543906D01*
X188262446Y-105462554D01*
X188181094Y-105363425D01*
X188120646Y-105250336D01*
X188100674Y-105184496D01*
X188083420Y-105127618D01*
X188070851Y-105000000D01*
X188083420Y-104872382D01*
X188120645Y-104749668D01*
X188120646Y-104749664D01*
X188181094Y-104636575D01*
X188262446Y-104537446D01*
X188361575Y-104456094D01*
X188474664Y-104395646D01*
X188506596Y-104385960D01*
X188597382Y-104358420D01*
X188661145Y-104352140D01*
X188693026Y-104349000D01*
X189306974Y-104349000D01*
X189338855Y-104352140D01*
X189338855Y-104352140D01*
G37*
G36*
X189338855Y-102352140D02*
G01*
X189402618Y-102358420D01*
X189493404Y-102385960D01*
X189525336Y-102395646D01*
X189638425Y-102456094D01*
X189737554Y-102537446D01*
X189818906Y-102636575D01*
X189879354Y-102749664D01*
X189879355Y-102749668D01*
X189916580Y-102872382D01*
X189929149Y-103000000D01*
X189916580Y-103127618D01*
X189889040Y-103218404D01*
X189879354Y-103250336D01*
X189818906Y-103363425D01*
X189737554Y-103462554D01*
X189638425Y-103543906D01*
X189525336Y-103604354D01*
X189493404Y-103614040D01*
X189402618Y-103641580D01*
X189338855Y-103647860D01*
X189306974Y-103651000D01*
X188693026Y-103651000D01*
X188661145Y-103647860D01*
X188597382Y-103641580D01*
X188506596Y-103614040D01*
X188474664Y-103604354D01*
X188361575Y-103543906D01*
X188262446Y-103462554D01*
X188181094Y-103363425D01*
X188120646Y-103250336D01*
X188110960Y-103218404D01*
X188083420Y-103127618D01*
X188070851Y-103000000D01*
X188083420Y-102872382D01*
X188120645Y-102749668D01*
X188120646Y-102749664D01*
X188181094Y-102636575D01*
X188262446Y-102537446D01*
X188361575Y-102456094D01*
X188474664Y-102395646D01*
X188506596Y-102385960D01*
X188597382Y-102358420D01*
X188661145Y-102352140D01*
X188693026Y-102349000D01*
X189306974Y-102349000D01*
X189338855Y-102352140D01*
X189338855Y-102352140D01*
G37*
G36*
X189766242Y-100353404D02*
G01*
X189803337Y-100364657D01*
X189837515Y-100382925D01*
X189867481Y-100407519D01*
X189892075Y-100437485D01*
X189910343Y-100471663D01*
X189921596Y-100508758D01*
X189926000Y-100553474D01*
X189926000Y-101446526D01*
X189921596Y-101491242D01*
X189910343Y-101528337D01*
X189892075Y-101562515D01*
X189867481Y-101592481D01*
X189837515Y-101617075D01*
X189803337Y-101635343D01*
X189766242Y-101646596D01*
X189721526Y-101651000D01*
X188278474Y-101651000D01*
X188233758Y-101646596D01*
X188196663Y-101635343D01*
X188162485Y-101617075D01*
X188132519Y-101592481D01*
X188107925Y-101562515D01*
X188089657Y-101528337D01*
X188078404Y-101491242D01*
X188074000Y-101446526D01*
X188074000Y-100553474D01*
X188078404Y-100508758D01*
X188089657Y-100471663D01*
X188107925Y-100437485D01*
X188132519Y-100407519D01*
X188162485Y-100382925D01*
X188196663Y-100364657D01*
X188233758Y-100353404D01*
X188278474Y-100349000D01*
X189721526Y-100349000D01*
X189766242Y-100353404D01*
X189766242Y-100353404D01*
G37*
G36*
X189338855Y-95352140D02*
G01*
X189402618Y-95358420D01*
X189474120Y-95380110D01*
X189525336Y-95395646D01*
X189638425Y-95456094D01*
X189737554Y-95537446D01*
X189818906Y-95636575D01*
X189879354Y-95749664D01*
X189879355Y-95749668D01*
X189916580Y-95872382D01*
X189929149Y-96000000D01*
X189916580Y-96127618D01*
X189896173Y-96194890D01*
X189879354Y-96250336D01*
X189818906Y-96363425D01*
X189737554Y-96462554D01*
X189638425Y-96543906D01*
X189525336Y-96604354D01*
X189493404Y-96614040D01*
X189402618Y-96641580D01*
X189338855Y-96647860D01*
X189306974Y-96651000D01*
X188693026Y-96651000D01*
X188661145Y-96647860D01*
X188597382Y-96641580D01*
X188506596Y-96614040D01*
X188474664Y-96604354D01*
X188361575Y-96543906D01*
X188262446Y-96462554D01*
X188181094Y-96363425D01*
X188120646Y-96250336D01*
X188103827Y-96194890D01*
X188083420Y-96127618D01*
X188070851Y-96000000D01*
X188083420Y-95872382D01*
X188120645Y-95749668D01*
X188120646Y-95749664D01*
X188181094Y-95636575D01*
X188262446Y-95537446D01*
X188361575Y-95456094D01*
X188474664Y-95395646D01*
X188525880Y-95380110D01*
X188597382Y-95358420D01*
X188661145Y-95352140D01*
X188693026Y-95349000D01*
X189306974Y-95349000D01*
X189338855Y-95352140D01*
X189338855Y-95352140D01*
G37*
G36*
X255379591Y-95303085D02*
G01*
X255413569Y-95313393D01*
X255444890Y-95330134D01*
X255472339Y-95352661D01*
X255494866Y-95380110D01*
X255511607Y-95411431D01*
X255521915Y-95445409D01*
X255526000Y-95486890D01*
X255526000Y-96088110D01*
X255521915Y-96129591D01*
X255511607Y-96163569D01*
X255494866Y-96194890D01*
X255472339Y-96222339D01*
X255444890Y-96244866D01*
X255413569Y-96261607D01*
X255379591Y-96271915D01*
X255338110Y-96276000D01*
X254661890Y-96276000D01*
X254620409Y-96271915D01*
X254586431Y-96261607D01*
X254555110Y-96244866D01*
X254527661Y-96222339D01*
X254505134Y-96194890D01*
X254488393Y-96163569D01*
X254478085Y-96129591D01*
X254474000Y-96088110D01*
X254474000Y-95486890D01*
X254478085Y-95445409D01*
X254488393Y-95411431D01*
X254505134Y-95380110D01*
X254527661Y-95352661D01*
X254555110Y-95330134D01*
X254586431Y-95313393D01*
X254620409Y-95303085D01*
X254661890Y-95299000D01*
X255338110Y-95299000D01*
X255379591Y-95303085D01*
X255379591Y-95303085D01*
G37*
G36*
X208379591Y-95303085D02*
G01*
X208413569Y-95313393D01*
X208444890Y-95330134D01*
X208472339Y-95352661D01*
X208494866Y-95380110D01*
X208511607Y-95411431D01*
X208521915Y-95445409D01*
X208526000Y-95486890D01*
X208526000Y-96088110D01*
X208521915Y-96129591D01*
X208511607Y-96163569D01*
X208494866Y-96194890D01*
X208472339Y-96222339D01*
X208444890Y-96244866D01*
X208413569Y-96261607D01*
X208379591Y-96271915D01*
X208338110Y-96276000D01*
X207661890Y-96276000D01*
X207620409Y-96271915D01*
X207586431Y-96261607D01*
X207555110Y-96244866D01*
X207527661Y-96222339D01*
X207505134Y-96194890D01*
X207488393Y-96163569D01*
X207478085Y-96129591D01*
X207474000Y-96088110D01*
X207474000Y-95486890D01*
X207478085Y-95445409D01*
X207488393Y-95411431D01*
X207505134Y-95380110D01*
X207527661Y-95352661D01*
X207555110Y-95330134D01*
X207586431Y-95313393D01*
X207620409Y-95303085D01*
X207661890Y-95299000D01*
X208338110Y-95299000D01*
X208379591Y-95303085D01*
X208379591Y-95303085D01*
G37*
G36*
X253129591Y-95303085D02*
G01*
X253163569Y-95313393D01*
X253194890Y-95330134D01*
X253222339Y-95352661D01*
X253244866Y-95380110D01*
X253261607Y-95411431D01*
X253271915Y-95445409D01*
X253276000Y-95486890D01*
X253276000Y-96088110D01*
X253271915Y-96129591D01*
X253261607Y-96163569D01*
X253244866Y-96194890D01*
X253222339Y-96222339D01*
X253194890Y-96244866D01*
X253163569Y-96261607D01*
X253129591Y-96271915D01*
X253088110Y-96276000D01*
X252411890Y-96276000D01*
X252370409Y-96271915D01*
X252336431Y-96261607D01*
X252305110Y-96244866D01*
X252277661Y-96222339D01*
X252255134Y-96194890D01*
X252238393Y-96163569D01*
X252228085Y-96129591D01*
X252224000Y-96088110D01*
X252224000Y-95486890D01*
X252228085Y-95445409D01*
X252238393Y-95411431D01*
X252255134Y-95380110D01*
X252277661Y-95352661D01*
X252305110Y-95330134D01*
X252336431Y-95313393D01*
X252370409Y-95303085D01*
X252411890Y-95299000D01*
X253088110Y-95299000D01*
X253129591Y-95303085D01*
X253129591Y-95303085D01*
G37*
G36*
X250879591Y-95303085D02*
G01*
X250913569Y-95313393D01*
X250944890Y-95330134D01*
X250972339Y-95352661D01*
X250994866Y-95380110D01*
X251011607Y-95411431D01*
X251021915Y-95445409D01*
X251026000Y-95486890D01*
X251026000Y-96088110D01*
X251021915Y-96129591D01*
X251011607Y-96163569D01*
X250994866Y-96194890D01*
X250972339Y-96222339D01*
X250944890Y-96244866D01*
X250913569Y-96261607D01*
X250879591Y-96271915D01*
X250838110Y-96276000D01*
X250161890Y-96276000D01*
X250120409Y-96271915D01*
X250086431Y-96261607D01*
X250055110Y-96244866D01*
X250027661Y-96222339D01*
X250005134Y-96194890D01*
X249988393Y-96163569D01*
X249978085Y-96129591D01*
X249974000Y-96088110D01*
X249974000Y-95486890D01*
X249978085Y-95445409D01*
X249988393Y-95411431D01*
X250005134Y-95380110D01*
X250027661Y-95352661D01*
X250055110Y-95330134D01*
X250086431Y-95313393D01*
X250120409Y-95303085D01*
X250161890Y-95299000D01*
X250838110Y-95299000D01*
X250879591Y-95303085D01*
X250879591Y-95303085D01*
G37*
G36*
X250879591Y-93728085D02*
G01*
X250913569Y-93738393D01*
X250944890Y-93755134D01*
X250972339Y-93777661D01*
X250994866Y-93805110D01*
X251011607Y-93836431D01*
X251021915Y-93870409D01*
X251026000Y-93911890D01*
X251026000Y-94513110D01*
X251021915Y-94554591D01*
X251011607Y-94588569D01*
X250994866Y-94619890D01*
X250972339Y-94647339D01*
X250944890Y-94669866D01*
X250913569Y-94686607D01*
X250879591Y-94696915D01*
X250838110Y-94701000D01*
X250161890Y-94701000D01*
X250120409Y-94696915D01*
X250086431Y-94686607D01*
X250055110Y-94669866D01*
X250027661Y-94647339D01*
X250005134Y-94619890D01*
X249988393Y-94588569D01*
X249978085Y-94554591D01*
X249974000Y-94513110D01*
X249974000Y-93911890D01*
X249978085Y-93870409D01*
X249988393Y-93836431D01*
X250005134Y-93805110D01*
X250027661Y-93777661D01*
X250055110Y-93755134D01*
X250086431Y-93738393D01*
X250120409Y-93728085D01*
X250161890Y-93724000D01*
X250838110Y-93724000D01*
X250879591Y-93728085D01*
X250879591Y-93728085D01*
G37*
G36*
X253129591Y-93728085D02*
G01*
X253163569Y-93738393D01*
X253194890Y-93755134D01*
X253222339Y-93777661D01*
X253244866Y-93805110D01*
X253261607Y-93836431D01*
X253271915Y-93870409D01*
X253276000Y-93911890D01*
X253276000Y-94513110D01*
X253271915Y-94554591D01*
X253261607Y-94588569D01*
X253244866Y-94619890D01*
X253222339Y-94647339D01*
X253194890Y-94669866D01*
X253163569Y-94686607D01*
X253129591Y-94696915D01*
X253088110Y-94701000D01*
X252411890Y-94701000D01*
X252370409Y-94696915D01*
X252336431Y-94686607D01*
X252305110Y-94669866D01*
X252277661Y-94647339D01*
X252255134Y-94619890D01*
X252238393Y-94588569D01*
X252228085Y-94554591D01*
X252224000Y-94513110D01*
X252224000Y-93911890D01*
X252228085Y-93870409D01*
X252238393Y-93836431D01*
X252255134Y-93805110D01*
X252277661Y-93777661D01*
X252305110Y-93755134D01*
X252336431Y-93738393D01*
X252370409Y-93728085D01*
X252411890Y-93724000D01*
X253088110Y-93724000D01*
X253129591Y-93728085D01*
X253129591Y-93728085D01*
G37*
G36*
X255379591Y-93728085D02*
G01*
X255413569Y-93738393D01*
X255444890Y-93755134D01*
X255472339Y-93777661D01*
X255494866Y-93805110D01*
X255511607Y-93836431D01*
X255521915Y-93870409D01*
X255526000Y-93911890D01*
X255526000Y-94513110D01*
X255521915Y-94554591D01*
X255511607Y-94588569D01*
X255494866Y-94619890D01*
X255472339Y-94647339D01*
X255444890Y-94669866D01*
X255413569Y-94686607D01*
X255379591Y-94696915D01*
X255338110Y-94701000D01*
X254661890Y-94701000D01*
X254620409Y-94696915D01*
X254586431Y-94686607D01*
X254555110Y-94669866D01*
X254527661Y-94647339D01*
X254505134Y-94619890D01*
X254488393Y-94588569D01*
X254478085Y-94554591D01*
X254474000Y-94513110D01*
X254474000Y-93911890D01*
X254478085Y-93870409D01*
X254488393Y-93836431D01*
X254505134Y-93805110D01*
X254527661Y-93777661D01*
X254555110Y-93755134D01*
X254586431Y-93738393D01*
X254620409Y-93728085D01*
X254661890Y-93724000D01*
X255338110Y-93724000D01*
X255379591Y-93728085D01*
X255379591Y-93728085D01*
G37*
G36*
X208379591Y-93728085D02*
G01*
X208413569Y-93738393D01*
X208444890Y-93755134D01*
X208472339Y-93777661D01*
X208494866Y-93805110D01*
X208511607Y-93836431D01*
X208521915Y-93870409D01*
X208526000Y-93911890D01*
X208526000Y-94513110D01*
X208521915Y-94554591D01*
X208511607Y-94588569D01*
X208494866Y-94619890D01*
X208472339Y-94647339D01*
X208444890Y-94669866D01*
X208413569Y-94686607D01*
X208379591Y-94696915D01*
X208338110Y-94701000D01*
X207661890Y-94701000D01*
X207620409Y-94696915D01*
X207586431Y-94686607D01*
X207555110Y-94669866D01*
X207527661Y-94647339D01*
X207505134Y-94619890D01*
X207488393Y-94588569D01*
X207478085Y-94554591D01*
X207474000Y-94513110D01*
X207474000Y-93911890D01*
X207478085Y-93870409D01*
X207488393Y-93836431D01*
X207505134Y-93805110D01*
X207527661Y-93777661D01*
X207555110Y-93755134D01*
X207586431Y-93738393D01*
X207620409Y-93728085D01*
X207661890Y-93724000D01*
X208338110Y-93724000D01*
X208379591Y-93728085D01*
X208379591Y-93728085D01*
G37*
G36*
X189766242Y-93353404D02*
G01*
X189803337Y-93364657D01*
X189837515Y-93382925D01*
X189867481Y-93407519D01*
X189892075Y-93437485D01*
X189910343Y-93471663D01*
X189921596Y-93508758D01*
X189926000Y-93553474D01*
X189926000Y-94446526D01*
X189921596Y-94491242D01*
X189910343Y-94528337D01*
X189892075Y-94562515D01*
X189867481Y-94592481D01*
X189837515Y-94617075D01*
X189803337Y-94635343D01*
X189766242Y-94646596D01*
X189721526Y-94651000D01*
X188278474Y-94651000D01*
X188233758Y-94646596D01*
X188196663Y-94635343D01*
X188162485Y-94617075D01*
X188132519Y-94592481D01*
X188107925Y-94562515D01*
X188089657Y-94528337D01*
X188078404Y-94491242D01*
X188074000Y-94446526D01*
X188074000Y-93553474D01*
X188078404Y-93508758D01*
X188089657Y-93471663D01*
X188107925Y-93437485D01*
X188132519Y-93407519D01*
X188162485Y-93382925D01*
X188196663Y-93364657D01*
X188233758Y-93353404D01*
X188278474Y-93349000D01*
X189721526Y-93349000D01*
X189766242Y-93353404D01*
X189766242Y-93353404D01*
G37*
G36*
X230879591Y-93553085D02*
G01*
X230913569Y-93563393D01*
X230944890Y-93580134D01*
X230972339Y-93602661D01*
X230994866Y-93630110D01*
X231011607Y-93661431D01*
X231021915Y-93695409D01*
X231026000Y-93736890D01*
X231026000Y-94338110D01*
X231021915Y-94379591D01*
X231011607Y-94413569D01*
X230994866Y-94444890D01*
X230972339Y-94472339D01*
X230944890Y-94494866D01*
X230913569Y-94511607D01*
X230879591Y-94521915D01*
X230838110Y-94526000D01*
X230161890Y-94526000D01*
X230120409Y-94521915D01*
X230086431Y-94511607D01*
X230055110Y-94494866D01*
X230027661Y-94472339D01*
X230005134Y-94444890D01*
X229988393Y-94413569D01*
X229978085Y-94379591D01*
X229974000Y-94338110D01*
X229974000Y-93736890D01*
X229978085Y-93695409D01*
X229988393Y-93661431D01*
X230005134Y-93630110D01*
X230027661Y-93602661D01*
X230055110Y-93580134D01*
X230086431Y-93563393D01*
X230120409Y-93553085D01*
X230161890Y-93549000D01*
X230838110Y-93549000D01*
X230879591Y-93553085D01*
X230879591Y-93553085D01*
G37*
G36*
X230879591Y-91978085D02*
G01*
X230913569Y-91988393D01*
X230944890Y-92005134D01*
X230972339Y-92027661D01*
X230994866Y-92055110D01*
X231011607Y-92086431D01*
X231021915Y-92120409D01*
X231026000Y-92161890D01*
X231026000Y-92763110D01*
X231021915Y-92804591D01*
X231011607Y-92838569D01*
X230994866Y-92869890D01*
X230972339Y-92897339D01*
X230944890Y-92919866D01*
X230913569Y-92936607D01*
X230879591Y-92946915D01*
X230838110Y-92951000D01*
X230161890Y-92951000D01*
X230120409Y-92946915D01*
X230086431Y-92936607D01*
X230055110Y-92919866D01*
X230027661Y-92897339D01*
X230005134Y-92869890D01*
X229988393Y-92838569D01*
X229978085Y-92804591D01*
X229974000Y-92763110D01*
X229974000Y-92161890D01*
X229978085Y-92120409D01*
X229988393Y-92086431D01*
X230005134Y-92055110D01*
X230027661Y-92027661D01*
X230055110Y-92005134D01*
X230086431Y-91988393D01*
X230120409Y-91978085D01*
X230161890Y-91974000D01*
X230838110Y-91974000D01*
X230879591Y-91978085D01*
X230879591Y-91978085D01*
G37*
G36*
X207629591Y-91553085D02*
G01*
X207663569Y-91563393D01*
X207694890Y-91580134D01*
X207722339Y-91602661D01*
X207744866Y-91630110D01*
X207761607Y-91661431D01*
X207771915Y-91695409D01*
X207776000Y-91736890D01*
X207776000Y-92338110D01*
X207771915Y-92379591D01*
X207761607Y-92413569D01*
X207744866Y-92444890D01*
X207722339Y-92472339D01*
X207694890Y-92494866D01*
X207663569Y-92511607D01*
X207629591Y-92521915D01*
X207588110Y-92526000D01*
X206911890Y-92526000D01*
X206870409Y-92521915D01*
X206836431Y-92511607D01*
X206805110Y-92494866D01*
X206777661Y-92472339D01*
X206755134Y-92444890D01*
X206738393Y-92413569D01*
X206728085Y-92379591D01*
X206724000Y-92338110D01*
X206724000Y-91736890D01*
X206728085Y-91695409D01*
X206738393Y-91661431D01*
X206755134Y-91630110D01*
X206777661Y-91602661D01*
X206805110Y-91580134D01*
X206836431Y-91563393D01*
X206870409Y-91553085D01*
X206911890Y-91549000D01*
X207588110Y-91549000D01*
X207629591Y-91553085D01*
X207629591Y-91553085D01*
G37*
G36*
X209129591Y-91553085D02*
G01*
X209163569Y-91563393D01*
X209194890Y-91580134D01*
X209222339Y-91602661D01*
X209244866Y-91630110D01*
X209261607Y-91661431D01*
X209271915Y-91695409D01*
X209276000Y-91736890D01*
X209276000Y-92338110D01*
X209271915Y-92379591D01*
X209261607Y-92413569D01*
X209244866Y-92444890D01*
X209222339Y-92472339D01*
X209194890Y-92494866D01*
X209163569Y-92511607D01*
X209129591Y-92521915D01*
X209088110Y-92526000D01*
X208411890Y-92526000D01*
X208370409Y-92521915D01*
X208336431Y-92511607D01*
X208305110Y-92494866D01*
X208277661Y-92472339D01*
X208255134Y-92444890D01*
X208238393Y-92413569D01*
X208228085Y-92379591D01*
X208224000Y-92338110D01*
X208224000Y-91736890D01*
X208228085Y-91695409D01*
X208238393Y-91661431D01*
X208255134Y-91630110D01*
X208277661Y-91602661D01*
X208305110Y-91580134D01*
X208336431Y-91563393D01*
X208370409Y-91553085D01*
X208411890Y-91549000D01*
X209088110Y-91549000D01*
X209129591Y-91553085D01*
X209129591Y-91553085D01*
G37*
G36*
X231879591Y-90053085D02*
G01*
X231913569Y-90063393D01*
X231944890Y-90080134D01*
X231972339Y-90102661D01*
X231994866Y-90130110D01*
X232011607Y-90161431D01*
X232021915Y-90195409D01*
X232026000Y-90236890D01*
X232026000Y-90838110D01*
X232021915Y-90879591D01*
X232011607Y-90913569D01*
X231994866Y-90944890D01*
X231972339Y-90972339D01*
X231944890Y-90994866D01*
X231913569Y-91011607D01*
X231879591Y-91021915D01*
X231838110Y-91026000D01*
X231161890Y-91026000D01*
X231120409Y-91021915D01*
X231086431Y-91011607D01*
X231055110Y-90994866D01*
X231027661Y-90972339D01*
X231005134Y-90944890D01*
X230988393Y-90913569D01*
X230978085Y-90879591D01*
X230974000Y-90838110D01*
X230974000Y-90236890D01*
X230978085Y-90195409D01*
X230988393Y-90161431D01*
X231005134Y-90130110D01*
X231027661Y-90102661D01*
X231055110Y-90080134D01*
X231086431Y-90063393D01*
X231120409Y-90053085D01*
X231161890Y-90049000D01*
X231838110Y-90049000D01*
X231879591Y-90053085D01*
X231879591Y-90053085D01*
G37*
G36*
X230379591Y-90053085D02*
G01*
X230413569Y-90063393D01*
X230444890Y-90080134D01*
X230472339Y-90102661D01*
X230494866Y-90130110D01*
X230511607Y-90161431D01*
X230521915Y-90195409D01*
X230526000Y-90236890D01*
X230526000Y-90838110D01*
X230521915Y-90879591D01*
X230511607Y-90913569D01*
X230494866Y-90944890D01*
X230472339Y-90972339D01*
X230444890Y-90994866D01*
X230413569Y-91011607D01*
X230379591Y-91021915D01*
X230338110Y-91026000D01*
X229661890Y-91026000D01*
X229620409Y-91021915D01*
X229586431Y-91011607D01*
X229555110Y-90994866D01*
X229527661Y-90972339D01*
X229505134Y-90944890D01*
X229488393Y-90913569D01*
X229478085Y-90879591D01*
X229474000Y-90838110D01*
X229474000Y-90236890D01*
X229478085Y-90195409D01*
X229488393Y-90161431D01*
X229505134Y-90130110D01*
X229527661Y-90102661D01*
X229555110Y-90080134D01*
X229586431Y-90063393D01*
X229620409Y-90053085D01*
X229661890Y-90049000D01*
X230338110Y-90049000D01*
X230379591Y-90053085D01*
X230379591Y-90053085D01*
G37*
G36*
X209129591Y-89978085D02*
G01*
X209163569Y-89988393D01*
X209194890Y-90005134D01*
X209222339Y-90027661D01*
X209244866Y-90055110D01*
X209261607Y-90086431D01*
X209271915Y-90120409D01*
X209276000Y-90161890D01*
X209276000Y-90763110D01*
X209271915Y-90804591D01*
X209261607Y-90838569D01*
X209244866Y-90869890D01*
X209222339Y-90897339D01*
X209194890Y-90919866D01*
X209163569Y-90936607D01*
X209129591Y-90946915D01*
X209088110Y-90951000D01*
X208411890Y-90951000D01*
X208370409Y-90946915D01*
X208336431Y-90936607D01*
X208305110Y-90919866D01*
X208277661Y-90897339D01*
X208255134Y-90869890D01*
X208238393Y-90838569D01*
X208228085Y-90804591D01*
X208224000Y-90763110D01*
X208224000Y-90161890D01*
X208228085Y-90120409D01*
X208238393Y-90086431D01*
X208255134Y-90055110D01*
X208277661Y-90027661D01*
X208305110Y-90005134D01*
X208336431Y-89988393D01*
X208370409Y-89978085D01*
X208411890Y-89974000D01*
X209088110Y-89974000D01*
X209129591Y-89978085D01*
X209129591Y-89978085D01*
G37*
G36*
X207629591Y-89978085D02*
G01*
X207663569Y-89988393D01*
X207694890Y-90005134D01*
X207722339Y-90027661D01*
X207744866Y-90055110D01*
X207761607Y-90086431D01*
X207771915Y-90120409D01*
X207776000Y-90161890D01*
X207776000Y-90763110D01*
X207771915Y-90804591D01*
X207761607Y-90838569D01*
X207744866Y-90869890D01*
X207722339Y-90897339D01*
X207694890Y-90919866D01*
X207663569Y-90936607D01*
X207629591Y-90946915D01*
X207588110Y-90951000D01*
X206911890Y-90951000D01*
X206870409Y-90946915D01*
X206836431Y-90936607D01*
X206805110Y-90919866D01*
X206777661Y-90897339D01*
X206755134Y-90869890D01*
X206738393Y-90838569D01*
X206728085Y-90804591D01*
X206724000Y-90763110D01*
X206724000Y-90161890D01*
X206728085Y-90120409D01*
X206738393Y-90086431D01*
X206755134Y-90055110D01*
X206777661Y-90027661D01*
X206805110Y-90005134D01*
X206836431Y-89988393D01*
X206870409Y-89978085D01*
X206911890Y-89974000D01*
X207588110Y-89974000D01*
X207629591Y-89978085D01*
X207629591Y-89978085D01*
G37*
G36*
X248801000Y-90151000D02*
G01*
X247699000Y-90151000D01*
X247699000Y-86899000D01*
X248801000Y-86899000D01*
X248801000Y-90151000D01*
X248801000Y-90151000D01*
G37*
G36*
X251341000Y-90151000D02*
G01*
X250239000Y-90151000D01*
X250239000Y-86899000D01*
X251341000Y-86899000D01*
X251341000Y-90151000D01*
X251341000Y-90151000D01*
G37*
G36*
X253881000Y-90151000D02*
G01*
X252779000Y-90151000D01*
X252779000Y-86899000D01*
X253881000Y-86899000D01*
X253881000Y-90151000D01*
X253881000Y-90151000D01*
G37*
G36*
X243721000Y-90151000D02*
G01*
X242619000Y-90151000D01*
X242619000Y-86899000D01*
X243721000Y-86899000D01*
X243721000Y-90151000D01*
X243721000Y-90151000D01*
G37*
G36*
X246261000Y-90151000D02*
G01*
X245159000Y-90151000D01*
X245159000Y-86899000D01*
X246261000Y-86899000D01*
X246261000Y-90151000D01*
X246261000Y-90151000D01*
G37*
G36*
X231879591Y-88478085D02*
G01*
X231913569Y-88488393D01*
X231944890Y-88505134D01*
X231972339Y-88527661D01*
X231994866Y-88555110D01*
X232011607Y-88586431D01*
X232021915Y-88620409D01*
X232026000Y-88661890D01*
X232026000Y-89263110D01*
X232021915Y-89304591D01*
X232011607Y-89338569D01*
X231994866Y-89369890D01*
X231972339Y-89397339D01*
X231944890Y-89419866D01*
X231913569Y-89436607D01*
X231879591Y-89446915D01*
X231838110Y-89451000D01*
X231161890Y-89451000D01*
X231120409Y-89446915D01*
X231086431Y-89436607D01*
X231055110Y-89419866D01*
X231027661Y-89397339D01*
X231005134Y-89369890D01*
X230988393Y-89338569D01*
X230978085Y-89304591D01*
X230974000Y-89263110D01*
X230974000Y-88661890D01*
X230978085Y-88620409D01*
X230988393Y-88586431D01*
X231005134Y-88555110D01*
X231027661Y-88527661D01*
X231055110Y-88505134D01*
X231086431Y-88488393D01*
X231120409Y-88478085D01*
X231161890Y-88474000D01*
X231838110Y-88474000D01*
X231879591Y-88478085D01*
X231879591Y-88478085D01*
G37*
G36*
X230379591Y-88478085D02*
G01*
X230413569Y-88488393D01*
X230444890Y-88505134D01*
X230472339Y-88527661D01*
X230494866Y-88555110D01*
X230511607Y-88586431D01*
X230521915Y-88620409D01*
X230526000Y-88661890D01*
X230526000Y-89263110D01*
X230521915Y-89304591D01*
X230511607Y-89338569D01*
X230494866Y-89369890D01*
X230472339Y-89397339D01*
X230444890Y-89419866D01*
X230413569Y-89436607D01*
X230379591Y-89446915D01*
X230338110Y-89451000D01*
X229661890Y-89451000D01*
X229620409Y-89446915D01*
X229586431Y-89436607D01*
X229555110Y-89419866D01*
X229527661Y-89397339D01*
X229505134Y-89369890D01*
X229488393Y-89338569D01*
X229478085Y-89304591D01*
X229474000Y-89263110D01*
X229474000Y-88661890D01*
X229478085Y-88620409D01*
X229488393Y-88586431D01*
X229505134Y-88555110D01*
X229527661Y-88527661D01*
X229555110Y-88505134D01*
X229586431Y-88488393D01*
X229620409Y-88478085D01*
X229661890Y-88474000D01*
X230338110Y-88474000D01*
X230379591Y-88478085D01*
X230379591Y-88478085D01*
G37*
G36*
X186129591Y-84553085D02*
G01*
X186163569Y-84563393D01*
X186194890Y-84580134D01*
X186222339Y-84602661D01*
X186244866Y-84630110D01*
X186261607Y-84661431D01*
X186271915Y-84695409D01*
X186276000Y-84736890D01*
X186276000Y-85338110D01*
X186271915Y-85379591D01*
X186261607Y-85413569D01*
X186244866Y-85444890D01*
X186222339Y-85472339D01*
X186194890Y-85494866D01*
X186163569Y-85511607D01*
X186129591Y-85521915D01*
X186088110Y-85526000D01*
X185411890Y-85526000D01*
X185370409Y-85521915D01*
X185336431Y-85511607D01*
X185305110Y-85494866D01*
X185277661Y-85472339D01*
X185255134Y-85444890D01*
X185238393Y-85413569D01*
X185228085Y-85379591D01*
X185224000Y-85338110D01*
X185224000Y-84736890D01*
X185228085Y-84695409D01*
X185238393Y-84661431D01*
X185255134Y-84630110D01*
X185277661Y-84602661D01*
X185305110Y-84580134D01*
X185336431Y-84563393D01*
X185370409Y-84553085D01*
X185411890Y-84549000D01*
X186088110Y-84549000D01*
X186129591Y-84553085D01*
X186129591Y-84553085D01*
G37*
G36*
X183129591Y-84553085D02*
G01*
X183163569Y-84563393D01*
X183194890Y-84580134D01*
X183222339Y-84602661D01*
X183244866Y-84630110D01*
X183261607Y-84661431D01*
X183271915Y-84695409D01*
X183276000Y-84736890D01*
X183276000Y-85338110D01*
X183271915Y-85379591D01*
X183261607Y-85413569D01*
X183244866Y-85444890D01*
X183222339Y-85472339D01*
X183194890Y-85494866D01*
X183163569Y-85511607D01*
X183129591Y-85521915D01*
X183088110Y-85526000D01*
X182411890Y-85526000D01*
X182370409Y-85521915D01*
X182336431Y-85511607D01*
X182305110Y-85494866D01*
X182277661Y-85472339D01*
X182255134Y-85444890D01*
X182238393Y-85413569D01*
X182228085Y-85379591D01*
X182224000Y-85338110D01*
X182224000Y-84736890D01*
X182228085Y-84695409D01*
X182238393Y-84661431D01*
X182255134Y-84630110D01*
X182277661Y-84602661D01*
X182305110Y-84580134D01*
X182336431Y-84563393D01*
X182370409Y-84553085D01*
X182411890Y-84549000D01*
X183088110Y-84549000D01*
X183129591Y-84553085D01*
X183129591Y-84553085D01*
G37*
G36*
X246261000Y-85101000D02*
G01*
X245159000Y-85101000D01*
X245159000Y-81849000D01*
X246261000Y-81849000D01*
X246261000Y-85101000D01*
X246261000Y-85101000D01*
G37*
G36*
X248801000Y-85101000D02*
G01*
X247699000Y-85101000D01*
X247699000Y-81849000D01*
X248801000Y-81849000D01*
X248801000Y-85101000D01*
X248801000Y-85101000D01*
G37*
G36*
X253881000Y-85101000D02*
G01*
X252779000Y-85101000D01*
X252779000Y-81849000D01*
X253881000Y-81849000D01*
X253881000Y-85101000D01*
X253881000Y-85101000D01*
G37*
G36*
X251341000Y-85101000D02*
G01*
X250239000Y-85101000D01*
X250239000Y-81849000D01*
X251341000Y-81849000D01*
X251341000Y-85101000D01*
X251341000Y-85101000D01*
G37*
G36*
X243721000Y-85101000D02*
G01*
X242619000Y-85101000D01*
X242619000Y-81849000D01*
X243721000Y-81849000D01*
X243721000Y-85101000D01*
X243721000Y-85101000D01*
G37*
G36*
X183129591Y-82978085D02*
G01*
X183163569Y-82988393D01*
X183194890Y-83005134D01*
X183222339Y-83027661D01*
X183244866Y-83055110D01*
X183261607Y-83086431D01*
X183271915Y-83120409D01*
X183276000Y-83161890D01*
X183276000Y-83763110D01*
X183271915Y-83804591D01*
X183261607Y-83838569D01*
X183244866Y-83869890D01*
X183222339Y-83897339D01*
X183194890Y-83919866D01*
X183163569Y-83936607D01*
X183129591Y-83946915D01*
X183088110Y-83951000D01*
X182411890Y-83951000D01*
X182370409Y-83946915D01*
X182336431Y-83936607D01*
X182305110Y-83919866D01*
X182277661Y-83897339D01*
X182255134Y-83869890D01*
X182238393Y-83838569D01*
X182228085Y-83804591D01*
X182224000Y-83763110D01*
X182224000Y-83161890D01*
X182228085Y-83120409D01*
X182238393Y-83086431D01*
X182255134Y-83055110D01*
X182277661Y-83027661D01*
X182305110Y-83005134D01*
X182336431Y-82988393D01*
X182370409Y-82978085D01*
X182411890Y-82974000D01*
X183088110Y-82974000D01*
X183129591Y-82978085D01*
X183129591Y-82978085D01*
G37*
G36*
X186129591Y-82978085D02*
G01*
X186163569Y-82988393D01*
X186194890Y-83005134D01*
X186222339Y-83027661D01*
X186244866Y-83055110D01*
X186261607Y-83086431D01*
X186271915Y-83120409D01*
X186276000Y-83161890D01*
X186276000Y-83763110D01*
X186271915Y-83804591D01*
X186261607Y-83838569D01*
X186244866Y-83869890D01*
X186222339Y-83897339D01*
X186194890Y-83919866D01*
X186163569Y-83936607D01*
X186129591Y-83946915D01*
X186088110Y-83951000D01*
X185411890Y-83951000D01*
X185370409Y-83946915D01*
X185336431Y-83936607D01*
X185305110Y-83919866D01*
X185277661Y-83897339D01*
X185255134Y-83869890D01*
X185238393Y-83838569D01*
X185228085Y-83804591D01*
X185224000Y-83763110D01*
X185224000Y-83161890D01*
X185228085Y-83120409D01*
X185238393Y-83086431D01*
X185255134Y-83055110D01*
X185277661Y-83027661D01*
X185305110Y-83005134D01*
X185336431Y-82988393D01*
X185370409Y-82978085D01*
X185411890Y-82974000D01*
X186088110Y-82974000D01*
X186129591Y-82978085D01*
X186129591Y-82978085D01*
G37*
G36*
X210401000Y-81201000D02*
G01*
X208599000Y-81201000D01*
X208599000Y-79799000D01*
X210401000Y-79799000D01*
X210401000Y-81201000D01*
X210401000Y-81201000D01*
G37*
G36*
X193381000Y-80901000D02*
G01*
X192279000Y-80901000D01*
X192279000Y-77649000D01*
X193381000Y-77649000D01*
X193381000Y-80901000D01*
X193381000Y-80901000D01*
G37*
G36*
X183221000Y-80901000D02*
G01*
X182119000Y-80901000D01*
X182119000Y-77649000D01*
X183221000Y-77649000D01*
X183221000Y-80901000D01*
X183221000Y-80901000D01*
G37*
G36*
X188301000Y-80901000D02*
G01*
X187199000Y-80901000D01*
X187199000Y-77649000D01*
X188301000Y-77649000D01*
X188301000Y-80901000D01*
X188301000Y-80901000D01*
G37*
G36*
X185761000Y-80901000D02*
G01*
X184659000Y-80901000D01*
X184659000Y-77649000D01*
X185761000Y-77649000D01*
X185761000Y-80901000D01*
X185761000Y-80901000D01*
G37*
G36*
X190841000Y-80901000D02*
G01*
X189739000Y-80901000D01*
X189739000Y-77649000D01*
X190841000Y-77649000D01*
X190841000Y-80901000D01*
X190841000Y-80901000D01*
G37*
G36*
X210401000Y-77701000D02*
G01*
X208599000Y-77701000D01*
X208599000Y-76299000D01*
X210401000Y-76299000D01*
X210401000Y-77701000D01*
X210401000Y-77701000D01*
G37*
G36*
X200588855Y-74602140D02*
G01*
X200652618Y-74608420D01*
X200743404Y-74635960D01*
X200775336Y-74645646D01*
X200888425Y-74706094D01*
X200987554Y-74787446D01*
X201068906Y-74886575D01*
X201129354Y-74999664D01*
X201129355Y-74999668D01*
X201166580Y-75122382D01*
X201179149Y-75250000D01*
X201166580Y-75377618D01*
X201139040Y-75468404D01*
X201129354Y-75500336D01*
X201068906Y-75613425D01*
X200987554Y-75712554D01*
X200888425Y-75793906D01*
X200775336Y-75854354D01*
X200743404Y-75864040D01*
X200652618Y-75891580D01*
X200588855Y-75897860D01*
X200556974Y-75901000D01*
X199943026Y-75901000D01*
X199911145Y-75897860D01*
X199847382Y-75891580D01*
X199756596Y-75864040D01*
X199724664Y-75854354D01*
X199611575Y-75793906D01*
X199512446Y-75712554D01*
X199431094Y-75613425D01*
X199370646Y-75500336D01*
X199360960Y-75468404D01*
X199333420Y-75377618D01*
X199320851Y-75250000D01*
X199333420Y-75122382D01*
X199370645Y-74999668D01*
X199370646Y-74999664D01*
X199431094Y-74886575D01*
X199512446Y-74787446D01*
X199611575Y-74706094D01*
X199724664Y-74645646D01*
X199756596Y-74635960D01*
X199847382Y-74608420D01*
X199911145Y-74602140D01*
X199943026Y-74599000D01*
X200556974Y-74599000D01*
X200588855Y-74602140D01*
X200588855Y-74602140D01*
G37*
G36*
X190841000Y-75851000D02*
G01*
X189739000Y-75851000D01*
X189739000Y-72599000D01*
X190841000Y-72599000D01*
X190841000Y-75851000D01*
X190841000Y-75851000D01*
G37*
G36*
X183221000Y-75851000D02*
G01*
X182119000Y-75851000D01*
X182119000Y-72599000D01*
X183221000Y-72599000D01*
X183221000Y-75851000D01*
X183221000Y-75851000D01*
G37*
G36*
X188301000Y-75851000D02*
G01*
X187199000Y-75851000D01*
X187199000Y-72599000D01*
X188301000Y-72599000D01*
X188301000Y-75851000D01*
X188301000Y-75851000D01*
G37*
G36*
X193381000Y-75851000D02*
G01*
X192279000Y-75851000D01*
X192279000Y-72599000D01*
X193381000Y-72599000D01*
X193381000Y-75851000D01*
X193381000Y-75851000D01*
G37*
G36*
X185761000Y-75851000D02*
G01*
X184659000Y-75851000D01*
X184659000Y-72599000D01*
X185761000Y-72599000D01*
X185761000Y-75851000D01*
X185761000Y-75851000D01*
G37*
G36*
X210129591Y-74303085D02*
G01*
X210163569Y-74313393D01*
X210194890Y-74330134D01*
X210222339Y-74352661D01*
X210244866Y-74380110D01*
X210261607Y-74411431D01*
X210271915Y-74445409D01*
X210276000Y-74486890D01*
X210276000Y-75088110D01*
X210271915Y-75129591D01*
X210261607Y-75163569D01*
X210244866Y-75194890D01*
X210222339Y-75222339D01*
X210194890Y-75244866D01*
X210163569Y-75261607D01*
X210129591Y-75271915D01*
X210088110Y-75276000D01*
X209411890Y-75276000D01*
X209370409Y-75271915D01*
X209336431Y-75261607D01*
X209305110Y-75244866D01*
X209277661Y-75222339D01*
X209255134Y-75194890D01*
X209238393Y-75163569D01*
X209228085Y-75129591D01*
X209224000Y-75088110D01*
X209224000Y-74486890D01*
X209228085Y-74445409D01*
X209238393Y-74411431D01*
X209255134Y-74380110D01*
X209277661Y-74352661D01*
X209305110Y-74330134D01*
X209336431Y-74313393D01*
X209370409Y-74303085D01*
X209411890Y-74299000D01*
X210088110Y-74299000D01*
X210129591Y-74303085D01*
X210129591Y-74303085D01*
G37*
G36*
X207129591Y-74053085D02*
G01*
X207163569Y-74063393D01*
X207194890Y-74080134D01*
X207222339Y-74102661D01*
X207244866Y-74130110D01*
X207261607Y-74161431D01*
X207271915Y-74195409D01*
X207276000Y-74236890D01*
X207276000Y-74838110D01*
X207271915Y-74879591D01*
X207261607Y-74913569D01*
X207244866Y-74944890D01*
X207222339Y-74972339D01*
X207194890Y-74994866D01*
X207163569Y-75011607D01*
X207129591Y-75021915D01*
X207088110Y-75026000D01*
X206411890Y-75026000D01*
X206370409Y-75021915D01*
X206336431Y-75011607D01*
X206305110Y-74994866D01*
X206277661Y-74972339D01*
X206255134Y-74944890D01*
X206238393Y-74913569D01*
X206228085Y-74879591D01*
X206224000Y-74838110D01*
X206224000Y-74236890D01*
X206228085Y-74195409D01*
X206238393Y-74161431D01*
X206255134Y-74130110D01*
X206277661Y-74102661D01*
X206305110Y-74080134D01*
X206336431Y-74063393D01*
X206370409Y-74053085D01*
X206411890Y-74049000D01*
X207088110Y-74049000D01*
X207129591Y-74053085D01*
X207129591Y-74053085D01*
G37*
G36*
X205342091Y-73228085D02*
G01*
X205376069Y-73238393D01*
X205407390Y-73255134D01*
X205434839Y-73277661D01*
X205457366Y-73305110D01*
X205474107Y-73336431D01*
X205484415Y-73370409D01*
X205488500Y-73411890D01*
X205488500Y-74088110D01*
X205484415Y-74129591D01*
X205474107Y-74163569D01*
X205457366Y-74194890D01*
X205434839Y-74222339D01*
X205407390Y-74244866D01*
X205376069Y-74261607D01*
X205342091Y-74271915D01*
X205300610Y-74276000D01*
X204699390Y-74276000D01*
X204657909Y-74271915D01*
X204623931Y-74261607D01*
X204592610Y-74244866D01*
X204565161Y-74222339D01*
X204542634Y-74194890D01*
X204525893Y-74163569D01*
X204515585Y-74129591D01*
X204511500Y-74088110D01*
X204511500Y-73411890D01*
X204515585Y-73370409D01*
X204525893Y-73336431D01*
X204542634Y-73305110D01*
X204565161Y-73277661D01*
X204592610Y-73255134D01*
X204623931Y-73238393D01*
X204657909Y-73228085D01*
X204699390Y-73224000D01*
X205300610Y-73224000D01*
X205342091Y-73228085D01*
X205342091Y-73228085D01*
G37*
G36*
X203767091Y-73228085D02*
G01*
X203801069Y-73238393D01*
X203832390Y-73255134D01*
X203859839Y-73277661D01*
X203882366Y-73305110D01*
X203899107Y-73336431D01*
X203909415Y-73370409D01*
X203913500Y-73411890D01*
X203913500Y-74088110D01*
X203909415Y-74129591D01*
X203899107Y-74163569D01*
X203882366Y-74194890D01*
X203859839Y-74222339D01*
X203832390Y-74244866D01*
X203801069Y-74261607D01*
X203767091Y-74271915D01*
X203725610Y-74276000D01*
X203124390Y-74276000D01*
X203082909Y-74271915D01*
X203048931Y-74261607D01*
X203017610Y-74244866D01*
X202990161Y-74222339D01*
X202967634Y-74194890D01*
X202950893Y-74163569D01*
X202940585Y-74129591D01*
X202936500Y-74088110D01*
X202936500Y-73411890D01*
X202940585Y-73370409D01*
X202950893Y-73336431D01*
X202967634Y-73305110D01*
X202990161Y-73277661D01*
X203017610Y-73255134D01*
X203048931Y-73238393D01*
X203082909Y-73228085D01*
X203124390Y-73224000D01*
X203725610Y-73224000D01*
X203767091Y-73228085D01*
X203767091Y-73228085D01*
G37*
G36*
X200588855Y-72602140D02*
G01*
X200652618Y-72608420D01*
X200743404Y-72635960D01*
X200775336Y-72645646D01*
X200888425Y-72706094D01*
X200987554Y-72787446D01*
X201068906Y-72886575D01*
X201129354Y-72999664D01*
X201129355Y-72999668D01*
X201166580Y-73122382D01*
X201179149Y-73250000D01*
X201166580Y-73377618D01*
X201148686Y-73436607D01*
X201129354Y-73500336D01*
X201068906Y-73613425D01*
X200987554Y-73712554D01*
X200888425Y-73793906D01*
X200775336Y-73854354D01*
X200743404Y-73864040D01*
X200652618Y-73891580D01*
X200588855Y-73897860D01*
X200556974Y-73901000D01*
X199943026Y-73901000D01*
X199911145Y-73897860D01*
X199847382Y-73891580D01*
X199756596Y-73864040D01*
X199724664Y-73854354D01*
X199611575Y-73793906D01*
X199512446Y-73712554D01*
X199431094Y-73613425D01*
X199370646Y-73500336D01*
X199351314Y-73436607D01*
X199333420Y-73377618D01*
X199320851Y-73250000D01*
X199333420Y-73122382D01*
X199370645Y-72999668D01*
X199370646Y-72999664D01*
X199431094Y-72886575D01*
X199512446Y-72787446D01*
X199611575Y-72706094D01*
X199724664Y-72645646D01*
X199756596Y-72635960D01*
X199847382Y-72608420D01*
X199911145Y-72602140D01*
X199943026Y-72599000D01*
X200556974Y-72599000D01*
X200588855Y-72602140D01*
X200588855Y-72602140D01*
G37*
G36*
X210129591Y-72728085D02*
G01*
X210163569Y-72738393D01*
X210194890Y-72755134D01*
X210222339Y-72777661D01*
X210244866Y-72805110D01*
X210261607Y-72836431D01*
X210271915Y-72870409D01*
X210276000Y-72911890D01*
X210276000Y-73513110D01*
X210271915Y-73554591D01*
X210261607Y-73588569D01*
X210244866Y-73619890D01*
X210222339Y-73647339D01*
X210194890Y-73669866D01*
X210163569Y-73686607D01*
X210129591Y-73696915D01*
X210088110Y-73701000D01*
X209411890Y-73701000D01*
X209370409Y-73696915D01*
X209336431Y-73686607D01*
X209305110Y-73669866D01*
X209277661Y-73647339D01*
X209255134Y-73619890D01*
X209238393Y-73588569D01*
X209228085Y-73554591D01*
X209224000Y-73513110D01*
X209224000Y-72911890D01*
X209228085Y-72870409D01*
X209238393Y-72836431D01*
X209255134Y-72805110D01*
X209277661Y-72777661D01*
X209305110Y-72755134D01*
X209336431Y-72738393D01*
X209370409Y-72728085D01*
X209411890Y-72724000D01*
X210088110Y-72724000D01*
X210129591Y-72728085D01*
X210129591Y-72728085D01*
G37*
G36*
X207129591Y-72478085D02*
G01*
X207163569Y-72488393D01*
X207194890Y-72505134D01*
X207222339Y-72527661D01*
X207244866Y-72555110D01*
X207261607Y-72586431D01*
X207271915Y-72620409D01*
X207276000Y-72661890D01*
X207276000Y-73263110D01*
X207271915Y-73304591D01*
X207261607Y-73338569D01*
X207244866Y-73369890D01*
X207222339Y-73397339D01*
X207194890Y-73419866D01*
X207163569Y-73436607D01*
X207129591Y-73446915D01*
X207088110Y-73451000D01*
X206411890Y-73451000D01*
X206370409Y-73446915D01*
X206336431Y-73436607D01*
X206305110Y-73419866D01*
X206277661Y-73397339D01*
X206255134Y-73369890D01*
X206238393Y-73338569D01*
X206228085Y-73304591D01*
X206224000Y-73263110D01*
X206224000Y-72661890D01*
X206228085Y-72620409D01*
X206238393Y-72586431D01*
X206255134Y-72555110D01*
X206277661Y-72527661D01*
X206305110Y-72505134D01*
X206336431Y-72488393D01*
X206370409Y-72478085D01*
X206411890Y-72474000D01*
X207088110Y-72474000D01*
X207129591Y-72478085D01*
X207129591Y-72478085D01*
G37*
G36*
X201016242Y-70603404D02*
G01*
X201053337Y-70614657D01*
X201087515Y-70632925D01*
X201117481Y-70657519D01*
X201142075Y-70687485D01*
X201160343Y-70721663D01*
X201171596Y-70758758D01*
X201176000Y-70803474D01*
X201176000Y-71696526D01*
X201171596Y-71741242D01*
X201160343Y-71778337D01*
X201142075Y-71812515D01*
X201117481Y-71842481D01*
X201087515Y-71867075D01*
X201053337Y-71885343D01*
X201016242Y-71896596D01*
X200971526Y-71901000D01*
X199528474Y-71901000D01*
X199483758Y-71896596D01*
X199446663Y-71885343D01*
X199412485Y-71867075D01*
X199382519Y-71842481D01*
X199357925Y-71812515D01*
X199339657Y-71778337D01*
X199328404Y-71741242D01*
X199324000Y-71696526D01*
X199324000Y-70803474D01*
X199328404Y-70758758D01*
X199339657Y-70721663D01*
X199357925Y-70687485D01*
X199382519Y-70657519D01*
X199412485Y-70632925D01*
X199446663Y-70614657D01*
X199483758Y-70603404D01*
X199528474Y-70599000D01*
X200971526Y-70599000D01*
X201016242Y-70603404D01*
X201016242Y-70603404D01*
G37*
G36*
X210129591Y-70553085D02*
G01*
X210163569Y-70563393D01*
X210194890Y-70580134D01*
X210222339Y-70602661D01*
X210244866Y-70630110D01*
X210261607Y-70661431D01*
X210271915Y-70695409D01*
X210276000Y-70736890D01*
X210276000Y-71338110D01*
X210271915Y-71379591D01*
X210261607Y-71413569D01*
X210244866Y-71444890D01*
X210222339Y-71472339D01*
X210194890Y-71494866D01*
X210163569Y-71511607D01*
X210129591Y-71521915D01*
X210088110Y-71526000D01*
X209411890Y-71526000D01*
X209370409Y-71521915D01*
X209336431Y-71511607D01*
X209305110Y-71494866D01*
X209277661Y-71472339D01*
X209255134Y-71444890D01*
X209238393Y-71413569D01*
X209228085Y-71379591D01*
X209224000Y-71338110D01*
X209224000Y-70736890D01*
X209228085Y-70695409D01*
X209238393Y-70661431D01*
X209255134Y-70630110D01*
X209277661Y-70602661D01*
X209305110Y-70580134D01*
X209336431Y-70563393D01*
X209370409Y-70553085D01*
X209411890Y-70549000D01*
X210088110Y-70549000D01*
X210129591Y-70553085D01*
X210129591Y-70553085D01*
G37*
G36*
X185379591Y-69553085D02*
G01*
X185413569Y-69563393D01*
X185444890Y-69580134D01*
X185472339Y-69602661D01*
X185494866Y-69630110D01*
X185511607Y-69661431D01*
X185521915Y-69695409D01*
X185526000Y-69736890D01*
X185526000Y-70338110D01*
X185521915Y-70379591D01*
X185511607Y-70413569D01*
X185494866Y-70444890D01*
X185472339Y-70472339D01*
X185444890Y-70494866D01*
X185413569Y-70511607D01*
X185379591Y-70521915D01*
X185338110Y-70526000D01*
X184661890Y-70526000D01*
X184620409Y-70521915D01*
X184586431Y-70511607D01*
X184555110Y-70494866D01*
X184527661Y-70472339D01*
X184505134Y-70444890D01*
X184488393Y-70413569D01*
X184478085Y-70379591D01*
X184474000Y-70338110D01*
X184474000Y-69736890D01*
X184478085Y-69695409D01*
X184488393Y-69661431D01*
X184505134Y-69630110D01*
X184527661Y-69602661D01*
X184555110Y-69580134D01*
X184586431Y-69563393D01*
X184620409Y-69553085D01*
X184661890Y-69549000D01*
X185338110Y-69549000D01*
X185379591Y-69553085D01*
X185379591Y-69553085D01*
G37*
G36*
X191129591Y-69553085D02*
G01*
X191163569Y-69563393D01*
X191194890Y-69580134D01*
X191222339Y-69602661D01*
X191244866Y-69630110D01*
X191261607Y-69661431D01*
X191271915Y-69695409D01*
X191276000Y-69736890D01*
X191276000Y-70338110D01*
X191271915Y-70379591D01*
X191261607Y-70413569D01*
X191244866Y-70444890D01*
X191222339Y-70472339D01*
X191194890Y-70494866D01*
X191163569Y-70511607D01*
X191129591Y-70521915D01*
X191088110Y-70526000D01*
X190411890Y-70526000D01*
X190370409Y-70521915D01*
X190336431Y-70511607D01*
X190305110Y-70494866D01*
X190277661Y-70472339D01*
X190255134Y-70444890D01*
X190238393Y-70413569D01*
X190228085Y-70379591D01*
X190224000Y-70338110D01*
X190224000Y-69736890D01*
X190228085Y-69695409D01*
X190238393Y-69661431D01*
X190255134Y-69630110D01*
X190277661Y-69602661D01*
X190305110Y-69580134D01*
X190336431Y-69563393D01*
X190370409Y-69553085D01*
X190411890Y-69549000D01*
X191088110Y-69549000D01*
X191129591Y-69553085D01*
X191129591Y-69553085D01*
G37*
G36*
X188129591Y-69553085D02*
G01*
X188163569Y-69563393D01*
X188194890Y-69580134D01*
X188222339Y-69602661D01*
X188244866Y-69630110D01*
X188261607Y-69661431D01*
X188271915Y-69695409D01*
X188276000Y-69736890D01*
X188276000Y-70338110D01*
X188271915Y-70379591D01*
X188261607Y-70413569D01*
X188244866Y-70444890D01*
X188222339Y-70472339D01*
X188194890Y-70494866D01*
X188163569Y-70511607D01*
X188129591Y-70521915D01*
X188088110Y-70526000D01*
X187411890Y-70526000D01*
X187370409Y-70521915D01*
X187336431Y-70511607D01*
X187305110Y-70494866D01*
X187277661Y-70472339D01*
X187255134Y-70444890D01*
X187238393Y-70413569D01*
X187228085Y-70379591D01*
X187224000Y-70338110D01*
X187224000Y-69736890D01*
X187228085Y-69695409D01*
X187238393Y-69661431D01*
X187255134Y-69630110D01*
X187277661Y-69602661D01*
X187305110Y-69580134D01*
X187336431Y-69563393D01*
X187370409Y-69553085D01*
X187411890Y-69549000D01*
X188088110Y-69549000D01*
X188129591Y-69553085D01*
X188129591Y-69553085D01*
G37*
G36*
X182129591Y-69553085D02*
G01*
X182163569Y-69563393D01*
X182194890Y-69580134D01*
X182222339Y-69602661D01*
X182244866Y-69630110D01*
X182261607Y-69661431D01*
X182271915Y-69695409D01*
X182276000Y-69736890D01*
X182276000Y-70338110D01*
X182271915Y-70379591D01*
X182261607Y-70413569D01*
X182244866Y-70444890D01*
X182222339Y-70472339D01*
X182194890Y-70494866D01*
X182163569Y-70511607D01*
X182129591Y-70521915D01*
X182088110Y-70526000D01*
X181411890Y-70526000D01*
X181370409Y-70521915D01*
X181336431Y-70511607D01*
X181305110Y-70494866D01*
X181277661Y-70472339D01*
X181255134Y-70444890D01*
X181238393Y-70413569D01*
X181228085Y-70379591D01*
X181224000Y-70338110D01*
X181224000Y-69736890D01*
X181228085Y-69695409D01*
X181238393Y-69661431D01*
X181255134Y-69630110D01*
X181277661Y-69602661D01*
X181305110Y-69580134D01*
X181336431Y-69563393D01*
X181370409Y-69553085D01*
X181411890Y-69549000D01*
X182088110Y-69549000D01*
X182129591Y-69553085D01*
X182129591Y-69553085D01*
G37*
G36*
X210129591Y-68978085D02*
G01*
X210163569Y-68988393D01*
X210194890Y-69005134D01*
X210222339Y-69027661D01*
X210244866Y-69055110D01*
X210261607Y-69086431D01*
X210271915Y-69120409D01*
X210276000Y-69161890D01*
X210276000Y-69763110D01*
X210271915Y-69804591D01*
X210261607Y-69838569D01*
X210244866Y-69869890D01*
X210222339Y-69897339D01*
X210194890Y-69919866D01*
X210163569Y-69936607D01*
X210129591Y-69946915D01*
X210088110Y-69951000D01*
X209411890Y-69951000D01*
X209370409Y-69946915D01*
X209336431Y-69936607D01*
X209305110Y-69919866D01*
X209277661Y-69897339D01*
X209255134Y-69869890D01*
X209238393Y-69838569D01*
X209228085Y-69804591D01*
X209224000Y-69763110D01*
X209224000Y-69161890D01*
X209228085Y-69120409D01*
X209238393Y-69086431D01*
X209255134Y-69055110D01*
X209277661Y-69027661D01*
X209305110Y-69005134D01*
X209336431Y-68988393D01*
X209370409Y-68978085D01*
X209411890Y-68974000D01*
X210088110Y-68974000D01*
X210129591Y-68978085D01*
X210129591Y-68978085D01*
G37*
G36*
X185379591Y-67978085D02*
G01*
X185413569Y-67988393D01*
X185444890Y-68005134D01*
X185472339Y-68027661D01*
X185494866Y-68055110D01*
X185511607Y-68086431D01*
X185521915Y-68120409D01*
X185526000Y-68161890D01*
X185526000Y-68763110D01*
X185521915Y-68804591D01*
X185511607Y-68838569D01*
X185494866Y-68869890D01*
X185472339Y-68897339D01*
X185444890Y-68919866D01*
X185413569Y-68936607D01*
X185379591Y-68946915D01*
X185338110Y-68951000D01*
X184661890Y-68951000D01*
X184620409Y-68946915D01*
X184586431Y-68936607D01*
X184555110Y-68919866D01*
X184527661Y-68897339D01*
X184505134Y-68869890D01*
X184488393Y-68838569D01*
X184478085Y-68804591D01*
X184474000Y-68763110D01*
X184474000Y-68161890D01*
X184478085Y-68120409D01*
X184488393Y-68086431D01*
X184505134Y-68055110D01*
X184527661Y-68027661D01*
X184555110Y-68005134D01*
X184586431Y-67988393D01*
X184620409Y-67978085D01*
X184661890Y-67974000D01*
X185338110Y-67974000D01*
X185379591Y-67978085D01*
X185379591Y-67978085D01*
G37*
G36*
X191129591Y-67978085D02*
G01*
X191163569Y-67988393D01*
X191194890Y-68005134D01*
X191222339Y-68027661D01*
X191244866Y-68055110D01*
X191261607Y-68086431D01*
X191271915Y-68120409D01*
X191276000Y-68161890D01*
X191276000Y-68763110D01*
X191271915Y-68804591D01*
X191261607Y-68838569D01*
X191244866Y-68869890D01*
X191222339Y-68897339D01*
X191194890Y-68919866D01*
X191163569Y-68936607D01*
X191129591Y-68946915D01*
X191088110Y-68951000D01*
X190411890Y-68951000D01*
X190370409Y-68946915D01*
X190336431Y-68936607D01*
X190305110Y-68919866D01*
X190277661Y-68897339D01*
X190255134Y-68869890D01*
X190238393Y-68838569D01*
X190228085Y-68804591D01*
X190224000Y-68763110D01*
X190224000Y-68161890D01*
X190228085Y-68120409D01*
X190238393Y-68086431D01*
X190255134Y-68055110D01*
X190277661Y-68027661D01*
X190305110Y-68005134D01*
X190336431Y-67988393D01*
X190370409Y-67978085D01*
X190411890Y-67974000D01*
X191088110Y-67974000D01*
X191129591Y-67978085D01*
X191129591Y-67978085D01*
G37*
G36*
X188129591Y-67978085D02*
G01*
X188163569Y-67988393D01*
X188194890Y-68005134D01*
X188222339Y-68027661D01*
X188244866Y-68055110D01*
X188261607Y-68086431D01*
X188271915Y-68120409D01*
X188276000Y-68161890D01*
X188276000Y-68763110D01*
X188271915Y-68804591D01*
X188261607Y-68838569D01*
X188244866Y-68869890D01*
X188222339Y-68897339D01*
X188194890Y-68919866D01*
X188163569Y-68936607D01*
X188129591Y-68946915D01*
X188088110Y-68951000D01*
X187411890Y-68951000D01*
X187370409Y-68946915D01*
X187336431Y-68936607D01*
X187305110Y-68919866D01*
X187277661Y-68897339D01*
X187255134Y-68869890D01*
X187238393Y-68838569D01*
X187228085Y-68804591D01*
X187224000Y-68763110D01*
X187224000Y-68161890D01*
X187228085Y-68120409D01*
X187238393Y-68086431D01*
X187255134Y-68055110D01*
X187277661Y-68027661D01*
X187305110Y-68005134D01*
X187336431Y-67988393D01*
X187370409Y-67978085D01*
X187411890Y-67974000D01*
X188088110Y-67974000D01*
X188129591Y-67978085D01*
X188129591Y-67978085D01*
G37*
G36*
X182129591Y-67978085D02*
G01*
X182163569Y-67988393D01*
X182194890Y-68005134D01*
X182222339Y-68027661D01*
X182244866Y-68055110D01*
X182261607Y-68086431D01*
X182271915Y-68120409D01*
X182276000Y-68161890D01*
X182276000Y-68763110D01*
X182271915Y-68804591D01*
X182261607Y-68838569D01*
X182244866Y-68869890D01*
X182222339Y-68897339D01*
X182194890Y-68919866D01*
X182163569Y-68936607D01*
X182129591Y-68946915D01*
X182088110Y-68951000D01*
X181411890Y-68951000D01*
X181370409Y-68946915D01*
X181336431Y-68936607D01*
X181305110Y-68919866D01*
X181277661Y-68897339D01*
X181255134Y-68869890D01*
X181238393Y-68838569D01*
X181228085Y-68804591D01*
X181224000Y-68763110D01*
X181224000Y-68161890D01*
X181228085Y-68120409D01*
X181238393Y-68086431D01*
X181255134Y-68055110D01*
X181277661Y-68027661D01*
X181305110Y-68005134D01*
X181336431Y-67988393D01*
X181370409Y-67978085D01*
X181411890Y-67974000D01*
X182088110Y-67974000D01*
X182129591Y-67978085D01*
X182129591Y-67978085D01*
G37*
G36*
X205304591Y-67478085D02*
G01*
X205338569Y-67488393D01*
X205369890Y-67505134D01*
X205397339Y-67527661D01*
X205419866Y-67555110D01*
X205436607Y-67586431D01*
X205446915Y-67620409D01*
X205451000Y-67661890D01*
X205451000Y-68338110D01*
X205446915Y-68379591D01*
X205436607Y-68413569D01*
X205419866Y-68444890D01*
X205397339Y-68472339D01*
X205369890Y-68494866D01*
X205338569Y-68511607D01*
X205304591Y-68521915D01*
X205263110Y-68526000D01*
X204661890Y-68526000D01*
X204620409Y-68521915D01*
X204586431Y-68511607D01*
X204555110Y-68494866D01*
X204527661Y-68472339D01*
X204505134Y-68444890D01*
X204488393Y-68413569D01*
X204478085Y-68379591D01*
X204474000Y-68338110D01*
X204474000Y-67661890D01*
X204478085Y-67620409D01*
X204488393Y-67586431D01*
X204505134Y-67555110D01*
X204527661Y-67527661D01*
X204555110Y-67505134D01*
X204586431Y-67488393D01*
X204620409Y-67478085D01*
X204661890Y-67474000D01*
X205263110Y-67474000D01*
X205304591Y-67478085D01*
X205304591Y-67478085D01*
G37*
G36*
X206879591Y-67478085D02*
G01*
X206913569Y-67488393D01*
X206944890Y-67505134D01*
X206972339Y-67527661D01*
X206994866Y-67555110D01*
X207011607Y-67586431D01*
X207021915Y-67620409D01*
X207026000Y-67661890D01*
X207026000Y-68338110D01*
X207021915Y-68379591D01*
X207011607Y-68413569D01*
X206994866Y-68444890D01*
X206972339Y-68472339D01*
X206944890Y-68494866D01*
X206913569Y-68511607D01*
X206879591Y-68521915D01*
X206838110Y-68526000D01*
X206236890Y-68526000D01*
X206195409Y-68521915D01*
X206161431Y-68511607D01*
X206130110Y-68494866D01*
X206102661Y-68472339D01*
X206080134Y-68444890D01*
X206063393Y-68413569D01*
X206053085Y-68379591D01*
X206049000Y-68338110D01*
X206049000Y-67661890D01*
X206053085Y-67620409D01*
X206063393Y-67586431D01*
X206080134Y-67555110D01*
X206102661Y-67527661D01*
X206130110Y-67505134D01*
X206161431Y-67488393D01*
X206195409Y-67478085D01*
X206236890Y-67474000D01*
X206838110Y-67474000D01*
X206879591Y-67478085D01*
X206879591Y-67478085D01*
G37*
G36*
X202054591Y-67478085D02*
G01*
X202088569Y-67488393D01*
X202119890Y-67505134D01*
X202147339Y-67527661D01*
X202169866Y-67555110D01*
X202186607Y-67586431D01*
X202196915Y-67620409D01*
X202201000Y-67661890D01*
X202201000Y-68338110D01*
X202196915Y-68379591D01*
X202186607Y-68413569D01*
X202169866Y-68444890D01*
X202147339Y-68472339D01*
X202119890Y-68494866D01*
X202088569Y-68511607D01*
X202054591Y-68521915D01*
X202013110Y-68526000D01*
X201411890Y-68526000D01*
X201370409Y-68521915D01*
X201336431Y-68511607D01*
X201305110Y-68494866D01*
X201277661Y-68472339D01*
X201255134Y-68444890D01*
X201238393Y-68413569D01*
X201228085Y-68379591D01*
X201224000Y-68338110D01*
X201224000Y-67661890D01*
X201228085Y-67620409D01*
X201238393Y-67586431D01*
X201255134Y-67555110D01*
X201277661Y-67527661D01*
X201305110Y-67505134D01*
X201336431Y-67488393D01*
X201370409Y-67478085D01*
X201411890Y-67474000D01*
X202013110Y-67474000D01*
X202054591Y-67478085D01*
X202054591Y-67478085D01*
G37*
G36*
X203629591Y-67478085D02*
G01*
X203663569Y-67488393D01*
X203694890Y-67505134D01*
X203722339Y-67527661D01*
X203744866Y-67555110D01*
X203761607Y-67586431D01*
X203771915Y-67620409D01*
X203776000Y-67661890D01*
X203776000Y-68338110D01*
X203771915Y-68379591D01*
X203761607Y-68413569D01*
X203744866Y-68444890D01*
X203722339Y-68472339D01*
X203694890Y-68494866D01*
X203663569Y-68511607D01*
X203629591Y-68521915D01*
X203588110Y-68526000D01*
X202986890Y-68526000D01*
X202945409Y-68521915D01*
X202911431Y-68511607D01*
X202880110Y-68494866D01*
X202852661Y-68472339D01*
X202830134Y-68444890D01*
X202813393Y-68413569D01*
X202803085Y-68379591D01*
X202799000Y-68338110D01*
X202799000Y-67661890D01*
X202803085Y-67620409D01*
X202813393Y-67586431D01*
X202830134Y-67555110D01*
X202852661Y-67527661D01*
X202880110Y-67505134D01*
X202911431Y-67488393D01*
X202945409Y-67478085D01*
X202986890Y-67474000D01*
X203588110Y-67474000D01*
X203629591Y-67478085D01*
X203629591Y-67478085D01*
G37*
G36*
X223634239Y-59561467D02*
G01*
X223948282Y-59623934D01*
X224539926Y-59869001D01*
X225072392Y-60224784D01*
X225525216Y-60677608D01*
X225880999Y-61210074D01*
X226126066Y-61801718D01*
X226126066Y-61801719D01*
X226251000Y-62429803D01*
X226251000Y-63070197D01*
X226188533Y-63384239D01*
X226126066Y-63698282D01*
X225880999Y-64289926D01*
X225525216Y-64822392D01*
X225072392Y-65275216D01*
X224539926Y-65630999D01*
X223948282Y-65876066D01*
X223634239Y-65938533D01*
X223320197Y-66001000D01*
X222679803Y-66001000D01*
X222365761Y-65938533D01*
X222051718Y-65876066D01*
X221460074Y-65630999D01*
X220927608Y-65275216D01*
X220474784Y-64822392D01*
X220119001Y-64289926D01*
X219873934Y-63698282D01*
X219811467Y-63384239D01*
X219749000Y-63070197D01*
X219749000Y-62429803D01*
X219873934Y-61801719D01*
X219873934Y-61801718D01*
X220119001Y-61210074D01*
X220474784Y-60677608D01*
X220927608Y-60224784D01*
X221460074Y-59869001D01*
X222051718Y-59623934D01*
X222365761Y-59561467D01*
X222679803Y-59499000D01*
X223320197Y-59499000D01*
X223634239Y-59561467D01*
X223634239Y-59561467D01*
G37*
M02*
