G04 #@! TF.GenerationSoftware,KiCad,Pcbnew,(5.1.4)-1*
G04 #@! TF.CreationDate,2019-11-19T11:57:25+01:00*
G04 #@! TF.ProjectId,hardware_4850,68617264-7761-4726-955f-343835302e6b,rev?*
G04 #@! TF.SameCoordinates,Original*
G04 #@! TF.FileFunction,Legend,Bot*
G04 #@! TF.FilePolarity,Positive*
%FSLAX46Y46*%
G04 Gerber Fmt 4.6, Leading zero omitted, Abs format (unit mm)*
G04 Created by KiCad (PCBNEW (5.1.4)-1) date 2019-11-19 11:57:25*
%MOMM*%
%LPD*%
G04 APERTURE LIST*
%ADD10C,0.120000*%
%ADD11C,0.150000*%
G04 APERTURE END LIST*
D10*
X210500000Y-76200000D02*
X210500000Y-80500000D01*
X208500000Y-76200000D02*
X210500000Y-76200000D01*
X208500000Y-80500000D02*
X208500000Y-76200000D01*
X206740000Y-91412779D02*
X206740000Y-91087221D01*
X207760000Y-91412779D02*
X207760000Y-91087221D01*
X208240000Y-91412779D02*
X208240000Y-91087221D01*
X209260000Y-91412779D02*
X209260000Y-91087221D01*
X183260000Y-84087221D02*
X183260000Y-84412779D01*
X182240000Y-84087221D02*
X182240000Y-84412779D01*
X184490000Y-69412779D02*
X184490000Y-69087221D01*
X185510000Y-69412779D02*
X185510000Y-69087221D01*
X190240000Y-69412779D02*
X190240000Y-69087221D01*
X191260000Y-69412779D02*
X191260000Y-69087221D01*
X186260000Y-84087221D02*
X186260000Y-84412779D01*
X185240000Y-84087221D02*
X185240000Y-84412779D01*
X181240000Y-69412779D02*
X181240000Y-69087221D01*
X182260000Y-69412779D02*
X182260000Y-69087221D01*
X187240000Y-69412779D02*
X187240000Y-69087221D01*
X188260000Y-69412779D02*
X188260000Y-69087221D01*
X228925000Y-116900000D02*
X228925000Y-113100000D01*
X232075000Y-116900000D02*
X228925000Y-116900000D01*
X254990000Y-108912779D02*
X254990000Y-108587221D01*
X256010000Y-108912779D02*
X256010000Y-108587221D01*
X194240000Y-112912779D02*
X194240000Y-112587221D01*
X195260000Y-112912779D02*
X195260000Y-112587221D01*
X193760000Y-112587221D02*
X193760000Y-112912779D01*
X192740000Y-112587221D02*
X192740000Y-112912779D01*
X202337221Y-67490000D02*
X202662779Y-67490000D01*
X202337221Y-68510000D02*
X202662779Y-68510000D01*
X206240000Y-73912779D02*
X206240000Y-73587221D01*
X207260000Y-73912779D02*
X207260000Y-73587221D01*
X209240000Y-70412779D02*
X209240000Y-70087221D01*
X210260000Y-70412779D02*
X210260000Y-70087221D01*
X204375279Y-74260000D02*
X204049721Y-74260000D01*
X204375279Y-73240000D02*
X204049721Y-73240000D01*
X251550000Y-88600000D02*
X252570000Y-88600000D01*
X251550000Y-83400000D02*
X252570000Y-83400000D01*
X249010000Y-88600000D02*
X250030000Y-88600000D01*
X249010000Y-83400000D02*
X250030000Y-83400000D01*
X246470000Y-88600000D02*
X247490000Y-88600000D01*
X246470000Y-83400000D02*
X247490000Y-83400000D01*
X243930000Y-88600000D02*
X244950000Y-88600000D01*
X243930000Y-83400000D02*
X244950000Y-83400000D01*
X254090000Y-88600000D02*
X254660000Y-88600000D01*
X254090000Y-83400000D02*
X254660000Y-83400000D01*
X241840000Y-88600000D02*
X242410000Y-88600000D01*
X241840000Y-83400000D02*
X242410000Y-83400000D01*
X242410000Y-81960000D02*
X242410000Y-83400000D01*
X254660000Y-83400000D02*
X254660000Y-88600000D01*
X241840000Y-83400000D02*
X241840000Y-88600000D01*
X184450000Y-74150000D02*
X183430000Y-74150000D01*
X184450000Y-79350000D02*
X183430000Y-79350000D01*
X186990000Y-74150000D02*
X185970000Y-74150000D01*
X186990000Y-79350000D02*
X185970000Y-79350000D01*
X189530000Y-74150000D02*
X188510000Y-74150000D01*
X189530000Y-79350000D02*
X188510000Y-79350000D01*
X192070000Y-74150000D02*
X191050000Y-74150000D01*
X192070000Y-79350000D02*
X191050000Y-79350000D01*
X181910000Y-74150000D02*
X181340000Y-74150000D01*
X181910000Y-79350000D02*
X181340000Y-79350000D01*
X194160000Y-74150000D02*
X193590000Y-74150000D01*
X194160000Y-79350000D02*
X193590000Y-79350000D01*
X193590000Y-80790000D02*
X193590000Y-79350000D01*
X181340000Y-79350000D02*
X181340000Y-74150000D01*
X194160000Y-79350000D02*
X194160000Y-74150000D01*
X223740000Y-106375279D02*
X223740000Y-106049721D01*
X224760000Y-106375279D02*
X224760000Y-106049721D01*
X225490000Y-106412779D02*
X225490000Y-106087221D01*
X226510000Y-106412779D02*
X226510000Y-106087221D01*
X229990000Y-93412779D02*
X229990000Y-93087221D01*
X231010000Y-93412779D02*
X231010000Y-93087221D01*
X230510000Y-89587221D02*
X230510000Y-89912779D01*
X229490000Y-89587221D02*
X229490000Y-89912779D01*
X232010000Y-89587221D02*
X232010000Y-89912779D01*
X230990000Y-89587221D02*
X230990000Y-89912779D01*
X252240000Y-95162779D02*
X252240000Y-94837221D01*
X253260000Y-95162779D02*
X253260000Y-94837221D01*
X249990000Y-95162779D02*
X249990000Y-94837221D01*
X251010000Y-95162779D02*
X251010000Y-94837221D01*
X254490000Y-95162779D02*
X254490000Y-94837221D01*
X255510000Y-95162779D02*
X255510000Y-94837221D01*
X244587221Y-110240000D02*
X244912779Y-110240000D01*
X244587221Y-111260000D02*
X244912779Y-111260000D01*
X248662779Y-110510000D02*
X248337221Y-110510000D01*
X248662779Y-109490000D02*
X248337221Y-109490000D01*
X248662779Y-112010000D02*
X248337221Y-112010000D01*
X248662779Y-110990000D02*
X248337221Y-110990000D01*
X207490000Y-95162779D02*
X207490000Y-94837221D01*
X208510000Y-95162779D02*
X208510000Y-94837221D01*
X226912779Y-116760000D02*
X226587221Y-116760000D01*
X226912779Y-115740000D02*
X226587221Y-115740000D01*
X228110000Y-109897936D02*
X228110000Y-111102064D01*
X225390000Y-109897936D02*
X225390000Y-111102064D01*
X230260000Y-110837221D02*
X230260000Y-111162779D01*
X229240000Y-110837221D02*
X229240000Y-111162779D01*
X218640000Y-107352064D02*
X218640000Y-106147936D01*
X221360000Y-107352064D02*
X221360000Y-106147936D01*
X226912779Y-115010000D02*
X226587221Y-115010000D01*
X226912779Y-113990000D02*
X226587221Y-113990000D01*
X236110000Y-109647936D02*
X236110000Y-110852064D01*
X233390000Y-109647936D02*
X233390000Y-110852064D01*
X205912779Y-68510000D02*
X205587221Y-68510000D01*
X205912779Y-67490000D02*
X205587221Y-67490000D01*
X210260000Y-73837221D02*
X210260000Y-74162779D01*
X209240000Y-73837221D02*
X209240000Y-74162779D01*
D11*
X207952380Y-77059523D02*
X206952380Y-77059523D01*
X206952380Y-77297619D01*
X207000000Y-77440476D01*
X207095238Y-77535714D01*
X207190476Y-77583333D01*
X207380952Y-77630952D01*
X207523809Y-77630952D01*
X207714285Y-77583333D01*
X207809523Y-77535714D01*
X207904761Y-77440476D01*
X207952380Y-77297619D01*
X207952380Y-77059523D01*
X206952380Y-78535714D02*
X206952380Y-78059523D01*
X207428571Y-78011904D01*
X207380952Y-78059523D01*
X207333333Y-78154761D01*
X207333333Y-78392857D01*
X207380952Y-78488095D01*
X207428571Y-78535714D01*
X207523809Y-78583333D01*
X207761904Y-78583333D01*
X207857142Y-78535714D01*
X207904761Y-78488095D01*
X207952380Y-78392857D01*
X207952380Y-78154761D01*
X207904761Y-78059523D01*
X207857142Y-78011904D01*
X206952380Y-79202380D02*
X206952380Y-79297619D01*
X207000000Y-79392857D01*
X207047619Y-79440476D01*
X207142857Y-79488095D01*
X207333333Y-79535714D01*
X207571428Y-79535714D01*
X207761904Y-79488095D01*
X207857142Y-79440476D01*
X207904761Y-79392857D01*
X207952380Y-79297619D01*
X207952380Y-79202380D01*
X207904761Y-79107142D01*
X207857142Y-79059523D01*
X207761904Y-79011904D01*
X207571428Y-78964285D01*
X207333333Y-78964285D01*
X207142857Y-79011904D01*
X207047619Y-79059523D01*
X207000000Y-79107142D01*
X206952380Y-79202380D01*
X206952380Y-80392857D02*
X206952380Y-80202380D01*
X207000000Y-80107142D01*
X207047619Y-80059523D01*
X207190476Y-79964285D01*
X207380952Y-79916666D01*
X207761904Y-79916666D01*
X207857142Y-79964285D01*
X207904761Y-80011904D01*
X207952380Y-80107142D01*
X207952380Y-80297619D01*
X207904761Y-80392857D01*
X207857142Y-80440476D01*
X207761904Y-80488095D01*
X207523809Y-80488095D01*
X207428571Y-80440476D01*
X207380952Y-80392857D01*
X207333333Y-80297619D01*
X207333333Y-80107142D01*
X207380952Y-80011904D01*
X207428571Y-79964285D01*
X207523809Y-79916666D01*
X206107142Y-90130952D02*
X206154761Y-90083333D01*
X206202380Y-89940476D01*
X206202380Y-89845238D01*
X206154761Y-89702380D01*
X206059523Y-89607142D01*
X205964285Y-89559523D01*
X205773809Y-89511904D01*
X205630952Y-89511904D01*
X205440476Y-89559523D01*
X205345238Y-89607142D01*
X205250000Y-89702380D01*
X205202380Y-89845238D01*
X205202380Y-89940476D01*
X205250000Y-90083333D01*
X205297619Y-90130952D01*
X205202380Y-90464285D02*
X205202380Y-91130952D01*
X206202380Y-90702380D01*
X206202380Y-92035714D02*
X206202380Y-91464285D01*
X206202380Y-91750000D02*
X205202380Y-91750000D01*
X205345238Y-91654761D01*
X205440476Y-91559523D01*
X205488095Y-91464285D01*
X205297619Y-92416666D02*
X205250000Y-92464285D01*
X205202380Y-92559523D01*
X205202380Y-92797619D01*
X205250000Y-92892857D01*
X205297619Y-92940476D01*
X205392857Y-92988095D01*
X205488095Y-92988095D01*
X205630952Y-92940476D01*
X206202380Y-92369047D01*
X206202380Y-92988095D01*
X210537142Y-90130952D02*
X210584761Y-90083333D01*
X210632380Y-89940476D01*
X210632380Y-89845238D01*
X210584761Y-89702380D01*
X210489523Y-89607142D01*
X210394285Y-89559523D01*
X210203809Y-89511904D01*
X210060952Y-89511904D01*
X209870476Y-89559523D01*
X209775238Y-89607142D01*
X209680000Y-89702380D01*
X209632380Y-89845238D01*
X209632380Y-89940476D01*
X209680000Y-90083333D01*
X209727619Y-90130952D01*
X209632380Y-90464285D02*
X209632380Y-91130952D01*
X210632380Y-90702380D01*
X210632380Y-92035714D02*
X210632380Y-91464285D01*
X210632380Y-91750000D02*
X209632380Y-91750000D01*
X209775238Y-91654761D01*
X209870476Y-91559523D01*
X209918095Y-91464285D01*
X210632380Y-92988095D02*
X210632380Y-92416666D01*
X210632380Y-92702380D02*
X209632380Y-92702380D01*
X209775238Y-92607142D01*
X209870476Y-92511904D01*
X209918095Y-92416666D01*
X181772380Y-83130952D02*
X181296190Y-82797619D01*
X181772380Y-82559523D02*
X180772380Y-82559523D01*
X180772380Y-82940476D01*
X180820000Y-83035714D01*
X180867619Y-83083333D01*
X180962857Y-83130952D01*
X181105714Y-83130952D01*
X181200952Y-83083333D01*
X181248571Y-83035714D01*
X181296190Y-82940476D01*
X181296190Y-82559523D01*
X180772380Y-83988095D02*
X180772380Y-83797619D01*
X180820000Y-83702380D01*
X180867619Y-83654761D01*
X181010476Y-83559523D01*
X181200952Y-83511904D01*
X181581904Y-83511904D01*
X181677142Y-83559523D01*
X181724761Y-83607142D01*
X181772380Y-83702380D01*
X181772380Y-83892857D01*
X181724761Y-83988095D01*
X181677142Y-84035714D01*
X181581904Y-84083333D01*
X181343809Y-84083333D01*
X181248571Y-84035714D01*
X181200952Y-83988095D01*
X181153333Y-83892857D01*
X181153333Y-83702380D01*
X181200952Y-83607142D01*
X181248571Y-83559523D01*
X181343809Y-83511904D01*
X181772380Y-85035714D02*
X181772380Y-84464285D01*
X181772380Y-84750000D02*
X180772380Y-84750000D01*
X180915238Y-84654761D01*
X181010476Y-84559523D01*
X181058095Y-84464285D01*
X181772380Y-85988095D02*
X181772380Y-85416666D01*
X181772380Y-85702380D02*
X180772380Y-85702380D01*
X180915238Y-85607142D01*
X181010476Y-85511904D01*
X181058095Y-85416666D01*
X186882380Y-68130952D02*
X186406190Y-67797619D01*
X186882380Y-67559523D02*
X185882380Y-67559523D01*
X185882380Y-67940476D01*
X185930000Y-68035714D01*
X185977619Y-68083333D01*
X186072857Y-68130952D01*
X186215714Y-68130952D01*
X186310952Y-68083333D01*
X186358571Y-68035714D01*
X186406190Y-67940476D01*
X186406190Y-67559523D01*
X185882380Y-68988095D02*
X185882380Y-68797619D01*
X185930000Y-68702380D01*
X185977619Y-68654761D01*
X186120476Y-68559523D01*
X186310952Y-68511904D01*
X186691904Y-68511904D01*
X186787142Y-68559523D01*
X186834761Y-68607142D01*
X186882380Y-68702380D01*
X186882380Y-68892857D01*
X186834761Y-68988095D01*
X186787142Y-69035714D01*
X186691904Y-69083333D01*
X186453809Y-69083333D01*
X186358571Y-69035714D01*
X186310952Y-68988095D01*
X186263333Y-68892857D01*
X186263333Y-68702380D01*
X186310952Y-68607142D01*
X186358571Y-68559523D01*
X186453809Y-68511904D01*
X186882380Y-70035714D02*
X186882380Y-69464285D01*
X186882380Y-69750000D02*
X185882380Y-69750000D01*
X186025238Y-69654761D01*
X186120476Y-69559523D01*
X186168095Y-69464285D01*
X185882380Y-70654761D02*
X185882380Y-70750000D01*
X185930000Y-70845238D01*
X185977619Y-70892857D01*
X186072857Y-70940476D01*
X186263333Y-70988095D01*
X186501428Y-70988095D01*
X186691904Y-70940476D01*
X186787142Y-70892857D01*
X186834761Y-70845238D01*
X186882380Y-70750000D01*
X186882380Y-70654761D01*
X186834761Y-70559523D01*
X186787142Y-70511904D01*
X186691904Y-70464285D01*
X186501428Y-70416666D01*
X186263333Y-70416666D01*
X186072857Y-70464285D01*
X185977619Y-70511904D01*
X185930000Y-70559523D01*
X185882380Y-70654761D01*
X192632380Y-68130952D02*
X192156190Y-67797619D01*
X192632380Y-67559523D02*
X191632380Y-67559523D01*
X191632380Y-67940476D01*
X191680000Y-68035714D01*
X191727619Y-68083333D01*
X191822857Y-68130952D01*
X191965714Y-68130952D01*
X192060952Y-68083333D01*
X192108571Y-68035714D01*
X192156190Y-67940476D01*
X192156190Y-67559523D01*
X191632380Y-68988095D02*
X191632380Y-68797619D01*
X191680000Y-68702380D01*
X191727619Y-68654761D01*
X191870476Y-68559523D01*
X192060952Y-68511904D01*
X192441904Y-68511904D01*
X192537142Y-68559523D01*
X192584761Y-68607142D01*
X192632380Y-68702380D01*
X192632380Y-68892857D01*
X192584761Y-68988095D01*
X192537142Y-69035714D01*
X192441904Y-69083333D01*
X192203809Y-69083333D01*
X192108571Y-69035714D01*
X192060952Y-68988095D01*
X192013333Y-68892857D01*
X192013333Y-68702380D01*
X192060952Y-68607142D01*
X192108571Y-68559523D01*
X192203809Y-68511904D01*
X191632380Y-69702380D02*
X191632380Y-69797619D01*
X191680000Y-69892857D01*
X191727619Y-69940476D01*
X191822857Y-69988095D01*
X192013333Y-70035714D01*
X192251428Y-70035714D01*
X192441904Y-69988095D01*
X192537142Y-69940476D01*
X192584761Y-69892857D01*
X192632380Y-69797619D01*
X192632380Y-69702380D01*
X192584761Y-69607142D01*
X192537142Y-69559523D01*
X192441904Y-69511904D01*
X192251428Y-69464285D01*
X192013333Y-69464285D01*
X191822857Y-69511904D01*
X191727619Y-69559523D01*
X191680000Y-69607142D01*
X191632380Y-69702380D01*
X192632380Y-70511904D02*
X192632380Y-70702380D01*
X192584761Y-70797619D01*
X192537142Y-70845238D01*
X192394285Y-70940476D01*
X192203809Y-70988095D01*
X191822857Y-70988095D01*
X191727619Y-70940476D01*
X191680000Y-70892857D01*
X191632380Y-70797619D01*
X191632380Y-70607142D01*
X191680000Y-70511904D01*
X191727619Y-70464285D01*
X191822857Y-70416666D01*
X192060952Y-70416666D01*
X192156190Y-70464285D01*
X192203809Y-70511904D01*
X192251428Y-70607142D01*
X192251428Y-70797619D01*
X192203809Y-70892857D01*
X192156190Y-70940476D01*
X192060952Y-70988095D01*
X184772380Y-83130952D02*
X184296190Y-82797619D01*
X184772380Y-82559523D02*
X183772380Y-82559523D01*
X183772380Y-82940476D01*
X183820000Y-83035714D01*
X183867619Y-83083333D01*
X183962857Y-83130952D01*
X184105714Y-83130952D01*
X184200952Y-83083333D01*
X184248571Y-83035714D01*
X184296190Y-82940476D01*
X184296190Y-82559523D01*
X183772380Y-83988095D02*
X183772380Y-83797619D01*
X183820000Y-83702380D01*
X183867619Y-83654761D01*
X184010476Y-83559523D01*
X184200952Y-83511904D01*
X184581904Y-83511904D01*
X184677142Y-83559523D01*
X184724761Y-83607142D01*
X184772380Y-83702380D01*
X184772380Y-83892857D01*
X184724761Y-83988095D01*
X184677142Y-84035714D01*
X184581904Y-84083333D01*
X184343809Y-84083333D01*
X184248571Y-84035714D01*
X184200952Y-83988095D01*
X184153333Y-83892857D01*
X184153333Y-83702380D01*
X184200952Y-83607142D01*
X184248571Y-83559523D01*
X184343809Y-83511904D01*
X183772380Y-84702380D02*
X183772380Y-84797619D01*
X183820000Y-84892857D01*
X183867619Y-84940476D01*
X183962857Y-84988095D01*
X184153333Y-85035714D01*
X184391428Y-85035714D01*
X184581904Y-84988095D01*
X184677142Y-84940476D01*
X184724761Y-84892857D01*
X184772380Y-84797619D01*
X184772380Y-84702380D01*
X184724761Y-84607142D01*
X184677142Y-84559523D01*
X184581904Y-84511904D01*
X184391428Y-84464285D01*
X184153333Y-84464285D01*
X183962857Y-84511904D01*
X183867619Y-84559523D01*
X183820000Y-84607142D01*
X183772380Y-84702380D01*
X184200952Y-85607142D02*
X184153333Y-85511904D01*
X184105714Y-85464285D01*
X184010476Y-85416666D01*
X183962857Y-85416666D01*
X183867619Y-85464285D01*
X183820000Y-85511904D01*
X183772380Y-85607142D01*
X183772380Y-85797619D01*
X183820000Y-85892857D01*
X183867619Y-85940476D01*
X183962857Y-85988095D01*
X184010476Y-85988095D01*
X184105714Y-85940476D01*
X184153333Y-85892857D01*
X184200952Y-85797619D01*
X184200952Y-85607142D01*
X184248571Y-85511904D01*
X184296190Y-85464285D01*
X184391428Y-85416666D01*
X184581904Y-85416666D01*
X184677142Y-85464285D01*
X184724761Y-85511904D01*
X184772380Y-85607142D01*
X184772380Y-85797619D01*
X184724761Y-85892857D01*
X184677142Y-85940476D01*
X184581904Y-85988095D01*
X184391428Y-85988095D01*
X184296190Y-85940476D01*
X184248571Y-85892857D01*
X184200952Y-85797619D01*
X183632380Y-68130952D02*
X183156190Y-67797619D01*
X183632380Y-67559523D02*
X182632380Y-67559523D01*
X182632380Y-67940476D01*
X182680000Y-68035714D01*
X182727619Y-68083333D01*
X182822857Y-68130952D01*
X182965714Y-68130952D01*
X183060952Y-68083333D01*
X183108571Y-68035714D01*
X183156190Y-67940476D01*
X183156190Y-67559523D01*
X182632380Y-68988095D02*
X182632380Y-68797619D01*
X182680000Y-68702380D01*
X182727619Y-68654761D01*
X182870476Y-68559523D01*
X183060952Y-68511904D01*
X183441904Y-68511904D01*
X183537142Y-68559523D01*
X183584761Y-68607142D01*
X183632380Y-68702380D01*
X183632380Y-68892857D01*
X183584761Y-68988095D01*
X183537142Y-69035714D01*
X183441904Y-69083333D01*
X183203809Y-69083333D01*
X183108571Y-69035714D01*
X183060952Y-68988095D01*
X183013333Y-68892857D01*
X183013333Y-68702380D01*
X183060952Y-68607142D01*
X183108571Y-68559523D01*
X183203809Y-68511904D01*
X182632380Y-69702380D02*
X182632380Y-69797619D01*
X182680000Y-69892857D01*
X182727619Y-69940476D01*
X182822857Y-69988095D01*
X183013333Y-70035714D01*
X183251428Y-70035714D01*
X183441904Y-69988095D01*
X183537142Y-69940476D01*
X183584761Y-69892857D01*
X183632380Y-69797619D01*
X183632380Y-69702380D01*
X183584761Y-69607142D01*
X183537142Y-69559523D01*
X183441904Y-69511904D01*
X183251428Y-69464285D01*
X183013333Y-69464285D01*
X182822857Y-69511904D01*
X182727619Y-69559523D01*
X182680000Y-69607142D01*
X182632380Y-69702380D01*
X182632380Y-70369047D02*
X182632380Y-71035714D01*
X183632380Y-70607142D01*
X189632380Y-68130952D02*
X189156190Y-67797619D01*
X189632380Y-67559523D02*
X188632380Y-67559523D01*
X188632380Y-67940476D01*
X188680000Y-68035714D01*
X188727619Y-68083333D01*
X188822857Y-68130952D01*
X188965714Y-68130952D01*
X189060952Y-68083333D01*
X189108571Y-68035714D01*
X189156190Y-67940476D01*
X189156190Y-67559523D01*
X188632380Y-68988095D02*
X188632380Y-68797619D01*
X188680000Y-68702380D01*
X188727619Y-68654761D01*
X188870476Y-68559523D01*
X189060952Y-68511904D01*
X189441904Y-68511904D01*
X189537142Y-68559523D01*
X189584761Y-68607142D01*
X189632380Y-68702380D01*
X189632380Y-68892857D01*
X189584761Y-68988095D01*
X189537142Y-69035714D01*
X189441904Y-69083333D01*
X189203809Y-69083333D01*
X189108571Y-69035714D01*
X189060952Y-68988095D01*
X189013333Y-68892857D01*
X189013333Y-68702380D01*
X189060952Y-68607142D01*
X189108571Y-68559523D01*
X189203809Y-68511904D01*
X188632380Y-69702380D02*
X188632380Y-69797619D01*
X188680000Y-69892857D01*
X188727619Y-69940476D01*
X188822857Y-69988095D01*
X189013333Y-70035714D01*
X189251428Y-70035714D01*
X189441904Y-69988095D01*
X189537142Y-69940476D01*
X189584761Y-69892857D01*
X189632380Y-69797619D01*
X189632380Y-69702380D01*
X189584761Y-69607142D01*
X189537142Y-69559523D01*
X189441904Y-69511904D01*
X189251428Y-69464285D01*
X189013333Y-69464285D01*
X188822857Y-69511904D01*
X188727619Y-69559523D01*
X188680000Y-69607142D01*
X188632380Y-69702380D01*
X188632380Y-70892857D02*
X188632380Y-70702380D01*
X188680000Y-70607142D01*
X188727619Y-70559523D01*
X188870476Y-70464285D01*
X189060952Y-70416666D01*
X189441904Y-70416666D01*
X189537142Y-70464285D01*
X189584761Y-70511904D01*
X189632380Y-70607142D01*
X189632380Y-70797619D01*
X189584761Y-70892857D01*
X189537142Y-70940476D01*
X189441904Y-70988095D01*
X189203809Y-70988095D01*
X189108571Y-70940476D01*
X189060952Y-70892857D01*
X189013333Y-70797619D01*
X189013333Y-70607142D01*
X189060952Y-70511904D01*
X189108571Y-70464285D01*
X189203809Y-70416666D01*
X232402380Y-113238095D02*
X233402380Y-113904761D01*
X232402380Y-113904761D02*
X233402380Y-113238095D01*
X232402380Y-114714285D02*
X232402380Y-114523809D01*
X232450000Y-114428571D01*
X232497619Y-114380952D01*
X232640476Y-114285714D01*
X232830952Y-114238095D01*
X233211904Y-114238095D01*
X233307142Y-114285714D01*
X233354761Y-114333333D01*
X233402380Y-114428571D01*
X233402380Y-114619047D01*
X233354761Y-114714285D01*
X233307142Y-114761904D01*
X233211904Y-114809523D01*
X232973809Y-114809523D01*
X232878571Y-114761904D01*
X232830952Y-114714285D01*
X232783333Y-114619047D01*
X232783333Y-114428571D01*
X232830952Y-114333333D01*
X232878571Y-114285714D01*
X232973809Y-114238095D01*
X232402380Y-115428571D02*
X232402380Y-115523809D01*
X232450000Y-115619047D01*
X232497619Y-115666666D01*
X232592857Y-115714285D01*
X232783333Y-115761904D01*
X233021428Y-115761904D01*
X233211904Y-115714285D01*
X233307142Y-115666666D01*
X233354761Y-115619047D01*
X233402380Y-115523809D01*
X233402380Y-115428571D01*
X233354761Y-115333333D01*
X233307142Y-115285714D01*
X233211904Y-115238095D01*
X233021428Y-115190476D01*
X232783333Y-115190476D01*
X232592857Y-115238095D01*
X232497619Y-115285714D01*
X232450000Y-115333333D01*
X232402380Y-115428571D01*
X233402380Y-116714285D02*
X233402380Y-116142857D01*
X233402380Y-116428571D02*
X232402380Y-116428571D01*
X232545238Y-116333333D01*
X232640476Y-116238095D01*
X232688095Y-116142857D01*
X257382380Y-107630952D02*
X256906190Y-107297619D01*
X257382380Y-107059523D02*
X256382380Y-107059523D01*
X256382380Y-107440476D01*
X256430000Y-107535714D01*
X256477619Y-107583333D01*
X256572857Y-107630952D01*
X256715714Y-107630952D01*
X256810952Y-107583333D01*
X256858571Y-107535714D01*
X256906190Y-107440476D01*
X256906190Y-107059523D01*
X256382380Y-107964285D02*
X256382380Y-108630952D01*
X257382380Y-108202380D01*
X257382380Y-109535714D02*
X257382380Y-108964285D01*
X257382380Y-109250000D02*
X256382380Y-109250000D01*
X256525238Y-109154761D01*
X256620476Y-109059523D01*
X256668095Y-108964285D01*
X256382380Y-110392857D02*
X256382380Y-110202380D01*
X256430000Y-110107142D01*
X256477619Y-110059523D01*
X256620476Y-109964285D01*
X256810952Y-109916666D01*
X257191904Y-109916666D01*
X257287142Y-109964285D01*
X257334761Y-110011904D01*
X257382380Y-110107142D01*
X257382380Y-110297619D01*
X257334761Y-110392857D01*
X257287142Y-110440476D01*
X257191904Y-110488095D01*
X256953809Y-110488095D01*
X256858571Y-110440476D01*
X256810952Y-110392857D01*
X256763333Y-110297619D01*
X256763333Y-110107142D01*
X256810952Y-110011904D01*
X256858571Y-109964285D01*
X256953809Y-109916666D01*
X195727619Y-113869047D02*
X196203809Y-114202380D01*
X195727619Y-114440476D02*
X196727619Y-114440476D01*
X196727619Y-114059523D01*
X196680000Y-113964285D01*
X196632380Y-113916666D01*
X196537142Y-113869047D01*
X196394285Y-113869047D01*
X196299047Y-113916666D01*
X196251428Y-113964285D01*
X196203809Y-114059523D01*
X196203809Y-114440476D01*
X196727619Y-113011904D02*
X196727619Y-113202380D01*
X196680000Y-113297619D01*
X196632380Y-113345238D01*
X196489523Y-113440476D01*
X196299047Y-113488095D01*
X195918095Y-113488095D01*
X195822857Y-113440476D01*
X195775238Y-113392857D01*
X195727619Y-113297619D01*
X195727619Y-113107142D01*
X195775238Y-113011904D01*
X195822857Y-112964285D01*
X195918095Y-112916666D01*
X196156190Y-112916666D01*
X196251428Y-112964285D01*
X196299047Y-113011904D01*
X196346666Y-113107142D01*
X196346666Y-113297619D01*
X196299047Y-113392857D01*
X196251428Y-113440476D01*
X196156190Y-113488095D01*
X196727619Y-112297619D02*
X196727619Y-112202380D01*
X196680000Y-112107142D01*
X196632380Y-112059523D01*
X196537142Y-112011904D01*
X196346666Y-111964285D01*
X196108571Y-111964285D01*
X195918095Y-112011904D01*
X195822857Y-112059523D01*
X195775238Y-112107142D01*
X195727619Y-112202380D01*
X195727619Y-112297619D01*
X195775238Y-112392857D01*
X195822857Y-112440476D01*
X195918095Y-112488095D01*
X196108571Y-112535714D01*
X196346666Y-112535714D01*
X196537142Y-112488095D01*
X196632380Y-112440476D01*
X196680000Y-112392857D01*
X196727619Y-112297619D01*
X196727619Y-111059523D02*
X196727619Y-111535714D01*
X196251428Y-111583333D01*
X196299047Y-111535714D01*
X196346666Y-111440476D01*
X196346666Y-111202380D01*
X196299047Y-111107142D01*
X196251428Y-111059523D01*
X196156190Y-111011904D01*
X195918095Y-111011904D01*
X195822857Y-111059523D01*
X195775238Y-111107142D01*
X195727619Y-111202380D01*
X195727619Y-111440476D01*
X195775238Y-111535714D01*
X195822857Y-111583333D01*
X192272380Y-111630952D02*
X191796190Y-111297619D01*
X192272380Y-111059523D02*
X191272380Y-111059523D01*
X191272380Y-111440476D01*
X191320000Y-111535714D01*
X191367619Y-111583333D01*
X191462857Y-111630952D01*
X191605714Y-111630952D01*
X191700952Y-111583333D01*
X191748571Y-111535714D01*
X191796190Y-111440476D01*
X191796190Y-111059523D01*
X191272380Y-112488095D02*
X191272380Y-112297619D01*
X191320000Y-112202380D01*
X191367619Y-112154761D01*
X191510476Y-112059523D01*
X191700952Y-112011904D01*
X192081904Y-112011904D01*
X192177142Y-112059523D01*
X192224761Y-112107142D01*
X192272380Y-112202380D01*
X192272380Y-112392857D01*
X192224761Y-112488095D01*
X192177142Y-112535714D01*
X192081904Y-112583333D01*
X191843809Y-112583333D01*
X191748571Y-112535714D01*
X191700952Y-112488095D01*
X191653333Y-112392857D01*
X191653333Y-112202380D01*
X191700952Y-112107142D01*
X191748571Y-112059523D01*
X191843809Y-112011904D01*
X191272380Y-113202380D02*
X191272380Y-113297619D01*
X191320000Y-113392857D01*
X191367619Y-113440476D01*
X191462857Y-113488095D01*
X191653333Y-113535714D01*
X191891428Y-113535714D01*
X192081904Y-113488095D01*
X192177142Y-113440476D01*
X192224761Y-113392857D01*
X192272380Y-113297619D01*
X192272380Y-113202380D01*
X192224761Y-113107142D01*
X192177142Y-113059523D01*
X192081904Y-113011904D01*
X191891428Y-112964285D01*
X191653333Y-112964285D01*
X191462857Y-113011904D01*
X191367619Y-113059523D01*
X191320000Y-113107142D01*
X191272380Y-113202380D01*
X191605714Y-114392857D02*
X192272380Y-114392857D01*
X191224761Y-114154761D02*
X191939047Y-113916666D01*
X191939047Y-114535714D01*
X203369047Y-66952380D02*
X203702380Y-66476190D01*
X203940476Y-66952380D02*
X203940476Y-65952380D01*
X203559523Y-65952380D01*
X203464285Y-66000000D01*
X203416666Y-66047619D01*
X203369047Y-66142857D01*
X203369047Y-66285714D01*
X203416666Y-66380952D01*
X203464285Y-66428571D01*
X203559523Y-66476190D01*
X203940476Y-66476190D01*
X202464285Y-65952380D02*
X202940476Y-65952380D01*
X202988095Y-66428571D01*
X202940476Y-66380952D01*
X202845238Y-66333333D01*
X202607142Y-66333333D01*
X202511904Y-66380952D01*
X202464285Y-66428571D01*
X202416666Y-66523809D01*
X202416666Y-66761904D01*
X202464285Y-66857142D01*
X202511904Y-66904761D01*
X202607142Y-66952380D01*
X202845238Y-66952380D01*
X202940476Y-66904761D01*
X202988095Y-66857142D01*
X201797619Y-65952380D02*
X201702380Y-65952380D01*
X201607142Y-66000000D01*
X201559523Y-66047619D01*
X201511904Y-66142857D01*
X201464285Y-66333333D01*
X201464285Y-66571428D01*
X201511904Y-66761904D01*
X201559523Y-66857142D01*
X201607142Y-66904761D01*
X201702380Y-66952380D01*
X201797619Y-66952380D01*
X201892857Y-66904761D01*
X201940476Y-66857142D01*
X201988095Y-66761904D01*
X202035714Y-66571428D01*
X202035714Y-66333333D01*
X201988095Y-66142857D01*
X201940476Y-66047619D01*
X201892857Y-66000000D01*
X201797619Y-65952380D01*
X200607142Y-65952380D02*
X200797619Y-65952380D01*
X200892857Y-66000000D01*
X200940476Y-66047619D01*
X201035714Y-66190476D01*
X201083333Y-66380952D01*
X201083333Y-66761904D01*
X201035714Y-66857142D01*
X200988095Y-66904761D01*
X200892857Y-66952380D01*
X200702380Y-66952380D01*
X200607142Y-66904761D01*
X200559523Y-66857142D01*
X200511904Y-66761904D01*
X200511904Y-66523809D01*
X200559523Y-66428571D01*
X200607142Y-66380952D01*
X200702380Y-66333333D01*
X200892857Y-66333333D01*
X200988095Y-66380952D01*
X201035714Y-66428571D01*
X201083333Y-66523809D01*
X208702380Y-72630952D02*
X208226190Y-72297619D01*
X208702380Y-72059523D02*
X207702380Y-72059523D01*
X207702380Y-72440476D01*
X207750000Y-72535714D01*
X207797619Y-72583333D01*
X207892857Y-72630952D01*
X208035714Y-72630952D01*
X208130952Y-72583333D01*
X208178571Y-72535714D01*
X208226190Y-72440476D01*
X208226190Y-72059523D01*
X207702380Y-73535714D02*
X207702380Y-73059523D01*
X208178571Y-73011904D01*
X208130952Y-73059523D01*
X208083333Y-73154761D01*
X208083333Y-73392857D01*
X208130952Y-73488095D01*
X208178571Y-73535714D01*
X208273809Y-73583333D01*
X208511904Y-73583333D01*
X208607142Y-73535714D01*
X208654761Y-73488095D01*
X208702380Y-73392857D01*
X208702380Y-73154761D01*
X208654761Y-73059523D01*
X208607142Y-73011904D01*
X207702380Y-74202380D02*
X207702380Y-74297619D01*
X207750000Y-74392857D01*
X207797619Y-74440476D01*
X207892857Y-74488095D01*
X208083333Y-74535714D01*
X208321428Y-74535714D01*
X208511904Y-74488095D01*
X208607142Y-74440476D01*
X208654761Y-74392857D01*
X208702380Y-74297619D01*
X208702380Y-74202380D01*
X208654761Y-74107142D01*
X208607142Y-74059523D01*
X208511904Y-74011904D01*
X208321428Y-73964285D01*
X208083333Y-73964285D01*
X207892857Y-74011904D01*
X207797619Y-74059523D01*
X207750000Y-74107142D01*
X207702380Y-74202380D01*
X207702380Y-75440476D02*
X207702380Y-74964285D01*
X208178571Y-74916666D01*
X208130952Y-74964285D01*
X208083333Y-75059523D01*
X208083333Y-75297619D01*
X208130952Y-75392857D01*
X208178571Y-75440476D01*
X208273809Y-75488095D01*
X208511904Y-75488095D01*
X208607142Y-75440476D01*
X208654761Y-75392857D01*
X208702380Y-75297619D01*
X208702380Y-75059523D01*
X208654761Y-74964285D01*
X208607142Y-74916666D01*
X211702380Y-69130952D02*
X211226190Y-68797619D01*
X211702380Y-68559523D02*
X210702380Y-68559523D01*
X210702380Y-68940476D01*
X210750000Y-69035714D01*
X210797619Y-69083333D01*
X210892857Y-69130952D01*
X211035714Y-69130952D01*
X211130952Y-69083333D01*
X211178571Y-69035714D01*
X211226190Y-68940476D01*
X211226190Y-68559523D01*
X210702380Y-70035714D02*
X210702380Y-69559523D01*
X211178571Y-69511904D01*
X211130952Y-69559523D01*
X211083333Y-69654761D01*
X211083333Y-69892857D01*
X211130952Y-69988095D01*
X211178571Y-70035714D01*
X211273809Y-70083333D01*
X211511904Y-70083333D01*
X211607142Y-70035714D01*
X211654761Y-69988095D01*
X211702380Y-69892857D01*
X211702380Y-69654761D01*
X211654761Y-69559523D01*
X211607142Y-69511904D01*
X210702380Y-70702380D02*
X210702380Y-70797619D01*
X210750000Y-70892857D01*
X210797619Y-70940476D01*
X210892857Y-70988095D01*
X211083333Y-71035714D01*
X211321428Y-71035714D01*
X211511904Y-70988095D01*
X211607142Y-70940476D01*
X211654761Y-70892857D01*
X211702380Y-70797619D01*
X211702380Y-70702380D01*
X211654761Y-70607142D01*
X211607142Y-70559523D01*
X211511904Y-70511904D01*
X211321428Y-70464285D01*
X211083333Y-70464285D01*
X210892857Y-70511904D01*
X210797619Y-70559523D01*
X210750000Y-70607142D01*
X210702380Y-70702380D01*
X210797619Y-71416666D02*
X210750000Y-71464285D01*
X210702380Y-71559523D01*
X210702380Y-71797619D01*
X210750000Y-71892857D01*
X210797619Y-71940476D01*
X210892857Y-71988095D01*
X210988095Y-71988095D01*
X211130952Y-71940476D01*
X211702380Y-71369047D01*
X211702380Y-71988095D01*
X205119047Y-72952380D02*
X205452380Y-72476190D01*
X205690476Y-72952380D02*
X205690476Y-71952380D01*
X205309523Y-71952380D01*
X205214285Y-72000000D01*
X205166666Y-72047619D01*
X205119047Y-72142857D01*
X205119047Y-72285714D01*
X205166666Y-72380952D01*
X205214285Y-72428571D01*
X205309523Y-72476190D01*
X205690476Y-72476190D01*
X204214285Y-71952380D02*
X204690476Y-71952380D01*
X204738095Y-72428571D01*
X204690476Y-72380952D01*
X204595238Y-72333333D01*
X204357142Y-72333333D01*
X204261904Y-72380952D01*
X204214285Y-72428571D01*
X204166666Y-72523809D01*
X204166666Y-72761904D01*
X204214285Y-72857142D01*
X204261904Y-72904761D01*
X204357142Y-72952380D01*
X204595238Y-72952380D01*
X204690476Y-72904761D01*
X204738095Y-72857142D01*
X203547619Y-71952380D02*
X203452380Y-71952380D01*
X203357142Y-72000000D01*
X203309523Y-72047619D01*
X203261904Y-72142857D01*
X203214285Y-72333333D01*
X203214285Y-72571428D01*
X203261904Y-72761904D01*
X203309523Y-72857142D01*
X203357142Y-72904761D01*
X203452380Y-72952380D01*
X203547619Y-72952380D01*
X203642857Y-72904761D01*
X203690476Y-72857142D01*
X203738095Y-72761904D01*
X203785714Y-72571428D01*
X203785714Y-72333333D01*
X203738095Y-72142857D01*
X203690476Y-72047619D01*
X203642857Y-72000000D01*
X203547619Y-71952380D01*
X202261904Y-72952380D02*
X202833333Y-72952380D01*
X202547619Y-72952380D02*
X202547619Y-71952380D01*
X202642857Y-72095238D01*
X202738095Y-72190476D01*
X202833333Y-72238095D01*
X240292380Y-84714285D02*
X241006666Y-84714285D01*
X241149523Y-84666666D01*
X241244761Y-84571428D01*
X241292380Y-84428571D01*
X241292380Y-84333333D01*
X241292380Y-85714285D02*
X241292380Y-85142857D01*
X241292380Y-85428571D02*
X240292380Y-85428571D01*
X240435238Y-85333333D01*
X240530476Y-85238095D01*
X240578095Y-85142857D01*
X240292380Y-86333333D02*
X240292380Y-86428571D01*
X240340000Y-86523809D01*
X240387619Y-86571428D01*
X240482857Y-86619047D01*
X240673333Y-86666666D01*
X240911428Y-86666666D01*
X241101904Y-86619047D01*
X241197142Y-86571428D01*
X241244761Y-86523809D01*
X241292380Y-86428571D01*
X241292380Y-86333333D01*
X241244761Y-86238095D01*
X241197142Y-86190476D01*
X241101904Y-86142857D01*
X240911428Y-86095238D01*
X240673333Y-86095238D01*
X240482857Y-86142857D01*
X240387619Y-86190476D01*
X240340000Y-86238095D01*
X240292380Y-86333333D01*
X240387619Y-87047619D02*
X240340000Y-87095238D01*
X240292380Y-87190476D01*
X240292380Y-87428571D01*
X240340000Y-87523809D01*
X240387619Y-87571428D01*
X240482857Y-87619047D01*
X240578095Y-87619047D01*
X240720952Y-87571428D01*
X241292380Y-87000000D01*
X241292380Y-87619047D01*
X194612380Y-75464285D02*
X195326666Y-75464285D01*
X195469523Y-75416666D01*
X195564761Y-75321428D01*
X195612380Y-75178571D01*
X195612380Y-75083333D01*
X195612380Y-76464285D02*
X195612380Y-75892857D01*
X195612380Y-76178571D02*
X194612380Y-76178571D01*
X194755238Y-76083333D01*
X194850476Y-75988095D01*
X194898095Y-75892857D01*
X194612380Y-77083333D02*
X194612380Y-77178571D01*
X194660000Y-77273809D01*
X194707619Y-77321428D01*
X194802857Y-77369047D01*
X194993333Y-77416666D01*
X195231428Y-77416666D01*
X195421904Y-77369047D01*
X195517142Y-77321428D01*
X195564761Y-77273809D01*
X195612380Y-77178571D01*
X195612380Y-77083333D01*
X195564761Y-76988095D01*
X195517142Y-76940476D01*
X195421904Y-76892857D01*
X195231428Y-76845238D01*
X194993333Y-76845238D01*
X194802857Y-76892857D01*
X194707619Y-76940476D01*
X194660000Y-76988095D01*
X194612380Y-77083333D01*
X195612380Y-78369047D02*
X195612380Y-77797619D01*
X195612380Y-78083333D02*
X194612380Y-78083333D01*
X194755238Y-77988095D01*
X194850476Y-77892857D01*
X194898095Y-77797619D01*
X224178571Y-100676785D02*
X224178571Y-100343452D01*
X224702380Y-100343452D02*
X223702380Y-100343452D01*
X223702380Y-100819642D01*
X224178571Y-101533928D02*
X224226190Y-101676785D01*
X224273809Y-101724404D01*
X224369047Y-101772023D01*
X224511904Y-101772023D01*
X224607142Y-101724404D01*
X224654761Y-101676785D01*
X224702380Y-101581547D01*
X224702380Y-101200595D01*
X223702380Y-101200595D01*
X223702380Y-101533928D01*
X223750000Y-101629166D01*
X223797619Y-101676785D01*
X223892857Y-101724404D01*
X223988095Y-101724404D01*
X224083333Y-101676785D01*
X224130952Y-101629166D01*
X224178571Y-101533928D01*
X224178571Y-101200595D01*
X223702380Y-102676785D02*
X223702380Y-102200595D01*
X224178571Y-102152976D01*
X224130952Y-102200595D01*
X224083333Y-102295833D01*
X224083333Y-102533928D01*
X224130952Y-102629166D01*
X224178571Y-102676785D01*
X224273809Y-102724404D01*
X224511904Y-102724404D01*
X224607142Y-102676785D01*
X224654761Y-102629166D01*
X224702380Y-102533928D01*
X224702380Y-102295833D01*
X224654761Y-102200595D01*
X224607142Y-102152976D01*
X223702380Y-103343452D02*
X223702380Y-103438690D01*
X223750000Y-103533928D01*
X223797619Y-103581547D01*
X223892857Y-103629166D01*
X224083333Y-103676785D01*
X224321428Y-103676785D01*
X224511904Y-103629166D01*
X224607142Y-103581547D01*
X224654761Y-103533928D01*
X224702380Y-103438690D01*
X224702380Y-103343452D01*
X224654761Y-103248214D01*
X224607142Y-103200595D01*
X224511904Y-103152976D01*
X224321428Y-103105357D01*
X224083333Y-103105357D01*
X223892857Y-103152976D01*
X223797619Y-103200595D01*
X223750000Y-103248214D01*
X223702380Y-103343452D01*
X223797619Y-104057738D02*
X223750000Y-104105357D01*
X223702380Y-104200595D01*
X223702380Y-104438690D01*
X223750000Y-104533928D01*
X223797619Y-104581547D01*
X223892857Y-104629166D01*
X223988095Y-104629166D01*
X224130952Y-104581547D01*
X224702380Y-104010119D01*
X224702380Y-104629166D01*
X227358571Y-104464285D02*
X227358571Y-104130952D01*
X227882380Y-104130952D02*
X226882380Y-104130952D01*
X226882380Y-104607142D01*
X227358571Y-105321428D02*
X227406190Y-105464285D01*
X227453809Y-105511904D01*
X227549047Y-105559523D01*
X227691904Y-105559523D01*
X227787142Y-105511904D01*
X227834761Y-105464285D01*
X227882380Y-105369047D01*
X227882380Y-104988095D01*
X226882380Y-104988095D01*
X226882380Y-105321428D01*
X226930000Y-105416666D01*
X226977619Y-105464285D01*
X227072857Y-105511904D01*
X227168095Y-105511904D01*
X227263333Y-105464285D01*
X227310952Y-105416666D01*
X227358571Y-105321428D01*
X227358571Y-104988095D01*
X226882380Y-106464285D02*
X226882380Y-105988095D01*
X227358571Y-105940476D01*
X227310952Y-105988095D01*
X227263333Y-106083333D01*
X227263333Y-106321428D01*
X227310952Y-106416666D01*
X227358571Y-106464285D01*
X227453809Y-106511904D01*
X227691904Y-106511904D01*
X227787142Y-106464285D01*
X227834761Y-106416666D01*
X227882380Y-106321428D01*
X227882380Y-106083333D01*
X227834761Y-105988095D01*
X227787142Y-105940476D01*
X226882380Y-107130952D02*
X226882380Y-107226190D01*
X226930000Y-107321428D01*
X226977619Y-107369047D01*
X227072857Y-107416666D01*
X227263333Y-107464285D01*
X227501428Y-107464285D01*
X227691904Y-107416666D01*
X227787142Y-107369047D01*
X227834761Y-107321428D01*
X227882380Y-107226190D01*
X227882380Y-107130952D01*
X227834761Y-107035714D01*
X227787142Y-106988095D01*
X227691904Y-106940476D01*
X227501428Y-106892857D01*
X227263333Y-106892857D01*
X227072857Y-106940476D01*
X226977619Y-106988095D01*
X226930000Y-107035714D01*
X226882380Y-107130952D01*
X227882380Y-108416666D02*
X227882380Y-107845238D01*
X227882380Y-108130952D02*
X226882380Y-108130952D01*
X227025238Y-108035714D01*
X227120476Y-107940476D01*
X227168095Y-107845238D01*
X232287142Y-92404761D02*
X232334761Y-92357142D01*
X232382380Y-92214285D01*
X232382380Y-92119047D01*
X232334761Y-91976190D01*
X232239523Y-91880952D01*
X232144285Y-91833333D01*
X231953809Y-91785714D01*
X231810952Y-91785714D01*
X231620476Y-91833333D01*
X231525238Y-91880952D01*
X231430000Y-91976190D01*
X231382380Y-92119047D01*
X231382380Y-92214285D01*
X231430000Y-92357142D01*
X231477619Y-92404761D01*
X232382380Y-93357142D02*
X232382380Y-92785714D01*
X232382380Y-93071428D02*
X231382380Y-93071428D01*
X231525238Y-92976190D01*
X231620476Y-92880952D01*
X231668095Y-92785714D01*
X231382380Y-93976190D02*
X231382380Y-94071428D01*
X231430000Y-94166666D01*
X231477619Y-94214285D01*
X231572857Y-94261904D01*
X231763333Y-94309523D01*
X232001428Y-94309523D01*
X232191904Y-94261904D01*
X232287142Y-94214285D01*
X232334761Y-94166666D01*
X232382380Y-94071428D01*
X232382380Y-93976190D01*
X232334761Y-93880952D01*
X232287142Y-93833333D01*
X232191904Y-93785714D01*
X232001428Y-93738095D01*
X231763333Y-93738095D01*
X231572857Y-93785714D01*
X231477619Y-93833333D01*
X231430000Y-93880952D01*
X231382380Y-93976190D01*
X232382380Y-95261904D02*
X232382380Y-94690476D01*
X232382380Y-94976190D02*
X231382380Y-94976190D01*
X231525238Y-94880952D01*
X231620476Y-94785714D01*
X231668095Y-94690476D01*
X231382380Y-95880952D02*
X231382380Y-95976190D01*
X231430000Y-96071428D01*
X231477619Y-96119047D01*
X231572857Y-96166666D01*
X231763333Y-96214285D01*
X232001428Y-96214285D01*
X232191904Y-96166666D01*
X232287142Y-96119047D01*
X232334761Y-96071428D01*
X232382380Y-95976190D01*
X232382380Y-95880952D01*
X232334761Y-95785714D01*
X232287142Y-95738095D01*
X232191904Y-95690476D01*
X232001428Y-95642857D01*
X231763333Y-95642857D01*
X231572857Y-95690476D01*
X231477619Y-95738095D01*
X231430000Y-95785714D01*
X231382380Y-95880952D01*
X228927142Y-88154761D02*
X228974761Y-88107142D01*
X229022380Y-87964285D01*
X229022380Y-87869047D01*
X228974761Y-87726190D01*
X228879523Y-87630952D01*
X228784285Y-87583333D01*
X228593809Y-87535714D01*
X228450952Y-87535714D01*
X228260476Y-87583333D01*
X228165238Y-87630952D01*
X228070000Y-87726190D01*
X228022380Y-87869047D01*
X228022380Y-87964285D01*
X228070000Y-88107142D01*
X228117619Y-88154761D01*
X229022380Y-89107142D02*
X229022380Y-88535714D01*
X229022380Y-88821428D02*
X228022380Y-88821428D01*
X228165238Y-88726190D01*
X228260476Y-88630952D01*
X228308095Y-88535714D01*
X228022380Y-89726190D02*
X228022380Y-89821428D01*
X228070000Y-89916666D01*
X228117619Y-89964285D01*
X228212857Y-90011904D01*
X228403333Y-90059523D01*
X228641428Y-90059523D01*
X228831904Y-90011904D01*
X228927142Y-89964285D01*
X228974761Y-89916666D01*
X229022380Y-89821428D01*
X229022380Y-89726190D01*
X228974761Y-89630952D01*
X228927142Y-89583333D01*
X228831904Y-89535714D01*
X228641428Y-89488095D01*
X228403333Y-89488095D01*
X228212857Y-89535714D01*
X228117619Y-89583333D01*
X228070000Y-89630952D01*
X228022380Y-89726190D01*
X228022380Y-90678571D02*
X228022380Y-90773809D01*
X228070000Y-90869047D01*
X228117619Y-90916666D01*
X228212857Y-90964285D01*
X228403333Y-91011904D01*
X228641428Y-91011904D01*
X228831904Y-90964285D01*
X228927142Y-90916666D01*
X228974761Y-90869047D01*
X229022380Y-90773809D01*
X229022380Y-90678571D01*
X228974761Y-90583333D01*
X228927142Y-90535714D01*
X228831904Y-90488095D01*
X228641428Y-90440476D01*
X228403333Y-90440476D01*
X228212857Y-90488095D01*
X228117619Y-90535714D01*
X228070000Y-90583333D01*
X228022380Y-90678571D01*
X228022380Y-91345238D02*
X228022380Y-92011904D01*
X229022380Y-91583333D01*
X233357142Y-88154761D02*
X233404761Y-88107142D01*
X233452380Y-87964285D01*
X233452380Y-87869047D01*
X233404761Y-87726190D01*
X233309523Y-87630952D01*
X233214285Y-87583333D01*
X233023809Y-87535714D01*
X232880952Y-87535714D01*
X232690476Y-87583333D01*
X232595238Y-87630952D01*
X232500000Y-87726190D01*
X232452380Y-87869047D01*
X232452380Y-87964285D01*
X232500000Y-88107142D01*
X232547619Y-88154761D01*
X233452380Y-89107142D02*
X233452380Y-88535714D01*
X233452380Y-88821428D02*
X232452380Y-88821428D01*
X232595238Y-88726190D01*
X232690476Y-88630952D01*
X232738095Y-88535714D01*
X232452380Y-89726190D02*
X232452380Y-89821428D01*
X232500000Y-89916666D01*
X232547619Y-89964285D01*
X232642857Y-90011904D01*
X232833333Y-90059523D01*
X233071428Y-90059523D01*
X233261904Y-90011904D01*
X233357142Y-89964285D01*
X233404761Y-89916666D01*
X233452380Y-89821428D01*
X233452380Y-89726190D01*
X233404761Y-89630952D01*
X233357142Y-89583333D01*
X233261904Y-89535714D01*
X233071428Y-89488095D01*
X232833333Y-89488095D01*
X232642857Y-89535714D01*
X232547619Y-89583333D01*
X232500000Y-89630952D01*
X232452380Y-89726190D01*
X232452380Y-90678571D02*
X232452380Y-90773809D01*
X232500000Y-90869047D01*
X232547619Y-90916666D01*
X232642857Y-90964285D01*
X232833333Y-91011904D01*
X233071428Y-91011904D01*
X233261904Y-90964285D01*
X233357142Y-90916666D01*
X233404761Y-90869047D01*
X233452380Y-90773809D01*
X233452380Y-90678571D01*
X233404761Y-90583333D01*
X233357142Y-90535714D01*
X233261904Y-90488095D01*
X233071428Y-90440476D01*
X232833333Y-90440476D01*
X232642857Y-90488095D01*
X232547619Y-90535714D01*
X232500000Y-90583333D01*
X232452380Y-90678571D01*
X232452380Y-91869047D02*
X232452380Y-91678571D01*
X232500000Y-91583333D01*
X232547619Y-91535714D01*
X232690476Y-91440476D01*
X232880952Y-91392857D01*
X233261904Y-91392857D01*
X233357142Y-91440476D01*
X233404761Y-91488095D01*
X233452380Y-91583333D01*
X233452380Y-91773809D01*
X233404761Y-91869047D01*
X233357142Y-91916666D01*
X233261904Y-91964285D01*
X233023809Y-91964285D01*
X232928571Y-91916666D01*
X232880952Y-91869047D01*
X232833333Y-91773809D01*
X232833333Y-91583333D01*
X232880952Y-91488095D01*
X232928571Y-91440476D01*
X233023809Y-91392857D01*
X253107142Y-97380952D02*
X253154761Y-97333333D01*
X253202380Y-97190476D01*
X253202380Y-97095238D01*
X253154761Y-96952380D01*
X253059523Y-96857142D01*
X252964285Y-96809523D01*
X252773809Y-96761904D01*
X252630952Y-96761904D01*
X252440476Y-96809523D01*
X252345238Y-96857142D01*
X252250000Y-96952380D01*
X252202380Y-97095238D01*
X252202380Y-97190476D01*
X252250000Y-97333333D01*
X252297619Y-97380952D01*
X253202380Y-97857142D02*
X253202380Y-98047619D01*
X253154761Y-98142857D01*
X253107142Y-98190476D01*
X252964285Y-98285714D01*
X252773809Y-98333333D01*
X252392857Y-98333333D01*
X252297619Y-98285714D01*
X252250000Y-98238095D01*
X252202380Y-98142857D01*
X252202380Y-97952380D01*
X252250000Y-97857142D01*
X252297619Y-97809523D01*
X252392857Y-97761904D01*
X252630952Y-97761904D01*
X252726190Y-97809523D01*
X252773809Y-97857142D01*
X252821428Y-97952380D01*
X252821428Y-98142857D01*
X252773809Y-98238095D01*
X252726190Y-98285714D01*
X252630952Y-98333333D01*
X253202380Y-99285714D02*
X253202380Y-98714285D01*
X253202380Y-99000000D02*
X252202380Y-99000000D01*
X252345238Y-98904761D01*
X252440476Y-98809523D01*
X252488095Y-98714285D01*
X252202380Y-99904761D02*
X252202380Y-100000000D01*
X252250000Y-100095238D01*
X252297619Y-100142857D01*
X252392857Y-100190476D01*
X252583333Y-100238095D01*
X252821428Y-100238095D01*
X253011904Y-100190476D01*
X253107142Y-100142857D01*
X253154761Y-100095238D01*
X253202380Y-100000000D01*
X253202380Y-99904761D01*
X253154761Y-99809523D01*
X253107142Y-99761904D01*
X253011904Y-99714285D01*
X252821428Y-99666666D01*
X252583333Y-99666666D01*
X252392857Y-99714285D01*
X252297619Y-99761904D01*
X252250000Y-99809523D01*
X252202380Y-99904761D01*
X250857142Y-97380952D02*
X250904761Y-97333333D01*
X250952380Y-97190476D01*
X250952380Y-97095238D01*
X250904761Y-96952380D01*
X250809523Y-96857142D01*
X250714285Y-96809523D01*
X250523809Y-96761904D01*
X250380952Y-96761904D01*
X250190476Y-96809523D01*
X250095238Y-96857142D01*
X250000000Y-96952380D01*
X249952380Y-97095238D01*
X249952380Y-97190476D01*
X250000000Y-97333333D01*
X250047619Y-97380952D01*
X250952380Y-97857142D02*
X250952380Y-98047619D01*
X250904761Y-98142857D01*
X250857142Y-98190476D01*
X250714285Y-98285714D01*
X250523809Y-98333333D01*
X250142857Y-98333333D01*
X250047619Y-98285714D01*
X250000000Y-98238095D01*
X249952380Y-98142857D01*
X249952380Y-97952380D01*
X250000000Y-97857142D01*
X250047619Y-97809523D01*
X250142857Y-97761904D01*
X250380952Y-97761904D01*
X250476190Y-97809523D01*
X250523809Y-97857142D01*
X250571428Y-97952380D01*
X250571428Y-98142857D01*
X250523809Y-98238095D01*
X250476190Y-98285714D01*
X250380952Y-98333333D01*
X249952380Y-98952380D02*
X249952380Y-99047619D01*
X250000000Y-99142857D01*
X250047619Y-99190476D01*
X250142857Y-99238095D01*
X250333333Y-99285714D01*
X250571428Y-99285714D01*
X250761904Y-99238095D01*
X250857142Y-99190476D01*
X250904761Y-99142857D01*
X250952380Y-99047619D01*
X250952380Y-98952380D01*
X250904761Y-98857142D01*
X250857142Y-98809523D01*
X250761904Y-98761904D01*
X250571428Y-98714285D01*
X250333333Y-98714285D01*
X250142857Y-98761904D01*
X250047619Y-98809523D01*
X250000000Y-98857142D01*
X249952380Y-98952380D01*
X249952380Y-99619047D02*
X249952380Y-100285714D01*
X250952380Y-99857142D01*
X255357142Y-97380952D02*
X255404761Y-97333333D01*
X255452380Y-97190476D01*
X255452380Y-97095238D01*
X255404761Y-96952380D01*
X255309523Y-96857142D01*
X255214285Y-96809523D01*
X255023809Y-96761904D01*
X254880952Y-96761904D01*
X254690476Y-96809523D01*
X254595238Y-96857142D01*
X254500000Y-96952380D01*
X254452380Y-97095238D01*
X254452380Y-97190476D01*
X254500000Y-97333333D01*
X254547619Y-97380952D01*
X255452380Y-97857142D02*
X255452380Y-98047619D01*
X255404761Y-98142857D01*
X255357142Y-98190476D01*
X255214285Y-98285714D01*
X255023809Y-98333333D01*
X254642857Y-98333333D01*
X254547619Y-98285714D01*
X254500000Y-98238095D01*
X254452380Y-98142857D01*
X254452380Y-97952380D01*
X254500000Y-97857142D01*
X254547619Y-97809523D01*
X254642857Y-97761904D01*
X254880952Y-97761904D01*
X254976190Y-97809523D01*
X255023809Y-97857142D01*
X255071428Y-97952380D01*
X255071428Y-98142857D01*
X255023809Y-98238095D01*
X254976190Y-98285714D01*
X254880952Y-98333333D01*
X254452380Y-98952380D02*
X254452380Y-99047619D01*
X254500000Y-99142857D01*
X254547619Y-99190476D01*
X254642857Y-99238095D01*
X254833333Y-99285714D01*
X255071428Y-99285714D01*
X255261904Y-99238095D01*
X255357142Y-99190476D01*
X255404761Y-99142857D01*
X255452380Y-99047619D01*
X255452380Y-98952380D01*
X255404761Y-98857142D01*
X255357142Y-98809523D01*
X255261904Y-98761904D01*
X255071428Y-98714285D01*
X254833333Y-98714285D01*
X254642857Y-98761904D01*
X254547619Y-98809523D01*
X254500000Y-98857142D01*
X254452380Y-98952380D01*
X254452380Y-100142857D02*
X254452380Y-99952380D01*
X254500000Y-99857142D01*
X254547619Y-99809523D01*
X254690476Y-99714285D01*
X254880952Y-99666666D01*
X255261904Y-99666666D01*
X255357142Y-99714285D01*
X255404761Y-99761904D01*
X255452380Y-99857142D01*
X255452380Y-100047619D01*
X255404761Y-100142857D01*
X255357142Y-100190476D01*
X255261904Y-100238095D01*
X255023809Y-100238095D01*
X254928571Y-100190476D01*
X254880952Y-100142857D01*
X254833333Y-100047619D01*
X254833333Y-99857142D01*
X254880952Y-99761904D01*
X254928571Y-99714285D01*
X255023809Y-99666666D01*
X245869047Y-112537142D02*
X245916666Y-112584761D01*
X246059523Y-112632380D01*
X246154761Y-112632380D01*
X246297619Y-112584761D01*
X246392857Y-112489523D01*
X246440476Y-112394285D01*
X246488095Y-112203809D01*
X246488095Y-112060952D01*
X246440476Y-111870476D01*
X246392857Y-111775238D01*
X246297619Y-111680000D01*
X246154761Y-111632380D01*
X246059523Y-111632380D01*
X245916666Y-111680000D01*
X245869047Y-111727619D01*
X245297619Y-112060952D02*
X245392857Y-112013333D01*
X245440476Y-111965714D01*
X245488095Y-111870476D01*
X245488095Y-111822857D01*
X245440476Y-111727619D01*
X245392857Y-111680000D01*
X245297619Y-111632380D01*
X245107142Y-111632380D01*
X245011904Y-111680000D01*
X244964285Y-111727619D01*
X244916666Y-111822857D01*
X244916666Y-111870476D01*
X244964285Y-111965714D01*
X245011904Y-112013333D01*
X245107142Y-112060952D01*
X245297619Y-112060952D01*
X245392857Y-112108571D01*
X245440476Y-112156190D01*
X245488095Y-112251428D01*
X245488095Y-112441904D01*
X245440476Y-112537142D01*
X245392857Y-112584761D01*
X245297619Y-112632380D01*
X245107142Y-112632380D01*
X245011904Y-112584761D01*
X244964285Y-112537142D01*
X244916666Y-112441904D01*
X244916666Y-112251428D01*
X244964285Y-112156190D01*
X245011904Y-112108571D01*
X245107142Y-112060952D01*
X243964285Y-112632380D02*
X244535714Y-112632380D01*
X244250000Y-112632380D02*
X244250000Y-111632380D01*
X244345238Y-111775238D01*
X244440476Y-111870476D01*
X244535714Y-111918095D01*
X243345238Y-111632380D02*
X243250000Y-111632380D01*
X243154761Y-111680000D01*
X243107142Y-111727619D01*
X243059523Y-111822857D01*
X243011904Y-112013333D01*
X243011904Y-112251428D01*
X243059523Y-112441904D01*
X243107142Y-112537142D01*
X243154761Y-112584761D01*
X243250000Y-112632380D01*
X243345238Y-112632380D01*
X243440476Y-112584761D01*
X243488095Y-112537142D01*
X243535714Y-112441904D01*
X243583333Y-112251428D01*
X243583333Y-112013333D01*
X243535714Y-111822857D01*
X243488095Y-111727619D01*
X243440476Y-111680000D01*
X243345238Y-111632380D01*
X249619047Y-108857142D02*
X249666666Y-108904761D01*
X249809523Y-108952380D01*
X249904761Y-108952380D01*
X250047619Y-108904761D01*
X250142857Y-108809523D01*
X250190476Y-108714285D01*
X250238095Y-108523809D01*
X250238095Y-108380952D01*
X250190476Y-108190476D01*
X250142857Y-108095238D01*
X250047619Y-108000000D01*
X249904761Y-107952380D01*
X249809523Y-107952380D01*
X249666666Y-108000000D01*
X249619047Y-108047619D01*
X249047619Y-108380952D02*
X249142857Y-108333333D01*
X249190476Y-108285714D01*
X249238095Y-108190476D01*
X249238095Y-108142857D01*
X249190476Y-108047619D01*
X249142857Y-108000000D01*
X249047619Y-107952380D01*
X248857142Y-107952380D01*
X248761904Y-108000000D01*
X248714285Y-108047619D01*
X248666666Y-108142857D01*
X248666666Y-108190476D01*
X248714285Y-108285714D01*
X248761904Y-108333333D01*
X248857142Y-108380952D01*
X249047619Y-108380952D01*
X249142857Y-108428571D01*
X249190476Y-108476190D01*
X249238095Y-108571428D01*
X249238095Y-108761904D01*
X249190476Y-108857142D01*
X249142857Y-108904761D01*
X249047619Y-108952380D01*
X248857142Y-108952380D01*
X248761904Y-108904761D01*
X248714285Y-108857142D01*
X248666666Y-108761904D01*
X248666666Y-108571428D01*
X248714285Y-108476190D01*
X248761904Y-108428571D01*
X248857142Y-108380952D01*
X248047619Y-107952380D02*
X247952380Y-107952380D01*
X247857142Y-108000000D01*
X247809523Y-108047619D01*
X247761904Y-108142857D01*
X247714285Y-108333333D01*
X247714285Y-108571428D01*
X247761904Y-108761904D01*
X247809523Y-108857142D01*
X247857142Y-108904761D01*
X247952380Y-108952380D01*
X248047619Y-108952380D01*
X248142857Y-108904761D01*
X248190476Y-108857142D01*
X248238095Y-108761904D01*
X248285714Y-108571428D01*
X248285714Y-108333333D01*
X248238095Y-108142857D01*
X248190476Y-108047619D01*
X248142857Y-108000000D01*
X248047619Y-107952380D01*
X247380952Y-107952380D02*
X246714285Y-107952380D01*
X247142857Y-108952380D01*
X249619047Y-113357142D02*
X249666666Y-113404761D01*
X249809523Y-113452380D01*
X249904761Y-113452380D01*
X250047619Y-113404761D01*
X250142857Y-113309523D01*
X250190476Y-113214285D01*
X250238095Y-113023809D01*
X250238095Y-112880952D01*
X250190476Y-112690476D01*
X250142857Y-112595238D01*
X250047619Y-112500000D01*
X249904761Y-112452380D01*
X249809523Y-112452380D01*
X249666666Y-112500000D01*
X249619047Y-112547619D01*
X249047619Y-112880952D02*
X249142857Y-112833333D01*
X249190476Y-112785714D01*
X249238095Y-112690476D01*
X249238095Y-112642857D01*
X249190476Y-112547619D01*
X249142857Y-112500000D01*
X249047619Y-112452380D01*
X248857142Y-112452380D01*
X248761904Y-112500000D01*
X248714285Y-112547619D01*
X248666666Y-112642857D01*
X248666666Y-112690476D01*
X248714285Y-112785714D01*
X248761904Y-112833333D01*
X248857142Y-112880952D01*
X249047619Y-112880952D01*
X249142857Y-112928571D01*
X249190476Y-112976190D01*
X249238095Y-113071428D01*
X249238095Y-113261904D01*
X249190476Y-113357142D01*
X249142857Y-113404761D01*
X249047619Y-113452380D01*
X248857142Y-113452380D01*
X248761904Y-113404761D01*
X248714285Y-113357142D01*
X248666666Y-113261904D01*
X248666666Y-113071428D01*
X248714285Y-112976190D01*
X248761904Y-112928571D01*
X248857142Y-112880952D01*
X248047619Y-112452380D02*
X247952380Y-112452380D01*
X247857142Y-112500000D01*
X247809523Y-112547619D01*
X247761904Y-112642857D01*
X247714285Y-112833333D01*
X247714285Y-113071428D01*
X247761904Y-113261904D01*
X247809523Y-113357142D01*
X247857142Y-113404761D01*
X247952380Y-113452380D01*
X248047619Y-113452380D01*
X248142857Y-113404761D01*
X248190476Y-113357142D01*
X248238095Y-113261904D01*
X248285714Y-113071428D01*
X248285714Y-112833333D01*
X248238095Y-112642857D01*
X248190476Y-112547619D01*
X248142857Y-112500000D01*
X248047619Y-112452380D01*
X246857142Y-112452380D02*
X247047619Y-112452380D01*
X247142857Y-112500000D01*
X247190476Y-112547619D01*
X247285714Y-112690476D01*
X247333333Y-112880952D01*
X247333333Y-113261904D01*
X247285714Y-113357142D01*
X247238095Y-113404761D01*
X247142857Y-113452380D01*
X246952380Y-113452380D01*
X246857142Y-113404761D01*
X246809523Y-113357142D01*
X246761904Y-113261904D01*
X246761904Y-113023809D01*
X246809523Y-112928571D01*
X246857142Y-112880952D01*
X246952380Y-112833333D01*
X247142857Y-112833333D01*
X247238095Y-112880952D01*
X247285714Y-112928571D01*
X247333333Y-113023809D01*
X209787142Y-93880952D02*
X209834761Y-93833333D01*
X209882380Y-93690476D01*
X209882380Y-93595238D01*
X209834761Y-93452380D01*
X209739523Y-93357142D01*
X209644285Y-93309523D01*
X209453809Y-93261904D01*
X209310952Y-93261904D01*
X209120476Y-93309523D01*
X209025238Y-93357142D01*
X208930000Y-93452380D01*
X208882380Y-93595238D01*
X208882380Y-93690476D01*
X208930000Y-93833333D01*
X208977619Y-93880952D01*
X208882380Y-94214285D02*
X208882380Y-94880952D01*
X209882380Y-94452380D01*
X209882380Y-95785714D02*
X209882380Y-95214285D01*
X209882380Y-95500000D02*
X208882380Y-95500000D01*
X209025238Y-95404761D01*
X209120476Y-95309523D01*
X209168095Y-95214285D01*
X208882380Y-96404761D02*
X208882380Y-96500000D01*
X208930000Y-96595238D01*
X208977619Y-96642857D01*
X209072857Y-96690476D01*
X209263333Y-96738095D01*
X209501428Y-96738095D01*
X209691904Y-96690476D01*
X209787142Y-96642857D01*
X209834761Y-96595238D01*
X209882380Y-96500000D01*
X209882380Y-96404761D01*
X209834761Y-96309523D01*
X209787142Y-96261904D01*
X209691904Y-96214285D01*
X209501428Y-96166666D01*
X209263333Y-96166666D01*
X209072857Y-96214285D01*
X208977619Y-96261904D01*
X208930000Y-96309523D01*
X208882380Y-96404761D01*
X224369047Y-116607142D02*
X224416666Y-116654761D01*
X224559523Y-116702380D01*
X224654761Y-116702380D01*
X224797619Y-116654761D01*
X224892857Y-116559523D01*
X224940476Y-116464285D01*
X224988095Y-116273809D01*
X224988095Y-116130952D01*
X224940476Y-115940476D01*
X224892857Y-115845238D01*
X224797619Y-115750000D01*
X224654761Y-115702380D01*
X224559523Y-115702380D01*
X224416666Y-115750000D01*
X224369047Y-115797619D01*
X223511904Y-115702380D02*
X223702380Y-115702380D01*
X223797619Y-115750000D01*
X223845238Y-115797619D01*
X223940476Y-115940476D01*
X223988095Y-116130952D01*
X223988095Y-116511904D01*
X223940476Y-116607142D01*
X223892857Y-116654761D01*
X223797619Y-116702380D01*
X223607142Y-116702380D01*
X223511904Y-116654761D01*
X223464285Y-116607142D01*
X223416666Y-116511904D01*
X223416666Y-116273809D01*
X223464285Y-116178571D01*
X223511904Y-116130952D01*
X223607142Y-116083333D01*
X223797619Y-116083333D01*
X223892857Y-116130952D01*
X223940476Y-116178571D01*
X223988095Y-116273809D01*
X222464285Y-116702380D02*
X223035714Y-116702380D01*
X222750000Y-116702380D02*
X222750000Y-115702380D01*
X222845238Y-115845238D01*
X222940476Y-115940476D01*
X223035714Y-115988095D01*
X222083333Y-115797619D02*
X222035714Y-115750000D01*
X221940476Y-115702380D01*
X221702380Y-115702380D01*
X221607142Y-115750000D01*
X221559523Y-115797619D01*
X221511904Y-115892857D01*
X221511904Y-115988095D01*
X221559523Y-116130952D01*
X222130952Y-116702380D01*
X221511904Y-116702380D01*
X224827142Y-109380952D02*
X224874761Y-109333333D01*
X224922380Y-109190476D01*
X224922380Y-109095238D01*
X224874761Y-108952380D01*
X224779523Y-108857142D01*
X224684285Y-108809523D01*
X224493809Y-108761904D01*
X224350952Y-108761904D01*
X224160476Y-108809523D01*
X224065238Y-108857142D01*
X223970000Y-108952380D01*
X223922380Y-109095238D01*
X223922380Y-109190476D01*
X223970000Y-109333333D01*
X224017619Y-109380952D01*
X223922380Y-110238095D02*
X223922380Y-110047619D01*
X223970000Y-109952380D01*
X224017619Y-109904761D01*
X224160476Y-109809523D01*
X224350952Y-109761904D01*
X224731904Y-109761904D01*
X224827142Y-109809523D01*
X224874761Y-109857142D01*
X224922380Y-109952380D01*
X224922380Y-110142857D01*
X224874761Y-110238095D01*
X224827142Y-110285714D01*
X224731904Y-110333333D01*
X224493809Y-110333333D01*
X224398571Y-110285714D01*
X224350952Y-110238095D01*
X224303333Y-110142857D01*
X224303333Y-109952380D01*
X224350952Y-109857142D01*
X224398571Y-109809523D01*
X224493809Y-109761904D01*
X223922380Y-110952380D02*
X223922380Y-111047619D01*
X223970000Y-111142857D01*
X224017619Y-111190476D01*
X224112857Y-111238095D01*
X224303333Y-111285714D01*
X224541428Y-111285714D01*
X224731904Y-111238095D01*
X224827142Y-111190476D01*
X224874761Y-111142857D01*
X224922380Y-111047619D01*
X224922380Y-110952380D01*
X224874761Y-110857142D01*
X224827142Y-110809523D01*
X224731904Y-110761904D01*
X224541428Y-110714285D01*
X224303333Y-110714285D01*
X224112857Y-110761904D01*
X224017619Y-110809523D01*
X223970000Y-110857142D01*
X223922380Y-110952380D01*
X223922380Y-112142857D02*
X223922380Y-111952380D01*
X223970000Y-111857142D01*
X224017619Y-111809523D01*
X224160476Y-111714285D01*
X224350952Y-111666666D01*
X224731904Y-111666666D01*
X224827142Y-111714285D01*
X224874761Y-111761904D01*
X224922380Y-111857142D01*
X224922380Y-112047619D01*
X224874761Y-112142857D01*
X224827142Y-112190476D01*
X224731904Y-112238095D01*
X224493809Y-112238095D01*
X224398571Y-112190476D01*
X224350952Y-112142857D01*
X224303333Y-112047619D01*
X224303333Y-111857142D01*
X224350952Y-111761904D01*
X224398571Y-111714285D01*
X224493809Y-111666666D01*
X231607142Y-109880952D02*
X231654761Y-109833333D01*
X231702380Y-109690476D01*
X231702380Y-109595238D01*
X231654761Y-109452380D01*
X231559523Y-109357142D01*
X231464285Y-109309523D01*
X231273809Y-109261904D01*
X231130952Y-109261904D01*
X230940476Y-109309523D01*
X230845238Y-109357142D01*
X230750000Y-109452380D01*
X230702380Y-109595238D01*
X230702380Y-109690476D01*
X230750000Y-109833333D01*
X230797619Y-109880952D01*
X230702380Y-110738095D02*
X230702380Y-110547619D01*
X230750000Y-110452380D01*
X230797619Y-110404761D01*
X230940476Y-110309523D01*
X231130952Y-110261904D01*
X231511904Y-110261904D01*
X231607142Y-110309523D01*
X231654761Y-110357142D01*
X231702380Y-110452380D01*
X231702380Y-110642857D01*
X231654761Y-110738095D01*
X231607142Y-110785714D01*
X231511904Y-110833333D01*
X231273809Y-110833333D01*
X231178571Y-110785714D01*
X231130952Y-110738095D01*
X231083333Y-110642857D01*
X231083333Y-110452380D01*
X231130952Y-110357142D01*
X231178571Y-110309523D01*
X231273809Y-110261904D01*
X230702380Y-111452380D02*
X230702380Y-111547619D01*
X230750000Y-111642857D01*
X230797619Y-111690476D01*
X230892857Y-111738095D01*
X231083333Y-111785714D01*
X231321428Y-111785714D01*
X231511904Y-111738095D01*
X231607142Y-111690476D01*
X231654761Y-111642857D01*
X231702380Y-111547619D01*
X231702380Y-111452380D01*
X231654761Y-111357142D01*
X231607142Y-111309523D01*
X231511904Y-111261904D01*
X231321428Y-111214285D01*
X231083333Y-111214285D01*
X230892857Y-111261904D01*
X230797619Y-111309523D01*
X230750000Y-111357142D01*
X230702380Y-111452380D01*
X230702380Y-112690476D02*
X230702380Y-112214285D01*
X231178571Y-112166666D01*
X231130952Y-112214285D01*
X231083333Y-112309523D01*
X231083333Y-112547619D01*
X231130952Y-112642857D01*
X231178571Y-112690476D01*
X231273809Y-112738095D01*
X231511904Y-112738095D01*
X231607142Y-112690476D01*
X231654761Y-112642857D01*
X231702380Y-112547619D01*
X231702380Y-112309523D01*
X231654761Y-112214285D01*
X231607142Y-112166666D01*
X222637142Y-105630952D02*
X222684761Y-105583333D01*
X222732380Y-105440476D01*
X222732380Y-105345238D01*
X222684761Y-105202380D01*
X222589523Y-105107142D01*
X222494285Y-105059523D01*
X222303809Y-105011904D01*
X222160952Y-105011904D01*
X221970476Y-105059523D01*
X221875238Y-105107142D01*
X221780000Y-105202380D01*
X221732380Y-105345238D01*
X221732380Y-105440476D01*
X221780000Y-105583333D01*
X221827619Y-105630952D01*
X221732380Y-106488095D02*
X221732380Y-106297619D01*
X221780000Y-106202380D01*
X221827619Y-106154761D01*
X221970476Y-106059523D01*
X222160952Y-106011904D01*
X222541904Y-106011904D01*
X222637142Y-106059523D01*
X222684761Y-106107142D01*
X222732380Y-106202380D01*
X222732380Y-106392857D01*
X222684761Y-106488095D01*
X222637142Y-106535714D01*
X222541904Y-106583333D01*
X222303809Y-106583333D01*
X222208571Y-106535714D01*
X222160952Y-106488095D01*
X222113333Y-106392857D01*
X222113333Y-106202380D01*
X222160952Y-106107142D01*
X222208571Y-106059523D01*
X222303809Y-106011904D01*
X221732380Y-107202380D02*
X221732380Y-107297619D01*
X221780000Y-107392857D01*
X221827619Y-107440476D01*
X221922857Y-107488095D01*
X222113333Y-107535714D01*
X222351428Y-107535714D01*
X222541904Y-107488095D01*
X222637142Y-107440476D01*
X222684761Y-107392857D01*
X222732380Y-107297619D01*
X222732380Y-107202380D01*
X222684761Y-107107142D01*
X222637142Y-107059523D01*
X222541904Y-107011904D01*
X222351428Y-106964285D01*
X222113333Y-106964285D01*
X221922857Y-107011904D01*
X221827619Y-107059523D01*
X221780000Y-107107142D01*
X221732380Y-107202380D01*
X221732380Y-107869047D02*
X221732380Y-108488095D01*
X222113333Y-108154761D01*
X222113333Y-108297619D01*
X222160952Y-108392857D01*
X222208571Y-108440476D01*
X222303809Y-108488095D01*
X222541904Y-108488095D01*
X222637142Y-108440476D01*
X222684761Y-108392857D01*
X222732380Y-108297619D01*
X222732380Y-108011904D01*
X222684761Y-107916666D01*
X222637142Y-107869047D01*
X224369047Y-115107142D02*
X224416666Y-115154761D01*
X224559523Y-115202380D01*
X224654761Y-115202380D01*
X224797619Y-115154761D01*
X224892857Y-115059523D01*
X224940476Y-114964285D01*
X224988095Y-114773809D01*
X224988095Y-114630952D01*
X224940476Y-114440476D01*
X224892857Y-114345238D01*
X224797619Y-114250000D01*
X224654761Y-114202380D01*
X224559523Y-114202380D01*
X224416666Y-114250000D01*
X224369047Y-114297619D01*
X223511904Y-114202380D02*
X223702380Y-114202380D01*
X223797619Y-114250000D01*
X223845238Y-114297619D01*
X223940476Y-114440476D01*
X223988095Y-114630952D01*
X223988095Y-115011904D01*
X223940476Y-115107142D01*
X223892857Y-115154761D01*
X223797619Y-115202380D01*
X223607142Y-115202380D01*
X223511904Y-115154761D01*
X223464285Y-115107142D01*
X223416666Y-115011904D01*
X223416666Y-114773809D01*
X223464285Y-114678571D01*
X223511904Y-114630952D01*
X223607142Y-114583333D01*
X223797619Y-114583333D01*
X223892857Y-114630952D01*
X223940476Y-114678571D01*
X223988095Y-114773809D01*
X222797619Y-114202380D02*
X222702380Y-114202380D01*
X222607142Y-114250000D01*
X222559523Y-114297619D01*
X222511904Y-114392857D01*
X222464285Y-114583333D01*
X222464285Y-114821428D01*
X222511904Y-115011904D01*
X222559523Y-115107142D01*
X222607142Y-115154761D01*
X222702380Y-115202380D01*
X222797619Y-115202380D01*
X222892857Y-115154761D01*
X222940476Y-115107142D01*
X222988095Y-115011904D01*
X223035714Y-114821428D01*
X223035714Y-114583333D01*
X222988095Y-114392857D01*
X222940476Y-114297619D01*
X222892857Y-114250000D01*
X222797619Y-114202380D01*
X221511904Y-115202380D02*
X222083333Y-115202380D01*
X221797619Y-115202380D02*
X221797619Y-114202380D01*
X221892857Y-114345238D01*
X221988095Y-114440476D01*
X222083333Y-114488095D01*
X232827142Y-109130952D02*
X232874761Y-109083333D01*
X232922380Y-108940476D01*
X232922380Y-108845238D01*
X232874761Y-108702380D01*
X232779523Y-108607142D01*
X232684285Y-108559523D01*
X232493809Y-108511904D01*
X232350952Y-108511904D01*
X232160476Y-108559523D01*
X232065238Y-108607142D01*
X231970000Y-108702380D01*
X231922380Y-108845238D01*
X231922380Y-108940476D01*
X231970000Y-109083333D01*
X232017619Y-109130952D01*
X231922380Y-110035714D02*
X231922380Y-109559523D01*
X232398571Y-109511904D01*
X232350952Y-109559523D01*
X232303333Y-109654761D01*
X232303333Y-109892857D01*
X232350952Y-109988095D01*
X232398571Y-110035714D01*
X232493809Y-110083333D01*
X232731904Y-110083333D01*
X232827142Y-110035714D01*
X232874761Y-109988095D01*
X232922380Y-109892857D01*
X232922380Y-109654761D01*
X232874761Y-109559523D01*
X232827142Y-109511904D01*
X232922380Y-111035714D02*
X232922380Y-110464285D01*
X232922380Y-110750000D02*
X231922380Y-110750000D01*
X232065238Y-110654761D01*
X232160476Y-110559523D01*
X232208095Y-110464285D01*
X232017619Y-111416666D02*
X231970000Y-111464285D01*
X231922380Y-111559523D01*
X231922380Y-111797619D01*
X231970000Y-111892857D01*
X232017619Y-111940476D01*
X232112857Y-111988095D01*
X232208095Y-111988095D01*
X232350952Y-111940476D01*
X232922380Y-111369047D01*
X232922380Y-111988095D01*
X207119047Y-66857142D02*
X207166666Y-66904761D01*
X207309523Y-66952380D01*
X207404761Y-66952380D01*
X207547619Y-66904761D01*
X207642857Y-66809523D01*
X207690476Y-66714285D01*
X207738095Y-66523809D01*
X207738095Y-66380952D01*
X207690476Y-66190476D01*
X207642857Y-66095238D01*
X207547619Y-66000000D01*
X207404761Y-65952380D01*
X207309523Y-65952380D01*
X207166666Y-66000000D01*
X207119047Y-66047619D01*
X206214285Y-65952380D02*
X206690476Y-65952380D01*
X206738095Y-66428571D01*
X206690476Y-66380952D01*
X206595238Y-66333333D01*
X206357142Y-66333333D01*
X206261904Y-66380952D01*
X206214285Y-66428571D01*
X206166666Y-66523809D01*
X206166666Y-66761904D01*
X206214285Y-66857142D01*
X206261904Y-66904761D01*
X206357142Y-66952380D01*
X206595238Y-66952380D01*
X206690476Y-66904761D01*
X206738095Y-66857142D01*
X205547619Y-65952380D02*
X205452380Y-65952380D01*
X205357142Y-66000000D01*
X205309523Y-66047619D01*
X205261904Y-66142857D01*
X205214285Y-66333333D01*
X205214285Y-66571428D01*
X205261904Y-66761904D01*
X205309523Y-66857142D01*
X205357142Y-66904761D01*
X205452380Y-66952380D01*
X205547619Y-66952380D01*
X205642857Y-66904761D01*
X205690476Y-66857142D01*
X205738095Y-66761904D01*
X205785714Y-66571428D01*
X205785714Y-66333333D01*
X205738095Y-66142857D01*
X205690476Y-66047619D01*
X205642857Y-66000000D01*
X205547619Y-65952380D01*
X204738095Y-66952380D02*
X204547619Y-66952380D01*
X204452380Y-66904761D01*
X204404761Y-66857142D01*
X204309523Y-66714285D01*
X204261904Y-66523809D01*
X204261904Y-66142857D01*
X204309523Y-66047619D01*
X204357142Y-66000000D01*
X204452380Y-65952380D01*
X204642857Y-65952380D01*
X204738095Y-66000000D01*
X204785714Y-66047619D01*
X204833333Y-66142857D01*
X204833333Y-66380952D01*
X204785714Y-66476190D01*
X204738095Y-66523809D01*
X204642857Y-66571428D01*
X204452380Y-66571428D01*
X204357142Y-66523809D01*
X204309523Y-66476190D01*
X204261904Y-66380952D01*
X211607142Y-72880952D02*
X211654761Y-72833333D01*
X211702380Y-72690476D01*
X211702380Y-72595238D01*
X211654761Y-72452380D01*
X211559523Y-72357142D01*
X211464285Y-72309523D01*
X211273809Y-72261904D01*
X211130952Y-72261904D01*
X210940476Y-72309523D01*
X210845238Y-72357142D01*
X210750000Y-72452380D01*
X210702380Y-72595238D01*
X210702380Y-72690476D01*
X210750000Y-72833333D01*
X210797619Y-72880952D01*
X210702380Y-73785714D02*
X210702380Y-73309523D01*
X211178571Y-73261904D01*
X211130952Y-73309523D01*
X211083333Y-73404761D01*
X211083333Y-73642857D01*
X211130952Y-73738095D01*
X211178571Y-73785714D01*
X211273809Y-73833333D01*
X211511904Y-73833333D01*
X211607142Y-73785714D01*
X211654761Y-73738095D01*
X211702380Y-73642857D01*
X211702380Y-73404761D01*
X211654761Y-73309523D01*
X211607142Y-73261904D01*
X210702380Y-74452380D02*
X210702380Y-74547619D01*
X210750000Y-74642857D01*
X210797619Y-74690476D01*
X210892857Y-74738095D01*
X211083333Y-74785714D01*
X211321428Y-74785714D01*
X211511904Y-74738095D01*
X211607142Y-74690476D01*
X211654761Y-74642857D01*
X211702380Y-74547619D01*
X211702380Y-74452380D01*
X211654761Y-74357142D01*
X211607142Y-74309523D01*
X211511904Y-74261904D01*
X211321428Y-74214285D01*
X211083333Y-74214285D01*
X210892857Y-74261904D01*
X210797619Y-74309523D01*
X210750000Y-74357142D01*
X210702380Y-74452380D01*
X210702380Y-75690476D02*
X210702380Y-75214285D01*
X211178571Y-75166666D01*
X211130952Y-75214285D01*
X211083333Y-75309523D01*
X211083333Y-75547619D01*
X211130952Y-75642857D01*
X211178571Y-75690476D01*
X211273809Y-75738095D01*
X211511904Y-75738095D01*
X211607142Y-75690476D01*
X211654761Y-75642857D01*
X211702380Y-75547619D01*
X211702380Y-75309523D01*
X211654761Y-75214285D01*
X211607142Y-75166666D01*
M02*
