M48
; DRILL file {KiCad (5.1.4)-1} date 20.11.2019 08:15:09
; FORMAT={-:-/ absolute / inch / decimal}
; #@! TF.CreationDate,2019-11-20T08:15:09+01:00
; #@! TF.GenerationSoftware,Kicad,Pcbnew,(5.1.4)-1
FMAT,2
INCH
T1C0.0079
T2C0.0157
T3C0.0197
T4C0.0256
T5C0.0295
T6C0.1260
T7C0.0394
%
G90
G05
T1
X7.1555Y-2.687
X7.1555Y-3.3858
X7.1949Y-2.7559
X7.2047Y-2.7264
X7.2362Y-3.4154
X7.3622Y-2.6752
X7.5591Y-4.4094
X7.6772Y-4.0748
X7.6772Y-4.1083
X7.7165Y-3.1201
X8.061Y-3.6713
X8.1299Y-3.6516
X8.1398Y-3.7795
X8.2185Y-3.5236
X8.2382Y-3.6516
X8.2776Y-3.6713
X8.4646Y-3.9272
X8.5925Y-4.4882
X8.6614Y-4.0157
X8.7008Y-4.3701
X8.7106Y-4.5571
X8.7205Y-4.4882
X8.7219Y-4.3595
X8.7697Y-4.9705
X8.7894Y-3.9862
X8.7894Y-4.9902
X8.8484Y-3.9862
X8.9075Y-4.252
X8.9075Y-4.3602
X8.9272Y-4.1831
X8.9272Y-4.2421
X8.937Y-3.5728
X9.0354Y-3.5925
X9.0354Y-3.7106
X9.0846Y-3.4843
X9.0846Y-4.3406
X9.0935Y-4.5197
X9.1142Y-3.6319
X9.1142Y-4.1634
X9.1339Y-3.5925
X9.1339Y-5.1476
X9.1437Y-5.1969
X9.1535Y-3.4449
X9.252Y-4.3307
X9.2618Y-4.1535
X9.2618Y-4.2126
X9.2618Y-4.5669
X9.311Y-4.3406
X9.5669Y-4.3602
X9.626Y-3.5335
X9.6457Y-4.4291
X9.685Y-4.2815
X9.689Y-4.448
X9.7047Y-4.9606
X9.7146Y-4.2421
X9.7244Y-3.4547
X9.7441Y-3.6713
X9.7835Y-4.9606
X9.813Y-4.9606
X9.8327Y-3.6713
X9.8425Y-4.3602
X9.8425Y-4.9606
X9.8524Y-4.2126
X9.8622Y-3.4035
X9.872Y-4.9606
X9.9114Y-3.7795
X9.9508Y-3.5531
X9.9902Y-3.7008
X10.0394Y-3.6693
X10.0591Y-4.2126
T2
X7.1752Y-4.4094
X7.1752Y-4.7638
X7.1752Y-4.9311
X7.3031Y-3.435
X7.5098Y-4.4094
X7.5295Y-4.7638
X7.5886Y-2.8248
X7.6575Y-3.7008
X7.7264Y-4.4685
X7.9429Y-2.6181
X7.9724Y-2.9035
X8.0807Y-3.002
X8.2085Y-2.8936
X8.2087Y-2.9331
X8.2185Y-2.8051
X8.2185Y-2.8445
X8.2292Y-2.7025
X8.2579Y-2.8445
X8.3071Y-2.8789
X8.3366Y-2.8445
X8.3563Y-4.5472
X8.3563Y-4.626
X8.4055Y-3.2776
X8.4646Y-5.0787
X8.4843Y-4.124
X8.5504Y-5.2263
X8.5531Y-5.187
X8.5712Y-4.0988
X8.5827Y-4.2717
X8.8484Y-4.5768
X8.878Y-4.7933
X8.9075Y-3.1496
X8.9075Y-4.0354
X8.9272Y-3.2087
X8.9469Y-4.7933
X8.9665Y-4.6161
X8.9764Y-4.0354
X8.9862Y-4.1535
X8.9961Y-5.1772
X9.0059Y-5.2362
X9.0059Y-5.315
X9.0256Y-2.7953
X9.0256Y-4.7343
X9.0945Y-2.7953
X9.124Y-5.0
X9.2307Y-4.7502
X9.2323Y-5.3445
X9.2618Y-2.4862
X9.2618Y-2.8012
X9.3307Y-2.6535
X9.3996Y-5.3445
X9.4587Y-2.9035
X9.5669Y-2.811
X9.5669Y-2.911
X9.6654Y-4.8976
X9.6669Y-2.811
X9.6669Y-2.911
X9.7402Y-4.8661
X9.7669Y-2.811
X9.7669Y-2.911
X9.7835Y-2.6846
X9.8669Y-2.811
X9.8669Y-2.911
X9.8835Y-2.5846
X9.8835Y-2.6846
X9.9669Y-2.811
X9.9669Y-2.911
X9.9835Y-2.5846
X9.9835Y-2.6846
T3
X8.685Y-2.4705
X8.7127Y-2.4037
X8.7127Y-2.5373
X8.7795Y-2.376
X8.7795Y-2.565
X8.8463Y-2.4037
X8.8463Y-2.5373
X8.874Y-2.4705
T4
X8.5039Y-4.8614
X8.5039Y-4.9114
X8.5539Y-4.8614
X8.5539Y-4.9114
X8.6039Y-4.8614
X8.6039Y-4.9114
X8.6539Y-4.8614
X8.6539Y-4.9114
X8.7039Y-4.8614
X8.7039Y-4.9114
T5
X7.4409Y-3.7008
X7.4409Y-3.7795
X7.4409Y-3.9764
X7.4409Y-4.0551
X7.4409Y-4.1339
X7.4409Y-4.2126
X10.0591Y-4.685
X10.0591Y-4.7638
X10.0591Y-4.8425
X10.0591Y-4.9213
X10.0591Y-5.0
X7.8839Y-2.8051
X7.8839Y-2.8839
X7.8839Y-2.9626
X8.1791Y-4.6555
X8.1791Y-4.7343
X8.1791Y-4.813
X8.1791Y-4.8917
X10.0591Y-4.3996
X10.0591Y-4.4783
X8.1791Y-5.0886
X8.1791Y-5.1673
X8.1791Y-5.2461
X8.1791Y-5.3248
T6
X9.6555Y-5.2953
X8.7795Y-2.4705
X7.6083Y-5.2953
T7
X7.3524Y-4.5
X7.3524Y-4.6732
T0
M30
