G04 #@! TF.GenerationSoftware,KiCad,Pcbnew,(5.1.4)-1*
G04 #@! TF.CreationDate,2019-11-20T08:15:06+01:00*
G04 #@! TF.ProjectId,hardware_4850,68617264-7761-4726-955f-343835302e6b,rev?*
G04 #@! TF.SameCoordinates,Original*
G04 #@! TF.FileFunction,Profile,NP*
%FSLAX46Y46*%
G04 Gerber Fmt 4.6, Leading zero omitted, Abs format (unit mm)*
G04 Created by KiCad (PCBNEW (5.1.4)-1) date 2019-11-20 08:15:06*
%MOMM*%
%LPD*%
G04 APERTURE LIST*
%ADD10C,0.050000*%
G04 APERTURE END LIST*
D10*
X188250000Y-60000000D02*
X188250000Y-66000000D01*
X188250000Y-66000000D02*
G75*
G02X187250000Y-67000000I-1000000J0D01*
G01*
X187250000Y-67000000D02*
X181250000Y-67000000D01*
X188250000Y-60000000D02*
G75*
G02X189250000Y-59000000I1000000J0D01*
G01*
X180250000Y-68000000D02*
G75*
G02X181250000Y-67000000I1000000J0D01*
G01*
X188250000Y-131000000D02*
X188250000Y-137000000D01*
X181250000Y-130000000D02*
X187250000Y-130000000D01*
X187250000Y-130000000D02*
G75*
G02X188250000Y-131000000I0J-1000000D01*
G01*
X189250000Y-138000000D02*
G75*
G02X188250000Y-137000000I0J1000000D01*
G01*
X181250000Y-130000000D02*
G75*
G02X180250000Y-129000000I0J1000000D01*
G01*
X264250000Y-129000000D02*
G75*
G02X263250000Y-130000000I-1000000J0D01*
G01*
X257250000Y-130000000D02*
X263250000Y-130000000D01*
X256250000Y-137000000D02*
G75*
G02X255250000Y-138000000I-1000000J0D01*
G01*
X256250000Y-131000000D02*
G75*
G02X257250000Y-130000000I1000000J0D01*
G01*
X256250000Y-137000000D02*
X256250000Y-131000000D01*
X256250000Y-66000000D02*
X256250000Y-60000000D01*
X263250000Y-67000000D02*
X257250000Y-67000000D01*
X255250000Y-59000000D02*
G75*
G02X256250000Y-60000000I0J-1000000D01*
G01*
X257250000Y-67000000D02*
G75*
G02X256250000Y-66000000I0J1000000D01*
G01*
X263250000Y-67000000D02*
G75*
G02X264250000Y-68000000I0J-1000000D01*
G01*
X180250000Y-129000000D02*
X180250000Y-68000000D01*
X264250000Y-108000000D02*
X264250000Y-68000000D01*
X189250000Y-59000000D02*
X255250000Y-59000000D01*
X264250000Y-129000000D02*
X264250000Y-108000000D01*
X255250000Y-138000000D02*
X189250000Y-138000000D01*
M02*
