M48
INCH,TZ
T10C0.008
T11C0.016
T12C0.020
T13C0.026
T14C0.029
T15C0.126
T16C0.158
T17C0.039
%
T10
T11
X022736Y-50098
X022736Y-50453
X022736Y-50807
X022736Y-51161
X022736Y-51516
X022736Y-51870
X022736Y-52224
X022736Y-53839
X022736Y-54193
X022736Y-54547
X022736Y-54902
X022736Y-55256
X022736Y-55610
X022736Y-55965
X023091Y-50098
X023091Y-50453
X023091Y-50807
X023091Y-51161
X023091Y-51516
X023091Y-51870
X023091Y-52224
X023091Y-53839
X023091Y-54193
X023091Y-54547
X023091Y-54902
X023091Y-55256
X023091Y-55610
X023091Y-55965
X023425Y-47441
X023445Y-50098
X023445Y-50453
X023445Y-50807
X023445Y-51161
X023445Y-51516
X023445Y-51870
X023445Y-52224
X023445Y-53839
X023445Y-54193
X023445Y-54547
X023445Y-54902
X023445Y-55256
X023445Y-55610
X023445Y-55965
X023799Y-50098
X023799Y-50453
X023799Y-50807
X023799Y-51161
X023799Y-51516
X023799Y-51870
X023799Y-52224
X023799Y-53839
X023799Y-54193
X023799Y-54547
X023799Y-54902
X023799Y-55256
X023799Y-55610
X023799Y-55965
X023917Y-48524
X024154Y-50098
X024154Y-50453
X024154Y-50807
X024154Y-51161
X024154Y-51516
X024154Y-51870
X024154Y-52224
X024154Y-53839
X024154Y-54193
X024154Y-54547
X024154Y-54902
X024154Y-55256
X024154Y-55610
X024154Y-55965
X024409Y-47441
X024508Y-50098
X024508Y-50453
X024508Y-50807
X024508Y-51161
X024508Y-51516
X024508Y-51870
X024508Y-52224
X024508Y-53839
X024508Y-54193
X024508Y-54547
X024508Y-54902
X024508Y-55256
X024508Y-55610
X024508Y-55965
X024862Y-50098
X024862Y-50453
X024862Y-50807
X024862Y-51161
X024862Y-51516
X024862Y-51870
X024862Y-52224
X024862Y-53839
X024862Y-54193
X024862Y-54547
X024862Y-54902
X024862Y-55256
X024862Y-55610
X024862Y-55965
X024902Y-48524
X025000Y-61319
X025000Y-66437
X025197Y-62795
X025217Y-50098
X025217Y-50453
X025217Y-50807
X025217Y-51161
X025217Y-51516
X025217Y-51870
X025217Y-52224
X025217Y-53839
X025217Y-54193
X025217Y-54547
X025217Y-54902
X025217Y-55256
X025217Y-55610
X025217Y-55965
X025364Y-57549
X025571Y-50098
X025571Y-50453
X025571Y-50807
X025571Y-51161
X025571Y-51516
X025571Y-51870
X025571Y-52224
X025571Y-53839
X025571Y-54193
X025571Y-54547
X025571Y-54902
X025571Y-55256
X025571Y-55610
X025571Y-55965
X025787Y-44980
X025817Y-60561
X025925Y-50098
X025925Y-50453
X025925Y-50807
X025925Y-51161
X025925Y-51516
X025925Y-51870
X025925Y-52224
X025925Y-53839
X025925Y-54193
X025925Y-54547
X025925Y-54902
X025925Y-55256
X025925Y-55610
X025925Y-55965
X026280Y-50098
X026280Y-50453
X026280Y-50807
X026280Y-51161
X026280Y-51516
X026280Y-51870
X026280Y-52224
X026280Y-53839
X026280Y-54193
X026280Y-54547
X026280Y-54902
X026280Y-55256
X026280Y-55610
X026280Y-55965
X026280Y-60630
X026634Y-50098
X026634Y-50453
X026634Y-50807
X026634Y-51161
X026634Y-51516
X026634Y-51870
X026634Y-52224
X026634Y-53839
X026634Y-54193
X026634Y-54547
X026634Y-54902
X026634Y-55256
X026634Y-55610
X026634Y-55965
X026969Y-61319
X026969Y-66437
X026988Y-50098
X026988Y-50453
X026988Y-50807
X026988Y-51161
X026988Y-51516
X026988Y-51870
X026988Y-52224
X026988Y-53839
X026988Y-54193
X026988Y-54547
X026988Y-54902
X026988Y-55256
X026988Y-55610
X026988Y-55965
X027756Y-44980
X027953Y-46555
X028069Y-48984
X028543Y-49016
X028642Y-45177
X029035Y-44685
X029035Y-65256
X029370Y-65594
X030102Y-44114
X030102Y-44469
X030102Y-44823
X030102Y-45177
X030102Y-45531
X030102Y-45886
X030102Y-46240
X030102Y-46594
X030102Y-46949
X030102Y-47303
X030110Y-40854
X030110Y-41209
X030110Y-41563
X030110Y-41917
X030110Y-42272
X030110Y-49319
X030110Y-49673
X030110Y-50028
X030110Y-50382
X030110Y-50736
X030110Y-51091
X030110Y-51445
X030110Y-51799
X030110Y-52154
X030110Y-52508
X030110Y-54437
X030110Y-54791
X030110Y-55146
X030110Y-55500
X030110Y-55854
X030110Y-56209
X030110Y-56563
X030110Y-56917
X030110Y-57272
X030110Y-57626
X030110Y-59654
X030110Y-60008
X030110Y-60362
X030110Y-60717
X030110Y-61071
X030110Y-61425
X030110Y-61780
X030110Y-62134
X030110Y-62488
X030110Y-62843
X030110Y-64870
X030110Y-65224
X030110Y-65579
X030110Y-65933
X030110Y-66287
X030110Y-66642
X030110Y-66996
X030110Y-67350
X030110Y-67705
X030110Y-68059
X030110Y-69890
X030110Y-70244
X030110Y-70598
X030110Y-70953
X030110Y-71307
X030457Y-44114
X030457Y-44469
X030457Y-44823
X030457Y-45177
X030457Y-45531
X030457Y-45886
X030457Y-46240
X030457Y-46594
X030457Y-46949
X030457Y-47303
X030465Y-40854
X030465Y-41209
X030465Y-41563
X030465Y-41917
X030465Y-42272
X030465Y-49319
X030465Y-49673
X030465Y-50028
X030465Y-50382
X030465Y-50736
X030465Y-51091
X030465Y-51445
X030465Y-51799
X030465Y-52154
X030465Y-52508
X030465Y-54437
X030465Y-54791
X030465Y-55146
X030465Y-55500
X030465Y-55854
X030465Y-56209
X030465Y-56563
X030465Y-56917
X030465Y-57272
X030465Y-57626
X030465Y-59654
X030465Y-60008
X030465Y-60362
X030465Y-60717
X030465Y-61071
X030465Y-61425
X030465Y-61780
X030465Y-62134
X030465Y-62488
X030465Y-62843
X030465Y-64870
X030465Y-65224
X030465Y-65579
X030465Y-65933
X030465Y-66287
X030465Y-66642
X030465Y-66996
X030465Y-67350
X030465Y-67705
X030465Y-68059
X030465Y-69890
X030465Y-70244
X030465Y-70598
X030465Y-70953
X030465Y-71307
X030811Y-44114
X030811Y-44469
X030811Y-44823
X030811Y-45177
X030811Y-45531
X030811Y-45886
X030811Y-46240
X030811Y-46594
X030811Y-46949
X030811Y-47303
X030819Y-40854
X030819Y-41209
X030819Y-41563
X030819Y-41917
X030819Y-42272
X030819Y-49319
X030819Y-49673
X030819Y-50028
X030819Y-50382
X030819Y-50736
X030819Y-51091
X030819Y-51445
X030819Y-51799
X030819Y-52154
X030819Y-52508
X030819Y-54437
X030819Y-54791
X030819Y-55146
X030819Y-55500
X030819Y-55854
X030819Y-56209
X030819Y-56563
X030819Y-56917
X030819Y-57272
X030819Y-57626
X030819Y-59654
X030819Y-60008
X030819Y-60362
X030819Y-60717
X030819Y-61071
X030819Y-61425
X030819Y-61780
X030819Y-62134
X030819Y-62488
X030819Y-62843
X030819Y-64870
X030819Y-65224
X030819Y-65579
X030819Y-65933
X030819Y-66287
X030819Y-66642
X030819Y-66996
X030819Y-67350
X030819Y-67705
X030819Y-68059
X030819Y-69890
X030819Y-70244
X030819Y-70598
X030819Y-70953
X030819Y-71307
X032228Y-44114
X032228Y-44469
X032228Y-44823
X032228Y-45177
X032228Y-45531
X032228Y-45886
X032228Y-46240
X032228Y-46594
X032228Y-46949
X032228Y-47303
X032236Y-40854
X032236Y-41209
X032236Y-41563
X032236Y-41917
X032236Y-42272
X032236Y-49319
X032236Y-49673
X032236Y-50028
X032236Y-50382
X032236Y-50736
X032236Y-51091
X032236Y-51445
X032236Y-51799
X032236Y-52154
X032236Y-52508
X032236Y-54437
X032236Y-54791
X032236Y-55146
X032236Y-55500
X032236Y-55854
X032236Y-56209
X032236Y-56563
X032236Y-56917
X032236Y-57272
X032236Y-57626
X032236Y-59654
X032236Y-60008
X032236Y-60362
X032236Y-60717
X032236Y-61071
X032236Y-61425
X032236Y-61780
X032236Y-62134
X032236Y-62488
X032236Y-62843
X032236Y-64870
X032236Y-65224
X032236Y-65579
X032236Y-65933
X032236Y-66287
X032236Y-66642
X032236Y-66996
X032236Y-67350
X032236Y-67705
X032236Y-68059
X032236Y-69890
X032236Y-70244
X032236Y-70598
X032236Y-70953
X032236Y-71307
X032579Y-58366
X032579Y-58760
X032583Y-44114
X032583Y-44469
X032583Y-44823
X032583Y-45177
X032583Y-45531
X032583Y-45886
X032583Y-46240
X032583Y-46594
X032583Y-46949
X032583Y-47303
X032591Y-40854
X032591Y-41209
X032591Y-41563
X032591Y-41917
X032591Y-42272
X032591Y-49319
X032591Y-49673
X032591Y-50028
X032591Y-50382
X032591Y-50736
X032591Y-51091
X032591Y-51445
X032591Y-51799
X032591Y-52154
X032591Y-52508
X032591Y-54437
X032591Y-54791
X032591Y-55146
X032591Y-55500
X032591Y-55854
X032591Y-56209
X032591Y-56563
X032591Y-56917
X032591Y-57272
X032591Y-57626
X032591Y-59654
X032591Y-60008
X032591Y-60362
X032591Y-60717
X032591Y-61071
X032591Y-61425
X032591Y-61780
X032591Y-62134
X032591Y-62488
X032591Y-62843
X032591Y-64870
X032591Y-65224
X032591Y-65579
X032591Y-65933
X032591Y-66287
X032591Y-66642
X032591Y-66996
X032591Y-67350
X032591Y-67705
X032591Y-68059
X032591Y-69890
X032591Y-70244
X032591Y-70598
X032591Y-70953
X032591Y-71307
X032937Y-44114
X032937Y-44469
X032937Y-44823
X032937Y-45177
X032937Y-45531
X032937Y-45886
X032937Y-46240
X032937Y-46594
X032937Y-46949
X032937Y-47303
X032945Y-40854
X032945Y-41209
X032945Y-41563
X032945Y-41917
X032945Y-42272
X032945Y-49319
X032945Y-49673
X032945Y-50028
X032945Y-50382
X032945Y-50736
X032945Y-51091
X032945Y-51445
X032945Y-51799
X032945Y-52154
X032945Y-52508
X032945Y-54437
X032945Y-54791
X032945Y-55146
X032945Y-55500
X032945Y-55854
X032945Y-56209
X032945Y-56563
X032945Y-56917
X032945Y-57272
X032945Y-57626
X032945Y-59654
X032945Y-60008
X032945Y-60362
X032945Y-60717
X032945Y-61071
X032945Y-61425
X032945Y-61780
X032945Y-62134
X032945Y-62488
X032945Y-62843
X032945Y-64870
X032945Y-65224
X032945Y-65579
X032945Y-65933
X032945Y-66287
X032945Y-66642
X032945Y-66996
X032945Y-67350
X032945Y-67705
X032945Y-68059
X032945Y-69890
X032945Y-70244
X032945Y-70598
X032945Y-70953
X032945Y-71307
X033673Y-47705
X033760Y-47047
X033858Y-43307
X034055Y-66732
X034055Y-67323
X034296Y-62910
X034312Y-61614
X034350Y-43504
X035236Y-61516
X035236Y-61870
X035236Y-62224
X035236Y-62579
X035433Y-40846
X035433Y-41201
X035433Y-41555
X035433Y-41909
X035433Y-42264
X035433Y-42618
X035591Y-61516
X035591Y-61870
X035591Y-62224
X035591Y-62579
X035787Y-40846
X035787Y-41201
X035787Y-41555
X035787Y-41909
X035787Y-42264
X035787Y-42618
X035945Y-61516
X035945Y-61870
X035945Y-62224
X035945Y-62579
X036142Y-40846
X036142Y-41201
X036142Y-41555
X036142Y-41909
X036142Y-42264
X036142Y-42618
X036299Y-61516
X036299Y-61870
X036299Y-62224
X036299Y-62579
X036496Y-40846
X036496Y-41201
X036496Y-41555
X036496Y-41909
X036496Y-42264
X036496Y-42618
X036654Y-61870
X036654Y-62224
X036654Y-62579
X036850Y-40846
X036850Y-41201
X036850Y-41555
X036850Y-41909
X036850Y-42264
X036850Y-42618
X037303Y-60827
X037992Y-62697
X038091Y-56693
X038091Y-57185
X038780Y-51772
X038780Y-52362
X040748Y-46850
X040748Y-47441
X040945Y-66831
X040945Y-67224
X041240Y-42913
X041407Y-62744
X041437Y-41634
X041437Y-61516
X042224Y-61516
X042224Y-61870
X042323Y-40846
X042323Y-41201
X042323Y-41555
X042323Y-41909
X042323Y-42264
X042323Y-42618
X042579Y-61516
X042579Y-61870
X042579Y-62224
X042579Y-62579
X042677Y-40846
X042677Y-41201
X042677Y-41555
X042677Y-41909
X042677Y-42264
X042677Y-42618
X042933Y-61516
X042933Y-61870
X042933Y-62224
X042933Y-62579
X043031Y-40846
X043031Y-41201
X043031Y-41555
X043031Y-41909
X043031Y-42264
X043031Y-42618
X043287Y-61516
X043287Y-61870
X043287Y-62224
X043287Y-62579
X043386Y-40846
X043386Y-41201
X043386Y-41555
X043386Y-41909
X043386Y-42264
X043386Y-42618
X043642Y-62224
X043642Y-62579
X043740Y-40846
X043740Y-41201
X043740Y-41555
X043740Y-41909
X043740Y-42264
X043740Y-42618
X044980Y-56693
X044980Y-57283
X044980Y-62402
X045082Y-61808
X045571Y-43898
X045571Y-44252
X045571Y-44606
X045571Y-44961
X045571Y-45315
X045571Y-45669
X045571Y-46024
X045571Y-46378
X045571Y-46732
X045571Y-47087
X045571Y-47441
X045571Y-47795
X045571Y-48150
X045571Y-55906
X045571Y-56260
X045571Y-56614
X045571Y-56969
X045571Y-57323
X045571Y-57677
X045571Y-58031
X045571Y-58386
X045571Y-58740
X045571Y-59094
X045571Y-59449
X045571Y-59803
X045571Y-60157
X045669Y-63878
X045669Y-64232
X045669Y-64587
X045669Y-64941
X045669Y-65295
X045669Y-65650
X045669Y-66004
X045669Y-66358
X045669Y-66713
X045669Y-67067
X045669Y-67421
X045669Y-67776
X045669Y-68130
X045768Y-62106
X045866Y-63091
X045925Y-43898
X045925Y-44252
X045925Y-44606
X045925Y-44961
X045925Y-45315
X045925Y-45669
X045925Y-46024
X045925Y-46378
X045925Y-46732
X045925Y-47087
X045925Y-47441
X045925Y-47795
X045925Y-48150
X045925Y-55906
X045925Y-56260
X045925Y-56614
X045925Y-56969
X045925Y-57323
X045925Y-57677
X045925Y-58031
X045925Y-58386
X045925Y-58740
X045925Y-59094
X045925Y-59449
X045925Y-59803
X045925Y-60157
X045965Y-42224
X045965Y-43209
X045965Y-54528
X045965Y-55217
X046024Y-63878
X046024Y-64232
X046024Y-64587
X046024Y-64941
X046024Y-65295
X046024Y-65650
X046024Y-66004
X046024Y-66358
X046024Y-66713
X046024Y-67067
X046024Y-67421
X046024Y-67776
X046024Y-68130
X046260Y-53642
X046280Y-43898
X046280Y-44252
X046280Y-44606
X046280Y-44961
X046280Y-45315
X046280Y-45669
X046280Y-46024
X046280Y-46378
X046280Y-46732
X046280Y-47087
X046280Y-47441
X046280Y-47795
X046280Y-48150
X046280Y-55906
X046280Y-56260
X046280Y-56614
X046280Y-56969
X046280Y-57323
X046280Y-57677
X046280Y-58031
X046280Y-58386
X046280Y-58740
X046280Y-59094
X046280Y-59449
X046280Y-59803
X046280Y-60157
X046378Y-63878
X046378Y-64232
X046378Y-64587
X046378Y-64941
X046378Y-65295
X046378Y-65650
X046378Y-66004
X046378Y-66358
X046378Y-66713
X046378Y-67067
X046378Y-67421
X046378Y-67776
X046378Y-68130
X046634Y-43898
X046634Y-44252
X046634Y-44606
X046634Y-44961
X046634Y-45315
X046634Y-45669
X046634Y-46024
X046634Y-46378
X046634Y-46732
X046634Y-47087
X046634Y-47441
X046634Y-47795
X046634Y-48150
X046634Y-55906
X046634Y-56260
X046634Y-56614
X046634Y-56969
X046634Y-57323
X046634Y-57677
X046634Y-58031
X046634Y-58386
X046634Y-58740
X046634Y-59094
X046634Y-59449
X046634Y-59803
X046634Y-60157
X046732Y-63878
X046732Y-64232
X046732Y-64587
X046732Y-64941
X046732Y-65295
X046732Y-65650
X046732Y-66004
X046732Y-66358
X046732Y-66713
X046732Y-67067
X046732Y-67421
X046732Y-67776
X046732Y-68130
X047441Y-53051
X047638Y-43406
X047736Y-55413
X047835Y-63091
X048524Y-48524
X048917Y-48819
X049213Y-51181
X049705Y-52165
X050098Y-43996
X050098Y-44350
X050098Y-44705
X050098Y-45059
X050098Y-45413
X050098Y-45768
X050098Y-46122
X050098Y-46476
X050098Y-46831
X050098Y-47185
X050098Y-47539
X050098Y-47894
X050098Y-48248
X050098Y-55906
X050098Y-56260
X050098Y-56614
X050098Y-56969
X050098Y-57323
X050098Y-57677
X050098Y-58031
X050098Y-58386
X050098Y-58740
X050098Y-59094
X050098Y-59449
X050098Y-59803
X050098Y-60157
X050197Y-63878
X050197Y-64232
X050197Y-64587
X050197Y-64941
X050197Y-65295
X050197Y-65650
X050197Y-66004
X050197Y-66358
X050197Y-66713
X050197Y-67067
X050197Y-67421
X050197Y-67776
X050197Y-68130
X050453Y-43996
X050453Y-44350
X050453Y-44705
X050453Y-45059
X050453Y-45413
X050453Y-45768
X050453Y-46122
X050453Y-46476
X050453Y-46831
X050453Y-47185
X050453Y-47539
X050453Y-47894
X050453Y-48248
X050453Y-55906
X050453Y-56260
X050453Y-56614
X050453Y-56969
X050453Y-57323
X050453Y-57677
X050453Y-58031
X050453Y-58386
X050453Y-58740
X050453Y-59094
X050453Y-59449
X050453Y-59803
X050453Y-60157
X050551Y-63878
X050551Y-64232
X050551Y-64587
X050551Y-64941
X050551Y-65295
X050551Y-65650
X050551Y-66004
X050551Y-66358
X050551Y-66713
X050551Y-67067
X050551Y-67421
X050551Y-67776
X050551Y-68130
X050807Y-43996
X050807Y-44350
X050807Y-44705
X050807Y-45059
X050807Y-45413
X050807Y-45768
X050807Y-46122
X050807Y-46476
X050807Y-46831
X050807Y-47185
X050807Y-47539
X050807Y-47894
X050807Y-48248
X050807Y-55906
X050807Y-56260
X050807Y-56614
X050807Y-56969
X050807Y-57323
X050807Y-57677
X050807Y-58031
X050807Y-58386
X050807Y-58740
X050807Y-59094
X050807Y-59449
X050807Y-59803
X050807Y-60157
X050906Y-63878
X050906Y-64232
X050906Y-64587
X050906Y-64941
X050906Y-65295
X050906Y-65650
X050906Y-66004
X050906Y-66358
X050906Y-66713
X050906Y-67067
X050906Y-67421
X050906Y-67776
X050906Y-68130
X051161Y-43996
X051161Y-44350
X051161Y-44705
X051161Y-45059
X051161Y-45413
X051161Y-45768
X051161Y-46122
X051161Y-46476
X051161Y-46831
X051161Y-47185
X051161Y-47539
X051161Y-47894
X051161Y-48248
X051161Y-55906
X051161Y-56260
X051161Y-56614
X051161Y-56969
X051161Y-57323
X051161Y-57677
X051161Y-58031
X051161Y-58386
X051161Y-58740
X051161Y-59094
X051161Y-59449
X051161Y-59803
X051161Y-60157
X051181Y-51280
X051260Y-63878
X051260Y-64232
X051260Y-64587
X051260Y-64941
X051260Y-65295
X051260Y-65650
X051260Y-66004
X051260Y-66358
X051260Y-66713
X051260Y-67067
X051260Y-67421
X051260Y-67776
X051260Y-68130
X051516Y-43996
X051516Y-44350
X051516Y-44705
X051516Y-45059
X051516Y-45413
X051516Y-45768
X051516Y-46122
X051516Y-46476
X051516Y-46831
X051516Y-47185
X051516Y-47539
X051516Y-47894
X051516Y-48248
X051516Y-55906
X051516Y-56260
X051516Y-56614
X051516Y-56969
X051516Y-57323
X051516Y-57677
X051516Y-58031
X051516Y-58386
X051516Y-58740
X051516Y-59094
X051516Y-59449
X051516Y-59803
X051516Y-60157
X051614Y-63878
X051614Y-64232
X051614Y-64587
X051614Y-64941
X051614Y-65295
X051614Y-65650
X051614Y-66004
X051614Y-66358
X051614Y-66713
X051614Y-67067
X051614Y-67421
X051614Y-67776
X051614Y-68130
X051870Y-43996
X051870Y-44350
X051870Y-44705
X051870Y-45059
X051870Y-45413
X051870Y-45768
X051870Y-46122
X051870Y-46476
X051870Y-46831
X051870Y-47185
X051870Y-47539
X051870Y-47894
X051870Y-48248
X051870Y-55906
X051870Y-56260
X051870Y-56614
X051870Y-56969
X051870Y-57323
X051870Y-57677
X051870Y-58031
X051870Y-58386
X051870Y-58740
X051870Y-59094
X051870Y-59449
X051870Y-59803
X051870Y-60157
X051969Y-63878
X051969Y-64232
X051969Y-64587
X051969Y-64941
X051969Y-65295
X051969Y-65650
X051969Y-66004
X051969Y-66358
X051969Y-66713
X051969Y-67067
X051969Y-67421
X051969Y-67776
X051969Y-68130
X052224Y-43996
X052224Y-44350
X052224Y-44705
X052224Y-45059
X052224Y-45413
X052224Y-45768
X052224Y-46122
X052224Y-46476
X052224Y-46831
X052224Y-47185
X052224Y-47539
X052224Y-47894
X052224Y-48248
X052224Y-55906
X052224Y-56260
X052224Y-56614
X052224Y-56969
X052224Y-57323
X052224Y-57677
X052224Y-58031
X052224Y-58386
X052224Y-58740
X052224Y-59094
X052224Y-59449
X052224Y-59803
X052224Y-60157
X052323Y-63878
X052323Y-64232
X052323Y-64587
X052323Y-64941
X052323Y-65295
X052323Y-65650
X052323Y-66004
X052323Y-66358
X052323Y-66713
X052323Y-67067
X052323Y-67421
X052323Y-67776
X052323Y-68130
X052579Y-43996
X052579Y-44350
X052579Y-44705
X052579Y-45059
X052579Y-45413
X052579Y-45768
X052579Y-46122
X052579Y-46476
X052579Y-46831
X052579Y-47185
X052579Y-47539
X052579Y-47894
X052579Y-48248
X052579Y-55906
X052579Y-56260
X052579Y-56614
X052579Y-56969
X052579Y-57323
X052579Y-57677
X052579Y-58031
X052579Y-58386
X052579Y-58740
X052579Y-59094
X052579Y-59449
X052579Y-59803
X052579Y-60157
X052677Y-63878
X052677Y-64232
X052677Y-64587
X052677Y-64941
X052677Y-65295
X052677Y-65650
X052677Y-66004
X052677Y-66358
X052677Y-66713
X052677Y-67067
X052677Y-67421
X052677Y-67776
X052677Y-68130
X052933Y-43996
X052933Y-44350
X052933Y-44705
X052933Y-45059
X052933Y-45413
X052933Y-45768
X052933Y-46122
X052933Y-46476
X052933Y-46831
X052933Y-47185
X052933Y-47539
X052933Y-47894
X052933Y-48248
X052933Y-55906
X052933Y-56260
X052933Y-56614
X052933Y-56969
X052933Y-57323
X052933Y-57677
X052933Y-58031
X052933Y-58386
X052933Y-58740
X052933Y-59094
X052933Y-59449
X052933Y-59803
X052933Y-60157
X053031Y-63878
X053031Y-64232
X053031Y-64587
X053031Y-64941
X053031Y-65295
X053031Y-65650
X053031Y-66004
X053031Y-66358
X053031Y-66713
X053031Y-67067
X053031Y-67421
X053031Y-67776
X053031Y-68130
X053287Y-43996
X053287Y-44350
X053287Y-44705
X053287Y-45059
X053287Y-45413
X053287Y-45768
X053287Y-46122
X053287Y-46476
X053287Y-46831
X053287Y-47185
X053287Y-47539
X053287Y-47894
X053287Y-48248
X053287Y-55906
X053287Y-56260
X053287Y-56614
X053287Y-56969
X053287Y-57323
X053287Y-57677
X053287Y-58031
X053287Y-58386
X053287Y-58740
X053287Y-59094
X053287Y-59449
X053287Y-59803
X053287Y-60157
X053386Y-63878
X053386Y-64232
X053386Y-64587
X053386Y-64941
X053386Y-65295
X053386Y-65650
X053386Y-66004
X053386Y-66358
X053386Y-66713
X053386Y-67067
X053386Y-67421
X053386Y-67776
X053386Y-68130
X053642Y-43996
X053642Y-44350
X053642Y-44705
X053642Y-45059
X053642Y-45413
X053642Y-45768
X053642Y-46122
X053642Y-46476
X053642Y-46831
X053642Y-47185
X053642Y-47539
X053642Y-47894
X053642Y-48248
X053642Y-55906
X053642Y-56260
X053642Y-56614
X053642Y-56969
X053642Y-57323
X053642Y-57677
X053642Y-58031
X053642Y-58386
X053642Y-58740
X053642Y-59094
X053642Y-59449
X053642Y-59803
X053642Y-60157
X053740Y-63878
X053740Y-64232
X053740Y-64587
X053740Y-64941
X053740Y-65295
X053740Y-65650
X053740Y-66004
X053740Y-66358
X053740Y-66713
X053740Y-67067
X053740Y-67421
X053740Y-67776
X053740Y-68130
X053996Y-43996
X053996Y-44350
X053996Y-44705
X053996Y-45059
X053996Y-45413
X053996Y-45768
X053996Y-46122
X053996Y-46476
X053996Y-46831
X053996Y-47185
X053996Y-47539
X053996Y-47894
X053996Y-48248
X053996Y-55906
X053996Y-56260
X053996Y-56614
X053996Y-56969
X053996Y-57323
X053996Y-57677
X053996Y-58031
X053996Y-58386
X053996Y-58740
X053996Y-59094
X053996Y-59449
X053996Y-59803
X053996Y-60157
X054094Y-63878
X054094Y-64232
X054094Y-64587
X054094Y-64941
X054094Y-65295
X054094Y-65650
X054094Y-66004
X054094Y-66358
X054094Y-66713
X054094Y-67067
X054094Y-67421
X054094Y-67776
X054094Y-68130
X054350Y-43996
X054350Y-44350
X054350Y-44705
X054350Y-45059
X054350Y-45413
X054350Y-45768
X054350Y-46122
X054350Y-46476
X054350Y-46831
X054350Y-47185
X054350Y-47539
X054350Y-47894
X054350Y-48248
X054350Y-55906
X054350Y-56260
X054350Y-56614
X054350Y-56969
X054350Y-57323
X054350Y-57677
X054350Y-58031
X054350Y-58386
X054350Y-58740
X054350Y-59094
X054350Y-59449
X054350Y-59803
X054350Y-60157
X054449Y-63878
X054449Y-64232
X054449Y-64587
X054449Y-64941
X054449Y-65295
X054449Y-65650
X054449Y-66004
X054449Y-66358
X054449Y-66713
X054449Y-67067
X054449Y-67421
X054449Y-67776
X054449Y-68130
X054705Y-43996
X054705Y-44350
X054705Y-44705
X054705Y-45059
X054705Y-45413
X054705Y-45768
X054705Y-46122
X054705Y-46476
X054705Y-46831
X054705Y-47185
X054705Y-47539
X054705Y-47894
X054705Y-48248
X054705Y-55906
X054705Y-56260
X054705Y-56614
X054705Y-56969
X054705Y-57323
X054705Y-57677
X054705Y-58031
X054705Y-58386
X054705Y-58740
X054705Y-59094
X054705Y-59449
X054705Y-59803
X054705Y-60157
X054803Y-63878
X054803Y-64232
X054803Y-64587
X054803Y-64941
X054803Y-65295
X054803Y-65650
X054803Y-66004
X054803Y-66358
X054803Y-66713
X054803Y-67067
X054803Y-67421
X054803Y-67776
X054803Y-68130
X055059Y-43996
X055059Y-44350
X055059Y-44705
X055059Y-45059
X055059Y-45413
X055059Y-45768
X055059Y-46122
X055059Y-46476
X055059Y-46831
X055059Y-47185
X055059Y-47539
X055059Y-47894
X055059Y-48248
X055059Y-55906
X055059Y-56260
X055059Y-56614
X055059Y-56969
X055059Y-57323
X055059Y-57677
X055059Y-58031
X055059Y-58386
X055059Y-58740
X055059Y-59094
X055059Y-59449
X055059Y-59803
X055059Y-60157
X055157Y-63878
X055157Y-64232
X055157Y-64587
X055157Y-64941
X055157Y-65295
X055157Y-65650
X055157Y-66004
X055157Y-66358
X055157Y-66713
X055157Y-67067
X055157Y-67421
X055157Y-67776
X055157Y-68130
X034563Y-53071
X034563Y-53429
X034563Y-53783
X034563Y-54134
X034563Y-54488
X034563Y-54843
X034563Y-55201
X034913Y-53071
X034913Y-53429
X034913Y-53783
X034913Y-54134
X034913Y-54488
X034913Y-54843
X034913Y-55201
X035272Y-53071
X035272Y-53390
X035622Y-53071
X035622Y-53390
X036039Y-53071
X036039Y-53390
X036453Y-53071
X036453Y-53390
X036803Y-53071
X036803Y-53390
X037122Y-53071
X037157Y-53429
X037157Y-53783
X037157Y-54134
X037157Y-54488
X037157Y-54843
X037157Y-55201
X037516Y-53071
X037516Y-53429
X037516Y-53783
X037516Y-54134
X037516Y-54488
X037516Y-54843
X037516Y-55201
X041437Y-63892
X041437Y-64250
X041437Y-64604
X041437Y-64959
X041437Y-65309
X041437Y-65663
X041437Y-66022
X041795Y-63892
X041795Y-64250
X041795Y-64604
X041795Y-64959
X041795Y-65309
X041795Y-65663
X041831Y-66022
X042150Y-65703
X042150Y-66022
X042500Y-65703
X042500Y-66022
X042913Y-65703
X042913Y-66022
X043331Y-65703
X043331Y-66022
X043681Y-65703
X043681Y-66022
X044039Y-63892
X044039Y-64250
X044039Y-64604
X044039Y-64959
X044039Y-65309
X044039Y-65663
X044039Y-66022
X044390Y-63892
X044390Y-64250
X044390Y-64604
X044390Y-64959
X044390Y-65309
X044390Y-65663
X044390Y-66022
X041437Y-44010
X041437Y-44368
X041437Y-44722
X041437Y-45077
X041437Y-45427
X041437Y-45781
X041437Y-46140
X041795Y-44010
X041795Y-44368
X041795Y-44722
X041795Y-45077
X041795Y-45427
X041795Y-45781
X041831Y-46140
X042150Y-45821
X042150Y-46140
X042500Y-45821
X042500Y-46140
X042913Y-45821
X042913Y-46140
X043331Y-45821
X043331Y-46140
X043681Y-45821
X043681Y-46140
X044039Y-44010
X044039Y-44368
X044039Y-44722
X044039Y-45077
X044039Y-45427
X044039Y-45781
X044039Y-46140
X044390Y-44010
X044390Y-44368
X044390Y-44722
X044390Y-45077
X044390Y-45427
X044390Y-45781
X044390Y-46140
X034547Y-68813
X034547Y-69171
X034547Y-69526
X034547Y-69880
X034547Y-70230
X034547Y-70585
X034547Y-70943
X034906Y-68813
X034906Y-69171
X034906Y-69526
X034906Y-69880
X034906Y-70230
X034906Y-70585
X034941Y-70943
X035260Y-70624
X035260Y-70943
X035610Y-70624
X035610Y-70943
X036024Y-70624
X036024Y-70943
X036441Y-70624
X036441Y-70943
X036791Y-70624
X036791Y-70943
X037150Y-68813
X037150Y-69171
X037150Y-69526
X037150Y-69880
X037150Y-70230
X037150Y-70585
X037150Y-70943
X037500Y-68813
X037500Y-69171
X037500Y-69526
X037500Y-69880
X037500Y-70230
X037500Y-70585
X037500Y-70943
X041453Y-58157
X041453Y-58516
X041453Y-58870
X041453Y-59220
X041453Y-59575
X041453Y-59929
X041453Y-60287
X041803Y-58157
X041803Y-58516
X041803Y-58870
X041803Y-59220
X041803Y-59575
X041803Y-59929
X041803Y-60287
X042161Y-58157
X042161Y-58476
X042512Y-58157
X042512Y-58476
X042929Y-58157
X042929Y-58476
X043343Y-58157
X043343Y-58476
X043693Y-58157
X043693Y-58476
X044012Y-58157
X044047Y-58516
X044047Y-58870
X044047Y-59220
X044047Y-59575
X044047Y-59929
X044047Y-60287
X044406Y-58157
X044406Y-58516
X044406Y-58870
X044406Y-59220
X044406Y-59575
X044406Y-59929
X044406Y-60287
X034547Y-48970
X034547Y-49329
X034547Y-49683
X034547Y-50037
X034547Y-50388
X034547Y-50742
X034547Y-51100
X034906Y-48970
X034906Y-49329
X034906Y-49683
X034906Y-50037
X034906Y-50388
X034906Y-50742
X034941Y-51100
X035260Y-50781
X035260Y-51100
X035610Y-50781
X035610Y-51100
X036024Y-50781
X036024Y-51100
X036441Y-50781
X036441Y-51100
X036791Y-50781
X036791Y-51100
X037150Y-48970
X037150Y-49329
X037150Y-49683
X037150Y-50037
X037150Y-50388
X037150Y-50742
X037150Y-51100
X037500Y-48970
X037500Y-49329
X037500Y-49683
X037500Y-50037
X037500Y-50388
X037500Y-50742
X037500Y-51100
X041453Y-53096
X041453Y-53455
X041453Y-53809
X041453Y-54159
X041453Y-54514
X041453Y-54868
X041453Y-55226
X041803Y-53096
X041803Y-53455
X041803Y-53809
X041803Y-54159
X041803Y-54514
X041803Y-54868
X041803Y-55226
X042161Y-53096
X042161Y-53415
X042512Y-53096
X042512Y-53415
X042929Y-53096
X042929Y-53415
X043343Y-53096
X043343Y-53415
X043693Y-53096
X043693Y-53415
X044012Y-53096
X044047Y-53455
X044047Y-53809
X044047Y-54159
X044047Y-54514
X044047Y-54868
X044047Y-55226
X044406Y-53096
X044406Y-53455
X044406Y-53809
X044406Y-54159
X044406Y-54514
X044406Y-54868
X044406Y-55226
X034547Y-44010
X034547Y-44368
X034547Y-44722
X034547Y-45077
X034547Y-45427
X034547Y-45781
X034547Y-46140
X034906Y-44010
X034906Y-44368
X034906Y-44722
X034906Y-45077
X034906Y-45427
X034906Y-45781
X034941Y-46140
X035260Y-45821
X035260Y-46140
X035610Y-45821
X035610Y-46140
X036024Y-45821
X036024Y-46140
X036441Y-45821
X036441Y-46140
X036791Y-45821
X036791Y-46140
X037150Y-44010
X037150Y-44368
X037150Y-44722
X037150Y-45077
X037150Y-45427
X037150Y-45781
X037150Y-46140
X037500Y-44010
X037500Y-44368
X037500Y-44722
X037500Y-45077
X037500Y-45427
X037500Y-45781
X037500Y-46140
X041437Y-48970
X041437Y-49329
X041437Y-49683
X041437Y-50037
X041437Y-50388
X041437Y-50742
X041437Y-51100
X041795Y-48970
X041795Y-49329
X041795Y-49683
X041795Y-50037
X041795Y-50388
X041795Y-50742
X041831Y-51100
X042150Y-50781
X042150Y-51100
X042500Y-50781
X042500Y-51100
X042913Y-50781
X042913Y-51100
X043331Y-50781
X043331Y-51100
X043681Y-50781
X043681Y-51100
X044039Y-48970
X044039Y-49329
X044039Y-49683
X044039Y-50037
X044039Y-50388
X044039Y-50742
X044039Y-51100
X044390Y-48970
X044390Y-49329
X044390Y-49683
X044390Y-50037
X044390Y-50388
X044390Y-50742
X044390Y-51100
X034563Y-58191
X034563Y-58549
X034563Y-58904
X034563Y-59254
X034563Y-59608
X034563Y-59963
X034563Y-60321
X034913Y-58191
X034913Y-58549
X034913Y-58904
X034913Y-59254
X034913Y-59608
X034913Y-59963
X034913Y-60321
X035272Y-58191
X035272Y-58510
X035622Y-58191
X035622Y-58510
X036039Y-58191
X036039Y-58510
X036453Y-58191
X036453Y-58510
X036803Y-58191
X036803Y-58510
X037122Y-58191
X037157Y-58549
X037157Y-58904
X037157Y-59254
X037157Y-59608
X037157Y-59963
X037157Y-60321
X037516Y-58191
X037516Y-58549
X037516Y-58904
X037516Y-59254
X037516Y-59608
X037516Y-59963
X037516Y-60321
X041437Y-68813
X041437Y-69171
X041437Y-69526
X041437Y-69880
X041437Y-70230
X041437Y-70585
X041437Y-70943
X041795Y-68813
X041795Y-69171
X041795Y-69526
X041795Y-69880
X041795Y-70230
X041795Y-70585
X041831Y-70943
X042150Y-70624
X042150Y-70943
X042500Y-70624
X042500Y-70943
X042913Y-70624
X042913Y-70943
X043331Y-70624
X043331Y-70943
X043681Y-70624
X043681Y-70943
X044039Y-68813
X044039Y-69171
X044039Y-69526
X044039Y-69880
X044039Y-70230
X044039Y-70585
X044039Y-70943
X044390Y-68813
X044390Y-69171
X044390Y-69526
X044390Y-69880
X044390Y-70230
X044390Y-70585
X044390Y-70943
X034547Y-63892
X034547Y-64250
X034547Y-64604
X034547Y-64959
X034547Y-65309
X034547Y-65663
X034547Y-66022
X034906Y-63892
X034906Y-64250
X034906Y-64604
X034906Y-64959
X034906Y-65309
X034906Y-65663
X034941Y-66022
X035260Y-65703
X035260Y-66022
X035610Y-65703
X035610Y-66022
X036024Y-65703
X036024Y-66022
X036441Y-65703
X036441Y-66022
X036791Y-65703
X036791Y-66022
X037150Y-63892
X037150Y-64250
X037150Y-64604
X037150Y-64959
X037150Y-65309
X037150Y-65663
X037150Y-66022
X037500Y-63892
X037500Y-64250
X037500Y-64604
X037500Y-64959
X037500Y-65309
X037500Y-65663
X037500Y-66022
T12
X038327Y-42028
X038604Y-41359
X038604Y-42696
X039272Y-41083
X039272Y-42972
X039940Y-41359
X039940Y-42696
X040217Y-42028
X038524Y-62008
X038800Y-61340
X038800Y-62676
X039469Y-61063
X039469Y-62953
X040137Y-61340
X040137Y-62676
X040413Y-62008
T13
T14
T15
X048031Y-70276
X039272Y-42028
X039469Y-62008
X027559Y-70276
T16
X023740Y-41929
X023740Y-70276
X054055Y-41929
X054055Y-70276
T17
M30

