G04 This is an RS-274x file exported by *
G04 gerbv version 2.6A *
G04 More information is available about gerbv at *
G04 http://gerbv.geda-project.org/ *
G04 --End of header info--*
%MOIN*%
%FSLAX34Y34*%
%IPPOS*%
G04 --Define apertures--*
%ADD10C,0.0039*%
G04 --Start main section--*
G54D10*
G36*
G01X0031957Y-069863D02*
G01X0031969Y-069867D01*
G01X0031980Y-069873D01*
G01X0031990Y-069880D01*
G01X0031997Y-069890D01*
G01X0032003Y-069901D01*
G01X0032007Y-069913D01*
G01X0032008Y-069927D01*
G01X0032008Y-071411D01*
G01X0032007Y-071426D01*
G01X0032003Y-071438D01*
G01X0031997Y-071449D01*
G01X0031990Y-071458D01*
G01X0031980Y-071466D01*
G01X0031969Y-071472D01*
G01X0031957Y-071475D01*
G01X0031943Y-071477D01*
G01X0031049Y-071477D01*
G01X0031035Y-071475D01*
G01X0031023Y-071472D01*
G01X0031012Y-071466D01*
G01X0031002Y-071458D01*
G01X0030995Y-071449D01*
G01X0030989Y-071438D01*
G01X0030985Y-071426D01*
G01X0030984Y-071411D01*
G01X0030984Y-069927D01*
G01X0030985Y-069913D01*
G01X0030989Y-069901D01*
G01X0030995Y-069890D01*
G01X0031002Y-069880D01*
G01X0031012Y-069873D01*
G01X0031023Y-069867D01*
G01X0031035Y-069863D01*
G01X0031049Y-069862D01*
G01X0031943Y-069862D01*
G01X0031957Y-069863D01*
G01X0031957Y-069863D01*
G37*
G36*
G01X0054377Y-069215D02*
G01X0054577Y-069298D01*
G01X0054577Y-069298D01*
G01X0054758Y-069419D01*
G01X0054912Y-069573D01*
G01X0055030Y-069750D01*
G01X0055032Y-069753D01*
G01X0055115Y-069954D01*
G01X0055158Y-070167D01*
G01X0055158Y-070384D01*
G01X0055115Y-070597D01*
G01X0055032Y-070798D01*
G01X0055032Y-070798D01*
G01X0054912Y-070979D01*
G01X0054758Y-071132D01*
G01X0054577Y-071253D01*
G01X0054577Y-071253D01*
G01X0054577Y-071253D01*
G01X0054377Y-071336D01*
G01X0054164Y-071378D01*
G01X0053947Y-071378D01*
G01X0053733Y-071336D01*
G01X0053533Y-071253D01*
G01X0053533Y-071253D01*
G01X0053533Y-071253D01*
G01X0053352Y-071132D01*
G01X0053199Y-070979D01*
G01X0053078Y-070798D01*
G01X0053078Y-070798D01*
G01X0052995Y-070597D01*
G01X0052952Y-070384D01*
G01X0052952Y-070167D01*
G01X0052995Y-069954D01*
G01X0053078Y-069753D01*
G01X0053080Y-069750D01*
G01X0053199Y-069573D01*
G01X0053352Y-069419D01*
G01X0053533Y-069298D01*
G01X0053533Y-069298D01*
G01X0053733Y-069215D01*
G01X0053947Y-069173D01*
G01X0054164Y-069173D01*
G01X0054377Y-069215D01*
G01X0054377Y-069215D01*
G37*
G36*
G01X0024062Y-069215D02*
G01X0024263Y-069298D01*
G01X0024263Y-069298D01*
G01X0024443Y-069419D01*
G01X0024597Y-069573D01*
G01X0024715Y-069750D01*
G01X0024717Y-069753D01*
G01X0024801Y-069954D01*
G01X0024843Y-070167D01*
G01X0024843Y-070384D01*
G01X0024801Y-070597D01*
G01X0024717Y-070798D01*
G01X0024717Y-070798D01*
G01X0024597Y-070979D01*
G01X0024443Y-071132D01*
G01X0024263Y-071253D01*
G01X0024263Y-071253D01*
G01X0024263Y-071253D01*
G01X0024062Y-071336D01*
G01X0023849Y-071378D01*
G01X0023632Y-071378D01*
G01X0023418Y-071336D01*
G01X0023218Y-071253D01*
G01X0023218Y-071253D01*
G01X0023218Y-071253D01*
G01X0023037Y-071132D01*
G01X0022884Y-070979D01*
G01X0022763Y-070798D01*
G01X0022763Y-070798D01*
G01X0022680Y-070597D01*
G01X0022637Y-070384D01*
G01X0022637Y-070167D01*
G01X0022680Y-069954D01*
G01X0022763Y-069753D01*
G01X0022765Y-069750D01*
G01X0022884Y-069573D01*
G01X0023037Y-069419D01*
G01X0023218Y-069298D01*
G01X0023218Y-069298D01*
G01X0023418Y-069215D01*
G01X0023632Y-069173D01*
G01X0023849Y-069173D01*
G01X0024062Y-069215D01*
G01X0024062Y-069215D01*
G37*
G36*
G01X0048353Y-069215D02*
G01X0048554Y-069298D01*
G01X0048554Y-069298D01*
G01X0048734Y-069419D01*
G01X0048888Y-069573D01*
G01X0049007Y-069750D01*
G01X0049009Y-069753D01*
G01X0049092Y-069954D01*
G01X0049134Y-070167D01*
G01X0049134Y-070384D01*
G01X0049092Y-070597D01*
G01X0049009Y-070798D01*
G01X0049009Y-070798D01*
G01X0048888Y-070979D01*
G01X0048734Y-071132D01*
G01X0048554Y-071253D01*
G01X0048554Y-071253D01*
G01X0048554Y-071253D01*
G01X0048353Y-071336D01*
G01X0048140Y-071378D01*
G01X0047923Y-071378D01*
G01X0047710Y-071336D01*
G01X0047509Y-071253D01*
G01X0047509Y-071253D01*
G01X0047509Y-071253D01*
G01X0047329Y-071132D01*
G01X0047175Y-070979D01*
G01X0047054Y-070798D01*
G01X0047054Y-070798D01*
G01X0046971Y-070597D01*
G01X0046929Y-070384D01*
G01X0046929Y-070167D01*
G01X0046971Y-069954D01*
G01X0047054Y-069753D01*
G01X0047056Y-069750D01*
G01X0047175Y-069573D01*
G01X0047329Y-069419D01*
G01X0047509Y-069298D01*
G01X0047509Y-069298D01*
G01X0047710Y-069215D01*
G01X0047923Y-069173D01*
G01X0048140Y-069173D01*
G01X0048353Y-069215D01*
G01X0048353Y-069215D01*
G37*
G36*
G01X0027881Y-069215D02*
G01X0028081Y-069298D01*
G01X0028081Y-069298D01*
G01X0028262Y-069419D01*
G01X0028416Y-069573D01*
G01X0028534Y-069750D01*
G01X0028536Y-069753D01*
G01X0028619Y-069954D01*
G01X0028662Y-070167D01*
G01X0028662Y-070384D01*
G01X0028619Y-070597D01*
G01X0028536Y-070798D01*
G01X0028536Y-070798D01*
G01X0028416Y-070979D01*
G01X0028262Y-071132D01*
G01X0028081Y-071253D01*
G01X0028081Y-071253D01*
G01X0028081Y-071253D01*
G01X0027881Y-071336D01*
G01X0027668Y-071378D01*
G01X0027450Y-071378D01*
G01X0027237Y-071336D01*
G01X0027037Y-071253D01*
G01X0027037Y-071253D01*
G01X0027037Y-071253D01*
G01X0026856Y-071132D01*
G01X0026702Y-070979D01*
G01X0026582Y-070798D01*
G01X0026582Y-070798D01*
G01X0026499Y-070597D01*
G01X0026456Y-070384D01*
G01X0026456Y-070167D01*
G01X0026499Y-069954D01*
G01X0026582Y-069753D01*
G01X0026584Y-069750D01*
G01X0026702Y-069573D01*
G01X0026856Y-069419D01*
G01X0027037Y-069298D01*
G01X0027037Y-069298D01*
G01X0027237Y-069215D01*
G01X0027450Y-069173D01*
G01X0027668Y-069173D01*
G01X0027881Y-069215D01*
G01X0027881Y-069215D01*
G37*
G36*
G01X0036878Y-069750D02*
G01X0036879Y-069760D01*
G01X0036882Y-069769D01*
G01X0036886Y-069777D01*
G01X0036892Y-069785D01*
G01X0036900Y-069791D01*
G01X0036908Y-069795D01*
G01X0036918Y-069798D01*
G01X0036927Y-069799D01*
G01X0036976Y-069799D01*
G01X0036976Y-070465D01*
G01X0035071Y-070465D01*
G01X0035071Y-069799D01*
G01X0035120Y-069799D01*
G01X0035130Y-069798D01*
G01X0035139Y-069795D01*
G01X0035147Y-069791D01*
G01X0035155Y-069785D01*
G01X0035161Y-069777D01*
G01X0035166Y-069769D01*
G01X0035168Y-069760D01*
G01X0035169Y-069750D01*
G01X0035169Y-068593D01*
G01X0036878Y-068593D01*
G01X0036878Y-069750D01*
G01X0036878Y-069750D01*
G37*
G36*
G01X0043768Y-069750D02*
G01X0043769Y-069760D01*
G01X0043771Y-069769D01*
G01X0043776Y-069777D01*
G01X0043782Y-069785D01*
G01X0043790Y-069791D01*
G01X0043798Y-069795D01*
G01X0043807Y-069798D01*
G01X0043817Y-069799D01*
G01X0043866Y-069799D01*
G01X0043866Y-070465D01*
G01X0041961Y-070465D01*
G01X0041961Y-069799D01*
G01X0042010Y-069799D01*
G01X0042019Y-069798D01*
G01X0042029Y-069795D01*
G01X0042037Y-069791D01*
G01X0042045Y-069785D01*
G01X0042051Y-069777D01*
G01X0042055Y-069769D01*
G01X0042058Y-069760D01*
G01X0042059Y-069750D01*
G01X0042059Y-068593D01*
G01X0043768Y-068593D01*
G01X0043768Y-069750D01*
G01X0043768Y-069750D01*
G37*
G36*
G01X0031957Y-066714D02*
G01X0031969Y-066717D01*
G01X0031980Y-066723D01*
G01X0031990Y-066731D01*
G01X0031997Y-066740D01*
G01X0032003Y-066751D01*
G01X0032007Y-066763D01*
G01X0032008Y-066778D01*
G01X0032008Y-068262D01*
G01X0032007Y-068276D01*
G01X0032003Y-068288D01*
G01X0031997Y-068299D01*
G01X0031990Y-068309D01*
G01X0031980Y-068316D01*
G01X0031969Y-068322D01*
G01X0031957Y-068326D01*
G01X0031943Y-068327D01*
G01X0031049Y-068327D01*
G01X0031035Y-068326D01*
G01X0031023Y-068322D01*
G01X0031012Y-068316D01*
G01X0031002Y-068309D01*
G01X0030995Y-068299D01*
G01X0030989Y-068288D01*
G01X0030985Y-068276D01*
G01X0030984Y-068262D01*
G01X0030984Y-066778D01*
G01X0030985Y-066763D01*
G01X0030989Y-066751D01*
G01X0030995Y-066740D01*
G01X0031002Y-066731D01*
G01X0031012Y-066723D01*
G01X0031023Y-066717D01*
G01X0031035Y-066714D01*
G01X0031049Y-066712D01*
G01X0031943Y-066712D01*
G01X0031957Y-066714D01*
G01X0031957Y-066714D01*
G37*
G36*
G01X0040595Y-067560D02*
G01X0040608Y-067564D01*
G01X0040619Y-067570D01*
G01X0040630Y-067579D01*
G01X0040638Y-067589D01*
G01X0040645Y-067601D01*
G01X0040648Y-067614D01*
G01X0040650Y-067630D01*
G01X0040650Y-068237D01*
G01X0040648Y-068252D01*
G01X0040645Y-068265D01*
G01X0040638Y-068277D01*
G01X0040630Y-068287D01*
G01X0040619Y-068296D01*
G01X0040608Y-068302D01*
G01X0040595Y-068306D01*
G01X0040579Y-068307D01*
G01X0038555Y-068307D01*
G01X0038539Y-068306D01*
G01X0038526Y-068302D01*
G01X0038514Y-068296D01*
G01X0038504Y-068287D01*
G01X0038496Y-068277D01*
G01X0038489Y-068265D01*
G01X0038485Y-068252D01*
G01X0038484Y-068237D01*
G01X0038484Y-067630D01*
G01X0038485Y-067614D01*
G01X0038489Y-067601D01*
G01X0038496Y-067589D01*
G01X0038504Y-067579D01*
G01X0038514Y-067570D01*
G01X0038526Y-067564D01*
G01X0038539Y-067560D01*
G01X0038555Y-067559D01*
G01X0040579Y-067559D01*
G01X0040595Y-067560D01*
G01X0040595Y-067560D01*
G37*
G36*
G01X0036941Y-068232D02*
G01X0036610Y-068232D01*
G01X0036610Y-067724D01*
G01X0036941Y-067724D01*
G01X0036941Y-068232D01*
G01X0036941Y-068232D01*
G37*
G36*
G01X0042331Y-068232D02*
G01X0042000Y-068232D01*
G01X0042000Y-067724D01*
G01X0042331Y-067724D01*
G01X0042331Y-068232D01*
G01X0042331Y-068232D01*
G37*
G36*
G01X0042831Y-068232D02*
G01X0042500Y-068232D01*
G01X0042500Y-067724D01*
G01X0042831Y-067724D01*
G01X0042831Y-068232D01*
G01X0042831Y-068232D01*
G37*
G36*
G01X0036441Y-068232D02*
G01X0036110Y-068232D01*
G01X0036110Y-067724D01*
G01X0036441Y-067724D01*
G01X0036441Y-068232D01*
G01X0036441Y-068232D01*
G37*
G36*
G01X0043831Y-068232D02*
G01X0043500Y-068232D01*
G01X0043500Y-067724D01*
G01X0043831Y-067724D01*
G01X0043831Y-068232D01*
G01X0043831Y-068232D01*
G37*
G36*
G01X0035941Y-068232D02*
G01X0035610Y-068232D01*
G01X0035610Y-067724D01*
G01X0035941Y-067724D01*
G01X0035941Y-068232D01*
G01X0035941Y-068232D01*
G37*
G36*
G01X0043331Y-068232D02*
G01X0043000Y-068232D01*
G01X0043000Y-067724D01*
G01X0043331Y-067724D01*
G01X0043331Y-068232D01*
G01X0043331Y-068232D01*
G37*
G36*
G01X0035441Y-068232D02*
G01X0035110Y-068232D01*
G01X0035110Y-067724D01*
G01X0035441Y-067724D01*
G01X0035441Y-068232D01*
G01X0035441Y-068232D01*
G37*
G36*
G01X0049792Y-066842D02*
G01X0049806Y-066846D01*
G01X0049819Y-066853D01*
G01X0049831Y-066862D01*
G01X0049840Y-066874D01*
G01X0049847Y-066886D01*
G01X0049851Y-066900D01*
G01X0049853Y-066917D01*
G01X0049853Y-068122D01*
G01X0049851Y-068139D01*
G01X0049847Y-068153D01*
G01X0049840Y-068166D01*
G01X0049831Y-068177D01*
G01X0049819Y-068186D01*
G01X0049806Y-068193D01*
G01X0049792Y-068198D01*
G01X0049775Y-068199D01*
G01X0049358Y-068199D01*
G01X0049341Y-068198D01*
G01X0049327Y-068193D01*
G01X0049315Y-068186D01*
G01X0049303Y-068177D01*
G01X0049294Y-068166D01*
G01X0049287Y-068153D01*
G01X0049283Y-068139D01*
G01X0049281Y-068122D01*
G01X0049281Y-066917D01*
G01X0049283Y-066900D01*
G01X0049287Y-066886D01*
G01X0049294Y-066874D01*
G01X0049303Y-066862D01*
G01X0049315Y-066853D01*
G01X0049327Y-066846D01*
G01X0049341Y-066842D01*
G01X0049358Y-066840D01*
G01X0049775Y-066840D01*
G01X0049792Y-066842D01*
G01X0049792Y-066842D01*
G37*
G36*
G01X0047509Y-066842D02*
G01X0047523Y-066846D01*
G01X0047536Y-066853D01*
G01X0047547Y-066862D01*
G01X0047556Y-066874D01*
G01X0047563Y-066886D01*
G01X0047568Y-066900D01*
G01X0047569Y-066917D01*
G01X0047569Y-068122D01*
G01X0047568Y-068139D01*
G01X0047563Y-068153D01*
G01X0047556Y-068166D01*
G01X0047547Y-068177D01*
G01X0047536Y-068186D01*
G01X0047523Y-068193D01*
G01X0047509Y-068198D01*
G01X0047492Y-068199D01*
G01X0047075Y-068199D01*
G01X0047058Y-068198D01*
G01X0047044Y-068193D01*
G01X0047031Y-068186D01*
G01X0047020Y-068177D01*
G01X0047010Y-068166D01*
G01X0047004Y-068153D01*
G01X0046999Y-068139D01*
G01X0046998Y-068122D01*
G01X0046998Y-066917D01*
G01X0046999Y-066900D01*
G01X0047004Y-066886D01*
G01X0047010Y-066874D01*
G01X0047020Y-066862D01*
G01X0047031Y-066853D01*
G01X0047044Y-066846D01*
G01X0047058Y-066842D01*
G01X0047075Y-066840D01*
G01X0047492Y-066840D01*
G01X0047509Y-066842D01*
G01X0047509Y-066842D01*
G37*
G36*
G01X0041459Y-067117D02*
G01X0041472Y-067121D01*
G01X0041484Y-067128D01*
G01X0041495Y-067137D01*
G01X0041504Y-067148D01*
G01X0041510Y-067160D01*
G01X0041515Y-067173D01*
G01X0041516Y-067190D01*
G01X0041516Y-067456D01*
G01X0041515Y-067472D01*
G01X0041510Y-067486D01*
G01X0041504Y-067498D01*
G01X0041495Y-067509D01*
G01X0041484Y-067518D01*
G01X0041472Y-067524D01*
G01X0041459Y-067528D01*
G01X0041442Y-067530D01*
G01X0041205Y-067530D01*
G01X0041189Y-067528D01*
G01X0041176Y-067524D01*
G01X0041163Y-067518D01*
G01X0041153Y-067509D01*
G01X0041144Y-067498D01*
G01X0041137Y-067486D01*
G01X0041133Y-067472D01*
G01X0041131Y-067456D01*
G01X0041131Y-067190D01*
G01X0041133Y-067173D01*
G01X0041137Y-067160D01*
G01X0041144Y-067148D01*
G01X0041153Y-067137D01*
G01X0041163Y-067128D01*
G01X0041176Y-067121D01*
G01X0041189Y-067117D01*
G01X0041205Y-067116D01*
G01X0041442Y-067116D01*
G01X0041459Y-067117D01*
G01X0041459Y-067117D01*
G37*
G36*
G01X0042079Y-067117D02*
G01X0042092Y-067121D01*
G01X0042104Y-067128D01*
G01X0042115Y-067137D01*
G01X0042124Y-067148D01*
G01X0042131Y-067160D01*
G01X0042135Y-067173D01*
G01X0042136Y-067190D01*
G01X0042136Y-067456D01*
G01X0042135Y-067472D01*
G01X0042131Y-067486D01*
G01X0042124Y-067498D01*
G01X0042115Y-067509D01*
G01X0042104Y-067518D01*
G01X0042092Y-067524D01*
G01X0042079Y-067528D01*
G01X0042062Y-067530D01*
G01X0041826Y-067530D01*
G01X0041809Y-067528D01*
G01X0041796Y-067524D01*
G01X0041784Y-067518D01*
G01X0041773Y-067509D01*
G01X0041764Y-067498D01*
G01X0041757Y-067486D01*
G01X0041753Y-067472D01*
G01X0041752Y-067456D01*
G01X0041752Y-067190D01*
G01X0041753Y-067173D01*
G01X0041757Y-067160D01*
G01X0041764Y-067148D01*
G01X0041773Y-067137D01*
G01X0041784Y-067128D01*
G01X0041796Y-067121D01*
G01X0041809Y-067117D01*
G01X0041826Y-067116D01*
G01X0042062Y-067116D01*
G01X0042079Y-067117D01*
G01X0042079Y-067117D01*
G37*
G36*
G01X0034667Y-067117D02*
G01X0034681Y-067121D01*
G01X0034693Y-067128D01*
G01X0034704Y-067137D01*
G01X0034713Y-067148D01*
G01X0034719Y-067160D01*
G01X0034723Y-067173D01*
G01X0034725Y-067190D01*
G01X0034725Y-067456D01*
G01X0034723Y-067472D01*
G01X0034719Y-067486D01*
G01X0034713Y-067498D01*
G01X0034704Y-067509D01*
G01X0034693Y-067518D01*
G01X0034681Y-067524D01*
G01X0034667Y-067528D01*
G01X0034651Y-067530D01*
G01X0034414Y-067530D01*
G01X0034398Y-067528D01*
G01X0034384Y-067524D01*
G01X0034372Y-067518D01*
G01X0034361Y-067509D01*
G01X0034352Y-067498D01*
G01X0034346Y-067486D01*
G01X0034342Y-067472D01*
G01X0034340Y-067456D01*
G01X0034340Y-067190D01*
G01X0034342Y-067173D01*
G01X0034346Y-067160D01*
G01X0034352Y-067148D01*
G01X0034361Y-067137D01*
G01X0034372Y-067128D01*
G01X0034384Y-067121D01*
G01X0034398Y-067117D01*
G01X0034414Y-067116D01*
G01X0034651Y-067116D01*
G01X0034667Y-067117D01*
G01X0034667Y-067117D01*
G37*
G36*
G01X0035287Y-067117D02*
G01X0035301Y-067121D01*
G01X0035313Y-067128D01*
G01X0035324Y-067137D01*
G01X0035333Y-067148D01*
G01X0035339Y-067160D01*
G01X0035343Y-067173D01*
G01X0035345Y-067190D01*
G01X0035345Y-067456D01*
G01X0035343Y-067472D01*
G01X0035339Y-067486D01*
G01X0035333Y-067498D01*
G01X0035324Y-067509D01*
G01X0035313Y-067518D01*
G01X0035301Y-067524D01*
G01X0035287Y-067528D01*
G01X0035271Y-067530D01*
G01X0035034Y-067530D01*
G01X0035018Y-067528D01*
G01X0035005Y-067524D01*
G01X0034992Y-067518D01*
G01X0034981Y-067509D01*
G01X0034972Y-067498D01*
G01X0034966Y-067486D01*
G01X0034962Y-067472D01*
G01X0034960Y-067456D01*
G01X0034960Y-067190D01*
G01X0034962Y-067173D01*
G01X0034966Y-067160D01*
G01X0034972Y-067148D01*
G01X0034981Y-067137D01*
G01X0034992Y-067128D01*
G01X0035005Y-067121D01*
G01X0035018Y-067117D01*
G01X0035034Y-067116D01*
G01X0035271Y-067116D01*
G01X0035287Y-067117D01*
G01X0035287Y-067117D01*
G37*
G36*
G01X0054646Y-066949D02*
G01X0050669Y-066949D01*
G01X0050669Y-064941D01*
G01X0054646Y-064941D01*
G01X0054646Y-066949D01*
G01X0054646Y-066949D01*
G37*
G36*
G01X0035287Y-066527D02*
G01X0035301Y-066531D01*
G01X0035313Y-066537D01*
G01X0035324Y-066546D01*
G01X0035333Y-066557D01*
G01X0035339Y-066569D01*
G01X0035343Y-066583D01*
G01X0035345Y-066599D01*
G01X0035345Y-066865D01*
G01X0035343Y-066882D01*
G01X0035339Y-066895D01*
G01X0035333Y-066907D01*
G01X0035324Y-066918D01*
G01X0035313Y-066927D01*
G01X0035301Y-066934D01*
G01X0035287Y-066938D01*
G01X0035271Y-066939D01*
G01X0035034Y-066939D01*
G01X0035018Y-066938D01*
G01X0035005Y-066934D01*
G01X0034992Y-066927D01*
G01X0034981Y-066918D01*
G01X0034972Y-066907D01*
G01X0034966Y-066895D01*
G01X0034962Y-066882D01*
G01X0034960Y-066865D01*
G01X0034960Y-066599D01*
G01X0034962Y-066583D01*
G01X0034966Y-066569D01*
G01X0034972Y-066557D01*
G01X0034981Y-066546D01*
G01X0034992Y-066537D01*
G01X0035005Y-066531D01*
G01X0035018Y-066527D01*
G01X0035034Y-066525D01*
G01X0035271Y-066525D01*
G01X0035287Y-066527D01*
G01X0035287Y-066527D01*
G37*
G36*
G01X0042079Y-066527D02*
G01X0042092Y-066531D01*
G01X0042104Y-066537D01*
G01X0042115Y-066546D01*
G01X0042124Y-066557D01*
G01X0042131Y-066569D01*
G01X0042135Y-066583D01*
G01X0042136Y-066599D01*
G01X0042136Y-066865D01*
G01X0042135Y-066882D01*
G01X0042131Y-066895D01*
G01X0042124Y-066907D01*
G01X0042115Y-066918D01*
G01X0042104Y-066927D01*
G01X0042092Y-066934D01*
G01X0042079Y-066938D01*
G01X0042062Y-066939D01*
G01X0041826Y-066939D01*
G01X0041809Y-066938D01*
G01X0041796Y-066934D01*
G01X0041784Y-066927D01*
G01X0041773Y-066918D01*
G01X0041764Y-066907D01*
G01X0041757Y-066895D01*
G01X0041753Y-066882D01*
G01X0041752Y-066865D01*
G01X0041752Y-066599D01*
G01X0041753Y-066583D01*
G01X0041757Y-066569D01*
G01X0041764Y-066557D01*
G01X0041773Y-066546D01*
G01X0041784Y-066537D01*
G01X0041796Y-066531D01*
G01X0041809Y-066527D01*
G01X0041826Y-066525D01*
G01X0042062Y-066525D01*
G01X0042079Y-066527D01*
G01X0042079Y-066527D01*
G37*
G36*
G01X0034667Y-066527D02*
G01X0034681Y-066531D01*
G01X0034693Y-066537D01*
G01X0034704Y-066546D01*
G01X0034713Y-066557D01*
G01X0034719Y-066569D01*
G01X0034723Y-066583D01*
G01X0034725Y-066599D01*
G01X0034725Y-066865D01*
G01X0034723Y-066882D01*
G01X0034719Y-066895D01*
G01X0034713Y-066907D01*
G01X0034704Y-066918D01*
G01X0034693Y-066927D01*
G01X0034681Y-066934D01*
G01X0034667Y-066938D01*
G01X0034651Y-066939D01*
G01X0034414Y-066939D01*
G01X0034398Y-066938D01*
G01X0034384Y-066934D01*
G01X0034372Y-066927D01*
G01X0034361Y-066918D01*
G01X0034352Y-066907D01*
G01X0034346Y-066895D01*
G01X0034342Y-066882D01*
G01X0034340Y-066865D01*
G01X0034340Y-066599D01*
G01X0034342Y-066583D01*
G01X0034346Y-066569D01*
G01X0034352Y-066557D01*
G01X0034361Y-066546D01*
G01X0034372Y-066537D01*
G01X0034384Y-066531D01*
G01X0034398Y-066527D01*
G01X0034414Y-066525D01*
G01X0034651Y-066525D01*
G01X0034667Y-066527D01*
G01X0034667Y-066527D01*
G37*
G36*
G01X0041459Y-066527D02*
G01X0041472Y-066531D01*
G01X0041484Y-066537D01*
G01X0041495Y-066546D01*
G01X0041504Y-066557D01*
G01X0041510Y-066569D01*
G01X0041515Y-066583D01*
G01X0041516Y-066599D01*
G01X0041516Y-066865D01*
G01X0041515Y-066882D01*
G01X0041510Y-066895D01*
G01X0041504Y-066907D01*
G01X0041495Y-066918D01*
G01X0041484Y-066927D01*
G01X0041472Y-066934D01*
G01X0041459Y-066938D01*
G01X0041442Y-066939D01*
G01X0041205Y-066939D01*
G01X0041189Y-066938D01*
G01X0041176Y-066934D01*
G01X0041163Y-066927D01*
G01X0041153Y-066918D01*
G01X0041144Y-066907D01*
G01X0041137Y-066895D01*
G01X0041133Y-066882D01*
G01X0041131Y-066865D01*
G01X0041131Y-066599D01*
G01X0041133Y-066583D01*
G01X0041137Y-066569D01*
G01X0041144Y-066557D01*
G01X0041153Y-066546D01*
G01X0041163Y-066537D01*
G01X0041176Y-066531D01*
G01X0041189Y-066527D01*
G01X0041205Y-066525D01*
G01X0041442Y-066525D01*
G01X0041459Y-066527D01*
G01X0041459Y-066527D01*
G37*
G36*
G01X0049792Y-065267D02*
G01X0049806Y-065271D01*
G01X0049819Y-065278D01*
G01X0049831Y-065287D01*
G01X0049840Y-065299D01*
G01X0049847Y-065312D01*
G01X0049851Y-065326D01*
G01X0049853Y-065343D01*
G01X0049853Y-066547D01*
G01X0049851Y-066564D01*
G01X0049847Y-066578D01*
G01X0049840Y-066591D01*
G01X0049831Y-066602D01*
G01X0049819Y-066612D01*
G01X0049806Y-066618D01*
G01X0049792Y-066623D01*
G01X0049775Y-066624D01*
G01X0049358Y-066624D01*
G01X0049341Y-066623D01*
G01X0049327Y-066618D01*
G01X0049315Y-066612D01*
G01X0049303Y-066602D01*
G01X0049294Y-066591D01*
G01X0049287Y-066578D01*
G01X0049283Y-066564D01*
G01X0049281Y-066547D01*
G01X0049281Y-065343D01*
G01X0049283Y-065326D01*
G01X0049287Y-065312D01*
G01X0049294Y-065299D01*
G01X0049303Y-065287D01*
G01X0049315Y-065278D01*
G01X0049327Y-065271D01*
G01X0049341Y-065267D01*
G01X0049358Y-065265D01*
G01X0049775Y-065265D01*
G01X0049792Y-065267D01*
G01X0049792Y-065267D01*
G37*
G36*
G01X0047509Y-065267D02*
G01X0047523Y-065271D01*
G01X0047536Y-065278D01*
G01X0047547Y-065287D01*
G01X0047556Y-065299D01*
G01X0047563Y-065312D01*
G01X0047568Y-065326D01*
G01X0047569Y-065343D01*
G01X0047569Y-066547D01*
G01X0047568Y-066564D01*
G01X0047563Y-066578D01*
G01X0047556Y-066591D01*
G01X0047547Y-066602D01*
G01X0047536Y-066612D01*
G01X0047523Y-066618D01*
G01X0047509Y-066623D01*
G01X0047492Y-066624D01*
G01X0047075Y-066624D01*
G01X0047058Y-066623D01*
G01X0047044Y-066618D01*
G01X0047031Y-066612D01*
G01X0047020Y-066602D01*
G01X0047010Y-066591D01*
G01X0047004Y-066578D01*
G01X0046999Y-066564D01*
G01X0046998Y-066547D01*
G01X0046998Y-065343D01*
G01X0046999Y-065326D01*
G01X0047004Y-065312D01*
G01X0047010Y-065299D01*
G01X0047020Y-065287D01*
G01X0047031Y-065278D01*
G01X0047044Y-065271D01*
G01X0047058Y-065267D01*
G01X0047075Y-065265D01*
G01X0047492Y-065265D01*
G01X0047509Y-065267D01*
G01X0047509Y-065267D01*
G37*
G36*
G01X0040595Y-065552D02*
G01X0040608Y-065556D01*
G01X0040619Y-065563D01*
G01X0040630Y-065571D01*
G01X0040638Y-065581D01*
G01X0040645Y-065593D01*
G01X0040648Y-065606D01*
G01X0040650Y-065622D01*
G01X0040650Y-066229D01*
G01X0040648Y-066244D01*
G01X0040645Y-066257D01*
G01X0040638Y-066269D01*
G01X0040630Y-066279D01*
G01X0040619Y-066288D01*
G01X0040608Y-066294D01*
G01X0040595Y-066298D01*
G01X0040579Y-066300D01*
G01X0038555Y-066300D01*
G01X0038539Y-066298D01*
G01X0038526Y-066294D01*
G01X0038514Y-066288D01*
G01X0038504Y-066279D01*
G01X0038496Y-066269D01*
G01X0038489Y-066257D01*
G01X0038485Y-066244D01*
G01X0038484Y-066229D01*
G01X0038484Y-065622D01*
G01X0038485Y-065606D01*
G01X0038489Y-065593D01*
G01X0038496Y-065581D01*
G01X0038504Y-065571D01*
G01X0038514Y-065563D01*
G01X0038526Y-065556D01*
G01X0038539Y-065552D01*
G01X0038555Y-065551D01*
G01X0040579Y-065551D01*
G01X0040595Y-065552D01*
G01X0040595Y-065552D01*
G37*
G36*
G01X0031957Y-064666D02*
G01X0031969Y-064670D01*
G01X0031980Y-064676D01*
G01X0031990Y-064684D01*
G01X0031997Y-064693D01*
G01X0032003Y-064704D01*
G01X0032007Y-064716D01*
G01X0032008Y-064730D01*
G01X0032008Y-066214D01*
G01X0032007Y-066229D01*
G01X0032003Y-066241D01*
G01X0031997Y-066252D01*
G01X0031990Y-066261D01*
G01X0031980Y-066269D01*
G01X0031969Y-066275D01*
G01X0031957Y-066278D01*
G01X0031943Y-066280D01*
G01X0031049Y-066280D01*
G01X0031035Y-066278D01*
G01X0031023Y-066275D01*
G01X0031012Y-066269D01*
G01X0031002Y-066261D01*
G01X0030995Y-066252D01*
G01X0030989Y-066241D01*
G01X0030985Y-066229D01*
G01X0030984Y-066214D01*
G01X0030984Y-064730D01*
G01X0030985Y-064716D01*
G01X0030989Y-064704D01*
G01X0030995Y-064693D01*
G01X0031002Y-064684D01*
G01X0031012Y-064676D01*
G01X0031023Y-064670D01*
G01X0031035Y-064666D01*
G01X0031049Y-064665D01*
G01X0031943Y-064665D01*
G01X0031957Y-064666D01*
G01X0031957Y-064666D01*
G37*
G36*
G01X0025378Y-065869D02*
G01X0025386Y-065871D01*
G01X0025394Y-065875D01*
G01X0025401Y-065881D01*
G01X0025406Y-065888D01*
G01X0025410Y-065895D01*
G01X0025413Y-065904D01*
G01X0025414Y-065915D01*
G01X0025414Y-066097D01*
G01X0025413Y-066108D01*
G01X0025410Y-066117D01*
G01X0025406Y-066124D01*
G01X0025401Y-066131D01*
G01X0025394Y-066136D01*
G01X0025386Y-066140D01*
G01X0025378Y-066143D01*
G01X0025367Y-066144D01*
G01X0024653Y-066144D01*
G01X0024642Y-066143D01*
G01X0024633Y-066140D01*
G01X0024626Y-066136D01*
G01X0024619Y-066131D01*
G01X0024614Y-066124D01*
G01X0024610Y-066117D01*
G01X0024607Y-066108D01*
G01X0024606Y-066097D01*
G01X0024606Y-065915D01*
G01X0024607Y-065904D01*
G01X0024610Y-065895D01*
G01X0024614Y-065888D01*
G01X0024619Y-065881D01*
G01X0024626Y-065875D01*
G01X0024633Y-065871D01*
G01X0024642Y-065869D01*
G01X0024653Y-065868D01*
G01X0025367Y-065868D01*
G01X0025378Y-065869D01*
G01X0025378Y-065869D01*
G37*
G36*
G01X0027327Y-065869D02*
G01X0027335Y-065871D01*
G01X0027343Y-065875D01*
G01X0027349Y-065881D01*
G01X0027355Y-065888D01*
G01X0027359Y-065895D01*
G01X0027362Y-065904D01*
G01X0027363Y-065915D01*
G01X0027363Y-066097D01*
G01X0027362Y-066108D01*
G01X0027359Y-066117D01*
G01X0027355Y-066124D01*
G01X0027349Y-066131D01*
G01X0027343Y-066136D01*
G01X0027335Y-066140D01*
G01X0027327Y-066143D01*
G01X0027316Y-066144D01*
G01X0026602Y-066144D01*
G01X0026591Y-066143D01*
G01X0026582Y-066140D01*
G01X0026575Y-066136D01*
G01X0026568Y-066131D01*
G01X0026562Y-066124D01*
G01X0026558Y-066117D01*
G01X0026556Y-066108D01*
G01X0026555Y-066097D01*
G01X0026555Y-065915D01*
G01X0026556Y-065904D01*
G01X0026558Y-065895D01*
G01X0026562Y-065888D01*
G01X0026568Y-065881D01*
G01X0026575Y-065875D01*
G01X0026582Y-065871D01*
G01X0026591Y-065869D01*
G01X0026602Y-065868D01*
G01X0027316Y-065868D01*
G01X0027327Y-065869D01*
G01X0027327Y-065869D01*
G37*
G36*
G01X0023629Y-065543D02*
G01X0023644Y-065547D01*
G01X0023657Y-065554D01*
G01X0023669Y-065564D01*
G01X0023678Y-065575D01*
G01X0023685Y-065589D01*
G01X0023690Y-065603D01*
G01X0023691Y-065620D01*
G01X0023691Y-065994D01*
G01X0023690Y-066011D01*
G01X0023685Y-066026D01*
G01X0023678Y-066039D01*
G01X0023669Y-066051D01*
G01X0023657Y-066060D01*
G01X0023644Y-066067D01*
G01X0023629Y-066072D01*
G01X0023612Y-066073D01*
G01X0023042Y-066073D01*
G01X0023024Y-066072D01*
G01X0023010Y-066067D01*
G01X0022997Y-066060D01*
G01X0022985Y-066051D01*
G01X0022975Y-066039D01*
G01X0022968Y-066026D01*
G01X0022964Y-066011D01*
G01X0022962Y-065994D01*
G01X0022962Y-065620D01*
G01X0022964Y-065603D01*
G01X0022968Y-065589D01*
G01X0022975Y-065575D01*
G01X0022985Y-065564D01*
G01X0022997Y-065554D01*
G01X0023010Y-065547D01*
G01X0023024Y-065543D01*
G01X0023042Y-065541D01*
G01X0023612Y-065541D01*
G01X0023629Y-065543D01*
G01X0023629Y-065543D01*
G37*
G36*
G01X0028354Y-065385D02*
G01X0028368Y-065390D01*
G01X0028381Y-065397D01*
G01X0028393Y-065406D01*
G01X0028403Y-065418D01*
G01X0028410Y-065431D01*
G01X0028414Y-065445D01*
G01X0028416Y-065463D01*
G01X0028416Y-065836D01*
G01X0028414Y-065854D01*
G01X0028410Y-065868D01*
G01X0028403Y-065881D01*
G01X0028393Y-065893D01*
G01X0028381Y-065903D01*
G01X0028368Y-065910D01*
G01X0028354Y-065914D01*
G01X0028336Y-065916D01*
G01X0027766Y-065916D01*
G01X0027749Y-065914D01*
G01X0027734Y-065910D01*
G01X0027721Y-065903D01*
G01X0027709Y-065893D01*
G01X0027700Y-065881D01*
G01X0027693Y-065868D01*
G01X0027688Y-065854D01*
G01X0027687Y-065836D01*
G01X0027687Y-065463D01*
G01X0027688Y-065445D01*
G01X0027693Y-065431D01*
G01X0027700Y-065418D01*
G01X0027709Y-065406D01*
G01X0027721Y-065397D01*
G01X0027734Y-065390D01*
G01X0027749Y-065385D01*
G01X0027766Y-065383D01*
G01X0028336Y-065383D01*
G01X0028354Y-065385D01*
G01X0028354Y-065385D01*
G37*
G36*
G01X0024264Y-065375D02*
G01X0024277Y-065379D01*
G01X0024289Y-065386D01*
G01X0024300Y-065395D01*
G01X0024309Y-065406D01*
G01X0024316Y-065418D01*
G01X0024320Y-065431D01*
G01X0024321Y-065448D01*
G01X0024321Y-065684D01*
G01X0024320Y-065701D01*
G01X0024316Y-065714D01*
G01X0024309Y-065726D01*
G01X0024300Y-065737D01*
G01X0024289Y-065746D01*
G01X0024277Y-065753D01*
G01X0024264Y-065757D01*
G01X0024247Y-065758D01*
G01X0023981Y-065758D01*
G01X0023965Y-065757D01*
G01X0023951Y-065753D01*
G01X0023939Y-065746D01*
G01X0023928Y-065737D01*
G01X0023919Y-065726D01*
G01X0023913Y-065714D01*
G01X0023909Y-065701D01*
G01X0023907Y-065684D01*
G01X0023907Y-065448D01*
G01X0023909Y-065431D01*
G01X0023913Y-065418D01*
G01X0023919Y-065406D01*
G01X0023928Y-065395D01*
G01X0023939Y-065386D01*
G01X0023951Y-065379D01*
G01X0023965Y-065375D01*
G01X0023981Y-065374D01*
G01X0024247Y-065374D01*
G01X0024264Y-065375D01*
G01X0024264Y-065375D01*
G37*
G36*
G01X0025378Y-065369D02*
G01X0025386Y-065371D01*
G01X0025394Y-065375D01*
G01X0025401Y-065381D01*
G01X0025406Y-065388D01*
G01X0025410Y-065395D01*
G01X0025413Y-065404D01*
G01X0025414Y-065415D01*
G01X0025414Y-065597D01*
G01X0025413Y-065608D01*
G01X0025410Y-065617D01*
G01X0025406Y-065624D01*
G01X0025401Y-065631D01*
G01X0025394Y-065636D01*
G01X0025386Y-065640D01*
G01X0025378Y-065643D01*
G01X0025367Y-065644D01*
G01X0024653Y-065644D01*
G01X0024642Y-065643D01*
G01X0024633Y-065640D01*
G01X0024626Y-065636D01*
G01X0024619Y-065631D01*
G01X0024614Y-065624D01*
G01X0024610Y-065617D01*
G01X0024607Y-065608D01*
G01X0024606Y-065597D01*
G01X0024606Y-065415D01*
G01X0024607Y-065404D01*
G01X0024610Y-065395D01*
G01X0024614Y-065388D01*
G01X0024619Y-065381D01*
G01X0024626Y-065375D01*
G01X0024633Y-065371D01*
G01X0024642Y-065369D01*
G01X0024653Y-065368D01*
G01X0025367Y-065368D01*
G01X0025378Y-065369D01*
G01X0025378Y-065369D01*
G37*
G36*
G01X0027327Y-065369D02*
G01X0027335Y-065371D01*
G01X0027343Y-065375D01*
G01X0027349Y-065381D01*
G01X0027355Y-065388D01*
G01X0027359Y-065395D01*
G01X0027362Y-065404D01*
G01X0027363Y-065415D01*
G01X0027363Y-065597D01*
G01X0027362Y-065608D01*
G01X0027359Y-065617D01*
G01X0027355Y-065624D01*
G01X0027349Y-065631D01*
G01X0027343Y-065636D01*
G01X0027335Y-065640D01*
G01X0027327Y-065643D01*
G01X0027316Y-065644D01*
G01X0026602Y-065644D01*
G01X0026591Y-065643D01*
G01X0026582Y-065640D01*
G01X0026575Y-065636D01*
G01X0026568Y-065631D01*
G01X0026562Y-065624D01*
G01X0026558Y-065617D01*
G01X0026556Y-065608D01*
G01X0026555Y-065597D01*
G01X0026555Y-065415D01*
G01X0026556Y-065404D01*
G01X0026558Y-065395D01*
G01X0026562Y-065388D01*
G01X0026568Y-065381D01*
G01X0026575Y-065375D01*
G01X0026582Y-065371D01*
G01X0026591Y-065369D01*
G01X0026602Y-065368D01*
G01X0027316Y-065368D01*
G01X0027327Y-065369D01*
G01X0027327Y-065369D01*
G37*
G36*
G01X0036878Y-064829D02*
G01X0036879Y-064838D01*
G01X0036882Y-064848D01*
G01X0036886Y-064856D01*
G01X0036892Y-064864D01*
G01X0036900Y-064870D01*
G01X0036908Y-064874D01*
G01X0036918Y-064877D01*
G01X0036927Y-064878D01*
G01X0036976Y-064878D01*
G01X0036976Y-065543D01*
G01X0035071Y-065543D01*
G01X0035071Y-064878D01*
G01X0035120Y-064878D01*
G01X0035130Y-064877D01*
G01X0035139Y-064874D01*
G01X0035147Y-064870D01*
G01X0035155Y-064864D01*
G01X0035161Y-064856D01*
G01X0035166Y-064848D01*
G01X0035168Y-064838D01*
G01X0035169Y-064829D01*
G01X0035169Y-063671D01*
G01X0036878Y-063671D01*
G01X0036878Y-064829D01*
G01X0036878Y-064829D01*
G37*
G36*
G01X0043768Y-064829D02*
G01X0043769Y-064838D01*
G01X0043771Y-064848D01*
G01X0043776Y-064856D01*
G01X0043782Y-064864D01*
G01X0043790Y-064870D01*
G01X0043798Y-064874D01*
G01X0043807Y-064877D01*
G01X0043817Y-064878D01*
G01X0043866Y-064878D01*
G01X0043866Y-065543D01*
G01X0041961Y-065543D01*
G01X0041961Y-064878D01*
G01X0042010Y-064878D01*
G01X0042019Y-064877D01*
G01X0042029Y-064874D01*
G01X0042037Y-064870D01*
G01X0042045Y-064864D01*
G01X0042051Y-064856D01*
G01X0042055Y-064848D01*
G01X0042058Y-064838D01*
G01X0042059Y-064829D01*
G01X0042059Y-063671D01*
G01X0043768Y-063671D01*
G01X0043768Y-064829D01*
G01X0043768Y-064829D01*
G37*
G36*
G01X0027327Y-064869D02*
G01X0027335Y-064871D01*
G01X0027343Y-064875D01*
G01X0027349Y-064881D01*
G01X0027355Y-064888D01*
G01X0027359Y-064895D01*
G01X0027362Y-064904D01*
G01X0027363Y-064915D01*
G01X0027363Y-065097D01*
G01X0027362Y-065108D01*
G01X0027359Y-065117D01*
G01X0027355Y-065124D01*
G01X0027349Y-065131D01*
G01X0027343Y-065136D01*
G01X0027335Y-065140D01*
G01X0027327Y-065143D01*
G01X0027316Y-065144D01*
G01X0026602Y-065144D01*
G01X0026591Y-065143D01*
G01X0026582Y-065140D01*
G01X0026575Y-065136D01*
G01X0026568Y-065131D01*
G01X0026562Y-065124D01*
G01X0026558Y-065117D01*
G01X0026556Y-065108D01*
G01X0026555Y-065097D01*
G01X0026555Y-064915D01*
G01X0026556Y-064904D01*
G01X0026558Y-064895D01*
G01X0026562Y-064888D01*
G01X0026568Y-064881D01*
G01X0026575Y-064875D01*
G01X0026582Y-064871D01*
G01X0026591Y-064869D01*
G01X0026602Y-064868D01*
G01X0027316Y-064868D01*
G01X0027327Y-064869D01*
G01X0027327Y-064869D01*
G37*
G36*
G01X0025378Y-064869D02*
G01X0025386Y-064871D01*
G01X0025394Y-064875D01*
G01X0025401Y-064881D01*
G01X0025406Y-064888D01*
G01X0025410Y-064895D01*
G01X0025413Y-064904D01*
G01X0025414Y-064915D01*
G01X0025414Y-065097D01*
G01X0025413Y-065108D01*
G01X0025410Y-065117D01*
G01X0025406Y-065124D01*
G01X0025401Y-065131D01*
G01X0025394Y-065136D01*
G01X0025386Y-065140D01*
G01X0025378Y-065143D01*
G01X0025367Y-065144D01*
G01X0024653Y-065144D01*
G01X0024642Y-065143D01*
G01X0024633Y-065140D01*
G01X0024626Y-065136D01*
G01X0024619Y-065131D01*
G01X0024614Y-065124D01*
G01X0024610Y-065117D01*
G01X0024607Y-065108D01*
G01X0024606Y-065097D01*
G01X0024606Y-064915D01*
G01X0024607Y-064904D01*
G01X0024610Y-064895D01*
G01X0024614Y-064888D01*
G01X0024619Y-064881D01*
G01X0024626Y-064875D01*
G01X0024633Y-064871D01*
G01X0024642Y-064869D01*
G01X0024653Y-064868D01*
G01X0025367Y-064868D01*
G01X0025378Y-064869D01*
G01X0025378Y-064869D01*
G37*
G36*
G01X0024264Y-064755D02*
G01X0024277Y-064759D01*
G01X0024289Y-064766D01*
G01X0024300Y-064775D01*
G01X0024309Y-064785D01*
G01X0024316Y-064798D01*
G01X0024320Y-064811D01*
G01X0024321Y-064828D01*
G01X0024321Y-065064D01*
G01X0024320Y-065081D01*
G01X0024316Y-065094D01*
G01X0024309Y-065106D01*
G01X0024300Y-065117D01*
G01X0024289Y-065126D01*
G01X0024277Y-065133D01*
G01X0024264Y-065137D01*
G01X0024247Y-065138D01*
G01X0023981Y-065138D01*
G01X0023965Y-065137D01*
G01X0023951Y-065133D01*
G01X0023939Y-065126D01*
G01X0023928Y-065117D01*
G01X0023919Y-065106D01*
G01X0023913Y-065094D01*
G01X0023909Y-065081D01*
G01X0023907Y-065064D01*
G01X0023907Y-064828D01*
G01X0023909Y-064811D01*
G01X0023913Y-064798D01*
G01X0023919Y-064785D01*
G01X0023928Y-064775D01*
G01X0023939Y-064766D01*
G01X0023951Y-064759D01*
G01X0023965Y-064755D01*
G01X0023981Y-064754D01*
G01X0024247Y-064754D01*
G01X0024264Y-064755D01*
G01X0024264Y-064755D01*
G37*
G36*
G01X0049792Y-063692D02*
G01X0049806Y-063696D01*
G01X0049819Y-063703D01*
G01X0049831Y-063713D01*
G01X0049840Y-063724D01*
G01X0049847Y-063737D01*
G01X0049851Y-063751D01*
G01X0049853Y-063768D01*
G01X0049853Y-064972D01*
G01X0049851Y-064989D01*
G01X0049847Y-065003D01*
G01X0049840Y-065016D01*
G01X0049831Y-065028D01*
G01X0049819Y-065037D01*
G01X0049806Y-065044D01*
G01X0049792Y-065048D01*
G01X0049775Y-065050D01*
G01X0049358Y-065050D01*
G01X0049341Y-065048D01*
G01X0049327Y-065044D01*
G01X0049315Y-065037D01*
G01X0049303Y-065028D01*
G01X0049294Y-065016D01*
G01X0049287Y-065003D01*
G01X0049283Y-064989D01*
G01X0049281Y-064972D01*
G01X0049281Y-063768D01*
G01X0049283Y-063751D01*
G01X0049287Y-063737D01*
G01X0049294Y-063724D01*
G01X0049303Y-063713D01*
G01X0049315Y-063703D01*
G01X0049327Y-063696D01*
G01X0049341Y-063692D01*
G01X0049358Y-063691D01*
G01X0049775Y-063691D01*
G01X0049792Y-063692D01*
G01X0049792Y-063692D01*
G37*
G36*
G01X0047509Y-063692D02*
G01X0047523Y-063696D01*
G01X0047536Y-063703D01*
G01X0047547Y-063713D01*
G01X0047556Y-063724D01*
G01X0047563Y-063737D01*
G01X0047568Y-063751D01*
G01X0047569Y-063768D01*
G01X0047569Y-064972D01*
G01X0047568Y-064989D01*
G01X0047563Y-065003D01*
G01X0047556Y-065016D01*
G01X0047547Y-065028D01*
G01X0047536Y-065037D01*
G01X0047523Y-065044D01*
G01X0047509Y-065048D01*
G01X0047492Y-065050D01*
G01X0047075Y-065050D01*
G01X0047058Y-065048D01*
G01X0047044Y-065044D01*
G01X0047031Y-065037D01*
G01X0047020Y-065028D01*
G01X0047010Y-065016D01*
G01X0047004Y-065003D01*
G01X0046999Y-064989D01*
G01X0046998Y-064972D01*
G01X0046998Y-063768D01*
G01X0046999Y-063751D01*
G01X0047004Y-063737D01*
G01X0047010Y-063724D01*
G01X0047020Y-063713D01*
G01X0047031Y-063703D01*
G01X0047044Y-063696D01*
G01X0047058Y-063692D01*
G01X0047075Y-063691D01*
G01X0047492Y-063691D01*
G01X0047509Y-063692D01*
G01X0047509Y-063692D01*
G37*
G36*
G01X0023629Y-064440D02*
G01X0023644Y-064445D01*
G01X0023657Y-064452D01*
G01X0023669Y-064461D01*
G01X0023678Y-064473D01*
G01X0023685Y-064486D01*
G01X0023690Y-064501D01*
G01X0023691Y-064518D01*
G01X0023691Y-064892D01*
G01X0023690Y-064909D01*
G01X0023685Y-064923D01*
G01X0023678Y-064937D01*
G01X0023669Y-064948D01*
G01X0023657Y-064958D01*
G01X0023644Y-064965D01*
G01X0023629Y-064969D01*
G01X0023612Y-064971D01*
G01X0023042Y-064971D01*
G01X0023024Y-064969D01*
G01X0023010Y-064965D01*
G01X0022997Y-064958D01*
G01X0022985Y-064948D01*
G01X0022975Y-064937D01*
G01X0022968Y-064923D01*
G01X0022964Y-064909D01*
G01X0022962Y-064892D01*
G01X0022962Y-064518D01*
G01X0022964Y-064501D01*
G01X0022968Y-064486D01*
G01X0022975Y-064473D01*
G01X0022985Y-064461D01*
G01X0022997Y-064452D01*
G01X0023010Y-064445D01*
G01X0023024Y-064440D01*
G01X0023042Y-064439D01*
G01X0023612Y-064439D01*
G01X0023629Y-064440D01*
G01X0023629Y-064440D01*
G37*
G36*
G01X0028354Y-064283D02*
G01X0028368Y-064287D01*
G01X0028381Y-064294D01*
G01X0028393Y-064304D01*
G01X0028403Y-064315D01*
G01X0028410Y-064329D01*
G01X0028414Y-064343D01*
G01X0028416Y-064360D01*
G01X0028416Y-064734D01*
G01X0028414Y-064751D01*
G01X0028410Y-064766D01*
G01X0028403Y-064779D01*
G01X0028393Y-064791D01*
G01X0028381Y-064800D01*
G01X0028368Y-064807D01*
G01X0028354Y-064812D01*
G01X0028336Y-064813D01*
G01X0027766Y-064813D01*
G01X0027749Y-064812D01*
G01X0027734Y-064807D01*
G01X0027721Y-064800D01*
G01X0027709Y-064791D01*
G01X0027700Y-064779D01*
G01X0027693Y-064766D01*
G01X0027688Y-064751D01*
G01X0027687Y-064734D01*
G01X0027687Y-064360D01*
G01X0027688Y-064343D01*
G01X0027693Y-064329D01*
G01X0027700Y-064315D01*
G01X0027709Y-064304D01*
G01X0027721Y-064294D01*
G01X0027734Y-064287D01*
G01X0027749Y-064283D01*
G01X0027766Y-064281D01*
G01X0028336Y-064281D01*
G01X0028354Y-064283D01*
G01X0028354Y-064283D01*
G37*
G36*
G01X0027327Y-064369D02*
G01X0027335Y-064371D01*
G01X0027343Y-064375D01*
G01X0027349Y-064381D01*
G01X0027355Y-064388D01*
G01X0027359Y-064395D01*
G01X0027362Y-064404D01*
G01X0027363Y-064415D01*
G01X0027363Y-064597D01*
G01X0027362Y-064608D01*
G01X0027359Y-064617D01*
G01X0027355Y-064624D01*
G01X0027349Y-064631D01*
G01X0027343Y-064636D01*
G01X0027335Y-064640D01*
G01X0027327Y-064643D01*
G01X0027316Y-064644D01*
G01X0026602Y-064644D01*
G01X0026591Y-064643D01*
G01X0026582Y-064640D01*
G01X0026575Y-064636D01*
G01X0026568Y-064631D01*
G01X0026562Y-064624D01*
G01X0026558Y-064617D01*
G01X0026556Y-064608D01*
G01X0026555Y-064597D01*
G01X0026555Y-064415D01*
G01X0026556Y-064404D01*
G01X0026558Y-064395D01*
G01X0026562Y-064388D01*
G01X0026568Y-064381D01*
G01X0026575Y-064375D01*
G01X0026582Y-064371D01*
G01X0026591Y-064369D01*
G01X0026602Y-064368D01*
G01X0027316Y-064368D01*
G01X0027327Y-064369D01*
G01X0027327Y-064369D01*
G37*
G36*
G01X0025378Y-064369D02*
G01X0025386Y-064371D01*
G01X0025394Y-064375D01*
G01X0025401Y-064381D01*
G01X0025406Y-064388D01*
G01X0025410Y-064395D01*
G01X0025413Y-064404D01*
G01X0025414Y-064415D01*
G01X0025414Y-064597D01*
G01X0025413Y-064608D01*
G01X0025410Y-064617D01*
G01X0025406Y-064624D01*
G01X0025401Y-064631D01*
G01X0025394Y-064636D01*
G01X0025386Y-064640D01*
G01X0025378Y-064643D01*
G01X0025367Y-064644D01*
G01X0024653Y-064644D01*
G01X0024642Y-064643D01*
G01X0024633Y-064640D01*
G01X0024626Y-064636D01*
G01X0024619Y-064631D01*
G01X0024614Y-064624D01*
G01X0024610Y-064617D01*
G01X0024607Y-064608D01*
G01X0024606Y-064597D01*
G01X0024606Y-064415D01*
G01X0024607Y-064404D01*
G01X0024610Y-064395D01*
G01X0024614Y-064388D01*
G01X0024619Y-064381D01*
G01X0024626Y-064375D01*
G01X0024633Y-064371D01*
G01X0024642Y-064369D01*
G01X0024653Y-064368D01*
G01X0025367Y-064368D01*
G01X0025378Y-064369D01*
G01X0025378Y-064369D01*
G37*
G36*
G01X0025709Y-063760D02*
G01X0024685Y-063760D01*
G01X0024685Y-063011D01*
G01X0025709Y-063011D01*
G01X0025709Y-063760D01*
G01X0025709Y-063760D01*
G37*
G36*
G01X0027284Y-063760D02*
G01X0026259Y-063760D01*
G01X0026259Y-063011D01*
G01X0027284Y-063011D01*
G01X0027284Y-063760D01*
G01X0027284Y-063760D01*
G37*
G36*
G01X0043331Y-063311D02*
G01X0043000Y-063311D01*
G01X0043000Y-062803D01*
G01X0043331Y-062803D01*
G01X0043331Y-063311D01*
G01X0043331Y-063311D01*
G37*
G36*
G01X0043831Y-063311D02*
G01X0043500Y-063311D01*
G01X0043500Y-062803D01*
G01X0043831Y-062803D01*
G01X0043831Y-063311D01*
G01X0043831Y-063311D01*
G37*
G36*
G01X0035441Y-063311D02*
G01X0035110Y-063311D01*
G01X0035110Y-062803D01*
G01X0035441Y-062803D01*
G01X0035441Y-063311D01*
G01X0035441Y-063311D01*
G37*
G36*
G01X0042831Y-063311D02*
G01X0042500Y-063311D01*
G01X0042500Y-062803D01*
G01X0042831Y-062803D01*
G01X0042831Y-063311D01*
G01X0042831Y-063311D01*
G37*
G36*
G01X0042331Y-063311D02*
G01X0042000Y-063311D01*
G01X0042000Y-062803D01*
G01X0042331Y-062803D01*
G01X0042331Y-063311D01*
G01X0042331Y-063311D01*
G37*
G36*
G01X0035941Y-063311D02*
G01X0035610Y-063311D01*
G01X0035610Y-062803D01*
G01X0035941Y-062803D01*
G01X0035941Y-063311D01*
G01X0035941Y-063311D01*
G37*
G36*
G01X0036441Y-063311D02*
G01X0036110Y-063311D01*
G01X0036110Y-062803D01*
G01X0036441Y-062803D01*
G01X0036441Y-063311D01*
G01X0036441Y-063311D01*
G37*
G36*
G01X0036941Y-063311D02*
G01X0036610Y-063311D01*
G01X0036610Y-062803D01*
G01X0036941Y-062803D01*
G01X0036941Y-063311D01*
G01X0036941Y-063311D01*
G37*
G36*
G01X0039703Y-060750D02*
G01X0039842Y-060777D01*
G01X0040075Y-060874D01*
G01X0040197Y-060955D01*
G01X0040273Y-061006D01*
G01X0040284Y-061014D01*
G01X0040463Y-061192D01*
G01X0040603Y-061402D01*
G01X0040699Y-061635D01*
G01X0040709Y-061681D01*
G01X0040748Y-061882D01*
G01X0040748Y-062134D01*
G01X0040732Y-062216D01*
G01X0040699Y-062381D01*
G01X0040603Y-062614D01*
G01X0040463Y-062824D01*
G01X0040284Y-063002D01*
G01X0040075Y-063142D01*
G01X0039842Y-063239D01*
G01X0039718Y-063263D01*
G01X0039595Y-063288D01*
G01X0039342Y-063288D01*
G01X0039219Y-063263D01*
G01X0039095Y-063239D01*
G01X0038862Y-063142D01*
G01X0038653Y-063002D01*
G01X0038474Y-062824D01*
G01X0038334Y-062614D01*
G01X0038238Y-062381D01*
G01X0038205Y-062216D01*
G01X0038189Y-062134D01*
G01X0038189Y-061882D01*
G01X0038228Y-061681D01*
G01X0038238Y-061635D01*
G01X0038334Y-061402D01*
G01X0038474Y-061192D01*
G01X0038653Y-061014D01*
G01X0038664Y-061006D01*
G01X0038740Y-060955D01*
G01X0038862Y-060874D01*
G01X0039095Y-060777D01*
G01X0039234Y-060750D01*
G01X0039342Y-060728D01*
G01X0039595Y-060728D01*
G01X0039703Y-060750D01*
G01X0039703Y-060750D01*
G37*
G36*
G01X0031957Y-061517D02*
G01X0031969Y-061520D01*
G01X0031980Y-061526D01*
G01X0031990Y-061534D01*
G01X0031997Y-061544D01*
G01X0032003Y-061554D01*
G01X0032007Y-061566D01*
G01X0032008Y-061581D01*
G01X0032008Y-063065D01*
G01X0032007Y-063080D01*
G01X0032003Y-063091D01*
G01X0031997Y-063102D01*
G01X0031990Y-063112D01*
G01X0031980Y-063119D01*
G01X0031969Y-063125D01*
G01X0031957Y-063129D01*
G01X0031943Y-063130D01*
G01X0031049Y-063130D01*
G01X0031035Y-063129D01*
G01X0031023Y-063125D01*
G01X0031012Y-063119D01*
G01X0031002Y-063112D01*
G01X0030995Y-063102D01*
G01X0030989Y-063091D01*
G01X0030985Y-063080D01*
G01X0030984Y-063065D01*
G01X0030984Y-061581D01*
G01X0030985Y-061566D01*
G01X0030989Y-061554D01*
G01X0030995Y-061544D01*
G01X0031002Y-061534D01*
G01X0031012Y-061526D01*
G01X0031023Y-061520D01*
G01X0031035Y-061517D01*
G01X0031049Y-061515D01*
G01X0031943Y-061515D01*
G01X0031957Y-061517D01*
G01X0031957Y-061517D01*
G37*
G36*
G01X0047569Y-063091D02*
G01X0046958Y-063091D01*
G01X0046958Y-062106D01*
G01X0047569Y-062106D01*
G01X0047569Y-063091D01*
G01X0047569Y-063091D01*
G37*
G36*
G01X0049892Y-063091D02*
G01X0049281Y-063091D01*
G01X0049281Y-062106D01*
G01X0049892Y-062106D01*
G01X0049892Y-063091D01*
G01X0049892Y-063091D01*
G37*
G36*
G01X0046508Y-062619D02*
G01X0046521Y-062623D01*
G01X0046533Y-062630D01*
G01X0046544Y-062639D01*
G01X0046553Y-062650D01*
G01X0046560Y-062662D01*
G01X0046564Y-062675D01*
G01X0046565Y-062692D01*
G01X0046565Y-062928D01*
G01X0046564Y-062945D01*
G01X0046560Y-062958D01*
G01X0046553Y-062970D01*
G01X0046544Y-062981D01*
G01X0046533Y-062990D01*
G01X0046521Y-062997D01*
G01X0046508Y-063001D01*
G01X0046491Y-063002D01*
G01X0046225Y-063002D01*
G01X0046209Y-063001D01*
G01X0046195Y-062997D01*
G01X0046183Y-062990D01*
G01X0046172Y-062981D01*
G01X0046163Y-062970D01*
G01X0046157Y-062958D01*
G01X0046153Y-062945D01*
G01X0046151Y-062928D01*
G01X0046151Y-062692D01*
G01X0046153Y-062675D01*
G01X0046157Y-062662D01*
G01X0046163Y-062650D01*
G01X0046172Y-062639D01*
G01X0046183Y-062630D01*
G01X0046195Y-062623D01*
G01X0046209Y-062619D01*
G01X0046225Y-062618D01*
G01X0046491Y-062618D01*
G01X0046508Y-062619D01*
G01X0046508Y-062619D01*
G37*
G36*
G01X0034894Y-062196D02*
G01X0034907Y-062200D01*
G01X0034919Y-062207D01*
G01X0034930Y-062216D01*
G01X0034939Y-062226D01*
G01X0034946Y-062239D01*
G01X0034950Y-062252D01*
G01X0034951Y-062268D01*
G01X0034951Y-062535D01*
G01X0034950Y-062551D01*
G01X0034946Y-062564D01*
G01X0034939Y-062577D01*
G01X0034930Y-062588D01*
G01X0034919Y-062596D01*
G01X0034907Y-062603D01*
G01X0034894Y-062607D01*
G01X0034877Y-062609D01*
G01X0034641Y-062609D01*
G01X0034624Y-062607D01*
G01X0034611Y-062603D01*
G01X0034598Y-062596D01*
G01X0034588Y-062588D01*
G01X0034579Y-062577D01*
G01X0034572Y-062564D01*
G01X0034568Y-062551D01*
G01X0034567Y-062535D01*
G01X0034567Y-062268D01*
G01X0034568Y-062252D01*
G01X0034572Y-062239D01*
G01X0034579Y-062226D01*
G01X0034588Y-062216D01*
G01X0034598Y-062207D01*
G01X0034611Y-062200D01*
G01X0034624Y-062196D01*
G01X0034641Y-062194D01*
G01X0034877Y-062194D01*
G01X0034894Y-062196D01*
G01X0034894Y-062196D01*
G37*
G36*
G01X0041980Y-062196D02*
G01X0041994Y-062200D01*
G01X0042006Y-062207D01*
G01X0042017Y-062216D01*
G01X0042026Y-062226D01*
G01X0042032Y-062239D01*
G01X0042036Y-062252D01*
G01X0042038Y-062268D01*
G01X0042038Y-062535D01*
G01X0042036Y-062551D01*
G01X0042032Y-062564D01*
G01X0042026Y-062577D01*
G01X0042017Y-062588D01*
G01X0042006Y-062596D01*
G01X0041994Y-062603D01*
G01X0041980Y-062607D01*
G01X0041964Y-062609D01*
G01X0041727Y-062609D01*
G01X0041711Y-062607D01*
G01X0041697Y-062603D01*
G01X0041685Y-062596D01*
G01X0041674Y-062588D01*
G01X0041665Y-062577D01*
G01X0041659Y-062564D01*
G01X0041655Y-062551D01*
G01X0041653Y-062535D01*
G01X0041653Y-062268D01*
G01X0041655Y-062252D01*
G01X0041659Y-062239D01*
G01X0041665Y-062226D01*
G01X0041674Y-062216D01*
G01X0041685Y-062207D01*
G01X0041697Y-062200D01*
G01X0041711Y-062196D01*
G01X0041727Y-062194D01*
G01X0041964Y-062194D01*
G01X0041980Y-062196D01*
G01X0041980Y-062196D01*
G37*
G36*
G01X0044736Y-062196D02*
G01X0044749Y-062200D01*
G01X0044762Y-062207D01*
G01X0044773Y-062216D01*
G01X0044781Y-062226D01*
G01X0044788Y-062239D01*
G01X0044792Y-062252D01*
G01X0044794Y-062268D01*
G01X0044794Y-062535D01*
G01X0044792Y-062551D01*
G01X0044788Y-062564D01*
G01X0044781Y-062577D01*
G01X0044773Y-062588D01*
G01X0044762Y-062596D01*
G01X0044749Y-062603D01*
G01X0044736Y-062607D01*
G01X0044720Y-062609D01*
G01X0044483Y-062609D01*
G01X0044467Y-062607D01*
G01X0044453Y-062603D01*
G01X0044441Y-062596D01*
G01X0044430Y-062588D01*
G01X0044421Y-062577D01*
G01X0044415Y-062564D01*
G01X0044411Y-062551D01*
G01X0044409Y-062535D01*
G01X0044409Y-062268D01*
G01X0044411Y-062252D01*
G01X0044415Y-062239D01*
G01X0044421Y-062226D01*
G01X0044430Y-062216D01*
G01X0044441Y-062207D01*
G01X0044453Y-062200D01*
G01X0044467Y-062196D01*
G01X0044483Y-062194D01*
G01X0044720Y-062194D01*
G01X0044736Y-062196D01*
G01X0044736Y-062196D01*
G37*
G36*
G01X0044116Y-062196D02*
G01X0044129Y-062200D01*
G01X0044142Y-062207D01*
G01X0044152Y-062216D01*
G01X0044161Y-062226D01*
G01X0044168Y-062239D01*
G01X0044172Y-062252D01*
G01X0044174Y-062268D01*
G01X0044174Y-062535D01*
G01X0044172Y-062551D01*
G01X0044168Y-062564D01*
G01X0044161Y-062577D01*
G01X0044152Y-062588D01*
G01X0044142Y-062596D01*
G01X0044129Y-062603D01*
G01X0044116Y-062607D01*
G01X0044100Y-062609D01*
G01X0043863Y-062609D01*
G01X0043847Y-062607D01*
G01X0043833Y-062603D01*
G01X0043821Y-062596D01*
G01X0043810Y-062588D01*
G01X0043801Y-062577D01*
G01X0043795Y-062564D01*
G01X0043791Y-062551D01*
G01X0043789Y-062535D01*
G01X0043789Y-062268D01*
G01X0043791Y-062252D01*
G01X0043795Y-062239D01*
G01X0043801Y-062226D01*
G01X0043810Y-062216D01*
G01X0043821Y-062207D01*
G01X0043833Y-062200D01*
G01X0043847Y-062196D01*
G01X0043863Y-062194D01*
G01X0044100Y-062194D01*
G01X0044116Y-062196D01*
G01X0044116Y-062196D01*
G37*
G36*
G01X0037226Y-062196D02*
G01X0037240Y-062200D01*
G01X0037252Y-062207D01*
G01X0037263Y-062216D01*
G01X0037272Y-062226D01*
G01X0037278Y-062239D01*
G01X0037282Y-062252D01*
G01X0037284Y-062268D01*
G01X0037284Y-062535D01*
G01X0037282Y-062551D01*
G01X0037278Y-062564D01*
G01X0037272Y-062577D01*
G01X0037263Y-062588D01*
G01X0037252Y-062596D01*
G01X0037240Y-062603D01*
G01X0037226Y-062607D01*
G01X0037210Y-062609D01*
G01X0036973Y-062609D01*
G01X0036957Y-062607D01*
G01X0036943Y-062603D01*
G01X0036931Y-062596D01*
G01X0036920Y-062588D01*
G01X0036911Y-062577D01*
G01X0036905Y-062564D01*
G01X0036901Y-062551D01*
G01X0036899Y-062535D01*
G01X0036899Y-062268D01*
G01X0036901Y-062252D01*
G01X0036905Y-062239D01*
G01X0036911Y-062226D01*
G01X0036920Y-062216D01*
G01X0036931Y-062207D01*
G01X0036943Y-062200D01*
G01X0036957Y-062196D01*
G01X0036973Y-062194D01*
G01X0037210Y-062194D01*
G01X0037226Y-062196D01*
G01X0037226Y-062196D01*
G37*
G36*
G01X0034273Y-062196D02*
G01X0034287Y-062200D01*
G01X0034299Y-062207D01*
G01X0034310Y-062216D01*
G01X0034319Y-062226D01*
G01X0034325Y-062239D01*
G01X0034329Y-062252D01*
G01X0034331Y-062268D01*
G01X0034331Y-062535D01*
G01X0034329Y-062551D01*
G01X0034325Y-062564D01*
G01X0034319Y-062577D01*
G01X0034310Y-062588D01*
G01X0034299Y-062596D01*
G01X0034287Y-062603D01*
G01X0034273Y-062607D01*
G01X0034257Y-062609D01*
G01X0034020Y-062609D01*
G01X0034004Y-062607D01*
G01X0033991Y-062603D01*
G01X0033978Y-062596D01*
G01X0033968Y-062588D01*
G01X0033959Y-062577D01*
G01X0033952Y-062564D01*
G01X0033948Y-062551D01*
G01X0033946Y-062535D01*
G01X0033946Y-062268D01*
G01X0033948Y-062252D01*
G01X0033952Y-062239D01*
G01X0033959Y-062226D01*
G01X0033968Y-062216D01*
G01X0033978Y-062207D01*
G01X0033991Y-062200D01*
G01X0034004Y-062196D01*
G01X0034020Y-062194D01*
G01X0034257Y-062194D01*
G01X0034273Y-062196D01*
G01X0034273Y-062196D01*
G37*
G36*
G01X0041360Y-062196D02*
G01X0041373Y-062200D01*
G01X0041386Y-062207D01*
G01X0041397Y-062216D01*
G01X0041405Y-062226D01*
G01X0041412Y-062239D01*
G01X0041416Y-062252D01*
G01X0041418Y-062268D01*
G01X0041418Y-062535D01*
G01X0041416Y-062551D01*
G01X0041412Y-062564D01*
G01X0041405Y-062577D01*
G01X0041397Y-062588D01*
G01X0041386Y-062596D01*
G01X0041373Y-062603D01*
G01X0041360Y-062607D01*
G01X0041344Y-062609D01*
G01X0041107Y-062609D01*
G01X0041091Y-062607D01*
G01X0041077Y-062603D01*
G01X0041065Y-062596D01*
G01X0041054Y-062588D01*
G01X0041045Y-062577D01*
G01X0041039Y-062564D01*
G01X0041035Y-062551D01*
G01X0041033Y-062535D01*
G01X0041033Y-062268D01*
G01X0041035Y-062252D01*
G01X0041039Y-062239D01*
G01X0041045Y-062226D01*
G01X0041054Y-062216D01*
G01X0041065Y-062207D01*
G01X0041077Y-062200D01*
G01X0041091Y-062196D01*
G01X0041107Y-062194D01*
G01X0041344Y-062194D01*
G01X0041360Y-062196D01*
G01X0041360Y-062196D01*
G37*
G36*
G01X0037846Y-062196D02*
G01X0037860Y-062200D01*
G01X0037872Y-062207D01*
G01X0037883Y-062216D01*
G01X0037892Y-062226D01*
G01X0037898Y-062239D01*
G01X0037902Y-062252D01*
G01X0037904Y-062268D01*
G01X0037904Y-062535D01*
G01X0037902Y-062551D01*
G01X0037898Y-062564D01*
G01X0037892Y-062577D01*
G01X0037883Y-062588D01*
G01X0037872Y-062596D01*
G01X0037860Y-062603D01*
G01X0037846Y-062607D01*
G01X0037830Y-062609D01*
G01X0037593Y-062609D01*
G01X0037577Y-062607D01*
G01X0037564Y-062603D01*
G01X0037551Y-062596D01*
G01X0037540Y-062588D01*
G01X0037532Y-062577D01*
G01X0037525Y-062564D01*
G01X0037521Y-062551D01*
G01X0037519Y-062535D01*
G01X0037519Y-062268D01*
G01X0037521Y-062252D01*
G01X0037525Y-062239D01*
G01X0037532Y-062226D01*
G01X0037540Y-062216D01*
G01X0037551Y-062207D01*
G01X0037564Y-062200D01*
G01X0037577Y-062196D01*
G01X0037593Y-062194D01*
G01X0037830Y-062194D01*
G01X0037846Y-062196D01*
G01X0037846Y-062196D01*
G37*
G36*
G01X0046508Y-061999D02*
G01X0046521Y-062003D01*
G01X0046533Y-062010D01*
G01X0046544Y-062019D01*
G01X0046553Y-062030D01*
G01X0046560Y-062042D01*
G01X0046564Y-062055D01*
G01X0046565Y-062072D01*
G01X0046565Y-062308D01*
G01X0046564Y-062325D01*
G01X0046560Y-062338D01*
G01X0046553Y-062350D01*
G01X0046544Y-062361D01*
G01X0046533Y-062370D01*
G01X0046521Y-062377D01*
G01X0046508Y-062381D01*
G01X0046491Y-062382D01*
G01X0046225Y-062382D01*
G01X0046209Y-062381D01*
G01X0046195Y-062377D01*
G01X0046183Y-062370D01*
G01X0046172Y-062361D01*
G01X0046163Y-062350D01*
G01X0046157Y-062338D01*
G01X0046153Y-062325D01*
G01X0046151Y-062308D01*
G01X0046151Y-062072D01*
G01X0046153Y-062055D01*
G01X0046157Y-062042D01*
G01X0046163Y-062030D01*
G01X0046172Y-062019D01*
G01X0046183Y-062010D01*
G01X0046195Y-062003D01*
G01X0046209Y-061999D01*
G01X0046225Y-061998D01*
G01X0046491Y-061998D01*
G01X0046508Y-061999D01*
G01X0046508Y-061999D01*
G37*
G36*
G01X0041360Y-061606D02*
G01X0041373Y-061610D01*
G01X0041386Y-061616D01*
G01X0041397Y-061625D01*
G01X0041405Y-061636D01*
G01X0041412Y-061648D01*
G01X0041416Y-061662D01*
G01X0041418Y-061678D01*
G01X0041418Y-061944D01*
G01X0041416Y-061960D01*
G01X0041412Y-061974D01*
G01X0041405Y-061986D01*
G01X0041397Y-061997D01*
G01X0041386Y-062006D01*
G01X0041373Y-062012D01*
G01X0041360Y-062017D01*
G01X0041344Y-062018D01*
G01X0041107Y-062018D01*
G01X0041091Y-062017D01*
G01X0041077Y-062012D01*
G01X0041065Y-062006D01*
G01X0041054Y-061997D01*
G01X0041045Y-061986D01*
G01X0041039Y-061974D01*
G01X0041035Y-061960D01*
G01X0041033Y-061944D01*
G01X0041033Y-061678D01*
G01X0041035Y-061662D01*
G01X0041039Y-061648D01*
G01X0041045Y-061636D01*
G01X0041054Y-061625D01*
G01X0041065Y-061616D01*
G01X0041077Y-061610D01*
G01X0041091Y-061606D01*
G01X0041107Y-061604D01*
G01X0041344Y-061604D01*
G01X0041360Y-061606D01*
G01X0041360Y-061606D01*
G37*
G36*
G01X0044116Y-061606D02*
G01X0044129Y-061610D01*
G01X0044142Y-061616D01*
G01X0044152Y-061625D01*
G01X0044161Y-061636D01*
G01X0044168Y-061648D01*
G01X0044172Y-061662D01*
G01X0044174Y-061678D01*
G01X0044174Y-061944D01*
G01X0044172Y-061960D01*
G01X0044168Y-061974D01*
G01X0044161Y-061986D01*
G01X0044152Y-061997D01*
G01X0044142Y-062006D01*
G01X0044129Y-062012D01*
G01X0044116Y-062017D01*
G01X0044100Y-062018D01*
G01X0043863Y-062018D01*
G01X0043847Y-062017D01*
G01X0043833Y-062012D01*
G01X0043821Y-062006D01*
G01X0043810Y-061997D01*
G01X0043801Y-061986D01*
G01X0043795Y-061974D01*
G01X0043791Y-061960D01*
G01X0043789Y-061944D01*
G01X0043789Y-061678D01*
G01X0043791Y-061662D01*
G01X0043795Y-061648D01*
G01X0043801Y-061636D01*
G01X0043810Y-061625D01*
G01X0043821Y-061616D01*
G01X0043833Y-061610D01*
G01X0043847Y-061606D01*
G01X0043863Y-061604D01*
G01X0044100Y-061604D01*
G01X0044116Y-061606D01*
G01X0044116Y-061606D01*
G37*
G36*
G01X0044736Y-061606D02*
G01X0044749Y-061610D01*
G01X0044762Y-061616D01*
G01X0044773Y-061625D01*
G01X0044781Y-061636D01*
G01X0044788Y-061648D01*
G01X0044792Y-061662D01*
G01X0044794Y-061678D01*
G01X0044794Y-061944D01*
G01X0044792Y-061960D01*
G01X0044788Y-061974D01*
G01X0044781Y-061986D01*
G01X0044773Y-061997D01*
G01X0044762Y-062006D01*
G01X0044749Y-062012D01*
G01X0044736Y-062017D01*
G01X0044720Y-062018D01*
G01X0044483Y-062018D01*
G01X0044467Y-062017D01*
G01X0044453Y-062012D01*
G01X0044441Y-062006D01*
G01X0044430Y-061997D01*
G01X0044421Y-061986D01*
G01X0044415Y-061974D01*
G01X0044411Y-061960D01*
G01X0044409Y-061944D01*
G01X0044409Y-061678D01*
G01X0044411Y-061662D01*
G01X0044415Y-061648D01*
G01X0044421Y-061636D01*
G01X0044430Y-061625D01*
G01X0044441Y-061616D01*
G01X0044453Y-061610D01*
G01X0044467Y-061606D01*
G01X0044483Y-061604D01*
G01X0044720Y-061604D01*
G01X0044736Y-061606D01*
G01X0044736Y-061606D01*
G37*
G36*
G01X0041980Y-061606D02*
G01X0041994Y-061610D01*
G01X0042006Y-061616D01*
G01X0042017Y-061625D01*
G01X0042026Y-061636D01*
G01X0042032Y-061648D01*
G01X0042036Y-061662D01*
G01X0042038Y-061678D01*
G01X0042038Y-061944D01*
G01X0042036Y-061960D01*
G01X0042032Y-061974D01*
G01X0042026Y-061986D01*
G01X0042017Y-061997D01*
G01X0042006Y-062006D01*
G01X0041994Y-062012D01*
G01X0041980Y-062017D01*
G01X0041964Y-062018D01*
G01X0041727Y-062018D01*
G01X0041711Y-062017D01*
G01X0041697Y-062012D01*
G01X0041685Y-062006D01*
G01X0041674Y-061997D01*
G01X0041665Y-061986D01*
G01X0041659Y-061974D01*
G01X0041655Y-061960D01*
G01X0041653Y-061944D01*
G01X0041653Y-061678D01*
G01X0041655Y-061662D01*
G01X0041659Y-061648D01*
G01X0041665Y-061636D01*
G01X0041674Y-061625D01*
G01X0041685Y-061616D01*
G01X0041697Y-061610D01*
G01X0041711Y-061606D01*
G01X0041727Y-061604D01*
G01X0041964Y-061604D01*
G01X0041980Y-061606D01*
G01X0041980Y-061606D01*
G37*
G36*
G01X0037846Y-061606D02*
G01X0037860Y-061610D01*
G01X0037872Y-061616D01*
G01X0037883Y-061625D01*
G01X0037892Y-061636D01*
G01X0037898Y-061648D01*
G01X0037902Y-061662D01*
G01X0037904Y-061678D01*
G01X0037904Y-061944D01*
G01X0037902Y-061960D01*
G01X0037898Y-061974D01*
G01X0037892Y-061986D01*
G01X0037883Y-061997D01*
G01X0037872Y-062006D01*
G01X0037860Y-062012D01*
G01X0037846Y-062017D01*
G01X0037830Y-062018D01*
G01X0037593Y-062018D01*
G01X0037577Y-062017D01*
G01X0037564Y-062012D01*
G01X0037551Y-062006D01*
G01X0037540Y-061997D01*
G01X0037532Y-061986D01*
G01X0037525Y-061974D01*
G01X0037521Y-061960D01*
G01X0037519Y-061944D01*
G01X0037519Y-061678D01*
G01X0037521Y-061662D01*
G01X0037525Y-061648D01*
G01X0037532Y-061636D01*
G01X0037540Y-061625D01*
G01X0037551Y-061616D01*
G01X0037564Y-061610D01*
G01X0037577Y-061606D01*
G01X0037593Y-061604D01*
G01X0037830Y-061604D01*
G01X0037846Y-061606D01*
G01X0037846Y-061606D01*
G37*
G36*
G01X0037226Y-061606D02*
G01X0037240Y-061610D01*
G01X0037252Y-061616D01*
G01X0037263Y-061625D01*
G01X0037272Y-061636D01*
G01X0037278Y-061648D01*
G01X0037282Y-061662D01*
G01X0037284Y-061678D01*
G01X0037284Y-061944D01*
G01X0037282Y-061960D01*
G01X0037278Y-061974D01*
G01X0037272Y-061986D01*
G01X0037263Y-061997D01*
G01X0037252Y-062006D01*
G01X0037240Y-062012D01*
G01X0037226Y-062017D01*
G01X0037210Y-062018D01*
G01X0036973Y-062018D01*
G01X0036957Y-062017D01*
G01X0036943Y-062012D01*
G01X0036931Y-062006D01*
G01X0036920Y-061997D01*
G01X0036911Y-061986D01*
G01X0036905Y-061974D01*
G01X0036901Y-061960D01*
G01X0036899Y-061944D01*
G01X0036899Y-061678D01*
G01X0036901Y-061662D01*
G01X0036905Y-061648D01*
G01X0036911Y-061636D01*
G01X0036920Y-061625D01*
G01X0036931Y-061616D01*
G01X0036943Y-061610D01*
G01X0036957Y-061606D01*
G01X0036973Y-061604D01*
G01X0037210Y-061604D01*
G01X0037226Y-061606D01*
G01X0037226Y-061606D01*
G37*
G36*
G01X0034894Y-061606D02*
G01X0034907Y-061610D01*
G01X0034919Y-061616D01*
G01X0034930Y-061625D01*
G01X0034939Y-061636D01*
G01X0034946Y-061648D01*
G01X0034950Y-061662D01*
G01X0034951Y-061678D01*
G01X0034951Y-061944D01*
G01X0034950Y-061960D01*
G01X0034946Y-061974D01*
G01X0034939Y-061986D01*
G01X0034930Y-061997D01*
G01X0034919Y-062006D01*
G01X0034907Y-062012D01*
G01X0034894Y-062017D01*
G01X0034877Y-062018D01*
G01X0034641Y-062018D01*
G01X0034624Y-062017D01*
G01X0034611Y-062012D01*
G01X0034598Y-062006D01*
G01X0034588Y-061997D01*
G01X0034579Y-061986D01*
G01X0034572Y-061974D01*
G01X0034568Y-061960D01*
G01X0034567Y-061944D01*
G01X0034567Y-061678D01*
G01X0034568Y-061662D01*
G01X0034572Y-061648D01*
G01X0034579Y-061636D01*
G01X0034588Y-061625D01*
G01X0034598Y-061616D01*
G01X0034611Y-061610D01*
G01X0034624Y-061606D01*
G01X0034641Y-061604D01*
G01X0034877Y-061604D01*
G01X0034894Y-061606D01*
G01X0034894Y-061606D01*
G37*
G36*
G01X0034273Y-061606D02*
G01X0034287Y-061610D01*
G01X0034299Y-061616D01*
G01X0034310Y-061625D01*
G01X0034319Y-061636D01*
G01X0034325Y-061648D01*
G01X0034329Y-061662D01*
G01X0034331Y-061678D01*
G01X0034331Y-061944D01*
G01X0034329Y-061960D01*
G01X0034325Y-061974D01*
G01X0034319Y-061986D01*
G01X0034310Y-061997D01*
G01X0034299Y-062006D01*
G01X0034287Y-062012D01*
G01X0034273Y-062017D01*
G01X0034257Y-062018D01*
G01X0034020Y-062018D01*
G01X0034004Y-062017D01*
G01X0033991Y-062012D01*
G01X0033978Y-062006D01*
G01X0033968Y-061997D01*
G01X0033959Y-061986D01*
G01X0033952Y-061974D01*
G01X0033948Y-061960D01*
G01X0033946Y-061944D01*
G01X0033946Y-061678D01*
G01X0033948Y-061662D01*
G01X0033952Y-061648D01*
G01X0033959Y-061636D01*
G01X0033968Y-061625D01*
G01X0033978Y-061616D01*
G01X0033991Y-061610D01*
G01X0034004Y-061606D01*
G01X0034020Y-061604D01*
G01X0034257Y-061604D01*
G01X0034273Y-061606D01*
G01X0034273Y-061606D01*
G37*
G36*
G01X0035953Y-061409D02*
G01X0035622Y-061409D01*
G01X0035622Y-060902D01*
G01X0035953Y-060902D01*
G01X0035953Y-061409D01*
G01X0035953Y-061409D01*
G37*
G36*
G01X0036953Y-061409D02*
G01X0036622Y-061409D01*
G01X0036622Y-060902D01*
G01X0036953Y-060902D01*
G01X0036953Y-061409D01*
G01X0036953Y-061409D01*
G37*
G36*
G01X0036453Y-061409D02*
G01X0036122Y-061409D01*
G01X0036122Y-060902D01*
G01X0036453Y-060902D01*
G01X0036453Y-061409D01*
G01X0036453Y-061409D01*
G37*
G36*
G01X0035453Y-061409D02*
G01X0035122Y-061409D01*
G01X0035122Y-060902D01*
G01X0035453Y-060902D01*
G01X0035453Y-061409D01*
G01X0035453Y-061409D01*
G37*
G36*
G01X0043843Y-061376D02*
G01X0043512Y-061376D01*
G01X0043512Y-060868D01*
G01X0043843Y-060868D01*
G01X0043843Y-061376D01*
G01X0043843Y-061376D01*
G37*
G36*
G01X0042343Y-061376D02*
G01X0042012Y-061376D01*
G01X0042012Y-060868D01*
G01X0042343Y-060868D01*
G01X0042343Y-061376D01*
G01X0042343Y-061376D01*
G37*
G36*
G01X0043343Y-061376D02*
G01X0043012Y-061376D01*
G01X0043012Y-060868D01*
G01X0043343Y-060868D01*
G01X0043343Y-061376D01*
G01X0043343Y-061376D01*
G37*
G36*
G01X0042843Y-061376D02*
G01X0042512Y-061376D01*
G01X0042512Y-060868D01*
G01X0042843Y-060868D01*
G01X0042843Y-061376D01*
G01X0042843Y-061376D01*
G37*
G36*
G01X0031957Y-059470D02*
G01X0031969Y-059473D01*
G01X0031980Y-059479D01*
G01X0031990Y-059487D01*
G01X0031997Y-059496D01*
G01X0032003Y-059507D01*
G01X0032007Y-059519D01*
G01X0032008Y-059534D01*
G01X0032008Y-061018D01*
G01X0032007Y-061032D01*
G01X0032003Y-061044D01*
G01X0031997Y-061055D01*
G01X0031990Y-061064D01*
G01X0031980Y-061072D01*
G01X0031969Y-061078D01*
G01X0031957Y-061082D01*
G01X0031943Y-061083D01*
G01X0031049Y-061083D01*
G01X0031035Y-061082D01*
G01X0031023Y-061078D01*
G01X0031012Y-061072D01*
G01X0031002Y-061064D01*
G01X0030995Y-061055D01*
G01X0030989Y-061044D01*
G01X0030985Y-061032D01*
G01X0030984Y-061018D01*
G01X0030984Y-059534D01*
G01X0030985Y-059519D01*
G01X0030989Y-059507D01*
G01X0030995Y-059496D01*
G01X0031002Y-059487D01*
G01X0031012Y-059479D01*
G01X0031023Y-059473D01*
G01X0031035Y-059470D01*
G01X0031049Y-059468D01*
G01X0031943Y-059468D01*
G01X0031957Y-059470D01*
G01X0031957Y-059470D01*
G37*
G36*
G01X0027327Y-060751D02*
G01X0027335Y-060753D01*
G01X0027343Y-060757D01*
G01X0027349Y-060763D01*
G01X0027355Y-060770D01*
G01X0027359Y-060777D01*
G01X0027362Y-060785D01*
G01X0027363Y-060797D01*
G01X0027363Y-060979D01*
G01X0027362Y-060990D01*
G01X0027359Y-060998D01*
G01X0027355Y-061006D01*
G01X0027349Y-061013D01*
G01X0027343Y-061018D01*
G01X0027335Y-061022D01*
G01X0027327Y-061025D01*
G01X0027316Y-061026D01*
G01X0026602Y-061026D01*
G01X0026591Y-061025D01*
G01X0026582Y-061022D01*
G01X0026575Y-061018D01*
G01X0026568Y-061013D01*
G01X0026562Y-061006D01*
G01X0026558Y-060998D01*
G01X0026556Y-060990D01*
G01X0026555Y-060979D01*
G01X0026555Y-060797D01*
G01X0026556Y-060785D01*
G01X0026558Y-060777D01*
G01X0026562Y-060770D01*
G01X0026568Y-060763D01*
G01X0026575Y-060757D01*
G01X0026582Y-060753D01*
G01X0026591Y-060751D01*
G01X0026602Y-060750D01*
G01X0027316Y-060750D01*
G01X0027327Y-060751D01*
G01X0027327Y-060751D01*
G37*
G36*
G01X0025378Y-060751D02*
G01X0025386Y-060753D01*
G01X0025394Y-060757D01*
G01X0025401Y-060763D01*
G01X0025406Y-060770D01*
G01X0025410Y-060777D01*
G01X0025413Y-060785D01*
G01X0025414Y-060797D01*
G01X0025414Y-060979D01*
G01X0025413Y-060990D01*
G01X0025410Y-060998D01*
G01X0025406Y-061006D01*
G01X0025401Y-061013D01*
G01X0025394Y-061018D01*
G01X0025386Y-061022D01*
G01X0025378Y-061025D01*
G01X0025367Y-061026D01*
G01X0024653Y-061026D01*
G01X0024642Y-061025D01*
G01X0024633Y-061022D01*
G01X0024626Y-061018D01*
G01X0024619Y-061013D01*
G01X0024614Y-061006D01*
G01X0024610Y-060998D01*
G01X0024607Y-060990D01*
G01X0024606Y-060979D01*
G01X0024606Y-060797D01*
G01X0024607Y-060785D01*
G01X0024610Y-060777D01*
G01X0024614Y-060770D01*
G01X0024619Y-060763D01*
G01X0024626Y-060757D01*
G01X0024633Y-060753D01*
G01X0024642Y-060751D01*
G01X0024653Y-060750D01*
G01X0025367Y-060750D01*
G01X0025378Y-060751D01*
G01X0025378Y-060751D01*
G37*
G36*
G01X0023629Y-060425D02*
G01X0023644Y-060429D01*
G01X0023657Y-060436D01*
G01X0023669Y-060446D01*
G01X0023678Y-060457D01*
G01X0023685Y-060470D01*
G01X0023690Y-060485D01*
G01X0023691Y-060502D01*
G01X0023691Y-060876D01*
G01X0023690Y-060893D01*
G01X0023685Y-060908D01*
G01X0023678Y-060921D01*
G01X0023669Y-060932D01*
G01X0023657Y-060942D01*
G01X0023644Y-060949D01*
G01X0023629Y-060953D01*
G01X0023612Y-060955D01*
G01X0023042Y-060955D01*
G01X0023024Y-060953D01*
G01X0023010Y-060949D01*
G01X0022997Y-060942D01*
G01X0022985Y-060932D01*
G01X0022975Y-060921D01*
G01X0022968Y-060908D01*
G01X0022964Y-060893D01*
G01X0022962Y-060876D01*
G01X0022962Y-060502D01*
G01X0022964Y-060485D01*
G01X0022968Y-060470D01*
G01X0022975Y-060457D01*
G01X0022985Y-060446D01*
G01X0022997Y-060436D01*
G01X0023010Y-060429D01*
G01X0023024Y-060425D01*
G01X0023042Y-060423D01*
G01X0023612Y-060423D01*
G01X0023629Y-060425D01*
G01X0023629Y-060425D01*
G37*
G36*
G01X0028354Y-060228D02*
G01X0028368Y-060232D01*
G01X0028381Y-060239D01*
G01X0028393Y-060249D01*
G01X0028403Y-060260D01*
G01X0028410Y-060274D01*
G01X0028414Y-060288D01*
G01X0028416Y-060305D01*
G01X0028416Y-060679D01*
G01X0028414Y-060696D01*
G01X0028410Y-060711D01*
G01X0028403Y-060724D01*
G01X0028393Y-060736D01*
G01X0028381Y-060745D01*
G01X0028368Y-060752D01*
G01X0028354Y-060757D01*
G01X0028336Y-060758D01*
G01X0027766Y-060758D01*
G01X0027749Y-060757D01*
G01X0027734Y-060752D01*
G01X0027721Y-060745D01*
G01X0027709Y-060736D01*
G01X0027700Y-060724D01*
G01X0027693Y-060711D01*
G01X0027688Y-060696D01*
G01X0027687Y-060679D01*
G01X0027687Y-060305D01*
G01X0027688Y-060288D01*
G01X0027693Y-060274D01*
G01X0027700Y-060260D01*
G01X0027709Y-060249D01*
G01X0027721Y-060239D01*
G01X0027734Y-060232D01*
G01X0027749Y-060228D01*
G01X0027766Y-060226D01*
G01X0028336Y-060226D01*
G01X0028354Y-060228D01*
G01X0028354Y-060228D01*
G37*
G36*
G01X0024264Y-060257D02*
G01X0024277Y-060261D01*
G01X0024289Y-060268D01*
G01X0024300Y-060277D01*
G01X0024309Y-060287D01*
G01X0024316Y-060300D01*
G01X0024320Y-060313D01*
G01X0024321Y-060329D01*
G01X0024321Y-060566D01*
G01X0024320Y-060583D01*
G01X0024316Y-060596D01*
G01X0024309Y-060608D01*
G01X0024300Y-060619D01*
G01X0024289Y-060628D01*
G01X0024277Y-060634D01*
G01X0024264Y-060639D01*
G01X0024247Y-060640D01*
G01X0023981Y-060640D01*
G01X0023965Y-060639D01*
G01X0023951Y-060634D01*
G01X0023939Y-060628D01*
G01X0023928Y-060619D01*
G01X0023919Y-060608D01*
G01X0023913Y-060596D01*
G01X0023909Y-060583D01*
G01X0023907Y-060566D01*
G01X0023907Y-060329D01*
G01X0023909Y-060313D01*
G01X0023913Y-060300D01*
G01X0023919Y-060287D01*
G01X0023928Y-060277D01*
G01X0023939Y-060268D01*
G01X0023951Y-060261D01*
G01X0023965Y-060257D01*
G01X0023981Y-060256D01*
G01X0024247Y-060256D01*
G01X0024264Y-060257D01*
G01X0024264Y-060257D01*
G37*
G36*
G01X0036992Y-059335D02*
G01X0036943Y-059335D01*
G01X0036933Y-059336D01*
G01X0036924Y-059338D01*
G01X0036916Y-059343D01*
G01X0036908Y-059349D01*
G01X0036902Y-059357D01*
G01X0036897Y-059365D01*
G01X0036895Y-059374D01*
G01X0036894Y-059384D01*
G01X0036894Y-060541D01*
G01X0035185Y-060541D01*
G01X0035185Y-059384D01*
G01X0035184Y-059374D01*
G01X0035181Y-059365D01*
G01X0035177Y-059357D01*
G01X0035171Y-059349D01*
G01X0035163Y-059343D01*
G01X0035155Y-059338D01*
G01X0035145Y-059336D01*
G01X0035136Y-059335D01*
G01X0035087Y-059335D01*
G01X0035087Y-058669D01*
G01X0036992Y-058669D01*
G01X0036992Y-059335D01*
G01X0036992Y-059335D01*
G37*
G36*
G01X0025378Y-060251D02*
G01X0025386Y-060253D01*
G01X0025394Y-060257D01*
G01X0025401Y-060263D01*
G01X0025406Y-060270D01*
G01X0025410Y-060277D01*
G01X0025413Y-060285D01*
G01X0025414Y-060297D01*
G01X0025414Y-060479D01*
G01X0025413Y-060490D01*
G01X0025410Y-060498D01*
G01X0025406Y-060506D01*
G01X0025401Y-060513D01*
G01X0025394Y-060518D01*
G01X0025386Y-060522D01*
G01X0025378Y-060525D01*
G01X0025367Y-060526D01*
G01X0024653Y-060526D01*
G01X0024642Y-060525D01*
G01X0024633Y-060522D01*
G01X0024626Y-060518D01*
G01X0024619Y-060513D01*
G01X0024614Y-060506D01*
G01X0024610Y-060498D01*
G01X0024607Y-060490D01*
G01X0024606Y-060479D01*
G01X0024606Y-060297D01*
G01X0024607Y-060285D01*
G01X0024610Y-060277D01*
G01X0024614Y-060270D01*
G01X0024619Y-060263D01*
G01X0024626Y-060257D01*
G01X0024633Y-060253D01*
G01X0024642Y-060251D01*
G01X0024653Y-060250D01*
G01X0025367Y-060250D01*
G01X0025378Y-060251D01*
G01X0025378Y-060251D01*
G37*
G36*
G01X0027327Y-060251D02*
G01X0027335Y-060253D01*
G01X0027343Y-060257D01*
G01X0027349Y-060263D01*
G01X0027355Y-060270D01*
G01X0027359Y-060277D01*
G01X0027362Y-060285D01*
G01X0027363Y-060297D01*
G01X0027363Y-060479D01*
G01X0027362Y-060490D01*
G01X0027359Y-060498D01*
G01X0027355Y-060506D01*
G01X0027349Y-060513D01*
G01X0027343Y-060518D01*
G01X0027335Y-060522D01*
G01X0027327Y-060525D01*
G01X0027316Y-060526D01*
G01X0026602Y-060526D01*
G01X0026591Y-060525D01*
G01X0026582Y-060522D01*
G01X0026575Y-060518D01*
G01X0026568Y-060513D01*
G01X0026562Y-060506D01*
G01X0026558Y-060498D01*
G01X0026556Y-060490D01*
G01X0026555Y-060479D01*
G01X0026555Y-060297D01*
G01X0026556Y-060285D01*
G01X0026558Y-060277D01*
G01X0026562Y-060270D01*
G01X0026568Y-060263D01*
G01X0026575Y-060257D01*
G01X0026582Y-060253D01*
G01X0026591Y-060251D01*
G01X0026602Y-060250D01*
G01X0027316Y-060250D01*
G01X0027327Y-060251D01*
G01X0027327Y-060251D01*
G37*
G36*
G01X0043882Y-059301D02*
G01X0043833Y-059301D01*
G01X0043823Y-059302D01*
G01X0043814Y-059305D01*
G01X0043805Y-059309D01*
G01X0043798Y-059316D01*
G01X0043792Y-059323D01*
G01X0043787Y-059332D01*
G01X0043784Y-059341D01*
G01X0043783Y-059350D01*
G01X0043783Y-060508D01*
G01X0042075Y-060508D01*
G01X0042075Y-059350D01*
G01X0042074Y-059341D01*
G01X0042071Y-059332D01*
G01X0042067Y-059323D01*
G01X0042060Y-059316D01*
G01X0042053Y-059309D01*
G01X0042044Y-059305D01*
G01X0042035Y-059302D01*
G01X0042026Y-059301D01*
G01X0041976Y-059301D01*
G01X0041976Y-058636D01*
G01X0043882Y-058636D01*
G01X0043882Y-059301D01*
G01X0043882Y-059301D01*
G37*
G36*
G01X0049694Y-058968D02*
G01X0049708Y-058972D01*
G01X0049721Y-058979D01*
G01X0049732Y-058988D01*
G01X0049742Y-059000D01*
G01X0049748Y-059012D01*
G01X0049753Y-059026D01*
G01X0049754Y-059043D01*
G01X0049754Y-060248D01*
G01X0049753Y-060265D01*
G01X0049748Y-060279D01*
G01X0049742Y-060292D01*
G01X0049732Y-060303D01*
G01X0049721Y-060312D01*
G01X0049708Y-060319D01*
G01X0049694Y-060324D01*
G01X0049677Y-060325D01*
G01X0049260Y-060325D01*
G01X0049243Y-060324D01*
G01X0049229Y-060319D01*
G01X0049216Y-060312D01*
G01X0049205Y-060303D01*
G01X0049195Y-060292D01*
G01X0049189Y-060279D01*
G01X0049184Y-060265D01*
G01X0049183Y-060248D01*
G01X0049183Y-059043D01*
G01X0049184Y-059026D01*
G01X0049189Y-059012D01*
G01X0049195Y-059000D01*
G01X0049205Y-058988D01*
G01X0049216Y-058979D01*
G01X0049229Y-058972D01*
G01X0049243Y-058968D01*
G01X0049260Y-058966D01*
G01X0049677Y-058966D01*
G01X0049694Y-058968D01*
G01X0049694Y-058968D01*
G37*
G36*
G01X0047411Y-058968D02*
G01X0047425Y-058972D01*
G01X0047437Y-058979D01*
G01X0047449Y-058988D01*
G01X0047458Y-059000D01*
G01X0047465Y-059012D01*
G01X0047469Y-059026D01*
G01X0047471Y-059043D01*
G01X0047471Y-060248D01*
G01X0047469Y-060265D01*
G01X0047465Y-060279D01*
G01X0047458Y-060292D01*
G01X0047449Y-060303D01*
G01X0047437Y-060312D01*
G01X0047425Y-060319D01*
G01X0047411Y-060324D01*
G01X0047394Y-060325D01*
G01X0046977Y-060325D01*
G01X0046960Y-060324D01*
G01X0046946Y-060319D01*
G01X0046933Y-060312D01*
G01X0046921Y-060303D01*
G01X0046912Y-060292D01*
G01X0046905Y-060279D01*
G01X0046901Y-060265D01*
G01X0046899Y-060248D01*
G01X0046899Y-059043D01*
G01X0046901Y-059026D01*
G01X0046905Y-059012D01*
G01X0046912Y-059000D01*
G01X0046921Y-058988D01*
G01X0046933Y-058979D01*
G01X0046946Y-058972D01*
G01X0046960Y-058968D01*
G01X0046977Y-058966D01*
G01X0047394Y-058966D01*
G01X0047411Y-058968D01*
G01X0047411Y-058968D01*
G37*
G36*
G01X0025378Y-059751D02*
G01X0025386Y-059753D01*
G01X0025394Y-059757D01*
G01X0025401Y-059763D01*
G01X0025406Y-059770D01*
G01X0025410Y-059777D01*
G01X0025413Y-059785D01*
G01X0025414Y-059797D01*
G01X0025414Y-059979D01*
G01X0025413Y-059990D01*
G01X0025410Y-059998D01*
G01X0025406Y-060006D01*
G01X0025401Y-060013D01*
G01X0025394Y-060018D01*
G01X0025386Y-060022D01*
G01X0025378Y-060025D01*
G01X0025367Y-060026D01*
G01X0024653Y-060026D01*
G01X0024642Y-060025D01*
G01X0024633Y-060022D01*
G01X0024626Y-060018D01*
G01X0024619Y-060013D01*
G01X0024614Y-060006D01*
G01X0024610Y-059998D01*
G01X0024607Y-059990D01*
G01X0024606Y-059979D01*
G01X0024606Y-059797D01*
G01X0024607Y-059785D01*
G01X0024610Y-059777D01*
G01X0024614Y-059770D01*
G01X0024619Y-059763D01*
G01X0024626Y-059757D01*
G01X0024633Y-059753D01*
G01X0024642Y-059751D01*
G01X0024653Y-059750D01*
G01X0025367Y-059750D01*
G01X0025378Y-059751D01*
G01X0025378Y-059751D01*
G37*
G36*
G01X0027327Y-059751D02*
G01X0027335Y-059753D01*
G01X0027343Y-059757D01*
G01X0027349Y-059763D01*
G01X0027355Y-059770D01*
G01X0027359Y-059777D01*
G01X0027362Y-059785D01*
G01X0027363Y-059797D01*
G01X0027363Y-059979D01*
G01X0027362Y-059990D01*
G01X0027359Y-059998D01*
G01X0027355Y-060006D01*
G01X0027349Y-060013D01*
G01X0027343Y-060018D01*
G01X0027335Y-060022D01*
G01X0027327Y-060025D01*
G01X0027316Y-060026D01*
G01X0026602Y-060026D01*
G01X0026591Y-060025D01*
G01X0026582Y-060022D01*
G01X0026575Y-060018D01*
G01X0026568Y-060013D01*
G01X0026562Y-060006D01*
G01X0026558Y-059998D01*
G01X0026556Y-059990D01*
G01X0026555Y-059979D01*
G01X0026555Y-059797D01*
G01X0026556Y-059785D01*
G01X0026558Y-059777D01*
G01X0026562Y-059770D01*
G01X0026568Y-059763D01*
G01X0026575Y-059757D01*
G01X0026582Y-059753D01*
G01X0026591Y-059751D01*
G01X0026602Y-059750D01*
G01X0027316Y-059750D01*
G01X0027327Y-059751D01*
G01X0027327Y-059751D01*
G37*
G36*
G01X0024264Y-059637D02*
G01X0024277Y-059641D01*
G01X0024289Y-059648D01*
G01X0024300Y-059657D01*
G01X0024309Y-059667D01*
G01X0024316Y-059680D01*
G01X0024320Y-059693D01*
G01X0024321Y-059709D01*
G01X0024321Y-059946D01*
G01X0024320Y-059962D01*
G01X0024316Y-059976D01*
G01X0024309Y-059988D01*
G01X0024300Y-059999D01*
G01X0024289Y-060008D01*
G01X0024277Y-060014D01*
G01X0024264Y-060018D01*
G01X0024247Y-060020D01*
G01X0023981Y-060020D01*
G01X0023965Y-060018D01*
G01X0023951Y-060014D01*
G01X0023939Y-060008D01*
G01X0023928Y-059999D01*
G01X0023919Y-059988D01*
G01X0023913Y-059976D01*
G01X0023909Y-059962D01*
G01X0023907Y-059946D01*
G01X0023907Y-059709D01*
G01X0023909Y-059693D01*
G01X0023913Y-059680D01*
G01X0023919Y-059667D01*
G01X0023928Y-059657D01*
G01X0023939Y-059648D01*
G01X0023951Y-059641D01*
G01X0023965Y-059637D01*
G01X0023981Y-059635D01*
G01X0024247Y-059635D01*
G01X0024264Y-059637D01*
G01X0024264Y-059637D01*
G37*
G36*
G01X0023629Y-059322D02*
G01X0023644Y-059327D01*
G01X0023657Y-059334D01*
G01X0023669Y-059343D01*
G01X0023678Y-059355D01*
G01X0023685Y-059368D01*
G01X0023690Y-059382D01*
G01X0023691Y-059400D01*
G01X0023691Y-059773D01*
G01X0023690Y-059791D01*
G01X0023685Y-059805D01*
G01X0023678Y-059818D01*
G01X0023669Y-059830D01*
G01X0023657Y-059840D01*
G01X0023644Y-059847D01*
G01X0023629Y-059851D01*
G01X0023612Y-059853D01*
G01X0023042Y-059853D01*
G01X0023024Y-059851D01*
G01X0023010Y-059847D01*
G01X0022997Y-059840D01*
G01X0022985Y-059830D01*
G01X0022975Y-059818D01*
G01X0022968Y-059805D01*
G01X0022964Y-059791D01*
G01X0022962Y-059773D01*
G01X0022962Y-059400D01*
G01X0022964Y-059382D01*
G01X0022968Y-059368D01*
G01X0022975Y-059355D01*
G01X0022985Y-059343D01*
G01X0022997Y-059334D01*
G01X0023010Y-059327D01*
G01X0023024Y-059322D01*
G01X0023042Y-059320D01*
G01X0023612Y-059320D01*
G01X0023629Y-059322D01*
G01X0023629Y-059322D01*
G37*
G36*
G01X0028354Y-059125D02*
G01X0028368Y-059130D01*
G01X0028381Y-059137D01*
G01X0028393Y-059146D01*
G01X0028403Y-059158D01*
G01X0028410Y-059171D01*
G01X0028414Y-059186D01*
G01X0028416Y-059203D01*
G01X0028416Y-059577D01*
G01X0028414Y-059594D01*
G01X0028410Y-059608D01*
G01X0028403Y-059622D01*
G01X0028393Y-059633D01*
G01X0028381Y-059643D01*
G01X0028368Y-059650D01*
G01X0028354Y-059654D01*
G01X0028336Y-059656D01*
G01X0027766Y-059656D01*
G01X0027749Y-059654D01*
G01X0027734Y-059650D01*
G01X0027721Y-059643D01*
G01X0027709Y-059633D01*
G01X0027700Y-059622D01*
G01X0027693Y-059608D01*
G01X0027688Y-059594D01*
G01X0027687Y-059577D01*
G01X0027687Y-059203D01*
G01X0027688Y-059186D01*
G01X0027693Y-059171D01*
G01X0027700Y-059158D01*
G01X0027709Y-059146D01*
G01X0027721Y-059137D01*
G01X0027734Y-059130D01*
G01X0027749Y-059125D01*
G01X0027766Y-059124D01*
G01X0028336Y-059124D01*
G01X0028354Y-059125D01*
G01X0028354Y-059125D01*
G37*
G36*
G01X0027327Y-059251D02*
G01X0027335Y-059253D01*
G01X0027343Y-059257D01*
G01X0027349Y-059263D01*
G01X0027355Y-059270D01*
G01X0027359Y-059277D01*
G01X0027362Y-059285D01*
G01X0027363Y-059297D01*
G01X0027363Y-059479D01*
G01X0027362Y-059490D01*
G01X0027359Y-059498D01*
G01X0027355Y-059506D01*
G01X0027349Y-059513D01*
G01X0027343Y-059518D01*
G01X0027335Y-059522D01*
G01X0027327Y-059525D01*
G01X0027316Y-059526D01*
G01X0026602Y-059526D01*
G01X0026591Y-059525D01*
G01X0026582Y-059522D01*
G01X0026575Y-059518D01*
G01X0026568Y-059513D01*
G01X0026562Y-059506D01*
G01X0026558Y-059498D01*
G01X0026556Y-059490D01*
G01X0026555Y-059479D01*
G01X0026555Y-059297D01*
G01X0026556Y-059285D01*
G01X0026558Y-059277D01*
G01X0026562Y-059270D01*
G01X0026568Y-059263D01*
G01X0026575Y-059257D01*
G01X0026582Y-059253D01*
G01X0026591Y-059251D01*
G01X0026602Y-059250D01*
G01X0027316Y-059250D01*
G01X0027327Y-059251D01*
G01X0027327Y-059251D01*
G37*
G36*
G01X0025378Y-059251D02*
G01X0025386Y-059253D01*
G01X0025394Y-059257D01*
G01X0025401Y-059263D01*
G01X0025406Y-059270D01*
G01X0025410Y-059277D01*
G01X0025413Y-059285D01*
G01X0025414Y-059297D01*
G01X0025414Y-059479D01*
G01X0025413Y-059490D01*
G01X0025410Y-059498D01*
G01X0025406Y-059506D01*
G01X0025401Y-059513D01*
G01X0025394Y-059518D01*
G01X0025386Y-059522D01*
G01X0025378Y-059525D01*
G01X0025367Y-059526D01*
G01X0024653Y-059526D01*
G01X0024642Y-059525D01*
G01X0024633Y-059522D01*
G01X0024626Y-059518D01*
G01X0024619Y-059513D01*
G01X0024614Y-059506D01*
G01X0024610Y-059498D01*
G01X0024607Y-059490D01*
G01X0024606Y-059479D01*
G01X0024606Y-059297D01*
G01X0024607Y-059285D01*
G01X0024610Y-059277D01*
G01X0024614Y-059270D01*
G01X0024619Y-059263D01*
G01X0024626Y-059257D01*
G01X0024633Y-059253D01*
G01X0024642Y-059251D01*
G01X0024653Y-059250D01*
G01X0025367Y-059250D01*
G01X0025378Y-059251D01*
G01X0025378Y-059251D01*
G37*
G36*
G01X0054744Y-059075D02*
G01X0050767Y-059075D01*
G01X0050767Y-057067D01*
G01X0054744Y-057067D01*
G01X0054744Y-059075D01*
G01X0054744Y-059075D01*
G37*
G36*
G01X0049694Y-057393D02*
G01X0049708Y-057397D01*
G01X0049721Y-057404D01*
G01X0049732Y-057413D01*
G01X0049742Y-057425D01*
G01X0049748Y-057438D01*
G01X0049753Y-057452D01*
G01X0049754Y-057469D01*
G01X0049754Y-058673D01*
G01X0049753Y-058690D01*
G01X0049748Y-058704D01*
G01X0049742Y-058717D01*
G01X0049732Y-058728D01*
G01X0049721Y-058738D01*
G01X0049708Y-058744D01*
G01X0049694Y-058749D01*
G01X0049677Y-058750D01*
G01X0049260Y-058750D01*
G01X0049243Y-058749D01*
G01X0049229Y-058744D01*
G01X0049216Y-058738D01*
G01X0049205Y-058728D01*
G01X0049195Y-058717D01*
G01X0049189Y-058704D01*
G01X0049184Y-058690D01*
G01X0049183Y-058673D01*
G01X0049183Y-057469D01*
G01X0049184Y-057452D01*
G01X0049189Y-057438D01*
G01X0049195Y-057425D01*
G01X0049205Y-057413D01*
G01X0049216Y-057404D01*
G01X0049229Y-057397D01*
G01X0049243Y-057393D01*
G01X0049260Y-057391D01*
G01X0049677Y-057391D01*
G01X0049694Y-057393D01*
G01X0049694Y-057393D01*
G37*
G36*
G01X0047411Y-057393D02*
G01X0047425Y-057397D01*
G01X0047437Y-057404D01*
G01X0047449Y-057413D01*
G01X0047458Y-057425D01*
G01X0047465Y-057438D01*
G01X0047469Y-057452D01*
G01X0047471Y-057469D01*
G01X0047471Y-058673D01*
G01X0047469Y-058690D01*
G01X0047465Y-058704D01*
G01X0047458Y-058717D01*
G01X0047449Y-058728D01*
G01X0047437Y-058738D01*
G01X0047425Y-058744D01*
G01X0047411Y-058749D01*
G01X0047394Y-058750D01*
G01X0046977Y-058750D01*
G01X0046960Y-058749D01*
G01X0046946Y-058744D01*
G01X0046933Y-058738D01*
G01X0046921Y-058728D01*
G01X0046912Y-058717D01*
G01X0046905Y-058704D01*
G01X0046901Y-058690D01*
G01X0046899Y-058673D01*
G01X0046899Y-057469D01*
G01X0046901Y-057452D01*
G01X0046905Y-057438D01*
G01X0046912Y-057425D01*
G01X0046921Y-057413D01*
G01X0046933Y-057404D01*
G01X0046946Y-057397D01*
G01X0046960Y-057393D01*
G01X0046977Y-057391D01*
G01X0047394Y-057391D01*
G01X0047411Y-057393D01*
G01X0047411Y-057393D01*
G37*
G36*
G01X0027284Y-058642D02*
G01X0026259Y-058642D01*
G01X0026259Y-057893D01*
G01X0027284Y-057893D01*
G01X0027284Y-058642D01*
G01X0027284Y-058642D01*
G37*
G36*
G01X0025709Y-058642D02*
G01X0024685Y-058642D01*
G01X0024685Y-057893D01*
G01X0025709Y-057893D01*
G01X0025709Y-058642D01*
G01X0025709Y-058642D01*
G37*
G36*
G01X0040595Y-057521D02*
G01X0040608Y-057525D01*
G01X0040619Y-057531D01*
G01X0040630Y-057540D01*
G01X0040638Y-057550D01*
G01X0040645Y-057562D01*
G01X0040648Y-057574D01*
G01X0040650Y-057590D01*
G01X0040650Y-058197D01*
G01X0040648Y-058213D01*
G01X0040645Y-058226D01*
G01X0040638Y-058238D01*
G01X0040630Y-058248D01*
G01X0040619Y-058256D01*
G01X0040608Y-058263D01*
G01X0040595Y-058267D01*
G01X0040579Y-058268D01*
G01X0038555Y-058268D01*
G01X0038539Y-058267D01*
G01X0038526Y-058263D01*
G01X0038514Y-058256D01*
G01X0038504Y-058248D01*
G01X0038496Y-058238D01*
G01X0038489Y-058226D01*
G01X0038485Y-058213D01*
G01X0038484Y-058197D01*
G01X0038484Y-057590D01*
G01X0038485Y-057574D01*
G01X0038489Y-057562D01*
G01X0038496Y-057550D01*
G01X0038504Y-057540D01*
G01X0038514Y-057531D01*
G01X0038526Y-057525D01*
G01X0038539Y-057521D01*
G01X0038555Y-057519D01*
G01X0040579Y-057519D01*
G01X0040595Y-057521D01*
G01X0040595Y-057521D01*
G37*
G36*
G01X0031957Y-056320D02*
G01X0031969Y-056324D01*
G01X0031980Y-056329D01*
G01X0031990Y-056337D01*
G01X0031997Y-056347D01*
G01X0032003Y-056358D01*
G01X0032007Y-056369D01*
G01X0032008Y-056384D01*
G01X0032008Y-057868D01*
G01X0032007Y-057883D01*
G01X0032003Y-057894D01*
G01X0031997Y-057905D01*
G01X0031990Y-057915D01*
G01X0031980Y-057923D01*
G01X0031969Y-057928D01*
G01X0031957Y-057932D01*
G01X0031943Y-057933D01*
G01X0031049Y-057933D01*
G01X0031035Y-057932D01*
G01X0031023Y-057928D01*
G01X0031012Y-057923D01*
G01X0031002Y-057915D01*
G01X0030995Y-057905D01*
G01X0030989Y-057894D01*
G01X0030985Y-057883D01*
G01X0030984Y-057868D01*
G01X0030984Y-056384D01*
G01X0030985Y-056369D01*
G01X0030989Y-056358D01*
G01X0030995Y-056347D01*
G01X0031002Y-056337D01*
G01X0031012Y-056329D01*
G01X0031023Y-056324D01*
G01X0031035Y-056320D01*
G01X0031049Y-056319D01*
G01X0031943Y-056319D01*
G01X0031957Y-056320D01*
G01X0031957Y-056320D01*
G37*
G36*
G01X0044736Y-057078D02*
G01X0044749Y-057082D01*
G01X0044762Y-057089D01*
G01X0044773Y-057098D01*
G01X0044781Y-057108D01*
G01X0044788Y-057121D01*
G01X0044792Y-057134D01*
G01X0044794Y-057150D01*
G01X0044794Y-057417D01*
G01X0044792Y-057433D01*
G01X0044788Y-057446D01*
G01X0044781Y-057459D01*
G01X0044773Y-057469D01*
G01X0044762Y-057478D01*
G01X0044749Y-057485D01*
G01X0044736Y-057489D01*
G01X0044720Y-057491D01*
G01X0044483Y-057491D01*
G01X0044467Y-057489D01*
G01X0044453Y-057485D01*
G01X0044441Y-057478D01*
G01X0044430Y-057469D01*
G01X0044421Y-057459D01*
G01X0044415Y-057446D01*
G01X0044411Y-057433D01*
G01X0044409Y-057417D01*
G01X0044409Y-057150D01*
G01X0044411Y-057134D01*
G01X0044415Y-057121D01*
G01X0044421Y-057108D01*
G01X0044430Y-057098D01*
G01X0044441Y-057089D01*
G01X0044453Y-057082D01*
G01X0044467Y-057078D01*
G01X0044483Y-057076D01*
G01X0044720Y-057076D01*
G01X0044736Y-057078D01*
G01X0044736Y-057078D01*
G37*
G36*
G01X0044116Y-057078D02*
G01X0044129Y-057082D01*
G01X0044142Y-057089D01*
G01X0044152Y-057098D01*
G01X0044161Y-057108D01*
G01X0044168Y-057121D01*
G01X0044172Y-057134D01*
G01X0044174Y-057150D01*
G01X0044174Y-057417D01*
G01X0044172Y-057433D01*
G01X0044168Y-057446D01*
G01X0044161Y-057459D01*
G01X0044152Y-057469D01*
G01X0044142Y-057478D01*
G01X0044129Y-057485D01*
G01X0044116Y-057489D01*
G01X0044100Y-057491D01*
G01X0043863Y-057491D01*
G01X0043847Y-057489D01*
G01X0043833Y-057485D01*
G01X0043821Y-057478D01*
G01X0043810Y-057469D01*
G01X0043801Y-057459D01*
G01X0043795Y-057446D01*
G01X0043791Y-057433D01*
G01X0043789Y-057417D01*
G01X0043789Y-057150D01*
G01X0043791Y-057134D01*
G01X0043795Y-057121D01*
G01X0043801Y-057108D01*
G01X0043810Y-057098D01*
G01X0043821Y-057089D01*
G01X0043833Y-057082D01*
G01X0043847Y-057078D01*
G01X0043863Y-057076D01*
G01X0044100Y-057076D01*
G01X0044116Y-057078D01*
G01X0044116Y-057078D01*
G37*
G36*
G01X0037226Y-057078D02*
G01X0037240Y-057082D01*
G01X0037252Y-057089D01*
G01X0037263Y-057098D01*
G01X0037272Y-057108D01*
G01X0037278Y-057121D01*
G01X0037282Y-057134D01*
G01X0037284Y-057150D01*
G01X0037284Y-057417D01*
G01X0037282Y-057433D01*
G01X0037278Y-057446D01*
G01X0037272Y-057459D01*
G01X0037263Y-057469D01*
G01X0037252Y-057478D01*
G01X0037240Y-057485D01*
G01X0037226Y-057489D01*
G01X0037210Y-057491D01*
G01X0036973Y-057491D01*
G01X0036957Y-057489D01*
G01X0036943Y-057485D01*
G01X0036931Y-057478D01*
G01X0036920Y-057469D01*
G01X0036911Y-057459D01*
G01X0036905Y-057446D01*
G01X0036901Y-057433D01*
G01X0036899Y-057417D01*
G01X0036899Y-057150D01*
G01X0036901Y-057134D01*
G01X0036905Y-057121D01*
G01X0036911Y-057108D01*
G01X0036920Y-057098D01*
G01X0036931Y-057089D01*
G01X0036943Y-057082D01*
G01X0036957Y-057078D01*
G01X0036973Y-057076D01*
G01X0037210Y-057076D01*
G01X0037226Y-057078D01*
G01X0037226Y-057078D01*
G37*
G36*
G01X0037846Y-057078D02*
G01X0037860Y-057082D01*
G01X0037872Y-057089D01*
G01X0037883Y-057098D01*
G01X0037892Y-057108D01*
G01X0037898Y-057121D01*
G01X0037902Y-057134D01*
G01X0037904Y-057150D01*
G01X0037904Y-057417D01*
G01X0037902Y-057433D01*
G01X0037898Y-057446D01*
G01X0037892Y-057459D01*
G01X0037883Y-057469D01*
G01X0037872Y-057478D01*
G01X0037860Y-057485D01*
G01X0037846Y-057489D01*
G01X0037830Y-057491D01*
G01X0037593Y-057491D01*
G01X0037577Y-057489D01*
G01X0037564Y-057485D01*
G01X0037551Y-057478D01*
G01X0037540Y-057469D01*
G01X0037532Y-057459D01*
G01X0037525Y-057446D01*
G01X0037521Y-057433D01*
G01X0037519Y-057417D01*
G01X0037519Y-057150D01*
G01X0037521Y-057134D01*
G01X0037525Y-057121D01*
G01X0037532Y-057108D01*
G01X0037540Y-057098D01*
G01X0037551Y-057089D01*
G01X0037564Y-057082D01*
G01X0037577Y-057078D01*
G01X0037593Y-057076D01*
G01X0037830Y-057076D01*
G01X0037846Y-057078D01*
G01X0037846Y-057078D01*
G37*
G36*
G01X0047411Y-055818D02*
G01X0047425Y-055822D01*
G01X0047437Y-055829D01*
G01X0047449Y-055839D01*
G01X0047458Y-055850D01*
G01X0047465Y-055863D01*
G01X0047469Y-055877D01*
G01X0047471Y-055894D01*
G01X0047471Y-057098D01*
G01X0047469Y-057115D01*
G01X0047465Y-057129D01*
G01X0047458Y-057142D01*
G01X0047449Y-057153D01*
G01X0047437Y-057163D01*
G01X0047425Y-057170D01*
G01X0047411Y-057174D01*
G01X0047394Y-057176D01*
G01X0046977Y-057176D01*
G01X0046960Y-057174D01*
G01X0046946Y-057170D01*
G01X0046933Y-057163D01*
G01X0046921Y-057153D01*
G01X0046912Y-057142D01*
G01X0046905Y-057129D01*
G01X0046901Y-057115D01*
G01X0046899Y-057098D01*
G01X0046899Y-055894D01*
G01X0046901Y-055877D01*
G01X0046905Y-055863D01*
G01X0046912Y-055850D01*
G01X0046921Y-055839D01*
G01X0046933Y-055829D01*
G01X0046946Y-055822D01*
G01X0046960Y-055818D01*
G01X0046977Y-055817D01*
G01X0047394Y-055817D01*
G01X0047411Y-055818D01*
G01X0047411Y-055818D01*
G37*
G36*
G01X0049694Y-055818D02*
G01X0049708Y-055822D01*
G01X0049721Y-055829D01*
G01X0049732Y-055839D01*
G01X0049742Y-055850D01*
G01X0049748Y-055863D01*
G01X0049753Y-055877D01*
G01X0049754Y-055894D01*
G01X0049754Y-057098D01*
G01X0049753Y-057115D01*
G01X0049748Y-057129D01*
G01X0049742Y-057142D01*
G01X0049732Y-057153D01*
G01X0049721Y-057163D01*
G01X0049708Y-057170D01*
G01X0049694Y-057174D01*
G01X0049677Y-057176D01*
G01X0049260Y-057176D01*
G01X0049243Y-057174D01*
G01X0049229Y-057170D01*
G01X0049216Y-057163D01*
G01X0049205Y-057153D01*
G01X0049195Y-057142D01*
G01X0049189Y-057129D01*
G01X0049184Y-057115D01*
G01X0049183Y-057098D01*
G01X0049183Y-055894D01*
G01X0049184Y-055877D01*
G01X0049189Y-055863D01*
G01X0049195Y-055850D01*
G01X0049205Y-055839D01*
G01X0049216Y-055829D01*
G01X0049229Y-055822D01*
G01X0049243Y-055818D01*
G01X0049260Y-055817D01*
G01X0049677Y-055817D01*
G01X0049694Y-055818D01*
G01X0049694Y-055818D01*
G37*
G36*
G01X0044116Y-056487D02*
G01X0044129Y-056491D01*
G01X0044142Y-056498D01*
G01X0044152Y-056507D01*
G01X0044161Y-056518D01*
G01X0044168Y-056530D01*
G01X0044172Y-056543D01*
G01X0044174Y-056560D01*
G01X0044174Y-056826D01*
G01X0044172Y-056842D01*
G01X0044168Y-056856D01*
G01X0044161Y-056868D01*
G01X0044152Y-056879D01*
G01X0044142Y-056888D01*
G01X0044129Y-056894D01*
G01X0044116Y-056898D01*
G01X0044100Y-056900D01*
G01X0043863Y-056900D01*
G01X0043847Y-056898D01*
G01X0043833Y-056894D01*
G01X0043821Y-056888D01*
G01X0043810Y-056879D01*
G01X0043801Y-056868D01*
G01X0043795Y-056856D01*
G01X0043791Y-056842D01*
G01X0043789Y-056826D01*
G01X0043789Y-056560D01*
G01X0043791Y-056543D01*
G01X0043795Y-056530D01*
G01X0043801Y-056518D01*
G01X0043810Y-056507D01*
G01X0043821Y-056498D01*
G01X0043833Y-056491D01*
G01X0043847Y-056487D01*
G01X0043863Y-056486D01*
G01X0044100Y-056486D01*
G01X0044116Y-056487D01*
G01X0044116Y-056487D01*
G37*
G36*
G01X0037846Y-056487D02*
G01X0037860Y-056491D01*
G01X0037872Y-056498D01*
G01X0037883Y-056507D01*
G01X0037892Y-056518D01*
G01X0037898Y-056530D01*
G01X0037902Y-056543D01*
G01X0037904Y-056560D01*
G01X0037904Y-056826D01*
G01X0037902Y-056842D01*
G01X0037898Y-056856D01*
G01X0037892Y-056868D01*
G01X0037883Y-056879D01*
G01X0037872Y-056888D01*
G01X0037860Y-056894D01*
G01X0037846Y-056898D01*
G01X0037830Y-056900D01*
G01X0037593Y-056900D01*
G01X0037577Y-056898D01*
G01X0037564Y-056894D01*
G01X0037551Y-056888D01*
G01X0037540Y-056879D01*
G01X0037532Y-056868D01*
G01X0037525Y-056856D01*
G01X0037521Y-056842D01*
G01X0037519Y-056826D01*
G01X0037519Y-056560D01*
G01X0037521Y-056543D01*
G01X0037525Y-056530D01*
G01X0037532Y-056518D01*
G01X0037540Y-056507D01*
G01X0037551Y-056498D01*
G01X0037564Y-056491D01*
G01X0037577Y-056487D01*
G01X0037593Y-056486D01*
G01X0037830Y-056486D01*
G01X0037846Y-056487D01*
G01X0037846Y-056487D01*
G37*
G36*
G01X0044736Y-056487D02*
G01X0044749Y-056491D01*
G01X0044762Y-056498D01*
G01X0044773Y-056507D01*
G01X0044781Y-056518D01*
G01X0044788Y-056530D01*
G01X0044792Y-056543D01*
G01X0044794Y-056560D01*
G01X0044794Y-056826D01*
G01X0044792Y-056842D01*
G01X0044788Y-056856D01*
G01X0044781Y-056868D01*
G01X0044773Y-056879D01*
G01X0044762Y-056888D01*
G01X0044749Y-056894D01*
G01X0044736Y-056898D01*
G01X0044720Y-056900D01*
G01X0044483Y-056900D01*
G01X0044467Y-056898D01*
G01X0044453Y-056894D01*
G01X0044441Y-056888D01*
G01X0044430Y-056879D01*
G01X0044421Y-056868D01*
G01X0044415Y-056856D01*
G01X0044411Y-056842D01*
G01X0044409Y-056826D01*
G01X0044409Y-056560D01*
G01X0044411Y-056543D01*
G01X0044415Y-056530D01*
G01X0044421Y-056518D01*
G01X0044430Y-056507D01*
G01X0044441Y-056498D01*
G01X0044453Y-056491D01*
G01X0044467Y-056487D01*
G01X0044483Y-056486D01*
G01X0044720Y-056486D01*
G01X0044736Y-056487D01*
G01X0044736Y-056487D01*
G37*
G36*
G01X0037226Y-056487D02*
G01X0037240Y-056491D01*
G01X0037252Y-056498D01*
G01X0037263Y-056507D01*
G01X0037272Y-056518D01*
G01X0037278Y-056530D01*
G01X0037282Y-056543D01*
G01X0037284Y-056560D01*
G01X0037284Y-056826D01*
G01X0037282Y-056842D01*
G01X0037278Y-056856D01*
G01X0037272Y-056868D01*
G01X0037263Y-056879D01*
G01X0037252Y-056888D01*
G01X0037240Y-056894D01*
G01X0037226Y-056898D01*
G01X0037210Y-056900D01*
G01X0036973Y-056900D01*
G01X0036957Y-056898D01*
G01X0036943Y-056894D01*
G01X0036931Y-056888D01*
G01X0036920Y-056879D01*
G01X0036911Y-056868D01*
G01X0036905Y-056856D01*
G01X0036901Y-056842D01*
G01X0036899Y-056826D01*
G01X0036899Y-056560D01*
G01X0036901Y-056543D01*
G01X0036905Y-056530D01*
G01X0036911Y-056518D01*
G01X0036920Y-056507D01*
G01X0036931Y-056498D01*
G01X0036943Y-056491D01*
G01X0036957Y-056487D01*
G01X0036973Y-056486D01*
G01X0037210Y-056486D01*
G01X0037226Y-056487D01*
G01X0037226Y-056487D01*
G37*
G36*
G01X0042343Y-056315D02*
G01X0042012Y-056315D01*
G01X0042012Y-055807D01*
G01X0042343Y-055807D01*
G01X0042343Y-056315D01*
G01X0042343Y-056315D01*
G37*
G36*
G01X0042843Y-056315D02*
G01X0042512Y-056315D01*
G01X0042512Y-055807D01*
G01X0042843Y-055807D01*
G01X0042843Y-056315D01*
G01X0042843Y-056315D01*
G37*
G36*
G01X0043843Y-056315D02*
G01X0043512Y-056315D01*
G01X0043512Y-055807D01*
G01X0043843Y-055807D01*
G01X0043843Y-056315D01*
G01X0043843Y-056315D01*
G37*
G36*
G01X0043343Y-056315D02*
G01X0043012Y-056315D01*
G01X0043012Y-055807D01*
G01X0043343Y-055807D01*
G01X0043343Y-056315D01*
G01X0043343Y-056315D01*
G37*
G36*
G01X0035953Y-056289D02*
G01X0035622Y-056289D01*
G01X0035622Y-055781D01*
G01X0035953Y-055781D01*
G01X0035953Y-056289D01*
G01X0035953Y-056289D01*
G37*
G36*
G01X0036953Y-056289D02*
G01X0036622Y-056289D01*
G01X0036622Y-055781D01*
G01X0036953Y-055781D01*
G01X0036953Y-056289D01*
G01X0036953Y-056289D01*
G37*
G36*
G01X0036453Y-056289D02*
G01X0036122Y-056289D01*
G01X0036122Y-055781D01*
G01X0036453Y-055781D01*
G01X0036453Y-056289D01*
G01X0036453Y-056289D01*
G37*
G36*
G01X0035453Y-056289D02*
G01X0035122Y-056289D01*
G01X0035122Y-055781D01*
G01X0035453Y-055781D01*
G01X0035453Y-056289D01*
G01X0035453Y-056289D01*
G37*
G36*
G01X0040595Y-055513D02*
G01X0040608Y-055517D01*
G01X0040619Y-055523D01*
G01X0040630Y-055532D01*
G01X0040638Y-055542D01*
G01X0040645Y-055554D01*
G01X0040648Y-055567D01*
G01X0040650Y-055582D01*
G01X0040650Y-056189D01*
G01X0040648Y-056205D01*
G01X0040645Y-056218D01*
G01X0040638Y-056230D01*
G01X0040630Y-056240D01*
G01X0040619Y-056249D01*
G01X0040608Y-056255D01*
G01X0040595Y-056259D01*
G01X0040579Y-056260D01*
G01X0038555Y-056260D01*
G01X0038539Y-056259D01*
G01X0038526Y-056255D01*
G01X0038514Y-056249D01*
G01X0038504Y-056240D01*
G01X0038496Y-056230D01*
G01X0038489Y-056218D01*
G01X0038485Y-056205D01*
G01X0038484Y-056189D01*
G01X0038484Y-055582D01*
G01X0038485Y-055567D01*
G01X0038489Y-055554D01*
G01X0038496Y-055542D01*
G01X0038504Y-055532D01*
G01X0038514Y-055523D01*
G01X0038526Y-055517D01*
G01X0038539Y-055513D01*
G01X0038555Y-055511D01*
G01X0040579Y-055511D01*
G01X0040595Y-055513D01*
G01X0040595Y-055513D01*
G37*
G36*
G01X0031957Y-054273D02*
G01X0031969Y-054276D01*
G01X0031980Y-054282D01*
G01X0031990Y-054290D01*
G01X0031997Y-054299D01*
G01X0032003Y-054310D01*
G01X0032007Y-054322D01*
G01X0032008Y-054337D01*
G01X0032008Y-055821D01*
G01X0032007Y-055835D01*
G01X0032003Y-055847D01*
G01X0031997Y-055858D01*
G01X0031990Y-055868D01*
G01X0031980Y-055875D01*
G01X0031969Y-055881D01*
G01X0031957Y-055885D01*
G01X0031943Y-055886D01*
G01X0031049Y-055886D01*
G01X0031035Y-055885D01*
G01X0031023Y-055881D01*
G01X0031012Y-055875D01*
G01X0031002Y-055868D01*
G01X0030995Y-055858D01*
G01X0030989Y-055847D01*
G01X0030985Y-055835D01*
G01X0030984Y-055821D01*
G01X0030984Y-054337D01*
G01X0030985Y-054322D01*
G01X0030989Y-054310D01*
G01X0030995Y-054299D01*
G01X0031002Y-054290D01*
G01X0031012Y-054282D01*
G01X0031023Y-054276D01*
G01X0031035Y-054273D01*
G01X0031049Y-054271D01*
G01X0031943Y-054271D01*
G01X0031957Y-054273D01*
G01X0031957Y-054273D01*
G37*
G36*
G01X0026890Y-055827D02*
G01X0022913Y-055827D01*
G01X0022913Y-053819D01*
G01X0026890Y-053819D01*
G01X0026890Y-055827D01*
G01X0026890Y-055827D01*
G37*
G36*
G01X0043882Y-054240D02*
G01X0043833Y-054240D01*
G01X0043823Y-054241D01*
G01X0043814Y-054244D01*
G01X0043805Y-054248D01*
G01X0043798Y-054255D01*
G01X0043792Y-054262D01*
G01X0043787Y-054271D01*
G01X0043784Y-054280D01*
G01X0043783Y-054289D01*
G01X0043783Y-055447D01*
G01X0042075Y-055447D01*
G01X0042075Y-054289D01*
G01X0042074Y-054280D01*
G01X0042071Y-054271D01*
G01X0042067Y-054262D01*
G01X0042060Y-054255D01*
G01X0042053Y-054248D01*
G01X0042044Y-054244D01*
G01X0042035Y-054241D01*
G01X0042026Y-054240D01*
G01X0041976Y-054240D01*
G01X0041976Y-053575D01*
G01X0043882Y-053575D01*
G01X0043882Y-054240D01*
G01X0043882Y-054240D01*
G37*
G36*
G01X0036992Y-054215D02*
G01X0036943Y-054215D01*
G01X0036933Y-054216D01*
G01X0036924Y-054218D01*
G01X0036916Y-054223D01*
G01X0036908Y-054229D01*
G01X0036902Y-054236D01*
G01X0036897Y-054245D01*
G01X0036895Y-054254D01*
G01X0036894Y-054264D01*
G01X0036894Y-055421D01*
G01X0035185Y-055421D01*
G01X0035185Y-054264D01*
G01X0035184Y-054254D01*
G01X0035181Y-054245D01*
G01X0035177Y-054236D01*
G01X0035171Y-054229D01*
G01X0035163Y-054223D01*
G01X0035155Y-054218D01*
G01X0035145Y-054216D01*
G01X0035136Y-054215D01*
G01X0035087Y-054215D01*
G01X0035087Y-053549D01*
G01X0036992Y-053549D01*
G01X0036992Y-054215D01*
G01X0036992Y-054215D01*
G37*
G36*
G01X0049892Y-055315D02*
G01X0049281Y-055315D01*
G01X0049281Y-054330D01*
G01X0049892Y-054330D01*
G01X0049892Y-055315D01*
G01X0049892Y-055315D01*
G37*
G36*
G01X0047569Y-055315D02*
G01X0046958Y-055315D01*
G01X0046958Y-054330D01*
G01X0047569Y-054330D01*
G01X0047569Y-055315D01*
G01X0047569Y-055315D01*
G37*
G36*
G01X0046606Y-054844D02*
G01X0046620Y-054848D01*
G01X0046632Y-054854D01*
G01X0046643Y-054863D01*
G01X0046652Y-054874D01*
G01X0046658Y-054886D01*
G01X0046662Y-054900D01*
G01X0046664Y-054916D01*
G01X0046664Y-055153D01*
G01X0046662Y-055169D01*
G01X0046658Y-055183D01*
G01X0046652Y-055195D01*
G01X0046643Y-055206D01*
G01X0046632Y-055215D01*
G01X0046620Y-055221D01*
G01X0046606Y-055225D01*
G01X0046590Y-055227D01*
G01X0046324Y-055227D01*
G01X0046307Y-055225D01*
G01X0046294Y-055221D01*
G01X0046282Y-055215D01*
G01X0046271Y-055206D01*
G01X0046262Y-055195D01*
G01X0046255Y-055183D01*
G01X0046251Y-055169D01*
G01X0046250Y-055153D01*
G01X0046250Y-054916D01*
G01X0046251Y-054900D01*
G01X0046255Y-054886D01*
G01X0046262Y-054874D01*
G01X0046271Y-054863D01*
G01X0046282Y-054854D01*
G01X0046294Y-054848D01*
G01X0046307Y-054844D01*
G01X0046324Y-054842D01*
G01X0046590Y-054842D01*
G01X0046606Y-054844D01*
G01X0046606Y-054844D01*
G37*
G36*
G01X0046606Y-054224D02*
G01X0046620Y-054228D01*
G01X0046632Y-054234D01*
G01X0046643Y-054243D01*
G01X0046652Y-054254D01*
G01X0046658Y-054266D01*
G01X0046662Y-054280D01*
G01X0046664Y-054296D01*
G01X0046664Y-054533D01*
G01X0046662Y-054549D01*
G01X0046658Y-054562D01*
G01X0046652Y-054575D01*
G01X0046643Y-054586D01*
G01X0046632Y-054594D01*
G01X0046620Y-054601D01*
G01X0046606Y-054605D01*
G01X0046590Y-054607D01*
G01X0046324Y-054607D01*
G01X0046307Y-054605D01*
G01X0046294Y-054601D01*
G01X0046282Y-054594D01*
G01X0046271Y-054586D01*
G01X0046262Y-054575D01*
G01X0046255Y-054562D01*
G01X0046251Y-054549D01*
G01X0046250Y-054533D01*
G01X0046250Y-054296D01*
G01X0046251Y-054280D01*
G01X0046255Y-054266D01*
G01X0046262Y-054254D01*
G01X0046271Y-054243D01*
G01X0046282Y-054234D01*
G01X0046294Y-054228D01*
G01X0046307Y-054224D01*
G01X0046324Y-054222D01*
G01X0046590Y-054222D01*
G01X0046606Y-054224D01*
G01X0046606Y-054224D01*
G37*
G36*
G01X0048430Y-052784D02*
G01X0047996Y-052784D01*
G01X0047996Y-051563D01*
G01X0048430Y-051563D01*
G01X0048430Y-052784D01*
G01X0048430Y-052784D01*
G37*
G36*
G01X0047430Y-052784D02*
G01X0046996Y-052784D01*
G01X0046996Y-051563D01*
G01X0047430Y-051563D01*
G01X0047430Y-052784D01*
G01X0047430Y-052784D01*
G37*
G36*
G01X0051430Y-052784D02*
G01X0050996Y-052784D01*
G01X0050996Y-051563D01*
G01X0051430Y-051563D01*
G01X0051430Y-052784D01*
G01X0051430Y-052784D01*
G37*
G36*
G01X0050430Y-052784D02*
G01X0049996Y-052784D01*
G01X0049996Y-051563D01*
G01X0050430Y-051563D01*
G01X0050430Y-052784D01*
G01X0050430Y-052784D01*
G37*
G36*
G01X0049430Y-052784D02*
G01X0048996Y-052784D01*
G01X0048996Y-051563D01*
G01X0049430Y-051563D01*
G01X0049430Y-052784D01*
G01X0049430Y-052784D01*
G37*
G36*
G01X0031957Y-051123D02*
G01X0031969Y-051127D01*
G01X0031980Y-051132D01*
G01X0031990Y-051140D01*
G01X0031997Y-051150D01*
G01X0032003Y-051161D01*
G01X0032007Y-051172D01*
G01X0032008Y-051187D01*
G01X0032008Y-052671D01*
G01X0032007Y-052686D01*
G01X0032003Y-052698D01*
G01X0031997Y-052708D01*
G01X0031990Y-052718D01*
G01X0031980Y-052726D01*
G01X0031969Y-052732D01*
G01X0031957Y-052735D01*
G01X0031943Y-052737D01*
G01X0031049Y-052737D01*
G01X0031035Y-052735D01*
G01X0031023Y-052732D01*
G01X0031012Y-052726D01*
G01X0031002Y-052718D01*
G01X0030995Y-052708D01*
G01X0030989Y-052698D01*
G01X0030985Y-052686D01*
G01X0030984Y-052671D01*
G01X0030984Y-051187D01*
G01X0030985Y-051172D01*
G01X0030989Y-051161D01*
G01X0030995Y-051150D01*
G01X0031002Y-051140D01*
G01X0031012Y-051132D01*
G01X0031023Y-051127D01*
G01X0031035Y-051123D01*
G01X0031049Y-051122D01*
G01X0031943Y-051122D01*
G01X0031957Y-051123D01*
G01X0031957Y-051123D01*
G37*
G36*
G01X0038437Y-052186D02*
G01X0038450Y-052190D01*
G01X0038463Y-052197D01*
G01X0038473Y-052206D01*
G01X0038482Y-052217D01*
G01X0038489Y-052229D01*
G01X0038493Y-052242D01*
G01X0038494Y-052259D01*
G01X0038494Y-052495D01*
G01X0038493Y-052512D01*
G01X0038489Y-052525D01*
G01X0038482Y-052537D01*
G01X0038473Y-052548D01*
G01X0038463Y-052557D01*
G01X0038450Y-052564D01*
G01X0038437Y-052568D01*
G01X0038421Y-052569D01*
G01X0038154Y-052569D01*
G01X0038138Y-052568D01*
G01X0038125Y-052564D01*
G01X0038112Y-052557D01*
G01X0038101Y-052548D01*
G01X0038093Y-052537D01*
G01X0038086Y-052525D01*
G01X0038082Y-052512D01*
G01X0038080Y-052495D01*
G01X0038080Y-052259D01*
G01X0038082Y-052242D01*
G01X0038086Y-052229D01*
G01X0038093Y-052217D01*
G01X0038101Y-052206D01*
G01X0038112Y-052197D01*
G01X0038125Y-052190D01*
G01X0038138Y-052186D01*
G01X0038154Y-052185D01*
G01X0038421Y-052185D01*
G01X0038437Y-052186D01*
G01X0038437Y-052186D01*
G37*
G36*
G01X0026890Y-052185D02*
G01X0022913Y-052185D01*
G01X0022913Y-050177D01*
G01X0026890Y-050177D01*
G01X0026890Y-052185D01*
G01X0026890Y-052185D01*
G37*
G36*
G01X0038437Y-051566D02*
G01X0038450Y-051570D01*
G01X0038463Y-051577D01*
G01X0038473Y-051586D01*
G01X0038482Y-051596D01*
G01X0038489Y-051609D01*
G01X0038493Y-051622D01*
G01X0038494Y-051639D01*
G01X0038494Y-051875D01*
G01X0038493Y-051892D01*
G01X0038489Y-051905D01*
G01X0038482Y-051917D01*
G01X0038473Y-051928D01*
G01X0038463Y-051937D01*
G01X0038450Y-051944D01*
G01X0038437Y-051948D01*
G01X0038421Y-051949D01*
G01X0038154Y-051949D01*
G01X0038138Y-051948D01*
G01X0038125Y-051944D01*
G01X0038112Y-051937D01*
G01X0038101Y-051928D01*
G01X0038093Y-051917D01*
G01X0038086Y-051905D01*
G01X0038082Y-051892D01*
G01X0038080Y-051875D01*
G01X0038080Y-051639D01*
G01X0038082Y-051622D01*
G01X0038086Y-051609D01*
G01X0038093Y-051596D01*
G01X0038101Y-051586D01*
G01X0038112Y-051577D01*
G01X0038125Y-051570D01*
G01X0038138Y-051566D01*
G01X0038154Y-051565D01*
G01X0038421Y-051565D01*
G01X0038437Y-051566D01*
G01X0038437Y-051566D01*
G37*
G36*
G01X0049430Y-050800D02*
G01X0048996Y-050800D01*
G01X0048996Y-049578D01*
G01X0049430Y-049578D01*
G01X0049430Y-050800D01*
G01X0049430Y-050800D01*
G37*
G36*
G01X0050430Y-050800D02*
G01X0049996Y-050800D01*
G01X0049996Y-049578D01*
G01X0050430Y-049578D01*
G01X0050430Y-050800D01*
G01X0050430Y-050800D01*
G37*
G36*
G01X0048430Y-050800D02*
G01X0047996Y-050800D01*
G01X0047996Y-049578D01*
G01X0048430Y-049578D01*
G01X0048430Y-050800D01*
G01X0048430Y-050800D01*
G37*
G36*
G01X0051430Y-050800D02*
G01X0050996Y-050800D01*
G01X0050996Y-049578D01*
G01X0051430Y-049578D01*
G01X0051430Y-050800D01*
G01X0051430Y-050800D01*
G37*
G36*
G01X0047430Y-050800D02*
G01X0046996Y-050800D01*
G01X0046996Y-049578D01*
G01X0047430Y-049578D01*
G01X0047430Y-050800D01*
G01X0047430Y-050800D01*
G37*
G36*
G01X0031957Y-049076D02*
G01X0031969Y-049079D01*
G01X0031980Y-049085D01*
G01X0031990Y-049093D01*
G01X0031997Y-049103D01*
G01X0032003Y-049113D01*
G01X0032007Y-049125D01*
G01X0032008Y-049140D01*
G01X0032008Y-050624D01*
G01X0032007Y-050639D01*
G01X0032003Y-050650D01*
G01X0031997Y-050661D01*
G01X0031990Y-050671D01*
G01X0031980Y-050679D01*
G01X0031969Y-050684D01*
G01X0031957Y-050688D01*
G01X0031943Y-050689D01*
G01X0031049Y-050689D01*
G01X0031035Y-050688D01*
G01X0031023Y-050684D01*
G01X0031012Y-050679D01*
G01X0031002Y-050671D01*
G01X0030995Y-050661D01*
G01X0030989Y-050650D01*
G01X0030985Y-050639D01*
G01X0030984Y-050624D01*
G01X0030984Y-049140D01*
G01X0030985Y-049125D01*
G01X0030989Y-049113D01*
G01X0030995Y-049103D01*
G01X0031002Y-049093D01*
G01X0031012Y-049085D01*
G01X0031023Y-049079D01*
G01X0031035Y-049076D01*
G01X0031049Y-049074D01*
G01X0031943Y-049074D01*
G01X0031957Y-049076D01*
G01X0031957Y-049076D01*
G37*
G36*
G01X0043768Y-049907D02*
G01X0043769Y-049917D01*
G01X0043771Y-049926D01*
G01X0043776Y-049935D01*
G01X0043782Y-049942D01*
G01X0043790Y-049948D01*
G01X0043798Y-049953D01*
G01X0043807Y-049956D01*
G01X0043817Y-049957D01*
G01X0043866Y-049957D01*
G01X0043866Y-050622D01*
G01X0041961Y-050622D01*
G01X0041961Y-049957D01*
G01X0042010Y-049957D01*
G01X0042019Y-049956D01*
G01X0042029Y-049953D01*
G01X0042037Y-049948D01*
G01X0042045Y-049942D01*
G01X0042051Y-049935D01*
G01X0042055Y-049926D01*
G01X0042058Y-049917D01*
G01X0042059Y-049907D01*
G01X0042059Y-048750D01*
G01X0043768Y-048750D01*
G01X0043768Y-049907D01*
G01X0043768Y-049907D01*
G37*
G36*
G01X0036878Y-049907D02*
G01X0036879Y-049917D01*
G01X0036882Y-049926D01*
G01X0036886Y-049935D01*
G01X0036892Y-049942D01*
G01X0036900Y-049948D01*
G01X0036908Y-049953D01*
G01X0036918Y-049956D01*
G01X0036927Y-049957D01*
G01X0036976Y-049957D01*
G01X0036976Y-050622D01*
G01X0035071Y-050622D01*
G01X0035071Y-049957D01*
G01X0035120Y-049957D01*
G01X0035130Y-049956D01*
G01X0035139Y-049953D01*
G01X0035147Y-049948D01*
G01X0035155Y-049942D01*
G01X0035161Y-049935D01*
G01X0035166Y-049926D01*
G01X0035168Y-049917D01*
G01X0035169Y-049907D01*
G01X0035169Y-048750D01*
G01X0036878Y-048750D01*
G01X0036878Y-049907D01*
G01X0036878Y-049907D01*
G37*
G36*
G01X0024611Y-049142D02*
G01X0024177Y-049142D01*
G01X0024177Y-047921D01*
G01X0024611Y-047921D01*
G01X0024611Y-049142D01*
G01X0024611Y-049142D01*
G37*
G36*
G01X0023611Y-049142D02*
G01X0023177Y-049142D01*
G01X0023177Y-047921D01*
G01X0023611Y-047921D01*
G01X0023611Y-049142D01*
G01X0023611Y-049142D01*
G37*
G36*
G01X0027611Y-049142D02*
G01X0027177Y-049142D01*
G01X0027177Y-047921D01*
G01X0027611Y-047921D01*
G01X0027611Y-049142D01*
G01X0027611Y-049142D01*
G37*
G36*
G01X0025611Y-049142D02*
G01X0025177Y-049142D01*
G01X0025177Y-047921D01*
G01X0025611Y-047921D01*
G01X0025611Y-049142D01*
G01X0025611Y-049142D01*
G37*
G36*
G01X0026611Y-049142D02*
G01X0026177Y-049142D01*
G01X0026177Y-047921D01*
G01X0026611Y-047921D01*
G01X0026611Y-049142D01*
G01X0026611Y-049142D01*
G37*
G36*
G01X0040595Y-047678D02*
G01X0040608Y-047682D01*
G01X0040619Y-047689D01*
G01X0040630Y-047697D01*
G01X0040638Y-047707D01*
G01X0040645Y-047719D01*
G01X0040648Y-047732D01*
G01X0040650Y-047748D01*
G01X0040650Y-048355D01*
G01X0040648Y-048370D01*
G01X0040645Y-048383D01*
G01X0040638Y-048395D01*
G01X0040630Y-048405D01*
G01X0040619Y-048414D01*
G01X0040608Y-048420D01*
G01X0040595Y-048424D01*
G01X0040579Y-048426D01*
G01X0038555Y-048426D01*
G01X0038539Y-048424D01*
G01X0038526Y-048420D01*
G01X0038514Y-048414D01*
G01X0038504Y-048405D01*
G01X0038496Y-048395D01*
G01X0038489Y-048383D01*
G01X0038485Y-048370D01*
G01X0038484Y-048355D01*
G01X0038484Y-047748D01*
G01X0038485Y-047732D01*
G01X0038489Y-047719D01*
G01X0038496Y-047707D01*
G01X0038504Y-047697D01*
G01X0038514Y-047689D01*
G01X0038526Y-047682D01*
G01X0038539Y-047678D01*
G01X0038555Y-047677D01*
G01X0040579Y-047677D01*
G01X0040595Y-047678D01*
G01X0040595Y-047678D01*
G37*
G36*
G01X0049694Y-047058D02*
G01X0049708Y-047063D01*
G01X0049721Y-047070D01*
G01X0049732Y-047079D01*
G01X0049742Y-047090D01*
G01X0049748Y-047103D01*
G01X0049753Y-047117D01*
G01X0049754Y-047134D01*
G01X0049754Y-048338D01*
G01X0049753Y-048355D01*
G01X0049748Y-048369D01*
G01X0049742Y-048382D01*
G01X0049732Y-048394D01*
G01X0049721Y-048403D01*
G01X0049708Y-048410D01*
G01X0049694Y-048414D01*
G01X0049677Y-048416D01*
G01X0049260Y-048416D01*
G01X0049243Y-048414D01*
G01X0049229Y-048410D01*
G01X0049216Y-048403D01*
G01X0049205Y-048394D01*
G01X0049195Y-048382D01*
G01X0049189Y-048369D01*
G01X0049184Y-048355D01*
G01X0049183Y-048338D01*
G01X0049183Y-047134D01*
G01X0049184Y-047117D01*
G01X0049189Y-047103D01*
G01X0049195Y-047090D01*
G01X0049205Y-047079D01*
G01X0049216Y-047070D01*
G01X0049229Y-047063D01*
G01X0049243Y-047058D01*
G01X0049260Y-047057D01*
G01X0049677Y-047057D01*
G01X0049694Y-047058D01*
G01X0049694Y-047058D01*
G37*
G36*
G01X0047411Y-047058D02*
G01X0047425Y-047063D01*
G01X0047437Y-047070D01*
G01X0047449Y-047079D01*
G01X0047458Y-047090D01*
G01X0047465Y-047103D01*
G01X0047469Y-047117D01*
G01X0047471Y-047134D01*
G01X0047471Y-048338D01*
G01X0047469Y-048355D01*
G01X0047465Y-048369D01*
G01X0047458Y-048382D01*
G01X0047449Y-048394D01*
G01X0047437Y-048403D01*
G01X0047425Y-048410D01*
G01X0047411Y-048414D01*
G01X0047394Y-048416D01*
G01X0046977Y-048416D01*
G01X0046960Y-048414D01*
G01X0046946Y-048410D01*
G01X0046933Y-048403D01*
G01X0046921Y-048394D01*
G01X0046912Y-048382D01*
G01X0046905Y-048369D01*
G01X0046901Y-048355D01*
G01X0046899Y-048338D01*
G01X0046899Y-047134D01*
G01X0046901Y-047117D01*
G01X0046905Y-047103D01*
G01X0046912Y-047090D01*
G01X0046921Y-047079D01*
G01X0046933Y-047070D01*
G01X0046946Y-047063D01*
G01X0046960Y-047058D01*
G01X0046977Y-047057D01*
G01X0047394Y-047057D01*
G01X0047411Y-047058D01*
G01X0047411Y-047058D01*
G37*
G36*
G01X0042331Y-048390D02*
G01X0042000Y-048390D01*
G01X0042000Y-047882D01*
G01X0042331Y-047882D01*
G01X0042331Y-048390D01*
G01X0042331Y-048390D01*
G37*
G36*
G01X0035441Y-048390D02*
G01X0035110Y-048390D01*
G01X0035110Y-047882D01*
G01X0035441Y-047882D01*
G01X0035441Y-048390D01*
G01X0035441Y-048390D01*
G37*
G36*
G01X0035941Y-048390D02*
G01X0035610Y-048390D01*
G01X0035610Y-047882D01*
G01X0035941Y-047882D01*
G01X0035941Y-048390D01*
G01X0035941Y-048390D01*
G37*
G36*
G01X0036941Y-048390D02*
G01X0036610Y-048390D01*
G01X0036610Y-047882D01*
G01X0036941Y-047882D01*
G01X0036941Y-048390D01*
G01X0036941Y-048390D01*
G37*
G36*
G01X0043331Y-048390D02*
G01X0043000Y-048390D01*
G01X0043000Y-047882D01*
G01X0043331Y-047882D01*
G01X0043331Y-048390D01*
G01X0043331Y-048390D01*
G37*
G36*
G01X0043831Y-048390D02*
G01X0043500Y-048390D01*
G01X0043500Y-047882D01*
G01X0043831Y-047882D01*
G01X0043831Y-048390D01*
G01X0043831Y-048390D01*
G37*
G36*
G01X0042831Y-048390D02*
G01X0042500Y-048390D01*
G01X0042500Y-047882D01*
G01X0042831Y-047882D01*
G01X0042831Y-048390D01*
G01X0042831Y-048390D01*
G37*
G36*
G01X0036441Y-048390D02*
G01X0036110Y-048390D01*
G01X0036110Y-047882D01*
G01X0036441Y-047882D01*
G01X0036441Y-048390D01*
G01X0036441Y-048390D01*
G37*
G36*
G01X0034273Y-047235D02*
G01X0034287Y-047240D01*
G01X0034299Y-047246D01*
G01X0034310Y-047255D01*
G01X0034319Y-047266D01*
G01X0034325Y-047278D01*
G01X0034329Y-047291D01*
G01X0034331Y-047308D01*
G01X0034331Y-047574D01*
G01X0034329Y-047590D01*
G01X0034325Y-047604D01*
G01X0034319Y-047616D01*
G01X0034310Y-047627D01*
G01X0034299Y-047636D01*
G01X0034287Y-047642D01*
G01X0034273Y-047646D01*
G01X0034257Y-047648D01*
G01X0034020Y-047648D01*
G01X0034004Y-047646D01*
G01X0033991Y-047642D01*
G01X0033978Y-047636D01*
G01X0033968Y-047627D01*
G01X0033959Y-047616D01*
G01X0033952Y-047604D01*
G01X0033948Y-047590D01*
G01X0033946Y-047574D01*
G01X0033946Y-047308D01*
G01X0033948Y-047291D01*
G01X0033952Y-047278D01*
G01X0033959Y-047266D01*
G01X0033968Y-047255D01*
G01X0033978Y-047246D01*
G01X0033991Y-047240D01*
G01X0034004Y-047235D01*
G01X0034020Y-047234D01*
G01X0034257Y-047234D01*
G01X0034273Y-047235D01*
G01X0034273Y-047235D01*
G37*
G36*
G01X0034894Y-047235D02*
G01X0034907Y-047240D01*
G01X0034919Y-047246D01*
G01X0034930Y-047255D01*
G01X0034939Y-047266D01*
G01X0034946Y-047278D01*
G01X0034950Y-047291D01*
G01X0034951Y-047308D01*
G01X0034951Y-047574D01*
G01X0034950Y-047590D01*
G01X0034946Y-047604D01*
G01X0034939Y-047616D01*
G01X0034930Y-047627D01*
G01X0034919Y-047636D01*
G01X0034907Y-047642D01*
G01X0034894Y-047646D01*
G01X0034877Y-047648D01*
G01X0034641Y-047648D01*
G01X0034624Y-047646D01*
G01X0034611Y-047642D01*
G01X0034598Y-047636D01*
G01X0034588Y-047627D01*
G01X0034579Y-047616D01*
G01X0034572Y-047604D01*
G01X0034568Y-047590D01*
G01X0034567Y-047574D01*
G01X0034567Y-047308D01*
G01X0034568Y-047291D01*
G01X0034572Y-047278D01*
G01X0034579Y-047266D01*
G01X0034588Y-047255D01*
G01X0034598Y-047246D01*
G01X0034611Y-047240D01*
G01X0034624Y-047235D01*
G01X0034641Y-047234D01*
G01X0034877Y-047234D01*
G01X0034894Y-047235D01*
G01X0034894Y-047235D01*
G37*
G36*
G01X0041980Y-047235D02*
G01X0041994Y-047240D01*
G01X0042006Y-047246D01*
G01X0042017Y-047255D01*
G01X0042026Y-047266D01*
G01X0042032Y-047278D01*
G01X0042036Y-047291D01*
G01X0042038Y-047308D01*
G01X0042038Y-047574D01*
G01X0042036Y-047590D01*
G01X0042032Y-047604D01*
G01X0042026Y-047616D01*
G01X0042017Y-047627D01*
G01X0042006Y-047636D01*
G01X0041994Y-047642D01*
G01X0041980Y-047646D01*
G01X0041964Y-047648D01*
G01X0041727Y-047648D01*
G01X0041711Y-047646D01*
G01X0041697Y-047642D01*
G01X0041685Y-047636D01*
G01X0041674Y-047627D01*
G01X0041665Y-047616D01*
G01X0041659Y-047604D01*
G01X0041655Y-047590D01*
G01X0041653Y-047574D01*
G01X0041653Y-047308D01*
G01X0041655Y-047291D01*
G01X0041659Y-047278D01*
G01X0041665Y-047266D01*
G01X0041674Y-047255D01*
G01X0041685Y-047246D01*
G01X0041697Y-047240D01*
G01X0041711Y-047235D01*
G01X0041727Y-047234D01*
G01X0041964Y-047234D01*
G01X0041980Y-047235D01*
G01X0041980Y-047235D01*
G37*
G36*
G01X0041360Y-047235D02*
G01X0041373Y-047240D01*
G01X0041386Y-047246D01*
G01X0041397Y-047255D01*
G01X0041405Y-047266D01*
G01X0041412Y-047278D01*
G01X0041416Y-047291D01*
G01X0041418Y-047308D01*
G01X0041418Y-047574D01*
G01X0041416Y-047590D01*
G01X0041412Y-047604D01*
G01X0041405Y-047616D01*
G01X0041397Y-047627D01*
G01X0041386Y-047636D01*
G01X0041373Y-047642D01*
G01X0041360Y-047646D01*
G01X0041344Y-047648D01*
G01X0041107Y-047648D01*
G01X0041091Y-047646D01*
G01X0041077Y-047642D01*
G01X0041065Y-047636D01*
G01X0041054Y-047627D01*
G01X0041045Y-047616D01*
G01X0041039Y-047604D01*
G01X0041035Y-047590D01*
G01X0041033Y-047574D01*
G01X0041033Y-047308D01*
G01X0041035Y-047291D01*
G01X0041039Y-047278D01*
G01X0041045Y-047266D01*
G01X0041054Y-047255D01*
G01X0041065Y-047246D01*
G01X0041077Y-047240D01*
G01X0041091Y-047235D01*
G01X0041107Y-047234D01*
G01X0041344Y-047234D01*
G01X0041360Y-047235D01*
G01X0041360Y-047235D01*
G37*
G36*
G01X0031957Y-045926D02*
G01X0031969Y-045930D01*
G01X0031980Y-045936D01*
G01X0031990Y-045943D01*
G01X0031997Y-045953D01*
G01X0032003Y-045964D01*
G01X0032007Y-045976D01*
G01X0032008Y-045990D01*
G01X0032008Y-047474D01*
G01X0032007Y-047489D01*
G01X0032003Y-047501D01*
G01X0031997Y-047512D01*
G01X0031990Y-047521D01*
G01X0031980Y-047529D01*
G01X0031969Y-047535D01*
G01X0031957Y-047538D01*
G01X0031943Y-047540D01*
G01X0031049Y-047540D01*
G01X0031035Y-047538D01*
G01X0031023Y-047535D01*
G01X0031012Y-047529D01*
G01X0031002Y-047521D01*
G01X0030995Y-047512D01*
G01X0030989Y-047501D01*
G01X0030985Y-047489D01*
G01X0030984Y-047474D01*
G01X0030984Y-045990D01*
G01X0030985Y-045976D01*
G01X0030989Y-045964D01*
G01X0030995Y-045953D01*
G01X0031002Y-045943D01*
G01X0031012Y-045936D01*
G01X0031023Y-045930D01*
G01X0031035Y-045926D01*
G01X0031049Y-045925D01*
G01X0031943Y-045925D01*
G01X0031957Y-045926D01*
G01X0031957Y-045926D01*
G37*
G36*
G01X0054646Y-047166D02*
G01X0050669Y-047166D01*
G01X0050669Y-045157D01*
G01X0054646Y-045157D01*
G01X0054646Y-047166D01*
G01X0054646Y-047166D01*
G37*
G36*
G01X0026611Y-047158D02*
G01X0026177Y-047158D01*
G01X0026177Y-045937D01*
G01X0026611Y-045937D01*
G01X0026611Y-047158D01*
G01X0026611Y-047158D01*
G37*
G36*
G01X0023611Y-047158D02*
G01X0023177Y-047158D01*
G01X0023177Y-045937D01*
G01X0023611Y-045937D01*
G01X0023611Y-047158D01*
G01X0023611Y-047158D01*
G37*
G36*
G01X0024611Y-047158D02*
G01X0024177Y-047158D01*
G01X0024177Y-045937D01*
G01X0024611Y-045937D01*
G01X0024611Y-047158D01*
G01X0024611Y-047158D01*
G37*
G36*
G01X0025611Y-047158D02*
G01X0025177Y-047158D01*
G01X0025177Y-045937D01*
G01X0025611Y-045937D01*
G01X0025611Y-047158D01*
G01X0025611Y-047158D01*
G37*
G36*
G01X0027611Y-047158D02*
G01X0027177Y-047158D01*
G01X0027177Y-045937D01*
G01X0027611Y-045937D01*
G01X0027611Y-047158D01*
G01X0027611Y-047158D01*
G37*
G36*
G01X0041980Y-046645D02*
G01X0041994Y-046649D01*
G01X0042006Y-046656D01*
G01X0042017Y-046664D01*
G01X0042026Y-046675D01*
G01X0042032Y-046688D01*
G01X0042036Y-046701D01*
G01X0042038Y-046717D01*
G01X0042038Y-046984D01*
G01X0042036Y-047000D01*
G01X0042032Y-047013D01*
G01X0042026Y-047026D01*
G01X0042017Y-047036D01*
G01X0042006Y-047045D01*
G01X0041994Y-047052D01*
G01X0041980Y-047056D01*
G01X0041964Y-047057D01*
G01X0041727Y-047057D01*
G01X0041711Y-047056D01*
G01X0041697Y-047052D01*
G01X0041685Y-047045D01*
G01X0041674Y-047036D01*
G01X0041665Y-047026D01*
G01X0041659Y-047013D01*
G01X0041655Y-047000D01*
G01X0041653Y-046984D01*
G01X0041653Y-046717D01*
G01X0041655Y-046701D01*
G01X0041659Y-046688D01*
G01X0041665Y-046675D01*
G01X0041674Y-046664D01*
G01X0041685Y-046656D01*
G01X0041697Y-046649D01*
G01X0041711Y-046645D01*
G01X0041727Y-046643D01*
G01X0041964Y-046643D01*
G01X0041980Y-046645D01*
G01X0041980Y-046645D01*
G37*
G36*
G01X0034894Y-046645D02*
G01X0034907Y-046649D01*
G01X0034919Y-046656D01*
G01X0034930Y-046664D01*
G01X0034939Y-046675D01*
G01X0034946Y-046688D01*
G01X0034950Y-046701D01*
G01X0034951Y-046717D01*
G01X0034951Y-046984D01*
G01X0034950Y-047000D01*
G01X0034946Y-047013D01*
G01X0034939Y-047026D01*
G01X0034930Y-047036D01*
G01X0034919Y-047045D01*
G01X0034907Y-047052D01*
G01X0034894Y-047056D01*
G01X0034877Y-047057D01*
G01X0034641Y-047057D01*
G01X0034624Y-047056D01*
G01X0034611Y-047052D01*
G01X0034598Y-047045D01*
G01X0034588Y-047036D01*
G01X0034579Y-047026D01*
G01X0034572Y-047013D01*
G01X0034568Y-047000D01*
G01X0034567Y-046984D01*
G01X0034567Y-046717D01*
G01X0034568Y-046701D01*
G01X0034572Y-046688D01*
G01X0034579Y-046675D01*
G01X0034588Y-046664D01*
G01X0034598Y-046656D01*
G01X0034611Y-046649D01*
G01X0034624Y-046645D01*
G01X0034641Y-046643D01*
G01X0034877Y-046643D01*
G01X0034894Y-046645D01*
G01X0034894Y-046645D01*
G37*
G36*
G01X0041360Y-046645D02*
G01X0041373Y-046649D01*
G01X0041386Y-046656D01*
G01X0041397Y-046664D01*
G01X0041405Y-046675D01*
G01X0041412Y-046688D01*
G01X0041416Y-046701D01*
G01X0041418Y-046717D01*
G01X0041418Y-046984D01*
G01X0041416Y-047000D01*
G01X0041412Y-047013D01*
G01X0041405Y-047026D01*
G01X0041397Y-047036D01*
G01X0041386Y-047045D01*
G01X0041373Y-047052D01*
G01X0041360Y-047056D01*
G01X0041344Y-047057D01*
G01X0041107Y-047057D01*
G01X0041091Y-047056D01*
G01X0041077Y-047052D01*
G01X0041065Y-047045D01*
G01X0041054Y-047036D01*
G01X0041045Y-047026D01*
G01X0041039Y-047013D01*
G01X0041035Y-047000D01*
G01X0041033Y-046984D01*
G01X0041033Y-046717D01*
G01X0041035Y-046701D01*
G01X0041039Y-046688D01*
G01X0041045Y-046675D01*
G01X0041054Y-046664D01*
G01X0041065Y-046656D01*
G01X0041077Y-046649D01*
G01X0041091Y-046645D01*
G01X0041107Y-046643D01*
G01X0041344Y-046643D01*
G01X0041360Y-046645D01*
G01X0041360Y-046645D01*
G37*
G36*
G01X0034273Y-046645D02*
G01X0034287Y-046649D01*
G01X0034299Y-046656D01*
G01X0034310Y-046664D01*
G01X0034319Y-046675D01*
G01X0034325Y-046688D01*
G01X0034329Y-046701D01*
G01X0034331Y-046717D01*
G01X0034331Y-046984D01*
G01X0034329Y-047000D01*
G01X0034325Y-047013D01*
G01X0034319Y-047026D01*
G01X0034310Y-047036D01*
G01X0034299Y-047045D01*
G01X0034287Y-047052D01*
G01X0034273Y-047056D01*
G01X0034257Y-047057D01*
G01X0034020Y-047057D01*
G01X0034004Y-047056D01*
G01X0033991Y-047052D01*
G01X0033978Y-047045D01*
G01X0033968Y-047036D01*
G01X0033959Y-047026D01*
G01X0033952Y-047013D01*
G01X0033948Y-047000D01*
G01X0033946Y-046984D01*
G01X0033946Y-046717D01*
G01X0033948Y-046701D01*
G01X0033952Y-046688D01*
G01X0033959Y-046675D01*
G01X0033968Y-046664D01*
G01X0033978Y-046656D01*
G01X0033991Y-046649D01*
G01X0034004Y-046645D01*
G01X0034020Y-046643D01*
G01X0034257Y-046643D01*
G01X0034273Y-046645D01*
G01X0034273Y-046645D01*
G37*
G36*
G01X0047411Y-045484D02*
G01X0047425Y-045488D01*
G01X0047437Y-045495D01*
G01X0047449Y-045504D01*
G01X0047458Y-045515D01*
G01X0047465Y-045528D01*
G01X0047469Y-045542D01*
G01X0047471Y-045559D01*
G01X0047471Y-046764D01*
G01X0047469Y-046781D01*
G01X0047465Y-046795D01*
G01X0047458Y-046808D01*
G01X0047449Y-046819D01*
G01X0047437Y-046828D01*
G01X0047425Y-046835D01*
G01X0047411Y-046839D01*
G01X0047394Y-046841D01*
G01X0046977Y-046841D01*
G01X0046960Y-046839D01*
G01X0046946Y-046835D01*
G01X0046933Y-046828D01*
G01X0046921Y-046819D01*
G01X0046912Y-046808D01*
G01X0046905Y-046795D01*
G01X0046901Y-046781D01*
G01X0046899Y-046764D01*
G01X0046899Y-045559D01*
G01X0046901Y-045542D01*
G01X0046905Y-045528D01*
G01X0046912Y-045515D01*
G01X0046921Y-045504D01*
G01X0046933Y-045495D01*
G01X0046946Y-045488D01*
G01X0046960Y-045484D01*
G01X0046977Y-045482D01*
G01X0047394Y-045482D01*
G01X0047411Y-045484D01*
G01X0047411Y-045484D01*
G37*
G36*
G01X0049694Y-045484D02*
G01X0049708Y-045488D01*
G01X0049721Y-045495D01*
G01X0049732Y-045504D01*
G01X0049742Y-045515D01*
G01X0049748Y-045528D01*
G01X0049753Y-045542D01*
G01X0049754Y-045559D01*
G01X0049754Y-046764D01*
G01X0049753Y-046781D01*
G01X0049748Y-046795D01*
G01X0049742Y-046808D01*
G01X0049732Y-046819D01*
G01X0049721Y-046828D01*
G01X0049708Y-046835D01*
G01X0049694Y-046839D01*
G01X0049677Y-046841D01*
G01X0049260Y-046841D01*
G01X0049243Y-046839D01*
G01X0049229Y-046835D01*
G01X0049216Y-046828D01*
G01X0049205Y-046819D01*
G01X0049195Y-046808D01*
G01X0049189Y-046795D01*
G01X0049184Y-046781D01*
G01X0049183Y-046764D01*
G01X0049183Y-045559D01*
G01X0049184Y-045542D01*
G01X0049189Y-045528D01*
G01X0049195Y-045515D01*
G01X0049205Y-045504D01*
G01X0049216Y-045495D01*
G01X0049229Y-045488D01*
G01X0049243Y-045484D01*
G01X0049260Y-045482D01*
G01X0049677Y-045482D01*
G01X0049694Y-045484D01*
G01X0049694Y-045484D01*
G37*
G36*
G01X0040595Y-045670D02*
G01X0040608Y-045674D01*
G01X0040619Y-045681D01*
G01X0040630Y-045689D01*
G01X0040638Y-045699D01*
G01X0040645Y-045711D01*
G01X0040648Y-045724D01*
G01X0040650Y-045740D01*
G01X0040650Y-046347D01*
G01X0040648Y-046363D01*
G01X0040645Y-046375D01*
G01X0040638Y-046387D01*
G01X0040630Y-046397D01*
G01X0040619Y-046406D01*
G01X0040608Y-046412D01*
G01X0040595Y-046416D01*
G01X0040579Y-046418D01*
G01X0038555Y-046418D01*
G01X0038539Y-046416D01*
G01X0038526Y-046412D01*
G01X0038514Y-046406D01*
G01X0038504Y-046397D01*
G01X0038496Y-046387D01*
G01X0038489Y-046375D01*
G01X0038485Y-046363D01*
G01X0038484Y-046347D01*
G01X0038484Y-045740D01*
G01X0038485Y-045724D01*
G01X0038489Y-045711D01*
G01X0038496Y-045699D01*
G01X0038504Y-045689D01*
G01X0038514Y-045681D01*
G01X0038526Y-045674D01*
G01X0038539Y-045670D01*
G01X0038555Y-045669D01*
G01X0040579Y-045669D01*
G01X0040595Y-045670D01*
G01X0040595Y-045670D01*
G37*
G36*
G01X0043768Y-044947D02*
G01X0043769Y-044956D01*
G01X0043771Y-044966D01*
G01X0043776Y-044974D01*
G01X0043782Y-044982D01*
G01X0043790Y-044988D01*
G01X0043798Y-044992D01*
G01X0043807Y-044995D01*
G01X0043817Y-044996D01*
G01X0043866Y-044996D01*
G01X0043866Y-045661D01*
G01X0041961Y-045661D01*
G01X0041961Y-044996D01*
G01X0042010Y-044996D01*
G01X0042019Y-044995D01*
G01X0042029Y-044992D01*
G01X0042037Y-044988D01*
G01X0042045Y-044982D01*
G01X0042051Y-044974D01*
G01X0042055Y-044966D01*
G01X0042058Y-044956D01*
G01X0042059Y-044947D01*
G01X0042059Y-043789D01*
G01X0043768Y-043789D01*
G01X0043768Y-044947D01*
G01X0043768Y-044947D01*
G37*
G36*
G01X0036878Y-044947D02*
G01X0036879Y-044956D01*
G01X0036882Y-044966D01*
G01X0036886Y-044974D01*
G01X0036892Y-044982D01*
G01X0036900Y-044988D01*
G01X0036908Y-044992D01*
G01X0036918Y-044995D01*
G01X0036927Y-044996D01*
G01X0036976Y-044996D01*
G01X0036976Y-045661D01*
G01X0035071Y-045661D01*
G01X0035071Y-044996D01*
G01X0035120Y-044996D01*
G01X0035130Y-044995D01*
G01X0035139Y-044992D01*
G01X0035147Y-044988D01*
G01X0035155Y-044982D01*
G01X0035161Y-044974D01*
G01X0035166Y-044966D01*
G01X0035168Y-044956D01*
G01X0035169Y-044947D01*
G01X0035169Y-043789D01*
G01X0036878Y-043789D01*
G01X0036878Y-044947D01*
G01X0036878Y-044947D01*
G37*
G36*
G01X0031957Y-043879D02*
G01X0031969Y-043883D01*
G01X0031980Y-043888D01*
G01X0031990Y-043896D01*
G01X0031997Y-043906D01*
G01X0032003Y-043917D01*
G01X0032007Y-043928D01*
G01X0032008Y-043943D01*
G01X0032008Y-045427D01*
G01X0032007Y-045442D01*
G01X0032003Y-045453D01*
G01X0031997Y-045464D01*
G01X0031990Y-045474D01*
G01X0031980Y-045482D01*
G01X0031969Y-045487D01*
G01X0031957Y-045491D01*
G01X0031943Y-045493D01*
G01X0031049Y-045493D01*
G01X0031035Y-045491D01*
G01X0031023Y-045487D01*
G01X0031012Y-045482D01*
G01X0031002Y-045474D01*
G01X0030995Y-045464D01*
G01X0030989Y-045453D01*
G01X0030985Y-045442D01*
G01X0030984Y-045427D01*
G01X0030984Y-043943D01*
G01X0030985Y-043928D01*
G01X0030989Y-043917D01*
G01X0030995Y-043906D01*
G01X0031002Y-043896D01*
G01X0031012Y-043888D01*
G01X0031023Y-043883D01*
G01X0031035Y-043879D01*
G01X0031049Y-043878D01*
G01X0031943Y-043878D01*
G01X0031957Y-043879D01*
G01X0031957Y-043879D01*
G37*
G36*
G01X0024417Y-044873D02*
G01X0024431Y-044878D01*
G01X0024444Y-044885D01*
G01X0024456Y-044894D01*
G01X0024466Y-044906D01*
G01X0024473Y-044919D01*
G01X0024477Y-044934D01*
G01X0024479Y-044951D01*
G01X0024479Y-045325D01*
G01X0024477Y-045342D01*
G01X0024473Y-045356D01*
G01X0024466Y-045370D01*
G01X0024456Y-045381D01*
G01X0024444Y-045391D01*
G01X0024431Y-045398D01*
G01X0024417Y-045402D01*
G01X0024399Y-045404D01*
G01X0023829Y-045404D01*
G01X0023812Y-045402D01*
G01X0023797Y-045398D01*
G01X0023784Y-045391D01*
G01X0023772Y-045381D01*
G01X0023763Y-045370D01*
G01X0023756Y-045356D01*
G01X0023751Y-045342D01*
G01X0023750Y-045325D01*
G01X0023750Y-044951D01*
G01X0023751Y-044934D01*
G01X0023756Y-044919D01*
G01X0023763Y-044906D01*
G01X0023772Y-044894D01*
G01X0023784Y-044885D01*
G01X0023797Y-044878D01*
G01X0023812Y-044873D01*
G01X0023829Y-044872D01*
G01X0024399Y-044872D01*
G01X0024417Y-044873D01*
G01X0024417Y-044873D01*
G37*
G36*
G01X0049694Y-043909D02*
G01X0049708Y-043913D01*
G01X0049721Y-043920D01*
G01X0049732Y-043929D01*
G01X0049742Y-043940D01*
G01X0049748Y-043953D01*
G01X0049753Y-043967D01*
G01X0049754Y-043984D01*
G01X0049754Y-045189D01*
G01X0049753Y-045206D01*
G01X0049748Y-045220D01*
G01X0049742Y-045233D01*
G01X0049732Y-045244D01*
G01X0049721Y-045253D01*
G01X0049708Y-045260D01*
G01X0049694Y-045264D01*
G01X0049677Y-045266D01*
G01X0049260Y-045266D01*
G01X0049243Y-045264D01*
G01X0049229Y-045260D01*
G01X0049216Y-045253D01*
G01X0049205Y-045244D01*
G01X0049195Y-045233D01*
G01X0049189Y-045220D01*
G01X0049184Y-045206D01*
G01X0049183Y-045189D01*
G01X0049183Y-043984D01*
G01X0049184Y-043967D01*
G01X0049189Y-043953D01*
G01X0049195Y-043940D01*
G01X0049205Y-043929D01*
G01X0049216Y-043920D01*
G01X0049229Y-043913D01*
G01X0049243Y-043909D01*
G01X0049260Y-043907D01*
G01X0049677Y-043907D01*
G01X0049694Y-043909D01*
G01X0049694Y-043909D01*
G37*
G36*
G01X0047411Y-043909D02*
G01X0047425Y-043913D01*
G01X0047437Y-043920D01*
G01X0047449Y-043929D01*
G01X0047458Y-043940D01*
G01X0047465Y-043953D01*
G01X0047469Y-043967D01*
G01X0047471Y-043984D01*
G01X0047471Y-045189D01*
G01X0047469Y-045206D01*
G01X0047465Y-045220D01*
G01X0047458Y-045233D01*
G01X0047449Y-045244D01*
G01X0047437Y-045253D01*
G01X0047425Y-045260D01*
G01X0047411Y-045264D01*
G01X0047394Y-045266D01*
G01X0046977Y-045266D01*
G01X0046960Y-045264D01*
G01X0046946Y-045260D01*
G01X0046933Y-045253D01*
G01X0046921Y-045244D01*
G01X0046912Y-045233D01*
G01X0046905Y-045220D01*
G01X0046901Y-045206D01*
G01X0046899Y-045189D01*
G01X0046899Y-043984D01*
G01X0046901Y-043967D01*
G01X0046905Y-043953D01*
G01X0046912Y-043940D01*
G01X0046921Y-043929D01*
G01X0046933Y-043920D01*
G01X0046946Y-043913D01*
G01X0046960Y-043909D01*
G01X0046977Y-043907D01*
G01X0047394Y-043907D01*
G01X0047411Y-043909D01*
G01X0047411Y-043909D01*
G37*
G36*
G01X0025051Y-044411D02*
G01X0025064Y-044415D01*
G01X0025077Y-044421D01*
G01X0025088Y-044430D01*
G01X0025096Y-044441D01*
G01X0025103Y-044453D01*
G01X0025107Y-044467D01*
G01X0025109Y-044483D01*
G01X0025109Y-044720D01*
G01X0025107Y-044736D01*
G01X0025103Y-044749D01*
G01X0025096Y-044762D01*
G01X0025088Y-044773D01*
G01X0025077Y-044781D01*
G01X0025064Y-044788D01*
G01X0025051Y-044792D01*
G01X0025035Y-044794D01*
G01X0024768Y-044794D01*
G01X0024752Y-044792D01*
G01X0024739Y-044788D01*
G01X0024726Y-044781D01*
G01X0024716Y-044773D01*
G01X0024707Y-044762D01*
G01X0024700Y-044749D01*
G01X0024696Y-044736D01*
G01X0024694Y-044720D01*
G01X0024694Y-044483D01*
G01X0024696Y-044467D01*
G01X0024700Y-044453D01*
G01X0024707Y-044441D01*
G01X0024716Y-044430D01*
G01X0024726Y-044421D01*
G01X0024739Y-044415D01*
G01X0024752Y-044411D01*
G01X0024768Y-044409D01*
G01X0025035Y-044409D01*
G01X0025051Y-044411D01*
G01X0025051Y-044411D01*
G37*
G36*
G01X0026165Y-044412D02*
G01X0026174Y-044415D01*
G01X0026181Y-044419D01*
G01X0026188Y-044424D01*
G01X0026193Y-044431D01*
G01X0026198Y-044439D01*
G01X0026200Y-044447D01*
G01X0026201Y-044458D01*
G01X0026201Y-044640D01*
G01X0026200Y-044652D01*
G01X0026198Y-044660D01*
G01X0026193Y-044667D01*
G01X0026188Y-044674D01*
G01X0026181Y-044680D01*
G01X0026174Y-044684D01*
G01X0026165Y-044686D01*
G01X0026154Y-044687D01*
G01X0025440Y-044687D01*
G01X0025429Y-044686D01*
G01X0025421Y-044684D01*
G01X0025413Y-044680D01*
G01X0025407Y-044674D01*
G01X0025401Y-044667D01*
G01X0025397Y-044660D01*
G01X0025394Y-044652D01*
G01X0025393Y-044640D01*
G01X0025393Y-044458D01*
G01X0025394Y-044447D01*
G01X0025397Y-044439D01*
G01X0025401Y-044431D01*
G01X0025407Y-044424D01*
G01X0025413Y-044419D01*
G01X0025421Y-044415D01*
G01X0025429Y-044412D01*
G01X0025440Y-044411D01*
G01X0026154Y-044411D01*
G01X0026165Y-044412D01*
G01X0026165Y-044412D01*
G37*
G36*
G01X0028114Y-044412D02*
G01X0028122Y-044415D01*
G01X0028130Y-044419D01*
G01X0028137Y-044424D01*
G01X0028142Y-044431D01*
G01X0028146Y-044439D01*
G01X0028149Y-044447D01*
G01X0028150Y-044458D01*
G01X0028150Y-044640D01*
G01X0028149Y-044652D01*
G01X0028146Y-044660D01*
G01X0028142Y-044667D01*
G01X0028137Y-044674D01*
G01X0028130Y-044680D01*
G01X0028122Y-044684D01*
G01X0028114Y-044686D01*
G01X0028103Y-044687D01*
G01X0027389Y-044687D01*
G01X0027378Y-044686D01*
G01X0027370Y-044684D01*
G01X0027362Y-044680D01*
G01X0027355Y-044674D01*
G01X0027350Y-044667D01*
G01X0027346Y-044660D01*
G01X0027343Y-044652D01*
G01X0027342Y-044640D01*
G01X0027342Y-044458D01*
G01X0027343Y-044447D01*
G01X0027346Y-044439D01*
G01X0027350Y-044431D01*
G01X0027355Y-044424D01*
G01X0027362Y-044419D01*
G01X0027370Y-044415D01*
G01X0027378Y-044412D01*
G01X0027389Y-044411D01*
G01X0028103Y-044411D01*
G01X0028114Y-044412D01*
G01X0028114Y-044412D01*
G37*
G36*
G01X0029043Y-043889D02*
G01X0029057Y-043893D01*
G01X0029070Y-043901D01*
G01X0029082Y-043910D01*
G01X0029092Y-043922D01*
G01X0029099Y-043935D01*
G01X0029103Y-043949D01*
G01X0029105Y-043967D01*
G01X0029105Y-044340D01*
G01X0029103Y-044358D01*
G01X0029099Y-044372D01*
G01X0029092Y-044385D01*
G01X0029082Y-044397D01*
G01X0029070Y-044407D01*
G01X0029057Y-044414D01*
G01X0029043Y-044418D01*
G01X0029025Y-044420D01*
G01X0028455Y-044420D01*
G01X0028438Y-044418D01*
G01X0028423Y-044414D01*
G01X0028410Y-044407D01*
G01X0028398Y-044397D01*
G01X0028389Y-044385D01*
G01X0028382Y-044372D01*
G01X0028377Y-044358D01*
G01X0028376Y-044340D01*
G01X0028376Y-043967D01*
G01X0028377Y-043949D01*
G01X0028382Y-043935D01*
G01X0028389Y-043922D01*
G01X0028398Y-043910D01*
G01X0028410Y-043901D01*
G01X0028423Y-043893D01*
G01X0028438Y-043889D01*
G01X0028455Y-043887D01*
G01X0029025Y-043887D01*
G01X0029043Y-043889D01*
G01X0029043Y-043889D01*
G37*
G36*
G01X0024417Y-043771D02*
G01X0024431Y-043775D01*
G01X0024444Y-043782D01*
G01X0024456Y-043792D01*
G01X0024466Y-043804D01*
G01X0024473Y-043817D01*
G01X0024477Y-043831D01*
G01X0024479Y-043849D01*
G01X0024479Y-044222D01*
G01X0024477Y-044240D01*
G01X0024473Y-044254D01*
G01X0024466Y-044267D01*
G01X0024456Y-044279D01*
G01X0024444Y-044288D01*
G01X0024431Y-044295D01*
G01X0024417Y-044300D01*
G01X0024399Y-044302D01*
G01X0023829Y-044302D01*
G01X0023812Y-044300D01*
G01X0023797Y-044295D01*
G01X0023784Y-044288D01*
G01X0023772Y-044279D01*
G01X0023763Y-044267D01*
G01X0023756Y-044254D01*
G01X0023751Y-044240D01*
G01X0023750Y-044222D01*
G01X0023750Y-043849D01*
G01X0023751Y-043831D01*
G01X0023756Y-043817D01*
G01X0023763Y-043804D01*
G01X0023772Y-043792D01*
G01X0023784Y-043782D01*
G01X0023797Y-043775D01*
G01X0023812Y-043771D01*
G01X0023829Y-043769D01*
G01X0024399Y-043769D01*
G01X0024417Y-043771D01*
G01X0024417Y-043771D01*
G37*
G36*
G01X0026165Y-043912D02*
G01X0026174Y-043915D01*
G01X0026181Y-043919D01*
G01X0026188Y-043924D01*
G01X0026193Y-043931D01*
G01X0026198Y-043939D01*
G01X0026200Y-043947D01*
G01X0026201Y-043958D01*
G01X0026201Y-044140D01*
G01X0026200Y-044152D01*
G01X0026198Y-044160D01*
G01X0026193Y-044167D01*
G01X0026188Y-044174D01*
G01X0026181Y-044180D01*
G01X0026174Y-044184D01*
G01X0026165Y-044186D01*
G01X0026154Y-044187D01*
G01X0025440Y-044187D01*
G01X0025429Y-044186D01*
G01X0025421Y-044184D01*
G01X0025413Y-044180D01*
G01X0025407Y-044174D01*
G01X0025401Y-044167D01*
G01X0025397Y-044160D01*
G01X0025394Y-044152D01*
G01X0025393Y-044140D01*
G01X0025393Y-043958D01*
G01X0025394Y-043947D01*
G01X0025397Y-043939D01*
G01X0025401Y-043931D01*
G01X0025407Y-043924D01*
G01X0025413Y-043919D01*
G01X0025421Y-043915D01*
G01X0025429Y-043912D01*
G01X0025440Y-043911D01*
G01X0026154Y-043911D01*
G01X0026165Y-043912D01*
G01X0026165Y-043912D01*
G37*
G36*
G01X0028114Y-043912D02*
G01X0028122Y-043915D01*
G01X0028130Y-043919D01*
G01X0028137Y-043924D01*
G01X0028142Y-043931D01*
G01X0028146Y-043939D01*
G01X0028149Y-043947D01*
G01X0028150Y-043958D01*
G01X0028150Y-044140D01*
G01X0028149Y-044152D01*
G01X0028146Y-044160D01*
G01X0028142Y-044167D01*
G01X0028137Y-044174D01*
G01X0028130Y-044180D01*
G01X0028122Y-044184D01*
G01X0028114Y-044186D01*
G01X0028103Y-044187D01*
G01X0027389Y-044187D01*
G01X0027378Y-044186D01*
G01X0027370Y-044184D01*
G01X0027362Y-044180D01*
G01X0027355Y-044174D01*
G01X0027350Y-044167D01*
G01X0027346Y-044160D01*
G01X0027343Y-044152D01*
G01X0027342Y-044140D01*
G01X0027342Y-043958D01*
G01X0027343Y-043947D01*
G01X0027346Y-043939D01*
G01X0027350Y-043931D01*
G01X0027355Y-043924D01*
G01X0027362Y-043919D01*
G01X0027370Y-043915D01*
G01X0027378Y-043912D01*
G01X0027389Y-043911D01*
G01X0028103Y-043911D01*
G01X0028114Y-043912D01*
G01X0028114Y-043912D01*
G37*
G36*
G01X0025051Y-043791D02*
G01X0025064Y-043795D01*
G01X0025077Y-043801D01*
G01X0025088Y-043810D01*
G01X0025096Y-043821D01*
G01X0025103Y-043833D01*
G01X0025107Y-043847D01*
G01X0025109Y-043863D01*
G01X0025109Y-044100D01*
G01X0025107Y-044116D01*
G01X0025103Y-044129D01*
G01X0025096Y-044142D01*
G01X0025088Y-044152D01*
G01X0025077Y-044161D01*
G01X0025064Y-044168D01*
G01X0025051Y-044172D01*
G01X0025035Y-044174D01*
G01X0024768Y-044174D01*
G01X0024752Y-044172D01*
G01X0024739Y-044168D01*
G01X0024726Y-044161D01*
G01X0024716Y-044152D01*
G01X0024707Y-044142D01*
G01X0024700Y-044129D01*
G01X0024696Y-044116D01*
G01X0024694Y-044100D01*
G01X0024694Y-043863D01*
G01X0024696Y-043847D01*
G01X0024700Y-043833D01*
G01X0024707Y-043821D01*
G01X0024716Y-043810D01*
G01X0024726Y-043801D01*
G01X0024739Y-043795D01*
G01X0024752Y-043791D01*
G01X0024768Y-043789D01*
G01X0025035Y-043789D01*
G01X0025051Y-043791D01*
G01X0025051Y-043791D01*
G37*
G36*
G01X0028114Y-043412D02*
G01X0028122Y-043415D01*
G01X0028130Y-043419D01*
G01X0028137Y-043424D01*
G01X0028142Y-043431D01*
G01X0028146Y-043439D01*
G01X0028149Y-043447D01*
G01X0028150Y-043458D01*
G01X0028150Y-043640D01*
G01X0028149Y-043652D01*
G01X0028146Y-043660D01*
G01X0028142Y-043667D01*
G01X0028137Y-043674D01*
G01X0028130Y-043680D01*
G01X0028122Y-043684D01*
G01X0028114Y-043686D01*
G01X0028103Y-043687D01*
G01X0027389Y-043687D01*
G01X0027378Y-043686D01*
G01X0027370Y-043684D01*
G01X0027362Y-043680D01*
G01X0027355Y-043674D01*
G01X0027350Y-043667D01*
G01X0027346Y-043660D01*
G01X0027343Y-043652D01*
G01X0027342Y-043640D01*
G01X0027342Y-043458D01*
G01X0027343Y-043447D01*
G01X0027346Y-043439D01*
G01X0027350Y-043431D01*
G01X0027355Y-043424D01*
G01X0027362Y-043419D01*
G01X0027370Y-043415D01*
G01X0027378Y-043412D01*
G01X0027389Y-043411D01*
G01X0028103Y-043411D01*
G01X0028114Y-043412D01*
G01X0028114Y-043412D01*
G37*
G36*
G01X0026165Y-043412D02*
G01X0026174Y-043415D01*
G01X0026181Y-043419D01*
G01X0026188Y-043424D01*
G01X0026193Y-043431D01*
G01X0026198Y-043439D01*
G01X0026200Y-043447D01*
G01X0026201Y-043458D01*
G01X0026201Y-043640D01*
G01X0026200Y-043652D01*
G01X0026198Y-043660D01*
G01X0026193Y-043667D01*
G01X0026188Y-043674D01*
G01X0026181Y-043680D01*
G01X0026174Y-043684D01*
G01X0026165Y-043686D01*
G01X0026154Y-043687D01*
G01X0025440Y-043687D01*
G01X0025429Y-043686D01*
G01X0025421Y-043684D01*
G01X0025413Y-043680D01*
G01X0025407Y-043674D01*
G01X0025401Y-043667D01*
G01X0025397Y-043660D01*
G01X0025394Y-043652D01*
G01X0025393Y-043640D01*
G01X0025393Y-043458D01*
G01X0025394Y-043447D01*
G01X0025397Y-043439D01*
G01X0025401Y-043431D01*
G01X0025407Y-043424D01*
G01X0025413Y-043419D01*
G01X0025421Y-043415D01*
G01X0025429Y-043412D01*
G01X0025440Y-043411D01*
G01X0026154Y-043411D01*
G01X0026165Y-043412D01*
G01X0026165Y-043412D01*
G37*
G36*
G01X0035441Y-043429D02*
G01X0035110Y-043429D01*
G01X0035110Y-042921D01*
G01X0035441Y-042921D01*
G01X0035441Y-043429D01*
G01X0035441Y-043429D01*
G37*
G36*
G01X0043331Y-043429D02*
G01X0043000Y-043429D01*
G01X0043000Y-042921D01*
G01X0043331Y-042921D01*
G01X0043331Y-043429D01*
G01X0043331Y-043429D01*
G37*
G36*
G01X0042831Y-043429D02*
G01X0042500Y-043429D01*
G01X0042500Y-042921D01*
G01X0042831Y-042921D01*
G01X0042831Y-043429D01*
G01X0042831Y-043429D01*
G37*
G36*
G01X0042331Y-043429D02*
G01X0042000Y-043429D01*
G01X0042000Y-042921D01*
G01X0042331Y-042921D01*
G01X0042331Y-043429D01*
G01X0042331Y-043429D01*
G37*
G36*
G01X0036941Y-043429D02*
G01X0036610Y-043429D01*
G01X0036610Y-042921D01*
G01X0036941Y-042921D01*
G01X0036941Y-043429D01*
G01X0036941Y-043429D01*
G37*
G36*
G01X0036441Y-043429D02*
G01X0036110Y-043429D01*
G01X0036110Y-042921D01*
G01X0036441Y-042921D01*
G01X0036441Y-043429D01*
G01X0036441Y-043429D01*
G37*
G36*
G01X0035941Y-043429D02*
G01X0035610Y-043429D01*
G01X0035610Y-042921D01*
G01X0035941Y-042921D01*
G01X0035941Y-043429D01*
G01X0035941Y-043429D01*
G37*
G36*
G01X0043831Y-043429D02*
G01X0043500Y-043429D01*
G01X0043500Y-042921D01*
G01X0043831Y-042921D01*
G01X0043831Y-043429D01*
G01X0043831Y-043429D01*
G37*
G36*
G01X0047569Y-043406D02*
G01X0046958Y-043406D01*
G01X0046958Y-042421D01*
G01X0047569Y-042421D01*
G01X0047569Y-043406D01*
G01X0047569Y-043406D01*
G37*
G36*
G01X0049892Y-043406D02*
G01X0049281Y-043406D01*
G01X0049281Y-042421D01*
G01X0049892Y-042421D01*
G01X0049892Y-043406D01*
G01X0049892Y-043406D01*
G37*
G36*
G01X0029043Y-042787D02*
G01X0029057Y-042791D01*
G01X0029070Y-042798D01*
G01X0029082Y-042808D01*
G01X0029092Y-042819D01*
G01X0029099Y-042833D01*
G01X0029103Y-042847D01*
G01X0029105Y-042864D01*
G01X0029105Y-043238D01*
G01X0029103Y-043255D01*
G01X0029099Y-043270D01*
G01X0029092Y-043283D01*
G01X0029082Y-043295D01*
G01X0029070Y-043304D01*
G01X0029057Y-043311D01*
G01X0029043Y-043316D01*
G01X0029025Y-043317D01*
G01X0028455Y-043317D01*
G01X0028438Y-043316D01*
G01X0028423Y-043311D01*
G01X0028410Y-043304D01*
G01X0028398Y-043295D01*
G01X0028389Y-043283D01*
G01X0028382Y-043270D01*
G01X0028377Y-043255D01*
G01X0028376Y-043238D01*
G01X0028376Y-042864D01*
G01X0028377Y-042847D01*
G01X0028382Y-042833D01*
G01X0028389Y-042819D01*
G01X0028398Y-042808D01*
G01X0028410Y-042798D01*
G01X0028423Y-042791D01*
G01X0028438Y-042787D01*
G01X0028455Y-042785D01*
G01X0029025Y-042785D01*
G01X0029043Y-042787D01*
G01X0029043Y-042787D01*
G37*
G36*
G01X0046606Y-042934D02*
G01X0046620Y-042938D01*
G01X0046632Y-042945D01*
G01X0046643Y-042954D01*
G01X0046652Y-042965D01*
G01X0046658Y-042977D01*
G01X0046662Y-042990D01*
G01X0046664Y-043007D01*
G01X0046664Y-043243D01*
G01X0046662Y-043260D01*
G01X0046658Y-043273D01*
G01X0046652Y-043285D01*
G01X0046643Y-043296D01*
G01X0046632Y-043305D01*
G01X0046620Y-043312D01*
G01X0046606Y-043316D01*
G01X0046590Y-043317D01*
G01X0046324Y-043317D01*
G01X0046307Y-043316D01*
G01X0046294Y-043312D01*
G01X0046282Y-043305D01*
G01X0046271Y-043296D01*
G01X0046262Y-043285D01*
G01X0046255Y-043273D01*
G01X0046251Y-043260D01*
G01X0046250Y-043243D01*
G01X0046250Y-043007D01*
G01X0046251Y-042990D01*
G01X0046255Y-042977D01*
G01X0046262Y-042965D01*
G01X0046271Y-042954D01*
G01X0046282Y-042945D01*
G01X0046294Y-042938D01*
G01X0046307Y-042934D01*
G01X0046324Y-042933D01*
G01X0046590Y-042933D01*
G01X0046606Y-042934D01*
G01X0046606Y-042934D01*
G37*
G36*
G01X0039440Y-040756D02*
G01X0039645Y-040797D01*
G01X0039878Y-040893D01*
G01X0039992Y-040969D01*
G01X0040088Y-041033D01*
G01X0040266Y-041212D01*
G01X0040285Y-041240D01*
G01X0040406Y-041421D01*
G01X0040502Y-041654D01*
G01X0040518Y-041734D01*
G01X0040552Y-041901D01*
G01X0040552Y-042154D01*
G01X0040532Y-042251D01*
G01X0040502Y-042401D01*
G01X0040406Y-042634D01*
G01X0040304Y-042786D01*
G01X0040266Y-042843D01*
G01X0040088Y-043022D01*
G01X0040054Y-043044D01*
G01X0039878Y-043162D01*
G01X0039645Y-043258D01*
G01X0039521Y-043283D01*
G01X0039398Y-043307D01*
G01X0039146Y-043307D01*
G01X0039022Y-043283D01*
G01X0038898Y-043258D01*
G01X0038665Y-043162D01*
G01X0038490Y-043044D01*
G01X0038456Y-043022D01*
G01X0038277Y-042843D01*
G01X0038239Y-042786D01*
G01X0038137Y-042634D01*
G01X0038041Y-042401D01*
G01X0038011Y-042251D01*
G01X0037992Y-042154D01*
G01X0037992Y-041901D01*
G01X0038025Y-041734D01*
G01X0038041Y-041654D01*
G01X0038137Y-041421D01*
G01X0038259Y-041240D01*
G01X0038277Y-041212D01*
G01X0038456Y-041033D01*
G01X0038551Y-040969D01*
G01X0038665Y-040893D01*
G01X0038898Y-040797D01*
G01X0039103Y-040756D01*
G01X0039146Y-040748D01*
G01X0039398Y-040748D01*
G01X0039440Y-040756D01*
G01X0039440Y-040756D01*
G37*
G36*
G01X0028114Y-042912D02*
G01X0028122Y-042915D01*
G01X0028130Y-042919D01*
G01X0028137Y-042924D01*
G01X0028142Y-042931D01*
G01X0028146Y-042939D01*
G01X0028149Y-042947D01*
G01X0028150Y-042958D01*
G01X0028150Y-043140D01*
G01X0028149Y-043152D01*
G01X0028146Y-043160D01*
G01X0028142Y-043167D01*
G01X0028137Y-043174D01*
G01X0028130Y-043180D01*
G01X0028122Y-043184D01*
G01X0028114Y-043186D01*
G01X0028103Y-043187D01*
G01X0027389Y-043187D01*
G01X0027378Y-043186D01*
G01X0027370Y-043184D01*
G01X0027362Y-043180D01*
G01X0027355Y-043174D01*
G01X0027350Y-043167D01*
G01X0027346Y-043160D01*
G01X0027343Y-043152D01*
G01X0027342Y-043140D01*
G01X0027342Y-042958D01*
G01X0027343Y-042947D01*
G01X0027346Y-042939D01*
G01X0027350Y-042931D01*
G01X0027355Y-042924D01*
G01X0027362Y-042919D01*
G01X0027370Y-042915D01*
G01X0027378Y-042912D01*
G01X0027389Y-042911D01*
G01X0028103Y-042911D01*
G01X0028114Y-042912D01*
G01X0028114Y-042912D01*
G37*
G36*
G01X0026165Y-042912D02*
G01X0026174Y-042915D01*
G01X0026181Y-042919D01*
G01X0026188Y-042924D01*
G01X0026193Y-042931D01*
G01X0026198Y-042939D01*
G01X0026200Y-042947D01*
G01X0026201Y-042958D01*
G01X0026201Y-043140D01*
G01X0026200Y-043152D01*
G01X0026198Y-043160D01*
G01X0026193Y-043167D01*
G01X0026188Y-043174D01*
G01X0026181Y-043180D01*
G01X0026174Y-043184D01*
G01X0026165Y-043186D01*
G01X0026154Y-043187D01*
G01X0025440Y-043187D01*
G01X0025429Y-043186D01*
G01X0025421Y-043184D01*
G01X0025413Y-043180D01*
G01X0025407Y-043174D01*
G01X0025401Y-043167D01*
G01X0025397Y-043160D01*
G01X0025394Y-043152D01*
G01X0025393Y-043140D01*
G01X0025393Y-042958D01*
G01X0025394Y-042947D01*
G01X0025397Y-042939D01*
G01X0025401Y-042931D01*
G01X0025407Y-042924D01*
G01X0025413Y-042919D01*
G01X0025421Y-042915D01*
G01X0025429Y-042912D01*
G01X0025440Y-042911D01*
G01X0026154Y-042911D01*
G01X0026165Y-042912D01*
G01X0026165Y-042912D01*
G37*
G36*
G01X0024062Y-040869D02*
G01X0024215Y-040932D01*
G01X0024263Y-040952D01*
G01X0024443Y-041073D01*
G01X0024597Y-041226D01*
G01X0024717Y-041407D01*
G01X0024717Y-041407D01*
G01X0024801Y-041607D01*
G01X0024843Y-041821D01*
G01X0024843Y-042038D01*
G01X0024801Y-042251D01*
G01X0024738Y-042401D01*
G01X0024717Y-042451D01*
G01X0024597Y-042632D01*
G01X0024443Y-042786D01*
G01X0024263Y-042906D01*
G01X0024263Y-042906D01*
G01X0024263Y-042906D01*
G01X0024062Y-042990D01*
G01X0023849Y-043032D01*
G01X0023632Y-043032D01*
G01X0023418Y-042990D01*
G01X0023218Y-042906D01*
G01X0023218Y-042906D01*
G01X0023218Y-042906D01*
G01X0023037Y-042786D01*
G01X0022884Y-042632D01*
G01X0022763Y-042451D01*
G01X0022742Y-042401D01*
G01X0022680Y-042251D01*
G01X0022637Y-042038D01*
G01X0022637Y-041821D01*
G01X0022680Y-041607D01*
G01X0022763Y-041407D01*
G01X0022763Y-041407D01*
G01X0022884Y-041226D01*
G01X0023037Y-041073D01*
G01X0023218Y-040952D01*
G01X0023265Y-040932D01*
G01X0023418Y-040869D01*
G01X0023632Y-040826D01*
G01X0023849Y-040826D01*
G01X0024062Y-040869D01*
G01X0024062Y-040869D01*
G37*
G36*
G01X0054377Y-040869D02*
G01X0054530Y-040932D01*
G01X0054577Y-040952D01*
G01X0054758Y-041073D01*
G01X0054912Y-041226D01*
G01X0055032Y-041407D01*
G01X0055032Y-041407D01*
G01X0055115Y-041607D01*
G01X0055158Y-041821D01*
G01X0055158Y-042038D01*
G01X0055115Y-042251D01*
G01X0055053Y-042401D01*
G01X0055032Y-042451D01*
G01X0054912Y-042632D01*
G01X0054758Y-042786D01*
G01X0054577Y-042906D01*
G01X0054577Y-042906D01*
G01X0054577Y-042906D01*
G01X0054377Y-042990D01*
G01X0054164Y-043032D01*
G01X0053947Y-043032D01*
G01X0053733Y-042990D01*
G01X0053533Y-042906D01*
G01X0053533Y-042906D01*
G01X0053533Y-042906D01*
G01X0053352Y-042786D01*
G01X0053199Y-042632D01*
G01X0053078Y-042451D01*
G01X0053057Y-042401D01*
G01X0052995Y-042251D01*
G01X0052952Y-042038D01*
G01X0052952Y-041821D01*
G01X0052995Y-041607D01*
G01X0053078Y-041407D01*
G01X0053078Y-041407D01*
G01X0053199Y-041226D01*
G01X0053352Y-041073D01*
G01X0053533Y-040952D01*
G01X0053580Y-040932D01*
G01X0053733Y-040869D01*
G01X0053947Y-040826D01*
G01X0054164Y-040826D01*
G01X0054377Y-040869D01*
G01X0054377Y-040869D01*
G37*
G36*
G01X0041980Y-042314D02*
G01X0041994Y-042318D01*
G01X0042006Y-042325D01*
G01X0042017Y-042334D01*
G01X0042026Y-042345D01*
G01X0042032Y-042357D01*
G01X0042036Y-042370D01*
G01X0042038Y-042387D01*
G01X0042038Y-042653D01*
G01X0042036Y-042669D01*
G01X0042032Y-042683D01*
G01X0042026Y-042695D01*
G01X0042017Y-042706D01*
G01X0042006Y-042715D01*
G01X0041994Y-042721D01*
G01X0041980Y-042725D01*
G01X0041964Y-042727D01*
G01X0041727Y-042727D01*
G01X0041711Y-042725D01*
G01X0041697Y-042721D01*
G01X0041685Y-042715D01*
G01X0041674Y-042706D01*
G01X0041665Y-042695D01*
G01X0041659Y-042683D01*
G01X0041655Y-042669D01*
G01X0041653Y-042653D01*
G01X0041653Y-042387D01*
G01X0041655Y-042370D01*
G01X0041659Y-042357D01*
G01X0041665Y-042345D01*
G01X0041674Y-042334D01*
G01X0041685Y-042325D01*
G01X0041697Y-042318D01*
G01X0041711Y-042314D01*
G01X0041727Y-042313D01*
G01X0041964Y-042313D01*
G01X0041980Y-042314D01*
G01X0041980Y-042314D01*
G37*
G36*
G01X0035090Y-042314D02*
G01X0035104Y-042318D01*
G01X0035116Y-042325D01*
G01X0035127Y-042334D01*
G01X0035136Y-042345D01*
G01X0035142Y-042357D01*
G01X0035146Y-042370D01*
G01X0035148Y-042387D01*
G01X0035148Y-042653D01*
G01X0035146Y-042669D01*
G01X0035142Y-042683D01*
G01X0035136Y-042695D01*
G01X0035127Y-042706D01*
G01X0035116Y-042715D01*
G01X0035104Y-042721D01*
G01X0035090Y-042725D01*
G01X0035074Y-042727D01*
G01X0034837Y-042727D01*
G01X0034821Y-042725D01*
G01X0034808Y-042721D01*
G01X0034795Y-042715D01*
G01X0034785Y-042706D01*
G01X0034776Y-042695D01*
G01X0034769Y-042683D01*
G01X0034765Y-042669D01*
G01X0034763Y-042653D01*
G01X0034763Y-042387D01*
G01X0034765Y-042370D01*
G01X0034769Y-042357D01*
G01X0034776Y-042345D01*
G01X0034785Y-042334D01*
G01X0034795Y-042325D01*
G01X0034808Y-042318D01*
G01X0034821Y-042314D01*
G01X0034837Y-042313D01*
G01X0035074Y-042313D01*
G01X0035090Y-042314D01*
G01X0035090Y-042314D01*
G37*
G36*
G01X0034470Y-042314D02*
G01X0034484Y-042318D01*
G01X0034496Y-042325D01*
G01X0034507Y-042334D01*
G01X0034516Y-042345D01*
G01X0034522Y-042357D01*
G01X0034526Y-042370D01*
G01X0034528Y-042387D01*
G01X0034528Y-042653D01*
G01X0034526Y-042669D01*
G01X0034522Y-042683D01*
G01X0034516Y-042695D01*
G01X0034507Y-042706D01*
G01X0034496Y-042715D01*
G01X0034484Y-042721D01*
G01X0034470Y-042725D01*
G01X0034454Y-042727D01*
G01X0034217Y-042727D01*
G01X0034201Y-042725D01*
G01X0034188Y-042721D01*
G01X0034175Y-042715D01*
G01X0034164Y-042706D01*
G01X0034156Y-042695D01*
G01X0034149Y-042683D01*
G01X0034145Y-042669D01*
G01X0034143Y-042653D01*
G01X0034143Y-042387D01*
G01X0034145Y-042370D01*
G01X0034149Y-042357D01*
G01X0034156Y-042345D01*
G01X0034164Y-042334D01*
G01X0034175Y-042325D01*
G01X0034188Y-042318D01*
G01X0034201Y-042314D01*
G01X0034217Y-042313D01*
G01X0034454Y-042313D01*
G01X0034470Y-042314D01*
G01X0034470Y-042314D01*
G37*
G36*
G01X0041360Y-042314D02*
G01X0041373Y-042318D01*
G01X0041386Y-042325D01*
G01X0041397Y-042334D01*
G01X0041405Y-042345D01*
G01X0041412Y-042357D01*
G01X0041416Y-042370D01*
G01X0041418Y-042387D01*
G01X0041418Y-042653D01*
G01X0041416Y-042669D01*
G01X0041412Y-042683D01*
G01X0041405Y-042695D01*
G01X0041397Y-042706D01*
G01X0041386Y-042715D01*
G01X0041373Y-042721D01*
G01X0041360Y-042725D01*
G01X0041344Y-042727D01*
G01X0041107Y-042727D01*
G01X0041091Y-042725D01*
G01X0041077Y-042721D01*
G01X0041065Y-042715D01*
G01X0041054Y-042706D01*
G01X0041045Y-042695D01*
G01X0041039Y-042683D01*
G01X0041035Y-042669D01*
G01X0041033Y-042653D01*
G01X0041033Y-042387D01*
G01X0041035Y-042370D01*
G01X0041039Y-042357D01*
G01X0041045Y-042345D01*
G01X0041054Y-042334D01*
G01X0041065Y-042325D01*
G01X0041077Y-042318D01*
G01X0041091Y-042314D01*
G01X0041107Y-042313D01*
G01X0041344Y-042313D01*
G01X0041360Y-042314D01*
G01X0041360Y-042314D01*
G37*
G36*
G01X0046606Y-042314D02*
G01X0046620Y-042318D01*
G01X0046632Y-042325D01*
G01X0046643Y-042334D01*
G01X0046652Y-042345D01*
G01X0046658Y-042357D01*
G01X0046662Y-042370D01*
G01X0046664Y-042387D01*
G01X0046664Y-042623D01*
G01X0046662Y-042640D01*
G01X0046658Y-042653D01*
G01X0046652Y-042665D01*
G01X0046643Y-042676D01*
G01X0046632Y-042685D01*
G01X0046620Y-042692D01*
G01X0046606Y-042696D01*
G01X0046590Y-042697D01*
G01X0046324Y-042697D01*
G01X0046307Y-042696D01*
G01X0046294Y-042692D01*
G01X0046282Y-042685D01*
G01X0046271Y-042676D01*
G01X0046262Y-042665D01*
G01X0046255Y-042653D01*
G01X0046251Y-042640D01*
G01X0046250Y-042623D01*
G01X0046250Y-042387D01*
G01X0046251Y-042370D01*
G01X0046255Y-042357D01*
G01X0046262Y-042345D01*
G01X0046271Y-042334D01*
G01X0046282Y-042325D01*
G01X0046294Y-042318D01*
G01X0046307Y-042314D01*
G01X0046324Y-042313D01*
G01X0046590Y-042313D01*
G01X0046606Y-042314D01*
G01X0046606Y-042314D01*
G37*
G36*
G01X0031957Y-040729D02*
G01X0031969Y-040733D01*
G01X0031980Y-040739D01*
G01X0031990Y-040747D01*
G01X0031997Y-040756D01*
G01X0032003Y-040767D01*
G01X0032007Y-040779D01*
G01X0032008Y-040793D01*
G01X0032008Y-042277D01*
G01X0032007Y-042292D01*
G01X0032003Y-042304D01*
G01X0031997Y-042315D01*
G01X0031990Y-042324D01*
G01X0031980Y-042332D01*
G01X0031969Y-042338D01*
G01X0031957Y-042341D01*
G01X0031943Y-042343D01*
G01X0031049Y-042343D01*
G01X0031035Y-042341D01*
G01X0031023Y-042338D01*
G01X0031012Y-042332D01*
G01X0031002Y-042324D01*
G01X0030995Y-042315D01*
G01X0030989Y-042304D01*
G01X0030985Y-042292D01*
G01X0030984Y-042277D01*
G01X0030984Y-040793D01*
G01X0030985Y-040779D01*
G01X0030989Y-040767D01*
G01X0030995Y-040756D01*
G01X0031002Y-040747D01*
G01X0031012Y-040739D01*
G01X0031023Y-040733D01*
G01X0031035Y-040729D01*
G01X0031049Y-040728D01*
G01X0031943Y-040728D01*
G01X0031957Y-040729D01*
G01X0031957Y-040729D01*
G37*
G36*
G01X0028071Y-042304D02*
G01X0027047Y-042304D01*
G01X0027047Y-041555D01*
G01X0028071Y-041555D01*
G01X0028071Y-042304D01*
G01X0028071Y-042304D01*
G37*
G36*
G01X0026496Y-042304D02*
G01X0025472Y-042304D01*
G01X0025472Y-041555D01*
G01X0026496Y-041555D01*
G01X0026496Y-042304D01*
G01X0026496Y-042304D01*
G37*
G36*
G01X0035090Y-041724D02*
G01X0035104Y-041728D01*
G01X0035116Y-041734D01*
G01X0035127Y-041743D01*
G01X0035136Y-041754D01*
G01X0035142Y-041766D01*
G01X0035146Y-041780D01*
G01X0035148Y-041796D01*
G01X0035148Y-042062D01*
G01X0035146Y-042079D01*
G01X0035142Y-042092D01*
G01X0035136Y-042104D01*
G01X0035127Y-042115D01*
G01X0035116Y-042124D01*
G01X0035104Y-042131D01*
G01X0035090Y-042135D01*
G01X0035074Y-042136D01*
G01X0034837Y-042136D01*
G01X0034821Y-042135D01*
G01X0034808Y-042131D01*
G01X0034795Y-042124D01*
G01X0034785Y-042115D01*
G01X0034776Y-042104D01*
G01X0034769Y-042092D01*
G01X0034765Y-042079D01*
G01X0034763Y-042062D01*
G01X0034763Y-041796D01*
G01X0034765Y-041780D01*
G01X0034769Y-041766D01*
G01X0034776Y-041754D01*
G01X0034785Y-041743D01*
G01X0034795Y-041734D01*
G01X0034808Y-041728D01*
G01X0034821Y-041724D01*
G01X0034837Y-041722D01*
G01X0035074Y-041722D01*
G01X0035090Y-041724D01*
G01X0035090Y-041724D01*
G37*
G36*
G01X0034470Y-041724D02*
G01X0034484Y-041728D01*
G01X0034496Y-041734D01*
G01X0034507Y-041743D01*
G01X0034516Y-041754D01*
G01X0034522Y-041766D01*
G01X0034526Y-041780D01*
G01X0034528Y-041796D01*
G01X0034528Y-042062D01*
G01X0034526Y-042079D01*
G01X0034522Y-042092D01*
G01X0034516Y-042104D01*
G01X0034507Y-042115D01*
G01X0034496Y-042124D01*
G01X0034484Y-042131D01*
G01X0034470Y-042135D01*
G01X0034454Y-042136D01*
G01X0034217Y-042136D01*
G01X0034201Y-042135D01*
G01X0034188Y-042131D01*
G01X0034175Y-042124D01*
G01X0034164Y-042115D01*
G01X0034156Y-042104D01*
G01X0034149Y-042092D01*
G01X0034145Y-042079D01*
G01X0034143Y-042062D01*
G01X0034143Y-041796D01*
G01X0034145Y-041780D01*
G01X0034149Y-041766D01*
G01X0034156Y-041754D01*
G01X0034164Y-041743D01*
G01X0034175Y-041734D01*
G01X0034188Y-041728D01*
G01X0034201Y-041724D01*
G01X0034217Y-041722D01*
G01X0034454Y-041722D01*
G01X0034470Y-041724D01*
G01X0034470Y-041724D01*
G37*
G36*
G01X0041360Y-041724D02*
G01X0041373Y-041728D01*
G01X0041386Y-041734D01*
G01X0041397Y-041743D01*
G01X0041405Y-041754D01*
G01X0041412Y-041766D01*
G01X0041416Y-041780D01*
G01X0041418Y-041796D01*
G01X0041418Y-042062D01*
G01X0041416Y-042079D01*
G01X0041412Y-042092D01*
G01X0041405Y-042104D01*
G01X0041397Y-042115D01*
G01X0041386Y-042124D01*
G01X0041373Y-042131D01*
G01X0041360Y-042135D01*
G01X0041344Y-042136D01*
G01X0041107Y-042136D01*
G01X0041091Y-042135D01*
G01X0041077Y-042131D01*
G01X0041065Y-042124D01*
G01X0041054Y-042115D01*
G01X0041045Y-042104D01*
G01X0041039Y-042092D01*
G01X0041035Y-042079D01*
G01X0041033Y-042062D01*
G01X0041033Y-041796D01*
G01X0041035Y-041780D01*
G01X0041039Y-041766D01*
G01X0041045Y-041754D01*
G01X0041054Y-041743D01*
G01X0041065Y-041734D01*
G01X0041077Y-041728D01*
G01X0041091Y-041724D01*
G01X0041107Y-041722D01*
G01X0041344Y-041722D01*
G01X0041360Y-041724D01*
G01X0041360Y-041724D01*
G37*
G36*
G01X0041980Y-041724D02*
G01X0041994Y-041728D01*
G01X0042006Y-041734D01*
G01X0042017Y-041743D01*
G01X0042026Y-041754D01*
G01X0042032Y-041766D01*
G01X0042036Y-041780D01*
G01X0042038Y-041796D01*
G01X0042038Y-042062D01*
G01X0042036Y-042079D01*
G01X0042032Y-042092D01*
G01X0042026Y-042104D01*
G01X0042017Y-042115D01*
G01X0042006Y-042124D01*
G01X0041994Y-042131D01*
G01X0041980Y-042135D01*
G01X0041964Y-042136D01*
G01X0041727Y-042136D01*
G01X0041711Y-042135D01*
G01X0041697Y-042131D01*
G01X0041685Y-042124D01*
G01X0041674Y-042115D01*
G01X0041665Y-042104D01*
G01X0041659Y-042092D01*
G01X0041655Y-042079D01*
G01X0041653Y-042062D01*
G01X0041653Y-041796D01*
G01X0041655Y-041780D01*
G01X0041659Y-041766D01*
G01X0041665Y-041754D01*
G01X0041674Y-041743D01*
G01X0041685Y-041734D01*
G01X0041697Y-041728D01*
G01X0041711Y-041724D01*
G01X0041727Y-041722D01*
G01X0041964Y-041722D01*
G01X0041980Y-041724D01*
G01X0041980Y-041724D01*
G37*
M02*
