G04 This is an RS-274x file exported by *
G04 gerbv version 2.6A *
G04 More information is available about gerbv at *
G04 http://gerbv.geda-project.org/ *
G04 --End of header info--*
%MOIN*%
%FSLAX34Y34*%
%IPPOS*%
G04 --Define apertures--*
%ADD10C,0.0039*%
G04 --Start main section--*
G54D10*
G36*
G01X0027881Y-069215D02*
G01X0028081Y-069298D01*
G01X0028081Y-069298D01*
G01X0028262Y-069419D01*
G01X0028416Y-069573D01*
G01X0028536Y-069753D01*
G01X0028536Y-069753D01*
G01X0028619Y-069954D01*
G01X0028662Y-070167D01*
G01X0028662Y-070384D01*
G01X0028619Y-070597D01*
G01X0028536Y-070798D01*
G01X0028536Y-070798D01*
G01X0028416Y-070979D01*
G01X0028262Y-071132D01*
G01X0028081Y-071253D01*
G01X0028081Y-071253D01*
G01X0028081Y-071253D01*
G01X0027881Y-071336D01*
G01X0027668Y-071378D01*
G01X0027450Y-071378D01*
G01X0027237Y-071336D01*
G01X0027037Y-071253D01*
G01X0027037Y-071253D01*
G01X0027037Y-071253D01*
G01X0026856Y-071132D01*
G01X0026702Y-070979D01*
G01X0026582Y-070798D01*
G01X0026582Y-070798D01*
G01X0026499Y-070597D01*
G01X0026456Y-070384D01*
G01X0026456Y-070167D01*
G01X0026499Y-069954D01*
G01X0026582Y-069753D01*
G01X0026582Y-069753D01*
G01X0026702Y-069573D01*
G01X0026856Y-069419D01*
G01X0027037Y-069298D01*
G01X0027037Y-069298D01*
G01X0027237Y-069215D01*
G01X0027450Y-069173D01*
G01X0027668Y-069173D01*
G01X0027881Y-069215D01*
G01X0027881Y-069215D01*
G37*
G36*
G01X0048353Y-069215D02*
G01X0048554Y-069298D01*
G01X0048554Y-069298D01*
G01X0048734Y-069419D01*
G01X0048888Y-069573D01*
G01X0049009Y-069753D01*
G01X0049009Y-069753D01*
G01X0049092Y-069954D01*
G01X0049134Y-070167D01*
G01X0049134Y-070384D01*
G01X0049092Y-070597D01*
G01X0049009Y-070798D01*
G01X0049009Y-070798D01*
G01X0048888Y-070979D01*
G01X0048734Y-071132D01*
G01X0048554Y-071253D01*
G01X0048554Y-071253D01*
G01X0048554Y-071253D01*
G01X0048353Y-071336D01*
G01X0048140Y-071378D01*
G01X0047923Y-071378D01*
G01X0047710Y-071336D01*
G01X0047509Y-071253D01*
G01X0047509Y-071253D01*
G01X0047509Y-071253D01*
G01X0047329Y-071132D01*
G01X0047175Y-070979D01*
G01X0047054Y-070798D01*
G01X0047054Y-070798D01*
G01X0046971Y-070597D01*
G01X0046929Y-070384D01*
G01X0046929Y-070167D01*
G01X0046971Y-069954D01*
G01X0047054Y-069753D01*
G01X0047054Y-069753D01*
G01X0047175Y-069573D01*
G01X0047329Y-069419D01*
G01X0047509Y-069298D01*
G01X0047509Y-069298D01*
G01X0047710Y-069215D01*
G01X0047923Y-069173D01*
G01X0048140Y-069173D01*
G01X0048353Y-069215D01*
G01X0048353Y-069215D01*
G37*
G36*
G01X0054377Y-069215D02*
G01X0054577Y-069298D01*
G01X0054577Y-069298D01*
G01X0054758Y-069419D01*
G01X0054912Y-069573D01*
G01X0055032Y-069753D01*
G01X0055032Y-069753D01*
G01X0055115Y-069954D01*
G01X0055158Y-070167D01*
G01X0055158Y-070384D01*
G01X0055115Y-070597D01*
G01X0055032Y-070798D01*
G01X0055032Y-070798D01*
G01X0054912Y-070979D01*
G01X0054758Y-071132D01*
G01X0054577Y-071253D01*
G01X0054577Y-071253D01*
G01X0054577Y-071253D01*
G01X0054377Y-071336D01*
G01X0054164Y-071378D01*
G01X0053947Y-071378D01*
G01X0053733Y-071336D01*
G01X0053533Y-071253D01*
G01X0053533Y-071253D01*
G01X0053533Y-071253D01*
G01X0053352Y-071132D01*
G01X0053199Y-070979D01*
G01X0053078Y-070798D01*
G01X0053078Y-070798D01*
G01X0052995Y-070597D01*
G01X0052952Y-070384D01*
G01X0052952Y-070167D01*
G01X0052995Y-069954D01*
G01X0053078Y-069753D01*
G01X0053078Y-069753D01*
G01X0053199Y-069573D01*
G01X0053352Y-069419D01*
G01X0053533Y-069298D01*
G01X0053533Y-069298D01*
G01X0053733Y-069215D01*
G01X0053947Y-069173D01*
G01X0054164Y-069173D01*
G01X0054377Y-069215D01*
G01X0054377Y-069215D01*
G37*
G36*
G01X0024062Y-069215D02*
G01X0024263Y-069298D01*
G01X0024263Y-069298D01*
G01X0024443Y-069419D01*
G01X0024597Y-069573D01*
G01X0024717Y-069753D01*
G01X0024717Y-069753D01*
G01X0024801Y-069954D01*
G01X0024843Y-070167D01*
G01X0024843Y-070384D01*
G01X0024801Y-070597D01*
G01X0024717Y-070798D01*
G01X0024717Y-070798D01*
G01X0024597Y-070979D01*
G01X0024443Y-071132D01*
G01X0024263Y-071253D01*
G01X0024263Y-071253D01*
G01X0024263Y-071253D01*
G01X0024062Y-071336D01*
G01X0023849Y-071378D01*
G01X0023632Y-071378D01*
G01X0023418Y-071336D01*
G01X0023218Y-071253D01*
G01X0023218Y-071253D01*
G01X0023218Y-071253D01*
G01X0023037Y-071132D01*
G01X0022884Y-070979D01*
G01X0022763Y-070798D01*
G01X0022763Y-070798D01*
G01X0022680Y-070597D01*
G01X0022637Y-070384D01*
G01X0022637Y-070167D01*
G01X0022680Y-069954D01*
G01X0022763Y-069753D01*
G01X0022763Y-069753D01*
G01X0022884Y-069573D01*
G01X0023037Y-069419D01*
G01X0023218Y-069298D01*
G01X0023218Y-069298D01*
G01X0023418Y-069215D01*
G01X0023632Y-069173D01*
G01X0023849Y-069173D01*
G01X0024062Y-069215D01*
G01X0024062Y-069215D01*
G37*
G36*
G01X0044685Y-071260D02*
G01X0034350Y-071260D01*
G01X0034350Y-068602D01*
G01X0044685Y-068602D01*
G01X0044685Y-071260D01*
G01X0044685Y-071260D01*
G37*
G36*
G01X0046850Y-068209D02*
G01X0045571Y-068209D01*
G01X0045571Y-066289D01*
G01X0045570Y-066280D01*
G01X0045567Y-066271D01*
G01X0045563Y-066262D01*
G01X0045556Y-066255D01*
G01X0045549Y-066248D01*
G01X0045540Y-066244D01*
G01X0045531Y-066241D01*
G01X0045522Y-066240D01*
G01X0034350Y-066240D01*
G01X0034350Y-063681D01*
G01X0046850Y-063681D01*
G01X0046850Y-068209D01*
G01X0046850Y-068209D01*
G37*
G36*
G01X0039718Y-060753D02*
G01X0039842Y-060777D01*
G01X0040075Y-060874D01*
G01X0040284Y-061014D01*
G01X0040463Y-061192D01*
G01X0040603Y-061402D01*
G01X0040699Y-061635D01*
G01X0040699Y-061635D01*
G01X0040748Y-061882D01*
G01X0040748Y-062134D01*
G01X0040724Y-062258D01*
G01X0040699Y-062381D01*
G01X0040603Y-062614D01*
G01X0040463Y-062824D01*
G01X0040284Y-063002D01*
G01X0040075Y-063142D01*
G01X0039842Y-063239D01*
G01X0039718Y-063263D01*
G01X0039595Y-063288D01*
G01X0039342Y-063288D01*
G01X0039219Y-063263D01*
G01X0039095Y-063239D01*
G01X0038862Y-063142D01*
G01X0038653Y-063002D01*
G01X0038474Y-062824D01*
G01X0038334Y-062614D01*
G01X0038238Y-062381D01*
G01X0038213Y-062258D01*
G01X0038189Y-062134D01*
G01X0038189Y-061882D01*
G01X0038238Y-061635D01*
G01X0038238Y-061635D01*
G01X0038334Y-061402D01*
G01X0038474Y-061192D01*
G01X0038653Y-061014D01*
G01X0038862Y-060874D01*
G01X0039095Y-060777D01*
G01X0039219Y-060753D01*
G01X0039342Y-060728D01*
G01X0039595Y-060728D01*
G01X0039718Y-060753D01*
G01X0039718Y-060753D01*
G37*
G36*
G01X0046752Y-060531D02*
G01X0034350Y-060531D01*
G01X0034350Y-057972D01*
G01X0045423Y-057972D01*
G01X0045433Y-057971D01*
G01X0045442Y-057969D01*
G01X0045451Y-057964D01*
G01X0045458Y-057958D01*
G01X0045464Y-057951D01*
G01X0045469Y-057942D01*
G01X0045471Y-057933D01*
G01X0045472Y-057923D01*
G01X0045472Y-055807D01*
G01X0046752Y-055807D01*
G01X0046752Y-060531D01*
G01X0046752Y-060531D01*
G37*
G36*
G01X0044685Y-055512D02*
G01X0034350Y-055512D01*
G01X0034350Y-052854D01*
G01X0044685Y-052854D01*
G01X0044685Y-055512D01*
G01X0044685Y-055512D01*
G37*
G36*
G01X0044685Y-051378D02*
G01X0034350Y-051378D01*
G01X0034350Y-048720D01*
G01X0044685Y-048720D01*
G01X0044685Y-051378D01*
G01X0044685Y-051378D01*
G37*
G36*
G01X0046752Y-048228D02*
G01X0045472Y-048228D01*
G01X0045472Y-046407D01*
G01X0045471Y-046398D01*
G01X0045469Y-046389D01*
G01X0045464Y-046380D01*
G01X0045458Y-046373D01*
G01X0045451Y-046367D01*
G01X0045442Y-046362D01*
G01X0045433Y-046359D01*
G01X0045423Y-046358D01*
G01X0034350Y-046358D01*
G01X0034350Y-043799D01*
G01X0046752Y-043799D01*
G01X0046752Y-048228D01*
G01X0046752Y-048228D01*
G37*
G36*
G01X0039487Y-040765D02*
G01X0039645Y-040797D01*
G01X0039878Y-040893D01*
G01X0039992Y-040969D01*
G01X0040088Y-041033D01*
G01X0040266Y-041212D01*
G01X0040289Y-041246D01*
G01X0040406Y-041421D01*
G01X0040502Y-041654D01*
G01X0040514Y-041711D01*
G01X0040552Y-041901D01*
G01X0040552Y-042154D01*
G01X0040532Y-042251D01*
G01X0040502Y-042401D01*
G01X0040406Y-042634D01*
G01X0040322Y-042759D01*
G01X0040266Y-042843D01*
G01X0040088Y-043022D01*
G01X0040072Y-043032D01*
G01X0039878Y-043162D01*
G01X0039645Y-043258D01*
G01X0039557Y-043276D01*
G01X0039398Y-043307D01*
G01X0039146Y-043307D01*
G01X0038986Y-043276D01*
G01X0038898Y-043258D01*
G01X0038665Y-043162D01*
G01X0038471Y-043032D01*
G01X0038456Y-043022D01*
G01X0038277Y-042843D01*
G01X0038221Y-042759D01*
G01X0038137Y-042634D01*
G01X0038041Y-042401D01*
G01X0038011Y-042251D01*
G01X0037992Y-042154D01*
G01X0037992Y-041901D01*
G01X0038030Y-041711D01*
G01X0038041Y-041654D01*
G01X0038137Y-041421D01*
G01X0038254Y-041246D01*
G01X0038277Y-041212D01*
G01X0038456Y-041033D01*
G01X0038551Y-040969D01*
G01X0038665Y-040893D01*
G01X0038898Y-040797D01*
G01X0039057Y-040765D01*
G01X0039146Y-040748D01*
G01X0039398Y-040748D01*
G01X0039487Y-040765D01*
G01X0039487Y-040765D01*
G37*
G36*
G01X0024062Y-040869D02*
G01X0024245Y-040945D01*
G01X0024263Y-040952D01*
G01X0024443Y-041073D01*
G01X0024597Y-041226D01*
G01X0024717Y-041407D01*
G01X0024717Y-041407D01*
G01X0024801Y-041607D01*
G01X0024843Y-041821D01*
G01X0024843Y-042038D01*
G01X0024801Y-042251D01*
G01X0024738Y-042401D01*
G01X0024717Y-042451D01*
G01X0024597Y-042632D01*
G01X0024443Y-042786D01*
G01X0024263Y-042906D01*
G01X0024263Y-042906D01*
G01X0024263Y-042906D01*
G01X0024062Y-042990D01*
G01X0023849Y-043032D01*
G01X0023632Y-043032D01*
G01X0023418Y-042990D01*
G01X0023218Y-042906D01*
G01X0023218Y-042906D01*
G01X0023218Y-042906D01*
G01X0023037Y-042786D01*
G01X0022884Y-042632D01*
G01X0022763Y-042451D01*
G01X0022742Y-042401D01*
G01X0022680Y-042251D01*
G01X0022637Y-042038D01*
G01X0022637Y-041821D01*
G01X0022680Y-041607D01*
G01X0022763Y-041407D01*
G01X0022763Y-041407D01*
G01X0022884Y-041226D01*
G01X0023037Y-041073D01*
G01X0023218Y-040952D01*
G01X0023235Y-040945D01*
G01X0023418Y-040869D01*
G01X0023632Y-040826D01*
G01X0023849Y-040826D01*
G01X0024062Y-040869D01*
G01X0024062Y-040869D01*
G37*
G36*
G01X0054377Y-040869D02*
G01X0054560Y-040945D01*
G01X0054577Y-040952D01*
G01X0054758Y-041073D01*
G01X0054912Y-041226D01*
G01X0055032Y-041407D01*
G01X0055032Y-041407D01*
G01X0055115Y-041607D01*
G01X0055158Y-041821D01*
G01X0055158Y-042038D01*
G01X0055115Y-042251D01*
G01X0055053Y-042401D01*
G01X0055032Y-042451D01*
G01X0054912Y-042632D01*
G01X0054758Y-042786D01*
G01X0054577Y-042906D01*
G01X0054577Y-042906D01*
G01X0054577Y-042906D01*
G01X0054377Y-042990D01*
G01X0054164Y-043032D01*
G01X0053947Y-043032D01*
G01X0053733Y-042990D01*
G01X0053533Y-042906D01*
G01X0053533Y-042906D01*
G01X0053533Y-042906D01*
G01X0053352Y-042786D01*
G01X0053199Y-042632D01*
G01X0053078Y-042451D01*
G01X0053057Y-042401D01*
G01X0052995Y-042251D01*
G01X0052952Y-042038D01*
G01X0052952Y-041821D01*
G01X0052995Y-041607D01*
G01X0053078Y-041407D01*
G01X0053078Y-041407D01*
G01X0053199Y-041226D01*
G01X0053352Y-041073D01*
G01X0053533Y-040952D01*
G01X0053550Y-040945D01*
G01X0053733Y-040869D01*
G01X0053947Y-040826D01*
G01X0054164Y-040826D01*
G01X0054377Y-040869D01*
G01X0054377Y-040869D01*
G37*
M02*
